<svg xmlns="http://www.w3.org/2000/svg" width="600" height="400" viewBox="0 0 600 400"><path fill="#FFFFFF" d="M0 0 h600 v400 h-600 v-400Z"/><text transform="translate(-214.5, 30)" fill="#444444" font-family="JetBrains Mono" font-weight="normal" font-size="16" x="300.0" y="10.0">Energy Production by Source (GWh)</text><defs><clipPath id="plot-clip"><rect x="0" y="0" width="540.0" height="315.0"/></clipPath></defs><g><path stroke="#CCCCCC" stroke-dasharray="None" d="M0 0.0 h540.0 M0 63.0 h540.0 M0 126.0 h540.0 M0 189.0 h540.0 M0 252.0 h540.0 M0 315.0 h540.0" transform="translate(30.0, 65.0)"/><g font-size="12" font-family="Arial" fill="#444444" transform="translate(24.0, 65.0)"><text x="0" y="0.0" transform="translate(-21, 3.5)">200</text><text x="0" y="63.0" transform="translate(-21, 3.5)">160</text><text x="0" y="126.0" transform="translate(-21, 3.5)">120</text><text x="0" y="189.0" transform="translate(-14, 3.5)">80</text><text x="0" y="252.0" transform="translate(-14, 3.5)">40</text><text x="0" y="315.0" transform="translate(-7, 3.5)">0</text></g></g><g><path stroke="#CCCCCC" stroke-dasharray="None" d="M0.0 0 v315.0 M77.14285714285714 0 v315.0 M154.28571428571428 0 v315.0 M231.42857142857142 0 v315.0 M308.57142857142856 0 v315.0 M385.7142857142857 0 v315.0 M462.85714285714283 0 v315.0 M540.0 0 v315.0" transform="translate(30.0, 65.0)"/><g font-size="12" font-family="Arial" fill="#444444" transform="translate(30.0, 83.0)"><text x="0.0" y="315.0" transform="translate(-14.0, 0)">2018</text><text x="77.14285714285714" y="315.0" transform="translate(-14.0, 0)">2019</text><text x="154.28571428571428" y="315.0" transform="translate(-14.0, 0)">2020</text><text x="231.42857142857142" y="315.0" transform="translate(-14.0, 0)">2021</text><text x="308.57142857142856" y="315.0" transform="translate(-14.0, 0)">2022</text><text x="385.7142857142857" y="315.0" transform="translate(-14.0, 0)">2023</text><text x="462.85714285714283" y="315.0" transform="translate(-14.0, 0)">2024</text><text x="540.0" y="315.0" transform="translate(-14.0, 0)">2025</text></g></g><g><path d="M30.0 191.0 L107.14285714285714 183.125 L184.28571428571428 175.25 L261.42857142857144 159.5 L338.57142857142856 135.875 L415.7142857142857 112.25 L492.85714285714283 96.5 L570.0 80.75 L570.0 380.0 L30.0 380.0z" fill="#5fab9e" fill-opacity="0.3" stroke="#5fab9e" stroke-width="1.5"/><path d="M30.0 254.0 L107.14285714285714 238.25 L184.28571428571428 230.375 L261.42857142857144 222.5 L338.57142857142856 206.75 L415.7142857142857 198.875 L492.85714285714283 183.125 L570.0 167.375 L570.0 380.0 L30.0 380.0z" fill="#f58b51" fill-opacity="0.3" stroke="#f58b51" stroke-width="1.5"/><path d="M30.0 285.5 L107.14285714285714 293.375 L184.28571428571428 301.25 L261.42857142857144 304.4 L338.57142857142856 309.125 L415.7142857142857 317.0 L492.85714285714283 320.15 L570.0 324.875 L570.0 380.0 L30.0 380.0z" fill="#f7dd72" fill-opacity="0.3" stroke="#f7dd72" stroke-width="1.5"/></g><g><rect transform="translate(-10.75, -10.5)" x="512.25" y="79.5" width="64.5" height="63.0" fill="#f5f5f5" stroke="#d7d7d7"/><g><rect y="82.5" x="512.25" width="12" height="12" fill="#5fab9e"/><text y="91.5" x="526.25" font-size="12" font-family="Arial" fill="#444444">Solar</text></g><g><rect y="94.5" x="512.25" width="12" height="12" fill="#f58b51"/><text y="103.5" x="526.25" font-size="12" font-family="Arial" fill="#444444">Wind</text></g><g><rect y="106.5" x="512.25" width="12" height="12" fill="#f7dd72"/><text y="115.5" x="526.25" font-size="12" font-family="Arial" fill="#444444">Coal</text></g></g><path d="M30.0 65.0 v315.0 M30.0 380.0 h540.0" stroke="#999" stroke-width="1.5" fill="none"/></svg>