<svg xmlns="http://www.w3.org/2000/svg" width="600" height="400" viewBox="0 0 600 400"><path fill="#FFFFFF" d="M0 0 h600 v400 h-600 v-400Z"/><text transform="translate(0, 16.0)" fill="#444444" font-family="Roboto" font-weight="normal" font-size="16" text-anchor="middle" x="300.0" y="10.0">Energy Production by Source (GWh)</text><defs><clipPath id="plot-clip"><rect x="0" y="0" width="540.0" height="336.0"/></clipPath></defs><g><path stroke="#CCCCCC" stroke-dasharray="None" d="M0 0.0 h540.0 M0 67.2 h540.0 M0 134.4 h540.0 M0 201.6 h540.0 M0 268.8 h540.0 M0 336.0 h540.0" transform="translate(30.0, 44.0)"/><g font-size="12" font-family="Arial" fill="#444444" transform="translate(24.0, 44.0)"><text x="0" y="0.0" transform="translate(-21, 3.5)">200</text><text x="0" y="67.2" transform="translate(-21, 3.5)">160</text><text x="0" y="134.4" transform="translate(-21, 3.5)">120</text><text x="0" y="201.6" transform="translate(-14, 3.5)">80</text><text x="0" y="268.8" transform="translate(-14, 3.5)">40</text><text x="0" y="336.0" transform="translate(-7, 3.5)">0</text></g></g><g><path stroke="#CCCCCC" stroke-dasharray="None" d="M0.0 0 v336.0 M77.14285714285714 0 v336.0 M154.28571428571428 0 v336.0 M231.42857142857142 0 v336.0 M308.57142857142856 0 v336.0 M385.7142857142857 0 v336.0 M462.85714285714283 0 v336.0 M540.0 0 v336.0" transform="translate(30.0, 44.0)"/><g font-size="12" font-family="Arial" fill="#444444" transform="translate(30.0, 62.0)"><text x="0.0" y="336.0" transform="translate(-14.0, 0)">2018</text><text x="77.14285714285714" y="336.0" transform="translate(-14.0, 0)">2019</text><text x="154.28571428571428" y="336.0" transform="translate(-14.0, 0)">2020</text><text x="231.42857142857142" y="336.0" transform="translate(-14.0, 0)">2021</text><text x="308.57142857142856" y="336.0" transform="translate(-14.0, 0)">2022</text><text x="385.7142857142857" y="336.0" transform="translate(-14.0, 0)">2023</text><text x="462.85714285714283" y="336.0" transform="translate(-14.0, 0)">2024</text><text x="540.0" y="336.0" transform="translate(-14.0, 0)">2025</text></g></g><g><path d="M30.0 178.4 L107.14285714285714 170.0 L184.28571428571428 161.6 L261.42857142857144 144.8 L338.57142857142856 119.59999999999997 L415.7142857142857 94.40000000000003 L492.85714285714283 77.59999999999997 L570.0 60.80000000000001 L570.0 380.0 L30.0 380.0z" fill="#5fab9e" fill-opacity="0.3" stroke="#5fab9e" stroke-width="1.5"/><path d="M30.0 245.6 L107.14285714285714 228.79999999999998 L184.28571428571428 220.4 L261.42857142857144 212.0 L338.57142857142856 195.2 L415.7142857142857 186.8 L492.85714285714283 170.0 L570.0 153.2 L570.0 380.0 L30.0 380.0z" fill="#f58b51" fill-opacity="0.3" stroke="#f58b51" stroke-width="1.5"/><path d="M30.0 279.2 L107.14285714285714 287.6 L184.28571428571428 296.0 L261.42857142857144 299.36 L338.57142857142856 304.4 L415.7142857142857 312.8 L492.85714285714283 316.15999999999997 L570.0 321.2 L570.0 380.0 L30.0 380.0z" fill="#f7dd72" fill-opacity="0.3" stroke="#f7dd72" stroke-width="1.5"/></g><g><rect transform="translate(-10.75, -10.5)" x="512.25" y="58.5" width="64.5" height="63.0" fill="#f5f5f5" stroke="#d7d7d7"/><g><rect y="61.5" x="512.25" width="12" height="12" fill="#5fab9e"/><text y="70.5" x="526.25" font-size="12" font-family="Roboto" fill="#444444">Solar</text></g><g><rect y="73.5" x="512.25" width="12" height="12" fill="#f58b51"/><text y="82.5" x="526.25" font-size="12" font-family="Roboto" fill="#444444">Wind</text></g><g><rect y="85.5" x="512.25" width="12" height="12" fill="#f7dd72"/><text y="94.5" x="526.25" font-size="12" font-family="Roboto" fill="#444444">Coal</text></g></g><path d="M30.0 44.0 v336.0 M30.0 380.0 h540.0" stroke="#999" stroke-width="1.5" fill="none"/></svg>