<svg xmlns="http://www.w3.org/2000/svg" width="600" height="380" viewBox="0 0 600 380"><path fill="#FFFFFF" d="M0 0 h600 v380 h-600 v-380Z"/><text transform="translate(-184.5, 30)" fill="#444444" font-family="JetBrains Mono" font-weight="normal" font-size="16" x="300.0" y="9.5">Daily Step Count — April 2025</text><defs><clipPath id="plot-clip"><rect x="0" y="0" width="540.0" height="297.0"/></clipPath></defs><g><path stroke="#CCCCCC" stroke-dasharray="None" d="M0 0.0 h540.0 M0 59.400000000000006 h540.0 M0 118.80000000000001 h540.0 M0 178.2 h540.0 M0 237.60000000000002 h540.0 M0 297.0 h540.0" transform="translate(30.0, 64.0)"/><g font-size="12" font-family="Arial" fill="#444444" transform="translate(24.0, 64.0)"><text x="0" y="0.0" transform="translate(-35, 3.5)">15000</text><text x="0" y="59.400000000000006" transform="translate(-35, 3.5)">12000</text><text x="0" y="118.80000000000001" transform="translate(-28, 3.5)">9000</text><text x="0" y="178.2" transform="translate(-28, 3.5)">6000</text><text x="0" y="237.60000000000002" transform="translate(-28, 3.5)">3000</text><text x="0" y="297.0" transform="translate(-7, 3.5)">0</text></g></g><g><path stroke="#CCCCCC" stroke-dasharray="None" d="M0.0 0 v297.0 M18.620689655172413 0 v297.0 M37.241379310344826 0 v297.0 M55.86206896551724 0 v297.0 M74.48275862068965 0 v297.0 M93.10344827586208 0 v297.0 M111.72413793103448 0 v297.0 M130.3448275862069 0 v297.0 M148.9655172413793 0 v297.0 M167.58620689655172 0 v297.0 M186.20689655172416 0 v297.0 M204.82758620689654 0 v297.0 M223.44827586206895 0 v297.0 M242.0689655172414 0 v297.0 M260.6896551724138 0 v297.0 M279.3103448275862 0 v297.0 M297.9310344827586 0 v297.0 M316.551724137931 0 v297.0 M335.17241379310343 0 v297.0 M353.7931034482759 0 v297.0 M372.4137931034483 0 v297.0 M391.0344827586207 0 v297.0 M409.6551724137931 0 v297.0 M428.2758620689655 0 v297.0 M446.8965517241379 0 v297.0 M465.5172413793103 0 v297.0 M484.1379310344828 0 v297.0 M502.7586206896552 0 v297.0 M521.3793103448276 0 v297.0 M540.0 0 v297.0" transform="translate(30.0, 64.0)"/><g font-size="12" font-family="Arial" fill="#444444" transform="translate(30.0, 82.0)"><text x="0.0" y="297.0" transform="translate(-3.5, 0)">1</text><text x="18.620689655172413" y="297.0" transform="translate(-3.5, 0)">2</text><text x="37.241379310344826" y="297.0" transform="translate(-3.5, 0)">3</text><text x="55.86206896551724" y="297.0" transform="translate(-3.5, 0)">4</text><text x="74.48275862068965" y="297.0" transform="translate(-3.5, 0)">5</text><text x="93.10344827586208" y="297.0" transform="translate(-3.5, 0)">6</text><text x="111.72413793103448" y="297.0" transform="translate(-3.5, 0)">7</text><text x="130.3448275862069" y="297.0" transform="translate(-3.5, 0)">8</text><text x="148.9655172413793" y="297.0" transform="translate(-3.5, 0)">9</text><text x="167.58620689655172" y="297.0" transform="translate(-7.0, 0)">10</text><text x="186.20689655172416" y="297.0" transform="translate(-7.0, 0)">11</text><text x="204.82758620689654" y="297.0" transform="translate(-7.0, 0)">12</text><text x="223.44827586206895" y="297.0" transform="translate(-7.0, 0)">13</text><text x="242.0689655172414" y="297.0" transform="translate(-7.0, 0)">14</text><text x="260.6896551724138" y="297.0" transform="translate(-7.0, 0)">15</text><text x="279.3103448275862" y="297.0" transform="translate(-7.0, 0)">16</text><text x="297.9310344827586" y="297.0" transform="translate(-7.0, 0)">17</text><text x="316.551724137931" y="297.0" transform="translate(-7.0, 0)">18</text><text x="335.17241379310343" y="297.0" transform="translate(-7.0, 0)">19</text><text x="353.7931034482759" y="297.0" transform="translate(-7.0, 0)">20</text><text x="372.4137931034483" y="297.0" transform="translate(-7.0, 0)">21</text><text x="391.0344827586207" y="297.0" transform="translate(-7.0, 0)">22</text><text x="409.6551724137931" y="297.0" transform="translate(-7.0, 0)">23</text><text x="428.2758620689655" y="297.0" transform="translate(-7.0, 0)">24</text><text x="446.8965517241379" y="297.0" transform="translate(-7.0, 0)">25</text><text x="465.5172413793103" y="297.0" transform="translate(-7.0, 0)">26</text><text x="484.1379310344828" y="297.0" transform="translate(-7.0, 0)">27</text><text x="502.7586206896552" y="297.0" transform="translate(-7.0, 0)">28</text><text x="521.3793103448276" y="297.0" transform="translate(-7.0, 0)">29</text><text x="540.0" y="297.0" transform="translate(-7.0, 0)">30</text></g></g><g><path d="M30.0 250.912 L48.62068965517241 201.7486 L67.24137931034483 174.979 L85.86206896551724 154.1296 L104.48275862068965 164.32659999999998 L123.10344827586208 192.60100000000003 L141.72413793103448 226.2016 L160.3448275862069 226.7362 L178.9655172413793 313.5394 L197.58620689655172 313.6384 L216.20689655172416 336.151 L234.82758620689654 318.0538 L253.44827586206895 311.797 L272.0689655172414 282.6712 L290.6896551724138 228.3598 L309.3103448275862 215.4106 L327.9310344827586 197.64999999999998 L346.551724137931 149.14 L365.17241379310343 151.97140000000002 L383.7931034482759 162.3862 L402.4137931034483 201.0952 L421.0344827586207 255.86200000000002 L439.6551724137931 260.0794 L458.2758620689655 311.8366 L476.8965517241379 317.1628 L495.5172413793103 336.4678 L514.1379310344828 312.8266 L532.7586206896551 267.0292 L551.3793103448276 228.85479999999998 L570.0 204.85719999999998 L570.0 361.0 L30.0 361.0z" fill="#5fab9e" fill-opacity="0.3" stroke="#5fab9e" stroke-width="1.5"/></g><path d="M30.0 64.0 v297.0 M30.0 361.0 h540.0" stroke="#999" stroke-width="1.5" fill="none"/></svg>