<svg xmlns="http://www.w3.org/2000/svg" width="700" height="400" viewBox="0 0 700 400"><path fill="#FFFFFF" d="M0 0 h700 v400 h-700 v-400Z"/><text transform="translate(-79.0, 18)" fill="#444444" font-family="Arial" font-weight="bold" font-size="16" x="350.0" y="10.0">Cardinal interpolation</text><defs><clipPath id="plot-clip"><rect x="0" y="0" width="630.0" height="333.0"/></clipPath></defs><g><path stroke="#cccccc" stroke-dasharray="None" d="M0 0.0 h630.0 M0 66.60000000000001 h630.0 M0 133.20000000000002 h630.0 M0 199.79999999999998 h630.0 M0 266.40000000000003 h630.0 M0 333.0 h630.0" transform="translate(35.0, 47.0)"/><g font-size="12" font-family="Arial" fill="#000000" transform="translate(29.0, 47.0)"><text x="0" y="0.0" transform="translate(-14, 3.5)">60</text><text x="0" y="66.60000000000001" transform="translate(-14, 3.5)">48</text><text x="0" y="133.20000000000002" transform="translate(-14, 3.5)">36</text><text x="0" y="199.79999999999998" transform="translate(-14, 3.5)">24</text><text x="0" y="266.40000000000003" transform="translate(-14, 3.5)">12</text><text x="0" y="333.0" transform="translate(-7, 3.5)">0</text></g></g><g><path stroke="#cccccc" stroke-dasharray="None" d="M0.0 0 v333.0 M126.0 0 v333.0 M252.0 0 v333.0 M378.0 0 v333.0 M504.0 0 v333.0 M630.0 0 v333.0" transform="translate(35.0, 47.0)"/><g font-size="12" font-family="Arial" fill="#000000" transform="translate(35.0, 65.0)"><text x="0.0" y="333.0" transform="translate(-4.5, 0)">A</text><text x="126.0" y="333.0" transform="translate(-4.5, 0)">B</text><text x="252.0" y="333.0" transform="translate(-4.5, 0)">C</text><text x="378.0" y="333.0" transform="translate(-4.5, 0)">D</text><text x="504.0" y="333.0" transform="translate(-4.5, 0)">E</text><text x="630.0" y="333.0" transform="translate(-4.0, 0)">F</text></g></g><g><path d="M35.0 324.5 C56.0 296.8 119.0 171.9 161.0 158.0 C203.0 144.1 245.0 255.1 287.0 241.2 C329.0 227.4 371.0 79.4 413.0 74.8 C455.0 70.1 497.0 218.1 539.0 213.5 C581.0 208.9 644.0 74.8 665.0 47.0 L665.0 380.0 L35.0 380.0z" fill="#5fab9e" fill-opacity="0.3" stroke="#5fab9e" stroke-width="1.5"/></g><path d="M35.0 47.0 v333.0 M35.0 380.0 h630.0" stroke="#999" stroke-width="1.5" fill="none"/></svg>