<svg xmlns="http://www.w3.org/2000/svg" width="700" height="400" viewBox="0 0 700 400"><path fill="#FFFFFF" d="M0 0 h700 v400 h-700 v-400Z"/><text transform="translate(-147.0, 18)" fill="#444444" font-family="Arial" font-weight="normal" font-size="16" x="350.0" y="10.0">Multi-series Area — Revenue by Channel</text><defs><clipPath id="plot-clip"><rect x="0" y="0" width="630.0" height="333.0"/></clipPath></defs><g><path stroke="#CCCCCC" stroke-dasharray="None" d="M0 0.0 h630.0 M0 66.60000000000001 h630.0 M0 133.20000000000002 h630.0 M0 199.79999999999998 h630.0 M0 266.40000000000003 h630.0 M0 333.0 h630.0" transform="translate(35.0, 47.0)"/><g font-size="12" font-family="Arial" fill="#444444" transform="translate(29.0, 47.0)"><text x="0" y="0.0" transform="translate(-14, 3.5)">80</text><text x="0" y="66.60000000000001" transform="translate(-14, 3.5)">64</text><text x="0" y="133.20000000000002" transform="translate(-14, 3.5)">48</text><text x="0" y="199.79999999999998" transform="translate(-14, 3.5)">32</text><text x="0" y="266.40000000000003" transform="translate(-14, 3.5)">16</text><text x="0" y="333.0" transform="translate(-7, 3.5)">0</text></g></g><g><path stroke="#CCCCCC" stroke-dasharray="None" d="M0.0 0 v333.0 M90.0 0 v333.0 M180.0 0 v333.0 M270.0 0 v333.0 M360.0 0 v333.0 M450.0 0 v333.0 M540.0 0 v333.0 M630.0 0 v333.0" transform="translate(35.0, 47.0)"/><g font-size="12" font-family="Arial" fill="#444444" transform="translate(35.0, 65.0)"><text x="0.0" y="333.0" transform="translate(-8.5, 0)">Q1</text><text x="90.0" y="333.0" transform="translate(-8.5, 0)">Q2</text><text x="180.0" y="333.0" transform="translate(-8.5, 0)">Q3</text><text x="270.0" y="333.0" transform="translate(-8.5, 0)">Q4</text><text x="360.0" y="333.0" transform="translate(-8.5, 0)">Q5</text><text x="450.0" y="333.0" transform="translate(-8.5, 0)">Q6</text><text x="540.0" y="333.0" transform="translate(-8.5, 0)">Q7</text><text x="630.0" y="333.0" transform="translate(-8.5, 0)">Q8</text></g></g><g><path d="M35.0 255.125 L125.0 171.875 L215.0 192.6875 L305.0 130.25 L395.0 88.625 L485.0 47.0 L575.0 109.4375 L665.0 151.0625 L665.0 380.0 L35.0 380.0z" fill="#5fab9e" fill-opacity="0.3" stroke="#5fab9e" stroke-width="1.5"/><path d="M35.0 296.75 L125.0 234.3125 L215.0 255.125 L305.0 192.6875 L395.0 171.875 L485.0 151.0625 L575.0 213.5 L665.0 234.3125 L665.0 380.0 L35.0 380.0z" fill="#f58b51" fill-opacity="0.3" stroke="#f58b51" stroke-width="1.5"/></g><g><rect transform="translate(-12.5, -7.0)" x="598.5" y="58.0" width="75.0" height="42.0" fill="#ffffff" stroke="#CCCCCC"/><g><rect y="60.0" x="598.5" width="12" height="12" fill="#5fab9e"/><text y="69.0" x="612.5" font-size="12" font-family="Arial">Online</text></g><g><rect y="72.0" x="598.5" width="12" height="12" fill="#f58b51"/><text y="81.0" x="612.5" font-size="12" font-family="Arial">Retail</text></g></g></svg>