<svg xmlns="http://www.w3.org/2000/svg" width="600" height="400" viewBox="0 0 600 400"><path fill="#FFFFFF" d="M0 0 h600 v400 h-600 v-400Z"/><text transform="translate(-135.0, 18)" fill="#444444" font-family="Arial" font-weight="normal" font-size="16" x="300.0" y="10.0">Energy Production by Source (GWh)</text><defs><clipPath id="plot-clip"><rect x="0" y="0" width="540.0" height="333.0"/></clipPath></defs><g><path stroke="#CCCCCC" stroke-dasharray="None" d="M0 0.0 h540.0 M0 66.60000000000001 h540.0 M0 133.20000000000002 h540.0 M0 199.79999999999998 h540.0 M0 266.40000000000003 h540.0 M0 333.0 h540.0" transform="translate(30.0, 47.0)"/><g font-size="12" font-family="Arial" fill="#444444" transform="translate(24.0, 47.0)"><text x="0" y="0.0" transform="translate(-21, 3.5)">200</text><text x="0" y="66.60000000000001" transform="translate(-21, 3.5)">160</text><text x="0" y="133.20000000000002" transform="translate(-21, 3.5)">120</text><text x="0" y="199.79999999999998" transform="translate(-14, 3.5)">80</text><text x="0" y="266.40000000000003" transform="translate(-14, 3.5)">40</text><text x="0" y="333.0" transform="translate(-7, 3.5)">0</text></g></g><g><path stroke="#CCCCCC" stroke-dasharray="None" d="M0.0 0 v333.0 M77.14285714285714 0 v333.0 M154.28571428571428 0 v333.0 M231.42857142857142 0 v333.0 M308.57142857142856 0 v333.0 M385.7142857142857 0 v333.0 M462.85714285714283 0 v333.0 M540.0 0 v333.0" transform="translate(30.0, 47.0)"/><g font-size="12" font-family="Arial" fill="#444444" transform="translate(30.0, 65.0)"><text x="0.0" y="333.0" transform="translate(-14.0, 0)">2018</text><text x="77.14285714285714" y="333.0" transform="translate(-14.0, 0)">2019</text><text x="154.28571428571428" y="333.0" transform="translate(-14.0, 0)">2020</text><text x="231.42857142857142" y="333.0" transform="translate(-14.0, 0)">2021</text><text x="308.57142857142856" y="333.0" transform="translate(-14.0, 0)">2022</text><text x="385.7142857142857" y="333.0" transform="translate(-14.0, 0)">2023</text><text x="462.85714285714283" y="333.0" transform="translate(-14.0, 0)">2024</text><text x="540.0" y="333.0" transform="translate(-14.0, 0)">2025</text></g></g><g><path d="M30.0 180.20000000000002 L107.14285714285714 171.875 L184.28571428571428 163.54999999999998 L261.42857142857144 146.9 L338.57142857142856 121.92500000000001 L415.7142857142857 96.94999999999999 L492.85714285714283 80.30000000000001 L570.0 63.650000000000034 L570.0 380.0 L30.0 380.0z" fill="#5fab9e" fill-opacity="0.3" stroke="#5fab9e" stroke-width="1.5"/><path d="M30.0 246.79999999999998 L107.14285714285714 230.15 L184.28571428571428 221.82500000000002 L261.42857142857144 213.5 L338.57142857142856 196.85 L415.7142857142857 188.525 L492.85714285714283 171.875 L570.0 155.225 L570.0 380.0 L30.0 380.0z" fill="#f58b51" fill-opacity="0.3" stroke="#f58b51" stroke-width="1.5"/><path d="M30.0 280.1 L107.14285714285714 288.425 L184.28571428571428 296.75 L261.42857142857144 300.08 L338.57142857142856 305.075 L415.7142857142857 313.4 L492.85714285714283 316.73 L570.0 321.725 L570.0 380.0 L30.0 380.0z" fill="#f7dd72" fill-opacity="0.3" stroke="#f7dd72" stroke-width="1.5"/></g><g><rect transform="translate(-10.75, -10.5)" x="512.25" y="61.5" width="64.5" height="63.0" fill="#f5f5f5" stroke="#d7d7d7"/><g><rect y="64.5" x="512.25" width="12" height="12" fill="#5fab9e"/><text y="73.5" x="526.25" font-size="12" font-family="Arial" fill="#444444">Solar</text></g><g><rect y="76.5" x="512.25" width="12" height="12" fill="#f58b51"/><text y="85.5" x="526.25" font-size="12" font-family="Arial" fill="#444444">Wind</text></g><g><rect y="88.5" x="512.25" width="12" height="12" fill="#f7dd72"/><text y="97.5" x="526.25" font-size="12" font-family="Arial" fill="#444444">Coal</text></g></g><path d="M30.0 47.0 v333.0 M30.0 380.0 h540.0" stroke="#999" stroke-width="1.5" fill="none"/></svg>