<svg xmlns="http://www.w3.org/2000/svg" width="700" height="400" viewBox="0 0 700 400"><path fill="#FFFFFF" d="M0 0 h700 v400 h-700 v-400Z"/><text transform="translate(-144.5, 18)" fill="#444444" font-family="Arial" font-weight="bold" font-size="16" x="350.0" y="10.0">CPU Temperature (°C) — 24-hour Cycle</text><defs><clipPath id="plot-clip"><rect x="0" y="0" width="630.0" height="314.6987022318088"/></clipPath></defs><g><path stroke="#cccccc" stroke-dasharray="None" d="M0 0.0 h630.0 M0 62.93974044636176 h630.0 M0 125.87948089272352 h630.0 M0 188.81922133908526 h630.0 M0 251.75896178544704 h630.0 M0 314.6987022318088 h630.0" transform="translate(35.0, 47.0)"/><g font-size="12" font-family="Arial" fill="#000000" transform="translate(29.0, 47.0)"><text x="0" y="0.0" transform="translate(-14, 3.5)">55</text><text x="0" y="62.93974044636176" transform="translate(-14, 3.5)">44</text><text x="0" y="125.87948089272352" transform="translate(-14, 3.5)">33</text><text x="0" y="188.81922133908526" transform="translate(-14, 3.5)">22</text><text x="0" y="251.75896178544704" transform="translate(-14, 3.5)">11</text><text x="0" y="314.6987022318088" transform="translate(-7, 3.5)">0</text></g></g><g><path stroke="#cccccc" stroke-dasharray="None" d="M0.0 0 v314.6987022318088 M27.391304347826086 0 v314.6987022318088 M54.78260869565217 0 v314.6987022318088 M82.17391304347827 0 v314.6987022318088 M109.56521739130434 0 v314.6987022318088 M136.95652173913044 0 v314.6987022318088 M164.34782608695653 0 v314.6987022318088 M191.73913043478262 0 v314.6987022318088 M219.1304347826087 0 v314.6987022318088 M246.52173913043478 0 v314.6987022318088 M273.9130434782609 0 v314.6987022318088 M301.30434782608694 0 v314.6987022318088 M328.69565217391306 0 v314.6987022318088 M356.0869565217391 0 v314.6987022318088 M383.47826086956525 0 v314.6987022318088 M410.8695652173913 0 v314.6987022318088 M438.2608695652174 0 v314.6987022318088 M465.65217391304344 0 v314.6987022318088 M493.04347826086956 0 v314.6987022318088 M520.4347826086956 0 v314.6987022318088 M547.8260869565217 0 v314.6987022318088 M575.2173913043478 0 v314.6987022318088 M602.6086956521739 0 v314.6987022318088 M630.0 0 v314.6987022318088" transform="translate(35.0, 47.0)"/><g font-size="12" font-family="Arial" fill="#000000" transform="translate(35.0, 65.0)"><text x="0.0" y="314.6987022318088" transform="translate(-6.25, 0) rotate(34.8839115553947, 0.0, 314.6987022318088)">0:00</text><text x="27.391304347826086" y="314.6987022318088" transform="translate(-6.25, 0) rotate(34.8839115553947, 27.391304347826086, 314.6987022318088)">1:00</text><text x="54.78260869565217" y="314.6987022318088" transform="translate(-6.25, 0) rotate(34.8839115553947, 54.78260869565217, 314.6987022318088)">2:00</text><text x="82.17391304347827" y="314.6987022318088" transform="translate(-6.25, 0) rotate(34.8839115553947, 82.17391304347827, 314.6987022318088)">3:00</text><text x="109.56521739130434" y="314.6987022318088" transform="translate(-6.25, 0) rotate(34.8839115553947, 109.56521739130434, 314.6987022318088)">4:00</text><text x="136.95652173913044" y="314.6987022318088" transform="translate(-6.25, 0) rotate(34.8839115553947, 136.95652173913044, 314.6987022318088)">5:00</text><text x="164.34782608695653" y="314.6987022318088" transform="translate(-6.25, 0) rotate(34.8839115553947, 164.34782608695653, 314.6987022318088)">6:00</text><text x="191.73913043478262" y="314.6987022318088" transform="translate(-6.25, 0) rotate(34.8839115553947, 191.73913043478262, 314.6987022318088)">7:00</text><text x="219.1304347826087" y="314.6987022318088" transform="translate(-6.25, 0) rotate(34.8839115553947, 219.1304347826087, 314.6987022318088)">8:00</text><text x="246.52173913043478" y="314.6987022318088" transform="translate(-6.25, 0) rotate(34.8839115553947, 246.52173913043478, 314.6987022318088)">9:00</text><text x="273.9130434782609" y="314.6987022318088" transform="translate(-6.4, 0) rotate(34.8839115553947, 273.9130434782609, 314.6987022318088)">10:00</text><text x="301.30434782608694" y="314.6987022318088" transform="translate(-6.4, 0) rotate(34.8839115553947, 301.30434782608694, 314.6987022318088)">11:00</text><text x="328.69565217391306" y="314.6987022318088" transform="translate(-6.4, 0) rotate(34.8839115553947, 328.69565217391306, 314.6987022318088)">12:00</text><text x="356.0869565217391" y="314.6987022318088" transform="translate(-6.4, 0) rotate(34.8839115553947, 356.0869565217391, 314.6987022318088)">13:00</text><text x="383.47826086956525" y="314.6987022318088" transform="translate(-6.4, 0) rotate(34.8839115553947, 383.47826086956525, 314.6987022318088)">14:00</text><text x="410.8695652173913" y="314.6987022318088" transform="translate(-6.4, 0) rotate(34.8839115553947, 410.8695652173913, 314.6987022318088)">15:00</text><text x="438.2608695652174" y="314.6987022318088" transform="translate(-6.4, 0) rotate(34.8839115553947, 438.2608695652174, 314.6987022318088)">16:00</text><text x="465.65217391304344" y="314.6987022318088" transform="translate(-6.4, 0) rotate(34.8839115553947, 465.65217391304344, 314.6987022318088)">17:00</text><text x="493.04347826086956" y="314.6987022318088" transform="translate(-6.4, 0) rotate(34.8839115553947, 493.04347826086956, 314.6987022318088)">18:00</text><text x="520.4347826086956" y="314.6987022318088" transform="translate(-6.4, 0) rotate(34.8839115553947, 520.4347826086956, 314.6987022318088)">19:00</text><text x="547.8260869565217" y="314.6987022318088" transform="translate(-6.4, 0) rotate(34.8839115553947, 547.8260869565217, 314.6987022318088)">20:00</text><text x="575.2173913043478" y="314.6987022318088" transform="translate(-6.4, 0) rotate(34.8839115553947, 575.2173913043478, 314.6987022318088)">21:00</text><text x="602.6086956521739" y="314.6987022318088" transform="translate(-6.4, 0) rotate(34.8839115553947, 602.6086956521739, 314.6987022318088)">22:00</text><text x="630.0" y="314.6987022318088" transform="translate(-6.4, 0) rotate(34.8839115553947, 630.0, 314.6987022318088)">23:00</text></g></g><g><path d="M35.0 112.8006377393782 L62.391304347826086 89.34127993664333 L89.78260869565217 51.005256210223024 L117.17391304347827 65.88192213390852 L144.56521739130434 91.05781831245321 L171.95652173913044 96.20743343988283 L199.34782608695653 155.14191767602156 L226.73913043478262 162.58025063786434 L254.1304347826087 161.43589172065774 L281.52173913043475 156.85845605183144 L308.9130434782609 128.82166258027024 L336.30434782608694 103.64576640172555 L363.69565217391306 59.01576863066907 L391.0869565217391 55.58269187904932 L418.47826086956525 81.33076751619734 L445.8695652173913 80.75858805759407 L473.2608695652174 139.69307229373277 L500.65217391304344 170.01858359970706 L528.0434782608695 177.4569165615498 L555.4347826086956 165.4411479308808 L582.8260869565217 143.6983285039558 L610.2173913043478 111.08409936356836 L637.6086956521739 70.45935780273487 L665.0 59.01576863066907 L665.0 361.6987022318088 L35.0 361.6987022318088z" fill="#5fab9e" fill-opacity="0.3" stroke="#5fab9e" stroke-width="1.5"/></g><path d="M35.0 47.0 v314.6987022318088 M35.0 361.6987022318088 h630.0" stroke="#999" stroke-width="1.5" fill="none"/></svg>