<svg xmlns="http://www.w3.org/2000/svg" width="600" height="400" viewBox="0 0 600 400"><path fill="#FFFFFF" d="M0 0 h600 v400 h-600 v-400Z"/><text transform="translate(0, 16.0)" fill="#444444" font-family="Roboto" font-weight="normal" font-size="16" text-anchor="middle" x="322.5" y="10.0">Average App Rating by Category</text><defs><clipPath id="plot-clip"><rect x="0" y="0" width="495.0" height="318.0"/></clipPath></defs><g><path stroke="#CCCCCC" stroke-dasharray="None" d="M0 28.90909090909091 h495.0 M0 72.27272727272728 h495.0 M0 115.63636363636364 h495.0 M0 159.00000000000003 h495.0 M0 202.3636363636364 h495.0 M0 245.72727272727278 h495.0 M0 289.09090909090907 h495.0" transform="translate(75.0, 44.0)"/><g font-size="12" font-family="Arial" fill="#444444" transform="translate(69.0, 44.0)"><text x="0" y="28.90909090909091" dominant-baseline="central" transform="translate(-40, 0)">Games</text><text x="0" y="72.27272727272728" dominant-baseline="central" transform="translate(-35, 0)">Social</text><text x="0" y="115.63636363636364" dominant-baseline="central" transform="translate(-31, 0)">News</text><text x="0" y="159.00000000000003" dominant-baseline="central" transform="translate(-37, 0)">Health</text><text x="0" y="202.3636363636364" dominant-baseline="central" transform="translate(-45, 0)">Finance</text><text x="0" y="245.72727272727278" dominant-baseline="central" transform="translate(-32, 0)">Music</text><text x="0" y="289.09090909090907" dominant-baseline="central" transform="translate(-34, 0)">Photo</text></g></g><g><path stroke="#CCCCCC" stroke-dasharray="None" d="M495.0 0 v318.0 M396.0 0 v318.0 M297.0 0 v318.0 M198.0 0 v318.0 M99.0 0 v318.0 M0.0 0 v318.0" transform="translate(75.0, 44.0)"/><g font-size="12" font-family="Arial" fill="#444444" transform="translate(75.0, 62.0)"><text x="495.0" y="318.0" transform="translate(-3.5, 0)">5</text><text x="396.0" y="318.0" transform="translate(-3.5, 0)">4</text><text x="297.0" y="318.0" transform="translate(-3.5, 0)">3</text><text x="198.0" y="318.0" transform="translate(-3.5, 0)">2</text><text x="99.0" y="318.0" transform="translate(-3.5, 0)">1</text><text x="0.0" y="318.0" transform="translate(-3.5, 0)">0</text></g></g><g><g opacity="0.8" transform="translate(75.0, 44.0)"><path d="M0.0 14.5 h455.4 v28.9 h-455.4 v-28.9Z M0.0 57.8 h415.8 v28.9 h-415.8 v-28.9Z M0.0 101.2 h376.2 v28.9 h-376.2 v-28.9Z M0.0 144.5 h445.5 v28.9 h-445.5 v-28.9Z M0.0 187.9 h306.9 v28.9 h-306.9 v-28.9Z M0.0 231.3 h396.0 v28.9 h-396.0 v-28.9Z M0.0 274.6 h425.7 v28.9 h-425.7 v-28.9Z" fill="#5fab9e"/></g><path stroke="#CCCCCC" stroke-dasharray="None" d="M0 318.0 h495.0" transform="translate(75.0, 44.0)"/><path stroke="#CCCCCC" stroke-dasharray="None" d="M0 0 h495.0" transform="translate(75.0, 44.0)"/><path stroke="#CCCCCC" stroke-dasharray="None" d="M0 0 v318.0" transform="translate(75.0, 44.0)"/><path stroke="#CCCCCC" stroke-dasharray="None" d="M495.0 0 v318.0" transform="translate(75.0, 44.0)"/></g><path d="M75.0 44.0 v318.0 M75.0 362.0 h495.0" stroke="#999" stroke-width="1.5" fill="none"/><text x="322.5" y="398" fill="#444444" font-size="14" font-family="Roboto" text-anchor="middle">Rating (out of 5)</text></svg>