<svg xmlns="http://www.w3.org/2000/svg" width="700" height="500" viewBox="0 0 700 500"><path fill="white" d="M0 0 h700 v500 h-700 v-500Z"/><text transform="translate(-94.0, 19)" fill="#444444" font-family="Helvetica" font-weight="bold" font-size="16" x="350.0" y="12.5">Profit/Loss by Region ($M)</text><g><path stroke="#CCCCCC" stroke-dasharray="None" d="M0 27.193548387096776 h579.0 M0 67.98387096774194 h579.0 M0 108.7741935483871 h579.0 M0 149.56451612903228 h579.0 M0 190.35483870967744 h579.0 M0 231.14516129032262 h579.0 M0 271.9354838709678 h579.0 M0 312.725806451613 h579.0 M0 353.51612903225816 h579.0 M0 394.30645161290334 h579.0" transform="translate(86.0, 53.5)"/><g font-size="12" font-family="Helvetica" transform="translate(80.0, 53.5)"><text x="0" y="27.193548387096776" transform="translate(-30, -7.0)">North</text><text x="0" y="67.98387096774194" transform="translate(-32, -7.0)">South</text><text x="0" y="108.7741935483871" transform="translate(-24, -7.0)">East</text><text x="0" y="149.56451612903228" transform="translate(-27, -7.0)">West</text><text x="0" y="190.35483870967744" transform="translate(-40, -7.0)">Central</text><text x="0" y="231.14516129032262" transform="translate(-36, -7.0)">Pacific</text><text x="0" y="271.9354838709678" transform="translate(-40, -7.0)">Atlantic</text><text x="0" y="312.725806451613" transform="translate(-51, -7.0)">Mountain</text><text x="0" y="353.51612903225816" transform="translate(-34, -7.0)">Plains</text><text x="0" y="394.30645161290334" transform="translate(-31, -7.0)">Metro</text></g></g><g><path stroke="#CCCCCC" stroke-dasharray="None" d="M579.0 0 v421.5 M506.625 0 v421.5 M434.25 0 v421.5 M361.875 0 v421.5 M289.5 0 v421.5 M217.125 0 v421.5 M144.75 0 v421.5 M72.375 0 v421.5 M0.0 0 v421.5" transform="translate(86.0, 53.5)"/><g font-size="12" font-family="Helvetica" transform="translate(86.0, 71.5)"><text x="579.0" y="421.5" transform="translate(-7.0, 0)">60</text><text x="506.625" y="421.5" transform="translate(-7.0, 0)">50</text><text x="434.25" y="421.5" transform="translate(-7.0, 0)">40</text><text x="361.875" y="421.5" transform="translate(-7.0, 0)">30</text><text x="289.5" y="421.5" transform="translate(-7.0, 0)">20</text><text x="217.125" y="421.5" transform="translate(-7.0, 0)">10</text><text x="144.75" y="421.5" transform="translate(-3.5, 0)">0</text><text x="72.375" y="421.5" transform="translate(-9.0, 0)">-10</text><text x="0.0" y="421.5" transform="translate(-9.0, 0)">-20</text></g></g><path transform="translate(86.0, 53.5)" d="M144.75 0 v421.5z" stroke="black"/><g><g opacity="0.8" transform="translate(86.0, 53.5)"><path d="M57.900000000000006 13.596774193548388 h86.85 v27.193548387096776 h-86.85 v-27.193548387096776Z M144.75 54.38709677419355 h246.07500000000005 v27.193548387096776 h-246.07500000000005 v-27.193548387096776Z M86.85 95.17741935483872 h57.900000000000006 v27.193548387096776 h-57.900000000000006 v-27.193548387096776Z M144.75 135.9677419354839 h376.35 v27.193548387096776 h-376.35 v-27.193548387096776Z M108.5625 176.75806451612905 h36.1875 v27.193548387096776 h-36.1875 v-27.193548387096776Z M144.75 217.54838709677423 h202.64999999999998 v27.193548387096776 h-202.64999999999998 v-27.193548387096776Z M144.75 258.3387096774194 h296.73749999999995 v27.193548387096776 h-296.73749999999995 v-27.193548387096776Z M7.237500000000001 299.12903225806457 h137.5125 v27.193548387096776 h-137.5125 v-27.193548387096776Z M144.75 339.91935483870975 h108.5625 v27.193548387096776 h-108.5625 v-27.193548387096776Z M144.75 380.70967741935493 h434.25 v27.193548387096776 h-434.25 v-27.193548387096776Z" fill="#5fab9e"/></g><path stroke="#CCCCCC" stroke-dasharray="None" d="M0 421.5 h579.0" transform="translate(86.0, 53.5)"/><path stroke="#CCCCCC" stroke-dasharray="None" d="M0 0 h579.0" transform="translate(86.0, 53.5)"/><path stroke="#CCCCCC" stroke-dasharray="None" d="M0 0 v421.5" transform="translate(86.0, 53.5)"/><path stroke="#CCCCCC" stroke-dasharray="None" d="M579.0 0 v421.5" transform="translate(86.0, 53.5)"/></g></svg>