<svg xmlns="http://www.w3.org/2000/svg" width="700" height="400" viewBox="0 0 700 400"><path fill="white" d="M0 0 h700 v400 h-700 v-400Z"/><text transform="translate(-94.0, 19)" fill="#444444" font-family="Helvetica" font-weight="bold" font-size="16" x="350.0" y="10.0">Profit/Loss by Region ($M)</text><g><path stroke="#CCCCCC" stroke-dasharray="None" d="M0 34.89473684210526 h590.0 M0 87.23684210526315 h590.0 M0 139.57894736842104 h590.0 M0 191.92105263157893 h590.0 M0 244.26315789473682 h590.0 M0 296.6052631578947 h590.0" transform="translate(75.0, 48.5)"/><g font-size="12" font-family="Helvetica" transform="translate(69.0, 48.5)"><text x="0" y="34.89473684210526" transform="translate(-30, -7.0)">North</text><text x="0" y="87.23684210526315" transform="translate(-32, -7.0)">South</text><text x="0" y="139.57894736842104" transform="translate(-24, -7.0)">East</text><text x="0" y="191.92105263157893" transform="translate(-27, -7.0)">West</text><text x="0" y="244.26315789473682" transform="translate(-40, -7.0)">Central</text><text x="0" y="296.6052631578947" transform="translate(-36, -7.0)">Pacific</text></g></g><g><path stroke="#CCCCCC" stroke-dasharray="None" d="M590.0 0 v331.5 M547.8571428571429 0 v331.5 M505.71428571428567 0 v331.5 M463.57142857142856 0 v331.5 M421.42857142857144 0 v331.5 M379.28571428571433 0 v331.5 M337.1428571428571 0 v331.5 M295.0 0 v331.5 M252.85714285714283 0 v331.5 M210.71428571428572 0 v331.5 M168.57142857142856 0 v331.5 M126.42857142857142 0 v331.5 M84.28571428571428 0 v331.5 M42.14285714285714 0 v331.5 M0.0 0 v331.5" transform="translate(75.0, 48.5)"/><g font-size="12" font-family="Helvetica" transform="translate(75.0, 66.5)"><text x="590.0" y="331.5" transform="translate(-7.0, 0)">55</text><text x="547.8571428571429" y="331.5" transform="translate(-7.0, 0)">50</text><text x="505.71428571428567" y="331.5" transform="translate(-7.0, 0)">45</text><text x="463.57142857142856" y="331.5" transform="translate(-7.0, 0)">40</text><text x="421.42857142857144" y="331.5" transform="translate(-7.0, 0)">35</text><text x="379.28571428571433" y="331.5" transform="translate(-7.0, 0)">30</text><text x="337.1428571428571" y="331.5" transform="translate(-7.0, 0)">25</text><text x="295.0" y="331.5" transform="translate(-7.0, 0)">20</text><text x="252.85714285714283" y="331.5" transform="translate(-7.0, 0)">15</text><text x="210.71428571428572" y="331.5" transform="translate(-7.0, 0)">10</text><text x="168.57142857142856" y="331.5" transform="translate(-3.5, 0)">5</text><text x="126.42857142857142" y="331.5" transform="translate(-3.5, 0)">0</text><text x="84.28571428571428" y="331.5" transform="translate(-5.5, 0)">-5</text><text x="42.14285714285714" y="331.5" transform="translate(-9.0, 0)">-10</text><text x="0.0" y="331.5" transform="translate(-9.0, 0)">-15</text></g></g><path transform="translate(75.0, 48.5)" d="M126.42857142857142 0 v331.5z" stroke="black"/><g><g opacity="0.8" transform="translate(75.0, 48.5)"><path d="M25.285714285714285 17.44736842105263 h101.14285714285714 v34.89473684210526 h-101.14285714285714 v-34.89473684210526Z M126.42857142857142 69.78947368421052 h286.57142857142856 v34.89473684210526 h-286.57142857142856 v-34.89473684210526Z M59.0 122.13157894736841 h67.42857142857142 v34.89473684210526 h-67.42857142857142 v-34.89473684210526Z M126.42857142857142 174.4736842105263 h438.28571428571433 v34.89473684210526 h-438.28571428571433 v-34.89473684210526Z M84.28571428571428 226.8157894736842 h42.14285714285714 v34.89473684210526 h-42.14285714285714 v-34.89473684210526Z M126.42857142857142 279.1578947368421 h236.00000000000003 v34.89473684210526 h-236.00000000000003 v-34.89473684210526Z" fill="#5fab9e"/></g><path stroke="#CCCCCC" stroke-dasharray="None" d="M0 331.5 h590.0" transform="translate(75.0, 48.5)"/></g></svg>