<svg xmlns="http://www.w3.org/2000/svg" width="700" height="500" viewBox="0 0 700 500"><path fill="white" d="M0 0 h700 v500 h-700 v-500Z"/><text transform="translate(-94.0, 19)" fill="#444444" font-family="Helvetica" font-weight="bold" font-size="16" x="350.0" y="20.0">Profit/Loss by Region ($M)</text><g><path stroke="#CCCCCC" stroke-dasharray="None" d="M0 25.258064516129032 h509.0 M0 63.14516129032258 h509.0 M0 101.03225806451613 h509.0 M0 138.9193548387097 h509.0 M0 176.80645161290323 h509.0 M0 214.69354838709677 h509.0 M0 252.58064516129033 h509.0 M0 290.4677419354839 h509.0 M0 328.35483870967744 h509.0 M0 366.241935483871 h509.0" transform="translate(121.0, 68.5)"/><g font-size="12" font-family="Helvetica" transform="translate(115.0, 68.5)"><text x="0" y="25.258064516129032" transform="translate(-30, -7.0)">North</text><text x="0" y="63.14516129032258" transform="translate(-32, -7.0)">South</text><text x="0" y="101.03225806451613" transform="translate(-24, -7.0)">East</text><text x="0" y="138.9193548387097" transform="translate(-27, -7.0)">West</text><text x="0" y="176.80645161290323" transform="translate(-40, -7.0)">Central</text><text x="0" y="214.69354838709677" transform="translate(-36, -7.0)">Pacific</text><text x="0" y="252.58064516129033" transform="translate(-40, -7.0)">Atlantic</text><text x="0" y="290.4677419354839" transform="translate(-51, -7.0)">Mountain</text><text x="0" y="328.35483870967744" transform="translate(-34, -7.0)">Plains</text><text x="0" y="366.241935483871" transform="translate(-31, -7.0)">Metro</text></g></g><g><path stroke="#CCCCCC" stroke-dasharray="None" d="M509.0 0 v391.5 M445.375 0 v391.5 M381.75 0 v391.5 M318.125 0 v391.5 M254.5 0 v391.5 M190.875 0 v391.5 M127.25 0 v391.5 M63.625 0 v391.5 M0.0 0 v391.5" transform="translate(121.0, 68.5)"/><g font-size="12" font-family="Helvetica" transform="translate(121.0, 86.5)"><text x="509.0" y="391.5" transform="translate(-7.0, 0)">60</text><text x="445.375" y="391.5" transform="translate(-7.0, 0)">50</text><text x="381.75" y="391.5" transform="translate(-7.0, 0)">40</text><text x="318.125" y="391.5" transform="translate(-7.0, 0)">30</text><text x="254.5" y="391.5" transform="translate(-7.0, 0)">20</text><text x="190.875" y="391.5" transform="translate(-7.0, 0)">10</text><text x="127.25" y="391.5" transform="translate(-3.5, 0)">0</text><text x="63.625" y="391.5" transform="translate(-9.0, 0)">-10</text><text x="0.0" y="391.5" transform="translate(-9.0, 0)">-20</text></g></g><path transform="translate(121.0, 68.5)" d="M127.25 0 v391.5z" stroke="black"/><g><g opacity="0.8" transform="translate(121.0, 68.5)"><path d="M0 12.629032258064516 h50.900000000000006 v25.258064516129032 h-50.900000000000006 v-25.258064516129032Z M0 50.516129032258064 h343.57500000000005 v25.258064516129032 h-343.57500000000005 v-25.258064516129032Z M0 88.40322580645162 h76.35 v25.258064516129032 h-76.35 v-25.258064516129032Z M0 126.29032258064517 h458.1 v25.258064516129032 h-458.1 v-25.258064516129032Z M0 164.17741935483872 h95.4375 v25.258064516129032 h-95.4375 v-25.258064516129032Z M0 202.06451612903226 h305.4 v25.258064516129032 h-305.4 v-25.258064516129032Z M0 239.95161290322582 h388.11249999999995 v25.258064516129032 h-388.11249999999995 v-25.258064516129032Z M0 277.8387096774194 h6.362500000000001 v25.258064516129032 h-6.362500000000001 v-25.258064516129032Z M0 315.7258064516129 h222.6875 v25.258064516129032 h-222.6875 v-25.258064516129032Z M0 353.61290322580646 h509.0 v25.258064516129032 h-509.0 v-25.258064516129032Z" fill="#5fab9e"/></g><path stroke="#CCCCCC" stroke-dasharray="None" d="M0 391.5 h509.0" transform="translate(121.0, 68.5)"/></g></svg>