<svg xmlns="http://www.w3.org/2000/svg" width="500" height="400" viewBox="0 0 500 400"><path fill="white" d="M0 0 h500 v400 h-500 v-400Z"/><text transform="translate(-38.5, 19)" fill="#444444" font-family="Helvetica" font-weight="bold" font-size="16" x="250.0" y="10.0">Fruit Sales</text><g><path stroke="#CCCCCC" stroke-dasharray="None" d="M0 331.5 h401.0 M0 165.75 h401.0 M0 0.0 h401.0 M0 331.5 h401.0" transform="translate(74.0, 48.5)"/><g font-size="12" font-family="Helvetica" transform="translate(68.0, 48.5)"><text x="0" y="331.5" transform="translate(-38, 3.5)">Apples</text><text x="0" y="165.75" transform="translate(-49, 3.5)">Bananas</text><text x="0" y="0.0" transform="translate(-47, 3.5)">Cherries</text></g></g><g><path stroke="#CCCCCC" stroke-dasharray="None" d="M401.0 0 v331.5 M320.8 0 v331.5 M240.6 0 v331.5 M160.4 0 v331.5 M80.2 0 v331.5 M0.0 0 v331.5" transform="translate(74.0, 48.5)"/><g font-size="12" font-family="Helvetica" transform="translate(74.0, 66.5)"><text x="401.0" y="331.5" transform="translate(-7.0, 0)">75</text><text x="320.8" y="331.5" transform="translate(-7.0, 0)">60</text><text x="240.6" y="331.5" transform="translate(-7.0, 0)">45</text><text x="160.4" y="331.5" transform="translate(-7.0, 0)">30</text><text x="80.2" y="331.5" transform="translate(-7.0, 0)">15</text><text x="0.0" y="331.5" transform="translate(-3.5, 0)">0</text></g></g><g opacity="0.8" transform="translate(74.0, 48.5)"><path d="M0 0.0 h160.4 v82.875 h-160.4 v-82.875Z M0 124.3125 h401.0 v82.875 h-401.0 v-82.875Z M0 248.625 h240.6 v82.875 h-240.6 v-82.875Z" fill="#5fab9e"/></g></svg>