<svg xmlns="http://www.w3.org/2000/svg" width="600" height="400" viewBox="0 0 600 400"><path fill="#FFFFFF" d="M0 0 h600 v400 h-600 v-400Z"/><text transform="translate(-195.0, 30)" fill="#444444" font-family="JetBrains Mono" font-weight="normal" font-size="16" x="300.0" y="10.0">Average App Rating by Category</text><defs><clipPath id="plot-clip"><rect x="0" y="0" width="495.0" height="297.0"/></clipPath></defs><g><path stroke="#CCCCCC" stroke-dasharray="None" d="M0 27.0 h495.0 M0 67.5 h495.0 M0 108.0 h495.0 M0 148.5 h495.0 M0 189.0 h495.0 M0 229.5 h495.0 M0 270.0 h495.0" transform="translate(75.0, 65.0)"/><g font-size="12" font-family="Arial" fill="#444444" transform="translate(69.0, 65.0)"><text x="0" y="27.0" dominant-baseline="central" transform="translate(-40, 0)">Games</text><text x="0" y="67.5" dominant-baseline="central" transform="translate(-35, 0)">Social</text><text x="0" y="108.0" dominant-baseline="central" transform="translate(-31, 0)">News</text><text x="0" y="148.5" dominant-baseline="central" transform="translate(-37, 0)">Health</text><text x="0" y="189.0" dominant-baseline="central" transform="translate(-45, 0)">Finance</text><text x="0" y="229.5" dominant-baseline="central" transform="translate(-32, 0)">Music</text><text x="0" y="270.0" dominant-baseline="central" transform="translate(-34, 0)">Photo</text></g></g><g><path stroke="#CCCCCC" stroke-dasharray="None" d="M495.0 0 v297.0 M396.0 0 v297.0 M297.0 0 v297.0 M198.0 0 v297.0 M99.0 0 v297.0 M0.0 0 v297.0" transform="translate(75.0, 65.0)"/><g font-size="12" font-family="Arial" fill="#444444" transform="translate(75.0, 83.0)"><text x="495.0" y="297.0" transform="translate(-3.5, 0)">5</text><text x="396.0" y="297.0" transform="translate(-3.5, 0)">4</text><text x="297.0" y="297.0" transform="translate(-3.5, 0)">3</text><text x="198.0" y="297.0" transform="translate(-3.5, 0)">2</text><text x="99.0" y="297.0" transform="translate(-3.5, 0)">1</text><text x="0.0" y="297.0" transform="translate(-3.5, 0)">0</text></g></g><g><g opacity="0.8" transform="translate(75.0, 65.0)"><path d="M0.0 13.5 h455.4 v27.0 h-455.4 v-27.0Z M0.0 54.0 h415.8 v27.0 h-415.8 v-27.0Z M0.0 94.5 h376.2 v27.0 h-376.2 v-27.0Z M0.0 135.0 h445.5 v27.0 h-445.5 v-27.0Z M0.0 175.5 h306.9 v27.0 h-306.9 v-27.0Z M0.0 216.0 h396.0 v27.0 h-396.0 v-27.0Z M0.0 256.5 h425.7 v27.0 h-425.7 v-27.0Z" fill="#5fab9e"/></g><path stroke="#CCCCCC" stroke-dasharray="None" d="M0 297.0 h495.0" transform="translate(75.0, 65.0)"/><path stroke="#CCCCCC" stroke-dasharray="None" d="M0 0 h495.0" transform="translate(75.0, 65.0)"/><path stroke="#CCCCCC" stroke-dasharray="None" d="M0 0 v297.0" transform="translate(75.0, 65.0)"/><path stroke="#CCCCCC" stroke-dasharray="None" d="M495.0 0 v297.0" transform="translate(75.0, 65.0)"/></g><path d="M75.0 65.0 v297.0 M75.0 362.0 h495.0" stroke="#999" stroke-width="1.5" fill="none"/><text x="322.5" y="398" fill="#444444" font-size="14" font-family="JetBrains Mono" text-anchor="middle">Rating (out of 5)</text></svg>