<svg xmlns="http://www.w3.org/2000/svg" width="500" height="400" viewBox="0 0 500 400"><path fill="white" d="M0 0 h500 v400 h-500 v-400Z"/><text transform="translate(-38.5, 19)" fill="#444444" font-family="Helvetica" font-weight="bold" font-size="16" x="250.0" y="10.0">Fruit Sales</text><g><path stroke="#CCCCCC" stroke-dasharray="None" d="M0 331.5 h179.0 M0 165.75 h179.0 M0 0.0 h179.0 M0 331.5 h179.0" transform="translate(296.0, 48.5)"/><g font-size="12" font-family="Helvetica" transform="translate(290.0, 48.5)"><text x="0" y="331.5" transform="translate(-38, 3.5)">Apples</text><text x="0" y="165.75" transform="translate(-49, 3.5)">Bananas</text><text x="0" y="0.0" transform="translate(-47, 3.5)">Cherries</text></g></g><g><path stroke="#CCCCCC" stroke-dasharray="None" d="M179.0 0 v331.5 M143.20000000000002 0 v331.5 M107.39999999999999 0 v331.5 M71.60000000000001 0 v331.5 M35.800000000000004 0 v331.5 M0.0 0 v331.5" transform="translate(296.0, 48.5)"/><g font-size="12" font-family="Helvetica" transform="translate(296.0, 66.5)"><text x="179.0" y="331.5" transform="translate(-7.0, 0)">75</text><text x="143.20000000000002" y="331.5" transform="translate(-7.0, 0)">60</text><text x="107.39999999999999" y="331.5" transform="translate(-7.0, 0)">45</text><text x="71.60000000000001" y="331.5" transform="translate(-7.0, 0)">30</text><text x="35.800000000000004" y="331.5" transform="translate(-7.0, 0)">15</text><text x="0.0" y="331.5" transform="translate(-3.5, 0)">0</text></g></g><g opacity="0.8"><path d="M59.666666666666664 0.0 h107.39999999999999 v66.3 h-107.39999999999999 v-66.3Z M59.666666666666664 165.75 h171.84 v66.3 h-171.84 v-66.3Z M59.666666666666664 331.5 h90.69333333333334 v66.3 h-90.69333333333334 v-66.3Z" fill="#5fab9e"/></g></svg>