<svg xmlns="http://www.w3.org/2000/svg" width="700" height="400" viewBox="0 0 700 400"><path fill="white" d="M0 0 h700 v400 h-700 v-400Z"/><text transform="translate(-50.5, 19)" fill="#444444" font-family="Helvetica" font-weight="bold" font-size="16" x="350.0" y="10.0">Monthly Sales</text><g><path stroke="#CCCCCC" stroke-dasharray="None" d="M0 17.91891891891892 h607.0 M0 44.7972972972973 h607.0 M0 71.67567567567568 h607.0 M0 98.55405405405403 h607.0 M0 125.43243243243242 h607.0 M0 152.3108108108108 h607.0 M0 179.18918918918916 h607.0 M0 206.06756756756755 h607.0 M0 232.94594594594594 h607.0 M0 259.8243243243243 h607.0 M0 286.70270270270277 h607.0 M0 313.58108108108115 h607.0" transform="translate(58.0, 48.5)"/><g font-size="12" font-family="Helvetica" transform="translate(52.0, 48.5)"><text x="0" y="17.91891891891892" transform="translate(-20, -7.0)">Jan</text><text x="0" y="44.7972972972973" transform="translate(-21, -7.0)">Feb</text><text x="0" y="71.67567567567568" transform="translate(-21, -7.0)">Mar</text><text x="0" y="98.55405405405403" transform="translate(-19, -7.0)">Apr</text><text x="0" y="125.43243243243242" transform="translate(-23, -7.0)">May</text><text x="0" y="152.3108108108108" transform="translate(-20, -7.0)">Jun</text><text x="0" y="179.18918918918916" transform="translate(-16, -7.0)">Jul</text><text x="0" y="206.06756756756755" transform="translate(-22, -7.0)">Aug</text><text x="0" y="232.94594594594594" transform="translate(-22, -7.0)">Sep</text><text x="0" y="259.8243243243243" transform="translate(-18, -7.0)">Oct</text><text x="0" y="286.70270270270277" transform="translate(-22, -7.0)">Nov</text><text x="0" y="313.58108108108115" transform="translate(-22, -7.0)">Dec</text></g></g><g><path stroke="#CCCCCC" stroke-dasharray="None" d="M607.0 0 v331.5 M485.6 0 v331.5 M364.2 0 v331.5 M242.8 0 v331.5 M121.4 0 v331.5 M0.0 0 v331.5" transform="translate(58.0, 48.5)"/><g font-size="12" font-family="Helvetica" transform="translate(58.0, 66.5)"><text x="607.0" y="331.5" transform="translate(-7.0, 0)">75</text><text x="485.6" y="331.5" transform="translate(-7.0, 0)">60</text><text x="364.2" y="331.5" transform="translate(-7.0, 0)">45</text><text x="242.8" y="331.5" transform="translate(-7.0, 0)">30</text><text x="121.4" y="331.5" transform="translate(-7.0, 0)">15</text><text x="0.0" y="331.5" transform="translate(-3.5, 0)">0</text></g></g><g><g opacity="0.8" transform="translate(58.0, 48.5)"><path d="M0.0 8.95945945945946 h364.2 v17.91891891891892 h-364.2 v-17.91891891891892Z M0.0 35.83783783783784 h420.85333333333335 v17.91891891891892 h-420.85333333333335 v-17.91891891891892Z M0.0 62.71621621621622 h307.5466666666667 v17.91891891891892 h-307.5466666666667 v-17.91891891891892Z M0.0 89.59459459459458 h493.6933333333333 v17.91891891891892 h-493.6933333333333 v-17.91891891891892Z M0.0 116.47297297297297 h445.1333333333333 v17.91891891891892 h-445.1333333333333 v-17.91891891891892Z M0.0 143.35135135135135 h542.2533333333333 v17.91891891891892 h-542.2533333333333 v-17.91891891891892Z M0.0 170.2297297297297 h388.48 v17.91891891891892 h-388.48 v-17.91891891891892Z M0.0 197.1081081081081 h582.72 v17.91891891891892 h-582.72 v-17.91891891891892Z M0.0 223.98648648648648 h469.4133333333333 v17.91891891891892 h-469.4133333333333 v-17.91891891891892Z M0.0 250.86486486486487 h509.88 v17.91891891891892 h-509.88 v-17.91891891891892Z M0.0 277.7432432432433 h331.82666666666665 v17.91891891891892 h-331.82666666666665 v-17.91891891891892Z M0.0 304.62162162162167 h445.1333333333333 v17.91891891891892 h-445.1333333333333 v-17.91891891891892Z" fill="#5fab9e"/></g><path stroke="#CCCCCC" stroke-dasharray="None" d="M0 331.5 h607.0" transform="translate(58.0, 48.5)"/></g></svg>