<svg xmlns="http://www.w3.org/2000/svg" width="600" height="400" viewBox="0 0 600 400"><path fill="#FFFFFF" d="M0 0 h600 v400 h-600 v-400Z"/><text transform="translate(-121.0, 18)" fill="#444444" font-family="Arial" font-weight="normal" font-size="16" x="300.0" y="10.0">Average App Rating by Category</text><defs><clipPath id="plot-clip"><rect x="0" y="0" width="495.0" height="315.0"/></clipPath></defs><g><path stroke="#CCCCCC" stroke-dasharray="None" d="M0 28.636363636363637 h495.0 M0 71.5909090909091 h495.0 M0 114.54545454545453 h495.0 M0 157.5 h495.0 M0 200.45454545454544 h495.0 M0 243.40909090909088 h495.0 M0 286.3636363636364 h495.0" transform="translate(75.0, 47.0)"/><g font-size="12" font-family="Arial" fill="#444444" transform="translate(69.0, 47.0)"><text x="0" y="28.636363636363637" dominant-baseline="central" transform="translate(-40, 0)">Games</text><text x="0" y="71.5909090909091" dominant-baseline="central" transform="translate(-35, 0)">Social</text><text x="0" y="114.54545454545453" dominant-baseline="central" transform="translate(-31, 0)">News</text><text x="0" y="157.5" dominant-baseline="central" transform="translate(-37, 0)">Health</text><text x="0" y="200.45454545454544" dominant-baseline="central" transform="translate(-45, 0)">Finance</text><text x="0" y="243.40909090909088" dominant-baseline="central" transform="translate(-32, 0)">Music</text><text x="0" y="286.3636363636364" dominant-baseline="central" transform="translate(-34, 0)">Photo</text></g></g><g><path stroke="#CCCCCC" stroke-dasharray="None" d="M495.0 0 v315.0 M396.0 0 v315.0 M297.0 0 v315.0 M198.0 0 v315.0 M99.0 0 v315.0 M0.0 0 v315.0" transform="translate(75.0, 47.0)"/><g font-size="12" font-family="Arial" fill="#444444" transform="translate(75.0, 65.0)"><text x="495.0" y="315.0" transform="translate(-3.5, 0)">5</text><text x="396.0" y="315.0" transform="translate(-3.5, 0)">4</text><text x="297.0" y="315.0" transform="translate(-3.5, 0)">3</text><text x="198.0" y="315.0" transform="translate(-3.5, 0)">2</text><text x="99.0" y="315.0" transform="translate(-3.5, 0)">1</text><text x="0.0" y="315.0" transform="translate(-3.5, 0)">0</text></g></g><g><g opacity="0.8" transform="translate(75.0, 47.0)"><path d="M0.0 14.3 h455.4 v28.6 h-455.4 v-28.6Z M0.0 57.3 h415.8 v28.6 h-415.8 v-28.6Z M0.0 100.2 h376.2 v28.6 h-376.2 v-28.6Z M0.0 143.2 h445.5 v28.6 h-445.5 v-28.6Z M0.0 186.1 h306.9 v28.6 h-306.9 v-28.6Z M0.0 229.1 h396.0 v28.6 h-396.0 v-28.6Z M0.0 272.0 h425.7 v28.6 h-425.7 v-28.6Z" fill="#5fab9e"/></g><path stroke="#CCCCCC" stroke-dasharray="None" d="M0 315.0 h495.0" transform="translate(75.0, 47.0)"/><path stroke="#CCCCCC" stroke-dasharray="None" d="M0 0 h495.0" transform="translate(75.0, 47.0)"/><path stroke="#CCCCCC" stroke-dasharray="None" d="M0 0 v315.0" transform="translate(75.0, 47.0)"/><path stroke="#CCCCCC" stroke-dasharray="None" d="M495.0 0 v315.0" transform="translate(75.0, 47.0)"/></g><path d="M75.0 47.0 v315.0 M75.0 362.0 h495.0" stroke="#999" stroke-width="1.5" fill="none"/><text x="322.5" y="398" fill="#444444" font-size="14" font-family="Arial" text-anchor="middle">Rating (out of 5)</text></svg>