<svg xmlns="http://www.w3.org/2000/svg" width="700" height="500" viewBox="0 0 700 500"><path fill="#FFFFFF" d="M0 0 h700 v500 h-700 v-500Z"/><text transform="translate(-99.0, 18)" fill="#444444" font-family="Arial" font-weight="normal" font-size="16" x="350.0" y="12.5">Profit/Loss by Region ($M)</text><defs><clipPath id="plot-clip"><rect x="0" y="0" width="578.0" height="423.0"/></clipPath></defs><g><path stroke="#CCCCCC" stroke-dasharray="None" d="M0 27.29032258064516 h578.0 M0 68.2258064516129 h578.0 M0 109.16129032258064 h578.0 M0 150.0967741935484 h578.0 M0 191.03225806451616 h578.0 M0 231.9677419354839 h578.0 M0 272.9032258064516 h578.0 M0 313.83870967741933 h578.0 M0 354.7741935483871 h578.0 M0 395.7096774193548 h578.0" transform="translate(87.0, 52.0)"/><g font-size="12" font-family="Arial" fill="#444444" transform="translate(81.0, 52.0)"><text x="0" y="27.29032258064516" dominant-baseline="central" transform="translate(-31, 0)">North</text><text x="0" y="68.2258064516129" dominant-baseline="central" transform="translate(-34, 0)">South</text><text x="0" y="109.16129032258064" dominant-baseline="central" transform="translate(-26, 0)">East</text><text x="0" y="150.0967741935484" dominant-baseline="central" transform="translate(-29, 0)">West</text><text x="0" y="191.03225806451616" dominant-baseline="central" transform="translate(-41, 0)">Central</text><text x="0" y="231.9677419354839" dominant-baseline="central" transform="translate(-38, 0)">Pacific</text><text x="0" y="272.9032258064516" dominant-baseline="central" transform="translate(-43, 0)">Atlantic</text><text x="0" y="313.83870967741933" dominant-baseline="central" transform="translate(-52, 0)">Mountain</text><text x="0" y="354.7741935483871" dominant-baseline="central" transform="translate(-35, 0)">Plains</text><text x="0" y="395.7096774193548" dominant-baseline="central" transform="translate(-32, 0)">Metro</text></g></g><g><path stroke="#CCCCCC" stroke-dasharray="None" d="M578.0 0 v423.0 M505.75 0 v423.0 M433.5 0 v423.0 M361.25 0 v423.0 M289.0 0 v423.0 M216.75 0 v423.0 M144.5 0 v423.0 M72.25 0 v423.0 M0.0 0 v423.0" transform="translate(87.0, 52.0)"/><g font-size="12" font-family="Arial" fill="#444444" transform="translate(87.0, 70.0)"><text x="578.0" y="423.0" transform="translate(-7.0, 0)">60</text><text x="505.75" y="423.0" transform="translate(-7.0, 0)">50</text><text x="433.5" y="423.0" transform="translate(-7.0, 0)">40</text><text x="361.25" y="423.0" transform="translate(-7.0, 0)">30</text><text x="289.0" y="423.0" transform="translate(-7.0, 0)">20</text><text x="216.75" y="423.0" transform="translate(-7.0, 0)">10</text><text x="144.5" y="423.0" transform="translate(-3.5, 0)">0</text><text x="72.25" y="423.0" transform="translate(-9.0, 0)">-10</text><text x="0.0" y="423.0" transform="translate(-9.0, 0)">-20</text></g></g><path transform="translate(87.0, 52.0)" d="M144.5 0 v423.0z" stroke="black"/><g><g opacity="0.8" transform="translate(87.0, 52.0)"><path d="M57.8 13.6 h86.7 v27.3 h-86.7 v-27.3Z M144.5 54.6 h245.7 v27.3 h-245.7 v-27.3Z M86.7 95.5 h57.8 v27.3 h-57.8 v-27.3Z M144.5 136.5 h375.7 v27.3 h-375.7 v-27.3Z M108.4 177.4 h36.1 v27.3 h-36.1 v-27.3Z M144.5 218.3 h202.3 v27.3 h-202.3 v-27.3Z M144.5 259.3 h296.2 v27.3 h-296.2 v-27.3Z M7.2 300.2 h137.3 v27.3 h-137.3 v-27.3Z M144.5 341.1 h108.4 v27.3 h-108.4 v-27.3Z M144.5 382.1 h433.5 v27.3 h-433.5 v-27.3Z" fill="#5fab9e"/></g><path stroke="#CCCCCC" stroke-dasharray="None" d="M0 423.0 h578.0" transform="translate(87.0, 52.0)"/><path stroke="#CCCCCC" stroke-dasharray="None" d="M0 0 h578.0" transform="translate(87.0, 52.0)"/><path stroke="#CCCCCC" stroke-dasharray="None" d="M0 0 v423.0" transform="translate(87.0, 52.0)"/><path stroke="#CCCCCC" stroke-dasharray="None" d="M578.0 0 v423.0" transform="translate(87.0, 52.0)"/></g></svg>