<svg xmlns="http://www.w3.org/2000/svg" width="700" height="400" viewBox="0 0 700 400"><path fill="white" d="M0 0 h700 v400 h-700 v-400Z"/><text transform="translate(-136.0, 19)" fill="#444444" font-family="Helvetica" font-weight="bold" font-size="16" x="350.0" y="10.0">Revenue vs Expenses by Quarter ($K)</text><g><path stroke="#CCCCCC" stroke-dasharray="None" d="M0 34.89473684210526 h602.0 M0 87.23684210526315 h602.0 M0 139.57894736842104 h602.0 M0 191.92105263157893 h602.0 M0 244.26315789473682 h602.0 M0 296.6052631578947 h602.0" transform="translate(63.0, 48.5)"/><g font-size="12" font-family="Helvetica" transform="translate(57.0, 48.5)"><text x="0" y="34.89473684210526" transform="translate(-28, -7.0)">Q1 R</text><text x="0" y="87.23684210526315" transform="translate(-27, -7.0)">Q1 E</text><text x="0" y="139.57894736842104" transform="translate(-28, -7.0)">Q2 R</text><text x="0" y="191.92105263157893" transform="translate(-27, -7.0)">Q2 E</text><text x="0" y="244.26315789473682" transform="translate(-28, -7.0)">Q3 R</text><text x="0" y="296.6052631578947" transform="translate(-27, -7.0)">Q3 E</text></g></g><g><path stroke="#CCCCCC" stroke-dasharray="None" d="M602.0 0 v331.5 M526.75 0 v331.5 M451.5 0 v331.5 M376.25 0 v331.5 M301.0 0 v331.5 M225.75 0 v331.5 M150.5 0 v331.5 M75.25 0 v331.5 M0.0 0 v331.5" transform="translate(63.0, 48.5)"/><g font-size="12" font-family="Helvetica" transform="translate(63.0, 66.5)"><text x="602.0" y="331.5" transform="translate(-10.5, 0)">250</text><text x="526.75" y="331.5" transform="translate(-10.5, 0)">200</text><text x="451.5" y="331.5" transform="translate(-10.5, 0)">150</text><text x="376.25" y="331.5" transform="translate(-10.5, 0)">100</text><text x="301.0" y="331.5" transform="translate(-7.0, 0)">50</text><text x="225.75" y="331.5" transform="translate(-3.5, 0)">0</text><text x="150.5" y="331.5" transform="translate(-9.0, 0)">-50</text><text x="75.25" y="331.5" transform="translate(-12.5, 0)">-100</text><text x="0.0" y="331.5" transform="translate(-12.5, 0)">-150</text></g></g><path transform="translate(63.0, 48.5)" d="M225.75 0 v331.5z" stroke="black"/><g><g opacity="0.8" transform="translate(63.0, 48.5)"><path d="M225.75 17.44736842105263 h180.60000000000002 v17.44736842105263 h-180.60000000000002 v-17.44736842105263Z M158.025 69.78947368421052 h67.725 v17.44736842105263 h-67.725 v-17.44736842105263Z M225.75 122.13157894736841 h270.9 v17.44736842105263 h-270.9 v-17.44736842105263Z M180.6 174.4736842105263 h45.150000000000006 v17.44736842105263 h-45.150000000000006 v-17.44736842105263Z M225.75 226.8157894736842 h316.05000000000007 v17.44736842105263 h-316.05000000000007 v-17.44736842105263Z M135.45000000000002 279.1578947368421 h90.29999999999998 v17.44736842105263 h-90.29999999999998 v-17.44736842105263Z" fill="#5fab9e"/><path d="M105.35 34.89473684210526 h120.4 v17.44736842105263 h-120.4 v-17.44736842105263Z M195.65 87.23684210526315 h30.099999999999994 v17.44736842105263 h-30.099999999999994 v-17.44736842105263Z M82.775 139.57894736842104 h142.975 v17.44736842105263 h-142.975 v-17.44736842105263Z M203.175 191.92105263157893 h22.57499999999999 v17.44736842105263 h-22.57499999999999 v-17.44736842105263Z M60.2 244.26315789473682 h165.55 v17.44736842105263 h-165.55 v-17.44736842105263Z M188.125 296.6052631578947 h37.625 v17.44736842105263 h-37.625 v-17.44736842105263Z" fill="#f58b51"/></g><path stroke="#CCCCCC" stroke-dasharray="None" d="M0 331.5 h602.0" transform="translate(63.0, 48.5)"/></g><g><rect transform="translate(-8.625, -3.75)" x="587.25" y="60.625" width="86.25" height="37.5" fill="#ffffff" stroke="#CCCCCC"/><g transform="translate(0, 13)"><rect y="47.625" x="587.25" width="13" height="13" fill="#5fab9e"/><text y="57.375" x="602.25" font-size="11">Revenue</text></g><g transform="translate(0, 15)"><rect y="60.625" x="587.25" width="13" height="13" fill="#f58b51"/><text y="70.375" x="602.25" font-size="11">Expenses</text></g></g></svg>