<svg xmlns="http://www.w3.org/2000/svg" width="600" height="400" viewBox="0 0 600 400"><path fill="#FFFFFF" d="M0 0 h600 v400 h-600 v-400Z"/><text transform="translate(-247.0, 30)" fill="#444444" font-family="JetBrains Mono" font-weight="normal" font-size="16" x="300.0" y="10.0">Summer vs Winter Avg. Temperature (°C)</text><defs><clipPath id="plot-clip"><rect x="0" y="0" width="495.0" height="297.0"/></clipPath></defs><g><path stroke="#CCCCCC" stroke-dasharray="None" d="M0 37.125 h495.0 M0 92.8125 h495.0 M0 148.5 h495.0 M0 204.1875 h495.0 M0 259.875 h495.0" transform="translate(75.0, 65.0)"/><g font-size="12" font-family="Arial" fill="#444444" transform="translate(69.0, 65.0)"><text x="0" y="37.125" dominant-baseline="central" transform="translate(-33, 0)">Dubai</text><text x="0" y="92.8125" dominant-baseline="central" transform="translate(-42, 0)">Sydney</text><text x="0" y="148.5" dominant-baseline="central" transform="translate(-34, 0)">Tokyo</text><text x="0" y="204.1875" dominant-baseline="central" transform="translate(-42, 0)">London</text><text x="0" y="259.875" dominant-baseline="central" transform="translate(-45, 0)">Moscow</text></g></g><g><path stroke="#CCCCCC" stroke-dasharray="None" d="M495.0 0 v297.0 M445.5 0 v297.0 M396.0 0 v297.0 M346.5 0 v297.0 M297.0 0 v297.0 M247.5 0 v297.0 M198.0 0 v297.0 M148.5 0 v297.0 M99.0 0 v297.0 M49.5 0 v297.0 M0.0 0 v297.0" transform="translate(75.0, 65.0)"/><g font-size="12" font-family="Arial" fill="#444444" transform="translate(75.0, 83.0)"><text x="495.0" y="297.0" transform="translate(-7.0, 0)">35</text><text x="445.5" y="297.0" transform="translate(-7.0, 0)">30</text><text x="396.0" y="297.0" transform="translate(-7.0, 0)">25</text><text x="346.5" y="297.0" transform="translate(-7.0, 0)">20</text><text x="297.0" y="297.0" transform="translate(-7.0, 0)">15</text><text x="247.5" y="297.0" transform="translate(-7.0, 0)">10</text><text x="198.0" y="297.0" transform="translate(-3.5, 0)">5</text><text x="148.5" y="297.0" transform="translate(-3.5, 0)">0</text><text x="99.0" y="297.0" transform="translate(-5.5, 0)">-5</text><text x="49.5" y="297.0" transform="translate(-9.0, 0)">-10</text><text x="0.0" y="297.0" transform="translate(-9.0, 0)">-15</text></g></g><path transform="translate(75.0, 65.0)" d="M148.5 0 v297.0z" stroke="black"/><g><g opacity="0.8" transform="translate(75.0, 65.0)"><path d="M148.5 18.6 h346.5 v18.6 h-346.5 v-18.6Z M148.5 74.2 h277.2 v18.6 h-277.2 v-18.6Z M148.5 129.9 h217.8 v18.6 h-217.8 v-18.6Z M148.5 185.6 h138.6 v18.6 h-138.6 v-18.6Z M148.5 241.3 h79.2 v18.6 h-79.2 v-18.6Z" fill="#5fab9e"/><path d="M148.5 37.1 h178.2 v18.6 h-178.2 v-18.6Z M148.5 92.8 h118.8 v18.6 h-118.8 v-18.6Z M148.5 148.5 h49.5 v18.6 h-49.5 v-18.6Z M128.7 204.2 h19.8 v18.6 h-19.8 v-18.6Z M29.7 259.9 h118.8 v18.6 h-118.8 v-18.6Z" fill="#f58b51"/></g><path stroke="#CCCCCC" stroke-dasharray="None" d="M0 297.0 h495.0" transform="translate(75.0, 65.0)"/><path stroke="#CCCCCC" stroke-dasharray="None" d="M0 0 h495.0" transform="translate(75.0, 65.0)"/><path stroke="#CCCCCC" stroke-dasharray="None" d="M0 0 v297.0" transform="translate(75.0, 65.0)"/><path stroke="#CCCCCC" stroke-dasharray="None" d="M495.0 0 v297.0" transform="translate(75.0, 65.0)"/></g><g><rect transform="translate(-15.0, -7.0)" x="491.0" y="76.0" width="90.0" height="42.0" fill="#f5f5f5" stroke="#d7d7d7"/><g><rect y="78.0" x="491.0" width="12" height="12" fill="#5fab9e"/><text y="87.0" x="505.0" font-size="12" font-family="Arial" fill="#444444">Summer</text></g><g><rect y="90.0" x="491.0" width="12" height="12" fill="#f58b51"/><text y="99.0" x="505.0" font-size="12" font-family="Arial" fill="#444444">Winter</text></g></g><path d="M75.0 65.0 v297.0 M75.0 362.0 h495.0" stroke="#999" stroke-width="1.5" fill="none"/><text x="322.5" y="398" fill="#444444" font-size="14" font-family="JetBrains Mono" text-anchor="middle">Temperature (°C)</text></svg>