<svg xmlns="http://www.w3.org/2000/svg" width="700" height="400" viewBox="0 0 700 400"><path fill="white" d="M0 0 h700 v400 h-700 v-400Z"/><text transform="translate(-136.0, 19)" fill="#444444" font-family="Helvetica" font-weight="bold" font-size="16" x="350.0" y="10.0">Revenue vs Expenses by Quarter ($K)</text><g><path stroke="#CCCCCC" stroke-dasharray="None" d="M0 66.3 h614.0 M0 165.75 h614.0 M0 265.2 h614.0" transform="translate(51.0, 48.5)"/><g font-size="12" font-family="Helvetica" transform="translate(45.0, 48.5)"><text x="0" y="66.3" transform="translate(-16, -7.0)">Q1</text><text x="0" y="165.75" transform="translate(-16, -7.0)">Q2</text><text x="0" y="265.2" transform="translate(-16, -7.0)">Q3</text></g></g><g><path stroke="#CCCCCC" stroke-dasharray="None" d="M614.0 0 v331.5 M537.25 0 v331.5 M460.5 0 v331.5 M383.75 0 v331.5 M307.0 0 v331.5 M230.25 0 v331.5 M153.5 0 v331.5 M76.75 0 v331.5 M0.0 0 v331.5" transform="translate(51.0, 48.5)"/><g font-size="12" font-family="Helvetica" transform="translate(51.0, 66.5)"><text x="614.0" y="331.5" transform="translate(-10.5, 0)">250</text><text x="537.25" y="331.5" transform="translate(-10.5, 0)">200</text><text x="460.5" y="331.5" transform="translate(-10.5, 0)">150</text><text x="383.75" y="331.5" transform="translate(-10.5, 0)">100</text><text x="307.0" y="331.5" transform="translate(-7.0, 0)">50</text><text x="230.25" y="331.5" transform="translate(-3.5, 0)">0</text><text x="153.5" y="331.5" transform="translate(-9.0, 0)">-50</text><text x="76.75" y="331.5" transform="translate(-12.5, 0)">-100</text><text x="0.0" y="331.5" transform="translate(-12.5, 0)">-150</text></g></g><path transform="translate(51.0, 48.5)" d="M230.25 0 v331.5z" stroke="black"/><g><g opacity="0.8" transform="translate(51.0, 48.5)"><path d="M230.25 33.15 h184.20000000000005 v33.15 h-184.20000000000005 v-33.15Z M230.25 132.6 h276.29999999999995 v33.15 h-276.29999999999995 v-33.15Z M230.25 232.04999999999998 h322.35 v33.15 h-322.35 v-33.15Z" fill="#5fab9e"/><path d="M107.44999999999999 66.3 h122.80000000000001 v33.15 h-122.80000000000001 v-33.15Z M84.42500000000001 165.75 h145.825 v33.15 h-145.825 v-33.15Z M61.400000000000006 265.2 h168.85 v33.15 h-168.85 v-33.15Z" fill="#f58b51"/></g><path stroke="#CCCCCC" stroke-dasharray="None" d="M0 331.5 h614.0" transform="translate(51.0, 48.5)"/></g><g><rect transform="translate(-8.625, -3.75)" x="587.25" y="60.625" width="86.25" height="37.5" fill="#ffffff" stroke="#CCCCCC"/><g transform="translate(0, 13)"><rect y="47.625" x="587.25" width="13" height="13" fill="#5fab9e"/><text y="57.375" x="602.25" font-size="11">Revenue</text></g><g transform="translate(0, 15)"><rect y="60.625" x="587.25" width="13" height="13" fill="#f58b51"/><text y="70.375" x="602.25" font-size="11">Expenses</text></g></g></svg>