<svg xmlns="http://www.w3.org/2000/svg" width="700" height="400" viewBox="0 0 700 400"><path fill="#FFFFFF" d="M0 0 h700 v400 h-700 v-400Z"/><text transform="translate(-141.5, 18)" fill="#444444" font-family="Arial" font-weight="normal" font-size="16" x="350.0" y="10.0">Revenue vs Expenses by Quarter ($K)</text><g><path stroke="#CCCCCC" stroke-dasharray="None" d="M0 66.6 h613.0 M0 166.5 h613.0 M0 266.4 h613.0" transform="translate(52.0, 47.0)"/><g font-size="12" font-family="Arial" fill="#444444" transform="translate(46.0, 47.0)"><text x="0" y="66.6" transform="translate(-17, -7.0)">Q1</text><text x="0" y="166.5" transform="translate(-17, -7.0)">Q2</text><text x="0" y="266.4" transform="translate(-17, -7.0)">Q3</text></g></g><g><path stroke="#CCCCCC" stroke-dasharray="None" d="M613.0 0 v333.0 M536.375 0 v333.0 M459.75 0 v333.0 M383.125 0 v333.0 M306.5 0 v333.0 M229.875 0 v333.0 M153.25 0 v333.0 M76.625 0 v333.0 M0.0 0 v333.0" transform="translate(52.0, 47.0)"/><g font-size="12" font-family="Arial" fill="#444444" transform="translate(52.0, 65.0)"><text x="613.0" y="333.0" transform="translate(-10.5, 0)">250</text><text x="536.375" y="333.0" transform="translate(-10.5, 0)">200</text><text x="459.75" y="333.0" transform="translate(-10.5, 0)">150</text><text x="383.125" y="333.0" transform="translate(-10.5, 0)">100</text><text x="306.5" y="333.0" transform="translate(-7.0, 0)">50</text><text x="229.875" y="333.0" transform="translate(-3.5, 0)">0</text><text x="153.25" y="333.0" transform="translate(-9.0, 0)">-50</text><text x="76.625" y="333.0" transform="translate(-12.5, 0)">-100</text><text x="0.0" y="333.0" transform="translate(-12.5, 0)">-150</text></g></g><path transform="translate(52.0, 47.0)" d="M229.9 0 v333.0z" stroke="black"/><g><g opacity="0.8" transform="translate(52.0, 47.0)"><path d="M229.9 33.3 h183.9 v33.3 h-183.9 v-33.3Z M229.9 133.2 h275.8 v33.3 h-275.8 v-33.3Z M229.9 233.1 h321.8 v33.3 h-321.8 v-33.3Z" fill="#5fab9e"/><path d="M107.3 66.6 h122.6 v33.3 h-122.6 v-33.3Z M84.3 166.5 h145.6 v33.3 h-145.6 v-33.3Z M61.3 266.4 h168.6 v33.3 h-168.6 v-33.3Z" fill="#f58b51"/></g><path stroke="#CCCCCC" stroke-dasharray="None" d="M0 333.0 h613.0" transform="translate(52.0, 47.0)"/><path stroke="#CCCCCC" stroke-dasharray="None" d="M0 0 h613.0" transform="translate(52.0, 47.0)"/><path stroke="#CCCCCC" stroke-dasharray="None" d="M0 0 v333.0" transform="translate(52.0, 47.0)"/><path stroke="#CCCCCC" stroke-dasharray="None" d="M613.0 0 v333.0" transform="translate(52.0, 47.0)"/></g><g><rect transform="translate(-17.0, -7.0)" x="576.0" y="58.0" width="102.0" height="42.0" fill="#ffffff" stroke="#CCCCCC"/><g><rect y="60.0" x="576.0" width="12" height="12" fill="#5fab9e"/><text y="69.0" x="590.0" font-size="12" font-family="Arial">Revenue</text></g><g><rect y="72.0" x="576.0" width="12" height="12" fill="#f58b51"/><text y="81.0" x="590.0" font-size="12" font-family="Arial">Expenses</text></g></g></svg>