<svg xmlns="http://www.w3.org/2000/svg" width="700" height="500" viewBox="0 0 700 500"><path fill="white" d="M0 0 h700 v500 h-700 v-500Z"/><text transform="translate(-136.0, 19)" fill="#444444" font-family="Helvetica" font-weight="bold" font-size="16" x="350.0" y="12.5">Revenue vs Expenses by Quarter ($K)</text><g><path stroke="#CCCCCC" stroke-dasharray="None" d="M0 44.36842105263158 h585.0 M0 110.92105263157896 h585.0 M0 177.4736842105263 h585.0 M0 244.02631578947367 h585.0 M0 310.57894736842104 h585.0 M0 377.13157894736844 h585.0" transform="translate(80.0, 53.5)"/><g font-size="12" font-family="Helvetica" transform="translate(74.0, 53.5)"><text x="0" y="44.36842105263158" transform="translate(-45, -7.0)">Q1 Prod</text><text x="0" y="110.92105263157896" transform="translate(-41, -7.0)">Q1 Ops</text><text x="0" y="177.4736842105263" transform="translate(-45, -7.0)">Q2 Prod</text><text x="0" y="244.02631578947367" transform="translate(-41, -7.0)">Q2 Ops</text><text x="0" y="310.57894736842104" transform="translate(-45, -7.0)">Q3 Prod</text><text x="0" y="377.13157894736844" transform="translate(-41, -7.0)">Q3 Ops</text></g></g><g><path stroke="#CCCCCC" stroke-dasharray="None" d="M585.0 0 v421.5 M511.875 0 v421.5 M438.75 0 v421.5 M365.625 0 v421.5 M292.5 0 v421.5 M219.375 0 v421.5 M146.25 0 v421.5 M73.125 0 v421.5 M0.0 0 v421.5" transform="translate(80.0, 53.5)"/><g font-size="12" font-family="Helvetica" transform="translate(80.0, 71.5)"><text x="585.0" y="421.5" transform="translate(-10.5, 0)">250</text><text x="511.875" y="421.5" transform="translate(-10.5, 0)">200</text><text x="438.75" y="421.5" transform="translate(-10.5, 0)">150</text><text x="365.625" y="421.5" transform="translate(-10.5, 0)">100</text><text x="292.5" y="421.5" transform="translate(-7.0, 0)">50</text><text x="219.375" y="421.5" transform="translate(-3.5, 0)">0</text><text x="146.25" y="421.5" transform="translate(-9.0, 0)">-50</text><text x="73.125" y="421.5" transform="translate(-12.5, 0)">-100</text><text x="0.0" y="421.5" transform="translate(-12.5, 0)">-150</text></g></g><path transform="translate(80.0, 53.5)" d="M219.375 0 v421.5z" stroke="black"/><g><g opacity="0.8" transform="translate(80.0, 53.5)"><path d="M219.375 22.18421052631579 h175.5 v22.18421052631579 h-175.5 v-22.18421052631579Z M153.5625 88.73684210526316 h65.8125 v22.18421052631579 h-65.8125 v-22.18421052631579Z M219.375 155.28947368421052 h263.25 v22.18421052631579 h-263.25 v-22.18421052631579Z M175.5 221.8421052631579 h43.875 v22.18421052631579 h-43.875 v-22.18421052631579Z M219.375 288.39473684210526 h307.125 v22.18421052631579 h-307.125 v-22.18421052631579Z M131.625 354.94736842105266 h87.75 v22.18421052631579 h-87.75 v-22.18421052631579Z" fill="#5fab9e"/><path d="M102.375 44.36842105263158 h117.0 v22.18421052631579 h-117.0 v-22.18421052631579Z M190.125 110.92105263157896 h29.25 v22.18421052631579 h-29.25 v-22.18421052631579Z M80.4375 177.4736842105263 h138.9375 v22.18421052631579 h-138.9375 v-22.18421052631579Z M197.4375 244.02631578947367 h21.9375 v22.18421052631579 h-21.9375 v-22.18421052631579Z M58.5 310.57894736842104 h160.875 v22.18421052631579 h-160.875 v-22.18421052631579Z M182.8125 377.13157894736844 h36.5625 v22.18421052631579 h-36.5625 v-22.18421052631579Z" fill="#f58b51"/></g><path stroke="#CCCCCC" stroke-dasharray="None" d="M0 421.5 h585.0" transform="translate(80.0, 53.5)"/><path stroke="#CCCCCC" stroke-dasharray="None" d="M0 0 h585.0" transform="translate(80.0, 53.5)"/><path stroke="#CCCCCC" stroke-dasharray="None" d="M0 0 v421.5" transform="translate(80.0, 53.5)"/><path stroke="#CCCCCC" stroke-dasharray="None" d="M585.0 0 v421.5" transform="translate(80.0, 53.5)"/></g></svg>