<svg xmlns="http://www.w3.org/2000/svg" width="500" height="500" viewBox="0 0 500 500"><path fill="white" d="M0 0 h500 v500 h-500 v-500Z"/><text transform="translate(-96.5, 19)" fill="#444444" font-family="Helvetica" font-weight="bold" font-size="16" x="250.0" y="12.5">Budget by Department ($K)</text><g><path stroke="#CCCCCC" stroke-dasharray="None" d="M0 84.3 h434.0 M0 210.75 h434.0 M0 337.19999999999993 h434.0" transform="translate(41.0, 53.5)"/><g font-size="12" font-family="Helvetica" transform="translate(35.0, 53.5)"><text x="0" y="84.3" transform="translate(-16, -7.0)">Q1</text><text x="0" y="210.75" transform="translate(-16, -7.0)">Q2</text><text x="0" y="337.19999999999993" transform="translate(-16, -7.0)">Q3</text></g></g><g><path stroke="#CCCCCC" stroke-dasharray="None" d="M434.00000000000006 0 v421.5 M347.2 0 v421.5 M260.40000000000003 0 v421.5 M173.60000000000002 0 v421.5 M86.80000000000001 0 v421.5 M0.0 0 v421.5" transform="translate(41.0, 53.5)"/><g font-size="12" font-family="Helvetica" transform="translate(41.0, 71.5)"><text x="434.00000000000006" y="421.5" transform="translate(-10.5, 0)">200</text><text x="347.2" y="421.5" transform="translate(-10.5, 0)">150</text><text x="260.40000000000003" y="421.5" transform="translate(-10.5, 0)">100</text><text x="173.60000000000002" y="421.5" transform="translate(-7.0, 0)">50</text><text x="86.80000000000001" y="421.5" transform="translate(-3.5, 0)">0</text><text x="0.0" y="421.5" transform="translate(-9.0, 0)">-50</text></g></g><path transform="translate(41.0, 53.5)" d="M86.80000000000001 0 v421.5z" stroke="black"/><g><g opacity="0.8" transform="translate(127.80000000000001, 53.5)"><path d="M0.0 42.15 h173.60000000000002 v84.3 h-173.60000000000002 v-84.3Z M-86.80000000000001 168.6 h86.80000000000001 v84.3 h-86.80000000000001 v-84.3Z M0.0 295.04999999999995 h208.32 v84.3 h-208.32 v-84.3Z" fill="#5fab9e"/><path d="M173.60000000000002 42.15 h138.88 v84.3 h-138.88 v-84.3Z M0.0 168.6 h104.16 v84.3 h-104.16 v-84.3Z M208.32 295.04999999999995 h69.44 v84.3 h-69.44 v-84.3Z" fill="#f58b51"/></g><path stroke="#CCCCCC" stroke-dasharray="None" d="M0 421.5 h434.0" transform="translate(41.0, 53.5)"/><path stroke="#CCCCCC" stroke-dasharray="None" d="M0 0 h434.0" transform="translate(41.0, 53.5)"/><path stroke="#CCCCCC" stroke-dasharray="None" d="M0 0 v421.5" transform="translate(41.0, 53.5)"/><path stroke="#CCCCCC" stroke-dasharray="None" d="M434.0 0 v421.5" transform="translate(41.0, 53.5)"/></g><g><rect transform="translate(-8.625, -3.75)" x="393.375" y="61.25" width="86.25" height="37.5" fill="#ffffff" stroke="#CCCCCC"/><g transform="translate(0, 13)"><rect y="48.25" x="393.375" width="13" height="13" fill="#5fab9e"/><text y="58.0" x="408.375" font-size="11" font-family="Helvetica">Revenue</text></g><g transform="translate(0, 15)"><rect y="61.25" x="393.375" width="13" height="13" fill="#f58b51"/><text y="71.0" x="408.375" font-size="11" font-family="Helvetica">Expenses</text></g></g></svg>