<svg xmlns="http://www.w3.org/2000/svg" width="600" height="350" viewBox="0 0 600 350"><path fill="#FFFFFF" d="M0 0 h600 v350 h-600 v-350Z"/><text transform="translate(-77.5, 16.0)" fill="#444444" font-family="Roboto" font-weight="normal" font-size="16" x="308.5" y="8.75">Marketing Spend by Channel ($K)</text><defs><clipPath id="plot-clip"><rect x="0" y="0" width="523.0" height="273.0"/></clipPath></defs><g><path stroke="#CCCCCC" stroke-dasharray="None" d="M0 42.0 h523.0 M0 105.0 h523.0 M0 168.0 h523.0 M0 231.0 h523.0" transform="translate(47.0, 41.5)"/><g font-size="12" font-family="Arial" fill="#444444" transform="translate(41.0, 41.5)"><text x="0" y="42.0" dominant-baseline="central" transform="translate(-17, 0)">Q1</text><text x="0" y="105.0" dominant-baseline="central" transform="translate(-17, 0)">Q2</text><text x="0" y="168.0" dominant-baseline="central" transform="translate(-17, 0)">Q3</text><text x="0" y="231.0" dominant-baseline="central" transform="translate(-17, 0)">Q4</text></g></g><g><path stroke="#CCCCCC" stroke-dasharray="None" d="M523.0 0 v273.0 M418.40000000000003 0 v273.0 M313.8 0 v273.0 M209.20000000000002 0 v273.0 M104.60000000000001 0 v273.0 M0.0 0 v273.0" transform="translate(47.0, 41.5)"/><g font-size="12" font-family="Arial" fill="#444444" transform="translate(47.0, 59.5)"><text x="523.0" y="273.0" transform="translate(-10.5, 0)">150</text><text x="418.40000000000003" y="273.0" transform="translate(-10.5, 0)">120</text><text x="313.8" y="273.0" transform="translate(-7.0, 0)">90</text><text x="209.20000000000002" y="273.0" transform="translate(-7.0, 0)">60</text><text x="104.60000000000001" y="273.0" transform="translate(-7.0, 0)">30</text><text x="0.0" y="273.0" transform="translate(-3.5, 0)">0</text></g></g><g><g opacity="0.8" transform="translate(47.0, 41.5)"><path d="M0.0 21.0 h156.9 v42.0 h-156.9 v-42.0Z M0.0 84.0 h209.2 v42.0 h-209.2 v-42.0Z M0.0 147.0 h191.8 v42.0 h-191.8 v-42.0Z M0.0 210.0 h244.1 v42.0 h-244.1 v-42.0Z" fill="#5fab9e"/><path d="M156.9 21.0 h104.6 v42.0 h-104.6 v-42.0Z M209.2 84.0 h87.2 v42.0 h-87.2 v-42.0Z M191.8 147.0 h139.5 v42.0 h-139.5 v-42.0Z M244.1 210.0 h122.0 v42.0 h-122.0 v-42.0Z" fill="#f58b51"/><path d="M261.5 21.0 h52.3 v42.0 h-52.3 v-42.0Z M296.4 84.0 h69.7 v42.0 h-69.7 v-42.0Z M331.2 147.0 h62.8 v42.0 h-62.8 v-42.0Z M366.1 210.0 h76.7 v42.0 h-76.7 v-42.0Z" fill="#f7dd72"/></g><path stroke="#CCCCCC" stroke-dasharray="None" d="M0 273.0 h523.0" transform="translate(47.0, 41.5)"/><path stroke="#CCCCCC" stroke-dasharray="None" d="M0 0 h523.0" transform="translate(47.0, 41.5)"/><path stroke="#CCCCCC" stroke-dasharray="None" d="M0 0 v273.0" transform="translate(47.0, 41.5)"/><path stroke="#CCCCCC" stroke-dasharray="None" d="M523.0 0 v273.0" transform="translate(47.0, 41.5)"/></g><g><rect transform="translate(-13.0, -10.5)" x="501.0" y="56.0" width="78.0" height="63.0" fill="#f5f5f5" stroke="#d7d7d7"/><g><rect y="59.0" x="501.0" width="12" height="12" fill="#5fab9e"/><text y="68.0" x="515.0" font-size="12" font-family="Roboto" fill="#444444">Digital</text></g><g><rect y="71.0" x="501.0" width="12" height="12" fill="#f58b51"/><text y="80.0" x="515.0" font-size="12" font-family="Roboto" fill="#444444">Print</text></g><g><rect y="83.0" x="501.0" width="12" height="12" fill="#f7dd72"/><text y="92.0" x="515.0" font-size="12" font-family="Roboto" fill="#444444">Events</text></g></g><path d="M47.0 41.5 v273.0 M47.0 314.5 h523.0" stroke="#999" stroke-width="1.5" fill="none"/><text x="308.5" y="348" fill="#444444" font-size="14" font-family="Roboto" text-anchor="middle">Spend ($K)</text></svg>