<svg xmlns="http://www.w3.org/2000/svg" width="700" height="400" viewBox="0 0 700 400"><path fill="white" d="M0 0 h700 v400 h-700 v-400Z"/><text transform="translate(-136.0, 19)" fill="#444444" font-family="Helvetica" font-weight="bold" font-size="16" x="350.0" y="10.0">Revenue vs Expenses by Quarter ($K)</text><g><path stroke="#CCCCCC" stroke-dasharray="None" d="M0 34.89473684210526 h614.0 M0 87.23684210526315 h614.0 M0 139.57894736842104 h614.0 M0 191.92105263157893 h614.0 M0 244.26315789473682 h614.0 M0 296.6052631578947 h614.0" transform="translate(51.0, 48.5)"/><g font-size="12" font-family="Helvetica" transform="translate(45.0, 48.5)"><text x="0" y="34.89473684210526" transform="translate(-16, -7.0)">Q1</text><text x="0" y="87.23684210526315" transform="translate(-16, -7.0)">Q2</text><text x="0" y="139.57894736842104" transform="translate(-16, -7.0)">Q3</text><text x="0" y="191.92105263157893" transform="translate(-16, -7.0)">Q4</text><text x="0" y="244.26315789473682" transform="translate(-16, -7.0)">Q5</text><text x="0" y="296.6052631578947" transform="translate(-16, -7.0)">Q6</text></g></g><g><path stroke="#CCCCCC" stroke-dasharray="None" d="M614.0 0 v331.5 M537.25 0 v331.5 M460.5 0 v331.5 M383.75 0 v331.5 M307.0 0 v331.5 M230.25 0 v331.5 M153.5 0 v331.5 M76.75 0 v331.5 M0.0 0 v331.5" transform="translate(51.0, 48.5)"/><g font-size="12" font-family="Helvetica" transform="translate(51.0, 66.5)"><text x="614.0" y="331.5" transform="translate(-10.5, 0)">250</text><text x="537.25" y="331.5" transform="translate(-10.5, 0)">200</text><text x="460.5" y="331.5" transform="translate(-10.5, 0)">150</text><text x="383.75" y="331.5" transform="translate(-10.5, 0)">100</text><text x="307.0" y="331.5" transform="translate(-7.0, 0)">50</text><text x="230.25" y="331.5" transform="translate(-3.5, 0)">0</text><text x="153.5" y="331.5" transform="translate(-9.0, 0)">-50</text><text x="76.75" y="331.5" transform="translate(-12.5, 0)">-100</text><text x="0.0" y="331.5" transform="translate(-12.5, 0)">-150</text></g></g><path transform="translate(51.0, 48.5)" d="M230.25 0 v331.5z" stroke="black"/><g><g opacity="0.8" transform="translate(51.0, 48.5)"><path d="M230.25 17.44736842105263 h184.20000000000005 v17.44736842105263 h-184.20000000000005 v-17.44736842105263Z M161.175 69.78947368421052 h69.07499999999999 v17.44736842105263 h-69.07499999999999 v-17.44736842105263Z M230.25 122.13157894736841 h276.29999999999995 v17.44736842105263 h-276.29999999999995 v-17.44736842105263Z M184.2 174.4736842105263 h46.05000000000001 v17.44736842105263 h-46.05000000000001 v-17.44736842105263Z M230.25 226.8157894736842 h322.35 v17.44736842105263 h-322.35 v-17.44736842105263Z M138.15 279.1578947368421 h92.1 v17.44736842105263 h-92.1 v-17.44736842105263Z" fill="#5fab9e"/><path d="M107.44999999999999 34.89473684210526 h122.80000000000001 v17.44736842105263 h-122.80000000000001 v-17.44736842105263Z M199.55 87.23684210526315 h30.69999999999999 v17.44736842105263 h-30.69999999999999 v-17.44736842105263Z M84.42500000000001 139.57894736842104 h145.825 v17.44736842105263 h-145.825 v-17.44736842105263Z M207.22500000000002 191.92105263157893 h23.024999999999977 v17.44736842105263 h-23.024999999999977 v-17.44736842105263Z M61.400000000000006 244.26315789473682 h168.85 v17.44736842105263 h-168.85 v-17.44736842105263Z M191.875 296.6052631578947 h38.375 v17.44736842105263 h-38.375 v-17.44736842105263Z" fill="#f58b51"/></g><path stroke="#CCCCCC" stroke-dasharray="None" d="M0 331.5 h614.0" transform="translate(51.0, 48.5)"/></g><g><rect transform="translate(-8.625, -3.75)" x="587.25" y="60.625" width="86.25" height="37.5" fill="#ffffff" stroke="#CCCCCC"/><g transform="translate(0, 13)"><rect y="47.625" x="587.25" width="13" height="13" fill="#5fab9e"/><text y="57.375" x="602.25" font-size="11" font-family="Helvetica">Revenue</text></g><g transform="translate(0, 15)"><rect y="60.625" x="587.25" width="13" height="13" fill="#f58b51"/><text y="70.375" x="602.25" font-size="11" font-family="Helvetica">Expenses</text></g></g></svg>