<svg xmlns="http://www.w3.org/2000/svg" width="700" height="500" viewBox="0 0 700 500"><path fill="#FFFFFF" d="M0 0 h700 v500 h-700 v-500Z"/><text transform="translate(-141.5, 18)" fill="#444444" font-family="Arial" font-weight="normal" font-size="16" x="350.0" y="12.5">Revenue vs Expenses by Quarter ($K)</text><g><path stroke="#CCCCCC" stroke-dasharray="None" d="M0 44.526315789473685 h582.0 M0 111.31578947368422 h582.0 M0 178.10526315789474 h582.0 M0 244.89473684210526 h582.0 M0 311.6842105263157 h582.0 M0 378.47368421052624 h582.0" transform="translate(83.0, 52.0)"/><g font-size="12" font-family="Arial" fill="#444444" transform="translate(77.0, 52.0)"><text x="0" y="44.526315789473685" transform="translate(-48, -7.0)">Q1 Prod</text><text x="0" y="111.31578947368422" transform="translate(-44, -7.0)">Q1 Ops</text><text x="0" y="178.10526315789474" transform="translate(-48, -7.0)">Q2 Prod</text><text x="0" y="244.89473684210526" transform="translate(-44, -7.0)">Q2 Ops</text><text x="0" y="311.6842105263157" transform="translate(-48, -7.0)">Q3 Prod</text><text x="0" y="378.47368421052624" transform="translate(-44, -7.0)">Q3 Ops</text></g></g><g><path stroke="#CCCCCC" stroke-dasharray="None" d="M582.0 0 v423.0 M509.25 0 v423.0 M436.5 0 v423.0 M363.75 0 v423.0 M291.0 0 v423.0 M218.25 0 v423.0 M145.5 0 v423.0 M72.75 0 v423.0 M0.0 0 v423.0" transform="translate(83.0, 52.0)"/><g font-size="12" font-family="Arial" fill="#444444" transform="translate(83.0, 70.0)"><text x="582.0" y="423.0" transform="translate(-10.5, 0)">250</text><text x="509.25" y="423.0" transform="translate(-10.5, 0)">200</text><text x="436.5" y="423.0" transform="translate(-10.5, 0)">150</text><text x="363.75" y="423.0" transform="translate(-10.5, 0)">100</text><text x="291.0" y="423.0" transform="translate(-7.0, 0)">50</text><text x="218.25" y="423.0" transform="translate(-3.5, 0)">0</text><text x="145.5" y="423.0" transform="translate(-9.0, 0)">-50</text><text x="72.75" y="423.0" transform="translate(-12.5, 0)">-100</text><text x="0.0" y="423.0" transform="translate(-12.5, 0)">-150</text></g></g><path transform="translate(83.0, 52.0)" d="M218.2 0 v423.0z" stroke="black"/><g><g opacity="0.8" transform="translate(83.0, 52.0)"><path d="M218.2 22.3 h174.6 v22.3 h-174.6 v-22.3Z M152.8 89.1 h65.5 v22.3 h-65.5 v-22.3Z M218.2 155.8 h261.9 v22.3 h-261.9 v-22.3Z M174.6 222.6 h43.7 v22.3 h-43.7 v-22.3Z M218.2 289.4 h305.6 v22.3 h-305.6 v-22.3Z M131.0 356.2 h87.3 v22.3 h-87.3 v-22.3Z" fill="#5fab9e"/><path d="M101.8 44.5 h116.4 v22.3 h-116.4 v-22.3Z M189.2 111.3 h29.1 v22.3 h-29.1 v-22.3Z M80.0 178.1 h138.2 v22.3 h-138.2 v-22.3Z M196.4 244.9 h21.8 v22.3 h-21.8 v-22.3Z M58.2 311.7 h160.1 v22.3 h-160.1 v-22.3Z M181.9 378.5 h36.4 v22.3 h-36.4 v-22.3Z" fill="#f58b51"/></g><path stroke="#CCCCCC" stroke-dasharray="None" d="M0 423.0 h582.0" transform="translate(83.0, 52.0)"/><path stroke="#CCCCCC" stroke-dasharray="None" d="M0 0 h582.0" transform="translate(83.0, 52.0)"/><path stroke="#CCCCCC" stroke-dasharray="None" d="M0 0 v423.0" transform="translate(83.0, 52.0)"/><path stroke="#CCCCCC" stroke-dasharray="None" d="M582.0 0 v423.0" transform="translate(83.0, 52.0)"/></g></svg>