<svg xmlns="http://www.w3.org/2000/svg" width="700" height="400" viewBox="0 0 700 400"><path fill="white" d="M0 0 h700 v400 h-700 v-400Z"/><text transform="translate(-96.5, 19)" fill="#444444" font-family="Helvetica" font-weight="bold" font-size="16" x="350.0" y="10.0">Budget by Department ($K)</text><g><path stroke="#CCCCCC" stroke-dasharray="None" d="M0 66.3 h614.0 M0 165.75 h614.0 M0 265.2 h614.0" transform="translate(51.0, 48.5)"/><g font-size="12" font-family="Helvetica" transform="translate(45.0, 48.5)"><text x="0" y="66.3" transform="translate(-16, -7.0)">Q1</text><text x="0" y="165.75" transform="translate(-16, -7.0)">Q2</text><text x="0" y="265.2" transform="translate(-16, -7.0)">Q3</text></g></g><g><path stroke="#CCCCCC" stroke-dasharray="None" d="M614.0 0 v331.5 M491.2 0 v331.5 M368.40000000000003 0 v331.5 M245.60000000000002 0 v331.5 M122.80000000000001 0 v331.5 M0.0 0 v331.5" transform="translate(51.0, 48.5)"/><g font-size="12" font-family="Helvetica" transform="translate(51.0, 66.5)"><text x="614.0" y="331.5" transform="translate(-10.5, 0)">200</text><text x="491.2" y="331.5" transform="translate(-10.5, 0)">150</text><text x="368.40000000000003" y="331.5" transform="translate(-10.5, 0)">100</text><text x="245.60000000000002" y="331.5" transform="translate(-7.0, 0)">50</text><text x="122.80000000000001" y="331.5" transform="translate(-3.5, 0)">0</text><text x="0.0" y="331.5" transform="translate(-9.0, 0)">-50</text></g></g><path transform="translate(51.0, 48.5)" d="M122.80000000000001 0 v331.5z" stroke="black"/><g><g opacity="0.8" transform="translate(173.8, 48.5)"><path d="M0.0 33.15 h245.60000000000002 v66.3 h-245.60000000000002 v-66.3Z M-122.80000000000001 132.6 h122.80000000000001 v66.3 h-122.80000000000001 v-66.3Z M0.0 232.04999999999998 h294.71999999999997 v66.3 h-294.71999999999997 v-66.3Z" fill="#5fab9e"/><path d="M0.0 33.15 h196.48000000000002 v66.3 h-196.48000000000002 v-66.3Z M0.0 132.6 h147.35999999999999 v66.3 h-147.35999999999999 v-66.3Z M-98.24000000000001 232.04999999999998 h98.24000000000001 v66.3 h-98.24000000000001 v-66.3Z" fill="#f58b51"/></g><path stroke="#CCCCCC" stroke-dasharray="None" d="M0 331.5 h614.0" transform="translate(51.0, 48.5)"/><path stroke="#CCCCCC" stroke-dasharray="None" d="M0 0 h614.0" transform="translate(51.0, 48.5)"/><path stroke="#CCCCCC" stroke-dasharray="None" d="M0 0 v331.5" transform="translate(51.0, 48.5)"/><path stroke="#CCCCCC" stroke-dasharray="None" d="M614.0 0 v331.5" transform="translate(51.0, 48.5)"/></g><g><rect transform="translate(-8.625, -3.75)" x="583.375" y="56.25" width="86.25" height="37.5" fill="#ffffff" stroke="#CCCCCC"/><g transform="translate(0, 13)"><rect y="43.25" x="583.375" width="13" height="13" fill="#5fab9e"/><text y="53.0" x="598.375" font-size="11" font-family="Helvetica">Revenue</text></g><g transform="translate(0, 15)"><rect y="56.25" x="583.375" width="13" height="13" fill="#f58b51"/><text y="66.0" x="598.375" font-size="11" font-family="Helvetica">Expenses</text></g></g></svg>