<svg xmlns="http://www.w3.org/2000/svg" width="600" height="350" viewBox="0 0 600 350"><path fill="#FFFFFF" d="M0 0 h600 v350 h-600 v-350Z"/><text transform="translate(-201.5, 30)" fill="#444444" font-family="JetBrains Mono" font-weight="normal" font-size="16" x="300.0" y="8.75">Marketing Spend by Channel ($K)</text><defs><clipPath id="plot-clip"><rect x="0" y="0" width="523.0" height="252.0"/></clipPath></defs><g><path stroke="#CCCCCC" stroke-dasharray="None" d="M0 38.76923076923077 h523.0 M0 96.92307692307692 h523.0 M0 155.07692307692307 h523.0 M0 213.23076923076923 h523.0" transform="translate(47.0, 62.5)"/><g font-size="12" font-family="Arial" fill="#444444" transform="translate(41.0, 62.5)"><text x="0" y="38.76923076923077" dominant-baseline="central" transform="translate(-17, 0)">Q1</text><text x="0" y="96.92307692307692" dominant-baseline="central" transform="translate(-17, 0)">Q2</text><text x="0" y="155.07692307692307" dominant-baseline="central" transform="translate(-17, 0)">Q3</text><text x="0" y="213.23076923076923" dominant-baseline="central" transform="translate(-17, 0)">Q4</text></g></g><g><path stroke="#CCCCCC" stroke-dasharray="None" d="M523.0 0 v252.0 M418.40000000000003 0 v252.0 M313.8 0 v252.0 M209.20000000000002 0 v252.0 M104.60000000000001 0 v252.0 M0.0 0 v252.0" transform="translate(47.0, 62.5)"/><g font-size="12" font-family="Arial" fill="#444444" transform="translate(47.0, 80.5)"><text x="523.0" y="252.0" transform="translate(-10.5, 0)">150</text><text x="418.40000000000003" y="252.0" transform="translate(-10.5, 0)">120</text><text x="313.8" y="252.0" transform="translate(-7.0, 0)">90</text><text x="209.20000000000002" y="252.0" transform="translate(-7.0, 0)">60</text><text x="104.60000000000001" y="252.0" transform="translate(-7.0, 0)">30</text><text x="0.0" y="252.0" transform="translate(-3.5, 0)">0</text></g></g><g><g opacity="0.8" transform="translate(47.0, 62.5)"><path d="M0.0 19.4 h156.9 v38.8 h-156.9 v-38.8Z M0.0 77.5 h209.2 v38.8 h-209.2 v-38.8Z M0.0 135.7 h191.8 v38.8 h-191.8 v-38.8Z M0.0 193.8 h244.1 v38.8 h-244.1 v-38.8Z" fill="#5fab9e"/><path d="M156.9 19.4 h104.6 v38.8 h-104.6 v-38.8Z M209.2 77.5 h87.2 v38.8 h-87.2 v-38.8Z M191.8 135.7 h139.5 v38.8 h-139.5 v-38.8Z M244.1 193.8 h122.0 v38.8 h-122.0 v-38.8Z" fill="#f58b51"/><path d="M261.5 19.4 h52.3 v38.8 h-52.3 v-38.8Z M296.4 77.5 h69.7 v38.8 h-69.7 v-38.8Z M331.2 135.7 h62.8 v38.8 h-62.8 v-38.8Z M366.1 193.8 h76.7 v38.8 h-76.7 v-38.8Z" fill="#f7dd72"/></g><path stroke="#CCCCCC" stroke-dasharray="None" d="M0 252.0 h523.0" transform="translate(47.0, 62.5)"/><path stroke="#CCCCCC" stroke-dasharray="None" d="M0 0 h523.0" transform="translate(47.0, 62.5)"/><path stroke="#CCCCCC" stroke-dasharray="None" d="M0 0 v252.0" transform="translate(47.0, 62.5)"/><path stroke="#CCCCCC" stroke-dasharray="None" d="M523.0 0 v252.0" transform="translate(47.0, 62.5)"/></g><g><rect transform="translate(-13.0, -10.5)" x="501.0" y="77.0" width="78.0" height="63.0" fill="#f5f5f5" stroke="#d7d7d7"/><g><rect y="80.0" x="501.0" width="12" height="12" fill="#5fab9e"/><text y="89.0" x="515.0" font-size="12" font-family="Arial" fill="#444444">Digital</text></g><g><rect y="92.0" x="501.0" width="12" height="12" fill="#f58b51"/><text y="101.0" x="515.0" font-size="12" font-family="Arial" fill="#444444">Print</text></g><g><rect y="104.0" x="501.0" width="12" height="12" fill="#f7dd72"/><text y="113.0" x="515.0" font-size="12" font-family="Arial" fill="#444444">Events</text></g></g><path d="M47.0 62.5 v252.0 M47.0 314.5 h523.0" stroke="#999" stroke-width="1.5" fill="none"/><text x="308.5" y="348" fill="#444444" font-size="14" font-family="JetBrains Mono" text-anchor="middle">Spend ($K)</text></svg>