<svg xmlns="http://www.w3.org/2000/svg" width="700" height="500" viewBox="0 0 700 500"><path fill="white" d="M0 0 h700 v500 h-700 v-500Z"/><text transform="translate(-136.0, 19)" fill="#444444" font-family="Helvetica" font-weight="bold" font-size="16" x="350.0" y="20.0">Revenue vs Expenses by Quarter ($K)</text><g><path stroke="#CCCCCC" stroke-dasharray="None" d="M0 41.21052631578947 h487.0 M0 103.02631578947368 h487.0 M0 164.8421052631579 h487.0 M0 226.65789473684208 h487.0 M0 288.4736842105263 h487.0 M0 350.2894736842105 h487.0" transform="translate(129.0, 68.5)"/><g font-size="12" font-family="Helvetica" transform="translate(123.0, 68.5)"><text x="0" y="41.21052631578947" transform="translate(-45, -7.0)">Q1 Prod</text><text x="0" y="103.02631578947368" transform="translate(-41, -7.0)">Q1 Ops</text><text x="0" y="164.8421052631579" transform="translate(-45, -7.0)">Q2 Prod</text><text x="0" y="226.65789473684208" transform="translate(-41, -7.0)">Q2 Ops</text><text x="0" y="288.4736842105263" transform="translate(-45, -7.0)">Q3 Prod</text><text x="0" y="350.2894736842105" transform="translate(-41, -7.0)">Q3 Ops</text></g></g><g><path stroke="#CCCCCC" stroke-dasharray="None" d="M487.0 0 v391.5 M426.125 0 v391.5 M365.25 0 v391.5 M304.375 0 v391.5 M243.5 0 v391.5 M182.625 0 v391.5 M121.75 0 v391.5 M60.875 0 v391.5 M0.0 0 v391.5" transform="translate(129.0, 68.5)"/><g font-size="12" font-family="Helvetica" transform="translate(129.0, 86.5)"><text x="487.0" y="391.5" transform="translate(-10.5, 0)">250</text><text x="426.125" y="391.5" transform="translate(-10.5, 0)">200</text><text x="365.25" y="391.5" transform="translate(-10.5, 0)">150</text><text x="304.375" y="391.5" transform="translate(-10.5, 0)">100</text><text x="243.5" y="391.5" transform="translate(-7.0, 0)">50</text><text x="182.625" y="391.5" transform="translate(-3.5, 0)">0</text><text x="121.75" y="391.5" transform="translate(-9.0, 0)">-50</text><text x="60.875" y="391.5" transform="translate(-12.5, 0)">-100</text><text x="0.0" y="391.5" transform="translate(-12.5, 0)">-150</text></g></g><path transform="translate(129.0, 68.5)" d="M182.625 0 v391.5z" stroke="black"/><g><g opacity="0.8" transform="translate(129.0, 68.5)"><path d="M0 20.605263157894736 h328.725 v20.605263157894736 h-328.725 v-20.605263157894736Z M0 82.42105263157895 h127.8375 v20.605263157894736 h-127.8375 v-20.605263157894736Z M0 144.23684210526315 h401.775 v20.605263157894736 h-401.775 v-20.605263157894736Z M0 206.05263157894734 h146.1 v20.605263157894736 h-146.1 v-20.605263157894736Z M0 267.86842105263156 h438.3 v20.605263157894736 h-438.3 v-20.605263157894736Z M0 329.6842105263158 h109.575 v20.605263157894736 h-109.575 v-20.605263157894736Z" fill="#5fab9e"/><path d="M0 41.21052631578947 h85.225 v20.605263157894736 h-85.225 v-20.605263157894736Z M0 103.02631578947368 h158.275 v20.605263157894736 h-158.275 v-20.605263157894736Z M0 164.8421052631579 h66.9625 v20.605263157894736 h-66.9625 v-20.605263157894736Z M0 226.65789473684208 h164.3625 v20.605263157894736 h-164.3625 v-20.605263157894736Z M0 288.4736842105263 h48.7 v20.605263157894736 h-48.7 v-20.605263157894736Z M0 350.2894736842105 h152.1875 v20.605263157894736 h-152.1875 v-20.605263157894736Z" fill="#f58b51"/></g><path stroke="#CCCCCC" stroke-dasharray="None" d="M0 391.5 h487.0" transform="translate(129.0, 68.5)"/></g></svg>