<svg xmlns="http://www.w3.org/2000/svg" width="600" height="350" viewBox="0 0 600 350"><path fill="#FFFFFF" d="M0 0 h600 v350 h-600 v-350Z"/><text transform="translate(-125.0, 18)" fill="#444444" font-family="Arial" font-weight="normal" font-size="16" x="300.0" y="8.75">Marketing Spend by Channel ($K)</text><defs><clipPath id="plot-clip"><rect x="0" y="0" width="523.0" height="270.0"/></clipPath></defs><g><path stroke="#CCCCCC" stroke-dasharray="None" d="M0 41.53846153846154 h523.0 M0 103.84615384615385 h523.0 M0 166.15384615384616 h523.0 M0 228.46153846153845 h523.0" transform="translate(47.0, 44.5)"/><g font-size="12" font-family="Arial" fill="#444444" transform="translate(41.0, 44.5)"><text x="0" y="41.53846153846154" dominant-baseline="central" transform="translate(-17, 0)">Q1</text><text x="0" y="103.84615384615385" dominant-baseline="central" transform="translate(-17, 0)">Q2</text><text x="0" y="166.15384615384616" dominant-baseline="central" transform="translate(-17, 0)">Q3</text><text x="0" y="228.46153846153845" dominant-baseline="central" transform="translate(-17, 0)">Q4</text></g></g><g><path stroke="#CCCCCC" stroke-dasharray="None" d="M523.0 0 v270.0 M418.40000000000003 0 v270.0 M313.8 0 v270.0 M209.20000000000002 0 v270.0 M104.60000000000001 0 v270.0 M0.0 0 v270.0" transform="translate(47.0, 44.5)"/><g font-size="12" font-family="Arial" fill="#444444" transform="translate(47.0, 62.5)"><text x="523.0" y="270.0" transform="translate(-10.5, 0)">150</text><text x="418.40000000000003" y="270.0" transform="translate(-10.5, 0)">120</text><text x="313.8" y="270.0" transform="translate(-7.0, 0)">90</text><text x="209.20000000000002" y="270.0" transform="translate(-7.0, 0)">60</text><text x="104.60000000000001" y="270.0" transform="translate(-7.0, 0)">30</text><text x="0.0" y="270.0" transform="translate(-3.5, 0)">0</text></g></g><g><g opacity="0.8" transform="translate(47.0, 44.5)"><path d="M0.0 20.8 h156.9 v41.5 h-156.9 v-41.5Z M0.0 83.1 h209.2 v41.5 h-209.2 v-41.5Z M0.0 145.4 h191.8 v41.5 h-191.8 v-41.5Z M0.0 207.7 h244.1 v41.5 h-244.1 v-41.5Z" fill="#5fab9e"/><path d="M156.9 20.8 h104.6 v41.5 h-104.6 v-41.5Z M209.2 83.1 h87.2 v41.5 h-87.2 v-41.5Z M191.8 145.4 h139.5 v41.5 h-139.5 v-41.5Z M244.1 207.7 h122.0 v41.5 h-122.0 v-41.5Z" fill="#f58b51"/><path d="M261.5 20.8 h52.3 v41.5 h-52.3 v-41.5Z M296.4 83.1 h69.7 v41.5 h-69.7 v-41.5Z M331.2 145.4 h62.8 v41.5 h-62.8 v-41.5Z M366.1 207.7 h76.7 v41.5 h-76.7 v-41.5Z" fill="#f7dd72"/></g><path stroke="#CCCCCC" stroke-dasharray="None" d="M0 270.0 h523.0" transform="translate(47.0, 44.5)"/><path stroke="#CCCCCC" stroke-dasharray="None" d="M0 0 h523.0" transform="translate(47.0, 44.5)"/><path stroke="#CCCCCC" stroke-dasharray="None" d="M0 0 v270.0" transform="translate(47.0, 44.5)"/><path stroke="#CCCCCC" stroke-dasharray="None" d="M523.0 0 v270.0" transform="translate(47.0, 44.5)"/></g><g><rect transform="translate(-13.0, -10.5)" x="501.0" y="59.0" width="78.0" height="63.0" fill="#f5f5f5" stroke="#d7d7d7"/><g><rect y="62.0" x="501.0" width="12" height="12" fill="#5fab9e"/><text y="71.0" x="515.0" font-size="12" font-family="Arial" fill="#444444">Digital</text></g><g><rect y="74.0" x="501.0" width="12" height="12" fill="#f58b51"/><text y="83.0" x="515.0" font-size="12" font-family="Arial" fill="#444444">Print</text></g><g><rect y="86.0" x="501.0" width="12" height="12" fill="#f7dd72"/><text y="95.0" x="515.0" font-size="12" font-family="Arial" fill="#444444">Events</text></g></g><path d="M47.0 44.5 v270.0 M47.0 314.5 h523.0" stroke="#999" stroke-width="1.5" fill="none"/><text x="308.5" y="348" fill="#444444" font-size="14" font-family="Arial" text-anchor="middle">Spend ($K)</text></svg>