<svg xmlns="http://www.w3.org/2000/svg" width="500" height="500" viewBox="0 0 500 500"><path fill="white" d="M0 0 h500 v500 h-500 v-500Z"/><g><path stroke="#CCCCCC" stroke-dasharray="None" d="M0 90.0 h434.0 M0 225.0 h434.0 M0 360.0 h434.0" transform="translate(41.0, 25.0)"/><g font-size="12" font-family="Helvetica" transform="translate(35.0, 25.0)"><text x="0" y="90.0" transform="translate(-16, -7.0)">Q1</text><text x="0" y="225.0" transform="translate(-16, -7.0)">Q2</text><text x="0" y="360.0" transform="translate(-16, -7.0)">Q3</text></g></g><g><path stroke="#CCCCCC" stroke-dasharray="None" d="M347.20000000000005 0 v450.0 M260.4 0 v450.0 M173.60000000000002 0 v450.0 M86.80000000000001 0 v450.0 M0.0 0 v450.0 M-86.80000000000001 0 v450.0" transform="translate(41.0, 25.0)"/><g font-size="12" font-family="Helvetica" transform="translate(41.0, 43.0)"><text x="347.20000000000005" y="450.0" transform="translate(-10.5, 0)">200</text><text x="260.4" y="450.0" transform="translate(-10.5, 0)">150</text><text x="173.60000000000002" y="450.0" transform="translate(-10.5, 0)">100</text><text x="86.80000000000001" y="450.0" transform="translate(-7.0, 0)">50</text><text x="0.0" y="450.0" transform="translate(-3.5, 0)">0</text><text x="-86.80000000000001" y="450.0" transform="translate(-9.0, 0)">-50</text></g></g><path transform="translate(41.0, 25.0)" d="M0.0 0 v450.0z" stroke="black"/><g><g opacity="0.8" transform="translate(127.80000000000001, 25.0)"><path d="M0.0 45.0 h173.60000000000002 v90.0 h-173.60000000000002 v-90.0Z M-86.80000000000001 180.0 h86.80000000000001 v90.0 h-86.80000000000001 v-90.0Z M0.0 315.0 h208.32 v90.0 h-208.32 v-90.0Z" fill="#5fab9e"/><path d="M173.60000000000002 45.0 h138.88 v90.0 h-138.88 v-90.0Z M-86.80000000000001 180.0 h104.16 v90.0 h-104.16 v-90.0Z M138.88 315.0 h69.44 v90.0 h-69.44 v-90.0Z" fill="#f58b51"/></g><path stroke="#CCCCCC" stroke-dasharray="None" d="M0 450.0 h434.0" transform="translate(41.0, 25.0)"/><path stroke="#CCCCCC" stroke-dasharray="None" d="M0 0 h434.0" transform="translate(41.0, 25.0)"/><path stroke="#CCCCCC" stroke-dasharray="None" d="M0 0 v450.0" transform="translate(41.0, 25.0)"/><path stroke="#CCCCCC" stroke-dasharray="None" d="M434.0 0 v450.0" transform="translate(41.0, 25.0)"/></g><g><rect transform="translate(-8.0, -3.75)" x="404.75" y="31.25" width="80.0" height="37.5" fill="#ffffff" stroke="#CCCCCC"/><g transform="translate(0, 13)"><rect y="18.25" x="404.75" width="13" height="13" fill="#5fab9e"/><text y="28.0" x="419.75" font-size="11" font-family="Helvetica">Revenue</text></g><g transform="translate(0, 15)"><rect y="31.25" x="404.75" width="13" height="13" fill="#f58b51"/><text y="41.0" x="419.75" font-size="11" font-family="Helvetica">Expense</text></g></g></svg>