<svg xmlns="http://www.w3.org/2000/svg" width="700" height="400" viewBox="0 0 700 400"><path fill="#FFFFFF" d="M0 0 h700 v400 h-700 v-400Z"/><text transform="translate(-101.5, 18)" fill="#444444" font-family="Arial" font-weight="normal" font-size="16" x="350.0" y="10.0">Budget by Department ($K)</text><defs><clipPath id="plot-clip"><rect x="0" y="0" width="613.0" height="333.0"/></clipPath></defs><g><path stroke="#cccccc" stroke-dasharray="None" d="M0 66.6 h613.0 M0 166.5 h613.0 M0 266.4 h613.0" transform="translate(52.0, 47.0)"/><g font-size="12" font-family="Arial" fill="#000000" transform="translate(46.0, 47.0)"><text x="0" y="66.6" dominant-baseline="central" transform="translate(-17, 0)">Q1</text><text x="0" y="166.5" dominant-baseline="central" transform="translate(-17, 0)">Q2</text><text x="0" y="266.4" dominant-baseline="central" transform="translate(-17, 0)">Q3</text></g></g><g><path stroke="#cccccc" stroke-dasharray="None" d="M613.0 0 v333.0 M490.40000000000003 0 v333.0 M367.8 0 v333.0 M245.20000000000002 0 v333.0 M122.60000000000001 0 v333.0 M0.0 0 v333.0" transform="translate(52.0, 47.0)"/><g font-size="12" font-family="Arial" fill="#000000" transform="translate(52.0, 65.0)"><text x="613.0" y="333.0" transform="translate(-10.5, 0)">200</text><text x="490.40000000000003" y="333.0" transform="translate(-10.5, 0)">150</text><text x="367.8" y="333.0" transform="translate(-10.5, 0)">100</text><text x="245.20000000000002" y="333.0" transform="translate(-7.0, 0)">50</text><text x="122.60000000000001" y="333.0" transform="translate(-3.5, 0)">0</text><text x="0.0" y="333.0" transform="translate(-9.0, 0)">-50</text></g></g><path transform="translate(52.0, 47.0)" d="M122.6 0 v333.0z" stroke="black"/><g><g opacity="0.8" transform="translate(174.60000000000002, 47.0)"><path d="M0.0 33.3 h245.2 v66.6 h-245.2 v-66.6Z M-122.6 133.2 h122.6 v66.6 h-122.6 v-66.6Z M0.0 233.1 h294.2 v66.6 h-294.2 v-66.6Z" fill="#5fab9e"/><path d="M245.2 33.3 h196.2 v66.6 h-196.2 v-66.6Z M0.0 133.2 h147.1 v66.6 h-147.1 v-66.6Z M-98.1 233.1 h98.1 v66.6 h-98.1 v-66.6Z" fill="#f58b51"/></g><path stroke="#cccccc" stroke-dasharray="None" d="M0 333.0 h613.0" transform="translate(52.0, 47.0)"/><path stroke="#cccccc" stroke-dasharray="None" d="M0 0 h613.0" transform="translate(52.0, 47.0)"/><path stroke="#cccccc" stroke-dasharray="None" d="M0 0 v333.0" transform="translate(52.0, 47.0)"/><path stroke="#cccccc" stroke-dasharray="None" d="M613.0 0 v333.0" transform="translate(52.0, 47.0)"/></g><g><rect transform="translate(-5.1, -2.1)" x="587.9" y="53.1" width="78.19999999999999" height="32.199999999999996" fill="#f5f5f5" fill-opacity="0.85" stroke="none"/><g><rect y="55.099999999999994" x="587.9" width="12" height="12" fill="#5fab9e"/><text y="64.1" x="601.9" font-size="12" font-family="Arial" fill="#444444">Revenue</text></g><g><rect y="67.1" x="587.9" width="12" height="12" fill="#f58b51"/><text y="76.1" x="601.9" font-size="12" font-family="Arial" fill="#444444">Expenses</text></g></g><path d="M52.0 47.0 v333.0 M52.0 380.0 h613.0" stroke="#999" stroke-width="1.5" fill="none"/></svg>