<svg xmlns="http://www.w3.org/2000/svg" width="600" height="400" viewBox="0 0 600 400"><path fill="#FFFFFF" d="M0 0 h600 v400 h-600 v-400Z"/><text transform="translate(-95.0, 16.0)" fill="#444444" font-family="Roboto" font-weight="normal" font-size="16" x="322.5" y="10.0">Summer vs Winter Avg. Temperature (°C)</text><defs><clipPath id="plot-clip"><rect x="0" y="0" width="495.0" height="318.0"/></clipPath></defs><g><path stroke="#CCCCCC" stroke-dasharray="None" d="M0 39.75 h495.0 M0 99.375 h495.0 M0 159.0 h495.0 M0 218.625 h495.0 M0 278.25 h495.0" transform="translate(75.0, 44.0)"/><g font-size="12" font-family="Arial" fill="#444444" transform="translate(69.0, 44.0)"><text x="0" y="39.75" dominant-baseline="central" transform="translate(-33, 0)">Dubai</text><text x="0" y="99.375" dominant-baseline="central" transform="translate(-42, 0)">Sydney</text><text x="0" y="159.0" dominant-baseline="central" transform="translate(-34, 0)">Tokyo</text><text x="0" y="218.625" dominant-baseline="central" transform="translate(-42, 0)">London</text><text x="0" y="278.25" dominant-baseline="central" transform="translate(-45, 0)">Moscow</text></g></g><g><path stroke="#CCCCCC" stroke-dasharray="None" d="M495.0 0 v318.0 M445.5 0 v318.0 M396.0 0 v318.0 M346.5 0 v318.0 M297.0 0 v318.0 M247.5 0 v318.0 M198.0 0 v318.0 M148.5 0 v318.0 M99.0 0 v318.0 M49.5 0 v318.0 M0.0 0 v318.0" transform="translate(75.0, 44.0)"/><g font-size="12" font-family="Arial" fill="#444444" transform="translate(75.0, 62.0)"><text x="495.0" y="318.0" transform="translate(-7.0, 0)">35</text><text x="445.5" y="318.0" transform="translate(-7.0, 0)">30</text><text x="396.0" y="318.0" transform="translate(-7.0, 0)">25</text><text x="346.5" y="318.0" transform="translate(-7.0, 0)">20</text><text x="297.0" y="318.0" transform="translate(-7.0, 0)">15</text><text x="247.5" y="318.0" transform="translate(-7.0, 0)">10</text><text x="198.0" y="318.0" transform="translate(-3.5, 0)">5</text><text x="148.5" y="318.0" transform="translate(-3.5, 0)">0</text><text x="99.0" y="318.0" transform="translate(-5.5, 0)">-5</text><text x="49.5" y="318.0" transform="translate(-9.0, 0)">-10</text><text x="0.0" y="318.0" transform="translate(-9.0, 0)">-15</text></g></g><path transform="translate(75.0, 44.0)" d="M148.5 0 v318.0z" stroke="black"/><g><g opacity="0.8" transform="translate(75.0, 44.0)"><path d="M148.5 19.9 h346.5 v19.9 h-346.5 v-19.9Z M148.5 79.5 h277.2 v19.9 h-277.2 v-19.9Z M148.5 139.1 h217.8 v19.9 h-217.8 v-19.9Z M148.5 198.8 h138.6 v19.9 h-138.6 v-19.9Z M148.5 258.4 h79.2 v19.9 h-79.2 v-19.9Z" fill="#5fab9e"/><path d="M148.5 39.8 h178.2 v19.9 h-178.2 v-19.9Z M148.5 99.4 h118.8 v19.9 h-118.8 v-19.9Z M148.5 159.0 h49.5 v19.9 h-49.5 v-19.9Z M128.7 218.6 h19.8 v19.9 h-19.8 v-19.9Z M29.7 278.2 h118.8 v19.9 h-118.8 v-19.9Z" fill="#f58b51"/></g><path stroke="#CCCCCC" stroke-dasharray="None" d="M0 318.0 h495.0" transform="translate(75.0, 44.0)"/><path stroke="#CCCCCC" stroke-dasharray="None" d="M0 0 h495.0" transform="translate(75.0, 44.0)"/><path stroke="#CCCCCC" stroke-dasharray="None" d="M0 0 v318.0" transform="translate(75.0, 44.0)"/><path stroke="#CCCCCC" stroke-dasharray="None" d="M495.0 0 v318.0" transform="translate(75.0, 44.0)"/></g><g><rect transform="translate(-15.0, -7.0)" x="491.0" y="55.0" width="90.0" height="42.0" fill="#f5f5f5" stroke="#d7d7d7"/><g><rect y="57.0" x="491.0" width="12" height="12" fill="#5fab9e"/><text y="66.0" x="505.0" font-size="12" font-family="Roboto" fill="#444444">Summer</text></g><g><rect y="69.0" x="491.0" width="12" height="12" fill="#f58b51"/><text y="78.0" x="505.0" font-size="12" font-family="Roboto" fill="#444444">Winter</text></g></g><path d="M75.0 44.0 v318.0 M75.0 362.0 h495.0" stroke="#999" stroke-width="1.5" fill="none"/><text x="322.5" y="398" fill="#444444" font-size="14" font-family="Roboto" text-anchor="middle">Temperature (°C)</text></svg>