<svg xmlns="http://www.w3.org/2000/svg" width="600" height="350" viewBox="0 0 600 350"><path fill="#FFFFFF" d="M0 0 h600 v350 h-600 v-350Z"/><text transform="translate(-146.0, 18)" fill="#444444" font-family="Arial" font-weight="normal" font-size="16" x="300.0" y="8.75">Trade Balance: Exports vs Imports ($B)</text><defs><clipPath id="plot-clip"><rect x="0" y="0" width="489.0" height="270.0"/></clipPath></defs><g><path stroke="#CCCCCC" stroke-dasharray="None" d="M0 41.53846153846154 h489.0 M0 103.84615384615385 h489.0 M0 166.15384615384616 h489.0 M0 228.46153846153845 h489.0" transform="translate(81.0, 44.5)"/><g font-size="12" font-family="Arial" fill="#444444" transform="translate(75.0, 44.5)"><text x="0" y="41.53846153846154" dominant-baseline="central" transform="translate(-33, 0)">China</text><text x="0" y="103.84615384615385" dominant-baseline="central" transform="translate(-51, 0)">Germany</text><text x="0" y="166.15384615384616" dominant-baseline="central" transform="translate(-50, 0)">Australia</text><text x="0" y="228.46153846153845" dominant-baseline="central" transform="translate(-34, 0)">Japan</text></g></g><g><path stroke="#CCCCCC" stroke-dasharray="None" d="M489.0 0 v270.0 M451.3846153846154 0 v270.0 M413.7692307692308 0 v270.0 M376.1538461538462 0 v270.0 M338.53846153846155 0 v270.0 M300.92307692307696 0 v270.0 M263.3076923076923 0 v270.0 M225.6923076923077 0 v270.0 M188.0769230769231 0 v270.0 M150.46153846153848 0 v270.0 M112.84615384615385 0 v270.0 M75.23076923076924 0 v270.0 M37.61538461538462 0 v270.0 M0.0 0 v270.0" transform="translate(81.0, 44.5)"/><g font-size="12" font-family="Arial" fill="#444444" transform="translate(81.0, 62.5)"><text x="489.0" y="270.0" transform="translate(-10.5, 0)">350</text><text x="451.3846153846154" y="270.0" transform="translate(-10.5, 0)">300</text><text x="413.7692307692308" y="270.0" transform="translate(-10.5, 0)">250</text><text x="376.1538461538462" y="270.0" transform="translate(-10.5, 0)">200</text><text x="338.53846153846155" y="270.0" transform="translate(-10.5, 0)">150</text><text x="300.92307692307696" y="270.0" transform="translate(-10.5, 0)">100</text><text x="263.3076923076923" y="270.0" transform="translate(-7.0, 0)">50</text><text x="225.6923076923077" y="270.0" transform="translate(-3.5, 0)">0</text><text x="188.0769230769231" y="270.0" transform="translate(-9.0, 0)">-50</text><text x="150.46153846153848" y="270.0" transform="translate(-12.5, 0)">-100</text><text x="112.84615384615385" y="270.0" transform="translate(-12.5, 0)">-150</text><text x="75.23076923076924" y="270.0" transform="translate(-12.5, 0)">-200</text><text x="37.61538461538462" y="270.0" transform="translate(-12.5, 0)">-250</text><text x="0.0" y="270.0" transform="translate(-12.5, 0)">-300</text></g></g><path transform="translate(81.0, 44.5)" d="M225.7 0 v270.0z" stroke="black"/><g><g opacity="0.8" transform="translate(81.0, 44.5)"><path d="M225.7 20.8 h240.7 v20.8 h-240.7 v-20.8Z M225.7 83.1 h135.4 v20.8 h-135.4 v-20.8Z M225.7 145.4 h71.5 v20.8 h-71.5 v-20.8Z M225.7 207.7 h158.0 v20.8 h-158.0 v-20.8Z" fill="#5fab9e"/><path d="M15.0 41.5 h210.6 v20.8 h-210.6 v-20.8Z M79.0 103.8 h146.7 v20.8 h-146.7 v-20.8Z M142.9 166.2 h82.8 v20.8 h-82.8 v-20.8Z M101.6 228.5 h124.1 v20.8 h-124.1 v-20.8Z" fill="#f58b51"/></g><path stroke="#CCCCCC" stroke-dasharray="None" d="M0 270.0 h489.0" transform="translate(81.0, 44.5)"/><path stroke="#CCCCCC" stroke-dasharray="None" d="M0 0 h489.0" transform="translate(81.0, 44.5)"/><path stroke="#CCCCCC" stroke-dasharray="None" d="M0 0 v270.0" transform="translate(81.0, 44.5)"/><path stroke="#CCCCCC" stroke-dasharray="None" d="M489.0 0 v270.0" transform="translate(81.0, 44.5)"/></g><g><rect transform="translate(-14.0, -7.0)" x="496.0" y="55.5" width="84.0" height="42.0" fill="#f5f5f5" stroke="#d7d7d7"/><g><rect y="57.5" x="496.0" width="12" height="12" fill="#5fab9e"/><text y="66.5" x="510.0" font-size="12" font-family="Arial" fill="#444444">Exports</text></g><g><rect y="69.5" x="496.0" width="12" height="12" fill="#f58b51"/><text y="78.5" x="510.0" font-size="12" font-family="Arial" fill="#444444">Imports</text></g></g><path d="M81.0 44.5 v270.0 M81.0 314.5 h489.0" stroke="#999" stroke-width="1.5" fill="none"/><text x="325.5" y="348" fill="#444444" font-size="14" font-family="Arial" text-anchor="middle">Value ($B)</text></svg>