<svg xmlns="http://www.w3.org/2000/svg" width="600" height="350" viewBox="0 0 600 350"><path fill="#FFFFFF" d="M0 0 h600 v350 h-600 v-350Z"/><text transform="translate(-247.0, 30)" fill="#444444" font-family="JetBrains Mono" font-weight="normal" font-size="16" x="300.0" y="8.75">Trade Balance: Exports vs Imports ($B)</text><defs><clipPath id="plot-clip"><rect x="0" y="0" width="489.0" height="252.0"/></clipPath></defs><g><path stroke="#CCCCCC" stroke-dasharray="None" d="M0 38.76923076923077 h489.0 M0 96.92307692307692 h489.0 M0 155.07692307692307 h489.0 M0 213.23076923076923 h489.0" transform="translate(81.0, 62.5)"/><g font-size="12" font-family="Arial" fill="#444444" transform="translate(75.0, 62.5)"><text x="0" y="38.76923076923077" dominant-baseline="central" transform="translate(-33, 0)">China</text><text x="0" y="96.92307692307692" dominant-baseline="central" transform="translate(-51, 0)">Germany</text><text x="0" y="155.07692307692307" dominant-baseline="central" transform="translate(-50, 0)">Australia</text><text x="0" y="213.23076923076923" dominant-baseline="central" transform="translate(-34, 0)">Japan</text></g></g><g><path stroke="#CCCCCC" stroke-dasharray="None" d="M489.0 0 v252.0 M451.3846153846154 0 v252.0 M413.7692307692308 0 v252.0 M376.1538461538462 0 v252.0 M338.53846153846155 0 v252.0 M300.92307692307696 0 v252.0 M263.3076923076923 0 v252.0 M225.6923076923077 0 v252.0 M188.0769230769231 0 v252.0 M150.46153846153848 0 v252.0 M112.84615384615385 0 v252.0 M75.23076923076924 0 v252.0 M37.61538461538462 0 v252.0 M0.0 0 v252.0" transform="translate(81.0, 62.5)"/><g font-size="12" font-family="Arial" fill="#444444" transform="translate(81.0, 80.5)"><text x="489.0" y="252.0" transform="translate(-10.5, 0)">350</text><text x="451.3846153846154" y="252.0" transform="translate(-10.5, 0)">300</text><text x="413.7692307692308" y="252.0" transform="translate(-10.5, 0)">250</text><text x="376.1538461538462" y="252.0" transform="translate(-10.5, 0)">200</text><text x="338.53846153846155" y="252.0" transform="translate(-10.5, 0)">150</text><text x="300.92307692307696" y="252.0" transform="translate(-10.5, 0)">100</text><text x="263.3076923076923" y="252.0" transform="translate(-7.0, 0)">50</text><text x="225.6923076923077" y="252.0" transform="translate(-3.5, 0)">0</text><text x="188.0769230769231" y="252.0" transform="translate(-9.0, 0)">-50</text><text x="150.46153846153848" y="252.0" transform="translate(-12.5, 0)">-100</text><text x="112.84615384615385" y="252.0" transform="translate(-12.5, 0)">-150</text><text x="75.23076923076924" y="252.0" transform="translate(-12.5, 0)">-200</text><text x="37.61538461538462" y="252.0" transform="translate(-12.5, 0)">-250</text><text x="0.0" y="252.0" transform="translate(-12.5, 0)">-300</text></g></g><path transform="translate(81.0, 62.5)" d="M225.7 0 v252.0z" stroke="black"/><g><g opacity="0.8" transform="translate(81.0, 62.5)"><path d="M225.7 19.4 h240.7 v19.4 h-240.7 v-19.4Z M225.7 77.5 h135.4 v19.4 h-135.4 v-19.4Z M225.7 135.7 h71.5 v19.4 h-71.5 v-19.4Z M225.7 193.8 h158.0 v19.4 h-158.0 v-19.4Z" fill="#5fab9e"/><path d="M15.0 38.8 h210.6 v19.4 h-210.6 v-19.4Z M79.0 96.9 h146.7 v19.4 h-146.7 v-19.4Z M142.9 155.1 h82.8 v19.4 h-82.8 v-19.4Z M101.6 213.2 h124.1 v19.4 h-124.1 v-19.4Z" fill="#f58b51"/></g><path stroke="#CCCCCC" stroke-dasharray="None" d="M0 252.0 h489.0" transform="translate(81.0, 62.5)"/><path stroke="#CCCCCC" stroke-dasharray="None" d="M0 0 h489.0" transform="translate(81.0, 62.5)"/><path stroke="#CCCCCC" stroke-dasharray="None" d="M0 0 v252.0" transform="translate(81.0, 62.5)"/><path stroke="#CCCCCC" stroke-dasharray="None" d="M489.0 0 v252.0" transform="translate(81.0, 62.5)"/></g><g><rect transform="translate(-14.0, -7.0)" x="496.0" y="73.5" width="84.0" height="42.0" fill="#f5f5f5" stroke="#d7d7d7"/><g><rect y="75.5" x="496.0" width="12" height="12" fill="#5fab9e"/><text y="84.5" x="510.0" font-size="12" font-family="Arial" fill="#444444">Exports</text></g><g><rect y="87.5" x="496.0" width="12" height="12" fill="#f58b51"/><text y="96.5" x="510.0" font-size="12" font-family="Arial" fill="#444444">Imports</text></g></g><path d="M81.0 62.5 v252.0 M81.0 314.5 h489.0" stroke="#999" stroke-width="1.5" fill="none"/><text x="325.5" y="348" fill="#444444" font-size="14" font-family="JetBrains Mono" text-anchor="middle">Value ($B)</text></svg>