<svg xmlns="http://www.w3.org/2000/svg" width="500" height="400" viewBox="0 0 500 400"><path fill="white" d="M0 0 h500 v400 h-500 v-400Z"/><text transform="translate(-55.0, 19)" fill="#444444" font-family="Helvetica" font-weight="bold" font-size="16" x="250.0" y="10.0">Quarterly Sales</text><g><path stroke="#CCCCCC" stroke-dasharray="None" d="M0 331.5 h434.0 M0 165.75 h434.0 M0 0.0 h434.0 M0 331.5 h434.0" transform="translate(41.0, 48.5)"/><g font-size="12" font-family="Helvetica" transform="translate(35.0, 48.5)"><text x="0" y="331.5" transform="translate(-16, 3.5)">Q1</text><text x="0" y="165.75" transform="translate(-16, 3.5)">Q2</text><text x="0" y="0.0" transform="translate(-16, 3.5)">Q3</text></g></g><g><path stroke="#CCCCCC" stroke-dasharray="None" d="M434.0 0 v331.5 M347.20000000000005 0 v331.5 M260.4 0 v331.5 M173.60000000000002 0 v331.5 M86.80000000000001 0 v331.5 M0.0 0 v331.5" transform="translate(41.0, 48.5)"/><g font-size="12" font-family="Helvetica" transform="translate(41.0, 66.5)"><text x="434.0" y="331.5" transform="translate(-10.5, 0)">250</text><text x="347.20000000000005" y="331.5" transform="translate(-10.5, 0)">200</text><text x="260.4" y="331.5" transform="translate(-10.5, 0)">150</text><text x="173.60000000000002" y="331.5" transform="translate(-10.5, 0)">100</text><text x="86.80000000000001" y="331.5" transform="translate(-7.0, 0)">50</text><text x="0.0" y="331.5" transform="translate(-3.5, 0)">0</text></g></g><g opacity="0.8" transform="translate(41.0, 48.5)"><path d="M0 0.0 h52.08 v82.875 h-52.08 v-82.875Z M0 124.3125 h130.2 v82.875 h-130.2 v-82.875Z M0 248.625 h78.11999999999999 v82.875 h-78.11999999999999 v-82.875Z" fill="#5fab9e"/><path d="M0 0.0 h69.44 v82.875 h-69.44 v-82.875Z M0 124.3125 h86.80000000000001 v82.875 h-86.80000000000001 v-82.875Z M0 248.625 h60.760000000000005 v82.875 h-60.760000000000005 v-82.875Z" fill="#f58b51"/><path d="M0 0.0 h34.72 v82.875 h-34.72 v-82.875Z M0 124.3125 h138.88 v82.875 h-138.88 v-82.875Z M0 248.625 h104.16 v82.875 h-104.16 v-82.875Z" fill="#f7dd72"/></g></svg>