<svg xmlns="http://www.w3.org/2000/svg" width="720" height="460" viewBox="0 0 720 460"><path fill="#FFFFFF" d="M0 0 h720 v460 h-720 v-460Z"/><text transform="translate(-109.5, 18)" fill="#444444" font-family="Arial" font-weight="bold" font-size="16" x="360.0" y="11.5">Traffic Source Mix by Quarter</text><defs><clipPath id="plot-clip"><rect x="0" y="0" width="631.0" height="362.0"/></clipPath></defs><g><path stroke="#cccccc" stroke-dasharray="None" d="M0 55.69230769230769 h631.0 M0 139.23076923076923 h631.0 M0 222.76923076923077 h631.0 M0 306.3076923076924 h631.0" transform="translate(53.0, 50.0)"/><g font-size="12" font-family="Arial" fill="#000000" transform="translate(47.0, 50.0)"><text x="0" y="55.69230769230769" dominant-baseline="central" transform="translate(-17, 0)">Q1</text><text x="0" y="139.23076923076923" dominant-baseline="central" transform="translate(-17, 0)">Q2</text><text x="0" y="222.76923076923077" dominant-baseline="central" transform="translate(-17, 0)">Q3</text><text x="0" y="306.3076923076924" dominant-baseline="central" transform="translate(-17, 0)">Q4</text></g></g><g><path stroke="#cccccc" stroke-dasharray="None" d="M631.0 0 v362.0 M504.8 0 v362.0 M378.59999999999997 0 v362.0 M252.4 0 v362.0 M126.2 0 v362.0 M0.0 0 v362.0" transform="translate(53.0, 50.0)"/><g font-size="12" font-family="Arial" fill="#000000" transform="translate(53.0, 68.0)"><text x="631.0" y="362.0" transform="translate(-10.5, 0)">100</text><text x="504.8" y="362.0" transform="translate(-7.0, 0)">80</text><text x="378.59999999999997" y="362.0" transform="translate(-7.0, 0)">60</text><text x="252.4" y="362.0" transform="translate(-7.0, 0)">40</text><text x="126.2" y="362.0" transform="translate(-7.0, 0)">20</text><text x="0.0" y="362.0" transform="translate(-3.5, 0)">0</text></g></g><g><g opacity="0.8" transform="translate(53.0, 50.0)"><path d="M0.0 27.8 h252.4 v55.7 h-252.4 v-55.7Z M0.0 111.4 h283.9 v55.7 h-283.9 v-55.7Z M0.0 194.9 h239.8 v55.7 h-239.8 v-55.7Z M0.0 278.5 h265.0 v55.7 h-265.0 v-55.7Z" fill="#5fab9e"/><path d="M252.4 27.8 h220.8 v55.7 h-220.8 v-55.7Z M283.9 111.4 h189.3 v55.7 h-189.3 v-55.7Z M239.8 194.9 h214.5 v55.7 h-214.5 v-55.7Z M265.0 278.5 h195.6 v55.7 h-195.6 v-55.7Z" fill="#f58b51"/><path d="M473.2 27.8 h157.8 v55.7 h-157.8 v-55.7Z M473.2 111.4 h157.8 v55.7 h-157.8 v-55.7Z M454.3 194.9 h176.7 v55.7 h-176.7 v-55.7Z M460.6 278.5 h170.4 v55.7 h-170.4 v-55.7Z" fill="#f7dd72"/><text x="126.2" y="59.69230769230769" fill="#000000" font-size="12" font-family="Arial" text-anchor="middle">40%</text><text x="141.975" y="143.23076923076923" fill="#000000" font-size="12" font-family="Arial" text-anchor="middle">45%</text><text x="119.89" y="226.76923076923077" fill="#000000" font-size="12" font-family="Arial" text-anchor="middle">38%</text><text x="132.51" y="310.3076923076924" fill="#000000" font-size="12" font-family="Arial" text-anchor="middle">42%</text><text x="362.825" y="59.69230769230769" fill="#000000" font-size="12" font-family="Arial" text-anchor="middle">35%</text><text x="378.59999999999997" y="143.23076923076923" fill="#000000" font-size="12" font-family="Arial" text-anchor="middle">30%</text><text x="347.05" y="226.76923076923077" fill="#000000" font-size="12" font-family="Arial" text-anchor="middle">34%</text><text x="362.825" y="310.3076923076924" fill="#000000" font-size="12" font-family="Arial" text-anchor="middle">31%</text><text x="552.125" y="59.69230769230769" fill="#000000" font-size="12" font-family="Arial" text-anchor="middle">25%</text><text x="552.125" y="143.23076923076923" fill="#000000" font-size="12" font-family="Arial" text-anchor="middle">25%</text><text x="542.66" y="226.76923076923077" fill="#000000" font-size="12" font-family="Arial" text-anchor="middle">28%</text><text x="545.815" y="310.3076923076924" fill="#000000" font-size="12" font-family="Arial" text-anchor="middle">27%</text></g><path stroke="#cccccc" stroke-dasharray="None" d="M0 362.0 h631.0" transform="translate(53.0, 50.0)"/><path stroke="#cccccc" stroke-dasharray="None" d="M0 0 h631.0" transform="translate(53.0, 50.0)"/><path stroke="#cccccc" stroke-dasharray="None" d="M0 0 v362.0" transform="translate(53.0, 50.0)"/><path stroke="#cccccc" stroke-dasharray="None" d="M631.0 0 v362.0" transform="translate(53.0, 50.0)"/></g><g><rect x="271.0" y="438.0" width="11.0" height="11.0" fill="#5fab9e"/><text x="288.0" y="447.35" fill="#444444" font-size="11" font-family="Arial" text-anchor="start">Organic</text><rect x="347.0" y="438.0" width="11.0" height="11.0" fill="#f58b51"/><text x="364.0" y="447.35" fill="#444444" font-size="11" font-family="Arial" text-anchor="start">Paid</text><rect x="405.0" y="438.0" width="11.0" height="11.0" fill="#f7dd72"/><text x="422.0" y="447.35" fill="#444444" font-size="11" font-family="Arial" text-anchor="start">Referral</text></g><path d="M53.0 50.0 v362.0 M53.0 412.0 h631.0" stroke="#999" stroke-width="1.5" fill="none"/></svg>