<svg xmlns="http://www.w3.org/2000/svg" width="720" height="440" viewBox="0 0 720 440"><path fill="#FFFFFF" d="M0 0 h720 v440 h-720 v-440Z"/><text transform="translate(-122.0, 18)" fill="#444444" font-family="Arial" font-weight="bold" font-size="16" x="360.0" y="11.0">Request Latency (ms) by Service</text><defs><clipPath id="plot-clip"><rect x="0" y="0" width="648.0" height="369.0"/></clipPath></defs><g><path stroke="#cccccc" stroke-dasharray="None" d="M0 0.0 h648.0 M0 73.8 h648.0 M0 147.6 h648.0 M0 221.4 h648.0 M0 295.2 h648.0 M0 369.0 h648.0" transform="translate(36.0, 49.0)"/><g font-size="12" font-family="Arial" fill="#000000" transform="translate(30.0, 49.0)"><text x="0" y="0.0" transform="translate(-21, 3.5)">300</text><text x="0" y="73.8" transform="translate(-21, 3.5)">240</text><text x="0" y="147.6" transform="translate(-21, 3.5)">180</text><text x="0" y="221.4" transform="translate(-21, 3.5)">120</text><text x="0" y="295.2" transform="translate(-14, 3.5)">60</text><text x="0" y="369.0" transform="translate(-7, 3.5)">0</text></g></g><g><path stroke="#cccccc" stroke-dasharray="None" d="M0.0 0 v369.0 M129.6 0 v369.0 M259.2 0 v369.0 M388.8 0 v369.0 M518.4 0 v369.0 M648.0 0 v369.0" transform="translate(36.0, 49.0)"/><g font-size="12" font-family="Arial" fill="#000000" transform="translate(36.0, 67.0)"><text x="0.0" y="369.0" transform="translate(-2.0, 0)"> </text><text x="129.6" y="369.0" transform="translate(-13.5, 0)">Auth</text><text x="259.2" y="369.0" transform="translate(-20.0, 0)">Search</text><text x="388.8" y="369.0" transform="translate(-12.0, 0)">Cart</text><text x="518.4" y="369.0" transform="translate(-25.0, 0)">Payment</text><text x="648.0" y="369.0" transform="translate(-2.0, 0)"> </text></g></g><g><path d="M165.6 403.24 L165.6 282.70000000000005" stroke="#5fab9e" stroke-width="1.5"/><path d="M136.44 403.24 L194.76 403.24" stroke="#5fab9e" stroke-width="1.5"/><path d="M136.44 282.70000000000005 L194.76 282.70000000000005" stroke="#5fab9e" stroke-width="1.5"/><rect x="117.0" y="368.923" width="97.2" height="-11.439000000000021" fill="#5fab9e" fill-opacity="0.3" stroke="#5fab9e" stroke-width="1.5"/><path d="M117.0 361.42 L214.2 361.42" stroke="#5fab9e" stroke-width="2"/><path d="M295.2 368.8 L295.2 98.19999999999999" stroke="#f58b51" stroke-width="1.5"/><path d="M266.03999999999996 368.8 L324.36 368.8" stroke="#f58b51" stroke-width="1.5"/><path d="M266.03999999999996 98.19999999999999 L324.36 98.19999999999999" stroke="#f58b51" stroke-width="1.5"/><rect x="246.6" y="297.46000000000004" width="97.2" height="-56.45700000000005" fill="#f58b51" fill-opacity="0.3" stroke="#f58b51" stroke-width="1.5"/><path d="M246.6 265.60299999999995 L343.8 265.60299999999995" stroke="#f58b51" stroke-width="2"/><path d="M424.8 393.4 L424.8 196.6" stroke="#f7dd72" stroke-width="1.5"/><path d="M395.64 393.4 L453.96000000000004 393.4" stroke="#f7dd72" stroke-width="1.5"/><path d="M395.64 196.6 L453.96000000000004 196.6" stroke="#f7dd72" stroke-width="1.5"/><rect x="376.2" y="337.435" width="97.2" height="-16.851" fill="#f7dd72" fill-opacity="0.3" stroke="#f7dd72" stroke-width="1.5"/><path d="M376.2 328.33299999999997 L473.40000000000003 328.33299999999997" stroke="#f7dd72" stroke-width="2"/><path d="M554.4 374.95 L554.4 147.40000000000003" stroke="#db504a" stroke-width="1.5"/><path d="M525.24 374.95 L583.56 374.95" stroke="#db504a" stroke-width="1.5"/><path d="M525.24 147.40000000000003 L583.56 147.40000000000003" stroke="#db504a" stroke-width="1.5"/><rect x="505.79999999999995" y="314.68" width="97.2" height="-36.77699999999999" fill="#db504a" fill-opacity="0.3" stroke="#db504a" stroke-width="1.5"/><path d="M505.79999999999995 298.075 L603.0 298.075" stroke="#db504a" stroke-width="2"/></g><path d="M36.0 49.0 v369.0 M36.0 418.0 h648.0" stroke="#999" stroke-width="1.5" fill="none"/></svg>