<svg xmlns="http://www.w3.org/2000/svg" width="600" height="400" viewBox="0 0 600 400"><path fill="#FFFFFF" d="M0 0 h600 v400 h-600 v-400Z"/><text transform="translate(-87.5, 16.0)" fill="#444444" font-family="Roboto" font-weight="normal" font-size="16" x="300.0" y="10.0">Response Time by Server Region (ms)</text><defs><clipPath id="plot-clip"><rect x="0" y="0" width="540.0" height="336.0"/></clipPath></defs><g><path stroke="#CCCCCC" stroke-dasharray="None" d="M0 0.0 h540.0 M0 67.2 h540.0 M0 134.4 h540.0 M0 201.6 h540.0 M0 268.8 h540.0 M0 336.0 h540.0" transform="translate(30.0, 44.0)"/><g font-size="12" font-family="Arial" fill="#444444" transform="translate(24.0, 44.0)"><text x="0" y="0.0" transform="translate(-21, 3.5)">150</text><text x="0" y="67.2" transform="translate(-21, 3.5)">120</text><text x="0" y="134.4" transform="translate(-14, 3.5)">90</text><text x="0" y="201.6" transform="translate(-14, 3.5)">60</text><text x="0" y="268.8" transform="translate(-14, 3.5)">30</text><text x="0" y="336.0" transform="translate(-7, 3.5)">0</text></g></g><g><path stroke="#CCCCCC" stroke-dasharray="None" d="M0.0 0 v336.0 M135.0 0 v336.0 M270.0 0 v336.0 M405.0 0 v336.0 M540.0 0 v336.0" transform="translate(30.0, 44.0)"/><g font-size="12" font-family="Arial" fill="#444444" transform="translate(30.0, 62.0)"><text x="0.0" y="336.0" transform="translate(-2.0, 0)"> </text><text x="135.0" y="336.0" transform="translate(-24.0, 0)">US-East</text><text x="270.0" y="336.0" transform="translate(-25.5, 0)">EU-West</text><text x="405.0" y="336.0" transform="translate(-28.0, 0)">AP-South</text><text x="540.0" y="336.0" transform="translate(-2.0, 0)"> </text></g></g><g><path d="M165.0 368.8 L165.0 151.51999999999998" stroke="#5fab9e" stroke-width="1.5"/><path d="M132.6 368.8 L197.4 368.8" stroke="#5fab9e" stroke-width="1.5"/><path d="M132.6 151.51999999999998 L197.4 151.51999999999998" stroke="#5fab9e" stroke-width="1.5"/><rect x="111.0" y="281.88800000000003" width="108.0" height="-28.33600000000004" fill="#5fab9e" fill-opacity="0.3" stroke="#5fab9e" stroke-width="1.5"/><path d="M111.0 265.536 L219.0 265.536" stroke="#5fab9e" stroke-width="2"/><path d="M300.0 312.8 L300.0 88.80000000000001" stroke="#f58b51" stroke-width="1.5"/><path d="M267.6 312.8 L332.4 312.8" stroke="#f58b51" stroke-width="1.5"/><path d="M267.6 88.80000000000001 L332.4 88.80000000000001" stroke="#f58b51" stroke-width="1.5"/><rect x="246.0" y="242.12800000000001" width="108.0" height="-49.168000000000006" fill="#f58b51" fill-opacity="0.3" stroke="#f58b51" stroke-width="1.5"/><path d="M246.0 214.688 L354.0 214.688" stroke="#f58b51" stroke-width="2"/><path d="M435.0 362.08 L435.0 245.6" stroke="#f7dd72" stroke-width="1.5"/><path d="M402.6 362.08 L467.4 362.08" stroke="#f7dd72" stroke-width="1.5"/><path d="M402.6 245.6 L467.4 245.6" stroke="#f7dd72" stroke-width="1.5"/><rect x="381.0" y="322.432" width="108.0" height="-24.976" fill="#f7dd72" fill-opacity="0.3" stroke="#f7dd72" stroke-width="1.5"/><path d="M381.0 310.784 L489.0 310.784" stroke="#f7dd72" stroke-width="2"/></g><path d="M30.0 44.0 v336.0 M30.0 380.0 h540.0" stroke="#999" stroke-width="1.5" fill="none"/></svg>