<svg xmlns="http://www.w3.org/2000/svg" width="600" height="400" viewBox="0 0 600 400"><path fill="#FFFFFF" d="M0 0 h600 v400 h-600 v-400Z"/><text transform="translate(-227.5, 30)" fill="#444444" font-family="JetBrains Mono" font-weight="normal" font-size="16" x="300.0" y="10.0">Response Time by Server Region (ms)</text><defs><clipPath id="plot-clip"><rect x="0" y="0" width="540.0" height="315.0"/></clipPath></defs><g><path stroke="#CCCCCC" stroke-dasharray="None" d="M0 0.0 h540.0 M0 63.0 h540.0 M0 126.0 h540.0 M0 189.0 h540.0 M0 252.0 h540.0 M0 315.0 h540.0" transform="translate(30.0, 65.0)"/><g font-size="12" font-family="Arial" fill="#444444" transform="translate(24.0, 65.0)"><text x="0" y="0.0" transform="translate(-21, 3.5)">150</text><text x="0" y="63.0" transform="translate(-21, 3.5)">120</text><text x="0" y="126.0" transform="translate(-14, 3.5)">90</text><text x="0" y="189.0" transform="translate(-14, 3.5)">60</text><text x="0" y="252.0" transform="translate(-14, 3.5)">30</text><text x="0" y="315.0" transform="translate(-7, 3.5)">0</text></g></g><g><path stroke="#CCCCCC" stroke-dasharray="None" d="M0.0 0 v315.0 M135.0 0 v315.0 M270.0 0 v315.0 M405.0 0 v315.0 M540.0 0 v315.0" transform="translate(30.0, 65.0)"/><g font-size="12" font-family="Arial" fill="#444444" transform="translate(30.0, 83.0)"><text x="0.0" y="315.0" transform="translate(-2.0, 0)"> </text><text x="135.0" y="315.0" transform="translate(-24.0, 0)">US-East</text><text x="270.0" y="315.0" transform="translate(-25.5, 0)">EU-West</text><text x="405.0" y="315.0" transform="translate(-28.0, 0)">AP-South</text><text x="540.0" y="315.0" transform="translate(-2.0, 0)"> </text></g></g><g><path d="M165.0 369.5 L165.0 165.79999999999998" stroke="#5fab9e" stroke-width="1.5"/><path d="M132.6 369.5 L197.4 369.5" stroke="#5fab9e" stroke-width="1.5"/><path d="M132.6 165.79999999999998 L197.4 165.79999999999998" stroke="#5fab9e" stroke-width="1.5"/><rect x="111.0" y="288.02" width="108.0" height="-26.564999999999998" fill="#5fab9e" fill-opacity="0.3" stroke="#5fab9e" stroke-width="1.5"/><path d="M111.0 272.69 L219.0 272.69" stroke="#5fab9e" stroke-width="2"/><path d="M300.0 317.0 L300.0 107.0" stroke="#f58b51" stroke-width="1.5"/><path d="M267.6 317.0 L332.4 317.0" stroke="#f58b51" stroke-width="1.5"/><path d="M267.6 107.0 L332.4 107.0" stroke="#f58b51" stroke-width="1.5"/><rect x="246.0" y="250.745" width="108.0" height="-46.095" fill="#f58b51" fill-opacity="0.3" stroke="#f58b51" stroke-width="1.5"/><path d="M246.0 225.02 L354.0 225.02" stroke="#f58b51" stroke-width="2"/><path d="M435.0 363.2 L435.0 254.0" stroke="#f7dd72" stroke-width="1.5"/><path d="M402.6 363.2 L467.4 363.2" stroke="#f7dd72" stroke-width="1.5"/><path d="M402.6 254.0 L467.4 254.0" stroke="#f7dd72" stroke-width="1.5"/><rect x="381.0" y="326.03" width="108.0" height="-23.414999999999964" fill="#f7dd72" fill-opacity="0.3" stroke="#f7dd72" stroke-width="1.5"/><path d="M381.0 315.11 L489.0 315.11" stroke="#f7dd72" stroke-width="2"/></g><path d="M30.0 65.0 v315.0 M30.0 380.0 h540.0" stroke="#999" stroke-width="1.5" fill="none"/></svg>