<svg xmlns="http://www.w3.org/2000/svg" width="700" height="400" viewBox="0 0 700 400"><path fill="#FFFFFF" d="M0 0 h700 v400 h-700 v-400Z"/><text transform="translate(-134.5, 18)" fill="#444444" font-family="Arial" font-weight="normal" font-size="16" x="350.0" y="10.0">Test Scores by Group — with Outliers</text><defs><clipPath id="plot-clip"><rect x="0" y="0" width="630.0" height="333.0"/></clipPath></defs><g><path stroke="#CCCCCC" stroke-dasharray="None" d="M0 0.0 h630.0 M0 66.60000000000001 h630.0 M0 133.20000000000002 h630.0 M0 199.79999999999998 h630.0 M0 266.40000000000003 h630.0 M0 333.0 h630.0" transform="translate(35.0, 47.0)"/><g font-size="12" font-family="Arial" fill="#444444" transform="translate(29.0, 47.0)"><text x="0" y="0.0" transform="translate(-21, 3.5)">150</text><text x="0" y="66.60000000000001" transform="translate(-21, 3.5)">120</text><text x="0" y="133.20000000000002" transform="translate(-14, 3.5)">90</text><text x="0" y="199.79999999999998" transform="translate(-14, 3.5)">60</text><text x="0" y="266.40000000000003" transform="translate(-14, 3.5)">30</text><text x="0" y="333.0" transform="translate(-7, 3.5)">0</text></g></g><g><path stroke="#CCCCCC" stroke-dasharray="None" d="M0.0 0 v333.0 M157.5 0 v333.0 M315.0 0 v333.0 M472.5 0 v333.0 M630.0 0 v333.0" transform="translate(35.0, 47.0)"/><g font-size="12" font-family="Arial" fill="#444444" transform="translate(35.0, 65.0)"><text x="0.0" y="333.0" transform="translate(-2.0, 0)"> </text><text x="157.5" y="333.0" transform="translate(-24.0, 0)">Group A</text><text x="315.0" y="333.0" transform="translate(-24.0, 0)">Group B</text><text x="472.5" y="333.0" transform="translate(-24.0, 0)">Group C</text><text x="630.0" y="333.0" transform="translate(-2.0, 0)"> </text></g></g><g><path d="M192.5 368.9 L192.5 153.55999999999997" stroke="#5fab9e" stroke-width="1.5"/><path d="M154.7 368.9 L230.3 368.9" stroke="#5fab9e" stroke-width="1.5"/><path d="M154.7 153.55999999999997 L230.3 153.55999999999997" stroke="#5fab9e" stroke-width="1.5"/><rect x="129.5" y="282.764" width="126.0" height="-28.083000000000027" fill="#5fab9e" fill-opacity="0.3" stroke="#5fab9e" stroke-width="1.5"/><path d="M129.5 266.558 L255.5 266.558" stroke="#5fab9e" stroke-width="2"/><path d="M350.0 313.4 L350.0 91.39999999999998" stroke="#f58b51" stroke-width="1.5"/><path d="M312.2 313.4 L387.8 313.4" stroke="#f58b51" stroke-width="1.5"/><path d="M312.2 91.39999999999998 L387.8 91.39999999999998" stroke="#f58b51" stroke-width="1.5"/><rect x="287.0" y="243.359" width="126.0" height="-48.72900000000001" fill="#f58b51" fill-opacity="0.3" stroke="#f58b51" stroke-width="1.5"/><path d="M287.0 216.16400000000002 L413.0 216.16400000000002" stroke="#f58b51" stroke-width="2"/><path d="M507.5 362.24 L507.5 246.79999999999998" stroke="#f7dd72" stroke-width="1.5"/><path d="M469.7 362.24 L545.3 362.24" stroke="#f7dd72" stroke-width="1.5"/><path d="M469.7 246.79999999999998 L545.3 246.79999999999998" stroke="#f7dd72" stroke-width="1.5"/><rect x="444.5" y="322.94599999999997" width="126.0" height="-24.752999999999986" fill="#f7dd72" fill-opacity="0.3" stroke="#f7dd72" stroke-width="1.5"/><path d="M444.5 311.402 L570.5 311.402" stroke="#f7dd72" stroke-width="2"/></g></svg>