<svg xmlns="http://www.w3.org/2000/svg" width="600" height="400" viewBox="0 0 600 400"><path fill="#FFFFFF" d="M0 0 h600 v400 h-600 v-400Z"/><text transform="translate(-143.5, 18)" fill="#444444" font-family="Arial" font-weight="normal" font-size="16" x="300.0" y="10.0">Response Time by Server Region (ms)</text><defs><clipPath id="plot-clip"><rect x="0" y="0" width="540.0" height="333.0"/></clipPath></defs><g><path stroke="#CCCCCC" stroke-dasharray="None" d="M0 0.0 h540.0 M0 66.60000000000001 h540.0 M0 133.20000000000002 h540.0 M0 199.79999999999998 h540.0 M0 266.40000000000003 h540.0 M0 333.0 h540.0" transform="translate(30.0, 47.0)"/><g font-size="12" font-family="Arial" fill="#444444" transform="translate(24.0, 47.0)"><text x="0" y="0.0" transform="translate(-21, 3.5)">150</text><text x="0" y="66.60000000000001" transform="translate(-21, 3.5)">120</text><text x="0" y="133.20000000000002" transform="translate(-14, 3.5)">90</text><text x="0" y="199.79999999999998" transform="translate(-14, 3.5)">60</text><text x="0" y="266.40000000000003" transform="translate(-14, 3.5)">30</text><text x="0" y="333.0" transform="translate(-7, 3.5)">0</text></g></g><g><path stroke="#CCCCCC" stroke-dasharray="None" d="M0.0 0 v333.0 M135.0 0 v333.0 M270.0 0 v333.0 M405.0 0 v333.0 M540.0 0 v333.0" transform="translate(30.0, 47.0)"/><g font-size="12" font-family="Arial" fill="#444444" transform="translate(30.0, 65.0)"><text x="0.0" y="333.0" transform="translate(-2.0, 0)"> </text><text x="135.0" y="333.0" transform="translate(-24.0, 0)">US-East</text><text x="270.0" y="333.0" transform="translate(-25.5, 0)">EU-West</text><text x="405.0" y="333.0" transform="translate(-28.0, 0)">AP-South</text><text x="540.0" y="333.0" transform="translate(-2.0, 0)"> </text></g></g><g><path d="M165.0 368.9 L165.0 153.55999999999997" stroke="#5fab9e" stroke-width="1.5"/><path d="M132.6 368.9 L197.4 368.9" stroke="#5fab9e" stroke-width="1.5"/><path d="M132.6 153.55999999999997 L197.4 153.55999999999997" stroke="#5fab9e" stroke-width="1.5"/><rect x="111.0" y="282.764" width="108.0" height="-28.083000000000027" fill="#5fab9e" fill-opacity="0.3" stroke="#5fab9e" stroke-width="1.5"/><path d="M111.0 266.558 L219.0 266.558" stroke="#5fab9e" stroke-width="2"/><path d="M300.0 313.4 L300.0 91.39999999999998" stroke="#f58b51" stroke-width="1.5"/><path d="M267.6 313.4 L332.4 313.4" stroke="#f58b51" stroke-width="1.5"/><path d="M267.6 91.39999999999998 L332.4 91.39999999999998" stroke="#f58b51" stroke-width="1.5"/><rect x="246.0" y="243.359" width="108.0" height="-48.72900000000001" fill="#f58b51" fill-opacity="0.3" stroke="#f58b51" stroke-width="1.5"/><path d="M246.0 216.16400000000002 L354.0 216.16400000000002" stroke="#f58b51" stroke-width="2"/><path d="M435.0 362.24 L435.0 246.79999999999998" stroke="#f7dd72" stroke-width="1.5"/><path d="M402.6 362.24 L467.4 362.24" stroke="#f7dd72" stroke-width="1.5"/><path d="M402.6 246.79999999999998 L467.4 246.79999999999998" stroke="#f7dd72" stroke-width="1.5"/><rect x="381.0" y="322.94599999999997" width="108.0" height="-24.752999999999986" fill="#f7dd72" fill-opacity="0.3" stroke="#f7dd72" stroke-width="1.5"/><path d="M381.0 311.402 L489.0 311.402" stroke="#f7dd72" stroke-width="2"/></g><path d="M30.0 47.0 v333.0 M30.0 380.0 h540.0" stroke="#999" stroke-width="1.5" fill="none"/></svg>