<svg xmlns="http://www.w3.org/2000/svg" width="500" height="500" viewBox="0 0 500 500"><path fill="#FFFFFF" d="M0 0 h500 v500 h-500 v-500Z"/><text transform="translate(-60.0, 18)" fill="#444444" font-family="Arial" font-weight="bold" font-size="16" x="250.0" y="12.5">Sales by Region</text><defs><clipPath id="plot-clip"><rect x="0" y="0" width="450.0" height="423.0"/></clipPath></defs><g><path stroke="#cccccc" stroke-dasharray="None" d="M0 0.0 h450.0 M0 84.60000000000001 h450.0 M0 169.20000000000002 h450.0 M0 253.79999999999998 h450.0 M0 338.40000000000003 h450.0 M0 423.0 h450.0" transform="translate(25.0, 52.0)"/><g font-size="12" font-family="Arial" fill="#000000" transform="translate(19.0, 52.0)"><text x="0" y="0.0" transform="translate(-14, 3.5)">30</text><text x="0" y="84.60000000000001" transform="translate(-14, 3.5)">24</text><text x="0" y="169.20000000000002" transform="translate(-14, 3.5)">18</text><text x="0" y="253.79999999999998" transform="translate(-14, 3.5)">12</text><text x="0" y="338.40000000000003" transform="translate(-7, 3.5)">6</text><text x="0" y="423.0" transform="translate(-7, 3.5)">0</text></g></g><g><path stroke="#cccccc" stroke-dasharray="None" d="M450.0 0 v423.0 M360.0 0 v423.0 M270.0 0 v423.0 M180.0 0 v423.0 M90.0 0 v423.0 M0.0 0 v423.0" transform="translate(25.0, 52.0)"/><g font-size="12" font-family="Arial" fill="#000000" transform="translate(25.0, 70.0)"><text x="450.0" y="423.0" transform="translate(-3.5, 0)">5</text><text x="360.0" y="423.0" transform="translate(-3.5, 0)">4</text><text x="270.0" y="423.0" transform="translate(-3.5, 0)">3</text><text x="180.0" y="423.0" transform="translate(-3.5, 0)">2</text><text x="90.0" y="423.0" transform="translate(-3.5, 0)">1</text><text x="0.0" y="423.0" transform="translate(-3.5, 0)">0</text></g></g><g><g opacity="0.8" transform="translate(-25.0, -25.0) rotate(180, 250.0, 250.0) scale(-1, 1) translate(-450.0, 0)" clip-path="url(#plot-clip)"><g fill="#5fab9e"><circle cx="90.0" cy="141.0" r="4.0"/><circle cx="180.0" cy="352.5" r="16.5"/><circle cx="270.0" cy="211.5" r="7.5"/><circle cx="360.0" cy="423.0" r="24.0"/><circle cx="450.0" cy="282.0" r="10.5"/></g></g></g><path d="M25.0 52.0 v423.0 M25.0 475.0 h450.0" stroke="#999" stroke-width="1.5" fill="none"/></svg>