<svg xmlns="http://www.w3.org/2000/svg" width="720" height="460" viewBox="0 0 720 460"><path fill="#FFFFFF" d="M0 0 h720 v460 h-720 v-460Z"/><text transform="translate(-130.0, 18)" fill="#444444" font-family="Arial" font-weight="bold" font-size="16" x="360.0" y="11.5">GDP per Capita vs Life Expectancy</text><defs><clipPath id="plot-clip"><rect x="0" y="0" width="466.0" height="369.0"/></clipPath></defs><g><path stroke="#cccccc" stroke-dasharray="None" d="M0 0.0 h466.0 M0 73.8 h466.0 M0 147.6 h466.0 M0 221.4 h466.0 M0 295.2 h466.0 M0 369.0 h466.0" transform="translate(52.0, 50.0)"/><g font-size="12" font-family="Arial" fill="#000000" transform="translate(46.0, 50.0)"><text x="0" y="0.0" transform="translate(-14, 3.5)">95</text><text x="0" y="73.8" transform="translate(-14, 3.5)">76</text><text x="0" y="147.6" transform="translate(-14, 3.5)">57</text><text x="0" y="221.4" transform="translate(-14, 3.5)">38</text><text x="0" y="295.2" transform="translate(-14, 3.5)">19</text><text x="0" y="369.0" transform="translate(-7, 3.5)">0</text></g></g><g><path stroke="#cccccc" stroke-dasharray="None" d="M466.0 0 v369.0 M372.8 0 v369.0 M279.59999999999997 0 v369.0 M186.4 0 v369.0 M93.2 0 v369.0 M0.0 0 v369.0" transform="translate(52.0, 50.0)"/><g font-size="12" font-family="Arial" fill="#000000" transform="translate(52.0, 68.0)"><text x="466.0" y="369.0" transform="translate(-7.0, 0)">80</text><text x="372.8" y="369.0" transform="translate(-7.0, 0)">64</text><text x="279.59999999999997" y="369.0" transform="translate(-7.0, 0)">48</text><text x="186.4" y="369.0" transform="translate(-7.0, 0)">32</text><text x="93.2" y="369.0" transform="translate(-7.0, 0)">16</text><text x="0.0" y="369.0" transform="translate(-3.5, 0)">0</text></g></g><g><g opacity="0.8" transform="translate(-36.0, -41.0) rotate(180, 360.0, 230.0) scale(-1, 1) translate(-466.0, 0)" clip-path="url(#plot-clip)"><g fill="#5fab9e"><circle cx="18.64" cy="225.2842105263158" r="4.0" fill="#cfe5e1"/><circle cx="49.512499999999996" cy="248.58947368421053" r="7.51063829787234" fill="#add3cc"/><circle cx="70.4825" cy="260.2421052631579" r="12.297872340425531" fill="#9dcbc3"/><circle cx="124.65499999999999" cy="275.77894736842103" r="5.914893617021276" fill="#8dc3ba"/><circle cx="203.875" cy="287.4315789473684" r="17.617021276595743" fill="#7ebbb0"/><circle cx="280.76500000000004" cy="302.9684210526316" r="8.574468085106382" fill="#73b5aa"/><circle cx="364.0625" cy="314.62105263157895" r="24.0" fill="#66afa2"/><circle cx="413.575" cy="322.38947368421054" r="10.170212765957448"/></g></g><g><text x="534.0" y="69.0" fill="#444444" font-size="11" font-family="Arial" text-anchor="start">Population (M)</text><circle cx="558.0" cy="101.0" r="24.0" fill="#5fab9e" opacity="0.8"/><text x="594.0" y="101.0" fill="#444444" font-size="11" font-family="Arial" text-anchor="start" dominant-baseline="central">200</text><circle cx="558.0" cy="145.0" r="14.0" fill="#5fab9e" opacity="0.8"/><text x="594.0" y="145.0" fill="#444444" font-size="11" font-family="Arial" text-anchor="start" dominant-baseline="central">106</text><circle cx="558.0" cy="169.0" r="4.0" fill="#5fab9e" opacity="0.8"/><text x="594.0" y="169.0" fill="#444444" font-size="11" font-family="Arial" text-anchor="start" dominant-baseline="central">12</text><text x="534.0" y="206.0" fill="#444444" font-size="11" font-family="Arial" text-anchor="start">Literacy %</text><path fill="#5fab9e" d="M534.0 217.3 h14 v2.9 h-14 v-2.9Z"/><path fill="#61ac9f" d="M534.0 219.2 h14 v2.9 h-14 v-2.9Z"/><path fill="#63ada0" d="M534.0 221.1 h14 v2.9 h-14 v-2.9Z"/><path fill="#66aea2" d="M534.0 222.9 h14 v2.9 h-14 v-2.9Z"/><path fill="#68afa3" d="M534.0 224.8 h14 v2.9 h-14 v-2.9Z"/><path fill="#6ab1a5" d="M534.0 226.7 h14 v2.9 h-14 v-2.9Z"/><path fill="#6db2a6" d="M534.0 228.6 h14 v2.9 h-14 v-2.9Z"/><path fill="#6fb3a7" d="M534.0 230.4 h14 v2.9 h-14 v-2.9Z"/><path fill="#72b4a9" d="M534.0 232.3 h14 v2.9 h-14 v-2.9Z"/><path fill="#74b6aa" d="M534.0 234.2 h14 v2.9 h-14 v-2.9Z"/><path fill="#76b7ac" d="M534.0 236.1 h14 v2.9 h-14 v-2.9Z"/><path fill="#79b8ad" d="M534.0 237.9 h14 v2.9 h-14 v-2.9Z"/><path fill="#7bb9af" d="M534.0 239.8 h14 v2.9 h-14 v-2.9Z"/><path fill="#7dbbb0" d="M534.0 241.7 h14 v2.9 h-14 v-2.9Z"/><path fill="#80bcb1" d="M534.0 243.6 h14 v2.9 h-14 v-2.9Z"/><path fill="#82bdb3" d="M534.0 245.4 h14 v2.9 h-14 v-2.9Z"/><path fill="#85beb4" d="M534.0 247.3 h14 v2.9 h-14 v-2.9Z"/><path fill="#87bfb6" d="M534.0 249.2 h14 v2.9 h-14 v-2.9Z"/><path fill="#89c1b7" d="M534.0 251.1 h14 v2.9 h-14 v-2.9Z"/><path fill="#8cc2b9" d="M534.0 252.9 h14 v2.9 h-14 v-2.9Z"/><path fill="#8ec3ba" d="M534.0 254.8 h14 v2.9 h-14 v-2.9Z"/><path fill="#91c4bb" d="M534.0 256.7 h14 v2.9 h-14 v-2.9Z"/><path fill="#93c6bd" d="M534.0 258.6 h14 v2.9 h-14 v-2.9Z"/><path fill="#95c7be" d="M534.0 260.4 h14 v2.9 h-14 v-2.9Z"/><path fill="#98c8c0" d="M534.0 262.3 h14 v2.9 h-14 v-2.9Z"/><path fill="#9ac9c1" d="M534.0 264.2 h14 v2.9 h-14 v-2.9Z"/><path fill="#9ccbc3" d="M534.0 266.1 h14 v2.9 h-14 v-2.9Z"/><path fill="#9fccc4" d="M534.0 267.9 h14 v2.9 h-14 v-2.9Z"/><path fill="#a1cdc5" d="M534.0 269.8 h14 v2.9 h-14 v-2.9Z"/><path fill="#a4cec7" d="M534.0 271.7 h14 v2.9 h-14 v-2.9Z"/><path fill="#a6d0c8" d="M534.0 273.6 h14 v2.9 h-14 v-2.9Z"/><path fill="#a8d1ca" d="M534.0 275.4 h14 v2.9 h-14 v-2.9Z"/><path fill="#abd2cb" d="M534.0 277.3 h14 v2.9 h-14 v-2.9Z"/><path fill="#add3cd" d="M534.0 279.2 h14 v2.9 h-14 v-2.9Z"/><path fill="#b0d4ce" d="M534.0 281.1 h14 v2.9 h-14 v-2.9Z"/><path fill="#b2d6cf" d="M534.0 282.9 h14 v2.9 h-14 v-2.9Z"/><path fill="#b4d7d1" d="M534.0 284.8 h14 v2.9 h-14 v-2.9Z"/><path fill="#b7d8d2" d="M534.0 286.7 h14 v2.9 h-14 v-2.9Z"/><path fill="#b9d9d4" d="M534.0 288.6 h14 v2.9 h-14 v-2.9Z"/><path fill="#bbdbd5" d="M534.0 290.4 h14 v2.9 h-14 v-2.9Z"/><path fill="#bedcd7" d="M534.0 292.3 h14 v2.9 h-14 v-2.9Z"/><path fill="#c0ddd8" d="M534.0 294.2 h14 v2.9 h-14 v-2.9Z"/><path fill="#c3ded9" d="M534.0 296.1 h14 v2.9 h-14 v-2.9Z"/><path fill="#c5e0db" d="M534.0 297.9 h14 v2.9 h-14 v-2.9Z"/><path fill="#c7e1dc" d="M534.0 299.8 h14 v2.9 h-14 v-2.9Z"/><path fill="#cae2de" d="M534.0 301.7 h14 v2.9 h-14 v-2.9Z"/><path fill="#cce3df" d="M534.0 303.6 h14 v2.9 h-14 v-2.9Z"/><path fill="#cfe5e1" d="M534.0 305.4 h14 v2.9 h-14 v-2.9Z"/><path fill="none" stroke="#444444" stroke-width="0.75" d="M534.0 217.3 h14 v90 h-14 v-90Z"/><text x="553.0" y="217.3" fill="#444444" font-size="11" font-family="Arial" text-anchor="start" dominant-baseline="central">98</text><text x="553.0" y="307.3" fill="#444444" font-size="11" font-family="Arial" text-anchor="start" dominant-baseline="central">55</text></g></g><path d="M52.0 50.0 v369.0 M52.0 419.0 h466.0" stroke="#999" stroke-width="1.5" fill="none"/><text x="285.0" y="458" fill="#323232" font-size="14" font-family="Arial" text-anchor="middle">GDP per capita ($K)</text><text x="14" y="234.5" fill="#323232" font-size="14" font-family="Arial" text-anchor="middle" transform="rotate(-90, 14, 234.5)">Life expectancy (years)</text></svg>