<svg xmlns="http://www.w3.org/2000/svg" width="500" height="500" viewBox="0 0 500 500"><path fill="white" d="M0 0 h500 v500 h-500 v-500Z"/><g><path stroke="#CCCCCC" stroke-dasharray="None" d="M0 0.0 h433.0 M0 150.0 h433.0 M0 300.0 h433.0 M0 450.0 h433.0 M0 450.0 h433.0" transform="translate(42.0, 25.0)"/><g font-size="12" font-family="Helvetica" transform="translate(36.0, 25.0)"><text x="0" y="0.0" transform="translate(-7, -7.0)">3</text><text x="0" y="150.0" transform="translate(-7, -7.0)">2</text><text x="0" y="300.0" transform="translate(-7, -7.0)">1</text><text x="0" y="450.0" transform="translate(-7, -7.0)">0</text></g></g><g><path stroke="#CCCCCC" stroke-dasharray="None" d="M0.0 0 v450.0 M108.25 0 v450.0 M216.5 0 v450.0 M324.75 0 v450.0 M433.0 0 v450.0" transform="translate(42.0, 25.0)"/><g font-size="12" font-family="Helvetica" transform="translate(42.0, 43.0)"><text x="0.0" y="450.0" transform="translate(-1.5, 0)"> </text><text x="108.25" y="450.0" transform="translate(-3.5, 0)">a</text><text x="216.5" y="450.0" transform="translate(-3.5, 0)">b</text><text x="324.75" y="450.0" transform="translate(-3.0, 0)">c</text><text x="433.0" y="450.0" transform="translate(-1.5, 0)"> </text></g></g><g opacity="0.8" transform="translate(-25.0, -25.0) rotate(180, 250.0, 250.0) scale(-1, 1) translate(-433.0, 0) translate(-43.3, 0)"><path d="M108.25 0.0 h86.6 v150.0 h-86.6 v-150.0Z M216.5 0.0 h86.6 v300.0 h-86.6 v-300.0Z M324.75 0.0 h86.6 v450.0 h-86.6 v-450.0Z" fill="#5fab9e"/></g></svg>