<svg xmlns="http://www.w3.org/2000/svg" width="700" height="500" viewBox="0 0 700 500"><path fill="white" d="M0 0 h700 v500 h-700 v-500Z"/><text transform="translate(-159.5, 19)" fill="#444444" font-family="Helvetica" font-weight="bold" font-size="16" x="350.0" y="30.0">Year-over-Year Growth Rate (%) by Segment</text><g><path stroke="#CCCCCC" stroke-dasharray="None" d="M0 0.0 h532.0 M0 27.03846153846154 h532.0 M0 54.07692307692308 h532.0 M0 81.11538461538461 h532.0 M0 108.15384615384616 h532.0 M0 135.1923076923077 h532.0 M0 162.23076923076923 h532.0 M0 189.26923076923077 h532.0 M0 216.30769230769232 h532.0 M0 243.34615384615384 h532.0 M0 270.3846153846154 h532.0 M0 297.4230769230769 h532.0 M0 324.46153846153845 h532.0 M0 351.5 h532.0" transform="translate(98.0, 88.5)"/><g font-size="12" font-family="Helvetica" transform="translate(92.0, 88.5)"><text x="0" y="0.0" transform="translate(-14, 3.5)">40</text><text x="0" y="27.03846153846154" transform="translate(-14, 3.5)">35</text><text x="0" y="54.07692307692308" transform="translate(-14, 3.5)">30</text><text x="0" y="81.11538461538461" transform="translate(-14, 3.5)">25</text><text x="0" y="108.15384615384616" transform="translate(-14, 3.5)">20</text><text x="0" y="135.1923076923077" transform="translate(-14, 3.5)">15</text><text x="0" y="162.23076923076923" transform="translate(-14, 3.5)">10</text><text x="0" y="189.26923076923077" transform="translate(-7, 3.5)">5</text><text x="0" y="216.30769230769232" transform="translate(-7, 3.5)">0</text><text x="0" y="243.34615384615384" transform="translate(-11, 3.5)">-5</text><text x="0" y="270.3846153846154" transform="translate(-18, 3.5)">-10</text><text x="0" y="297.4230769230769" transform="translate(-18, 3.5)">-15</text><text x="0" y="324.46153846153845" transform="translate(-18, 3.5)">-20</text><text x="0" y="351.5" transform="translate(-18, 3.5)">-25</text></g></g><g><path stroke="#CCCCCC" stroke-dasharray="None" d="M0.0 0 v351.5 M76.0 0 v351.5 M152.0 0 v351.5 M228.0 0 v351.5 M304.0 0 v351.5 M380.0 0 v351.5 M456.0 0 v351.5 M532.0 0 v351.5" transform="translate(98.0, 88.5)"/><g font-size="12" font-family="Helvetica" transform="translate(98.0, 106.5)"><text x="0.0" y="351.5" transform="translate(-1.5, 0)"> </text><text x="76.0" y="351.5" transform="translate(-8.0, 0)">Q1</text><text x="152.0" y="351.5" transform="translate(-8.0, 0)">Q2</text><text x="228.0" y="351.5" transform="translate(-8.0, 0)">Q3</text><text x="304.0" y="351.5" transform="translate(-8.0, 0)">Q4</text><text x="380.0" y="351.5" transform="translate(-8.0, 0)">Q5</text><text x="456.0" y="351.5" transform="translate(-8.0, 0)">Q6</text><text x="532.0" y="351.5" transform="translate(-1.5, 0)"> </text></g></g><path transform="translate(98.0, 88.5)" d="M0 216.3076923076923 h532.0z" stroke="black"/><g opacity="0.8" transform="translate(-70.0, -60.0) rotate(180, 350.0, 250.0) scale(-1, 1) translate(-532.0, 0) translate(0.0, 270.3846153846154)"><path d="M28.0 135.1923076923077 h18.666666666666668 v64.89230769230767 h-18.666666666666668 v-64.89230769230767Z M112.0 91.93076923076923 h18.666666666666668 v43.26153846153848 h-18.666666666666668 v-43.26153846153848Z M196.0 135.1923076923077 h18.666666666666668 v118.96923076923076 h-18.666666666666668 v-118.96923076923076Z M280.0 135.1923076923077 h18.666666666666668 v97.33846153846153 h-18.666666666666668 v-97.33846153846153Z M364.0 108.15384615384616 h18.666666666666668 v27.038461538461547 h-18.666666666666668 v-27.038461538461547Z M448.0 135.1923076923077 h18.666666666666668 v162.2307692307692 h-18.666666666666668 v-162.2307692307692Z" fill="#5fab9e"/><path d="M46.66666666666667 118.96923076923078 h18.666666666666668 v16.22307692307693 h-18.666666666666668 v-16.22307692307693Z M130.66666666666666 54.07692307692308 h18.666666666666668 v37.85384615384615 h-18.666666666666668 v-37.85384615384615Z M214.66666666666666 162.23076923076923 h18.666666666666668 v91.93076923076924 h-18.666666666666668 v-91.93076923076924Z M298.6666666666667 124.37692307692308 h18.666666666666668 v10.81538461538463 h-18.666666666666668 v-10.81538461538463Z M382.6666666666667 27.03846153846154 h18.666666666666668 v81.11538461538461 h-18.666666666666668 v-81.11538461538461Z M466.6666666666667 178.45384615384614 h18.666666666666668 v118.96923076923076 h-18.666666666666668 v-118.96923076923076Z" fill="#f58b51"/><path d="M65.33333333333334 183.86153846153846 h18.666666666666668 v16.223076923076917 h-18.666666666666668 v-16.223076923076917Z M149.33333333333334 10.815384615384616 h18.666666666666668 v0.0 h-18.666666666666668 v-0.0Z M233.33333333333334 227.12307692307692 h18.666666666666668 v54.076923076923066 h-18.666666666666668 v-54.076923076923066Z M317.3333333333333 221.7153846153846 h18.666666666666668 v10.81538461538463 h-18.666666666666668 v-10.81538461538463Z M401.3333333333333 0.0 h18.666666666666668 v0.0 h-18.666666666666668 v-0.0Z M485.3333333333333 340.68461538461537 h18.666666666666668 v0.0 h-18.666666666666668 v-0.0Z" fill="#f7dd72"/></g></svg>