<svg xmlns="http://www.w3.org/2000/svg" width="500" height="500" viewBox="0 0 500 500"><path fill="white" d="M0 0 h500 v500 h-500 v-500Z"/><text transform="translate(-85.5, 4.75)" font-family="Helvetica" font-weight="bold" font-size="16" x="250.0" y="25.0">Example Column Graph</text><g><path d="M0 0.0 h400.0 M0 66.66666666666666 h400.0 M0 133.33333333333331 h400.0 M0 199.99999999999997 h400.0 M0 266.66666666666663 h400.0 M0 333.33333333333326 h400.0 M0 399.99999999999994 h400.0" stroke="#CCCCCC" transform="translate(50.0, 50.0)"/><g font-size="12" font-family="Helvetica" transform="translate(44.0, 50.0)"><text x="0" y="0.0" transform="translate(-21, 3.5)">450</text><text x="0" y="66.66666666666666" transform="translate(-21, 3.5)">375</text><text x="0" y="133.33333333333331" transform="translate(-21, 3.5)">300</text><text x="0" y="199.99999999999997" transform="translate(-21, 3.5)">225</text><text x="0" y="266.66666666666663" transform="translate(-21, 3.5)">150</text><text x="0" y="333.33333333333326" transform="translate(-14, 3.5)">75</text><text x="0" y="399.99999999999994" transform="translate(-7, 3.5)">0</text></g></g><g><path d="M400.0 0 v400.0 M342.85714285714283 0 v400.0 M285.71428571428567 0 v400.0 M228.57142857142856 0 v400.0 M171.42857142857142 0 v400.0 M114.28571428571428 0 v400.0 M57.14285714285714 0 v400.0 M0.0 0 v400.0" stroke="#CCCCCC" transform="translate(50.0, 50.0)"/><g font-size="12" font-family="Helvetica" transform="translate(50.0, 68.0)"><text x="400.0" y="400.0" transform="translate(-1.5, 0)"> </text><text x="342.85714285714283" y="400.0" transform="translate(-18.5, 0)">mouse</text><text x="285.71428571428567" y="400.0" transform="translate(-8.0, 0)">cat</text><text x="228.57142857142856" y="400.0" transform="translate(-10.5, 0)">dog</text><text x="171.42857142857142" y="400.0" transform="translate(-17.5, 0)">foobar</text><text x="114.28571428571428" y="400.0" transform="translate(-9.0, 0)">bar</text><text x="57.14285714285714" y="400.0" transform="translate(-8.5, 0)">foo</text><text x="0.0" y="400.0" transform="translate(-1.5, 0)"> </text></g></g><path transform="translate(50.0, 50.0)" d="M0 400.0 h400.0z M0.0 0 v400.0z" stroke="black"/><g opacity="0.8" transform="translate(-50.0, -50.0) rotate(180, 250.0, 250.0) scale(-1, 1) translate(-400.0, 0.0) translate(-21.05263157894737, 0)"><path d="M57.14285714285714 0.0 h42.10526315789474 v44.44444444444444 h-42.10526315789474 v-44.44444444444444Z M114.28571428571428 0.0 h42.10526315789474 v88.88888888888889 h-42.10526315789474 v-88.88888888888889Z M171.42857142857142 0.0 h42.10526315789474 v133.33333333333331 h-42.10526315789474 v-133.33333333333331Z M228.57142857142856 0.0 h42.10526315789474 v177.77777777777777 h-42.10526315789474 v-177.77777777777777Z M285.71428571428567 0.0 h42.10526315789474 v222.22222222222223 h-42.10526315789474 v-222.22222222222223Z M342.8571428571429 0.0 h42.10526315789474 v266.66666666666663 h-42.10526315789474 v-266.66666666666663Z" fill="#5fab9e"/><path d="M57.14285714285714 44.44444444444444 h42.10526315789474 v22.22222222222222 h-42.10526315789474 v-22.22222222222222Z M114.28571428571428 88.88888888888889 h42.10526315789474 v44.44444444444444 h-42.10526315789474 v-44.44444444444444Z M171.42857142857142 133.33333333333331 h42.10526315789474 v66.66666666666666 h-42.10526315789474 v-66.66666666666666Z M228.57142857142856 177.77777777777777 h42.10526315789474 v88.88888888888889 h-42.10526315789474 v-88.88888888888889Z M285.71428571428567 222.22222222222223 h42.10526315789474 v111.11111111111111 h-42.10526315789474 v-111.11111111111111Z M342.8571428571429 266.66666666666663 h42.10526315789474 v133.33333333333331 h-42.10526315789474 v-133.33333333333331Z" fill="#f58b51"/></g></svg>