<svg xmlns="http://www.w3.org/2000/svg" width="600" height="400" viewBox="0 0 600 400"><path fill="white" d="M0 0 h600 v400 h-600 v-400Z"/><text transform="translate(-85.5, 19)" fill="#444444" font-family="Helvetica" font-weight="bold" font-size="16" x="300.0" y="20.0">Example Column Graph</text><g><path stroke="#CCCCCC" stroke-dasharray="None" d="M0 20.369739057302866 h452.0 M0 61.1092171719086 h452.0 M0 101.84869528651433 h452.0 M0 142.58817340112006 h452.0 M0 183.3276515157258 h452.0 M0 224.06712963033152 h452.0 M0 264.80660774493725 h452.0 M0 264.80660774493725 h452.0" transform="translate(88.0, 68.5)"/><g font-size="12" font-family="Helvetica" transform="translate(82.0, 68.5)"><text x="0" y="20.369739057302866" transform="translate(-14, 3.5)">80</text><text x="0" y="61.1092171719086" transform="translate(-14, 3.5)">60</text><text x="0" y="101.84869528651433" transform="translate(-14, 3.5)">40</text><text x="0" y="142.58817340112006" transform="translate(-14, 3.5)">20</text><text x="0" y="183.3276515157258" transform="translate(-7, 3.5)">0</text><text x="0" y="224.06712963033152" transform="translate(-18, 3.5)">-20</text><text x="0" y="264.80660774493725" transform="translate(-18, 3.5)">-40</text></g></g><g><path stroke="#CCCCCC" stroke-dasharray="None" d="M452.0 0 v264.80660774493725 M0.0 0 v264.80660774493725 M56.5 0 v264.80660774493725 M113.0 0 v264.80660774493725 M169.5 0 v264.80660774493725 M226.0 0 v264.80660774493725 M282.5 0 v264.80660774493725 M339.0 0 v264.80660774493725 M395.5 0 v264.80660774493725 M452.0 0 v264.80660774493725" transform="translate(88.0, 68.5)"/><g font-size="12" font-family="Helvetica" transform="translate(88.0, 86.5)"><text x="452.0" y="264.80660774493725" transform="translate(-3.0, 0) rotate(33.00847669754037, 452.0, 264.80660774493725)"> </text><text x="0.0" y="264.80660774493725" transform="translate(-3.0, 0) rotate(33.00847669754037, 0.0, 264.80660774493725)"> </text><text x="56.5" y="264.80660774493725" transform="translate(-6.285714285714286, 0) rotate(33.00847669754037, 56.5, 264.80660774493725)">January</text><text x="113.0" y="264.80660774493725" transform="translate(-6.125, 0) rotate(33.00847669754037, 113.0, 264.80660774493725)">February</text><text x="169.5" y="264.80660774493725" transform="translate(-6.8, 0) rotate(33.00847669754037, 169.5, 264.80660774493725)">March</text><text x="226.0" y="264.80660774493725" transform="translate(-5.0, 0) rotate(33.00847669754037, 226.0, 264.80660774493725)">April</text><text x="282.5" y="264.80660774493725" transform="translate(-7.666666666666667, 0) rotate(33.00847669754037, 282.5, 264.80660774493725)">May</text><text x="339.0" y="264.80660774493725" transform="translate(-6.75, 0) rotate(33.00847669754037, 339.0, 264.80660774493725)">June</text><text x="395.5" y="264.80660774493725" transform="translate(-5.5, 0) rotate(33.00847669754037, 395.5, 264.80660774493725)">July</text><text x="452.0" y="264.80660774493725" transform="translate(-3.0, 0) rotate(33.00847669754037, 452.0, 264.80660774493725)"> </text></g></g><path transform="translate(88.0, 68.5)" d="M0 162.95791245842292 h452.0z" stroke="black"/><g opacity="0.8" transform="translate(-60.0, -66.69339225506276) rotate(180, 300.0, 200.0) scale(-1, 1) translate(-452.0, 0.0) translate(-20.545454545454547, 101.84869528651433)"><path d="M56.5 0.0 h41.09090909090909 v19.96234427615681 h-41.09090909090909 v-19.96234427615681Z M113.0 0.0 h41.09090909090909 v-60.701822390762544 h-41.09090909090909 v60.701822390762544Z M169.5 0.0 h41.09090909090909 v46.035610269504474 h-41.09090909090909 v-46.035610269504474Z M226.0 0.0 h41.09090909090909 v91.6638257578629 h-41.09090909090909 v-91.6638257578629Z M282.5 0.0 h41.09090909090909 v68.84971801368367 h-41.09090909090909 v-68.84971801368367Z M339.0 0.0 h41.09090909090909 v72.10887626285215 h-41.09090909090909 v-72.10887626285215Z M395.5 0.0 h41.09090909090909 v90.03424663327867 h-41.09090909090909 v-90.03424663327867Z" fill="#5fab9e"/><path d="M56.5 19.96234427615681 h41.09090909090909 v18.12906776099955 h-41.09090909090909 v-18.12906776099955Z M113.0 0.0 h41.09090909090909 v67.42383627967249 h-41.09090909090909 v-67.42383627967249Z M169.5 0.0 h41.09090909090909 v-55.20199284529077 h-41.09090909090909 v55.20199284529077Z M226.0 91.6638257578629 h41.09090909090909 v63.55358585878494 h-41.09090909090909 v-63.55358585878494Z M282.5 0.0 h41.09090909090909 v-31.369398148246415 h-41.09090909090909 v31.369398148246415Z M339.0 72.10887626285215 h41.09090909090909 v66.40534932680735 h-41.09090909090909 v-66.40534932680735Z M395.5 90.03424663327867 h41.09090909090909 v40.33208333345967 h-41.09090909090909 v-40.33208333345967Z" fill="#f58b51"/><path d="M56.5 0.0 h41.09090909090909 v-65.18316498336917 h-41.09090909090909 v65.18316498336917Z M113.0 67.42383627967249 h41.09090909090909 v65.79425715508825 h-41.09090909090909 v-65.79425715508825Z M169.5 46.035610269504474 h41.09090909090909 v93.08970749187411 h-41.09090909090909 v-93.08970749187411Z M226.0 0.0 h41.09090909090909 v-6.722013888909945 h-41.09090909090909 v6.722013888909945Z M282.5 -31.369398148246415 h41.09090909090909 v-67.83123106081854 h-41.09090909090909 v67.83123106081854Z M339.0 0.0 h41.09090909090909 v-31.980490319965497 h-41.09090909090909 v31.980490319965497Z M395.5 0.0 h41.09090909090909 v-78.62719276118906 h-41.09090909090909 v78.62719276118906Z" fill="#f7dd72"/></g></svg>