<svg xmlns="http://www.w3.org/2000/svg" width="600" height="400" viewBox="0 0 600 400"><path fill="#FFFFFF" d="M0 0 h600 v400 h-600 v-400Z"/><text transform="translate(-149.5, 18)" fill="#444444" font-family="Arial" font-weight="normal" font-size="16" x="300.0" y="10.0">Quarterly Revenue by Product Line ($M)</text><defs><clipPath id="plot-clip"><rect x="0" y="0" width="524.0" height="333.0"/></clipPath></defs><g><path stroke="#CCCCCC" stroke-dasharray="None" d="M0 0.0 h524.0 M0 66.60000000000001 h524.0 M0 133.20000000000002 h524.0 M0 199.79999999999998 h524.0 M0 266.40000000000003 h524.0 M0 333.0 h524.0" transform="translate(46.0, 47.0)"/><g font-size="12" font-family="Arial" fill="#444444" transform="translate(40.0, 47.0)"><text x="0" y="0.0" transform="translate(-14, 3.5)">60</text><text x="0" y="66.60000000000001" transform="translate(-14, 3.5)">48</text><text x="0" y="133.20000000000002" transform="translate(-14, 3.5)">36</text><text x="0" y="199.79999999999998" transform="translate(-14, 3.5)">24</text><text x="0" y="266.40000000000003" transform="translate(-14, 3.5)">12</text><text x="0" y="333.0" transform="translate(-7, 3.5)">0</text></g></g><g><path stroke="#CCCCCC" stroke-dasharray="None" d="M0.0 0 v333.0 M104.80000000000001 0 v333.0 M209.60000000000002 0 v333.0 M314.4 0 v333.0 M419.20000000000005 0 v333.0 M524.0 0 v333.0" transform="translate(46.0, 47.0)"/><g font-size="12" font-family="Arial" fill="#444444" transform="translate(46.0, 65.0)"><text x="0.0" y="333.0" transform="translate(-2.0, 0)"> </text><text x="104.80000000000001" y="333.0" transform="translate(-8.5, 0)">Q1</text><text x="209.60000000000002" y="333.0" transform="translate(-8.5, 0)">Q2</text><text x="314.4" y="333.0" transform="translate(-8.5, 0)">Q3</text><text x="419.20000000000005" y="333.0" transform="translate(-8.5, 0)">Q4</text><text x="524.0" y="333.0" transform="translate(-2.0, 0)"> </text></g></g><g opacity="0.8" transform="translate(-30.0, -20.0) rotate(180, 300.0, 200.0) scale(-1, 1) translate(-524.0, 0) translate(-40.30769230769231, 0)"><path d="M104.8 0.0 h80.6 v66.6 h-80.6 v-66.6Z M209.6 0.0 h80.6 v99.9 h-80.6 v-99.9Z M314.4 0.0 h80.6 v122.1 h-80.6 v-122.1Z M419.2 0.0 h80.6 v155.4 h-80.6 v-155.4Z" fill="#5fab9e"/><path d="M104.8 66.6 h80.6 v44.4 h-80.6 v-44.4Z M209.6 99.9 h80.6 v55.5 h-80.6 v-55.5Z M314.4 122.1 h80.6 v83.2 h-80.6 v-83.2Z M419.2 155.4 h80.6 v105.4 h-80.6 v-105.4Z" fill="#f58b51"/><path d="M104.8 111.0 h80.6 v27.8 h-80.6 v-27.8Z M209.6 155.4 h80.6 v38.9 h-80.6 v-38.9Z M314.4 205.4 h80.6 v33.3 h-80.6 v-33.3Z M419.2 260.9 h80.6 v61.0 h-80.6 v-61.0Z" fill="#f7dd72"/></g><g><rect transform="translate(-18.25, -10.5)" x="474.75" y="61.5" width="109.5" height="63.0" fill="#f5f5f5" stroke="#d7d7d7"/><g><rect y="64.5" x="474.75" width="12" height="12" fill="#5fab9e"/><text y="73.5" x="488.75" font-size="12" font-family="Arial" fill="#444444">SaaS</text></g><g><rect y="76.5" x="474.75" width="12" height="12" fill="#f58b51"/><text y="85.5" x="488.75" font-size="12" font-family="Arial" fill="#444444">Consulting</text></g><g><rect y="88.5" x="474.75" width="12" height="12" fill="#f7dd72"/><text y="97.5" x="488.75" font-size="12" font-family="Arial" fill="#444444">Hardware</text></g></g><path d="M46.0 47.0 v333.0 M46.0 380.0 h524.0" stroke="#999" stroke-width="1.5" fill="none"/><text x="14" y="213.5" fill="#444444" font-size="14" font-family="Arial" text-anchor="middle" transform="rotate(-90, 14, 213.5)">Revenue ($M)</text></svg>