<svg xmlns="http://www.w3.org/2000/svg" width="600" height="400" viewBox="0 0 600 400"><path fill="#FFFFFF" d="M0 0 h600 v400 h-600 v-400Z"/><text transform="translate(0, 16.0)" fill="#444444" font-family="Roboto" font-weight="normal" font-size="16" text-anchor="middle" x="308.0" y="10.0">Website Traffic by Source (K visits)</text><defs><clipPath id="plot-clip"><rect x="0" y="0" width="524.0" height="336.0"/></clipPath></defs><g><path stroke="#CCCCCC" stroke-dasharray="None" d="M0 0.0 h524.0 M0 67.2 h524.0 M0 134.4 h524.0 M0 201.6 h524.0 M0 268.8 h524.0 M0 336.0 h524.0" transform="translate(46.0, 44.0)"/><g font-size="12" font-family="Arial" fill="#444444" transform="translate(40.0, 44.0)"><text x="0" y="0.0" transform="translate(-21, 3.5)">400</text><text x="0" y="67.2" transform="translate(-21, 3.5)">320</text><text x="0" y="134.4" transform="translate(-21, 3.5)">240</text><text x="0" y="201.6" transform="translate(-21, 3.5)">160</text><text x="0" y="268.8" transform="translate(-14, 3.5)">80</text><text x="0" y="336.0" transform="translate(-7, 3.5)">0</text></g></g><g><path stroke="#CCCCCC" stroke-dasharray="None" d="M0.0 0 v336.0 M87.33333333333333 0 v336.0 M174.66666666666666 0 v336.0 M262.0 0 v336.0 M349.3333333333333 0 v336.0 M436.6666666666667 0 v336.0 M524.0 0 v336.0" transform="translate(46.0, 44.0)"/><g font-size="12" font-family="Arial" fill="#444444" transform="translate(46.0, 62.0)"><text x="0.0" y="336.0" transform="translate(-2.0, 0)"> </text><text x="87.33333333333333" y="336.0" transform="translate(-10.0, 0)">Jan</text><text x="174.66666666666666" y="336.0" transform="translate(-11.0, 0)">Feb</text><text x="262.0" y="336.0" transform="translate(-10.5, 0)">Mar</text><text x="349.3333333333333" y="336.0" transform="translate(-10.0, 0)">Apr</text><text x="436.6666666666667" y="336.0" transform="translate(-11.5, 0)">May</text><text x="524.0" y="336.0" transform="translate(-2.0, 0)"> </text></g></g><g opacity="0.8" transform="translate(-30.0, -20.0) rotate(180, 300.0, 200.0) scale(-1, 1) translate(-524.0, 0) translate(-32.75, 0)"><path d="M87.3 0.0 h65.5 v100.8 h-65.5 v-100.8Z M174.7 0.0 h65.5 v117.6 h-65.5 v-117.6Z M262.0 0.0 h65.5 v138.6 h-65.5 v-138.6Z M349.3 0.0 h65.5 v151.2 h-65.5 v-151.2Z M436.7 0.0 h65.5 v176.4 h-65.5 v-176.4Z" fill="#5fab9e"/><path d="M87.3 100.8 h65.5 v67.2 h-65.5 v-67.2Z M174.7 117.6 h65.5 v63.0 h-65.5 v-63.0Z M262.0 138.6 h65.5 v75.6 h-65.5 v-75.6Z M349.3 151.2 h65.5 v79.8 h-65.5 v-79.8Z M436.7 176.4 h65.5 v84.0 h-65.5 v-84.0Z" fill="#f58b51"/><path d="M87.3 168.0 h65.5 v33.6 h-65.5 v-33.6Z M174.7 180.6 h65.5 v46.2 h-65.5 v-46.2Z M262.0 214.2 h65.5 v50.4 h-65.5 v-50.4Z M349.3 231.0 h65.5 v58.8 h-65.5 v-58.8Z M436.7 260.4 h65.5 v71.4 h-65.5 v-71.4Z" fill="#f7dd72"/></g><g><rect transform="translate(-14.5, -10.5)" x="493.5" y="58.5" width="87.0" height="63.0" fill="#f5f5f5" stroke="#d7d7d7"/><g><rect y="61.5" x="493.5" width="12" height="12" fill="#5fab9e"/><text y="70.5" x="507.5" font-size="12" font-family="Roboto" fill="#444444">Organic</text></g><g><rect y="73.5" x="493.5" width="12" height="12" fill="#f58b51"/><text y="82.5" x="507.5" font-size="12" font-family="Roboto" fill="#444444">Paid</text></g><g><rect y="85.5" x="493.5" width="12" height="12" fill="#f7dd72"/><text y="94.5" x="507.5" font-size="12" font-family="Roboto" fill="#444444">Referral</text></g></g><path d="M46.0 44.0 v336.0 M46.0 380.0 h524.0" stroke="#999" stroke-width="1.5" fill="none"/><text x="14" y="212.0" fill="#444444" font-size="14" font-family="Roboto" text-anchor="middle" transform="rotate(-90, 14, 212.0)">Visits (K)</text></svg>