<svg xmlns="http://www.w3.org/2000/svg" width="600" height="400" viewBox="0 0 600 400"><path fill="#FFFFFF" d="M0 0 h600 v400 h-600 v-400Z"/><text transform="translate(-234.0, 30)" fill="#444444" font-family="JetBrains Mono" font-weight="normal" font-size="16" x="300.0" y="10.0">Website Traffic by Source (K visits)</text><defs><clipPath id="plot-clip"><rect x="0" y="0" width="524.0" height="315.0"/></clipPath></defs><g><path stroke="#CCCCCC" stroke-dasharray="None" d="M0 0.0 h524.0 M0 63.0 h524.0 M0 126.0 h524.0 M0 189.0 h524.0 M0 252.0 h524.0 M0 315.0 h524.0" transform="translate(46.0, 65.0)"/><g font-size="12" font-family="Arial" fill="#444444" transform="translate(40.0, 65.0)"><text x="0" y="0.0" transform="translate(-21, 3.5)">400</text><text x="0" y="63.0" transform="translate(-21, 3.5)">320</text><text x="0" y="126.0" transform="translate(-21, 3.5)">240</text><text x="0" y="189.0" transform="translate(-21, 3.5)">160</text><text x="0" y="252.0" transform="translate(-14, 3.5)">80</text><text x="0" y="315.0" transform="translate(-7, 3.5)">0</text></g></g><g><path stroke="#CCCCCC" stroke-dasharray="None" d="M0.0 0 v315.0 M87.33333333333333 0 v315.0 M174.66666666666666 0 v315.0 M262.0 0 v315.0 M349.3333333333333 0 v315.0 M436.6666666666667 0 v315.0 M524.0 0 v315.0" transform="translate(46.0, 65.0)"/><g font-size="12" font-family="Arial" fill="#444444" transform="translate(46.0, 83.0)"><text x="0.0" y="315.0" transform="translate(-2.0, 0)"> </text><text x="87.33333333333333" y="315.0" transform="translate(-10.0, 0)">Jan</text><text x="174.66666666666666" y="315.0" transform="translate(-11.0, 0)">Feb</text><text x="262.0" y="315.0" transform="translate(-10.5, 0)">Mar</text><text x="349.3333333333333" y="315.0" transform="translate(-10.0, 0)">Apr</text><text x="436.6666666666667" y="315.0" transform="translate(-11.5, 0)">May</text><text x="524.0" y="315.0" transform="translate(-2.0, 0)"> </text></g></g><g opacity="0.8" transform="translate(-30.0, -20.0) rotate(180, 300.0, 200.0) scale(-1, 1) translate(-524.0, 0) translate(-32.75, 0)"><path d="M87.3 0.0 h65.5 v94.5 h-65.5 v-94.5Z M174.7 0.0 h65.5 v110.2 h-65.5 v-110.2Z M262.0 0.0 h65.5 v129.9 h-65.5 v-129.9Z M349.3 0.0 h65.5 v141.8 h-65.5 v-141.8Z M436.7 0.0 h65.5 v165.4 h-65.5 v-165.4Z" fill="#5fab9e"/><path d="M87.3 94.5 h65.5 v63.0 h-65.5 v-63.0Z M174.7 110.2 h65.5 v59.1 h-65.5 v-59.1Z M262.0 129.9 h65.5 v70.9 h-65.5 v-70.9Z M349.3 141.8 h65.5 v74.8 h-65.5 v-74.8Z M436.7 165.4 h65.5 v78.8 h-65.5 v-78.8Z" fill="#f58b51"/><path d="M87.3 157.5 h65.5 v31.5 h-65.5 v-31.5Z M174.7 169.3 h65.5 v43.3 h-65.5 v-43.3Z M262.0 200.8 h65.5 v47.2 h-65.5 v-47.2Z M349.3 216.6 h65.5 v55.1 h-65.5 v-55.1Z M436.7 244.1 h65.5 v66.9 h-65.5 v-66.9Z" fill="#f7dd72"/></g><g><rect transform="translate(-14.5, -10.5)" x="493.5" y="79.5" width="87.0" height="63.0" fill="#f5f5f5" stroke="#d7d7d7"/><g><rect y="82.5" x="493.5" width="12" height="12" fill="#5fab9e"/><text y="91.5" x="507.5" font-size="12" font-family="JetBrains Mono" fill="#444444">Organic</text></g><g><rect y="94.5" x="493.5" width="12" height="12" fill="#f58b51"/><text y="103.5" x="507.5" font-size="12" font-family="JetBrains Mono" fill="#444444">Paid</text></g><g><rect y="106.5" x="493.5" width="12" height="12" fill="#f7dd72"/><text y="115.5" x="507.5" font-size="12" font-family="JetBrains Mono" fill="#444444">Referral</text></g></g><path d="M46.0 65.0 v315.0 M46.0 380.0 h524.0" stroke="#999" stroke-width="1.5" fill="none"/><text x="14" y="222.5" fill="#444444" font-size="14" font-family="JetBrains Mono" text-anchor="middle" transform="rotate(-90, 14, 222.5)">Visits (K)</text></svg>