<svg xmlns="http://www.w3.org/2000/svg" width="720" height="460" viewBox="0 0 720 460"><path fill="#FFFFFF" d="M0 0 h720 v460 h-720 v-460Z"/><text transform="translate(-115.5, 21)" fill="#000000" font-family="Arial" font-weight="bold" font-size="18" x="360.0" y="11.5">Defects Closed by Severity</text><defs><clipPath id="plot-clip"><rect x="0" y="0" width="648.0" height="350.5"/></clipPath><pattern id="chart-pattern-e7ad50-0" patternUnits="userSpaceOnUse" width="8.0" height="8.0"><path d="M0,8.0 L8.0,0 M-4.0,4.0 L4.0,-4.0 M4.0,12.0 L12.0,4.0" stroke="#c68900" stroke-width="1.2" fill="none"/></pattern><pattern id="chart-pattern-e7ad50-1" patternUnits="userSpaceOnUse" width="8.0" height="8.0"><path d="M0,4.0 L8.0,4.0" stroke="#4b9dcb" stroke-width="1.2"/></pattern><pattern id="chart-pattern-e7ad50-2" patternUnits="userSpaceOnUse" width="8.0" height="8.0"><path d="M4.0,0 L4.0,8.0" stroke="#009e73" stroke-width="1.2"/></pattern><pattern id="chart-pattern-e7ad50-3" patternUnits="userSpaceOnUse" width="8.0" height="8.0"><path d="M0,4.0 L8.0,4.0" stroke="#9e962c" stroke-width="1.2"/><path d="M4.0,0 L4.0,8.0" stroke="#9e962c" stroke-width="1.2"/></pattern><pattern id="chart-pattern-e7ad50-4" patternUnits="userSpaceOnUse" width="8.0" height="8.0"><circle cx="4.0" cy="4.0" r="1.44" fill="#0072b2"/></pattern><pattern id="chart-pattern-e7ad50-5" patternUnits="userSpaceOnUse" width="8.0" height="8.0"><path d="M0,0 L8.0,8.0 M-8.0,0 L0,8.0 M0,-8.0 L8.0,0" stroke="#d55e00" stroke-width="1.2" fill="none"/></pattern><pattern id="chart-pattern-e7ad50-6" patternUnits="userSpaceOnUse" width="8.0" height="8.0"><path d="M0,8.0 L8.0,0 M-4.0,4.0 L4.0,-4.0 M4.0,12.0 L12.0,4.0" stroke="#cc79a7" stroke-width="1.2" fill="none"/></pattern><pattern id="chart-pattern-e7ad50-7" patternUnits="userSpaceOnUse" width="8.0" height="8.0"><path d="M0,4.0 L8.0,4.0" stroke="#000000" stroke-width="1.2"/></pattern></defs><g><path stroke="#8a8a8a" stroke-dasharray="None" stroke-width="1.5" d="M0 0.0 h648.0 M0 70.10000000000001 h648.0 M0 140.20000000000002 h648.0 M0 210.29999999999998 h648.0 M0 280.40000000000003 h648.0 M0 350.5 h648.0" transform="translate(36.0, 54.5)"/><g font-size="14" font-family="Arial" fill="#000000" transform="translate(30.0, 54.5)" font-weight="bold"><text x="0" y="0.0" transform="translate(-14, 3.5)">45</text><text x="0" y="70.10000000000001" transform="translate(-14, 3.5)">36</text><text x="0" y="140.20000000000002" transform="translate(-14, 3.5)">27</text><text x="0" y="210.29999999999998" transform="translate(-14, 3.5)">18</text><text x="0" y="280.40000000000003" transform="translate(-7, 3.5)">9</text><text x="0" y="350.5" transform="translate(-7, 3.5)">0</text></g></g><g><path stroke="#8a8a8a" stroke-dasharray="None" stroke-width="1.5" d="M0.0 0 v350.5 M129.6 0 v350.5 M259.2 0 v350.5 M388.8 0 v350.5 M518.4 0 v350.5 M648.0 0 v350.5" transform="translate(36.0, 54.5)"/><g font-size="14" font-family="Arial" fill="#000000" transform="translate(36.0, 72.5)" font-weight="bold"><text x="0.0" y="350.5" transform="translate(-2.0, 0)"> </text><text x="129.6" y="350.5" transform="translate(-22.5, 0)">Sprint 1</text><text x="259.2" y="350.5" transform="translate(-22.5, 0)">Sprint 2</text><text x="388.8" y="350.5" transform="translate(-22.5, 0)">Sprint 3</text><text x="518.4" y="350.5" transform="translate(-22.5, 0)">Sprint 4</text><text x="648.0" y="350.5" transform="translate(-2.0, 0)"> </text></g></g><g opacity="0.8" transform="translate(-36.0, -55.0) rotate(180, 360.0, 230.0) scale(-1, 1) translate(-648.0, 0) translate(-49.84615384615385, 0)"><path d="M129.6 0.0 h99.7 v93.5 h-99.7 v-93.5Z M259.2 0.0 h99.7 v140.2 h-99.7 v-140.2Z M388.8 0.0 h99.7 v70.1 h-99.7 v-70.1Z M518.4 0.0 h99.7 v109.0 h-99.7 v-109.0Z" fill="url(#chart-pattern-e7ad50-0)" stroke="#000000" stroke-width="1.0"/><path d="M129.6 93.5 h99.7 v171.4 h-99.7 v-171.4Z M259.2 140.2 h99.7 v116.8 h-99.7 v-116.8Z M388.8 70.1 h99.7 v148.0 h-99.7 v-148.0Z M518.4 109.0 h99.7 v85.7 h-99.7 v-85.7Z" fill="url(#chart-pattern-e7ad50-1)" stroke="#000000" stroke-width="1.0"/><path d="M129.6 264.8 h99.7 v46.7 h-99.7 v-46.7Z M259.2 257.0 h99.7 v70.1 h-99.7 v-70.1Z M388.8 218.1 h99.7 v31.2 h-99.7 v-31.2Z M518.4 194.7 h99.7 v54.5 h-99.7 v-54.5Z" fill="url(#chart-pattern-e7ad50-2)" stroke="#000000" stroke-width="1.0"/></g><g><rect x="268.5" y="438.0" width="11.0" height="11.0" fill="url(#chart-pattern-e7ad50-0)"/><text x="285.5" y="447.35" fill="#444444" font-size="11" font-family="Arial" text-anchor="start">Critical</text><rect x="339.5" y="438.0" width="11.0" height="11.0" fill="url(#chart-pattern-e7ad50-1)"/><text x="356.5" y="447.35" fill="#444444" font-size="11" font-family="Arial" text-anchor="start">Major</text><rect x="403.5" y="438.0" width="11.0" height="11.0" fill="url(#chart-pattern-e7ad50-2)"/><text x="420.5" y="447.35" fill="#444444" font-size="11" font-family="Arial" text-anchor="start">Minor</text></g><path d="M36.0 54.5 v350.5 M36.0 405.0 h648.0" stroke="#999" stroke-width="1.5" fill="none"/></svg>