<svg xmlns="http://www.w3.org/2000/svg" width="700" height="500" viewBox="0 0 700 500"><path fill="white" d="M0 0 h700 v500 h-700 v-500Z"/><text transform="translate(-169.0, 18)" fill="#444444" font-family="Arial" font-weight="bold" font-size="16" x="350.0" y="30.0">Year-over-Year Growth Rate (%) by Segment</text><g><path stroke="#CCCCCC" stroke-dasharray="None" d="M0 0.0 h560.0 M0 27.153846153846157 h560.0 M0 54.307692307692314 h560.0 M0 81.46153846153847 h560.0 M0 108.61538461538463 h560.0 M0 135.76923076923077 h560.0 M0 162.92307692307693 h560.0 M0 190.07692307692307 h560.0 M0 217.23076923076925 h560.0 M0 244.3846153846154 h560.0 M0 271.53846153846155 h560.0 M0 298.6923076923077 h560.0 M0 325.84615384615387 h560.0 M0 353.0 h560.0" transform="translate(70.0, 87.0)"/><g font-size="12" font-family="Arial" transform="translate(64.0, 87.0)"><text x="0" y="0.0" transform="translate(-14, 3.5)">80</text><text x="0" y="27.153846153846157" transform="translate(-14, 3.5)">70</text><text x="0" y="54.307692307692314" transform="translate(-14, 3.5)">60</text><text x="0" y="81.46153846153847" transform="translate(-14, 3.5)">50</text><text x="0" y="108.61538461538463" transform="translate(-14, 3.5)">40</text><text x="0" y="135.76923076923077" transform="translate(-14, 3.5)">30</text><text x="0" y="162.92307692307693" transform="translate(-14, 3.5)">20</text><text x="0" y="190.07692307692307" transform="translate(-14, 3.5)">10</text><text x="0" y="217.23076923076925" transform="translate(-7, 3.5)">0</text><text x="0" y="244.3846153846154" transform="translate(-18, 3.5)">-10</text><text x="0" y="271.53846153846155" transform="translate(-18, 3.5)">-20</text><text x="0" y="298.6923076923077" transform="translate(-18, 3.5)">-30</text><text x="0" y="325.84615384615387" transform="translate(-18, 3.5)">-40</text><text x="0" y="353.0" transform="translate(-18, 3.5)">-50</text></g></g><g><path stroke="#CCCCCC" stroke-dasharray="None" d="M0.0 0 v353.0 M80.0 0 v353.0 M160.0 0 v353.0 M240.0 0 v353.0 M320.0 0 v353.0 M400.0 0 v353.0 M480.0 0 v353.0 M560.0 0 v353.0" transform="translate(70.0, 87.0)"/><g font-size="12" font-family="Arial" transform="translate(70.0, 105.0)"><text x="0.0" y="353.0" transform="translate(-2.0, 0)"> </text><text x="80.0" y="353.0" transform="translate(-8.5, 0)">Q1</text><text x="160.0" y="353.0" transform="translate(-8.5, 0)">Q2</text><text x="240.0" y="353.0" transform="translate(-8.5, 0)">Q3</text><text x="320.0" y="353.0" transform="translate(-8.5, 0)">Q4</text><text x="400.0" y="353.0" transform="translate(-8.5, 0)">Q5</text><text x="480.0" y="353.0" transform="translate(-8.5, 0)">Q6</text><text x="560.0" y="353.0" transform="translate(-2.0, 0)"> </text></g></g><path transform="translate(70.0, 87.0)" d="M0 217.23076923076923 h560.0z" stroke="black"/><g opacity="0.8" transform="translate(-70.0, -60.0) rotate(180, 350.0, 250.0) scale(-1, 1) translate(-560.0, 0) translate(-29.473684210526315, 135.76923076923077)"><path d="M80.0 0.0 h58.94736842105263 v32.58461538461539 h-58.94736842105263 v-32.58461538461539Z M160.0 0.0 h58.94736842105263 v-21.723076923076924 h-58.94736842105263 v21.723076923076924Z M240.0 0.0 h58.94736842105263 v59.73846153846154 h-58.94736842105263 v-59.73846153846154Z M320.0 0.0 h58.94736842105263 v48.87692307692308 h-58.94736842105263 v-48.87692307692308Z M400.0 0.0 h58.94736842105263 v-13.576923076923078 h-58.94736842105263 v13.576923076923078Z M480.0 0.0 h58.94736842105263 v81.46153846153847 h-58.94736842105263 v-81.46153846153847Z" fill="#5fab9e"/><path d="M80.0 0.0 h58.94736842105263 v-8.146153846153847 h-58.94736842105263 v8.146153846153847Z M160.0 -21.723076923076924 h58.94736842105263 v-40.73076923076923 h-58.94736842105263 v40.73076923076923Z M240.0 59.73846153846154 h58.94736842105263 v13.576923076923078 h-58.94736842105263 v-13.576923076923078Z M320.0 0.0 h58.94736842105263 v-5.430769230769231 h-58.94736842105263 v5.430769230769231Z M400.0 -13.576923076923078 h58.94736842105263 v-54.307692307692314 h-58.94736842105263 v54.307692307692314Z M480.0 81.46153846153847 h58.94736842105263 v21.723076923076924 h-58.94736842105263 v-21.723076923076924Z" fill="#f58b51"/><path d="M80.0 32.58461538461539 h58.94736842105263 v24.43846153846154 h-58.94736842105263 v-24.43846153846154Z M160.0 -62.45384615384616 h58.94736842105263 v-62.45384615384616 h-58.94736842105263 v62.45384615384616Z M240.0 73.31538461538462 h58.94736842105263 v46.16153846153846 h-58.94736842105263 v-46.16153846153846Z M320.0 48.87692307692308 h58.94736842105263 v43.44615384615385 h-58.94736842105263 v-43.44615384615385Z M400.0 -67.88461538461539 h58.94736842105263 v-67.88461538461539 h-58.94736842105263 v67.88461538461539Z M480.0 103.18461538461538 h58.94736842105263 v103.18461538461538 h-58.94736842105263 v-103.18461538461538Z" fill="#f7dd72"/></g></svg>