<svg xmlns="http://www.w3.org/2000/svg" width="500" height="500" viewBox="0 0 500 500">
  <path fill="white" d="M0 0 h500 v500 h-500 v-500Z"/>
  <g class="plot">
    <path d="M50.0 50.0 h400.0 v400.0 h-400.0 v-400.0Z" fill="white" stroke="#bbb"/>
    <g x1="50.0" y1="50.0" transform="translate(50.0, 50.0)" class="plot-grid">
      <path stroke="#ccc" d="M0.0 0 v400.0z M40.0 0 v400.0z M80.0 0 v400.0z M120.0 0 v400.0z M160.0 0 v400.0z M200.0 0 v400.0z M240.0 0 v400.0z M280.0 0 v400.0z M320.0 0 v400.0z M360.0 0 v400.0z M0 177.8863972680706 h400.0z M0 113.08639726807058 h400.0z M0 48.2863972680706 h400.0z M0 307.48639726807056 h400.0z M0 372.2863972680706 h400.0z"/>
    </g>
  </g>
  <g transform="rotate(180, 250.0, 250.0) translate(50.0, 207.31360273192942)">
    <path d="M6.451612903225806 0.0 h25.806451612903224 v31.64484917472965 h-25.806451612903224 v-31.64484917472965Z M46.45161290322581 0.0 h25.806451612903224 v-34.14911781445646 h-25.806451612903224 v34.14911781445646Z M86.45161290322581 0.0 h25.806451612903224 v71.25782583949915 h-25.806451612903224 v-71.25782583949915Z M126.45161290322581 0.0 h25.806451612903224 v53.50028457598178 h-25.806451612903224 v-53.50028457598178Z M166.4516129032258 0.0 h25.806451612903224 v-108.36653386454182 h-25.806451612903224 v108.36653386454182Z M206.4516129032258 0.0 h25.806451612903224 v22.31075697211155 h-25.806451612903224 v-22.31075697211155Z M246.4516129032258 0.0 h25.806451612903224 v66.24928856004553 h-25.806451612903224 v-66.24928856004553Z M286.4516129032258 0.0 h25.806451612903224 v20.717131474103585 h-25.806451612903224 v-20.717131474103585Z M326.4516129032258 0.0 h25.806451612903224 v12.066021627774616 h-25.806451612903224 v-12.066021627774616Z M366.4516129032258 0.0 h25.806451612903224 v-54.638588503130336 h-25.806451612903224 v54.638588503130336Z" fill="#EF6F6C"/>
    <path d="M6.451612903225806 31.64484917472965 h25.806451612903224 v7.285145133750712 h-25.806451612903224 v-7.285145133750712Z M46.45161290322581 0.0 h25.806451612903224 v103.58565737051792 h-25.806451612903224 v-103.58565737051792Z M86.45161290322581 71.25782583949915 h25.806451612903224 v122.25384177575414 h-25.806451612903224 v-122.25384177575414Z M126.45161290322581 53.50028457598178 h25.806451612903224 v37.10870802504269 h-25.806451612903224 v-37.10870802504269Z M166.4516129032258 0.0 h25.806451612903224 v48.71940808195788 h-25.806451612903224 v-48.71940808195788Z M206.4516129032258 0.0 h25.806451612903224 v-3.870233352305066 h-25.806451612903224 v3.870233352305066Z M246.4516129032258 66.24928856004553 h25.806451612903224 v37.79169038133182 h-25.806451612903224 v-37.79169038133182Z M286.4516129032258 20.717131474103585 h25.806451612903224 v43.02788844621514 h-25.806451612903224 v-43.02788844621514Z M326.4516129032258 12.066021627774616 h25.806451612903224 v22.31075697211155 h-25.806451612903224 v-22.31075697211155Z M366.4516129032258 0.0 h25.806451612903224 v53.50028457598178 h-25.806451612903224 v-53.50028457598178Z" fill="#a74e4c"/>
    <path d="M6.451612903225806 38.92999430848037 h25.806451612903224 v54.41092771770063 h-25.806451612903224 v-54.41092771770063Z M46.45161290322581 103.58565737051792 h25.806451612903224 v73.98975526465567 h-25.806451612903224 v-73.98975526465567Z M86.45161290322581 193.51166761525326 h25.806451612903224 v47.12578258394991 h-25.806451612903224 v-47.12578258394991Z M126.45161290322581 0.0 h25.806451612903224 v-50.76835515082527 h-25.806451612903224 v50.76835515082527Z M166.4516129032258 48.71940808195788 h25.806451612903224 v98.80478087649402 h-25.806451612903224 v-98.80478087649402Z M206.4516129032258 -3.870233352305066 h25.806451612903224 v-28.912919749573135 h-25.806451612903224 v28.912919749573135Z M246.4516129032258 104.04097894137733 h25.806451612903224 v53.7279453614115 h-25.806451612903224 v-53.7279453614115Z M286.4516129032258 63.745019920318725 h25.806451612903224 v32.55549231644849 h-25.806451612903224 v-32.55549231644849Z M326.4516129032258 34.37677859988617 h25.806451612903224 v45.07683551508252 h-25.806451612903224 v-45.07683551508252Z M366.4516129032258 53.50028457598178 h25.806451612903224 v5.691519635742743 h-25.806451612903224 v-5.691519635742743Z" fill="#f5a9a7"/>
    <path d="M6.451612903225806 93.34092202618099 h25.806451612903224 v115.65167899829254 h-25.806451612903224 v-115.65167899829254Z M46.45161290322581 177.5754126351736 h25.806451612903224 v65.11098463289699 h-25.806451612903224 v-65.11098463289699Z M86.45161290322581 0.0 h25.806451612903224 v-63.745019920318725 h-25.806451612903224 v63.745019920318725Z M126.45161290322581 -50.76835515082527 h25.806451612903224 v-74.9003984063745 h-25.806451612903224 v74.9003984063745Z M166.4516129032258 -108.36653386454182 h25.806451612903224 v-48.94706886738759 h-25.806451612903224 v48.94706886738759Z M206.4516129032258 -32.783153101878206 h25.806451612903224 v-41.66192373363688 h-25.806451612903224 v41.66192373363688Z M246.4516129032258 0.0 h25.806451612903224 v-6.829823562891292 h-25.806451612903224 v6.829823562891292Z M286.4516129032258 96.30051223676722 h25.806451612903224 v9.78941377347752 h-25.806451612903224 v-9.78941377347752Z M326.4516129032258 0.0 h25.806451612903224 v-9.3340922026181 h-25.806451612903224 v9.3340922026181Z M366.4516129032258 59.19180421172453 h25.806451612903224 v12.521343198634035 h-25.806451612903224 v-12.521343198634035Z" fill="#477160"/>
  </g>
  <path d="M50.0 292.68639726807055 h400.0z" stroke="black"/>
  <g>
    <g class="x-axis" transform="translate(50.0, 12)">
      <text x="19.354838709677416" y="450.0" transform="translate(-5.857142857142857, 0) rotate(41.2034989432625, 19.354838709677416, 450.0)" font-size="12" font-family="Verdana">
        January
      </text>
      <text x="59.35483870967742" y="450.0" transform="translate(-5.75, 0) rotate(41.2034989432625, 59.35483870967742, 450.0)" font-size="12" font-family="Verdana">
        February
      </text>
      <text x="99.35483870967742" y="450.0" transform="translate(-6.4, 0) rotate(41.2034989432625, 99.35483870967742, 450.0)" font-size="12" font-family="Verdana">
        March
      </text>
      <text x="139.3548387096774" y="450.0" transform="translate(-4.6, 0) rotate(41.2034989432625, 139.3548387096774, 450.0)" font-size="12" font-family="Verdana">
        April
      </text>
      <text x="179.3548387096774" y="450.0" transform="translate(-7.333333333333333, 0) rotate(41.2034989432625, 179.3548387096774, 450.0)" font-size="12" font-family="Verdana">
        May
      </text>
      <text x="219.3548387096774" y="450.0" transform="translate(-6.25, 0) rotate(41.2034989432625, 219.3548387096774, 450.0)" font-size="12" font-family="Verdana">
        June
      </text>
      <text x="259.3548387096774" y="450.0" transform="translate(-5.25, 0) rotate(41.2034989432625, 259.3548387096774, 450.0)" font-size="12" font-family="Verdana">
        July
      </text>
      <text x="299.3548387096774" y="450.0" transform="translate(-6.0, 0) rotate(41.2034989432625, 299.3548387096774, 450.0)" font-size="12" font-family="Verdana">
        August
      </text>
      <text x="339.3548387096774" y="450.0" transform="translate(-6.222222222222222, 0) rotate(41.2034989432625, 339.3548387096774, 450.0)" font-size="12" font-family="Verdana">
        September
      </text>
      <text x="379.3548387096774" y="450.0" transform="translate(-5.857142857142857, 0) rotate(41.2034989432625, 379.3548387096774, 450.0)" font-size="12" font-family="Verdana">
        October
      </text>
    </g>
    <g class="y-axis" transform="translate(50.0, 50.0)">
      <text x="0" y="48.2863972680706" transform="translate(-32, 7.0)" font-size="12" font-family="Verdana">
        854
      </text>
      <text x="0" y="113.08639726807058" transform="translate(-32, 7.0)" font-size="12" font-family="Verdana">
        569
      </text>
      <text x="0" y="177.8863972680706" transform="translate(-32, 7.0)" font-size="12" font-family="Verdana">
        285
      </text>
      <text x="0" y="307.48639726807056" transform="translate(-35, 7.0)" font-size="12" font-family="Verdana">
        -285
      </text>
      <text x="0" y="372.2863972680706" transform="translate(-35, 7.0)" font-size="12" font-family="Verdana">
        -569
      </text>
      <text x="0" y="242.68639726807058" transform="translate(-19, 7.0)" font-size="12" font-family="Verdana">
        0
      </text>
    </g>
  </g>
</svg>