<svg xmlns="http://www.w3.org/2000/svg" width="600" height="400" viewBox="0 0 600 400"><path fill="white" d="M0 0 h600 v400 h-600 v-400Z"/><text transform="translate(-85.5, 19)" fill="#444444" font-family="Helvetica" font-weight="bold" font-size="16" x="300.0" y="20.0">Example Column Graph</text><g><path stroke="#CCCCCC" stroke-dasharray="None" d="M0 0.0 h452.0 M0 37.82951539213389 h452.0 M0 75.65903078426778 h452.0 M0 113.48854617640167 h452.0 M0 151.31806156853557 h452.0 M0 189.14757696066948 h452.0 M0 226.97709235280334 h452.0 M0 264.80660774493725 h452.0 M0 264.80660774493725 h452.0" transform="translate(88.0, 68.5)"/><g font-size="12" font-family="Helvetica" transform="translate(82.0, 68.5)"><text x="0" y="0.0" transform="translate(-14, 3.5)">90</text><text x="0" y="37.82951539213389" transform="translate(-14, 3.5)">70</text><text x="0" y="75.65903078426778" transform="translate(-14, 3.5)">50</text><text x="0" y="113.48854617640167" transform="translate(-14, 3.5)">30</text><text x="0" y="151.31806156853557" transform="translate(-14, 3.5)">10</text><text x="0" y="189.14757696066948" transform="translate(-18, 3.5)">-10</text><text x="0" y="226.97709235280334" transform="translate(-18, 3.5)">-30</text><text x="0" y="264.80660774493725" transform="translate(-18, 3.5)">-50</text></g></g><g><path stroke="#CCCCCC" stroke-dasharray="None" d="M0.0 0 v264.80660774493725 M56.5 0 v264.80660774493725 M113.0 0 v264.80660774493725 M169.5 0 v264.80660774493725 M226.0 0 v264.80660774493725 M282.5 0 v264.80660774493725 M339.0 0 v264.80660774493725 M395.5 0 v264.80660774493725 M452.0 0 v264.80660774493725" transform="translate(88.0, 68.5)"/><g font-size="12" font-family="Helvetica" transform="translate(88.0, 86.5)"><text x="0.0" y="264.80660774493725" transform="translate(-3.0, 0) rotate(33.00847669754037, 0.0, 264.80660774493725)"> </text><text x="56.5" y="264.80660774493725" transform="translate(-6.285714285714286, 0) rotate(33.00847669754037, 56.5, 264.80660774493725)">January</text><text x="113.0" y="264.80660774493725" transform="translate(-6.125, 0) rotate(33.00847669754037, 113.0, 264.80660774493725)">February</text><text x="169.5" y="264.80660774493725" transform="translate(-6.8, 0) rotate(33.00847669754037, 169.5, 264.80660774493725)">March</text><text x="226.0" y="264.80660774493725" transform="translate(-5.0, 0) rotate(33.00847669754037, 226.0, 264.80660774493725)">April</text><text x="282.5" y="264.80660774493725" transform="translate(-7.666666666666667, 0) rotate(33.00847669754037, 282.5, 264.80660774493725)">May</text><text x="339.0" y="264.80660774493725" transform="translate(-6.75, 0) rotate(33.00847669754037, 339.0, 264.80660774493725)">June</text><text x="395.5" y="264.80660774493725" transform="translate(-5.5, 0) rotate(33.00847669754037, 395.5, 264.80660774493725)">July</text><text x="452.0" y="264.80660774493725" transform="translate(-3.0, 0) rotate(33.00847669754037, 452.0, 264.80660774493725)"> </text></g></g><path transform="translate(88.0, 68.5)" d="M0 170.2328192646025 h452.0z" stroke="black"/><g opacity="0.8" transform="translate(-60.0, -66.69339225506276) rotate(180, 300.0, 200.0) scale(-1, 1) translate(-452.0, 0.0) translate(-20.545454545454547, 94.57378848033474)"><path d="M56.5 0.0 h41.09090909090909 v18.53646254214561 h-41.09090909090909 v-18.53646254214561Z M113.0 0.0 h41.09090909090909 v-56.3659779342795 h-41.09090909090909 v56.3659779342795Z M169.5 0.0 h41.09090909090909 v42.747352393111306 h-41.09090909090909 v-42.747352393111306Z M226.0 0.0 h41.09090909090909 v85.11640963230127 h-41.09090909090909 v-85.11640963230127Z M282.5 0.0 h41.09090909090909 v63.93188101270628 h-41.09090909090909 v-63.93188101270628Z M339.0 0.0 h41.09090909090909 v66.95824224407698 h-41.09090909090909 v-66.95824224407698Z M395.5 0.0 h41.09090909090909 v83.60322901661591 h-41.09090909090909 v-83.60322901661591Z" fill="#5fab9e"/><path d="M56.5 18.53646254214561 h41.09090909090909 v16.834134349499582 h-41.09090909090909 v-16.834134349499582Z M113.0 0.0 h41.09090909090909 v62.60784797398159 h-41.09090909090909 v-62.60784797398159Z M169.5 0.0 h41.09090909090909 v-51.25899335634143 h-41.09090909090909 v51.25899335634143Z M226.0 85.11640963230127 h41.09090909090909 v59.01404401172888 h-41.09090909090909 v-59.01404401172888Z M282.5 0.0 h41.09090909090909 v-29.1287268519431 h-41.09090909090909 v29.1287268519431Z M339.0 66.95824224407698 h41.09090909090909 v61.66211008917825 h-41.09090909090909 v-61.66211008917825Z M395.5 83.60322901661591 h41.09090909090909 v37.45122023821256 h-41.09090909090909 v-37.45122023821256Z" fill="#f58b51"/><path d="M56.5 0.0 h41.09090909090909 v-60.52722462741423 h-41.09090909090909 v60.52722462741423Z M113.0 62.60784797398159 h41.09090909090909 v61.094667358296235 h-41.09090909090909 v-61.094667358296235Z M169.5 42.747352393111306 h41.09090909090909 v86.44044267102595 h-41.09090909090909 v-86.44044267102595Z M226.0 0.0 h41.09090909090909 v-6.241870039702092 h-41.09090909090909 v6.241870039702092Z M282.5 -29.1287268519431 h41.09090909090909 v-62.98614312790293 h-41.09090909090909 v62.98614312790293Z M339.0 0.0 h41.09090909090909 v-29.696169582825107 h-41.09090909090909 v29.696169582825107Z M395.5 0.0 h41.09090909090909 v-73.01096470681843 h-41.09090909090909 v73.01096470681843Z" fill="#f7dd72"/></g></svg>