<svg xmlns="http://www.w3.org/2000/svg" width="600" height="400" viewBox="0 0 600 400"><path fill="#FFFFFF" d="M0 0 h600 v400 h-600 v-400Z"/><text transform="translate(-266.5, 30)" fill="#444444" font-family="JetBrains Mono" font-weight="normal" font-size="16" x="300.0" y="10.0">Developer Survey: Language Popularity (%)</text><defs><clipPath id="plot-clip"><rect x="0" y="0" width="524.0" height="315.0"/></clipPath></defs><g><path stroke="#CCCCCC" stroke-dasharray="None" d="M0 0.0 h524.0 M0 63.0 h524.0 M0 126.0 h524.0 M0 189.0 h524.0 M0 252.0 h524.0 M0 315.0 h524.0" transform="translate(46.0, 65.0)"/><g font-size="12" font-family="Arial" fill="#444444" transform="translate(40.0, 65.0)"><text x="0" y="0.0" transform="translate(-14, 3.5)">70</text><text x="0" y="63.0" transform="translate(-14, 3.5)">56</text><text x="0" y="126.0" transform="translate(-14, 3.5)">42</text><text x="0" y="189.0" transform="translate(-14, 3.5)">28</text><text x="0" y="252.0" transform="translate(-14, 3.5)">14</text><text x="0" y="315.0" transform="translate(-7, 3.5)">0</text></g></g><g><path stroke="#CCCCCC" stroke-dasharray="None" d="M0.0 0 v315.0 M87.33333333333333 0 v315.0 M174.66666666666666 0 v315.0 M262.0 0 v315.0 M349.3333333333333 0 v315.0 M436.6666666666667 0 v315.0 M524.0 0 v315.0" transform="translate(46.0, 65.0)"/><g font-size="12" font-family="Arial" fill="#444444" transform="translate(46.0, 83.0)"><text x="0.0" y="315.0" transform="translate(-2.0, 0)"> </text><text x="87.33333333333333" y="315.0" transform="translate(-20.0, 0)">Python</text><text x="174.66666666666666" y="315.0" transform="translate(-29.5, 0)">JavaScript</text><text x="262.0" y="315.0" transform="translate(-8.5, 0)">Go</text><text x="349.3333333333333" y="315.0" transform="translate(-13.0, 0)">Rust</text><text x="436.6666666666667" y="315.0" transform="translate(-30.5, 0)">TypeScript</text><text x="524.0" y="315.0" transform="translate(-2.0, 0)"> </text></g></g><g opacity="0.8" transform="translate(-30.0, -20.0) rotate(180, 300.0, 200.0) scale(-1, 1) translate(-524.0, 0) translate(-32.75, 0)"><path d="M71.0 0 h32.8 v301.5 h-32.8 v-301.5Z M169.2 0 h32.8 v202.5 h-32.8 v-202.5Z M267.5 0 h32.8 v171.0 h-32.8 v-171.0Z M365.7 0 h32.8 v135.0 h-32.8 v-135.0Z M464.0 0 h32.8 v99.0 h-32.8 v-99.0Z" fill="#5fab9e"/><path d="M103.7 0 h32.8 v279.0 h-32.8 v-279.0Z M202.0 0 h32.8 v216.0 h-32.8 v-216.0Z M300.2 0 h32.8 v189.0 h-32.8 v-189.0Z M398.5 0 h32.8 v157.5 h-32.8 v-157.5Z M496.7 0 h32.8 v126.0 h-32.8 v-126.0Z" fill="#f58b51"/></g><g><rect transform="translate(-10.5, -7.0)" x="513.5" y="76.0" width="63.0" height="42.0" fill="#f5f5f5" stroke="#d7d7d7"/><g><rect y="78.0" x="513.5" width="12" height="12" fill="#5fab9e"/><text y="87.0" x="527.5" font-size="12" font-family="Arial" fill="#444444">2024</text></g><g><rect y="90.0" x="513.5" width="12" height="12" fill="#f58b51"/><text y="99.0" x="527.5" font-size="12" font-family="Arial" fill="#444444">2025</text></g></g><path d="M46.0 65.0 v315.0 M46.0 380.0 h524.0" stroke="#999" stroke-width="1.5" fill="none"/><text x="14" y="222.5" fill="#444444" font-size="14" font-family="JetBrains Mono" text-anchor="middle" transform="rotate(-90, 14, 222.5)">Respondents (%)</text></svg>