<svg xmlns="http://www.w3.org/2000/svg" width="720" height="460" viewBox="0 0 720 460"><path fill="#FFFFFF" d="M0 0 h720 v460 h-720 v-460Z"/><text transform="translate(-85.0, 18)" fill="#444444" font-family="Arial" font-weight="bold" font-size="16" x="360.0" y="11.5">New Signups by Month</text><defs><clipPath id="plot-clip"><rect x="0" y="0" width="648.0" height="387.0"/></clipPath></defs><g><path stroke="#cccccc" stroke-dasharray="None" d="M0 0.0 h648.0 M0 77.4 h648.0 M0 154.8 h648.0 M0 232.2 h648.0 M0 309.6 h648.0 M0 387.0 h648.0" transform="translate(36.0, 50.0)"/><g font-size="12" font-family="Arial" fill="#000000" transform="translate(30.0, 50.0)"><text x="0" y="0.0" transform="translate(-32, 3.5)">4,000</text><text x="0" y="77.4" transform="translate(-32, 3.5)">3,200</text><text x="0" y="154.8" transform="translate(-32, 3.5)">2,400</text><text x="0" y="232.2" transform="translate(-32, 3.5)">1,600</text><text x="0" y="309.6" transform="translate(-21, 3.5)">800</text><text x="0" y="387.0" transform="translate(-7, 3.5)">0</text></g></g><g><path stroke="#cccccc" stroke-dasharray="None" d="M0.0 0 v387.0 M92.57142857142857 0 v387.0 M185.14285714285714 0 v387.0 M277.7142857142857 0 v387.0 M370.2857142857143 0 v387.0 M462.8571428571429 0 v387.0 M555.4285714285714 0 v387.0 M648.0 0 v387.0" transform="translate(36.0, 50.0)"/><g font-size="12" font-family="Arial" fill="#000000" transform="translate(36.0, 68.0)"><text x="0.0" y="387.0" transform="translate(-2.0, 0)"> </text><text x="92.57142857142857" y="387.0" transform="translate(-10.0, 0)">Jan</text><text x="185.14285714285714" y="387.0" transform="translate(-11.0, 0)">Feb</text><text x="277.7142857142857" y="387.0" transform="translate(-10.5, 0)">Mar</text><text x="370.2857142857143" y="387.0" transform="translate(-10.0, 0)">Apr</text><text x="462.8571428571429" y="387.0" transform="translate(-11.5, 0)">May</text><text x="555.4285714285714" y="387.0" transform="translate(-10.0, 0)">Jun</text><text x="648.0" y="387.0" transform="translate(-2.0, 0)"> </text></g></g><g opacity="0.8" transform="translate(-36.0, -23.0) rotate(180, 360.0, 230.0) scale(-1, 1) translate(-648.0, 0) translate(-34.10526315789474, 0)"><path d="M92.6 0.0 h68.2 v116.1 h-68.2 v-116.1Z M185.1 0.0 h68.2 v179.0 h-68.2 v-179.0Z M277.7 0.0 h68.2 v203.2 h-68.2 v-203.2Z M370.3 0.0 h68.2 v255.4 h-68.2 v-255.4Z M462.9 0.0 h68.2 v291.2 h-68.2 v-291.2Z M555.4 0.0 h68.2 v343.5 h-68.2 v-343.5Z" fill="#5fab9e"/><g><text x="126.67669172932331" y="100.1" fill="#000000" font-size="12" font-family="Arial" text-anchor="middle" transform="translate(126.67669172932331,100.1) scale(1,-1) translate(-126.67669172932331,-100.1)">1,200</text><text x="219.24812030075188" y="162.9875" fill="#000000" font-size="12" font-family="Arial" text-anchor="middle" transform="translate(219.24812030075188,162.9875) scale(1,-1) translate(-219.24812030075188,-162.9875)">1,850</text><text x="311.81954887218046" y="187.175" fill="#000000" font-size="12" font-family="Arial" text-anchor="middle" transform="translate(311.81954887218046,187.175) scale(1,-1) translate(-311.81954887218046,-187.175)">2,100</text><text x="404.390977443609" y="239.42000000000002" fill="#000000" font-size="12" font-family="Arial" text-anchor="middle" transform="translate(404.390977443609,239.42000000000002) scale(1,-1) translate(-404.390977443609,-239.42000000000002)">2,640</text><text x="496.9624060150376" y="275.2175" fill="#000000" font-size="12" font-family="Arial" text-anchor="middle" transform="translate(496.9624060150376,275.2175) scale(1,-1) translate(-496.9624060150376,-275.2175)">3,010</text><text x="589.5338345864661" y="327.4625" fill="#000000" font-size="12" font-family="Arial" text-anchor="end" transform="translate(589.5338345864661,327.4625) scale(1,-1) translate(-589.5338345864661,-327.4625)">3,550</text></g></g><path d="M36.0 50.0 v387.0 M36.0 437.0 h648.0" stroke="#999" stroke-width="1.5" fill="none"/><g transform="translate(36.0, 50.0)"><path d="M0 96.75 h648.0" stroke="#3f3f3f" stroke-width="1.5" stroke-dasharray="6 3" fill="none"/><text x="644.0" y="114.75" fill="#3f3f3f" font-size="12" font-family="Arial" text-anchor="end">Target</text></g></svg>