<svg xmlns="http://www.w3.org/2000/svg" width="500" height="500" viewBox="0 0 500 500">
  <g class="plot">
    <path d="M50.0 50.0 h400.0 v400.0 h-400.0 v-400.0Z" fill="white" stroke="#bbb"/>
    <g x1="50.0" y1="50.0" transform="translate(50.0, 50.0)" class="plot-grid">
      <path stroke="#ccc" d="M0.0 0 v400.0z M40.0 0 v400.0z M80.0 0 v400.0z M120.0 0 v400.0z M160.0 0 v400.0z M200.0 0 v400.0z M240.0 0 v400.0z M280.0 0 v400.0z M320.0 0 v400.0z M360.0 0 v400.0z M0 227.29694415173867 h400.0z M0 162.4969441517387 h400.0z M0 97.6969441517387 h400.0z M0 32.896944151738694 h400.0z M0 356.8969441517387 h400.0z"/>
    </g>
  </g>
  <g transform="rotate(180, 250.0, 250.0) translate(50.0, 157.90305584826132)">
    <path d="M6.451612903225806 0.0 h25.806451612903224 v4.817100707511666 h-25.806451612903224 v-4.817100707511666Z M46.45161290322581 0.0 h25.806451612903224 v10.738120327161422 h-25.806451612903224 v-10.738120327161422Z M86.45161290322581 0.0 h25.806451612903224 v18.405338953284158 h-25.806451612903224 v-18.405338953284158Z M126.45161290322581 0.0 h25.806451612903224 v58.407346078578946 h-25.806451612903224 v-58.407346078578946Z M166.4516129032258 0.0 h25.806451612903224 v-19.750112900797834 h-25.806451612903224 v19.750112900797834Z M206.4516129032258 0.0 h25.806451612903224 v95.53916403231472 h-25.806451612903224 v-95.53916403231472Z M246.4516129032258 0.0 h25.806451612903224 v-47.34808570425009 h-25.806451612903224 v47.34808570425009Z M286.4516129032258 0.0 h25.806451612903224 v62.86316423302725 h-25.806451612903224 v-62.86316423302725Z M326.4516129032258 0.0 h25.806451612903224 v143.22846103668022 h-25.806451612903224 v-143.22846103668022Z M366.4516129032258 0.0 h25.806451612903224 v-28.019469115359524 h-25.806451612903224 v28.019469115359524Z" fill="red"/>
    <path d="M6.451612903225806 4.817100707511666 h25.806451612903224 v47.187515680666365 h-25.806451612903224 v-47.187515680666365Z M46.45161290322581 10.738120327161422 h25.806451612903224 v19.770184153745795 h-25.806451612903224 v-19.770184153745795Z M86.45161290322581 0.0 h25.806451612903224 v-37.994881830498265 h-25.806451612903224 v37.994881830498265Z M126.45161290322581 58.407346078578946 h25.806451612903224 v33.39856490541422 h-25.806451612903224 v-33.39856490541422Z M166.4516129032258 0.0 h25.806451612903224 v43.73526017361634 h-25.806451612903224 v-43.73526017361634Z M206.4516129032258 95.53916403231472 h25.806451612903224 v43.072908826333475 h-25.806451612903224 v-43.072908826333475Z M246.4516129032258 -47.34808570425009 h25.806451612903224 v-32.87671232876712 h-25.806451612903224 v32.87671232876712Z M286.4516129032258 0.0 h25.806451612903224 v-107.90305584826132 h-25.806451612903224 v107.90305584826132Z M326.4516129032258 143.22846103668022 h25.806451612903224 v91.42455717798184 h-25.806451612903224 v-91.42455717798184Z M366.4516129032258 0.0 h25.806451612903224 v48.11079331627276 h-25.806451612903224 v-48.11079331627276Z" fill="green"/>
    <path d="M6.451612903225806 52.004616388178036 h25.806451612903224 v11.039189121380902 h-25.806451612903224 v-11.039189121380902Z M46.45161290322581 30.508304480907217 h25.806451612903224 v8.309498720457624 h-25.806451612903224 v-8.309498720457624Z M86.45161290322581 18.405338953284158 h25.806451612903224 v8.650710020573033 h-25.806451612903224 v-8.650710020573033Z M126.45161290322581 91.80591098399317 h25.806451612903224 v6.081589643233479 h-25.806451612903224 v-6.081589643233479Z M166.4516129032258 -19.750112900797834 h25.806451612903224 v-36.75046414772442 h-25.806451612903224 v36.75046414772442Z M206.4516129032258 0.0 h25.806451612903224 v-43.333835114657035 h-25.806451612903224 v43.333835114657035Z M246.4516129032258 0.0 h25.806451612903224 v66.03442219880576 h-25.806451612903224 v-66.03442219880576Z M286.4516129032258 62.86316423302725 h25.806451612903224 v56.27979326609462 h-25.806451612903224 v-56.27979326609462Z M326.4516129032258 234.653018214662 h25.806451612903224 v57.443925937076614 h-25.806451612903224 v-57.443925937076614Z M366.4516129032258 48.11079331627276 h25.806451612903224 v102.0823924933514 h-25.806451612903224 v-102.0823924933514Z" fill="blue"/>
  </g>
  <path d="M50.0 342.0969441517387 h400.0z" stroke="black"/>
</svg>