<svg xmlns="http://www.w3.org/2000/svg" width="500" height="500" viewBox="0 0 500 500">
  <path fill="white" d="M0 0 h500 v500 h-500 v-500Z"/>
  <g class="plot">
    <path d="M50.0 50.0 h400.0 v400.0 h-400.0 v-400.0Z" fill="white" stroke="#bbb"/>
    <g x1="50.0" y1="50.0" transform="translate(50.0, 50.0)" class="plot-grid">
      <path stroke="#ccc" d="M0.0 0 v400.0z M40.0 0 v400.0z M80.0 0 v400.0z M120.0 0 v400.0z M160.0 0 v400.0z M200.0 0 v400.0z M240.0 0 v400.0z M280.0 0 v400.0z M320.0 0 v400.0z M360.0 0 v400.0z M0 212.78655737704923 h400.0z M0 154.46655737704924 h400.0z M0 96.14655737704922 h400.0z M0 37.82655737704923 h400.0z M0 329.4265573770492 h400.0z"/>
    </g>
  </g>
  <g transform="rotate(180, 250.0, 250.0) translate(50.0, 178.89344262295083)">
    <path d="M6.451612903225806 0.0 h25.806451612903224 v4.470938897168406 h-25.806451612903224 v-4.470938897168406Z M46.45161290322581 0.0 h25.806451612903224 v9.966467958271238 h-25.806451612903224 v-9.966467958271238Z M86.45161290322581 0.0 h25.806451612903224 v17.082712369597616 h-25.806451612903224 v-17.082712369597616Z M126.45161290322581 0.0 h25.806451612903224 v54.21013412816692 h-25.806451612903224 v-54.21013412816692Z M166.4516129032258 0.0 h25.806451612903224 v18.330849478390466 h-25.806451612903224 v-18.330849478390466Z M206.4516129032258 0.0 h25.806451612903224 v-88.67362146050671 h-25.806451612903224 v88.67362146050671Z M246.4516129032258 0.0 h25.806451612903224 v43.945603576751125 h-25.806451612903224 v-43.945603576751125Z M286.4516129032258 0.0 h25.806451612903224 v58.3457526080477 h-25.806451612903224 v-58.3457526080477Z M326.4516129032258 0.0 h25.806451612903224 v132.93591654247393 h-25.806451612903224 v-132.93591654247393Z M366.4516129032258 0.0 h25.806451612903224 v26.005961251862892 h-25.806451612903224 v-26.005961251862892Z" fill="red"/>
    <path d="M6.451612903225806 4.470938897168406 h25.806451612903224 v43.79657228017884 h-25.806451612903224 v-43.79657228017884Z M46.45161290322581 9.966467958271238 h25.806451612903224 v18.349478390462 h-25.806451612903224 v-18.349478390462Z M86.45161290322581 17.082712369597616 h25.806451612903224 v35.2645305514158 h-25.806451612903224 v-35.2645305514158Z M126.45161290322581 54.21013412816692 h25.806451612903224 v30.998509687034282 h-25.806451612903224 v-30.998509687034282Z M166.4516129032258 0.0 h25.806451612903224 v-3.334575260804769 h-25.806451612903224 v3.334575260804769Z M206.4516129032258 0.0 h25.806451612903224 v39.97764530551416 h-25.806451612903224 v-39.97764530551416Z M246.4516129032258 43.945603576751125 h25.806451612903224 v30.51415797317437 h-25.806451612903224 v-30.51415797317437Z M286.4516129032258 58.3457526080477 h25.806451612903224 v100.14903129657229 h-25.806451612903224 v-100.14903129657229Z M326.4516129032258 132.93591654247393 h25.806451612903224 v84.85469448584203 h-25.806451612903224 v-84.85469448584203Z M366.4516129032258 26.005961251862892 h25.806451612903224 v44.65350223546945 h-25.806451612903224 v-44.65350223546945Z" fill="green"/>
    <path d="M6.451612903225806 48.26751117734725 h25.806451612903224 v10.245901639344263 h-25.806451612903224 v-10.245901639344263Z M46.45161290322581 0.0 h25.806451612903224 v-7.7123695976155 h-25.806451612903224 v7.7123695976155Z M86.45161290322581 52.34724292101342 h25.806451612903224 v8.029061102831596 h-25.806451612903224 v-8.029061102831596Z M126.45161290322581 0.0 h25.806451612903224 v-5.644560357675112 h-25.806451612903224 v5.644560357675112Z M166.4516129032258 -3.334575260804769 h25.806451612903224 v-34.10953800298063 h-25.806451612903224 v34.10953800298063Z M206.4516129032258 -88.67362146050671 h25.806451612903224 v-40.21982116244412 h-25.806451612903224 v40.21982116244412Z M246.4516129032258 0.0 h25.806451612903224 v-61.28912071535023 h-25.806451612903224 v61.28912071535023Z M286.4516129032258 0.0 h25.806451612903224 v-52.235469448584205 h-25.806451612903224 v52.235469448584205Z M326.4516129032258 217.79061102831596 h25.806451612903224 v53.315946348733235 h-25.806451612903224 v-53.315946348733235Z M366.4516129032258 70.65946348733235 h25.806451612903224 v94.74664679582713 h-25.806451612903224 v-94.74664679582713Z" fill="blue"/>
  </g>
  <path d="M50.0 321.1065573770492 h400.0z" stroke="black"/>
  <g transform="translate(50.0, 12)" class="x-axis">
    <text x="19.354838709677416" y="450.0" transform="translate(-5.857142857142857, 0) rotate(41.2034989432625, 19.354838709677416, 450.0)" font-size="12" font-family="Verdana">
      January
    </text>
    <text x="59.35483870967742" y="450.0" transform="translate(-5.75, 0) rotate(41.2034989432625, 59.35483870967742, 450.0)" font-size="12" font-family="Verdana">
      February
    </text>
    <text x="99.35483870967742" y="450.0" transform="translate(-6.4, 0) rotate(41.2034989432625, 99.35483870967742, 450.0)" font-size="12" font-family="Verdana">
      March
    </text>
    <text x="139.3548387096774" y="450.0" transform="translate(-4.6, 0) rotate(41.2034989432625, 139.3548387096774, 450.0)" font-size="12" font-family="Verdana">
      April
    </text>
    <text x="179.3548387096774" y="450.0" transform="translate(-7.333333333333333, 0) rotate(41.2034989432625, 179.3548387096774, 450.0)" font-size="12" font-family="Verdana">
      May
    </text>
    <text x="219.3548387096774" y="450.0" transform="translate(-6.25, 0) rotate(41.2034989432625, 219.3548387096774, 450.0)" font-size="12" font-family="Verdana">
      June
    </text>
    <text x="259.3548387096774" y="450.0" transform="translate(-5.25, 0) rotate(41.2034989432625, 259.3548387096774, 450.0)" font-size="12" font-family="Verdana">
      July
    </text>
    <text x="299.3548387096774" y="450.0" transform="translate(-6.0, 0) rotate(41.2034989432625, 299.3548387096774, 450.0)" font-size="12" font-family="Verdana">
      August
    </text>
    <text x="339.3548387096774" y="450.0" transform="translate(-6.222222222222222, 0) rotate(41.2034989432625, 339.3548387096774, 450.0)" font-size="12" font-family="Verdana">
      September
    </text>
    <text x="379.3548387096774" y="450.0" transform="translate(-5.857142857142857, 0) rotate(41.2034989432625, 379.3548387096774, 450.0)" font-size="12" font-family="Verdana">
      October
    </text>
  </g>
</svg>