<svg xmlns="http://www.w3.org/2000/svg" width="700" height="500" viewBox="0 0 700 500"><path fill="#FFFFFF" d="M0 0 h700 v500 h-700 v-500Z"/><text transform="translate(-169.0, 18)" fill="#444444" font-family="Arial" font-weight="normal" font-size="16" x="350.0" y="30.0">Year-over-Year Growth Rate (%) by Segment</text><defs><clipPath id="plot-clip"><rect x="0" y="0" width="560.0" height="353.0"/></clipPath></defs><g><path stroke="#CCCCCC" stroke-dasharray="None" d="M0 0.0 h560.0 M0 27.153846153846157 h560.0 M0 54.307692307692314 h560.0 M0 81.46153846153847 h560.0 M0 108.61538461538463 h560.0 M0 135.76923076923077 h560.0 M0 162.92307692307693 h560.0 M0 190.07692307692307 h560.0 M0 217.23076923076925 h560.0 M0 244.3846153846154 h560.0 M0 271.53846153846155 h560.0 M0 298.6923076923077 h560.0 M0 325.84615384615387 h560.0 M0 353.0 h560.0" transform="translate(70.0, 87.0)"/><g font-size="12" font-family="Arial" fill="#444444" transform="translate(64.0, 87.0)"><text x="0" y="0.0" transform="translate(-14, 3.5)">80</text><text x="0" y="27.153846153846157" transform="translate(-14, 3.5)">70</text><text x="0" y="54.307692307692314" transform="translate(-14, 3.5)">60</text><text x="0" y="81.46153846153847" transform="translate(-14, 3.5)">50</text><text x="0" y="108.61538461538463" transform="translate(-14, 3.5)">40</text><text x="0" y="135.76923076923077" transform="translate(-14, 3.5)">30</text><text x="0" y="162.92307692307693" transform="translate(-14, 3.5)">20</text><text x="0" y="190.07692307692307" transform="translate(-14, 3.5)">10</text><text x="0" y="217.23076923076925" transform="translate(-7, 3.5)">0</text><text x="0" y="244.3846153846154" transform="translate(-18, 3.5)">-10</text><text x="0" y="271.53846153846155" transform="translate(-18, 3.5)">-20</text><text x="0" y="298.6923076923077" transform="translate(-18, 3.5)">-30</text><text x="0" y="325.84615384615387" transform="translate(-18, 3.5)">-40</text><text x="0" y="353.0" transform="translate(-18, 3.5)">-50</text></g></g><g><path stroke="#CCCCCC" stroke-dasharray="None" d="M0.0 0 v353.0 M80.0 0 v353.0 M160.0 0 v353.0 M240.0 0 v353.0 M320.0 0 v353.0 M400.0 0 v353.0 M480.0 0 v353.0 M560.0 0 v353.0" transform="translate(70.0, 87.0)"/><g font-size="12" font-family="Arial" fill="#444444" transform="translate(70.0, 105.0)"><text x="0.0" y="353.0" transform="translate(-2.0, 0)"> </text><text x="80.0" y="353.0" transform="translate(-8.5, 0)">Q1</text><text x="160.0" y="353.0" transform="translate(-8.5, 0)">Q2</text><text x="240.0" y="353.0" transform="translate(-8.5, 0)">Q3</text><text x="320.0" y="353.0" transform="translate(-8.5, 0)">Q4</text><text x="400.0" y="353.0" transform="translate(-8.5, 0)">Q5</text><text x="480.0" y="353.0" transform="translate(-8.5, 0)">Q6</text><text x="560.0" y="353.0" transform="translate(-2.0, 0)"> </text></g></g><path transform="translate(70.0, 87.0)" d="M0 217.2 h560.0z" stroke="black"/><g opacity="0.8" transform="translate(-70.0, -60.0) rotate(180, 350.0, 250.0) scale(-1, 1) translate(-560.0, 0) translate(-29.473684210526315, 135.76923076923077)"><path d="M80.0 0.0 h58.9 v32.6 h-58.9 v-32.6Z M160.0 0.0 h58.9 v-21.7 h-58.9 v21.7Z M240.0 0.0 h58.9 v59.7 h-58.9 v-59.7Z M320.0 0.0 h58.9 v48.9 h-58.9 v-48.9Z M400.0 0.0 h58.9 v-13.6 h-58.9 v13.6Z M480.0 0.0 h58.9 v81.5 h-58.9 v-81.5Z" fill="#5fab9e"/><path d="M80.0 0.0 h58.9 v-8.1 h-58.9 v8.1Z M160.0 -21.7 h58.9 v-40.7 h-58.9 v40.7Z M240.0 59.7 h58.9 v13.6 h-58.9 v-13.6Z M320.0 0.0 h58.9 v-5.4 h-58.9 v5.4Z M400.0 -13.6 h58.9 v-54.3 h-58.9 v54.3Z M480.0 81.5 h58.9 v21.7 h-58.9 v-21.7Z" fill="#f58b51"/><path d="M80.0 32.6 h58.9 v24.4 h-58.9 v-24.4Z M160.0 -62.5 h58.9 v-62.5 h-58.9 v62.5Z M240.0 73.3 h58.9 v46.2 h-58.9 v-46.2Z M320.0 48.9 h58.9 v43.4 h-58.9 v-43.4Z M400.0 -67.9 h58.9 v-67.9 h-58.9 v67.9Z M480.0 103.2 h58.9 v103.2 h-58.9 v-103.2Z" fill="#f7dd72"/></g></svg>