<svg xmlns="http://www.w3.org/2000/svg" width="600" height="400" viewBox="0 0 600 400"><path fill="#FFFFFF" d="M0 0 h600 v400 h-600 v-400Z"/><text transform="translate(0, 16.0)" fill="#444444" font-family="Roboto" font-weight="normal" font-size="16" text-anchor="middle" x="308.0" y="10.0">Quarterly Revenue by Product Line ($M)</text><defs><clipPath id="plot-clip"><rect x="0" y="0" width="524.0" height="336.0"/></clipPath></defs><g><path stroke="#CCCCCC" stroke-dasharray="None" d="M0 0.0 h524.0 M0 67.2 h524.0 M0 134.4 h524.0 M0 201.6 h524.0 M0 268.8 h524.0 M0 336.0 h524.0" transform="translate(46.0, 44.0)"/><g font-size="12" font-family="Arial" fill="#444444" transform="translate(40.0, 44.0)"><text x="0" y="0.0" transform="translate(-14, 3.5)">60</text><text x="0" y="67.2" transform="translate(-14, 3.5)">48</text><text x="0" y="134.4" transform="translate(-14, 3.5)">36</text><text x="0" y="201.6" transform="translate(-14, 3.5)">24</text><text x="0" y="268.8" transform="translate(-14, 3.5)">12</text><text x="0" y="336.0" transform="translate(-7, 3.5)">0</text></g></g><g><path stroke="#CCCCCC" stroke-dasharray="None" d="M0.0 0 v336.0 M104.80000000000001 0 v336.0 M209.60000000000002 0 v336.0 M314.4 0 v336.0 M419.20000000000005 0 v336.0 M524.0 0 v336.0" transform="translate(46.0, 44.0)"/><g font-size="12" font-family="Arial" fill="#444444" transform="translate(46.0, 62.0)"><text x="0.0" y="336.0" transform="translate(-2.0, 0)"> </text><text x="104.80000000000001" y="336.0" transform="translate(-8.5, 0)">Q1</text><text x="209.60000000000002" y="336.0" transform="translate(-8.5, 0)">Q2</text><text x="314.4" y="336.0" transform="translate(-8.5, 0)">Q3</text><text x="419.20000000000005" y="336.0" transform="translate(-8.5, 0)">Q4</text><text x="524.0" y="336.0" transform="translate(-2.0, 0)"> </text></g></g><g opacity="0.8" transform="translate(-30.0, -20.0) rotate(180, 300.0, 200.0) scale(-1, 1) translate(-524.0, 0) translate(-40.30769230769231, 0)"><path d="M104.8 0.0 h80.6 v67.2 h-80.6 v-67.2Z M209.6 0.0 h80.6 v100.8 h-80.6 v-100.8Z M314.4 0.0 h80.6 v123.2 h-80.6 v-123.2Z M419.2 0.0 h80.6 v156.8 h-80.6 v-156.8Z" fill="#5fab9e"/><path d="M104.8 67.2 h80.6 v44.8 h-80.6 v-44.8Z M209.6 100.8 h80.6 v56.0 h-80.6 v-56.0Z M314.4 123.2 h80.6 v84.0 h-80.6 v-84.0Z M419.2 156.8 h80.6 v106.4 h-80.6 v-106.4Z" fill="#f58b51"/><path d="M104.8 112.0 h80.6 v28.0 h-80.6 v-28.0Z M209.6 156.8 h80.6 v39.2 h-80.6 v-39.2Z M314.4 207.2 h80.6 v33.6 h-80.6 v-33.6Z M419.2 263.2 h80.6 v61.6 h-80.6 v-61.6Z" fill="#f7dd72"/></g><g><rect transform="translate(-5.475, -3.15)" x="487.525" y="51.15" width="83.94999999999999" height="48.3" fill="none" stroke="none"/><g><rect y="54.15" x="487.525" width="12" height="12" fill="#5fab9e"/><text y="63.15" x="501.525" font-size="12" font-family="Roboto" fill="#444444">SaaS</text></g><g><rect y="66.15" x="487.525" width="12" height="12" fill="#f58b51"/><text y="75.15" x="501.525" font-size="12" font-family="Roboto" fill="#444444">Consulting</text></g><g><rect y="78.15" x="487.525" width="12" height="12" fill="#f7dd72"/><text y="87.15" x="501.525" font-size="12" font-family="Roboto" fill="#444444">Hardware</text></g></g><path d="M46.0 44.0 v336.0 M46.0 380.0 h524.0" stroke="#999" stroke-width="1.5" fill="none"/><text x="14" y="212.0" fill="#444444" font-size="14" font-family="Roboto" text-anchor="middle" transform="rotate(-90, 14, 212.0)">Revenue ($M)</text></svg>