<svg xmlns="http://www.w3.org/2000/svg" width="500" height="500" viewBox="0 0 500 500">
  <g class="plot">
    <rect fill="white" stroke="#bbb" x="50.0" y="50.0" width="400.0" height="400.0"/>
    <g x1="50.0" y1="50.0" transform="translate(50.0, 50.0)" class="plot-grid">
      <g stroke="#ccc">
        <line x1="25.806451612903224" x2="25.806451612903224" y1="0" y2="400.0"/>
        <line x1="64.51612903225806" x2="64.51612903225806" y1="0" y2="400.0"/>
        <line x1="103.2258064516129" x2="103.2258064516129" y1="0" y2="400.0"/>
        <line x1="141.93548387096772" x2="141.93548387096772" y1="0" y2="400.0"/>
        <line x1="180.64516129032253" x2="180.64516129032253" y1="0" y2="400.0"/>
        <line x1="219.35483870967735" x2="219.35483870967735" y1="0" y2="400.0"/>
        <line x1="258.06451612903214" x2="258.06451612903214" y1="0" y2="400.0"/>
        <line x1="296.77419354838696" x2="296.77419354838696" y1="0" y2="400.0"/>
        <line x1="335.4838709677418" x2="335.4838709677418" y1="0" y2="400.0"/>
        <line x1="374.1935483870966" x2="374.1935483870966" y1="0" y2="400.0"/>
      </g>
      <g stroke="#ccc">
        <line x1="0" x2="400.0" y1="80.0" y2="80.0"/>
        <line x1="0" x2="400.0" y1="160.0" y2="160.0"/>
        <line x1="0" x2="400.0" y1="240.0" y2="240.0"/>
        <line x1="0" x2="400.0" y1="320.0" y2="320.0"/>
        <line x1="0" x2="400.0" y1="400.0" y2="400.0"/>
      </g>
    </g>
  </g>
  <g transform="translate(-50.0, -50.0)">
    <g transform="rotate(180, 250.0, 250.0)" fill="red">
      <rect x="12.903225806451612" y="0" height="6.596578025149453" width="25.806451612903224"/>
      <rect x="51.61290322580645" y="0" height="14.70487184772899" width="25.806451612903224"/>
      <rect x="90.32258064516128" y="0" height="25.204425204425206" width="25.806451612903224"/>
      <rect x="129.0322580645161" y="0" height="79.98350855493713" width="25.806451612903224"/>
      <rect x="167.74193548387092" y="0" height="27.045969903112766" width="25.806451612903224"/>
      <rect x="206.45161290322574" y="0" height="130.83213083213084" width="25.806451612903224"/>
      <rect x="245.16129032258056" y="0" height="64.83886483886484" width="25.806451612903224"/>
      <rect x="283.8709677419354" y="0" height="86.08534322820037" width="25.806451612903224"/>
      <rect x="322.5806451612902" y="0" height="196.13825328111042" width="25.806451612903224"/>
      <rect x="361.290322580645" y="0" height="38.37009551295266" width="25.806451612903224"/>
    </g>
    <g transform="rotate(180, 250.0, 250.0)" fill="green">
      <rect x="12.903225806451612" y="6.596578025149453" height="64.6189789046932" width="25.806451612903224"/>
      <rect x="51.61290322580645" y="14.70487184772899" height="27.073455644884213" width="25.806451612903224"/>
      <rect x="90.32258064516128" y="25.204425204425206" height="52.030509173366326" width="25.806451612903224"/>
      <rect x="129.0322580645161" y="79.98350855493713" height="45.736274307702885" width="25.806451612903224"/>
      <rect x="167.74193548387092" y="27.045969903112766" height="4.919947777090634" width="25.806451612903224"/>
      <rect x="206.45161290322574" y="130.83213083213084" height="58.984401841544695" width="25.806451612903224"/>
      <rect x="245.16129032258056" y="64.83886483886484" height="45.02164502164502" width="25.806451612903224"/>
      <rect x="283.8709677419354" y="86.08534322820037" height="147.76334776334775" width="25.806451612903224"/>
      <rect x="322.5806451612902" y="196.13825328111042" height="125.19755376898235" width="25.806451612903224"/>
      <rect x="361.290322580645" y="38.37009551295266" height="65.88332302618016" width="25.806451612903224"/>
    </g>
    <g transform="rotate(180, 250.0, 250.0)" fill="blue">
      <rect x="12.903225806451612" y="71.21555692984265" height="15.117157974300833" width="25.806451612903224"/>
      <rect x="51.61290322580645" y="41.7783274926132" height="11.379097093382807" width="25.806451612903224"/>
      <rect x="90.32258064516128" y="77.23493437779153" height="11.84635470349756" width="25.806451612903224"/>
      <rect x="129.0322580645161" y="125.71978286264002" height="8.328179756751187" width="25.806451612903224"/>
      <rect x="167.74193548387092" y="31.9659176802034" height="50.32639318353604" width="25.806451612903224"/>
      <rect x="206.45161290322574" y="189.81653267367554" height="59.341716484573624" width="25.806451612903224"/>
      <rect x="245.16129032258056" y="109.86050986050986" height="90.42809042809043" width="25.806451612903224"/>
      <rect x="283.8709677419354" y="233.84869099154812" height="77.07001992716278" width="25.806451612903224"/>
      <rect x="322.5806451612902" y="321.33580705009274" height="78.66419294990723" width="25.806451612903224"/>
      <rect x="361.290322580645" y="104.25341853913282" height="139.79248264962553" width="25.806451612903224"/>
    </g>
  </g>
  <g transform="translate(50.0, 12)" class="x-axis">
    <text x="25.806451612903224" y="450.0" transform="translate(-5.857142857142857, 0) rotate(41.2034989432625, 25.806451612903224, 450.0)" font-size="12" font-family="Verdana">
      January
    </text>
    <text x="64.51612903225806" y="450.0" transform="translate(-5.75, 0) rotate(41.2034989432625, 64.51612903225806, 450.0)" font-size="12" font-family="Verdana">
      February
    </text>
    <text x="103.2258064516129" y="450.0" transform="translate(-6.4, 0) rotate(41.2034989432625, 103.2258064516129, 450.0)" font-size="12" font-family="Verdana">
      March
    </text>
    <text x="141.93548387096772" y="450.0" transform="translate(-4.6, 0) rotate(41.2034989432625, 141.93548387096772, 450.0)" font-size="12" font-family="Verdana">
      April
    </text>
    <text x="180.64516129032253" y="450.0" transform="translate(-7.333333333333333, 0) rotate(41.2034989432625, 180.64516129032253, 450.0)" font-size="12" font-family="Verdana">
      May
    </text>
    <text x="219.35483870967735" y="450.0" transform="translate(-6.25, 0) rotate(41.2034989432625, 219.35483870967735, 450.0)" font-size="12" font-family="Verdana">
      June
    </text>
    <text x="258.06451612903214" y="450.0" transform="translate(-5.25, 0) rotate(41.2034989432625, 258.06451612903214, 450.0)" font-size="12" font-family="Verdana">
      July
    </text>
    <text x="296.77419354838696" y="450.0" transform="translate(-6.0, 0) rotate(41.2034989432625, 296.77419354838696, 450.0)" font-size="12" font-family="Verdana">
      August
    </text>
    <text x="335.4838709677418" y="450.0" transform="translate(-6.222222222222222, 0) rotate(41.2034989432625, 335.4838709677418, 450.0)" font-size="12" font-family="Verdana">
      September
    </text>
    <text x="374.1935483870966" y="450.0" transform="translate(-5.857142857142857, 0) rotate(41.2034989432625, 374.1935483870966, 450.0)" font-size="12" font-family="Verdana">
      October
    </text>
  </g>
</svg>