<svg xmlns="http://www.w3.org/2000/svg" width="600" height="400" viewBox="0 0 600 400"><path fill="white" d="M0 0 h600 v400 h-600 v-400Z"/><text transform="translate(-85.5, 4.75)" font-family="Helvetica" font-weight="bold" font-size="16" x="300.0" y="20.0">Example Column Graph</text><g><path d="M0 0.0 h480.0 M0 22.90072839094253 h480.0 M0 45.80145678188506 h480.0 M0 68.70218517282758 h480.0 M0 91.60291356377012 h480.0 M0 114.50364195471263 h480.0 M0 137.40437034565517 h480.0 M0 160.30509873659767 h480.0 M0 183.20582712754023 h480.0 M0 206.10655551848274 h480.0 M0 229.00728390942527 h480.0 M0 251.90801230036777 h480.0 M0 274.80874069131033 h480.0 M0 297.70946908225284 h480.0" stroke="#CCCCCC" transform="translate(60.0, 40.0)"/><g font-size="12" font-family="Helvetica" transform="translate(54.0, 40.0)"><text x="0" y="0.0" transform="translate(-14, 3.5)">80</text><text x="0" y="22.90072839094253" transform="translate(-14, 3.5)">70</text><text x="0" y="45.80145678188506" transform="translate(-14, 3.5)">60</text><text x="0" y="68.70218517282758" transform="translate(-14, 3.5)">50</text><text x="0" y="91.60291356377012" transform="translate(-14, 3.5)">40</text><text x="0" y="114.50364195471263" transform="translate(-14, 3.5)">30</text><text x="0" y="137.40437034565517" transform="translate(-14, 3.5)">20</text><text x="0" y="160.30509873659767" transform="translate(-14, 3.5)">10</text><text x="0" y="183.20582712754023" transform="translate(-7, 3.5)">0</text><text x="0" y="206.10655551848274" transform="translate(-18, 3.5)">-10</text><text x="0" y="229.00728390942527" transform="translate(-18, 3.5)">-20</text><text x="0" y="251.90801230036777" transform="translate(-18, 3.5)">-30</text><text x="0" y="274.80874069131033" transform="translate(-18, 3.5)">-40</text><text x="0" y="297.70946908225284" transform="translate(-18, 3.5)">-50</text></g></g><g><path d="M480.0 0 v297.70946908225284 M0.0 0 v297.70946908225284 M60.0 0 v297.70946908225284 M120.0 0 v297.70946908225284 M180.0 0 v297.70946908225284 M240.0 0 v297.70946908225284 M300.0 0 v297.70946908225284 M360.0 0 v297.70946908225284 M420.0 0 v297.70946908225284 M480.0 0 v297.70946908225284" stroke="#CCCCCC" transform="translate(60.0, 40.0)"/><g font-size="12" font-family="Helvetica" transform="translate(60.0, 58.0)"><text x="480.0" y="297.70946908225284" transform="translate(-3.0, 0) rotate(27.05906604393069, 480.0, 297.70946908225284)"> </text><text x="0.0" y="297.70946908225284" transform="translate(-3.0, 0) rotate(27.05906604393069, 0.0, 297.70946908225284)"> </text><text x="60.0" y="297.70946908225284" transform="translate(-6.285714285714286, 0) rotate(27.05906604393069, 60.0, 297.70946908225284)">January</text><text x="120.0" y="297.70946908225284" transform="translate(-6.125, 0) rotate(27.05906604393069, 120.0, 297.70946908225284)">February</text><text x="180.0" y="297.70946908225284" transform="translate(-6.8, 0) rotate(27.05906604393069, 180.0, 297.70946908225284)">March</text><text x="240.0" y="297.70946908225284" transform="translate(-5.0, 0) rotate(27.05906604393069, 240.0, 297.70946908225284)">April</text><text x="300.0" y="297.70946908225284" transform="translate(-7.666666666666667, 0) rotate(27.05906604393069, 300.0, 297.70946908225284)">May</text><text x="360.0" y="297.70946908225284" transform="translate(-6.75, 0) rotate(27.05906604393069, 360.0, 297.70946908225284)">June</text><text x="420.0" y="297.70946908225284" transform="translate(-5.5, 0) rotate(27.05906604393069, 420.0, 297.70946908225284)">July</text><text x="480.0" y="297.70946908225284" transform="translate(-3.0, 0) rotate(27.05906604393069, 480.0, 297.70946908225284)"> </text></g></g><path transform="translate(60.0, 40.0)" d="M0 183.2058271275402 h480.0z" stroke="black"/><g opacity="0.8" transform="translate(-60.0, -62.29053091774715) rotate(180, 300.0, 200.0) scale(-1, 1) translate(-480.0, 0.0) translate(-21.818181818181817, 114.50364195471263)"><path d="M60.0 0.0 h43.63636363636363 v22.442713823123675 h-43.63636363636363 v-22.442713823123675Z M120.0 0.0 h43.63636363636363 v-68.24417060500873 h-43.63636363636363 v68.24417060500873Z M180.0 0.0 h43.63636363636363 v51.75564616353011 h-43.63636363636363 v-51.75564616353011Z M240.0 0.0 h43.63636363636363 v103.05327775924137 h-43.63636363636363 v-103.05327775924137Z M300.0 0.0 h43.63636363636363 v77.40446196138572 h-43.63636363636363 v-77.40446196138572Z M360.0 0.0 h43.63636363636363 v81.06857850393654 h-43.63636363636363 v-81.06857850393654Z M420.0 0.0 h43.63636363636363 v101.22121948796597 h-43.63636363636363 v-101.22121948796597Z" fill="#5fab9e"/><path d="M60.0 22.442713823123675 h43.63636363636363 v20.38164826793885 h-43.63636363636363 v-20.38164826793885Z M120.0 0.0 h43.63636363636363 v75.80141097401976 h-43.63636363636363 v-75.80141097401976Z M180.0 0.0 h43.63636363636363 v-62.06097393945425 h-43.63636363636363 v62.06097393945425Z M240.0 103.05327775924137 h43.63636363636363 v71.45027257974068 h-43.63636363636363 v-71.45027257974068Z M300.0 0.0 h43.63636363636363 v-35.26712172205149 h-43.63636363636363 v35.26712172205149Z M360.0 81.06857850393654 h43.63636363636363 v74.65637455447265 h-43.63636363636363 v-74.65637455447265Z M420.0 101.22121948796597 h43.63636363636363 v45.3434422140662 h-43.63636363636363 v-45.3434422140662Z" fill="#f58b51"/><path d="M60.0 0.0 h43.63636363636363 v-73.28233085101608 h-43.63636363636363 v73.28233085101608Z M120.0 75.80141097401976 h43.63636363636363 v73.96935270274435 h-43.63636363636363 v-73.96935270274435Z M180.0 51.75564616353011 h43.63636363636363 v104.65632874660736 h-43.63636363636363 v-104.65632874660736Z M240.0 0.0 h43.63636363636363 v-7.5572403690110335 h-43.63636363636363 v7.5572403690110335Z M300.0 -35.26712172205149 h43.63636363636363 v-76.2594255418386 h-43.63636363636363 v76.2594255418386Z M360.0 0.0 h43.63636363636363 v-35.95414357377977 h-43.63636363636363 v35.95414357377977Z M420.0 0.0 h43.63636363636363 v-88.39681158903817 h-43.63636363636363 v88.39681158903817Z" fill="#f7dd72"/></g></svg>