<svg xmlns="http://www.w3.org/2000/svg" width="700" height="400" viewBox="0 0 700 400"><path fill="white" d="M0 0 h700 v400 h-700 v-400Z"/><text transform="translate(-106.5, 19)" fill="#444444" font-family="Helvetica" font-weight="bold" font-size="16" x="350.0" y="10.0">Sales Performance by Region</text><g><path stroke="#CCCCCC" stroke-dasharray="None" d="M0 0.0 h599.0 M0 66.3 h599.0 M0 132.6 h599.0 M0 198.9 h599.0 M0 265.2 h599.0 M0 331.5 h599.0" transform="translate(66.0, 48.5)"/><g font-size="12" font-family="Helvetica" transform="translate(60.0, 48.5)"><text x="0" y="0.0" transform="translate(-21, 3.5)">200</text><text x="0" y="66.3" transform="translate(-21, 3.5)">160</text><text x="0" y="132.6" transform="translate(-21, 3.5)">120</text><text x="0" y="198.9" transform="translate(-14, 3.5)">80</text><text x="0" y="265.2" transform="translate(-14, 3.5)">40</text><text x="0" y="331.5" transform="translate(-7, 3.5)">0</text></g></g><g><path stroke="#CCCCCC" stroke-dasharray="None" d="M0.0 0 v331.5 M119.80000000000001 0 v331.5 M239.60000000000002 0 v331.5 M359.4 0 v331.5 M479.20000000000005 0 v331.5 M599.0 0 v331.5" transform="translate(66.0, 48.5)"/><g font-size="12" font-family="Helvetica" transform="translate(66.0, 66.5)"><text x="0.0" y="331.5" transform="translate(-1.5, 0)"> </text><text x="119.80000000000001" y="331.5" transform="translate(-8.0, 0)">Q1</text><text x="239.60000000000002" y="331.5" transform="translate(-8.0, 0)">Q2</text><text x="359.4" y="331.5" transform="translate(-8.0, 0)">Q3</text><text x="479.20000000000005" y="331.5" transform="translate(-8.0, 0)">Q4</text><text x="599.0" y="331.5" transform="translate(-1.5, 0)"> </text></g></g><g opacity="0.8" transform="translate(-35.0, -20.0) rotate(180, 350.0, 200.0) scale(-1, 1) translate(-599.0, 0) translate(-46.07692307692308, 0)"><path d="M119.80000000000001 0.0 h92.15384615384616 v74.5875 h-92.15384615384616 v-74.5875Z M239.60000000000002 0.0 h92.15384615384616 v86.19 h-92.15384615384616 v-86.19Z M359.40000000000003 0.0 h92.15384615384616 v62.985 h-92.15384615384616 v-62.985Z M479.2 0.0 h92.15384615384616 v101.1075 h-92.15384615384616 v-101.1075Z" fill="#5fab9e"/><path d="M119.80000000000001 74.5875 h92.15384615384616 v62.985 h-92.15384615384616 v-62.985Z M239.60000000000002 86.19 h92.15384615384616 v76.245 h-92.15384615384616 v-76.245Z M359.40000000000003 62.985 h92.15384615384616 v86.19 h-92.15384615384616 v-86.19Z M479.2 101.1075 h92.15384615384616 v81.2175 h-92.15384615384616 v-81.2175Z" fill="#f58b51"/><path d="M119.80000000000001 137.5725 h92.15384615384616 v86.19 h-92.15384615384616 v-86.19Z M239.60000000000002 162.435 h92.15384615384616 v64.6425 h-92.15384615384616 v-64.6425Z M359.40000000000003 149.175 h92.15384615384616 v76.245 h-92.15384615384616 v-76.245Z M479.2 182.32500000000002 h92.15384615384616 v84.5325 h-92.15384615384616 v-84.5325Z" fill="#f7dd72"/></g></svg>