<svg xmlns="http://www.w3.org/2000/svg" width="600" height="400" viewBox="0 0 600 400"><path fill="#FFFFFF" d="M0 0 h600 v400 h-600 v-400Z"/><text transform="translate(0, 16.0)" fill="#444444" font-family="Roboto" font-weight="normal" font-size="16" text-anchor="middle" x="308.0" y="10.0">Developer Survey: Language Popularity (%)</text><defs><clipPath id="plot-clip"><rect x="0" y="0" width="524.0" height="336.0"/></clipPath></defs><g><path stroke="#CCCCCC" stroke-dasharray="None" d="M0 0.0 h524.0 M0 67.2 h524.0 M0 134.4 h524.0 M0 201.6 h524.0 M0 268.8 h524.0 M0 336.0 h524.0" transform="translate(46.0, 44.0)"/><g font-size="12" font-family="Arial" fill="#444444" transform="translate(40.0, 44.0)"><text x="0" y="0.0" transform="translate(-14, 3.5)">70</text><text x="0" y="67.2" transform="translate(-14, 3.5)">56</text><text x="0" y="134.4" transform="translate(-14, 3.5)">42</text><text x="0" y="201.6" transform="translate(-14, 3.5)">28</text><text x="0" y="268.8" transform="translate(-14, 3.5)">14</text><text x="0" y="336.0" transform="translate(-7, 3.5)">0</text></g></g><g><path stroke="#CCCCCC" stroke-dasharray="None" d="M0.0 0 v336.0 M87.33333333333333 0 v336.0 M174.66666666666666 0 v336.0 M262.0 0 v336.0 M349.3333333333333 0 v336.0 M436.6666666666667 0 v336.0 M524.0 0 v336.0" transform="translate(46.0, 44.0)"/><g font-size="12" font-family="Arial" fill="#444444" transform="translate(46.0, 62.0)"><text x="0.0" y="336.0" transform="translate(-2.0, 0)"> </text><text x="87.33333333333333" y="336.0" transform="translate(-20.0, 0)">Python</text><text x="174.66666666666666" y="336.0" transform="translate(-29.5, 0)">JavaScript</text><text x="262.0" y="336.0" transform="translate(-8.5, 0)">Go</text><text x="349.3333333333333" y="336.0" transform="translate(-13.0, 0)">Rust</text><text x="436.6666666666667" y="336.0" transform="translate(-30.5, 0)">TypeScript</text><text x="524.0" y="336.0" transform="translate(-2.0, 0)"> </text></g></g><g opacity="0.8" transform="translate(-30.0, -20.0) rotate(180, 300.0, 200.0) scale(-1, 1) translate(-524.0, 0) translate(-32.75, 0)"><path d="M71.0 0 h32.8 v321.6 h-32.8 v-321.6Z M169.2 0 h32.8 v216.0 h-32.8 v-216.0Z M267.5 0 h32.8 v182.4 h-32.8 v-182.4Z M365.7 0 h32.8 v144.0 h-32.8 v-144.0Z M464.0 0 h32.8 v105.6 h-32.8 v-105.6Z" fill="#5fab9e"/><path d="M103.7 0 h32.8 v297.6 h-32.8 v-297.6Z M202.0 0 h32.8 v230.4 h-32.8 v-230.4Z M300.2 0 h32.8 v201.6 h-32.8 v-201.6Z M398.5 0 h32.8 v168.0 h-32.8 v-168.0Z M496.7 0 h32.8 v134.4 h-32.8 v-134.4Z" fill="#f58b51"/></g><g><rect transform="translate(-3.15, -2.1)" x="520.85" y="50.1" width="48.3" height="32.199999999999996" fill="#f5f5f5" fill-opacity="0.85" stroke="none"/><g><rect y="52.099999999999994" x="520.85" width="12" height="12" fill="#5fab9e"/><text y="61.099999999999994" x="534.85" font-size="12" font-family="Roboto" fill="#444444">2024</text></g><g><rect y="64.1" x="520.85" width="12" height="12" fill="#f58b51"/><text y="73.1" x="534.85" font-size="12" font-family="Roboto" fill="#444444">2025</text></g></g><path d="M46.0 44.0 v336.0 M46.0 380.0 h524.0" stroke="#999" stroke-width="1.5" fill="none"/><text x="14" y="212.0" fill="#444444" font-size="14" font-family="Roboto" text-anchor="middle" transform="rotate(-90, 14, 212.0)">Respondents (%)</text></svg>