<svg xmlns="http://www.w3.org/2000/svg" width="600" height="400" viewBox="0 0 600 400"><path fill="#FFFFFF" d="M0 0 h600 v400 h-600 v-400Z"/><text transform="translate(-247.0, 30)" fill="#444444" font-family="JetBrains Mono" font-weight="normal" font-size="16" x="300.0" y="10.0">Quarterly Revenue by Product Line ($M)</text><defs><clipPath id="plot-clip"><rect x="0" y="0" width="524.0" height="315.0"/></clipPath></defs><g><path stroke="#CCCCCC" stroke-dasharray="None" d="M0 0.0 h524.0 M0 63.0 h524.0 M0 126.0 h524.0 M0 189.0 h524.0 M0 252.0 h524.0 M0 315.0 h524.0" transform="translate(46.0, 65.0)"/><g font-size="12" font-family="Arial" fill="#444444" transform="translate(40.0, 65.0)"><text x="0" y="0.0" transform="translate(-14, 3.5)">60</text><text x="0" y="63.0" transform="translate(-14, 3.5)">48</text><text x="0" y="126.0" transform="translate(-14, 3.5)">36</text><text x="0" y="189.0" transform="translate(-14, 3.5)">24</text><text x="0" y="252.0" transform="translate(-14, 3.5)">12</text><text x="0" y="315.0" transform="translate(-7, 3.5)">0</text></g></g><g><path stroke="#CCCCCC" stroke-dasharray="None" d="M0.0 0 v315.0 M104.80000000000001 0 v315.0 M209.60000000000002 0 v315.0 M314.4 0 v315.0 M419.20000000000005 0 v315.0 M524.0 0 v315.0" transform="translate(46.0, 65.0)"/><g font-size="12" font-family="Arial" fill="#444444" transform="translate(46.0, 83.0)"><text x="0.0" y="315.0" transform="translate(-2.0, 0)"> </text><text x="104.80000000000001" y="315.0" transform="translate(-8.5, 0)">Q1</text><text x="209.60000000000002" y="315.0" transform="translate(-8.5, 0)">Q2</text><text x="314.4" y="315.0" transform="translate(-8.5, 0)">Q3</text><text x="419.20000000000005" y="315.0" transform="translate(-8.5, 0)">Q4</text><text x="524.0" y="315.0" transform="translate(-2.0, 0)"> </text></g></g><g opacity="0.8" transform="translate(-30.0, -20.0) rotate(180, 300.0, 200.0) scale(-1, 1) translate(-524.0, 0) translate(-40.30769230769231, 0)"><path d="M104.8 0.0 h80.6 v63.0 h-80.6 v-63.0Z M209.6 0.0 h80.6 v94.5 h-80.6 v-94.5Z M314.4 0.0 h80.6 v115.5 h-80.6 v-115.5Z M419.2 0.0 h80.6 v147.0 h-80.6 v-147.0Z" fill="#5fab9e"/><path d="M104.8 63.0 h80.6 v42.0 h-80.6 v-42.0Z M209.6 94.5 h80.6 v52.5 h-80.6 v-52.5Z M314.4 115.5 h80.6 v78.8 h-80.6 v-78.8Z M419.2 147.0 h80.6 v99.8 h-80.6 v-99.8Z" fill="#f58b51"/><path d="M104.8 105.0 h80.6 v26.2 h-80.6 v-26.2Z M209.6 147.0 h80.6 v36.8 h-80.6 v-36.8Z M314.4 194.2 h80.6 v31.5 h-80.6 v-31.5Z M419.2 246.8 h80.6 v57.7 h-80.6 v-57.7Z" fill="#f7dd72"/></g><g><rect transform="translate(-18.25, -10.5)" x="474.75" y="79.5" width="109.5" height="63.0" fill="#f5f5f5" stroke="#d7d7d7"/><g><rect y="82.5" x="474.75" width="12" height="12" fill="#5fab9e"/><text y="91.5" x="488.75" font-size="12" font-family="Arial" fill="#444444">SaaS</text></g><g><rect y="94.5" x="474.75" width="12" height="12" fill="#f58b51"/><text y="103.5" x="488.75" font-size="12" font-family="Arial" fill="#444444">Consulting</text></g><g><rect y="106.5" x="474.75" width="12" height="12" fill="#f7dd72"/><text y="115.5" x="488.75" font-size="12" font-family="Arial" fill="#444444">Hardware</text></g></g><path d="M46.0 65.0 v315.0 M46.0 380.0 h524.0" stroke="#999" stroke-width="1.5" fill="none"/><text x="14" y="222.5" fill="#444444" font-size="14" font-family="JetBrains Mono" text-anchor="middle" transform="rotate(-90, 14, 222.5)">Revenue ($M)</text></svg>