<svg xmlns="http://www.w3.org/2000/svg" width="700" height="400" viewBox="0 0 700 400"><path fill="white" d="M0 0 h700 v400 h-700 v-400Z"/><text transform="translate(-126.5, 19)" fill="#444444" font-family="Helvetica" font-weight="bold" font-size="16" x="350.0" y="10.0">Year-over-Year Growth by Segment</text><g><path stroke="#CCCCCC" stroke-dasharray="None" d="M0 0.0 h602.0 M0 66.3 h602.0 M0 132.6 h602.0 M0 198.9 h602.0 M0 265.2 h602.0 M0 331.5 h602.0" transform="translate(63.0, 48.5)"/><g font-size="12" font-family="Helvetica" transform="translate(57.0, 48.5)"><text x="0" y="0.0" transform="translate(-14, 3.5)">30</text><text x="0" y="66.3" transform="translate(-14, 3.5)">20</text><text x="0" y="132.6" transform="translate(-14, 3.5)">10</text><text x="0" y="198.9" transform="translate(-7, 3.5)">0</text><text x="0" y="265.2" transform="translate(-18, 3.5)">-10</text><text x="0" y="331.5" transform="translate(-18, 3.5)">-20</text></g></g><g><path stroke="#CCCCCC" stroke-dasharray="None" d="M0.0 0 v331.5 M150.5 0 v331.5 M301.0 0 v331.5 M451.5 0 v331.5 M602.0 0 v331.5" transform="translate(63.0, 48.5)"/><g font-size="12" font-family="Helvetica" transform="translate(63.0, 66.5)"><text x="0.0" y="331.5" transform="translate(-1.5, 0)"> </text><text x="150.5" y="331.5" transform="translate(-8.0, 0)">Q1</text><text x="301.0" y="331.5" transform="translate(-8.0, 0)">Q2</text><text x="451.5" y="331.5" transform="translate(-8.0, 0)">Q3</text><text x="602.0" y="331.5" transform="translate(-1.5, 0)"> </text></g></g><path transform="translate(63.0, 48.5)" d="M0 198.9 h602.0z" stroke="black"/><g opacity="0.8" transform="translate(-35.0, -20.0) rotate(180, 350.0, 200.0) scale(-1, 1) translate(-602.0, 0) translate(0.0, 265.2)"><path d="M60.2 132.6 h40.13333333333333 v79.56 h-40.13333333333333 v-79.56Z M240.8 132.6 h40.13333333333333 v145.85999999999999 h-40.13333333333333 v-145.85999999999999Z M421.40000000000003 132.6 h40.13333333333333 v198.9 h-40.13333333333333 v-198.9Z" fill="#5fab9e"/><path d="M100.33333333333334 79.56 h40.13333333333333 v53.03999999999999 h-40.13333333333333 v-53.03999999999999Z M280.93333333333334 33.15 h40.13333333333333 v99.44999999999999 h-40.13333333333333 v-99.44999999999999Z M461.53333333333336 0.0 h40.13333333333333 v132.6 h-40.13333333333333 v-132.6Z" fill="#f58b51"/><path d="M140.46666666666667 159.12 h40.13333333333333 v53.03999999999999 h-40.13333333333333 v-53.03999999999999Z M321.06666666666666 179.01000000000002 h40.13333333333333 v99.44999999999996 h-40.13333333333333 v-99.44999999999996Z M501.6666666666667 198.9 h40.13333333333333 v132.6 h-40.13333333333333 v-132.6Z" fill="#f7dd72"/></g><g><rect transform="translate(-8.0, -5.625)" x="589.0" y="58.125" width="80.0" height="56.25" fill="#ffffff" stroke="#CCCCCC"/><g transform="translate(0, 13)"><rect y="45.125" x="589.0" width="13" height="13" fill="#5fab9e"/><text y="54.875" x="604.0" font-size="11" font-family="Helvetica">Revenue</text></g><g transform="translate(0, 15)"><rect y="58.125" x="589.0" width="13" height="13" fill="#f58b51"/><text y="67.875" x="604.0" font-size="11" font-family="Helvetica">Costs</text></g><g transform="translate(0, 17)"><rect y="71.125" x="589.0" width="13" height="13" fill="#f7dd72"/><text y="80.875" x="604.0" font-size="11" font-family="Helvetica">Net</text></g></g></svg>