<svg xmlns="http://www.w3.org/2000/svg" width="700" height="400" viewBox="0 0 700 400"><path fill="white" d="M0 0 h700 v400 h-700 v-400Z"/><text transform="translate(-110.0, 18)" fill="#444444" font-family="Arial" font-weight="bold" font-size="16" x="350.0" y="10.0">Sales Performance by Region</text><g><path stroke="#CCCCCC" stroke-dasharray="None" d="M0 0.0 h630.0 M0 66.60000000000001 h630.0 M0 133.20000000000002 h630.0 M0 199.79999999999998 h630.0 M0 266.40000000000003 h630.0 M0 333.0 h630.0" transform="translate(35.0, 47.0)"/><g font-size="12" font-family="Arial" transform="translate(29.0, 47.0)"><text x="0" y="0.0" transform="translate(-14, 3.5)">65</text><text x="0" y="66.60000000000001" transform="translate(-14, 3.5)">52</text><text x="0" y="133.20000000000002" transform="translate(-14, 3.5)">39</text><text x="0" y="199.79999999999998" transform="translate(-14, 3.5)">26</text><text x="0" y="266.40000000000003" transform="translate(-14, 3.5)">13</text><text x="0" y="333.0" transform="translate(-7, 3.5)">0</text></g></g><g><path stroke="#CCCCCC" stroke-dasharray="None" d="M0.0 0 v333.0 M126.0 0 v333.0 M252.0 0 v333.0 M378.0 0 v333.0 M504.0 0 v333.0 M630.0 0 v333.0" transform="translate(35.0, 47.0)"/><g font-size="12" font-family="Arial" transform="translate(35.0, 65.0)"><text x="0.0" y="333.0" transform="translate(-2.0, 0)"> </text><text x="126.0" y="333.0" transform="translate(-8.5, 0)">Q1</text><text x="252.0" y="333.0" transform="translate(-8.5, 0)">Q2</text><text x="378.0" y="333.0" transform="translate(-8.5, 0)">Q3</text><text x="504.0" y="333.0" transform="translate(-8.5, 0)">Q4</text><text x="630.0" y="333.0" transform="translate(-2.0, 0)"> </text></g></g><g opacity="0.8" transform="translate(-35.0, -20.0) rotate(180, 350.0, 200.0) scale(-1, 1) translate(-630.0, 0) translate(-48.46153846153846, 0)"><path d="M93.6923076923077 0 h32.30769230769231 v230.53846153846152 h-32.30769230769231 v-230.53846153846152Z M239.07692307692304 0 h32.30769230769231 v266.40000000000003 h-32.30769230769231 v-266.40000000000003Z M384.46153846153845 0 h32.30769230769231 v194.6769230769231 h-32.30769230769231 v-194.6769230769231Z M529.8461538461539 0 h32.30769230769231 v312.5076923076923 h-32.30769230769231 v-312.5076923076923Z" fill="#5fab9e"/><path d="M126.0 0 h32.30769230769231 v194.6769230769231 h-32.30769230769231 v-194.6769230769231Z M271.38461538461536 0 h32.30769230769231 v235.66153846153847 h-32.30769230769231 v-235.66153846153847Z M416.7692307692308 0 h32.30769230769231 v266.40000000000003 h-32.30769230769231 v-266.40000000000003Z M562.1538461538462 0 h32.30769230769231 v251.03076923076924 h-32.30769230769231 v-251.03076923076924Z" fill="#f58b51"/><path d="M158.30769230769232 0 h32.30769230769231 v266.40000000000003 h-32.30769230769231 v-266.40000000000003Z M303.6923076923076 0 h32.30769230769231 v199.79999999999998 h-32.30769230769231 v-199.79999999999998Z M449.0769230769231 0 h32.30769230769231 v235.66153846153847 h-32.30769230769231 v-235.66153846153847Z M594.4615384615386 0 h32.30769230769231 v261.2769230769231 h-32.30769230769231 v-261.2769230769231Z" fill="#f7dd72"/></g><g><rect transform="translate(-5.875, -5.25)" x="608.125" y="56.25" width="58.75" height="52.5" fill="#ffffff" stroke="#CCCCCC"/><g><rect y="59.25" x="608.125" width="12" height="12" fill="#5fab9e"/><text y="68.25" x="622.125" font-size="12" font-family="Arial">North</text></g><g><rect y="71.25" x="608.125" width="12" height="12" fill="#f58b51"/><text y="80.25" x="622.125" font-size="12" font-family="Arial">South</text></g><g><rect y="83.25" x="608.125" width="12" height="12" fill="#f7dd72"/><text y="92.25" x="622.125" font-size="12" font-family="Arial">East</text></g></g></svg>