<svg xmlns="http://www.w3.org/2000/svg" width="700" height="400" viewBox="0 0 700 400"><path fill="#FFFFFF" d="M0 0 h700 v400 h-700 v-400Z"/><text transform="translate(-133.0, 18)" fill="#444444" font-family="Arial" font-weight="bold" font-size="16" x="350.0" y="10.0">Year-over-Year Growth by Segment</text><defs><clipPath id="plot-clip"><rect x="0" y="0" width="630.0" height="333.0"/></clipPath></defs><g><path stroke="#cccccc" stroke-dasharray="None" d="M0 0.0 h630.0 M0 55.5 h630.0 M0 111.0 h630.0 M0 166.5 h630.0 M0 222.0 h630.0 M0 277.5 h630.0 M0 333.0 h630.0" transform="translate(35.0, 47.0)"/><g font-size="12" font-family="Arial" fill="#000000" transform="translate(29.0, 47.0)"><text x="0" y="0.0" transform="translate(-14, 3.5)">40</text><text x="0" y="55.5" transform="translate(-14, 3.5)">30</text><text x="0" y="111.0" transform="translate(-14, 3.5)">20</text><text x="0" y="166.5" transform="translate(-14, 3.5)">10</text><text x="0" y="222.0" transform="translate(-7, 3.5)">0</text><text x="0" y="277.5" transform="translate(-18, 3.5)">-10</text><text x="0" y="333.0" transform="translate(-18, 3.5)">-20</text></g></g><g><path stroke="#cccccc" stroke-dasharray="None" d="M0.0 0 v333.0 M157.5 0 v333.0 M315.0 0 v333.0 M472.5 0 v333.0 M630.0 0 v333.0" transform="translate(35.0, 47.0)"/><g font-size="12" font-family="Arial" fill="#000000" transform="translate(35.0, 65.0)"><text x="0.0" y="333.0" transform="translate(-2.0, 0)"> </text><text x="157.5" y="333.0" transform="translate(-8.5, 0)">Q1</text><text x="315.0" y="333.0" transform="translate(-8.5, 0)">Q2</text><text x="472.5" y="333.0" transform="translate(-8.5, 0)">Q3</text><text x="630.0" y="333.0" transform="translate(-2.0, 0)"> </text></g></g><path transform="translate(35.0, 47.0)" d="M0 222.0 h630.0z" stroke="#666666"/><g opacity="0.8" transform="translate(-35.0, -20.0) rotate(180, 350.0, 200.0) scale(-1, 1) translate(-630.0, 0) translate(-63.0, 111.0)"><path d="M157.5 0.0 h126.0 v66.6 h-126.0 v-66.6Z M315.0 0.0 h126.0 v122.1 h-126.0 v-122.1Z M472.5 0.0 h126.0 v166.5 h-126.0 v-166.5Z" fill="#5fab9e"/><path d="M157.5 0.0 h126.0 v-44.4 h-126.0 v44.4Z M315.0 0.0 h126.0 v-83.2 h-126.0 v83.2Z M472.5 0.0 h126.0 v-111.0 h-126.0 v111.0Z" fill="#f58b51"/><path d="M157.5 66.6 h126.0 v22.2 h-126.0 v-22.2Z M315.0 122.1 h126.0 v38.9 h-126.0 v-38.9Z M472.5 166.5 h126.0 v55.5 h-126.0 v-55.5Z" fill="#f7dd72"/></g><g><rect transform="translate(-4.725, -3.5999999999999996)" x="593.275" y="54.6" width="72.44999999999999" height="55.199999999999996" fill="#f5f5f5" fill-opacity="0.85" stroke="none"/><g><rect y="56.599999999999994" x="593.275" width="12" height="12" fill="#5fab9e"/><text y="65.6" x="607.275" font-size="12" font-family="Arial" fill="#444444">Revenue</text></g><g><rect y="72.6" x="593.275" width="12" height="12" fill="#f58b51"/><text y="81.6" x="607.275" font-size="12" font-family="Arial" fill="#444444">Costs</text></g><g><rect y="88.6" x="593.275" width="12" height="12" fill="#f7dd72"/><text y="97.6" x="607.275" font-size="12" font-family="Arial" fill="#444444">Net</text></g></g><path d="M35.0 47.0 v333.0 M35.0 380.0 h630.0" stroke="#999" stroke-width="1.5" fill="none"/></svg>