<svg xmlns="http://www.w3.org/2000/svg" width="600" height="400" viewBox="0 0 600 400"><path fill="white" d="M0 0 h600 v400 h-600 v-400Z"/><text transform="translate(-85.5, 4.75)" font-family="Helvetica" font-weight="bold" font-size="16" x="300.0" y="20.0">Example Column Graph</text><g><path stroke="#CCCCCC" stroke-dasharray="None" d="M0 0.0 h456.0 M0 22.605761816492112 h456.0 M0 45.211523632984225 h456.0 M0 67.81728544947634 h456.0 M0 90.42304726596845 h456.0 M0 113.02880908246057 h456.0 M0 135.6345708989527 h456.0 M0 158.24033271544477 h456.0 M0 180.8460945319369 h456.0 M0 203.451856348429 h456.0 M0 226.05761816492114 h456.0 M0 248.66337998141321 h456.0 M0 271.2691417979054 h456.0 M0 293.87490361439745 h456.0" transform="translate(84.0, 40.0)"/><g font-size="12" font-family="Helvetica" transform="translate(78.0, 40.0)"><text x="0" y="0.0" transform="translate(-14, 3.5)">80</text><text x="0" y="22.605761816492112" transform="translate(-14, 3.5)">70</text><text x="0" y="45.211523632984225" transform="translate(-14, 3.5)">60</text><text x="0" y="67.81728544947634" transform="translate(-14, 3.5)">50</text><text x="0" y="90.42304726596845" transform="translate(-14, 3.5)">40</text><text x="0" y="113.02880908246057" transform="translate(-14, 3.5)">30</text><text x="0" y="135.6345708989527" transform="translate(-14, 3.5)">20</text><text x="0" y="158.24033271544477" transform="translate(-14, 3.5)">10</text><text x="0" y="180.8460945319369" transform="translate(-7, 3.5)">0</text><text x="0" y="203.451856348429" transform="translate(-18, 3.5)">-10</text><text x="0" y="226.05761816492114" transform="translate(-18, 3.5)">-20</text><text x="0" y="248.66337998141321" transform="translate(-18, 3.5)">-30</text><text x="0" y="271.2691417979054" transform="translate(-18, 3.5)">-40</text><text x="0" y="293.87490361439745" transform="translate(-18, 3.5)">-50</text></g></g><g><path stroke="#CCCCCC" stroke-dasharray="None" d="M456.0 0 v293.87490361439745 M0.0 0 v293.87490361439745 M57.0 0 v293.87490361439745 M114.0 0 v293.87490361439745 M171.0 0 v293.87490361439745 M228.0 0 v293.87490361439745 M285.0 0 v293.87490361439745 M342.0 0 v293.87490361439745 M399.0 0 v293.87490361439745 M456.0 0 v293.87490361439745" transform="translate(84.0, 40.0)"/><g font-size="12" font-family="Helvetica" transform="translate(84.0, 58.0)"><text x="456.0" y="293.87490361439745" transform="translate(-3.0, 0) rotate(32.21956734852319, 456.0, 293.87490361439745)"> </text><text x="0.0" y="293.87490361439745" transform="translate(-3.0, 0) rotate(32.21956734852319, 0.0, 293.87490361439745)"> </text><text x="57.0" y="293.87490361439745" transform="translate(-6.285714285714286, 0) rotate(32.21956734852319, 57.0, 293.87490361439745)">January</text><text x="114.0" y="293.87490361439745" transform="translate(-6.125, 0) rotate(32.21956734852319, 114.0, 293.87490361439745)">February</text><text x="171.0" y="293.87490361439745" transform="translate(-6.8, 0) rotate(32.21956734852319, 171.0, 293.87490361439745)">March</text><text x="228.0" y="293.87490361439745" transform="translate(-5.0, 0) rotate(32.21956734852319, 228.0, 293.87490361439745)">April</text><text x="285.0" y="293.87490361439745" transform="translate(-7.666666666666667, 0) rotate(32.21956734852319, 285.0, 293.87490361439745)">May</text><text x="342.0" y="293.87490361439745" transform="translate(-6.75, 0) rotate(32.21956734852319, 342.0, 293.87490361439745)">June</text><text x="399.0" y="293.87490361439745" transform="translate(-5.5, 0) rotate(32.21956734852319, 399.0, 293.87490361439745)">July</text><text x="456.0" y="293.87490361439745" transform="translate(-3.0, 0) rotate(32.21956734852319, 456.0, 293.87490361439745)"> </text></g></g><path transform="translate(84.0, 40.0)" d="M0 180.8460945319369 h456.0z" stroke="black"/><g opacity="0.8" transform="translate(-60.0, -66.12509638560257) rotate(180, 300.0, 200.0) scale(-1, 1) translate(-456.0, 0.0) translate(-20.727272727272727, 113.02880908246057)"><path d="M57.0 0.0 h41.45454545454545 v22.15364658016227 h-41.45454545454545 v-22.15364658016227Z M114.0 0.0 h41.45454545454545 v-67.3651702131465 h-41.45454545454545 v67.3651702131465Z M171.0 0.0 h41.45454545454545 v51.089021705272174 h-41.45454545454545 v-51.089021705272174Z M228.0 0.0 h41.45454545454545 v101.7259281742145 h-41.45454545454545 v-101.7259281742145Z M285.0 0.0 h41.45454545454545 v76.40747493974332 h-41.45454545454545 v-76.40747493974332Z M342.0 0.0 h41.45454545454545 v80.02439683038207 h-41.45454545454545 v-80.02439683038207Z M399.0 0.0 h41.45454545454545 v99.91746722889515 h-41.45454545454545 v-99.91746722889515Z" fill="#5fab9e"/><path d="M57.0 22.15364658016227 h41.45454545454545 v20.11912801667798 h-41.45454545454545 v-20.11912801667798Z M114.0 0.0 h41.45454545454545 v74.8250716125889 h-41.45454545454545 v-74.8250716125889Z M171.0 0.0 h41.45454545454545 v-61.26161452269363 h-41.45454545454545 v61.26161452269363Z M228.0 101.7259281742145 h41.45454545454545 v70.52997686745539 h-41.45454545454545 v-70.52997686745539Z M285.0 0.0 h41.45454545454545 v-34.812873197397856 h-41.45454545454545 v34.812873197397856Z M342.0 80.02439683038207 h41.45454545454545 v73.6947835217643 h-41.45454545454545 v-73.6947835217643Z M399.0 99.91746722889515 h41.45454545454545 v44.75940839665438 h-41.45454545454545 v-44.75940839665438Z" fill="#f58b51"/><path d="M57.0 0.0 h41.45454545454545 v-72.33843781277476 h-41.45454545454545 v72.33843781277476Z M114.0 74.8250716125889 h41.45454545454545 v73.01661066726952 h-41.45454545454545 v-73.01661066726952Z M171.0 51.089021705272174 h41.45454545454545 v103.30833150136897 h-41.45454545454545 v-103.30833150136897Z M228.0 0.0 h41.45454545454545 v-7.459901399442397 h-41.45454545454545 v7.459901399442397Z M285.0 -34.812873197397856 h41.45454545454545 v-75.27718684891872 h-41.45454545454545 v75.27718684891872Z M342.0 0.0 h41.45454545454545 v-35.49104605189262 h-41.45454545454545 v35.49104605189262Z M399.0 0.0 h41.45454545454545 v-87.25824061165956 h-41.45454545454545 v87.25824061165956Z" fill="#f7dd72"/></g></svg>