<svg xmlns="http://www.w3.org/2000/svg" width="700" height="400" viewBox="0 0 700 400"><path fill="white" d="M0 0 h700 v400 h-700 v-400Z"/><text transform="translate(-110.0, 18)" fill="#444444" font-family="Arial" font-weight="bold" font-size="16" x="350.0" y="10.0">Sales Performance by Region</text><g><path stroke="#CCCCCC" stroke-dasharray="None" d="M0 0.0 h605.0 M0 66.60000000000001 h605.0 M0 133.20000000000002 h605.0 M0 199.79999999999998 h605.0 M0 266.40000000000003 h605.0 M0 333.0 h605.0" transform="translate(60.0, 47.0)"/><g font-size="12" font-family="Arial" transform="translate(54.0, 47.0)"><text x="0" y="0.0" transform="translate(-7, 3.5)">0</text><text x="0" y="66.60000000000001" transform="translate(-14, 3.5)">13</text><text x="0" y="133.20000000000002" transform="translate(-14, 3.5)">26</text><text x="0" y="199.79999999999998" transform="translate(-14, 3.5)">39</text><text x="0" y="266.40000000000003" transform="translate(-14, 3.5)">52</text><text x="0" y="333.0" transform="translate(-14, 3.5)">65</text></g></g><g><path stroke="#CCCCCC" stroke-dasharray="None" d="M0.0 0 v333.0 M121.0 0 v333.0 M242.0 0 v333.0 M363.0 0 v333.0 M484.0 0 v333.0 M605.0 0 v333.0" transform="translate(60.0, 47.0)"/><g font-size="12" font-family="Arial" transform="translate(60.0, 65.0)"><text x="0.0" y="333.0" transform="translate(-2.0, 0)"> </text><text x="121.0" y="333.0" transform="translate(-8.5, 0)">Q1</text><text x="242.0" y="333.0" transform="translate(-8.5, 0)">Q2</text><text x="363.0" y="333.0" transform="translate(-8.5, 0)">Q3</text><text x="484.0" y="333.0" transform="translate(-8.5, 0)">Q4</text><text x="605.0" y="333.0" transform="translate(-2.0, 0)"> </text></g></g><g opacity="0.8" transform="translate(-35.0, -20.0) rotate(180, 350.0, 200.0) scale(-1, 1) translate(-605.0, 0) translate(-46.53846153846154, 0)"><path d="M89.97435897435898 0 h31.025641025641026 v230.53846153846152 h-31.025641025641026 v-230.53846153846152Z M229.58974358974362 0 h31.025641025641026 v266.40000000000003 h-31.025641025641026 v-266.40000000000003Z M369.2051282051282 0 h31.025641025641026 v194.6769230769231 h-31.025641025641026 v-194.6769230769231Z M508.82051282051276 0 h31.025641025641026 v312.5076923076923 h-31.025641025641026 v-312.5076923076923Z" fill="#5fab9e"/><path d="M121.0 0 h31.025641025641026 v194.6769230769231 h-31.025641025641026 v-194.6769230769231Z M260.61538461538464 0 h31.025641025641026 v235.66153846153847 h-31.025641025641026 v-235.66153846153847Z M400.2307692307692 0 h31.025641025641026 v266.40000000000003 h-31.025641025641026 v-266.40000000000003Z M539.8461538461538 0 h31.025641025641026 v251.03076923076924 h-31.025641025641026 v-251.03076923076924Z" fill="#f58b51"/><path d="M152.02564102564102 0 h31.025641025641026 v266.40000000000003 h-31.025641025641026 v-266.40000000000003Z M291.6410256410257 0 h31.025641025641026 v199.79999999999998 h-31.025641025641026 v-199.79999999999998Z M431.2564102564102 0 h31.025641025641026 v235.66153846153847 h-31.025641025641026 v-235.66153846153847Z M570.8717948717948 0 h31.025641025641026 v261.2769230769231 h-31.025641025641026 v-261.2769230769231Z" fill="#f7dd72"/></g><g><rect transform="translate(-5.875, -5.25)" x="608.125" y="56.25" width="58.75" height="52.5" fill="#ffffff" stroke="#CCCCCC"/><g transform="translate(0, 12)"><rect y="44.25" x="608.125" width="12" height="12" fill="#5fab9e"/><text y="53.25" x="622.125" font-size="11" font-family="Arial">North</text></g><g transform="translate(0, 14)"><rect y="56.25" x="608.125" width="12" height="12" fill="#f58b51"/><text y="65.25" x="622.125" font-size="11" font-family="Arial">South</text></g><g transform="translate(0, 16)"><rect y="68.25" x="608.125" width="12" height="12" fill="#f7dd72"/><text y="77.25" x="622.125" font-size="11" font-family="Arial">East</text></g></g></svg>