<svg xmlns="http://www.w3.org/2000/svg" width="800" height="500" viewBox="0 0 800 500">
  <path fill="white" d="M0 0 h800 v500 h-800 v-500Z"/>
  <g class="plot">
    <path d="M120.0 75.0 h560.0 v350.0 h-560.0 v-350.0Z" fill="white" stroke="#bbb"/>
    <g x1="120.0" y1="75.0" transform="translate(120.0, 75.0)" class="plot-grid">
      <path stroke="#ccc" d="M0.0 0 v350.0z M46.666666666666664 0 v350.0z M93.33333333333333 0 v350.0z M140.0 0 v350.0z M186.66666666666666 0 v350.0z M233.33333333333331 0 v350.0z M280.0 0 v350.0z M326.66666666666663 0 v350.0z M373.3333333333333 0 v350.0z M420.0 0 v350.0z M466.66666666666663 0 v350.0z M513.3333333333333 0 v350.0z M0 155.65059760956177 h560.0z M0 98.95059760956175 h560.0z M0 42.25059760956174 h560.0z M0 269.05059760956175 h560.0z M0 325.75059760956174 h560.0z"/>
    </g>
  </g>
  <g transform="rotate(180, 400.0, 250.0) translate(120.0, 212.64940239043824)">
    <path d="M7.5675675675675675 0.0 h30.27027027027027 v30.785947120608473 h-30.27027027027027 v-30.785947120608473Z M54.23423423423423 0.0 h30.27027027027027 v24.266570083303147 h-30.27027027027027 v-24.266570083303147Z M100.9009009009009 0.0 h30.27027027027027 v25.17203911626222 h-30.27027027027027 v-25.17203911626222Z M147.56756756756758 0.0 h30.27027027027027 v-27.164070988772178 h-30.27027027027027 v27.164070988772178Z M194.23423423423424 0.0 h30.27027027027027 v56.68236146323795 h-30.27027027027027 v-56.68236146323795Z M240.9009009009009 0.0 h30.27027027027027 v42.557044549076416 h-30.27027027027027 v-42.557044549076416Z M287.56756756756755 0.0 h30.27027027027027 v-86.20065193770373 h-30.27027027027027 v86.20065193770373Z M334.2342342342342 0.0 h30.27027027027027 v17.74719304599782 h-30.27027027027027 v-17.74719304599782Z M380.90090090090087 0.0 h30.27027027027027 v52.69829771821803 h-30.27027027027027 v-52.69829771821803Z M427.56756756756755 0.0 h30.27027027027027 v16.47953639985512 h-30.27027027027027 v-16.47953639985512Z M474.2342342342342 0.0 h30.27027027027027 v9.59797174936617 h-30.27027027027027 v-9.59797174936617Z M520.9009009009009 0.0 h30.27027027027027 v-43.46251358203549 h-30.27027027027027 v43.46251358203549Z" fill="#EF6F6C"/>
    <path d="M7.5675675675675675 30.785947120608473 h30.27027027027027 v9.054690329590727 h-30.27027027027027 v-9.054690329590727Z M54.23423423423423 24.266570083303147 h30.27027027027027 v45.45454545454545 h-30.27027027027027 v-45.45454545454545Z M100.9009009009009 25.17203911626222 h30.27027027027027 v5.795001810938064 h-30.27027027027027 v-5.795001810938064Z M147.56756756756758 0.0 h30.27027027027027 v82.3976819992756 h-30.27027027027027 v-82.3976819992756Z M194.23423423423424 56.68236146323795 h30.27027027027027 v97.2473741398044 h-30.27027027027027 v-97.2473741398044Z M240.9009009009009 42.557044549076416 h30.27027027027027 v29.51829047446577 h-30.27027027027027 v-29.51829047446577Z M287.56756756756755 0.0 h30.27027027027027 v38.75407461064831 h-30.27027027027027 v-38.75407461064831Z M334.2342342342342 0.0 h30.27027027027027 v-3.078594712060847 h-30.27027027027027 v3.078594712060847Z M380.90090090090087 52.69829771821803 h30.27027027027027 v30.061571894241215 h-30.27027027027027 v-30.061571894241215Z M427.56756756756755 16.47953639985512 h30.27027027027027 v34.226729445852946 h-30.27027027027027 v-34.226729445852946Z M474.2342342342342 9.59797174936617 h30.27027027027027 v17.74719304599782 h-30.27027027027027 v-17.74719304599782Z M520.9009009009009 0.0 h30.27027027027027 v42.557044549076416 h-30.27027027027027 v-42.557044549076416Z" fill="#477160"/>
    <path d="M7.5675675675675675 39.840637450199196 h30.27027027027027 v5.432814197754436 h-30.27027027027027 v-5.432814197754436Z M54.23423423423423 69.72111553784859 h30.27027027027027 v47.08438971387177 h-30.27027027027027 v-47.08438971387177Z M100.9009009009009 30.967040927200284 h30.27027027027027 v43.28141977544367 h-30.27027027027027 v-43.28141977544367Z M147.56756756756758 82.3976819992756 h30.27027027027027 v58.855487142339726 h-30.27027027027027 v-58.855487142339726Z M194.23423423423424 153.92973560304233 h30.27027027027027 v37.486417964505605 h-30.27027027027027 v-37.486417964505605Z M240.9009009009009 0.0 h30.27027027027027 v-40.38391886997464 h-30.27027027027027 v40.38391886997464Z M287.56756756756755 38.75407461064831 h30.27027027027027 v78.59471206084751 h-30.27027027027027 v-78.59471206084751Z M334.2342342342342 -3.078594712060847 h30.27027027027027 v-22.998913437160446 h-30.27027027027027 v22.998913437160446Z M380.90090090090087 82.75986961245924 h30.27027027027027 v42.738138355668234 h-30.27027027027027 v-42.738138355668234Z M427.56756756756755 50.70626584570807 h30.27027027027027 v25.896414342629477 h-30.27027027027027 v-25.896414342629477Z M474.2342342342342 27.345164795363996 h30.27027027027027 v35.85657370517928 h-30.27027027027027 v-35.85657370517928Z M520.9009009009009 42.557044549076416 h30.27027027027027 v4.5273451647953635 h-30.27027027027027 v-4.5273451647953635Z" fill="#a74e4c"/>
    <path d="M7.5675675675675675 0.0 h30.27027027027027 v-7.968127490039839 h-30.27027027027027 v7.968127490039839Z M54.23423423423423 116.80550525172036 h30.27027027027027 v27.164070988772178 h-30.27027027027027 v-27.164070988772178Z M100.9009009009009 74.24846070264397 h30.27027027027027 v91.99565374864179 h-30.27027027027027 v-91.99565374864179Z M147.56756756756758 141.25316914161533 h30.27027027027027 v51.792828685258954 h-30.27027027027027 v-51.792828685258954Z M194.23423423423424 0.0 h30.27027027027027 v-50.70626584570807 h-30.27027027027027 v50.70626584570807Z M240.9009009009009 -40.38391886997464 h30.27027027027027 v-59.57986236870698 h-30.27027027027027 v59.57986236870698Z M287.56756756756755 -86.20065193770373 h30.27027027027027 v-38.93516841724013 h-30.27027027027027 v38.93516841724013Z M334.2342342342342 -26.077508149221295 h30.27027027027027 v-33.14016660630206 h-30.27027027027027 v33.14016660630206Z M380.90090090090087 0.0 h30.27027027027027 v-5.432814197754436 h-30.27027027027027 v5.432814197754436Z M427.56756756756755 76.60268018833754 h30.27027027027027 v7.787033683448025 h-30.27027027027027 v-7.787033683448025Z M474.2342342342342 0.0 h30.27027027027027 v-7.424846070264396 h-30.27027027027027 v7.424846070264396Z M520.9009009009009 47.08438971387177 h30.27027027027027 v9.960159362549799 h-30.27027027027027 v-9.960159362549799Z" fill="#f5a9a7"/>
  </g>
  <path d="M120.0 287.35059760956176 h560.0z" stroke="black"/>
  <g>
    <g class="x-axis" transform="translate(120.0, 12)">
      <g font-size="12" font-family="Helvetica">
        <text x="22.7027027027027" y="425.0" transform="translate(-6.285714285714286, 0) rotate(59.701534208224274, 22.7027027027027, 425.0)">
          January
        </text>
        <text x="69.36936936936937" y="425.0" transform="translate(-6.125, 0) rotate(59.701534208224274, 69.36936936936937, 425.0)">
          February
        </text>
        <text x="116.03603603603602" y="425.0" transform="translate(-6.8, 0) rotate(59.701534208224274, 116.03603603603602, 425.0)">
          March
        </text>
        <text x="162.7027027027027" y="425.0" transform="translate(-5.0, 0) rotate(59.701534208224274, 162.7027027027027, 425.0)">
          April
        </text>
        <text x="209.36936936936937" y="425.0" transform="translate(-7.666666666666667, 0) rotate(59.701534208224274, 209.36936936936937, 425.0)">
          May
        </text>
        <text x="256.036036036036" y="425.0" transform="translate(-6.75, 0) rotate(59.701534208224274, 256.036036036036, 425.0)">
          June
        </text>
        <text x="302.7027027027027" y="425.0" transform="translate(-5.5, 0) rotate(59.701534208224274, 302.7027027027027, 425.0)">
          July
        </text>
        <text x="349.36936936936934" y="425.0" transform="translate(-6.333333333333333, 0) rotate(59.701534208224274, 349.36936936936934, 425.0)">
          August
        </text>
        <text x="396.036036036036" y="425.0" transform="translate(-6.666666666666667, 0) rotate(59.701534208224274, 396.036036036036, 425.0)">
          September
        </text>
        <text x="442.7027027027027" y="425.0" transform="translate(-6.142857142857143, 0) rotate(59.701534208224274, 442.7027027027027, 425.0)">
          October
        </text>
        <text x="489.36936936936934" y="425.0" transform="translate(-7.125, 0) rotate(59.701534208224274, 489.36936936936934, 425.0)">
          November
        </text>
        <text x="536.036036036036" y="425.0" transform="translate(-7.125, 0) rotate(59.701534208224274, 536.036036036036, 425.0)">
          December
        </text>
      </g>
    </g>
    <g class="y-axis" transform="translate(120.0, 75.0)">
      <g font-size="12" font-family="Helvetica">
        <text x="0" y="42.25059760956174" transform="translate(-33, 7.0)">
          939
        </text>
        <text x="0" y="98.95059760956175" transform="translate(-33, 7.0)">
          626
        </text>
        <text x="0" y="155.65059760956177" transform="translate(-33, 7.0)">
          313
        </text>
        <text x="0" y="269.05059760956175" transform="translate(-37, 7.0)">
          -313
        </text>
        <text x="0" y="325.75059760956174" transform="translate(-37, 7.0)">
          -626
        </text>
        <text x="0" y="212.35059760956176" transform="translate(-19, 7.0)">
          0
        </text>
      </g>
    </g>
  </g>
  <text transform="translate(-109.5, 5.75)" font-family="Helvetica" font-weight="bold" font-size="20" x="400.0" y="37.5">
    Example Column Chart
  </text>
</svg>