<svg xmlns="http://www.w3.org/2000/svg" width="700" height="500" viewBox="0 0 700 500"><path fill="white" d="M0 0 h700 v500 h-700 v-500Z"/><text transform="translate(-107.0, 19)" fill="#444444" font-family="Helvetica" font-weight="bold" font-size="16" x="350.0" y="30.0">Product Sales by Quarter ($M)</text><g><path stroke="#CCCCCC" stroke-dasharray="None" d="M0 0.0 h501.0 M0 70.3 h501.0 M0 140.6 h501.0 M0 210.9 h501.0 M0 281.2 h501.0 M0 351.5 h501.0" transform="translate(115.0, 88.5)"/><g font-size="12" font-family="Helvetica" transform="translate(109.0, 88.5)"><text x="0" y="0.0" transform="translate(-21, 3.5)">250</text><text x="0" y="70.3" transform="translate(-21, 3.5)">200</text><text x="0" y="140.6" transform="translate(-21, 3.5)">150</text><text x="0" y="210.9" transform="translate(-21, 3.5)">100</text><text x="0" y="281.2" transform="translate(-14, 3.5)">50</text><text x="0" y="351.5" transform="translate(-7, 3.5)">0</text></g></g><g><path stroke="#CCCCCC" stroke-dasharray="None" d="M0.0 0 v351.5 M100.2 0 v351.5 M200.4 0 v351.5 M300.59999999999997 0 v351.5 M400.8 0 v351.5 M501.0 0 v351.5" transform="translate(115.0, 88.5)"/><g font-size="12" font-family="Helvetica" transform="translate(115.0, 106.5)"><text x="0.0" y="351.5" transform="translate(-1.5, 0)"> </text><text x="100.2" y="351.5" transform="translate(-8.0, 0)">Q1</text><text x="200.4" y="351.5" transform="translate(-8.0, 0)">Q2</text><text x="300.59999999999997" y="351.5" transform="translate(-8.0, 0)">Q3</text><text x="400.8" y="351.5" transform="translate(-8.0, 0)">Q4</text><text x="501.0" y="351.5" transform="translate(-1.5, 0)"> </text></g></g><g opacity="0.8" transform="translate(-84.0, -60.0) rotate(180, 350.0, 250.0) scale(-1, 1) translate(-501.0, 0) translate(-38.53846153846154, 0)"><path d="M100.2 0.0 h77.07692307692308 v63.269999999999996 h-77.07692307692308 v-63.269999999999996Z M200.4 0.0 h77.07692307692308 v73.112 h-77.07692307692308 v-73.112Z M300.6 0.0 h77.07692307692308 v67.488 h-77.07692307692308 v-67.488Z M400.79999999999995 0.0 h77.07692307692308 v85.76599999999999 h-77.07692307692308 v-85.76599999999999Z" fill="#5fab9e"/><path d="M100.2 63.269999999999996 h77.07692307692308 v44.992000000000004 h-77.07692307692308 v-44.992000000000004Z M200.4 73.112 h77.07692307692308 v53.428 h-77.07692307692308 v-53.428Z M300.6 67.488 h77.07692307692308 v63.269999999999996 h-77.07692307692308 v-63.269999999999996Z M400.79999999999995 85.76599999999999 h77.07692307692308 v73.112 h-77.07692307692308 v-73.112Z" fill="#f58b51"/><path d="M100.2 108.262 h77.07692307692308 v39.368 h-77.07692307692308 v-39.368Z M200.4 126.53999999999999 h77.07692307692308 v49.21000000000001 h-77.07692307692308 v-49.21000000000001Z M300.6 130.758 h77.07692307692308 v59.05200000000001 h-77.07692307692308 v-59.05200000000001Z M400.79999999999995 158.87800000000001 h77.07692307692308 v67.488 h-77.07692307692308 v-67.488Z" fill="#f7dd72"/><path d="M100.2 147.63 h77.07692307692308 v30.932 h-77.07692307692308 v-30.932Z M200.4 175.75 h77.07692307692308 v49.21000000000001 h-77.07692307692308 v-49.21000000000001Z M300.6 189.81 h77.07692307692308 v59.05200000000001 h-77.07692307692308 v-59.05200000000001Z M400.79999999999995 226.366 h77.07692307692308 v59.05200000000001 h-77.07692307692308 v-59.05200000000001Z" fill="#db504a"/><path d="M100.2 178.562 h77.07692307692308 v25.308 h-77.07692307692308 v-25.308Z M200.4 224.96 h77.07692307692308 v35.15 h-77.07692307692308 v-35.15Z M300.6 248.862 h77.07692307692308 v44.992000000000004 h-77.07692307692308 v-44.992000000000004Z M400.79999999999995 285.418 h77.07692307692308 v53.428 h-77.07692307692308 v-53.428Z" fill="#2e4756"/></g></svg>