<svg xmlns="http://www.w3.org/2000/svg" width="800" height="500" viewBox="0 0 800 500">
  <path fill="white" d="M0 0 h800 v500 h-800 v-500Z"/>
  <g class="plot">
    <path d="M120.0 75.0 h560.0 v350.0 h-560.0 v-350.0Z" fill="white" stroke="#bbb"/>
    <g x1="120.0" y1="75.0" transform="translate(120.0, 75.0)" class="plot-grid">
      <path stroke="#ccc" d="M0.0 0 v350.0z M46.666666666666664 0 v350.0z M93.33333333333333 0 v350.0z M140.0 0 v350.0z M186.66666666666666 0 v350.0z M233.33333333333331 0 v350.0z M280.0 0 v350.0z M326.66666666666663 0 v350.0z M373.3333333333333 0 v350.0z M420.0 0 v350.0z M466.66666666666663 0 v350.0z M513.3333333333333 0 v350.0z M0 155.65059760956177 h560.0z M0 98.95059760956175 h560.0z M0 42.25059760956174 h560.0z M0 269.05059760956175 h560.0z M0 325.75059760956174 h560.0z"/>
    </g>
  </g>
  <g transform="rotate(180, 400.0, 250.0) translate(120.0, 212.64940239043824)">
    <path d="M7.5675675675675675 0.0 h30.27027027027027 v33.864541832669325 h-30.27027027027027 v-33.864541832669325Z M54.23423423423423 0.0 h30.27027027027027 v26.693227091633464 h-30.27027027027027 v-26.693227091633464Z M100.9009009009009 0.0 h30.27027027027027 v27.689243027888445 h-30.27027027027027 v-27.689243027888445Z M147.56756756756758 0.0 h30.27027027027027 v-29.8804780876494 h-30.27027027027027 v29.8804780876494Z M194.23423423423424 0.0 h30.27027027027027 v62.35059760956175 h-30.27027027027027 v-62.35059760956175Z M240.9009009009009 0.0 h30.27027027027027 v46.81274900398406 h-30.27027027027027 v-46.81274900398406Z M287.56756756756755 0.0 h30.27027027027027 v-94.8207171314741 h-30.27027027027027 v94.8207171314741Z M334.2342342342342 0.0 h30.27027027027027 v19.52191235059761 h-30.27027027027027 v-19.52191235059761Z M380.90090090090087 0.0 h30.27027027027027 v57.968127490039834 h-30.27027027027027 v-57.968127490039834Z M427.56756756756755 0.0 h30.27027027027027 v18.127490039840637 h-30.27027027027027 v-18.127490039840637Z M474.2342342342342 0.0 h30.27027027027027 v10.557768924302788 h-30.27027027027027 v-10.557768924302788Z M520.9009009009009 0.0 h30.27027027027027 v-47.808764940239044 h-30.27027027027027 v47.808764940239044Z" fill="#EF6F6C"/>
    <path d="M7.5675675675675675 33.864541832669325 h30.27027027027027 v9.9601593625498 h-30.27027027027027 v-9.9601593625498Z M54.23423423423423 26.693227091633464 h30.27027027027027 v50.0 h-30.27027027027027 v-50.0Z M100.9009009009009 27.689243027888445 h30.27027027027027 v6.374501992031873 h-30.27027027027027 v-6.374501992031873Z M147.56756756756758 0.0 h30.27027027027027 v90.63745019920319 h-30.27027027027027 v-90.63745019920319Z M194.23423423423424 62.35059760956175 h30.27027027027027 v106.97211155378487 h-30.27027027027027 v-106.97211155378487Z M240.9009009009009 46.81274900398406 h30.27027027027027 v32.47011952191235 h-30.27027027027027 v-32.47011952191235Z M287.56756756756755 0.0 h30.27027027027027 v42.62948207171315 h-30.27027027027027 v-42.62948207171315Z M334.2342342342342 0.0 h30.27027027027027 v-3.3864541832669324 h-30.27027027027027 v3.3864541832669324Z M380.90090090090087 57.968127490039834 h30.27027027027027 v33.06772908366534 h-30.27027027027027 v-33.06772908366534Z M427.56756756756755 18.127490039840637 h30.27027027027027 v37.64940239043825 h-30.27027027027027 v-37.64940239043825Z M474.2342342342342 10.557768924302788 h30.27027027027027 v19.52191235059761 h-30.27027027027027 v-19.52191235059761Z M520.9009009009009 0.0 h30.27027027027027 v46.81274900398406 h-30.27027027027027 v-46.81274900398406Z" fill="#477160"/>
    <path d="M7.5675675675675675 43.82470119521913 h30.27027027027027 v5.9760956175298805 h-30.27027027027027 v-5.9760956175298805Z M54.23423423423423 76.69322709163346 h30.27027027027027 v51.79282868525896 h-30.27027027027027 v-51.79282868525896Z M100.9009009009009 34.06374501992032 h30.27027027027027 v47.60956175298805 h-30.27027027027027 v-47.60956175298805Z M147.56756756756758 90.63745019920319 h30.27027027027027 v64.7410358565737 h-30.27027027027027 v-64.7410358565737Z M194.23423423423424 169.32270916334662 h30.27027027027027 v41.235059760956176 h-30.27027027027027 v-41.235059760956176Z M240.9009009009009 0.0 h30.27027027027027 v-44.42231075697212 h-30.27027027027027 v44.42231075697212Z M287.56756756756755 42.62948207171315 h30.27027027027027 v86.45418326693228 h-30.27027027027027 v-86.45418326693228Z M334.2342342342342 -3.3864541832669324 h30.27027027027027 v-25.298804780876495 h-30.27027027027027 v25.298804780876495Z M380.90090090090087 91.03585657370517 h30.27027027027027 v47.01195219123506 h-30.27027027027027 v-47.01195219123506Z M427.56756756756755 55.776892430278885 h30.27027027027027 v28.48605577689243 h-30.27027027027027 v-28.48605577689243Z M474.2342342342342 30.0796812749004 h30.27027027027027 v39.44223107569721 h-30.27027027027027 v-39.44223107569721Z M520.9009009009009 46.81274900398406 h30.27027027027027 v4.9800796812749 h-30.27027027027027 v-4.9800796812749Z" fill="#a74e4c"/>
    <path d="M7.5675675675675675 0.0 h30.27027027027027 v-8.764940239043824 h-30.27027027027027 v8.764940239043824Z M54.23423423423423 128.48605577689244 h30.27027027027027 v29.8804780876494 h-30.27027027027027 v-29.8804780876494Z M100.9009009009009 81.67330677290838 h30.27027027027027 v101.19521912350598 h-30.27027027027027 v-101.19521912350598Z M147.56756756756758 155.3784860557769 h30.27027027027027 v56.97211155378486 h-30.27027027027027 v-56.97211155378486Z M194.23423423423424 0.0 h30.27027027027027 v-55.776892430278885 h-30.27027027027027 v55.776892430278885Z M240.9009009009009 -44.42231075697212 h30.27027027027027 v-65.5378486055777 h-30.27027027027027 v65.5378486055777Z M287.56756756756755 -94.8207171314741 h30.27027027027027 v-42.82868525896414 h-30.27027027027027 v42.82868525896414Z M334.2342342342342 -28.68525896414343 h30.27027027027027 v-36.45418326693227 h-30.27027027027027 v36.45418326693227Z M380.90090090090087 0.0 h30.27027027027027 v-5.9760956175298805 h-30.27027027027027 v5.9760956175298805Z M427.56756756756755 84.26294820717132 h30.27027027027027 v8.56573705179283 h-30.27027027027027 v-8.56573705179283Z M474.2342342342342 0.0 h30.27027027027027 v-8.167330677290837 h-30.27027027027027 v8.167330677290837Z M520.9009009009009 51.79282868525896 h30.27027027027027 v10.956175298804782 h-30.27027027027027 v-10.956175298804782Z" fill="#f5a9a7"/>
  </g>
  <path d="M120.0 287.35059760956176 h560.0z" stroke="black"/>
  <g>
    <g class="x-axis" transform="translate(120.0, 12)">
      <g font-size="12" font-family="Helvetica">
        <text x="22.7027027027027" y="425.0" transform="translate(-6.285714285714286, 0) rotate(59.701534208224274, 22.7027027027027, 425.0)">
          January
        </text>
        <text x="69.36936936936937" y="425.0" transform="translate(-6.125, 0) rotate(59.701534208224274, 69.36936936936937, 425.0)">
          February
        </text>
        <text x="116.03603603603602" y="425.0" transform="translate(-6.8, 0) rotate(59.701534208224274, 116.03603603603602, 425.0)">
          March
        </text>
        <text x="162.7027027027027" y="425.0" transform="translate(-5.0, 0) rotate(59.701534208224274, 162.7027027027027, 425.0)">
          April
        </text>
        <text x="209.36936936936937" y="425.0" transform="translate(-7.666666666666667, 0) rotate(59.701534208224274, 209.36936936936937, 425.0)">
          May
        </text>
        <text x="256.036036036036" y="425.0" transform="translate(-6.75, 0) rotate(59.701534208224274, 256.036036036036, 425.0)">
          June
        </text>
        <text x="302.7027027027027" y="425.0" transform="translate(-5.5, 0) rotate(59.701534208224274, 302.7027027027027, 425.0)">
          July
        </text>
        <text x="349.36936936936934" y="425.0" transform="translate(-6.333333333333333, 0) rotate(59.701534208224274, 349.36936936936934, 425.0)">
          August
        </text>
        <text x="396.036036036036" y="425.0" transform="translate(-6.666666666666667, 0) rotate(59.701534208224274, 396.036036036036, 425.0)">
          September
        </text>
        <text x="442.7027027027027" y="425.0" transform="translate(-6.142857142857143, 0) rotate(59.701534208224274, 442.7027027027027, 425.0)">
          October
        </text>
        <text x="489.36936936936934" y="425.0" transform="translate(-7.125, 0) rotate(59.701534208224274, 489.36936936936934, 425.0)">
          November
        </text>
        <text x="536.036036036036" y="425.0" transform="translate(-7.125, 0) rotate(59.701534208224274, 536.036036036036, 425.0)">
          December
        </text>
      </g>
    </g>
    <g class="y-axis" transform="translate(120.0, 75.0)">
      <g font-size="12" font-family="Helvetica">
        <text x="0" y="42.25059760956174" transform="translate(-33, 7.0)">
          854
        </text>
        <text x="0" y="98.95059760956175" transform="translate(-33, 7.0)">
          569
        </text>
        <text x="0" y="155.65059760956177" transform="translate(-33, 7.0)">
          285
        </text>
        <text x="0" y="269.05059760956175" transform="translate(-37, 7.0)">
          -285
        </text>
        <text x="0" y="325.75059760956174" transform="translate(-37, 7.0)">
          -569
        </text>
        <text x="0" y="212.35059760956176" transform="translate(-19, 7.0)">
          0
        </text>
      </g>
    </g>
  </g>
  <text transform="translate(-109.5, 5.75)" font-family="Helvetica" font-weight="bold" font-size="20" x="400.0" y="37.5">
    Example Column Chart
  </text>
</svg>