<svg xmlns="http://www.w3.org/2000/svg" width="700" height="450" viewBox="0 0 700 450"><path fill="white" d="M0 0 h700 v450 h-700 v-450Z"/><text transform="translate(-145.0, 19)" fill="#444444" font-family="Helvetica" font-weight="bold" font-size="16" x="350.0" y="22.5">Global Temperature Anomaly by Decade</text><g><path stroke="#CCCCCC" stroke-dasharray="None" d="M0 0.0 h532.0 M0 37.885714285714286 h532.0 M0 75.77142857142857 h532.0 M0 113.65714285714287 h532.0 M0 151.54285714285714 h532.0 M0 189.42857142857142 h532.0 M0 331.5 h532.0" transform="translate(98.0, 73.5)"/><g font-size="12" font-family="Helvetica" transform="translate(92.0, 73.5)"><text x="0" y="0.0" transform="translate(-17, -7.0)">0.8</text><text x="0" y="37.885714285714286" transform="translate(-17, -7.0)">0.6</text><text x="0" y="75.77142857142857" transform="translate(-17, -7.0)">0.4</text><text x="0" y="113.65714285714287" transform="translate(-17, -7.0)">0.2</text><text x="0" y="151.54285714285714" transform="translate(-21, -7.0)">-0.0</text><text x="0" y="189.42857142857142" transform="translate(-21, -7.0)">-0.2</text></g></g><g><path stroke="#CCCCCC" stroke-dasharray="None" d="M0.0 0 v331.5 M48.36363636363637 0 v331.5 M96.72727272727273 0 v331.5 M145.0909090909091 0 v331.5 M193.45454545454547 0 v331.5 M241.8181818181818 0 v331.5 M290.1818181818182 0 v331.5 M338.54545454545456 0 v331.5 M386.90909090909093 0 v331.5 M435.2727272727273 0 v331.5 M483.6363636363636 0 v331.5 M532.0 0 v331.5" transform="translate(98.0, 73.5)"/><g font-size="12" font-family="Helvetica" transform="translate(98.0, 91.5)"><text x="0.0" y="331.5" transform="translate(-1.5, 0)"> </text><text x="48.36363636363637" y="331.5" transform="translate(-17.0, 0)">1880s</text><text x="96.72727272727273" y="331.5" transform="translate(-17.0, 0)">1890s</text><text x="145.0909090909091" y="331.5" transform="translate(-17.0, 0)">1900s</text><text x="193.45454545454547" y="331.5" transform="translate(-17.0, 0)">1910s</text><text x="241.8181818181818" y="331.5" transform="translate(-17.0, 0)">1920s</text><text x="290.1818181818182" y="331.5" transform="translate(-17.0, 0)">1930s</text><text x="338.54545454545456" y="331.5" transform="translate(-17.0, 0)">1940s</text><text x="386.90909090909093" y="331.5" transform="translate(-17.0, 0)">1950s</text><text x="435.2727272727273" y="331.5" transform="translate(-17.0, 0)">1960s</text><text x="483.6363636363636" y="331.5" transform="translate(-17.0, 0)">1970s</text><text x="532.0" y="331.5" transform="translate(-1.5, 0)"> </text></g></g><path transform="translate(98.0, 73.5)" d="M0 284.14285714285717 h532.0z" stroke="black"/><g opacity="0.8" transform="translate(-70.0, -45.0) rotate(180, 350.0, 225.0) scale(-1, 1) translate(-532.0, 0) translate(-17.161290322580644, 47.357142857142854)"><path d="M48.36363636363637 0.0 h34.32258064516129 v-30.30857142857143 h-34.32258064516129 v30.30857142857143Z M96.72727272727273 0.0 h34.32258064516129 v15.154285714285715 h-34.32258064516129 v-15.154285714285715Z M145.0909090909091 0.0 h34.32258064516129 v13.26 h-34.32258064516129 v-13.26Z M193.45454545454547 0.0 h34.32258064516129 v66.3 h-34.32258064516129 v-66.3Z M241.81818181818184 0.0 h34.32258064516129 v-9.471428571428572 h-34.32258064516129 v9.471428571428572Z M290.1818181818182 0.0 h34.32258064516129 v-9.471428571428572 h-34.32258064516129 v9.471428571428572Z M338.54545454545456 0.0 h34.32258064516129 v1.8942857142857144 h-34.32258064516129 v-1.8942857142857144Z M386.90909090909093 0.0 h34.32258064516129 v-13.26 h-34.32258064516129 v13.26Z M435.2727272727273 0.0 h34.32258064516129 v-24.625714285714288 h-34.32258064516129 v24.625714285714288Z M483.6363636363637 0.0 h34.32258064516129 v32.20285714285715 h-34.32258064516129 v-32.20285714285715Z" fill="#5fab9e"/><path d="M48.36363636363637 -30.30857142857143 h34.32258064516129 v-15.154285714285715 h-34.32258064516129 v15.154285714285715Z M96.72727272727273 15.154285714285715 h34.32258064516129 v17.048571428571428 h-34.32258064516129 v-17.048571428571428Z M145.0909090909091 13.26 h34.32258064516129 v49.251428571428576 h-34.32258064516129 v-49.251428571428576Z M193.45454545454547 66.3 h34.32258064516129 v3.7885714285714287 h-34.32258064516129 v-3.7885714285714287Z M241.81818181818184 0.0 h34.32258064516129 v7.577142857142857 h-34.32258064516129 v-7.577142857142857Z M290.1818181818182 0.0 h34.32258064516129 v30.30857142857143 h-34.32258064516129 v-30.30857142857143Z M338.54545454545456 1.8942857142857144 h34.32258064516129 v24.625714285714288 h-34.32258064516129 v-24.625714285714288Z M386.90909090909093 0.0 h34.32258064516129 v53.04 h-34.32258064516129 v-53.04Z M435.2727272727273 0.0 h34.32258064516129 v41.674285714285716 h-34.32258064516129 v-41.674285714285716Z M483.6363636363637 32.20285714285715 h34.32258064516129 v87.13714285714285 h-34.32258064516129 v-87.13714285714285Z" fill="#f58b51"/><path d="M48.36363636363637 0.0 h34.32258064516129 v3.7885714285714287 h-34.32258064516129 v-3.7885714285714287Z M96.72727272727273 32.20285714285714 h34.32258064516129 v11.365714285714287 h-34.32258064516129 v-11.365714285714287Z M145.0909090909091 62.511428571428574 h34.32258064516129 v45.462857142857146 h-34.32258064516129 v-45.462857142857146Z M193.45454545454547 70.08857142857143 h34.32258064516129 v35.99142857142857 h-34.32258064516129 v-35.99142857142857Z M241.81818181818184 7.577142857142857 h34.32258064516129 v34.097142857142856 h-34.32258064516129 v-34.097142857142856Z M290.1818181818182 30.30857142857143 h34.32258064516129 v43.568571428571424 h-34.32258064516129 v-43.568571428571424Z M338.54545454545456 26.52 h34.32258064516129 v49.251428571428576 h-34.32258064516129 v-49.251428571428576Z M386.90909090909093 53.04 h34.32258064516129 v77.66571428571427 h-34.32258064516129 v-77.66571428571427Z M435.2727272727273 41.674285714285716 h34.32258064516129 v53.04 h-34.32258064516129 v-53.04Z M483.6363636363637 119.33999999999999 h34.32258064516129 v98.50285714285715 h-34.32258064516129 v-98.50285714285715Z" fill="#f7dd72"/></g></svg>