<svg xmlns="http://www.w3.org/2000/svg" width="800" height="500" viewBox="0 0 800 500">
  <path fill="white" d="M0 0 h800 v500 h-800 v-500Z"/>
  <g class="plot">
    <path d="M80.0 50.0 h640.0 v400.0 h-640.0 v-400.0Z" fill="white" stroke="#bbb"/>
    <g x1="80.0" y1="50.0" transform="translate(80.0, 50.0)" class="plot-grid">
      <path stroke="#ccc" d="M0.0 0 v400.0z M53.33333333333334 0 v400.0z M106.66666666666667 0 v400.0z M160.0 0 v400.0z M213.33333333333334 0 v400.0z M266.6666666666667 0 v400.0z M320.0 0 v400.0z M373.33333333333337 0 v400.0z M426.6666666666667 0 v400.0z M480.0 0 v400.0z M533.3333333333334 0 v400.0z M586.6666666666667 0 v400.0z M0 177.8863972680706 h640.0z M0 113.08639726807058 h640.0z M0 48.2863972680706 h640.0z M0 307.48639726807056 h640.0z M0 372.2863972680706 h640.0z"/>
    </g>
  </g>
  <g transform="rotate(180, 400.0, 250.0) translate(80.0, 207.31360273192942)">
    <path d="M8.64864864864865 0.0 h34.5945945945946 v38.702333523050655 h-34.5945945945946 v-38.702333523050655Z M61.98198198198199 0.0 h34.5945945945946 v30.5065452475811 h-34.5945945945946 v-30.5065452475811Z M115.31531531531532 0.0 h34.5945945945946 v31.64484917472965 h-34.5945945945946 v-31.64484917472965Z M168.64864864864865 0.0 h34.5945945945946 v-34.14911781445646 h-34.5945945945946 v34.14911781445646Z M221.981981981982 0.0 h34.5945945945946 v71.25782583949915 h-34.5945945945946 v-71.25782583949915Z M275.31531531531533 0.0 h34.5945945945946 v53.50028457598178 h-34.5945945945946 v-53.50028457598178Z M328.64864864864865 0.0 h34.5945945945946 v-108.36653386454182 h-34.5945945945946 v108.36653386454182Z M381.981981981982 0.0 h34.5945945945946 v22.31075697211155 h-34.5945945945946 v-22.31075697211155Z M435.31531531531533 0.0 h34.5945945945946 v66.24928856004553 h-34.5945945945946 v-66.24928856004553Z M488.64864864864865 0.0 h34.5945945945946 v20.717131474103585 h-34.5945945945946 v-20.717131474103585Z M541.981981981982 0.0 h34.5945945945946 v12.066021627774616 h-34.5945945945946 v-12.066021627774616Z M595.3153153153154 0.0 h34.5945945945946 v-54.638588503130336 h-34.5945945945946 v54.638588503130336Z" fill="#EF6F6C"/>
    <path d="M8.64864864864865 38.702333523050655 h34.5945945945946 v11.383039271485487 h-34.5945945945946 v-11.383039271485487Z M61.98198198198199 30.5065452475811 h34.5945945945946 v57.14285714285714 h-34.5945945945946 v-57.14285714285714Z M115.31531531531532 31.64484917472965 h34.5945945945946 v7.285145133750712 h-34.5945945945946 v-7.285145133750712Z M168.64864864864865 0.0 h34.5945945945946 v103.58565737051792 h-34.5945945945946 v-103.58565737051792Z M221.981981981982 71.25782583949915 h34.5945945945946 v122.25384177575414 h-34.5945945945946 v-122.25384177575414Z M275.31531531531533 53.50028457598178 h34.5945945945946 v37.10870802504269 h-34.5945945945946 v-37.10870802504269Z M328.64864864864865 0.0 h34.5945945945946 v48.71940808195788 h-34.5945945945946 v-48.71940808195788Z M381.981981981982 0.0 h34.5945945945946 v-3.870233352305066 h-34.5945945945946 v3.870233352305066Z M435.31531531531533 66.24928856004553 h34.5945945945946 v37.79169038133182 h-34.5945945945946 v-37.79169038133182Z M488.64864864864865 20.717131474103585 h34.5945945945946 v43.02788844621514 h-34.5945945945946 v-43.02788844621514Z M541.981981981982 12.066021627774616 h34.5945945945946 v22.31075697211155 h-34.5945945945946 v-22.31075697211155Z M595.3153153153154 0.0 h34.5945945945946 v53.50028457598178 h-34.5945945945946 v-53.50028457598178Z" fill="#477160"/>
    <path d="M8.64864864864865 50.08537279453614 h34.5945945945946 v6.829823562891292 h-34.5945945945946 v-6.829823562891292Z M61.98198198198199 87.64940239043824 h34.5945945945946 v59.19180421172453 h-34.5945945945946 v-59.19180421172453Z M115.31531531531532 38.92999430848037 h34.5945945945946 v54.41092771770063 h-34.5945945945946 v-54.41092771770063Z M168.64864864864865 103.58565737051792 h34.5945945945946 v73.98975526465567 h-34.5945945945946 v-73.98975526465567Z M221.981981981982 193.51166761525326 h34.5945945945946 v47.12578258394991 h-34.5945945945946 v-47.12578258394991Z M275.31531531531533 0.0 h34.5945945945946 v-50.76835515082527 h-34.5945945945946 v50.76835515082527Z M328.64864864864865 48.71940808195788 h34.5945945945946 v98.80478087649402 h-34.5945945945946 v-98.80478087649402Z M381.981981981982 -3.870233352305066 h34.5945945945946 v-28.912919749573135 h-34.5945945945946 v28.912919749573135Z M435.31531531531533 104.04097894137733 h34.5945945945946 v53.7279453614115 h-34.5945945945946 v-53.7279453614115Z M488.64864864864865 63.745019920318725 h34.5945945945946 v32.55549231644849 h-34.5945945945946 v-32.55549231644849Z M541.981981981982 34.37677859988617 h34.5945945945946 v45.07683551508252 h-34.5945945945946 v-45.07683551508252Z M595.3153153153154 53.50028457598178 h34.5945945945946 v5.691519635742743 h-34.5945945945946 v-5.691519635742743Z" fill="#a74e4c"/>
    <path d="M8.64864864864865 0.0 h34.5945945945946 v-10.017074558907229 h-34.5945945945946 v10.017074558907229Z M61.98198198198199 146.84120660216277 h34.5945945945946 v34.14911781445646 h-34.5945945945946 v-34.14911781445646Z M115.31531531531532 93.34092202618099 h34.5945945945946 v115.65167899829254 h-34.5945945945946 v-115.65167899829254Z M168.64864864864865 177.5754126351736 h34.5945945945946 v65.11098463289699 h-34.5945945945946 v-65.11098463289699Z M221.981981981982 0.0 h34.5945945945946 v-63.745019920318725 h-34.5945945945946 v63.745019920318725Z M275.31531531531533 -50.76835515082527 h34.5945945945946 v-74.9003984063745 h-34.5945945945946 v74.9003984063745Z M328.64864864864865 -108.36653386454182 h34.5945945945946 v-48.94706886738759 h-34.5945945945946 v48.94706886738759Z M381.981981981982 -32.783153101878206 h34.5945945945946 v-41.66192373363688 h-34.5945945945946 v41.66192373363688Z M435.31531531531533 0.0 h34.5945945945946 v-6.829823562891292 h-34.5945945945946 v6.829823562891292Z M488.64864864864865 96.30051223676722 h34.5945945945946 v9.78941377347752 h-34.5945945945946 v-9.78941377347752Z M541.981981981982 0.0 h34.5945945945946 v-9.3340922026181 h-34.5945945945946 v9.3340922026181Z M595.3153153153154 59.19180421172453 h34.5945945945946 v12.521343198634035 h-34.5945945945946 v-12.521343198634035Z" fill="#f5a9a7"/>
  </g>
  <path d="M80.0 292.68639726807055 h640.0z" stroke="black"/>
  <g>
    <g class="x-axis" transform="translate(80.0, 12)">
      <g font-size="12" font-family="Helvetica">
        <text x="25.945945945945947" y="450.0" transform="translate(-6.285714285714286, 0) rotate(29.926002856190564, 25.945945945945947, 450.0)">
          January
        </text>
        <text x="79.27927927927928" y="450.0" transform="translate(-6.125, 0) rotate(29.926002856190564, 79.27927927927928, 450.0)">
          February
        </text>
        <text x="132.61261261261262" y="450.0" transform="translate(-6.8, 0) rotate(29.926002856190564, 132.61261261261262, 450.0)">
          March
        </text>
        <text x="185.94594594594594" y="450.0" transform="translate(-5.0, 0) rotate(29.926002856190564, 185.94594594594594, 450.0)">
          April
        </text>
        <text x="239.27927927927928" y="450.0" transform="translate(-7.666666666666667, 0) rotate(29.926002856190564, 239.27927927927928, 450.0)">
          May
        </text>
        <text x="292.6126126126126" y="450.0" transform="translate(-6.75, 0) rotate(29.926002856190564, 292.6126126126126, 450.0)">
          June
        </text>
        <text x="345.94594594594594" y="450.0" transform="translate(-5.5, 0) rotate(29.926002856190564, 345.94594594594594, 450.0)">
          July
        </text>
        <text x="399.2792792792793" y="450.0" transform="translate(-6.333333333333333, 0) rotate(29.926002856190564, 399.2792792792793, 450.0)">
          August
        </text>
        <text x="452.6126126126126" y="450.0" transform="translate(-6.666666666666667, 0) rotate(29.926002856190564, 452.6126126126126, 450.0)">
          September
        </text>
        <text x="505.94594594594594" y="450.0" transform="translate(-6.142857142857143, 0) rotate(29.926002856190564, 505.94594594594594, 450.0)">
          October
        </text>
        <text x="559.2792792792793" y="450.0" transform="translate(-7.125, 0) rotate(29.926002856190564, 559.2792792792793, 450.0)">
          November
        </text>
        <text x="612.6126126126127" y="450.0" transform="translate(-7.125, 0) rotate(29.926002856190564, 612.6126126126127, 450.0)">
          December
        </text>
      </g>
    </g>
    <g class="y-axis" transform="translate(80.0, 50.0)">
      <g font-size="12" font-family="Helvetica">
        <text x="0" y="48.2863972680706" transform="translate(-33, 7.0)">
          854
        </text>
        <text x="0" y="113.08639726807058" transform="translate(-33, 7.0)">
          569
        </text>
        <text x="0" y="177.8863972680706" transform="translate(-33, 7.0)">
          285
        </text>
        <text x="0" y="307.48639726807056" transform="translate(-37, 7.0)">
          -285
        </text>
        <text x="0" y="372.2863972680706" transform="translate(-37, 7.0)">
          -569
        </text>
        <text x="0" y="242.68639726807058" transform="translate(-19, 7.0)">
          0
        </text>
      </g>
    </g>
  </g>
  <text transform="translate(-109.5, 5.75)" font-family="Helvetica" font-weight="bold" font-size="20" x="400.0" y="25.0">
    Example Column Chart
  </text>
</svg>