<svg xmlns="http://www.w3.org/2000/svg" width="700" height="400" viewBox="0 0 700 400"><path fill="#FFFFFF" d="M0 0 h700 v400 h-700 v-400Z"/><text transform="translate(-110.0, 18)" fill="#444444" font-family="Arial" font-weight="normal" font-size="16" x="350.0" y="10.0">Sales Performance by Region</text><defs><clipPath id="plot-clip"><rect x="0" y="0" width="630.0" height="333.0"/></clipPath></defs><g><path stroke="#CCCCCC" stroke-dasharray="None" d="M0 0.0 h630.0 M0 66.60000000000001 h630.0 M0 133.20000000000002 h630.0 M0 199.79999999999998 h630.0 M0 266.40000000000003 h630.0 M0 333.0 h630.0" transform="translate(35.0, 47.0)"/><g font-size="12" font-family="Arial" fill="#444444" transform="translate(29.0, 47.0)"><text x="0" y="0.0" transform="translate(-14, 3.5)">65</text><text x="0" y="66.60000000000001" transform="translate(-14, 3.5)">52</text><text x="0" y="133.20000000000002" transform="translate(-14, 3.5)">39</text><text x="0" y="199.79999999999998" transform="translate(-14, 3.5)">26</text><text x="0" y="266.40000000000003" transform="translate(-14, 3.5)">13</text><text x="0" y="333.0" transform="translate(-7, 3.5)">0</text></g></g><g><path stroke="#CCCCCC" stroke-dasharray="None" d="M0.0 0 v333.0 M126.0 0 v333.0 M252.0 0 v333.0 M378.0 0 v333.0 M504.0 0 v333.0 M630.0 0 v333.0" transform="translate(35.0, 47.0)"/><g font-size="12" font-family="Arial" fill="#444444" transform="translate(35.0, 65.0)"><text x="0.0" y="333.0" transform="translate(-2.0, 0)"> </text><text x="126.0" y="333.0" transform="translate(-8.5, 0)">Q1</text><text x="252.0" y="333.0" transform="translate(-8.5, 0)">Q2</text><text x="378.0" y="333.0" transform="translate(-8.5, 0)">Q3</text><text x="504.0" y="333.0" transform="translate(-8.5, 0)">Q4</text><text x="630.0" y="333.0" transform="translate(-2.0, 0)"> </text></g></g><g opacity="0.8" transform="translate(-35.0, -20.0) rotate(180, 350.0, 200.0) scale(-1, 1) translate(-630.0, 0) translate(-48.46153846153846, 0)"><path d="M93.7 0 h32.3 v230.5 h-32.3 v-230.5Z M239.1 0 h32.3 v266.4 h-32.3 v-266.4Z M384.5 0 h32.3 v194.7 h-32.3 v-194.7Z M529.8 0 h32.3 v312.5 h-32.3 v-312.5Z" fill="#5fab9e"/><path d="M126.0 0 h32.3 v194.7 h-32.3 v-194.7Z M271.4 0 h32.3 v235.7 h-32.3 v-235.7Z M416.8 0 h32.3 v266.4 h-32.3 v-266.4Z M562.2 0 h32.3 v251.0 h-32.3 v-251.0Z" fill="#f58b51"/><path d="M158.3 0 h32.3 v266.4 h-32.3 v-266.4Z M303.7 0 h32.3 v199.8 h-32.3 v-199.8Z M449.1 0 h32.3 v235.7 h-32.3 v-235.7Z M594.5 0 h32.3 v261.3 h-32.3 v-261.3Z" fill="#f7dd72"/></g><g><rect transform="translate(-11.75, -10.5)" x="602.25" y="61.5" width="70.5" height="63.0" fill="#f5f5f5" stroke="#d7d7d7"/><g><rect y="64.5" x="602.25" width="12" height="12" fill="#5fab9e"/><text y="73.5" x="616.25" font-size="12" font-family="Arial" fill="#444444">North</text></g><g><rect y="76.5" x="602.25" width="12" height="12" fill="#f58b51"/><text y="85.5" x="616.25" font-size="12" font-family="Arial" fill="#444444">South</text></g><g><rect y="88.5" x="602.25" width="12" height="12" fill="#f7dd72"/><text y="97.5" x="616.25" font-size="12" font-family="Arial" fill="#444444">East</text></g></g></svg>