<svg xmlns="http://www.w3.org/2000/svg" width="700" height="500" viewBox="0 0 700 500"><path fill="white" d="M0 0 h700 v500 h-700 v-500Z"/><text transform="translate(-159.5, 19)" fill="#444444" font-family="Helvetica" font-weight="bold" font-size="16" x="350.0" y="30.0">Year-over-Year Growth Rate (%) by Segment</text><g><path stroke="#CCCCCC" stroke-dasharray="None" d="M0 0.0 h532.0 M0 27.03846153846154 h532.0 M0 54.07692307692308 h532.0 M0 81.11538461538461 h532.0 M0 108.15384615384616 h532.0 M0 135.1923076923077 h532.0 M0 162.23076923076923 h532.0 M0 189.26923076923077 h532.0 M0 216.30769230769232 h532.0 M0 243.34615384615384 h532.0 M0 270.3846153846154 h532.0 M0 297.4230769230769 h532.0 M0 324.46153846153845 h532.0 M0 351.5 h532.0" transform="translate(98.0, 88.5)"/><g font-size="12" font-family="Helvetica" transform="translate(92.0, 88.5)"><text x="0" y="0.0" transform="translate(-14, 3.5)">80</text><text x="0" y="27.03846153846154" transform="translate(-14, 3.5)">70</text><text x="0" y="54.07692307692308" transform="translate(-14, 3.5)">60</text><text x="0" y="81.11538461538461" transform="translate(-14, 3.5)">50</text><text x="0" y="108.15384615384616" transform="translate(-14, 3.5)">40</text><text x="0" y="135.1923076923077" transform="translate(-14, 3.5)">30</text><text x="0" y="162.23076923076923" transform="translate(-14, 3.5)">20</text><text x="0" y="189.26923076923077" transform="translate(-14, 3.5)">10</text><text x="0" y="216.30769230769232" transform="translate(-7, 3.5)">0</text><text x="0" y="243.34615384615384" transform="translate(-18, 3.5)">-10</text><text x="0" y="270.3846153846154" transform="translate(-18, 3.5)">-20</text><text x="0" y="297.4230769230769" transform="translate(-18, 3.5)">-30</text><text x="0" y="324.46153846153845" transform="translate(-18, 3.5)">-40</text><text x="0" y="351.5" transform="translate(-18, 3.5)">-50</text></g></g><g><path stroke="#CCCCCC" stroke-dasharray="None" d="M0.0 0 v351.5 M76.0 0 v351.5 M152.0 0 v351.5 M228.0 0 v351.5 M304.0 0 v351.5 M380.0 0 v351.5 M456.0 0 v351.5 M532.0 0 v351.5" transform="translate(98.0, 88.5)"/><g font-size="12" font-family="Helvetica" transform="translate(98.0, 106.5)"><text x="0.0" y="351.5" transform="translate(-1.5, 0)"> </text><text x="76.0" y="351.5" transform="translate(-8.0, 0)">Q1</text><text x="152.0" y="351.5" transform="translate(-8.0, 0)">Q2</text><text x="228.0" y="351.5" transform="translate(-8.0, 0)">Q3</text><text x="304.0" y="351.5" transform="translate(-8.0, 0)">Q4</text><text x="380.0" y="351.5" transform="translate(-8.0, 0)">Q5</text><text x="456.0" y="351.5" transform="translate(-8.0, 0)">Q6</text><text x="532.0" y="351.5" transform="translate(-1.5, 0)"> </text></g></g><path transform="translate(98.0, 88.5)" d="M0 216.3076923076923 h532.0z" stroke="black"/><g opacity="0.8" transform="translate(-70.0, -60.0) rotate(180, 350.0, 250.0) scale(-1, 1) translate(-532.0, 0) translate(-28.0, 135.1923076923077)"><path d="M76.0 0.0 h56.0 v32.44615384615385 h-56.0 v-32.44615384615385Z M152.0 0.0 h56.0 v-21.630769230769232 h-56.0 v21.630769230769232Z M228.0 0.0 h56.0 v59.48461538461539 h-56.0 v-59.48461538461539Z M304.0 0.0 h56.0 v48.66923076923077 h-56.0 v-48.66923076923077Z M380.0 0.0 h56.0 v-13.51923076923077 h-56.0 v13.51923076923077Z M456.0 0.0 h56.0 v81.11538461538461 h-56.0 v-81.11538461538461Z" fill="#5fab9e"/><path d="M76.0 0.0 h56.0 v-8.111538461538462 h-56.0 v8.111538461538462Z M152.0 -21.630769230769232 h56.0 v-40.55769230769231 h-56.0 v40.55769230769231Z M228.0 59.48461538461539 h56.0 v13.51923076923077 h-56.0 v-13.51923076923077Z M304.0 0.0 h56.0 v-5.407692307692308 h-56.0 v5.407692307692308Z M380.0 -13.51923076923077 h56.0 v-54.07692307692308 h-56.0 v54.07692307692308Z M456.0 81.11538461538461 h56.0 v21.630769230769232 h-56.0 v-21.630769230769232Z" fill="#f58b51"/><path d="M76.0 32.44615384615385 h56.0 v24.334615384615386 h-56.0 v-24.334615384615386Z M152.0 -62.18846153846154 h56.0 v-62.18846153846154 h-56.0 v62.18846153846154Z M228.0 73.00384615384615 h56.0 v45.965384615384615 h-56.0 v-45.965384615384615Z M304.0 48.66923076923077 h56.0 v43.261538461538464 h-56.0 v-43.261538461538464Z M380.0 -67.59615384615385 h56.0 v-67.59615384615385 h-56.0 v67.59615384615385Z M456.0 102.74615384615385 h56.0 v102.74615384615385 h-56.0 v-102.74615384615385Z" fill="#f7dd72"/></g><g><rect transform="translate(-8.0, -5.625)" x="548.5" y="110.625" width="80.0" height="56.25" fill="#ffffff" stroke="#CCCCCC"/><g transform="translate(0, 13)"><rect y="97.625" x="548.5" width="13" height="13" fill="#5fab9e"/><text y="107.375" x="563.5" font-size="11" font-family="Helvetica">Revenue</text></g><g transform="translate(0, 15)"><rect y="110.625" x="548.5" width="13" height="13" fill="#f58b51"/><text y="120.375" x="563.5" font-size="11" font-family="Helvetica">Costs</text></g><g transform="translate(0, 17)"><rect y="123.625" x="548.5" width="13" height="13" fill="#f7dd72"/><text y="133.375" x="563.5" font-size="11" font-family="Helvetica">Net</text></g></g></svg>