<svg xmlns="http://www.w3.org/2000/svg" width="600" height="400" viewBox="0 0 600 400"><path fill="#FFFFFF" d="M0 0 h600 v400 h-600 v-400Z"/><text transform="translate(-130.5, 18)" fill="#444444" font-family="Arial" font-weight="normal" font-size="16" x="300.0" y="10.0">Website Traffic by Source (K visits)</text><defs><clipPath id="plot-clip"><rect x="0" y="0" width="524.0" height="333.0"/></clipPath></defs><g><path stroke="#CCCCCC" stroke-dasharray="None" d="M0 0.0 h524.0 M0 66.60000000000001 h524.0 M0 133.20000000000002 h524.0 M0 199.79999999999998 h524.0 M0 266.40000000000003 h524.0 M0 333.0 h524.0" transform="translate(46.0, 47.0)"/><g font-size="12" font-family="Arial" fill="#444444" transform="translate(40.0, 47.0)"><text x="0" y="0.0" transform="translate(-21, 3.5)">400</text><text x="0" y="66.60000000000001" transform="translate(-21, 3.5)">320</text><text x="0" y="133.20000000000002" transform="translate(-21, 3.5)">240</text><text x="0" y="199.79999999999998" transform="translate(-21, 3.5)">160</text><text x="0" y="266.40000000000003" transform="translate(-14, 3.5)">80</text><text x="0" y="333.0" transform="translate(-7, 3.5)">0</text></g></g><g><path stroke="#CCCCCC" stroke-dasharray="None" d="M0.0 0 v333.0 M87.33333333333333 0 v333.0 M174.66666666666666 0 v333.0 M262.0 0 v333.0 M349.3333333333333 0 v333.0 M436.6666666666667 0 v333.0 M524.0 0 v333.0" transform="translate(46.0, 47.0)"/><g font-size="12" font-family="Arial" fill="#444444" transform="translate(46.0, 65.0)"><text x="0.0" y="333.0" transform="translate(-2.0, 0)"> </text><text x="87.33333333333333" y="333.0" transform="translate(-10.0, 0)">Jan</text><text x="174.66666666666666" y="333.0" transform="translate(-11.0, 0)">Feb</text><text x="262.0" y="333.0" transform="translate(-10.5, 0)">Mar</text><text x="349.3333333333333" y="333.0" transform="translate(-10.0, 0)">Apr</text><text x="436.6666666666667" y="333.0" transform="translate(-11.5, 0)">May</text><text x="524.0" y="333.0" transform="translate(-2.0, 0)"> </text></g></g><g opacity="0.8" transform="translate(-30.0, -20.0) rotate(180, 300.0, 200.0) scale(-1, 1) translate(-524.0, 0) translate(-32.75, 0)"><path d="M87.3 0.0 h65.5 v99.9 h-65.5 v-99.9Z M174.7 0.0 h65.5 v116.5 h-65.5 v-116.5Z M262.0 0.0 h65.5 v137.4 h-65.5 v-137.4Z M349.3 0.0 h65.5 v149.8 h-65.5 v-149.8Z M436.7 0.0 h65.5 v174.8 h-65.5 v-174.8Z" fill="#5fab9e"/><path d="M87.3 99.9 h65.5 v66.6 h-65.5 v-66.6Z M174.7 116.5 h65.5 v62.4 h-65.5 v-62.4Z M262.0 137.4 h65.5 v74.9 h-65.5 v-74.9Z M349.3 149.8 h65.5 v79.1 h-65.5 v-79.1Z M436.7 174.8 h65.5 v83.2 h-65.5 v-83.2Z" fill="#f58b51"/><path d="M87.3 166.5 h65.5 v33.3 h-65.5 v-33.3Z M174.7 179.0 h65.5 v45.8 h-65.5 v-45.8Z M262.0 212.3 h65.5 v49.9 h-65.5 v-49.9Z M349.3 228.9 h65.5 v58.3 h-65.5 v-58.3Z M436.7 258.1 h65.5 v70.8 h-65.5 v-70.8Z" fill="#f7dd72"/></g><g><rect transform="translate(-14.5, -10.5)" x="493.5" y="61.5" width="87.0" height="63.0" fill="#f5f5f5" stroke="#d7d7d7"/><g><rect y="64.5" x="493.5" width="12" height="12" fill="#5fab9e"/><text y="73.5" x="507.5" font-size="12" font-family="Arial" fill="#444444">Organic</text></g><g><rect y="76.5" x="493.5" width="12" height="12" fill="#f58b51"/><text y="85.5" x="507.5" font-size="12" font-family="Arial" fill="#444444">Paid</text></g><g><rect y="88.5" x="493.5" width="12" height="12" fill="#f7dd72"/><text y="97.5" x="507.5" font-size="12" font-family="Arial" fill="#444444">Referral</text></g></g><path d="M46.0 47.0 v333.0 M46.0 380.0 h524.0" stroke="#999" stroke-width="1.5" fill="none"/><text x="14" y="213.5" fill="#444444" font-size="14" font-family="Arial" text-anchor="middle" transform="rotate(-90, 14, 213.5)">Visits (K)</text></svg>