<svg xmlns="http://www.w3.org/2000/svg" width="700" height="400" viewBox="0 0 700 400"><path fill="white" d="M0 0 h700 v400 h-700 v-400Z"/><text transform="translate(-106.5, 19)" fill="#444444" font-family="Helvetica" font-weight="bold" font-size="16" x="350.0" y="10.0">Sales Performance by Region</text><g><path stroke="#CCCCCC" stroke-dasharray="None" d="M0 0.0 h606.0 M0 66.3 h606.0 M0 132.6 h606.0 M0 198.9 h606.0 M0 265.2 h606.0 M0 331.5 h606.0" transform="translate(59.0, 48.5)"/><g font-size="12" font-family="Helvetica" transform="translate(53.0, 48.5)"><text x="0" y="0.0" transform="translate(-14, 3.5)">65</text><text x="0" y="66.3" transform="translate(-14, 3.5)">52</text><text x="0" y="132.6" transform="translate(-14, 3.5)">39</text><text x="0" y="198.9" transform="translate(-14, 3.5)">26</text><text x="0" y="265.2" transform="translate(-14, 3.5)">13</text><text x="0" y="331.5" transform="translate(-7, 3.5)">0</text></g></g><g><path stroke="#CCCCCC" stroke-dasharray="None" d="M0.0 0 v331.5 M121.2 0 v331.5 M242.4 0 v331.5 M363.59999999999997 0 v331.5 M484.8 0 v331.5 M606.0 0 v331.5" transform="translate(59.0, 48.5)"/><g font-size="12" font-family="Helvetica" transform="translate(59.0, 66.5)"><text x="0.0" y="331.5" transform="translate(-1.5, 0)"> </text><text x="121.2" y="331.5" transform="translate(-8.0, 0)">Q1</text><text x="242.4" y="331.5" transform="translate(-8.0, 0)">Q2</text><text x="363.59999999999997" y="331.5" transform="translate(-8.0, 0)">Q3</text><text x="484.8" y="331.5" transform="translate(-8.0, 0)">Q4</text><text x="606.0" y="331.5" transform="translate(-1.5, 0)"> </text></g></g><g opacity="0.8" transform="translate(-35.0, -20.0) rotate(180, 350.0, 200.0) scale(-1, 1) translate(-606.0, 0) translate(-46.61538461538461, 0)"><path d="M121.2 0.0 h93.23076923076923 v229.5 h-93.23076923076923 v-229.5Z M242.4 0.0 h93.23076923076923 v265.2 h-93.23076923076923 v-265.2Z M363.6 0.0 h93.23076923076923 v193.8 h-93.23076923076923 v-193.8Z M484.79999999999995 0.0 h93.23076923076923 v311.1 h-93.23076923076923 v-311.1Z" fill="#5fab9e"/><path d="M121.2 229.5 h93.23076923076923 v193.8 h-93.23076923076923 v-193.8Z M242.4 265.2 h93.23076923076923 v234.60000000000002 h-93.23076923076923 v-234.60000000000002Z M363.6 193.8 h93.23076923076923 v265.2 h-93.23076923076923 v-265.2Z M484.79999999999995 311.1 h93.23076923076923 v249.9 h-93.23076923076923 v-249.9Z" fill="#f58b51"/><path d="M121.2 423.29999999999995 h93.23076923076923 v265.2 h-93.23076923076923 v-265.2Z M242.4 499.8 h93.23076923076923 v198.9 h-93.23076923076923 v-198.9Z M363.6 459.0 h93.23076923076923 v234.60000000000002 h-93.23076923076923 v-234.60000000000002Z M484.79999999999995 561.0 h93.23076923076923 v260.1 h-93.23076923076923 v-260.1Z" fill="#f7dd72"/></g><g><rect transform="translate(-5.875, -5.625)" x="608.125" y="58.125" width="58.75" height="56.25" fill="#ffffff" stroke="#CCCCCC"/><g transform="translate(0, 13)"><rect y="45.125" x="608.125" width="13" height="13" fill="#5fab9e"/><text y="54.875" x="623.125" font-size="11" font-family="Helvetica">North</text></g><g transform="translate(0, 15)"><rect y="58.125" x="608.125" width="13" height="13" fill="#f58b51"/><text y="67.875" x="623.125" font-size="11" font-family="Helvetica">South</text></g><g transform="translate(0, 17)"><rect y="71.125" x="608.125" width="13" height="13" fill="#f7dd72"/><text y="80.875" x="623.125" font-size="11" font-family="Helvetica">East</text></g></g></svg>