<svg xmlns="http://www.w3.org/2000/svg" width="700" height="400" viewBox="0 0 700 400"><path fill="white" d="M0 0 h700 v400 h-700 v-400Z"/><text transform="translate(-126.5, 19)" fill="#444444" font-family="Helvetica" font-weight="bold" font-size="16" x="350.0" y="10.0">Year-over-Year Growth by Segment</text><g><path stroke="#CCCCCC" stroke-dasharray="None" d="M0 0.0 h602.0 M0 55.25 h602.0 M0 110.5 h602.0 M0 165.75 h602.0 M0 221.0 h602.0 M0 276.25 h602.0 M0 331.5 h602.0" transform="translate(63.0, 48.5)"/><g font-size="12" font-family="Helvetica" transform="translate(57.0, 48.5)"><text x="0" y="0.0" transform="translate(-14, 3.5)">40</text><text x="0" y="55.25" transform="translate(-14, 3.5)">30</text><text x="0" y="110.5" transform="translate(-14, 3.5)">20</text><text x="0" y="165.75" transform="translate(-14, 3.5)">10</text><text x="0" y="221.0" transform="translate(-7, 3.5)">0</text><text x="0" y="276.25" transform="translate(-18, 3.5)">-10</text><text x="0" y="331.5" transform="translate(-18, 3.5)">-20</text></g></g><g><path stroke="#CCCCCC" stroke-dasharray="None" d="M0.0 0 v331.5 M150.5 0 v331.5 M301.0 0 v331.5 M451.5 0 v331.5 M602.0 0 v331.5" transform="translate(63.0, 48.5)"/><g font-size="12" font-family="Helvetica" transform="translate(63.0, 66.5)"><text x="0.0" y="331.5" transform="translate(-1.5, 0)"> </text><text x="150.5" y="331.5" transform="translate(-8.0, 0)">Q1</text><text x="301.0" y="331.5" transform="translate(-8.0, 0)">Q2</text><text x="451.5" y="331.5" transform="translate(-8.0, 0)">Q3</text><text x="602.0" y="331.5" transform="translate(-1.5, 0)"> </text></g></g><path transform="translate(63.0, 48.5)" d="M0 221.0 h602.0z" stroke="black"/><g opacity="0.8" transform="translate(-35.0, -20.0) rotate(180, 350.0, 200.0) scale(-1, 1) translate(-602.0, 0) translate(0.0, 110.5)"><path d="M60.2 0.0 h120.4 v66.3 h-120.4 v-66.3Z M240.8 0.0 h120.4 v121.55 h-120.4 v-121.55Z M421.40000000000003 0.0 h120.4 v165.75 h-120.4 v-165.75Z" fill="#5fab9e"/><path d="M60.2 22.099999999999994 h120.4 v44.2 h-120.4 v-44.2Z M240.8 38.675 h120.4 v82.875 h-120.4 v-82.875Z M421.40000000000003 55.25 h120.4 v110.5 h-120.4 v-110.5Z" fill="#f58b51"/><path d="M60.2 22.1 h120.4 v22.1 h-120.4 v-22.1Z M240.8 38.675 h120.4 v38.675 h-120.4 v-38.675Z M421.40000000000003 55.25 h120.4 v55.25 h-120.4 v-55.25Z" fill="#f7dd72"/></g><g><rect transform="translate(-8.0, -5.625)" x="589.0" y="58.125" width="80.0" height="56.25" fill="#ffffff" stroke="#CCCCCC"/><g transform="translate(0, 13)"><rect y="45.125" x="589.0" width="13" height="13" fill="#5fab9e"/><text y="54.875" x="604.0" font-size="11" font-family="Helvetica">Revenue</text></g><g transform="translate(0, 15)"><rect y="58.125" x="589.0" width="13" height="13" fill="#f58b51"/><text y="67.875" x="604.0" font-size="11" font-family="Helvetica">Costs</text></g><g transform="translate(0, 17)"><rect y="71.125" x="589.0" width="13" height="13" fill="#f7dd72"/><text y="80.875" x="604.0" font-size="11" font-family="Helvetica">Net</text></g></g></svg>