<svg xmlns="http://www.w3.org/2000/svg" width="700" height="450" viewBox="0 0 700 450"><path fill="#FFFFFF" d="M0 0 h700 v450 h-700 v-450Z"/><text transform="translate(-149.0, 18)" fill="#444444" font-family="Arial" font-weight="bold" font-size="16" x="350.0" y="11.25">Revenue vs Conversion Rate by Quarter</text><defs><clipPath id="plot-clip"><rect x="0" y="0" width="630.0" height="345.5"/></clipPath></defs><g><path stroke="#cccccc" stroke-dasharray="None" d="M0 0.0 h630.0 M0 69.10000000000001 h630.0 M0 138.20000000000002 h630.0 M0 207.29999999999998 h630.0 M0 276.40000000000003 h630.0 M0 345.5 h630.0" transform="translate(35.0, 49.5)"/><g font-size="12" font-family="Arial" fill="#000000" transform="translate(29.0, 49.5)"><text x="0" y="0.0" transform="translate(-21, 3.5)">700</text><text x="0" y="69.10000000000001" transform="translate(-21, 3.5)">560</text><text x="0" y="138.20000000000002" transform="translate(-21, 3.5)">420</text><text x="0" y="207.29999999999998" transform="translate(-21, 3.5)">280</text><text x="0" y="276.40000000000003" transform="translate(-21, 3.5)">140</text><text x="0" y="345.5" transform="translate(-7, 3.5)">0</text></g></g><g><path stroke="#cccccc" stroke-dasharray="None" d="M0.0 0 v345.5 M90.0 0 v345.5 M180.0 0 v345.5 M270.0 0 v345.5 M360.0 0 v345.5 M450.0 0 v345.5 M540.0 0 v345.5 M630.0 0 v345.5" transform="translate(35.0, 49.5)"/><g font-size="12" font-family="Arial" fill="#000000" transform="translate(35.0, 67.5)"><text x="0.0" y="345.5" transform="translate(-2.0, 0)"> </text><text x="90.0" y="345.5" transform="translate(-8.5, 0)">Q1</text><text x="180.0" y="345.5" transform="translate(-8.5, 0)">Q2</text><text x="270.0" y="345.5" transform="translate(-8.5, 0)">Q3</text><text x="360.0" y="345.5" transform="translate(-8.5, 0)">Q4</text><text x="450.0" y="345.5" transform="translate(-8.5, 0)">Q5</text><text x="540.0" y="345.5" transform="translate(-8.5, 0)">Q6</text><text x="630.0" y="345.5" transform="translate(-2.0, 0)"> </text></g></g><g><g opacity="0.8" transform="translate(-35.0, -55.0) rotate(180, 350.0, 225.0) scale(-1, 1) translate(-630.0, 0)"><path d="M54.0 0 h72.0 v157.9 h-72.0 v-157.9Z M144.0 0 h72.0 v202.4 h-72.0 v-202.4Z M234.0 0 h72.0 v187.6 h-72.0 v-187.6Z M324.0 0 h72.0 v256.7 h-72.0 v-256.7Z M414.0 0 h72.0 v301.1 h-72.0 v-301.1Z M504.0 0 h72.0 v345.5 h-72.0 v-345.5Z" fill="#5fab9e"/></g><g opacity="0.8" transform="translate(-35.0, -55.0) rotate(180, 350.0, 225.0) scale(-1, 1) translate(-630.0, 0)"><g fill="white" stroke="#f58b51" stroke-width="2"><path d="M90.0 181.4 L180.0 224.6 L270.0 207.3 L360.0 267.8 L450.0 302.3 L540.0 336.9" fill="none"/></g></g><g font-size="12" font-family="Arial" fill="#000000" transform="translate(671.0, 49.5)"><text x="0" y="0.0" transform="translate(0, 3.5)">4</text><text x="0" y="86.375" transform="translate(0, 3.5)">3</text><text x="0" y="172.75" transform="translate(0, 3.5)">2</text><text x="0" y="259.125" transform="translate(0, 3.5)">1</text><text x="0" y="345.5" transform="translate(0, 3.5)">0</text></g></g><g><rect x="230.0" y="428.0" width="11.0" height="11.0" fill="#5fab9e"/><text x="247.0" y="437.35" fill="#444444" font-size="11" font-family="Arial" text-anchor="start">Revenue ($K)</text><rect x="339.0" y="428.0" width="11.0" height="11.0" fill="#f58b51"/><text x="356.0" y="437.35" fill="#444444" font-size="11" font-family="Arial" text-anchor="start">Conversion Rate (%)</text></g><path d="M35.0 49.5 v345.5 M35.0 395.0 h630.0" stroke="#999" stroke-width="1.5" fill="none"/></svg>