<svg xmlns="http://www.w3.org/2000/svg" width="500" height="500" viewBox="0 0 500 500"><path fill="#FFFFFF" d="M0 0 h500 v500 h-500 v-500Z"/><text transform="translate(-76.5, 18)" fill="#444444" font-family="Arial" font-weight="bold" font-size="16" x="250.0" y="12.5">Revenue and Margin</text><defs><clipPath id="plot-clip"><rect x="0" y="0" width="450.0" height="423.0"/></clipPath></defs><g><path stroke="#cccccc" stroke-dasharray="None" d="M0 0.0 h450.0 M0 84.60000000000001 h450.0 M0 169.20000000000002 h450.0 M0 253.79999999999998 h450.0 M0 338.40000000000003 h450.0 M0 423.0 h450.0" transform="translate(25.0, 52.0)"/><g font-size="12" font-family="Arial" fill="#000000" transform="translate(19.0, 52.0)"><text x="0" y="0.0" transform="translate(-21, 3.5)">250</text><text x="0" y="84.60000000000001" transform="translate(-21, 3.5)">200</text><text x="0" y="169.20000000000002" transform="translate(-21, 3.5)">150</text><text x="0" y="253.79999999999998" transform="translate(-21, 3.5)">100</text><text x="0" y="338.40000000000003" transform="translate(-14, 3.5)">50</text><text x="0" y="423.0" transform="translate(-7, 3.5)">0</text></g></g><g><path stroke="#cccccc" stroke-dasharray="None" d="M0.0 0 v423.0 M90.0 0 v423.0 M180.0 0 v423.0 M270.0 0 v423.0 M360.0 0 v423.0 M450.0 0 v423.0" transform="translate(25.0, 52.0)"/><g font-size="12" font-family="Arial" fill="#000000" transform="translate(25.0, 70.0)"><text x="0.0" y="423.0" transform="translate(-2.0, 0)"> </text><text x="90.0" y="423.0" transform="translate(-8.5, 0)">Q1</text><text x="180.0" y="423.0" transform="translate(-8.5, 0)">Q2</text><text x="270.0" y="423.0" transform="translate(-8.5, 0)">Q3</text><text x="360.0" y="423.0" transform="translate(-8.5, 0)">Q4</text><text x="450.0" y="423.0" transform="translate(-2.0, 0)"> </text></g></g><g><g opacity="0.8" transform="translate(-25.0, -25.0) rotate(180, 250.0, 250.0) scale(-1, 1) translate(-450.0, 0) translate(-56.25, 0)"><path d="M90.0 0 h112.5 v203.0 h-112.5 v-203.0Z M225.0 0 h112.5 v304.6 h-112.5 v-304.6Z M360.0 0 h112.5 v253.8 h-112.5 v-253.8Z M495.0 0 h112.5 v355.3 h-112.5 v-355.3Z" fill="#5fab9e"/></g><g opacity="0.8" transform="translate(-25.0, -25.0) rotate(180, 250.0, 250.0) scale(-1, 1) translate(-450.0, 0)"><g fill="white" stroke="#5fab9e" stroke-width="2"><path d="M90.0 20.3 L240.0 32.1 L390.0 25.4 L540.0 37.2" fill="none"/></g></g></g><g><rect transform="translate(-4.95, -2.1)" x="400.05" y="58.1" width="75.89999999999999" height="32.199999999999996" fill="#f5f5f5" fill-opacity="0.85" stroke="none"/><g><rect y="60.099999999999994" x="400.05" width="12" height="12" fill="#5fab9e"/><text y="69.1" x="414.05" font-size="12" font-family="Arial" fill="#444444">Revenue</text></g><g><rect y="72.1" x="400.05" width="12" height="12" fill="#f58b51"/><text y="81.1" x="414.05" font-size="12" font-family="Arial" fill="#444444">Margin %</text></g></g><path d="M25.0 52.0 v423.0 M25.0 475.0 h450.0" stroke="#999" stroke-width="1.5" fill="none"/></svg>