<svg xmlns="http://www.w3.org/2000/svg" width="700" height="400" viewBox="0 0 700 400"><path fill="#FFFFFF" d="M0 0 h700 v400 h-700 v-400Z"/><text transform="translate(-134.5, 18)" fill="#444444" font-family="Arial" font-weight="normal" font-size="16" x="350.0" y="10.0">Software Project Timeline — Q1 2026</text><defs><clipPath id="plot-clip"><rect x="0" y="0" width="563.0" height="333.0"/></clipPath></defs><g><path stroke="#CCCCCC" stroke-dasharray="None" d="M0 33.3 h563.0 M0 99.89999999999999 h563.0 M0 166.5 h563.0 M0 233.09999999999997 h563.0 M0 299.7 h563.0" transform="translate(102.0, 47.0)"/><g font-size="12" font-family="Arial" fill="#444444" transform="translate(96.0, 47.0)"><text x="0" y="33.3" dominant-baseline="central" transform="translate(-39, 0)">Design</text><text x="0" y="99.89999999999999" dominant-baseline="central" transform="translate(-51, 0)">Frontend</text><text x="0" y="166.5" dominant-baseline="central" transform="translate(-49, 0)">Backend</text><text x="0" y="233.09999999999997" dominant-baseline="central" transform="translate(-42, 0)">Testing</text><text x="0" y="299.7" dominant-baseline="central" transform="translate(-67, 0)">Deployment</text></g></g><g><path stroke="#CCCCCC" stroke-dasharray="None" d="M563.0 0 v333.0 M500.4444444444444 0 v333.0 M437.8888888888889 0 v333.0 M375.3333333333333 0 v333.0 M312.77777777777777 0 v333.0 M250.2222222222222 0 v333.0 M187.66666666666666 0 v333.0 M125.1111111111111 0 v333.0 M62.55555555555555 0 v333.0 M0.0 0 v333.0" transform="translate(102.0, 47.0)"/><g font-size="12" font-family="Arial" fill="#444444" transform="translate(102.0, 65.0)"><text x="563.0" y="333.0" transform="translate(-3.5, 0)">9</text><text x="500.4444444444444" y="333.0" transform="translate(-3.5, 0)">8</text><text x="437.8888888888889" y="333.0" transform="translate(-3.5, 0)">7</text><text x="375.3333333333333" y="333.0" transform="translate(-3.5, 0)">6</text><text x="312.77777777777777" y="333.0" transform="translate(-3.5, 0)">5</text><text x="250.2222222222222" y="333.0" transform="translate(-3.5, 0)">4</text><text x="187.66666666666666" y="333.0" transform="translate(-3.5, 0)">3</text><text x="125.1111111111111" y="333.0" transform="translate(-3.5, 0)">2</text><text x="62.55555555555555" y="333.0" transform="translate(-3.5, 0)">1</text><text x="0.0" y="333.0" transform="translate(-3.5, 0)">0</text></g></g><g transform="translate(102.0, 47.0)"><g opacity="0.8"><path d="M0.0 13.3 h125.1 v40.0 h-125.1 v-40.0Z M62.6 79.9 h187.7 v40.0 h-187.7 v-40.0Z M187.7 146.5 h187.7 v40.0 h-187.7 v-40.0Z M312.8 213.1 h187.7 v40.0 h-187.7 v-40.0Z M375.3 279.7 h187.7 v40.0 h-187.7 v-40.0Z" fill="#5fab9e"/></g><g stroke="#555555" fill="none"><path d="M125.1111111111111,33.3 Q93.83333333333333,33.3 93.83333333333333,99.89999999999999 Q62.55555555555555,99.89999999999999 62.55555555555555,99.89999999999999"/><path d="M125.1111111111111,33.3 Q156.38888888888889,33.3 156.38888888888889,166.5 Q187.66666666666666,166.5 187.66666666666666,166.5"/><path d="M375.3333333333333,166.5 Q344.05555555555554,166.5 344.05555555555554,233.09999999999997 Q312.77777777777777,233.09999999999997 312.77777777777777,233.09999999999997"/><path d="M500.4444444444444,233.09999999999997 Q437.88888888888886,233.09999999999997 437.88888888888886,299.7 Q375.3333333333333,299.7 375.3333333333333,299.7"/></g><g stroke="#CCCCCC" stroke-dasharray="4,4" stroke-width="1.5"><path d="M281.5,0 v333.0"/></g><path stroke="#CCCCCC" stroke-dasharray="None" d="M0 333.0 h563.0"/><path stroke="#CCCCCC" stroke-dasharray="None" d="M0 0 h563.0"/><path stroke="#CCCCCC" stroke-dasharray="None" d="M0 0 v333.0"/><path stroke="#CCCCCC" stroke-dasharray="None" d="M563.0 0 v333.0"/></g></svg>