<svg xmlns="http://www.w3.org/2000/svg" width="600" height="380" viewBox="0 0 600 380"><path fill="#FFFFFF" d="M0 0 h600 v380 h-600 v-380Z"/><text transform="translate(-130.5, 18)" fill="#444444" font-family="Arial" font-weight="normal" font-size="16" x="300.0" y="9.5">Product Launch Timeline — Q1 2026</text><defs><clipPath id="plot-clip"><rect x="0" y="0" width="466.0" height="315.0"/></clipPath></defs><g><path stroke="#CCCCCC" stroke-dasharray="None" d="M0 31.5 h466.0 M0 94.5 h466.0 M0 157.5 h466.0 M0 220.5 h466.0 M0 283.5 h466.0" transform="translate(104.0, 46.0)"/><g font-size="12" font-family="Arial" fill="#444444" transform="translate(98.0, 46.0)"><text x="0" y="31.5" dominant-baseline="central" transform="translate(-53, 0)">Research</text><text x="0" y="94.5" dominant-baseline="central" transform="translate(-39, 0)">Design</text><text x="0" y="157.5" dominant-baseline="central" transform="translate(-74, 0)">Development</text><text x="0" y="220.5" dominant-baseline="central" transform="translate(-19, 0)">QA</text><text x="0" y="283.5" dominant-baseline="central" transform="translate(-41, 0)">Launch</text></g></g><g><path stroke="#CCCCCC" stroke-dasharray="None" d="M466.0 0 v315.0 M414.2222222222222 0 v315.0 M362.44444444444446 0 v315.0 M310.66666666666663 0 v315.0 M258.8888888888889 0 v315.0 M207.1111111111111 0 v315.0 M155.33333333333331 0 v315.0 M103.55555555555554 0 v315.0 M51.77777777777777 0 v315.0 M0.0 0 v315.0" transform="translate(104.0, 46.0)"/><g font-size="12" font-family="Arial" fill="#444444" transform="translate(104.0, 64.0)"><text x="466.0" y="315.0" transform="translate(-3.5, 0)">9</text><text x="414.2222222222222" y="315.0" transform="translate(-3.5, 0)">8</text><text x="362.44444444444446" y="315.0" transform="translate(-3.5, 0)">7</text><text x="310.66666666666663" y="315.0" transform="translate(-3.5, 0)">6</text><text x="258.8888888888889" y="315.0" transform="translate(-3.5, 0)">5</text><text x="207.1111111111111" y="315.0" transform="translate(-3.5, 0)">4</text><text x="155.33333333333331" y="315.0" transform="translate(-3.5, 0)">3</text><text x="103.55555555555554" y="315.0" transform="translate(-3.5, 0)">2</text><text x="51.77777777777777" y="315.0" transform="translate(-3.5, 0)">1</text><text x="0.0" y="315.0" transform="translate(-3.5, 0)">0</text></g></g><g transform="translate(104.0, 46.0)"><g opacity="0.8"><path d="M0.0 12.6 h103.6 v37.8 h-103.6 v-37.8Z M51.8 75.6 h155.3 v37.8 h-155.3 v-37.8Z M155.3 138.6 h155.3 v37.8 h-155.3 v-37.8Z M258.9 201.6 h155.3 v37.8 h-155.3 v-37.8Z M310.7 264.6 h155.3 v37.8 h-155.3 v-37.8Z" fill="#5fab9e"/></g><g stroke="#555555" fill="none"><path d="M103.55555555555554,31.5 Q77.66666666666666,31.5 77.66666666666666,94.5 Q51.77777777777777,94.5 51.77777777777777,94.5"/><path d="M103.55555555555554,31.5 Q129.44444444444443,31.5 129.44444444444443,157.5 Q155.33333333333331,157.5 155.33333333333331,157.5"/><path d="M310.66666666666663,157.5 Q284.77777777777777,157.5 284.77777777777777,220.5 Q258.8888888888889,220.5 258.8888888888889,220.5"/><path d="M414.2222222222222,220.5 Q362.4444444444444,220.5 362.4444444444444,283.5 Q310.66666666666663,283.5 310.66666666666663,283.5"/></g><g stroke="#CCCCCC" stroke-dasharray="4,4" stroke-width="1.5"><path d="M233.0,0 v315.0"/></g><path stroke="#CCCCCC" stroke-dasharray="None" d="M0 315.0 h466.0"/><path stroke="#CCCCCC" stroke-dasharray="None" d="M0 0 h466.0"/><path stroke="#CCCCCC" stroke-dasharray="None" d="M0 0 v315.0"/><path stroke="#CCCCCC" stroke-dasharray="None" d="M466.0 0 v315.0"/></g><path d="M104.0 46.0 v315.0 M104.0 361.0 h466.0" stroke="#999" stroke-width="1.5" fill="none"/></svg>