<svg xmlns="http://www.w3.org/2000/svg" width="600" height="380" viewBox="0 0 600 380"><path fill="#FFFFFF" d="M0 0 h600 v380 h-600 v-380Z"/><text transform="translate(-82.5, 16.0)" fill="#444444" font-family="Roboto" font-weight="normal" font-size="16" x="300.0" y="9.5">Product Launch Timeline — Q1 2026</text><defs><clipPath id="plot-clip"><rect x="0" y="0" width="466.0" height="318.0"/></clipPath></defs><g><path stroke="#CCCCCC" stroke-dasharray="None" d="M0 31.8 h466.0 M0 95.4 h466.0 M0 159.0 h466.0 M0 222.60000000000002 h466.0 M0 286.2 h466.0" transform="translate(104.0, 43.0)"/><g font-size="12" font-family="Arial" fill="#444444" transform="translate(98.0, 43.0)"><text x="0" y="31.8" dominant-baseline="central" transform="translate(-53, 0)">Research</text><text x="0" y="95.4" dominant-baseline="central" transform="translate(-39, 0)">Design</text><text x="0" y="159.0" dominant-baseline="central" transform="translate(-74, 0)">Development</text><text x="0" y="222.60000000000002" dominant-baseline="central" transform="translate(-19, 0)">QA</text><text x="0" y="286.2" dominant-baseline="central" transform="translate(-41, 0)">Launch</text></g></g><g><path stroke="#CCCCCC" stroke-dasharray="None" d="M466.0 0 v318.0 M414.2222222222222 0 v318.0 M362.44444444444446 0 v318.0 M310.66666666666663 0 v318.0 M258.8888888888889 0 v318.0 M207.1111111111111 0 v318.0 M155.33333333333331 0 v318.0 M103.55555555555554 0 v318.0 M51.77777777777777 0 v318.0 M0.0 0 v318.0" transform="translate(104.0, 43.0)"/><g font-size="12" font-family="Arial" fill="#444444" transform="translate(104.0, 61.0)"><text x="466.0" y="318.0" transform="translate(-3.5, 0)">9</text><text x="414.2222222222222" y="318.0" transform="translate(-3.5, 0)">8</text><text x="362.44444444444446" y="318.0" transform="translate(-3.5, 0)">7</text><text x="310.66666666666663" y="318.0" transform="translate(-3.5, 0)">6</text><text x="258.8888888888889" y="318.0" transform="translate(-3.5, 0)">5</text><text x="207.1111111111111" y="318.0" transform="translate(-3.5, 0)">4</text><text x="155.33333333333331" y="318.0" transform="translate(-3.5, 0)">3</text><text x="103.55555555555554" y="318.0" transform="translate(-3.5, 0)">2</text><text x="51.77777777777777" y="318.0" transform="translate(-3.5, 0)">1</text><text x="0.0" y="318.0" transform="translate(-3.5, 0)">0</text></g></g><g transform="translate(104.0, 43.0)"><g opacity="0.8"><path d="M0.0 12.7 h103.6 v38.2 h-103.6 v-38.2Z M51.8 76.3 h155.3 v38.2 h-155.3 v-38.2Z M155.3 139.9 h155.3 v38.2 h-155.3 v-38.2Z M258.9 203.5 h155.3 v38.2 h-155.3 v-38.2Z M310.7 267.1 h155.3 v38.2 h-155.3 v-38.2Z" fill="#5fab9e"/></g><g stroke="#555555" fill="none"><path d="M103.55555555555554,31.8 Q77.66666666666666,31.8 77.66666666666666,95.4 Q51.77777777777777,95.4 51.77777777777777,95.4"/><path d="M103.55555555555554,31.8 Q129.44444444444443,31.8 129.44444444444443,159.0 Q155.33333333333331,159.0 155.33333333333331,159.0"/><path d="M310.66666666666663,159.0 Q284.77777777777777,159.0 284.77777777777777,222.60000000000002 Q258.8888888888889,222.60000000000002 258.8888888888889,222.60000000000002"/><path d="M414.2222222222222,222.60000000000002 Q362.4444444444444,222.60000000000002 362.4444444444444,286.2 Q310.66666666666663,286.2 310.66666666666663,286.2"/></g><g stroke="#CCCCCC" stroke-dasharray="4,4" stroke-width="1.5"><path d="M233.0,0 v318.0"/></g><path stroke="#CCCCCC" stroke-dasharray="None" d="M0 318.0 h466.0"/><path stroke="#CCCCCC" stroke-dasharray="None" d="M0 0 h466.0"/><path stroke="#CCCCCC" stroke-dasharray="None" d="M0 0 v318.0"/><path stroke="#CCCCCC" stroke-dasharray="None" d="M466.0 0 v318.0"/></g><path d="M104.0 43.0 v318.0 M104.0 361.0 h466.0" stroke="#999" stroke-width="1.5" fill="none"/></svg>