<svg xmlns="http://www.w3.org/2000/svg" width="700" height="450" viewBox="0 0 700 450"><path fill="#FFFFFF" d="M0 0 h700 v450 h-700 v-450Z"/><text transform="translate(-163.0, 18)" fill="#444444" font-family="Arial" font-weight="bold" font-size="16" x="350.0" y="11.25">Average Temperature (°C) — Monthly by City</text><g transform="translate(94.0, 49.5)"><path fill="#d09263" stroke="#CCCCCC" stroke-width="0.5" d="M0.9 1.5 h44.6 v72.6 h-44.6 v-72.6Z"/><text x="23.208333333333332" y="37.8" fill="#000000" font-family="Arial" font-size="11" text-anchor="middle" dominant-baseline="central">35</text><path fill="#d39262" stroke="#CCCCCC" stroke-width="0.5" d="M47.3 1.5 h44.6 v72.6 h-44.6 v-72.6Z"/><text x="69.625" y="37.8" fill="#000000" font-family="Arial" font-size="11" text-anchor="middle" dominant-baseline="central">36</text><path fill="#d9905f" stroke="#CCCCCC" stroke-width="0.5" d="M93.8 1.5 h44.6 v72.6 h-44.6 v-72.6Z"/><text x="116.04166666666666" y="37.8" fill="#000000" font-family="Arial" font-size="11" text-anchor="middle" dominant-baseline="central">38</text><path fill="#df8f5c" stroke="#CCCCCC" stroke-width="0.5" d="M140.2 1.5 h44.6 v72.6 h-44.6 v-72.6Z"/><text x="162.45833333333334" y="37.8" fill="#000000" font-family="Arial" font-size="11" text-anchor="middle" dominant-baseline="central">40</text><path fill="#e88d57" stroke="#CCCCCC" stroke-width="0.5" d="M186.6 1.5 h44.6 v72.6 h-44.6 v-72.6Z"/><text x="208.875" y="37.8" fill="#000000" font-family="Arial" font-size="11" text-anchor="middle" dominant-baseline="central">43</text><path fill="#ee8c54" stroke="#CCCCCC" stroke-width="0.5" d="M233.0 1.5 h44.6 v72.6 h-44.6 v-72.6Z"/><text x="255.29166666666666" y="37.8" fill="#000000" font-family="Arial" font-size="11" text-anchor="middle" dominant-baseline="central">45</text><path fill="#f58b51" stroke="#CCCCCC" stroke-width="0.5" d="M279.4 1.5 h44.6 v72.6 h-44.6 v-72.6Z"/><text x="301.7083333333333" y="37.8" fill="#000000" font-family="Arial" font-size="11" text-anchor="middle" dominant-baseline="central">47</text><path fill="#f18b52" stroke="#CCCCCC" stroke-width="0.5" d="M325.8 1.5 h44.6 v72.6 h-44.6 v-72.6Z"/><text x="348.12499999999994" y="37.8" fill="#000000" font-family="Arial" font-size="11" text-anchor="middle" dominant-baseline="central">46</text><path fill="#eb8c55" stroke="#CCCCCC" stroke-width="0.5" d="M372.3 1.5 h44.6 v72.6 h-44.6 v-72.6Z"/><text x="394.54166666666663" y="37.8" fill="#000000" font-family="Arial" font-size="11" text-anchor="middle" dominant-baseline="central">44</text><path fill="#e28e5a" stroke="#CCCCCC" stroke-width="0.5" d="M418.7 1.5 h44.6 v72.6 h-44.6 v-72.6Z"/><text x="440.9583333333333" y="37.8" fill="#000000" font-family="Arial" font-size="11" text-anchor="middle" dominant-baseline="central">41</text><path fill="#d9905f" stroke="#CCCCCC" stroke-width="0.5" d="M465.1 1.5 h44.6 v72.6 h-44.6 v-72.6Z"/><text x="487.37499999999994" y="37.8" fill="#000000" font-family="Arial" font-size="11" text-anchor="middle" dominant-baseline="central">38</text><path fill="#d39262" stroke="#CCCCCC" stroke-width="0.5" d="M511.5 1.5 h44.6 v72.6 h-44.6 v-72.6Z"/><text x="533.7916666666666" y="37.8" fill="#000000" font-family="Arial" font-size="11" text-anchor="middle" dominant-baseline="central">36</text><path fill="#a89b78" stroke="#CCCCCC" stroke-width="0.5" d="M0.9 77.1 h44.6 v72.6 h-44.6 v-72.6Z"/><text x="23.208333333333332" y="113.39999999999999" fill="#000000" font-family="Arial" font-size="11" text-anchor="middle" dominant-baseline="central">22</text><path fill="#ae9a75" stroke="#CCCCCC" stroke-width="0.5" d="M47.3 77.1 h44.6 v72.6 h-44.6 v-72.6Z"/><text x="69.625" y="113.39999999999999" fill="#000000" font-family="Arial" font-size="11" text-anchor="middle" dominant-baseline="central">24</text><path fill="#ba976e" stroke="#CCCCCC" stroke-width="0.5" d="M93.8 77.1 h44.6 v72.6 h-44.6 v-72.6Z"/><text x="116.04166666666666" y="113.39999999999999" fill="#000000" font-family="Arial" font-size="11" text-anchor="middle" dominant-baseline="central">28</text><path fill="#c79468" stroke="#CCCCCC" stroke-width="0.5" d="M140.2 77.1 h44.6 v72.6 h-44.6 v-72.6Z"/><text x="162.45833333333334" y="113.39999999999999" fill="#000000" font-family="Arial" font-size="11" text-anchor="middle" dominant-baseline="central">32</text><path fill="#d39262" stroke="#CCCCCC" stroke-width="0.5" d="M186.6 77.1 h44.6 v72.6 h-44.6 v-72.6Z"/><text x="208.875" y="113.39999999999999" fill="#000000" font-family="Arial" font-size="11" text-anchor="middle" dominant-baseline="central">36</text><path fill="#df8f5c" stroke="#CCCCCC" stroke-width="0.5" d="M233.0 77.1 h44.6 v72.6 h-44.6 v-72.6Z"/><text x="255.29166666666666" y="113.39999999999999" fill="#000000" font-family="Arial" font-size="11" text-anchor="middle" dominant-baseline="central">40</text><path fill="#e58e58" stroke="#CCCCCC" stroke-width="0.5" d="M279.4 77.1 h44.6 v72.6 h-44.6 v-72.6Z"/><text x="301.7083333333333" y="113.39999999999999" fill="#000000" font-family="Arial" font-size="11" text-anchor="middle" dominant-baseline="central">42</text><path fill="#e28e5a" stroke="#CCCCCC" stroke-width="0.5" d="M325.8 77.1 h44.6 v72.6 h-44.6 v-72.6Z"/><text x="348.12499999999994" y="113.39999999999999" fill="#000000" font-family="Arial" font-size="11" text-anchor="middle" dominant-baseline="central">41</text><path fill="#d9905f" stroke="#CCCCCC" stroke-width="0.5" d="M372.3 77.1 h44.6 v72.6 h-44.6 v-72.6Z"/><text x="394.54166666666663" y="113.39999999999999" fill="#000000" font-family="Arial" font-size="11" text-anchor="middle" dominant-baseline="central">38</text><path fill="#ca9467" stroke="#CCCCCC" stroke-width="0.5" d="M418.7 77.1 h44.6 v72.6 h-44.6 v-72.6Z"/><text x="440.9583333333333" y="113.39999999999999" fill="#000000" font-family="Arial" font-size="11" text-anchor="middle" dominant-baseline="central">33</text><path fill="#b79870" stroke="#CCCCCC" stroke-width="0.5" d="M465.1 77.1 h44.6 v72.6 h-44.6 v-72.6Z"/><text x="487.37499999999994" y="113.39999999999999" fill="#000000" font-family="Arial" font-size="11" text-anchor="middle" dominant-baseline="central">27</text><path fill="#ab9a76" stroke="#CCCCCC" stroke-width="0.5" d="M511.5 77.1 h44.6 v72.6 h-44.6 v-72.6Z"/><text x="533.7916666666666" y="113.39999999999999" fill="#000000" font-family="Arial" font-size="11" text-anchor="middle" dominant-baseline="central">23</text><path fill="#939f83" stroke="#CCCCCC" stroke-width="0.5" d="M0.9 152.7 h44.6 v72.6 h-44.6 v-72.6Z"/><text x="23.208333333333332" y="189.0" fill="#000000" font-family="Arial" font-size="11" text-anchor="middle" dominant-baseline="central">15</text><path fill="#9c9d7e" stroke="#CCCCCC" stroke-width="0.5" d="M47.3 152.7 h44.6 v72.6 h-44.6 v-72.6Z"/><text x="69.625" y="189.0" fill="#000000" font-family="Arial" font-size="11" text-anchor="middle" dominant-baseline="central">18</text><path fill="#a89b78" stroke="#CCCCCC" stroke-width="0.5" d="M93.8 152.7 h44.6 v72.6 h-44.6 v-72.6Z"/><text x="116.04166666666666" y="189.0" fill="#000000" font-family="Arial" font-size="11" text-anchor="middle" dominant-baseline="central">22</text><path fill="#b79870" stroke="#CCCCCC" stroke-width="0.5" d="M140.2 152.7 h44.6 v72.6 h-44.6 v-72.6Z"/><text x="162.45833333333334" y="189.0" fill="#000000" font-family="Arial" font-size="11" text-anchor="middle" dominant-baseline="central">27</text><path fill="#c79468" stroke="#CCCCCC" stroke-width="0.5" d="M186.6 152.7 h44.6 v72.6 h-44.6 v-72.6Z"/><text x="208.875" y="189.0" fill="#000000" font-family="Arial" font-size="11" text-anchor="middle" dominant-baseline="central">32</text><path fill="#d69160" stroke="#CCCCCC" stroke-width="0.5" d="M233.0 152.7 h44.6 v72.6 h-44.6 v-72.6Z"/><text x="255.29166666666666" y="189.0" fill="#000000" font-family="Arial" font-size="11" text-anchor="middle" dominant-baseline="central">37</text><path fill="#df8f5c" stroke="#CCCCCC" stroke-width="0.5" d="M279.4 152.7 h44.6 v72.6 h-44.6 v-72.6Z"/><text x="301.7083333333333" y="189.0" fill="#000000" font-family="Arial" font-size="11" text-anchor="middle" dominant-baseline="central">40</text><path fill="#dc905d" stroke="#CCCCCC" stroke-width="0.5" d="M325.8 152.7 h44.6 v72.6 h-44.6 v-72.6Z"/><text x="348.12499999999994" y="189.0" fill="#000000" font-family="Arial" font-size="11" text-anchor="middle" dominant-baseline="central">39</text><path fill="#d09263" stroke="#CCCCCC" stroke-width="0.5" d="M372.3 152.7 h44.6 v72.6 h-44.6 v-72.6Z"/><text x="394.54166666666663" y="189.0" fill="#000000" font-family="Arial" font-size="11" text-anchor="middle" dominant-baseline="central">35</text><path fill="#bd966d" stroke="#CCCCCC" stroke-width="0.5" d="M418.7 152.7 h44.6 v72.6 h-44.6 v-72.6Z"/><text x="440.9583333333333" y="189.0" fill="#000000" font-family="Arial" font-size="11" text-anchor="middle" dominant-baseline="central">29</text><path fill="#a89b78" stroke="#CCCCCC" stroke-width="0.5" d="M465.1 152.7 h44.6 v72.6 h-44.6 v-72.6Z"/><text x="487.37499999999994" y="189.0" fill="#000000" font-family="Arial" font-size="11" text-anchor="middle" dominant-baseline="central">22</text><path fill="#999e80" stroke="#CCCCCC" stroke-width="0.5" d="M511.5 152.7 h44.6 v72.6 h-44.6 v-72.6Z"/><text x="533.7916666666666" y="189.0" fill="#000000" font-family="Arial" font-size="11" text-anchor="middle" dominant-baseline="central">17</text><path fill="#74a693" stroke="#CCCCCC" stroke-width="0.5" d="M0.9 228.3 h44.6 v72.6 h-44.6 v-72.6Z"/><text x="23.208333333333332" y="264.59999999999997" fill="#000000" font-family="Arial" font-size="11" text-anchor="middle" dominant-baseline="central">5</text><path fill="#7da48e" stroke="#CCCCCC" stroke-width="0.5" d="M47.3 228.3 h44.6 v72.6 h-44.6 v-72.6Z"/><text x="69.625" y="264.59999999999997" fill="#000000" font-family="Arial" font-size="11" text-anchor="middle" dominant-baseline="central">8</text><path fill="#8fa084" stroke="#CCCCCC" stroke-width="0.5" d="M93.8 228.3 h44.6 v72.6 h-44.6 v-72.6Z"/><text x="116.04166666666666" y="264.59999999999997" fill="#000000" font-family="Arial" font-size="11" text-anchor="middle" dominant-baseline="central">14</text><path fill="#a29c7b" stroke="#CCCCCC" stroke-width="0.5" d="M140.2 228.3 h44.6 v72.6 h-44.6 v-72.6Z"/><text x="162.45833333333334" y="264.59999999999997" fill="#000000" font-family="Arial" font-size="11" text-anchor="middle" dominant-baseline="central">20</text><path fill="#b49872" stroke="#CCCCCC" stroke-width="0.5" d="M186.6 228.3 h44.6 v72.6 h-44.6 v-72.6Z"/><text x="208.875" y="264.59999999999997" fill="#000000" font-family="Arial" font-size="11" text-anchor="middle" dominant-baseline="central">26</text><path fill="#c79468" stroke="#CCCCCC" stroke-width="0.5" d="M233.0 228.3 h44.6 v72.6 h-44.6 v-72.6Z"/><text x="255.29166666666666" y="264.59999999999997" fill="#000000" font-family="Arial" font-size="11" text-anchor="middle" dominant-baseline="central">32</text><path fill="#d09263" stroke="#CCCCCC" stroke-width="0.5" d="M279.4 228.3 h44.6 v72.6 h-44.6 v-72.6Z"/><text x="301.7083333333333" y="264.59999999999997" fill="#000000" font-family="Arial" font-size="11" text-anchor="middle" dominant-baseline="central">35</text><path fill="#cd9365" stroke="#CCCCCC" stroke-width="0.5" d="M325.8 228.3 h44.6 v72.6 h-44.6 v-72.6Z"/><text x="348.12499999999994" y="264.59999999999997" fill="#000000" font-family="Arial" font-size="11" text-anchor="middle" dominant-baseline="central">34</text><path fill="#bd966d" stroke="#CCCCCC" stroke-width="0.5" d="M372.3 228.3 h44.6 v72.6 h-44.6 v-72.6Z"/><text x="394.54166666666663" y="264.59999999999997" fill="#000000" font-family="Arial" font-size="11" text-anchor="middle" dominant-baseline="central">29</text><path fill="#a89b78" stroke="#CCCCCC" stroke-width="0.5" d="M418.7 228.3 h44.6 v72.6 h-44.6 v-72.6Z"/><text x="440.9583333333333" y="264.59999999999997" fill="#000000" font-family="Arial" font-size="11" text-anchor="middle" dominant-baseline="central">22</text><path fill="#8fa084" stroke="#CCCCCC" stroke-width="0.5" d="M465.1 228.3 h44.6 v72.6 h-44.6 v-72.6Z"/><text x="487.37499999999994" y="264.59999999999997" fill="#000000" font-family="Arial" font-size="11" text-anchor="middle" dominant-baseline="central">14</text><path fill="#7aa58f" stroke="#CCCCCC" stroke-width="0.5" d="M511.5 228.3 h44.6 v72.6 h-44.6 v-72.6Z"/><text x="533.7916666666666" y="264.59999999999997" fill="#000000" font-family="Arial" font-size="11" text-anchor="middle" dominant-baseline="central">7</text><path fill="#5fab9e" stroke="#CCCCCC" stroke-width="0.5" d="M0.9 303.9 h44.6 v72.6 h-44.6 v-72.6Z"/><text x="23.208333333333332" y="340.2" fill="#000000" font-family="Arial" font-size="11" text-anchor="middle" dominant-baseline="central">-2</text><path fill="#6ba897" stroke="#CCCCCC" stroke-width="0.5" d="M47.3 303.9 h44.6 v72.6 h-44.6 v-72.6Z"/><text x="69.625" y="340.2" fill="#000000" font-family="Arial" font-size="11" text-anchor="middle" dominant-baseline="central">2</text><path fill="#83a38b" stroke="#CCCCCC" stroke-width="0.5" d="M93.8 303.9 h44.6 v72.6 h-44.6 v-72.6Z"/><text x="116.04166666666666" y="340.2" fill="#000000" font-family="Arial" font-size="11" text-anchor="middle" dominant-baseline="central">10</text><path fill="#9c9d7e" stroke="#CCCCCC" stroke-width="0.5" d="M140.2 303.9 h44.6 v72.6 h-44.6 v-72.6Z"/><text x="162.45833333333334" y="340.2" fill="#000000" font-family="Arial" font-size="11" text-anchor="middle" dominant-baseline="central">18</text><path fill="#b19973" stroke="#CCCCCC" stroke-width="0.5" d="M186.6 303.9 h44.6 v72.6 h-44.6 v-72.6Z"/><text x="208.875" y="340.2" fill="#000000" font-family="Arial" font-size="11" text-anchor="middle" dominant-baseline="central">25</text><path fill="#c4956a" stroke="#CCCCCC" stroke-width="0.5" d="M233.0 303.9 h44.6 v72.6 h-44.6 v-72.6Z"/><text x="255.29166666666666" y="340.2" fill="#000000" font-family="Arial" font-size="11" text-anchor="middle" dominant-baseline="central">31</text><path fill="#cd9365" stroke="#CCCCCC" stroke-width="0.5" d="M279.4 303.9 h44.6 v72.6 h-44.6 v-72.6Z"/><text x="301.7083333333333" y="340.2" fill="#000000" font-family="Arial" font-size="11" text-anchor="middle" dominant-baseline="central">34</text><path fill="#ca9467" stroke="#CCCCCC" stroke-width="0.5" d="M325.8 303.9 h44.6 v72.6 h-44.6 v-72.6Z"/><text x="348.12499999999994" y="340.2" fill="#000000" font-family="Arial" font-size="11" text-anchor="middle" dominant-baseline="central">33</text><path fill="#b79870" stroke="#CCCCCC" stroke-width="0.5" d="M372.3 303.9 h44.6 v72.6 h-44.6 v-72.6Z"/><text x="394.54166666666663" y="340.2" fill="#000000" font-family="Arial" font-size="11" text-anchor="middle" dominant-baseline="central">27</text><path fill="#9f9d7d" stroke="#CCCCCC" stroke-width="0.5" d="M418.7 303.9 h44.6 v72.6 h-44.6 v-72.6Z"/><text x="440.9583333333333" y="340.2" fill="#000000" font-family="Arial" font-size="11" text-anchor="middle" dominant-baseline="central">19</text><path fill="#83a38b" stroke="#CCCCCC" stroke-width="0.5" d="M465.1 303.9 h44.6 v72.6 h-44.6 v-72.6Z"/><text x="487.37499999999994" y="340.2" fill="#000000" font-family="Arial" font-size="11" text-anchor="middle" dominant-baseline="central">10</text><path fill="#6ea796" stroke="#CCCCCC" stroke-width="0.5" d="M511.5 303.9 h44.6 v72.6 h-44.6 v-72.6Z"/><text x="533.7916666666666" y="340.2" fill="#000000" font-family="Arial" font-size="11" text-anchor="middle" dominant-baseline="central">3</text><text x="23.208333333333332" y="-3.024" fill="#444444" font-family="Arial" font-size="11" text-anchor="middle" dominant-baseline="bottom">Jan</text><text x="69.625" y="-3.024" fill="#444444" font-family="Arial" font-size="11" text-anchor="middle" dominant-baseline="bottom">Feb</text><text x="116.04166666666666" y="-3.024" fill="#444444" font-family="Arial" font-size="11" text-anchor="middle" dominant-baseline="bottom">Mar</text><text x="162.45833333333334" y="-3.024" fill="#444444" font-family="Arial" font-size="11" text-anchor="middle" dominant-baseline="bottom">Apr</text><text x="208.875" y="-3.024" fill="#444444" font-family="Arial" font-size="11" text-anchor="middle" dominant-baseline="bottom">May</text><text x="255.29166666666666" y="-3.024" fill="#444444" font-family="Arial" font-size="11" text-anchor="middle" dominant-baseline="bottom">Jun</text><text x="301.7083333333333" y="-3.024" fill="#444444" font-family="Arial" font-size="11" text-anchor="middle" dominant-baseline="bottom">Jul</text><text x="348.12499999999994" y="-3.024" fill="#444444" font-family="Arial" font-size="11" text-anchor="middle" dominant-baseline="bottom">Aug</text><text x="394.54166666666663" y="-3.024" fill="#444444" font-family="Arial" font-size="11" text-anchor="middle" dominant-baseline="bottom">Sep</text><text x="440.9583333333333" y="-3.024" fill="#444444" font-family="Arial" font-size="11" text-anchor="middle" dominant-baseline="bottom">Oct</text><text x="487.37499999999994" y="-3.024" fill="#444444" font-family="Arial" font-size="11" text-anchor="middle" dominant-baseline="bottom">Nov</text><text x="533.7916666666666" y="-3.024" fill="#444444" font-family="Arial" font-size="11" text-anchor="middle" dominant-baseline="bottom">Dec</text><text x="-1.8566666666666667" y="37.8" fill="#444444" font-family="Arial" font-size="11" text-anchor="end" dominant-baseline="central">Dubai</text><text x="-1.8566666666666667" y="113.39999999999999" fill="#444444" font-family="Arial" font-size="11" text-anchor="end" dominant-baseline="central">Sydney</text><text x="-1.8566666666666667" y="189.0" fill="#444444" font-family="Arial" font-size="11" text-anchor="end" dominant-baseline="central">Tokyo</text><text x="-1.8566666666666667" y="264.59999999999997" fill="#444444" font-family="Arial" font-size="11" text-anchor="end" dominant-baseline="central">Berlin</text><text x="-1.8566666666666667" y="340.2" fill="#444444" font-family="Arial" font-size="11" text-anchor="end" dominant-baseline="central">Moscow</text><path fill="#5fab9e" d="M567.0 0.0 h20 v19.9 h-20 v-19.9Z"/><path fill="#66a999" d="M567.0 18.9 h20 v19.9 h-20 v-19.9Z"/><path fill="#6ea795" d="M567.0 37.8 h20 v19.9 h-20 v-19.9Z"/><path fill="#76a591" d="M567.0 56.7 h20 v19.9 h-20 v-19.9Z"/><path fill="#7ea48d" d="M567.0 75.6 h20 v19.9 h-20 v-19.9Z"/><path fill="#86a289" d="M567.0 94.5 h20 v19.9 h-20 v-19.9Z"/><path fill="#8ea085" d="M567.0 113.4 h20 v19.9 h-20 v-19.9Z"/><path fill="#969f81" d="M567.0 132.3 h20 v19.9 h-20 v-19.9Z"/><path fill="#9e9d7d" d="M567.0 151.2 h20 v19.9 h-20 v-19.9Z"/><path fill="#a69b79" d="M567.0 170.1 h20 v19.9 h-20 v-19.9Z"/><path fill="#ad9a75" d="M567.0 189.0 h20 v19.9 h-20 v-19.9Z"/><path fill="#b59871" d="M567.0 207.9 h20 v19.9 h-20 v-19.9Z"/><path fill="#bd966d" d="M567.0 226.8 h20 v19.9 h-20 v-19.9Z"/><path fill="#c59569" d="M567.0 245.7 h20 v19.9 h-20 v-19.9Z"/><path fill="#cd9365" d="M567.0 264.6 h20 v19.9 h-20 v-19.9Z"/><path fill="#d59161" d="M567.0 283.5 h20 v19.9 h-20 v-19.9Z"/><path fill="#dd905d" d="M567.0 302.4 h20 v19.9 h-20 v-19.9Z"/><path fill="#e58e59" d="M567.0 321.3 h20 v19.9 h-20 v-19.9Z"/><path fill="#ed8c55" d="M567.0 340.2 h20 v19.9 h-20 v-19.9Z"/><path fill="#f58b51" d="M567.0 359.1 h20 v19.9 h-20 v-19.9Z"/><text x="577.0" y="378.0" fill="#444444" font-family="Arial" font-size="11" text-anchor="middle">-2</text><text x="577.0" y="0" fill="#444444" font-family="Arial" font-size="11" text-anchor="middle" dominant-baseline="bottom">47</text></g></svg>