<svg xmlns="http://www.w3.org/2000/svg" width="700" height="450" viewBox="0 0 700 450"><path fill="#FFFFFF" d="M0 0 h700 v450 h-700 v-450Z"/><text transform="translate(-160.5, 18)" fill="#444444" font-family="Arial" font-weight="bold" font-size="16" x="350.0" y="11.25">Average Temperature (°C): Monthly by City</text><g transform="translate(94.0, 49.5)"><path fill="#d09263" stroke="#CCCCCC" stroke-width="0.25" d="M0.8 1.5 h40.4 v72.6 h-40.4 v-72.6Z"/><text x="21.03333333333333" y="37.8" fill="#000000" font-family="Arial" font-size="11" text-anchor="middle" dominant-baseline="central">35</text><path fill="#d39262" stroke="#CCCCCC" stroke-width="0.25" d="M42.9 1.5 h40.4 v72.6 h-40.4 v-72.6Z"/><text x="63.099999999999994" y="37.8" fill="#000000" font-family="Arial" font-size="11" text-anchor="middle" dominant-baseline="central">36</text><path fill="#d9905f" stroke="#CCCCCC" stroke-width="0.25" d="M85.0 1.5 h40.4 v72.6 h-40.4 v-72.6Z"/><text x="105.16666666666666" y="37.8" fill="#000000" font-family="Arial" font-size="11" text-anchor="middle" dominant-baseline="central">38</text><path fill="#df8f5c" stroke="#CCCCCC" stroke-width="0.25" d="M127.0 1.5 h40.4 v72.6 h-40.4 v-72.6Z"/><text x="147.23333333333332" y="37.8" fill="#000000" font-family="Arial" font-size="11" text-anchor="middle" dominant-baseline="central">40</text><path fill="#e88d57" stroke="#CCCCCC" stroke-width="0.25" d="M169.1 1.5 h40.4 v72.6 h-40.4 v-72.6Z"/><text x="189.29999999999998" y="37.8" fill="#000000" font-family="Arial" font-size="11" text-anchor="middle" dominant-baseline="central">43</text><path fill="#ee8c54" stroke="#CCCCCC" stroke-width="0.25" d="M211.2 1.5 h40.4 v72.6 h-40.4 v-72.6Z"/><text x="231.36666666666665" y="37.8" fill="#000000" font-family="Arial" font-size="11" text-anchor="middle" dominant-baseline="central">45</text><path fill="#f58b51" stroke="#CCCCCC" stroke-width="0.25" d="M253.2 1.5 h40.4 v72.6 h-40.4 v-72.6Z"/><text x="273.4333333333333" y="37.8" fill="#000000" font-family="Arial" font-size="11" text-anchor="middle" dominant-baseline="central">47</text><path fill="#f18b52" stroke="#CCCCCC" stroke-width="0.25" d="M295.3 1.5 h40.4 v72.6 h-40.4 v-72.6Z"/><text x="315.5" y="37.8" fill="#000000" font-family="Arial" font-size="11" text-anchor="middle" dominant-baseline="central">46</text><path fill="#eb8c55" stroke="#CCCCCC" stroke-width="0.25" d="M337.4 1.5 h40.4 v72.6 h-40.4 v-72.6Z"/><text x="357.56666666666666" y="37.8" fill="#000000" font-family="Arial" font-size="11" text-anchor="middle" dominant-baseline="central">44</text><path fill="#e28e5a" stroke="#CCCCCC" stroke-width="0.25" d="M379.4 1.5 h40.4 v72.6 h-40.4 v-72.6Z"/><text x="399.6333333333333" y="37.8" fill="#000000" font-family="Arial" font-size="11" text-anchor="middle" dominant-baseline="central">41</text><path fill="#d9905f" stroke="#CCCCCC" stroke-width="0.25" d="M421.5 1.5 h40.4 v72.6 h-40.4 v-72.6Z"/><text x="441.7" y="37.8" fill="#000000" font-family="Arial" font-size="11" text-anchor="middle" dominant-baseline="central">38</text><path fill="#d39262" stroke="#CCCCCC" stroke-width="0.25" d="M463.6 1.5 h40.4 v72.6 h-40.4 v-72.6Z"/><text x="483.76666666666665" y="37.8" fill="#000000" font-family="Arial" font-size="11" text-anchor="middle" dominant-baseline="central">36</text><path fill="#a89b78" stroke="#CCCCCC" stroke-width="0.25" d="M0.8 77.1 h40.4 v72.6 h-40.4 v-72.6Z"/><text x="21.03333333333333" y="113.39999999999999" fill="#000000" font-family="Arial" font-size="11" text-anchor="middle" dominant-baseline="central">22</text><path fill="#ae9a75" stroke="#CCCCCC" stroke-width="0.25" d="M42.9 77.1 h40.4 v72.6 h-40.4 v-72.6Z"/><text x="63.099999999999994" y="113.39999999999999" fill="#000000" font-family="Arial" font-size="11" text-anchor="middle" dominant-baseline="central">24</text><path fill="#ba976e" stroke="#CCCCCC" stroke-width="0.25" d="M85.0 77.1 h40.4 v72.6 h-40.4 v-72.6Z"/><text x="105.16666666666666" y="113.39999999999999" fill="#000000" font-family="Arial" font-size="11" text-anchor="middle" dominant-baseline="central">28</text><path fill="#c79468" stroke="#CCCCCC" stroke-width="0.25" d="M127.0 77.1 h40.4 v72.6 h-40.4 v-72.6Z"/><text x="147.23333333333332" y="113.39999999999999" fill="#000000" font-family="Arial" font-size="11" text-anchor="middle" dominant-baseline="central">32</text><path fill="#d39262" stroke="#CCCCCC" stroke-width="0.25" d="M169.1 77.1 h40.4 v72.6 h-40.4 v-72.6Z"/><text x="189.29999999999998" y="113.39999999999999" fill="#000000" font-family="Arial" font-size="11" text-anchor="middle" dominant-baseline="central">36</text><path fill="#df8f5c" stroke="#CCCCCC" stroke-width="0.25" d="M211.2 77.1 h40.4 v72.6 h-40.4 v-72.6Z"/><text x="231.36666666666665" y="113.39999999999999" fill="#000000" font-family="Arial" font-size="11" text-anchor="middle" dominant-baseline="central">40</text><path fill="#e58e58" stroke="#CCCCCC" stroke-width="0.25" d="M253.2 77.1 h40.4 v72.6 h-40.4 v-72.6Z"/><text x="273.4333333333333" y="113.39999999999999" fill="#000000" font-family="Arial" font-size="11" text-anchor="middle" dominant-baseline="central">42</text><path fill="#e28e5a" stroke="#CCCCCC" stroke-width="0.25" d="M295.3 77.1 h40.4 v72.6 h-40.4 v-72.6Z"/><text x="315.5" y="113.39999999999999" fill="#000000" font-family="Arial" font-size="11" text-anchor="middle" dominant-baseline="central">41</text><path fill="#d9905f" stroke="#CCCCCC" stroke-width="0.25" d="M337.4 77.1 h40.4 v72.6 h-40.4 v-72.6Z"/><text x="357.56666666666666" y="113.39999999999999" fill="#000000" font-family="Arial" font-size="11" text-anchor="middle" dominant-baseline="central">38</text><path fill="#ca9467" stroke="#CCCCCC" stroke-width="0.25" d="M379.4 77.1 h40.4 v72.6 h-40.4 v-72.6Z"/><text x="399.6333333333333" y="113.39999999999999" fill="#000000" font-family="Arial" font-size="11" text-anchor="middle" dominant-baseline="central">33</text><path fill="#b79870" stroke="#CCCCCC" stroke-width="0.25" d="M421.5 77.1 h40.4 v72.6 h-40.4 v-72.6Z"/><text x="441.7" y="113.39999999999999" fill="#000000" font-family="Arial" font-size="11" text-anchor="middle" dominant-baseline="central">27</text><path fill="#ab9a76" stroke="#CCCCCC" stroke-width="0.25" d="M463.6 77.1 h40.4 v72.6 h-40.4 v-72.6Z"/><text x="483.76666666666665" y="113.39999999999999" fill="#000000" font-family="Arial" font-size="11" text-anchor="middle" dominant-baseline="central">23</text><path fill="#939f83" stroke="#CCCCCC" stroke-width="0.25" d="M0.8 152.7 h40.4 v72.6 h-40.4 v-72.6Z"/><text x="21.03333333333333" y="189.0" fill="#000000" font-family="Arial" font-size="11" text-anchor="middle" dominant-baseline="central">15</text><path fill="#9c9d7e" stroke="#CCCCCC" stroke-width="0.25" d="M42.9 152.7 h40.4 v72.6 h-40.4 v-72.6Z"/><text x="63.099999999999994" y="189.0" fill="#000000" font-family="Arial" font-size="11" text-anchor="middle" dominant-baseline="central">18</text><path fill="#a89b78" stroke="#CCCCCC" stroke-width="0.25" d="M85.0 152.7 h40.4 v72.6 h-40.4 v-72.6Z"/><text x="105.16666666666666" y="189.0" fill="#000000" font-family="Arial" font-size="11" text-anchor="middle" dominant-baseline="central">22</text><path fill="#b79870" stroke="#CCCCCC" stroke-width="0.25" d="M127.0 152.7 h40.4 v72.6 h-40.4 v-72.6Z"/><text x="147.23333333333332" y="189.0" fill="#000000" font-family="Arial" font-size="11" text-anchor="middle" dominant-baseline="central">27</text><path fill="#c79468" stroke="#CCCCCC" stroke-width="0.25" d="M169.1 152.7 h40.4 v72.6 h-40.4 v-72.6Z"/><text x="189.29999999999998" y="189.0" fill="#000000" font-family="Arial" font-size="11" text-anchor="middle" dominant-baseline="central">32</text><path fill="#d69160" stroke="#CCCCCC" stroke-width="0.25" d="M211.2 152.7 h40.4 v72.6 h-40.4 v-72.6Z"/><text x="231.36666666666665" y="189.0" fill="#000000" font-family="Arial" font-size="11" text-anchor="middle" dominant-baseline="central">37</text><path fill="#df8f5c" stroke="#CCCCCC" stroke-width="0.25" d="M253.2 152.7 h40.4 v72.6 h-40.4 v-72.6Z"/><text x="273.4333333333333" y="189.0" fill="#000000" font-family="Arial" font-size="11" text-anchor="middle" dominant-baseline="central">40</text><path fill="#dc905d" stroke="#CCCCCC" stroke-width="0.25" d="M295.3 152.7 h40.4 v72.6 h-40.4 v-72.6Z"/><text x="315.5" y="189.0" fill="#000000" font-family="Arial" font-size="11" text-anchor="middle" dominant-baseline="central">39</text><path fill="#d09263" stroke="#CCCCCC" stroke-width="0.25" d="M337.4 152.7 h40.4 v72.6 h-40.4 v-72.6Z"/><text x="357.56666666666666" y="189.0" fill="#000000" font-family="Arial" font-size="11" text-anchor="middle" dominant-baseline="central">35</text><path fill="#bd966d" stroke="#CCCCCC" stroke-width="0.25" d="M379.4 152.7 h40.4 v72.6 h-40.4 v-72.6Z"/><text x="399.6333333333333" y="189.0" fill="#000000" font-family="Arial" font-size="11" text-anchor="middle" dominant-baseline="central">29</text><path fill="#a89b78" stroke="#CCCCCC" stroke-width="0.25" d="M421.5 152.7 h40.4 v72.6 h-40.4 v-72.6Z"/><text x="441.7" y="189.0" fill="#000000" font-family="Arial" font-size="11" text-anchor="middle" dominant-baseline="central">22</text><path fill="#999e80" stroke="#CCCCCC" stroke-width="0.25" d="M463.6 152.7 h40.4 v72.6 h-40.4 v-72.6Z"/><text x="483.76666666666665" y="189.0" fill="#000000" font-family="Arial" font-size="11" text-anchor="middle" dominant-baseline="central">17</text><path fill="#74a693" stroke="#CCCCCC" stroke-width="0.25" d="M0.8 228.3 h40.4 v72.6 h-40.4 v-72.6Z"/><text x="21.03333333333333" y="264.59999999999997" fill="#000000" font-family="Arial" font-size="11" text-anchor="middle" dominant-baseline="central">5</text><path fill="#7da48e" stroke="#CCCCCC" stroke-width="0.25" d="M42.9 228.3 h40.4 v72.6 h-40.4 v-72.6Z"/><text x="63.099999999999994" y="264.59999999999997" fill="#000000" font-family="Arial" font-size="11" text-anchor="middle" dominant-baseline="central">8</text><path fill="#8fa084" stroke="#CCCCCC" stroke-width="0.25" d="M85.0 228.3 h40.4 v72.6 h-40.4 v-72.6Z"/><text x="105.16666666666666" y="264.59999999999997" fill="#000000" font-family="Arial" font-size="11" text-anchor="middle" dominant-baseline="central">14</text><path fill="#a29c7b" stroke="#CCCCCC" stroke-width="0.25" d="M127.0 228.3 h40.4 v72.6 h-40.4 v-72.6Z"/><text x="147.23333333333332" y="264.59999999999997" fill="#000000" font-family="Arial" font-size="11" text-anchor="middle" dominant-baseline="central">20</text><path fill="#b49872" stroke="#CCCCCC" stroke-width="0.25" d="M169.1 228.3 h40.4 v72.6 h-40.4 v-72.6Z"/><text x="189.29999999999998" y="264.59999999999997" fill="#000000" font-family="Arial" font-size="11" text-anchor="middle" dominant-baseline="central">26</text><path fill="#c79468" stroke="#CCCCCC" stroke-width="0.25" d="M211.2 228.3 h40.4 v72.6 h-40.4 v-72.6Z"/><text x="231.36666666666665" y="264.59999999999997" fill="#000000" font-family="Arial" font-size="11" text-anchor="middle" dominant-baseline="central">32</text><path fill="#d09263" stroke="#CCCCCC" stroke-width="0.25" d="M253.2 228.3 h40.4 v72.6 h-40.4 v-72.6Z"/><text x="273.4333333333333" y="264.59999999999997" fill="#000000" font-family="Arial" font-size="11" text-anchor="middle" dominant-baseline="central">35</text><path fill="#cd9365" stroke="#CCCCCC" stroke-width="0.25" d="M295.3 228.3 h40.4 v72.6 h-40.4 v-72.6Z"/><text x="315.5" y="264.59999999999997" fill="#000000" font-family="Arial" font-size="11" text-anchor="middle" dominant-baseline="central">34</text><path fill="#bd966d" stroke="#CCCCCC" stroke-width="0.25" d="M337.4 228.3 h40.4 v72.6 h-40.4 v-72.6Z"/><text x="357.56666666666666" y="264.59999999999997" fill="#000000" font-family="Arial" font-size="11" text-anchor="middle" dominant-baseline="central">29</text><path fill="#a89b78" stroke="#CCCCCC" stroke-width="0.25" d="M379.4 228.3 h40.4 v72.6 h-40.4 v-72.6Z"/><text x="399.6333333333333" y="264.59999999999997" fill="#000000" font-family="Arial" font-size="11" text-anchor="middle" dominant-baseline="central">22</text><path fill="#8fa084" stroke="#CCCCCC" stroke-width="0.25" d="M421.5 228.3 h40.4 v72.6 h-40.4 v-72.6Z"/><text x="441.7" y="264.59999999999997" fill="#000000" font-family="Arial" font-size="11" text-anchor="middle" dominant-baseline="central">14</text><path fill="#7aa58f" stroke="#CCCCCC" stroke-width="0.25" d="M463.6 228.3 h40.4 v72.6 h-40.4 v-72.6Z"/><text x="483.76666666666665" y="264.59999999999997" fill="#000000" font-family="Arial" font-size="11" text-anchor="middle" dominant-baseline="central">7</text><path fill="#5fab9e" stroke="#CCCCCC" stroke-width="0.25" d="M0.8 303.9 h40.4 v72.6 h-40.4 v-72.6Z"/><text x="21.03333333333333" y="340.2" fill="#000000" font-family="Arial" font-size="11" text-anchor="middle" dominant-baseline="central">-2</text><path fill="#6ba897" stroke="#CCCCCC" stroke-width="0.25" d="M42.9 303.9 h40.4 v72.6 h-40.4 v-72.6Z"/><text x="63.099999999999994" y="340.2" fill="#000000" font-family="Arial" font-size="11" text-anchor="middle" dominant-baseline="central">2</text><path fill="#83a38b" stroke="#CCCCCC" stroke-width="0.25" d="M85.0 303.9 h40.4 v72.6 h-40.4 v-72.6Z"/><text x="105.16666666666666" y="340.2" fill="#000000" font-family="Arial" font-size="11" text-anchor="middle" dominant-baseline="central">10</text><path fill="#9c9d7e" stroke="#CCCCCC" stroke-width="0.25" d="M127.0 303.9 h40.4 v72.6 h-40.4 v-72.6Z"/><text x="147.23333333333332" y="340.2" fill="#000000" font-family="Arial" font-size="11" text-anchor="middle" dominant-baseline="central">18</text><path fill="#b19973" stroke="#CCCCCC" stroke-width="0.25" d="M169.1 303.9 h40.4 v72.6 h-40.4 v-72.6Z"/><text x="189.29999999999998" y="340.2" fill="#000000" font-family="Arial" font-size="11" text-anchor="middle" dominant-baseline="central">25</text><path fill="#c4956a" stroke="#CCCCCC" stroke-width="0.25" d="M211.2 303.9 h40.4 v72.6 h-40.4 v-72.6Z"/><text x="231.36666666666665" y="340.2" fill="#000000" font-family="Arial" font-size="11" text-anchor="middle" dominant-baseline="central">31</text><path fill="#cd9365" stroke="#CCCCCC" stroke-width="0.25" d="M253.2 303.9 h40.4 v72.6 h-40.4 v-72.6Z"/><text x="273.4333333333333" y="340.2" fill="#000000" font-family="Arial" font-size="11" text-anchor="middle" dominant-baseline="central">34</text><path fill="#ca9467" stroke="#CCCCCC" stroke-width="0.25" d="M295.3 303.9 h40.4 v72.6 h-40.4 v-72.6Z"/><text x="315.5" y="340.2" fill="#000000" font-family="Arial" font-size="11" text-anchor="middle" dominant-baseline="central">33</text><path fill="#b79870" stroke="#CCCCCC" stroke-width="0.25" d="M337.4 303.9 h40.4 v72.6 h-40.4 v-72.6Z"/><text x="357.56666666666666" y="340.2" fill="#000000" font-family="Arial" font-size="11" text-anchor="middle" dominant-baseline="central">27</text><path fill="#9f9d7d" stroke="#CCCCCC" stroke-width="0.25" d="M379.4 303.9 h40.4 v72.6 h-40.4 v-72.6Z"/><text x="399.6333333333333" y="340.2" fill="#000000" font-family="Arial" font-size="11" text-anchor="middle" dominant-baseline="central">19</text><path fill="#83a38b" stroke="#CCCCCC" stroke-width="0.25" d="M421.5 303.9 h40.4 v72.6 h-40.4 v-72.6Z"/><text x="441.7" y="340.2" fill="#000000" font-family="Arial" font-size="11" text-anchor="middle" dominant-baseline="central">10</text><path fill="#6ea796" stroke="#CCCCCC" stroke-width="0.25" d="M463.6 303.9 h40.4 v72.6 h-40.4 v-72.6Z"/><text x="483.76666666666665" y="340.2" fill="#000000" font-family="Arial" font-size="11" text-anchor="middle" dominant-baseline="central">3</text><text x="21.03333333333333" y="-3.024" fill="#444444" font-family="Arial" font-size="11" text-anchor="middle" dominant-baseline="bottom">Jan</text><text x="63.099999999999994" y="-3.024" fill="#444444" font-family="Arial" font-size="11" text-anchor="middle" dominant-baseline="bottom">Feb</text><text x="105.16666666666666" y="-3.024" fill="#444444" font-family="Arial" font-size="11" text-anchor="middle" dominant-baseline="bottom">Mar</text><text x="147.23333333333332" y="-3.024" fill="#444444" font-family="Arial" font-size="11" text-anchor="middle" dominant-baseline="bottom">Apr</text><text x="189.29999999999998" y="-3.024" fill="#444444" font-family="Arial" font-size="11" text-anchor="middle" dominant-baseline="bottom">May</text><text x="231.36666666666665" y="-3.024" fill="#444444" font-family="Arial" font-size="11" text-anchor="middle" dominant-baseline="bottom">Jun</text><text x="273.4333333333333" y="-3.024" fill="#444444" font-family="Arial" font-size="11" text-anchor="middle" dominant-baseline="bottom">Jul</text><text x="315.5" y="-3.024" fill="#444444" font-family="Arial" font-size="11" text-anchor="middle" dominant-baseline="bottom">Aug</text><text x="357.5666666666666" y="-3.024" fill="#444444" font-family="Arial" font-size="11" text-anchor="middle" dominant-baseline="bottom">Sep</text><text x="399.6333333333333" y="-3.024" fill="#444444" font-family="Arial" font-size="11" text-anchor="middle" dominant-baseline="bottom">Oct</text><text x="441.69999999999993" y="-3.024" fill="#444444" font-family="Arial" font-size="11" text-anchor="middle" dominant-baseline="bottom">Nov</text><text x="483.76666666666665" y="-3.024" fill="#444444" font-family="Arial" font-size="11" text-anchor="middle" dominant-baseline="bottom">Dec</text><text x="-1.6826666666666665" y="37.8" fill="#444444" font-family="Arial" font-size="11" text-anchor="end" dominant-baseline="central">Dubai</text><text x="-1.6826666666666665" y="113.39999999999999" fill="#444444" font-family="Arial" font-size="11" text-anchor="end" dominant-baseline="central">Sydney</text><text x="-1.6826666666666665" y="189.0" fill="#444444" font-family="Arial" font-size="11" text-anchor="end" dominant-baseline="central">Tokyo</text><text x="-1.6826666666666665" y="264.59999999999997" fill="#444444" font-family="Arial" font-size="11" text-anchor="end" dominant-baseline="central">Berlin</text><text x="-1.6826666666666665" y="340.2" fill="#444444" font-family="Arial" font-size="11" text-anchor="end" dominant-baseline="central">Moscow</text><path fill="#f58b51" d="M518.8 0.0 h16.0 v6.9 h-16.0 v-6.9Z"/><path fill="#f28b52" d="M518.8 5.9 h16.0 v6.9 h-16.0 v-6.9Z"/><path fill="#f08c53" d="M518.8 11.8 h16.0 v6.9 h-16.0 v-6.9Z"/><path fill="#ed8c54" d="M518.8 17.7 h16.0 v6.9 h-16.0 v-6.9Z"/><path fill="#eb8d55" d="M518.8 23.6 h16.0 v6.9 h-16.0 v-6.9Z"/><path fill="#e98d57" d="M518.8 29.5 h16.0 v6.9 h-16.0 v-6.9Z"/><path fill="#e68e58" d="M518.8 35.4 h16.0 v6.9 h-16.0 v-6.9Z"/><path fill="#e48e59" d="M518.8 41.3 h16.0 v6.9 h-16.0 v-6.9Z"/><path fill="#e18f5a" d="M518.8 47.2 h16.0 v6.9 h-16.0 v-6.9Z"/><path fill="#df8f5c" d="M518.8 53.2 h16.0 v6.9 h-16.0 v-6.9Z"/><path fill="#dd905d" d="M518.8 59.1 h16.0 v6.9 h-16.0 v-6.9Z"/><path fill="#da905e" d="M518.8 65.0 h16.0 v6.9 h-16.0 v-6.9Z"/><path fill="#d8915f" d="M518.8 70.9 h16.0 v6.9 h-16.0 v-6.9Z"/><path fill="#d69160" d="M518.8 76.8 h16.0 v6.9 h-16.0 v-6.9Z"/><path fill="#d39262" d="M518.8 82.7 h16.0 v6.9 h-16.0 v-6.9Z"/><path fill="#d19263" d="M518.8 88.6 h16.0 v6.9 h-16.0 v-6.9Z"/><path fill="#ce9364" d="M518.8 94.5 h16.0 v6.9 h-16.0 v-6.9Z"/><path fill="#cc9365" d="M518.8 100.4 h16.0 v6.9 h-16.0 v-6.9Z"/><path fill="#ca9467" d="M518.8 106.3 h16.0 v6.9 h-16.0 v-6.9Z"/><path fill="#c79468" d="M518.8 112.2 h16.0 v6.9 h-16.0 v-6.9Z"/><path fill="#c59569" d="M518.8 118.1 h16.0 v6.9 h-16.0 v-6.9Z"/><path fill="#c3956a" d="M518.8 124.0 h16.0 v6.9 h-16.0 v-6.9Z"/><path fill="#c0966b" d="M518.8 129.9 h16.0 v6.9 h-16.0 v-6.9Z"/><path fill="#be966d" d="M518.8 135.8 h16.0 v6.9 h-16.0 v-6.9Z"/><path fill="#bb976e" d="M518.8 141.8 h16.0 v6.9 h-16.0 v-6.9Z"/><path fill="#b9976f" d="M518.8 147.7 h16.0 v6.9 h-16.0 v-6.9Z"/><path fill="#b79870" d="M518.8 153.6 h16.0 v6.9 h-16.0 v-6.9Z"/><path fill="#b49872" d="M518.8 159.5 h16.0 v6.9 h-16.0 v-6.9Z"/><path fill="#b29973" d="M518.8 165.4 h16.0 v6.9 h-16.0 v-6.9Z"/><path fill="#af9974" d="M518.8 171.3 h16.0 v6.9 h-16.0 v-6.9Z"/><path fill="#ad9a75" d="M518.8 177.2 h16.0 v6.9 h-16.0 v-6.9Z"/><path fill="#ab9a76" d="M518.8 183.1 h16.0 v6.9 h-16.0 v-6.9Z"/><path fill="#a89b78" d="M518.8 189.0 h16.0 v6.9 h-16.0 v-6.9Z"/><path fill="#a69b79" d="M518.8 194.9 h16.0 v6.9 h-16.0 v-6.9Z"/><path fill="#a49c7a" d="M518.8 200.8 h16.0 v6.9 h-16.0 v-6.9Z"/><path fill="#a19c7b" d="M518.8 206.7 h16.0 v6.9 h-16.0 v-6.9Z"/><path fill="#9f9d7d" d="M518.8 212.6 h16.0 v6.9 h-16.0 v-6.9Z"/><path fill="#9c9d7e" d="M518.8 218.5 h16.0 v6.9 h-16.0 v-6.9Z"/><path fill="#9a9e7f" d="M518.8 224.4 h16.0 v6.9 h-16.0 v-6.9Z"/><path fill="#989e80" d="M518.8 230.3 h16.0 v6.9 h-16.0 v-6.9Z"/><path fill="#959f81" d="M518.8 236.2 h16.0 v6.9 h-16.0 v-6.9Z"/><path fill="#939f83" d="M518.8 242.2 h16.0 v6.9 h-16.0 v-6.9Z"/><path fill="#91a084" d="M518.8 248.1 h16.0 v6.9 h-16.0 v-6.9Z"/><path fill="#8ea085" d="M518.8 254.0 h16.0 v6.9 h-16.0 v-6.9Z"/><path fill="#8ca186" d="M518.8 259.9 h16.0 v6.9 h-16.0 v-6.9Z"/><path fill="#89a188" d="M518.8 265.8 h16.0 v6.9 h-16.0 v-6.9Z"/><path fill="#87a289" d="M518.8 271.7 h16.0 v6.9 h-16.0 v-6.9Z"/><path fill="#85a28a" d="M518.8 277.6 h16.0 v6.9 h-16.0 v-6.9Z"/><path fill="#82a38b" d="M518.8 283.5 h16.0 v6.9 h-16.0 v-6.9Z"/><path fill="#80a38c" d="M518.8 289.4 h16.0 v6.9 h-16.0 v-6.9Z"/><path fill="#7da48e" d="M518.8 295.3 h16.0 v6.9 h-16.0 v-6.9Z"/><path fill="#7ba48f" d="M518.8 301.2 h16.0 v6.9 h-16.0 v-6.9Z"/><path fill="#79a590" d="M518.8 307.1 h16.0 v6.9 h-16.0 v-6.9Z"/><path fill="#76a591" d="M518.8 313.0 h16.0 v6.9 h-16.0 v-6.9Z"/><path fill="#74a693" d="M518.8 318.9 h16.0 v6.9 h-16.0 v-6.9Z"/><path fill="#72a694" d="M518.8 324.8 h16.0 v6.9 h-16.0 v-6.9Z"/><path fill="#6fa795" d="M518.8 330.8 h16.0 v6.9 h-16.0 v-6.9Z"/><path fill="#6da796" d="M518.8 336.7 h16.0 v6.9 h-16.0 v-6.9Z"/><path fill="#6aa897" d="M518.8 342.6 h16.0 v6.9 h-16.0 v-6.9Z"/><path fill="#68a899" d="M518.8 348.5 h16.0 v6.9 h-16.0 v-6.9Z"/><path fill="#66a99a" d="M518.8 354.4 h16.0 v6.9 h-16.0 v-6.9Z"/><path fill="#63a99b" d="M518.8 360.3 h16.0 v6.9 h-16.0 v-6.9Z"/><path fill="#61aa9c" d="M518.8 366.2 h16.0 v6.9 h-16.0 v-6.9Z"/><path fill="#5fab9e" d="M518.8 372.1 h16.0 v6.9 h-16.0 v-6.9Z"/><path fill="none" stroke="#444444" stroke-width="0.75" d="M518.8 0 h16.0 v378.0 h-16.0 v-378.0Z"/><path stroke="#444444" stroke-width="0.75" d="M534.8 378.0 h4"/><text x="543.8" y="378.0" fill="#444444" font-family="Arial" font-size="11" text-anchor="start" dominant-baseline="central">-2</text><path stroke="#444444" stroke-width="0.75" d="M534.8 283.5 h4"/><text x="543.8" y="283.5" fill="#444444" font-family="Arial" font-size="11" text-anchor="start" dominant-baseline="central">10</text><path stroke="#444444" stroke-width="0.75" d="M534.8 189.0 h4"/><text x="543.8" y="189.0" fill="#444444" font-family="Arial" font-size="11" text-anchor="start" dominant-baseline="central">22</text><path stroke="#444444" stroke-width="0.75" d="M534.8 94.5 h4"/><text x="543.8" y="94.5" fill="#444444" font-family="Arial" font-size="11" text-anchor="start" dominant-baseline="central">35</text><path stroke="#444444" stroke-width="0.75" d="M534.8 0.0 h4"/><text x="543.8" y="0.0" fill="#444444" font-family="Arial" font-size="11" text-anchor="start" dominant-baseline="central">47</text></g></svg>