<svg xmlns="http://www.w3.org/2000/svg" width="600" height="400" viewBox="0 0 600 400"><path fill="#FFFFFF" d="M0 0 h600 v400 h-600 v-400Z"/><text transform="translate(-269.0, 30)" fill="#444444" font-family="JetBrains Mono" font-weight="normal" font-size="16" x="300.0" y="10.0">Average Temperature (°C) — Monthly by City</text><g transform="translate(87.0, 65.0)"><path fill="#c46f37" stroke="#CCCCCC" stroke-width="0.5" d="M0.8 1.3 h37.7 v60.5 h-37.7 v-60.5Z"/><text x="19.625" y="31.5" fill="#ffffff" font-family="JetBrains Mono" font-size="11" text-anchor="middle" dominant-baseline="central">35</text><path fill="#c86f34" stroke="#CCCCCC" stroke-width="0.5" d="M40.0 1.3 h37.7 v60.5 h-37.7 v-60.5Z"/><text x="58.875" y="31.5" fill="#ffffff" font-family="JetBrains Mono" font-size="11" text-anchor="middle" dominant-baseline="central">36</text><path fill="#d1702e" stroke="#CCCCCC" stroke-width="0.5" d="M79.3 1.3 h37.7 v60.5 h-37.7 v-60.5Z"/><text x="98.125" y="31.5" fill="#000000" font-family="JetBrains Mono" font-size="11" text-anchor="middle" dominant-baseline="central">38</text><path fill="#da7029" stroke="#CCCCCC" stroke-width="0.5" d="M118.5 1.3 h37.7 v60.5 h-37.7 v-60.5Z"/><text x="137.375" y="31.5" fill="#000000" font-family="JetBrains Mono" font-size="11" text-anchor="middle" dominant-baseline="central">40</text><path fill="#e77121" stroke="#CCCCCC" stroke-width="0.5" d="M157.8 1.3 h37.7 v60.5 h-37.7 v-60.5Z"/><text x="176.625" y="31.5" fill="#000000" font-family="JetBrains Mono" font-size="11" text-anchor="middle" dominant-baseline="central">43</text><path fill="#f0721b" stroke="#CCCCCC" stroke-width="0.5" d="M197.0 1.3 h37.7 v60.5 h-37.7 v-60.5Z"/><text x="215.875" y="31.5" fill="#000000" font-family="JetBrains Mono" font-size="11" text-anchor="middle" dominant-baseline="central">45</text><path fill="#f97316" stroke="#CCCCCC" stroke-width="0.5" d="M236.3 1.3 h37.7 v60.5 h-37.7 v-60.5Z"/><text x="255.125" y="31.5" fill="#000000" font-family="JetBrains Mono" font-size="11" text-anchor="middle" dominant-baseline="central">47</text><path fill="#f47218" stroke="#CCCCCC" stroke-width="0.5" d="M275.5 1.3 h37.7 v60.5 h-37.7 v-60.5Z"/><text x="294.375" y="31.5" fill="#000000" font-family="JetBrains Mono" font-size="11" text-anchor="middle" dominant-baseline="central">46</text><path fill="#eb721e" stroke="#CCCCCC" stroke-width="0.5" d="M314.8 1.3 h37.7 v60.5 h-37.7 v-60.5Z"/><text x="333.625" y="31.5" fill="#000000" font-family="JetBrains Mono" font-size="11" text-anchor="middle" dominant-baseline="central">44</text><path fill="#de7126" stroke="#CCCCCC" stroke-width="0.5" d="M354.0 1.3 h37.7 v60.5 h-37.7 v-60.5Z"/><text x="372.875" y="31.5" fill="#000000" font-family="JetBrains Mono" font-size="11" text-anchor="middle" dominant-baseline="central">41</text><path fill="#d1702e" stroke="#CCCCCC" stroke-width="0.5" d="M393.3 1.3 h37.7 v60.5 h-37.7 v-60.5Z"/><text x="412.125" y="31.5" fill="#000000" font-family="JetBrains Mono" font-size="11" text-anchor="middle" dominant-baseline="central">38</text><path fill="#c86f34" stroke="#CCCCCC" stroke-width="0.5" d="M432.5 1.3 h37.7 v60.5 h-37.7 v-60.5Z"/><text x="451.375" y="31.5" fill="#ffffff" font-family="JetBrains Mono" font-size="11" text-anchor="middle" dominant-baseline="central">36</text><path fill="#8a6a5b" stroke="#CCCCCC" stroke-width="0.5" d="M0.8 64.3 h37.7 v60.5 h-37.7 v-60.5Z"/><text x="19.625" y="94.5" fill="#ffffff" font-family="JetBrains Mono" font-size="11" text-anchor="middle" dominant-baseline="central">22</text><path fill="#936b55" stroke="#CCCCCC" stroke-width="0.5" d="M40.0 64.3 h37.7 v60.5 h-37.7 v-60.5Z"/><text x="58.875" y="94.5" fill="#ffffff" font-family="JetBrains Mono" font-size="11" text-anchor="middle" dominant-baseline="central">24</text><path fill="#a56c4a" stroke="#CCCCCC" stroke-width="0.5" d="M79.3 64.3 h37.7 v60.5 h-37.7 v-60.5Z"/><text x="98.125" y="94.5" fill="#ffffff" font-family="JetBrains Mono" font-size="11" text-anchor="middle" dominant-baseline="central">28</text><path fill="#b66e3f" stroke="#CCCCCC" stroke-width="0.5" d="M118.5 64.3 h37.7 v60.5 h-37.7 v-60.5Z"/><text x="137.375" y="94.5" fill="#ffffff" font-family="JetBrains Mono" font-size="11" text-anchor="middle" dominant-baseline="central">32</text><path fill="#c86f34" stroke="#CCCCCC" stroke-width="0.5" d="M157.8 64.3 h37.7 v60.5 h-37.7 v-60.5Z"/><text x="176.625" y="94.5" fill="#ffffff" font-family="JetBrains Mono" font-size="11" text-anchor="middle" dominant-baseline="central">36</text><path fill="#da7029" stroke="#CCCCCC" stroke-width="0.5" d="M197.0 64.3 h37.7 v60.5 h-37.7 v-60.5Z"/><text x="215.875" y="94.5" fill="#000000" font-family="JetBrains Mono" font-size="11" text-anchor="middle" dominant-baseline="central">40</text><path fill="#e27123" stroke="#CCCCCC" stroke-width="0.5" d="M236.3 64.3 h37.7 v60.5 h-37.7 v-60.5Z"/><text x="255.125" y="94.5" fill="#000000" font-family="JetBrains Mono" font-size="11" text-anchor="middle" dominant-baseline="central">42</text><path fill="#de7126" stroke="#CCCCCC" stroke-width="0.5" d="M275.5 64.3 h37.7 v60.5 h-37.7 v-60.5Z"/><text x="294.375" y="94.5" fill="#000000" font-family="JetBrains Mono" font-size="11" text-anchor="middle" dominant-baseline="central">41</text><path fill="#d1702e" stroke="#CCCCCC" stroke-width="0.5" d="M314.8 64.3 h37.7 v60.5 h-37.7 v-60.5Z"/><text x="333.625" y="94.5" fill="#000000" font-family="JetBrains Mono" font-size="11" text-anchor="middle" dominant-baseline="central">38</text><path fill="#bb6e3c" stroke="#CCCCCC" stroke-width="0.5" d="M354.0 64.3 h37.7 v60.5 h-37.7 v-60.5Z"/><text x="372.875" y="94.5" fill="#ffffff" font-family="JetBrains Mono" font-size="11" text-anchor="middle" dominant-baseline="central">33</text><path fill="#a06c4d" stroke="#CCCCCC" stroke-width="0.5" d="M393.3 64.3 h37.7 v60.5 h-37.7 v-60.5Z"/><text x="412.125" y="94.5" fill="#ffffff" font-family="JetBrains Mono" font-size="11" text-anchor="middle" dominant-baseline="central">27</text><path fill="#8f6b58" stroke="#CCCCCC" stroke-width="0.5" d="M432.5 64.3 h37.7 v60.5 h-37.7 v-60.5Z"/><text x="451.375" y="94.5" fill="#ffffff" font-family="JetBrains Mono" font-size="11" text-anchor="middle" dominant-baseline="central">23</text><path fill="#6b686e" stroke="#CCCCCC" stroke-width="0.5" d="M0.8 127.3 h37.7 v60.5 h-37.7 v-60.5Z"/><text x="19.625" y="157.5" fill="#ffffff" font-family="JetBrains Mono" font-size="11" text-anchor="middle" dominant-baseline="central">15</text><path fill="#796966" stroke="#CCCCCC" stroke-width="0.5" d="M40.0 127.3 h37.7 v60.5 h-37.7 v-60.5Z"/><text x="58.875" y="157.5" fill="#ffffff" font-family="JetBrains Mono" font-size="11" text-anchor="middle" dominant-baseline="central">18</text><path fill="#8a6a5b" stroke="#CCCCCC" stroke-width="0.5" d="M79.3 127.3 h37.7 v60.5 h-37.7 v-60.5Z"/><text x="98.125" y="157.5" fill="#ffffff" font-family="JetBrains Mono" font-size="11" text-anchor="middle" dominant-baseline="central">22</text><path fill="#a06c4d" stroke="#CCCCCC" stroke-width="0.5" d="M118.5 127.3 h37.7 v60.5 h-37.7 v-60.5Z"/><text x="137.375" y="157.5" fill="#ffffff" font-family="JetBrains Mono" font-size="11" text-anchor="middle" dominant-baseline="central">27</text><path fill="#b66e3f" stroke="#CCCCCC" stroke-width="0.5" d="M157.8 127.3 h37.7 v60.5 h-37.7 v-60.5Z"/><text x="176.625" y="157.5" fill="#ffffff" font-family="JetBrains Mono" font-size="11" text-anchor="middle" dominant-baseline="central">32</text><path fill="#cc6f31" stroke="#CCCCCC" stroke-width="0.5" d="M197.0 127.3 h37.7 v60.5 h-37.7 v-60.5Z"/><text x="215.875" y="157.5" fill="#ffffff" font-family="JetBrains Mono" font-size="11" text-anchor="middle" dominant-baseline="central">37</text><path fill="#da7029" stroke="#CCCCCC" stroke-width="0.5" d="M236.3 127.3 h37.7 v60.5 h-37.7 v-60.5Z"/><text x="255.125" y="157.5" fill="#000000" font-family="JetBrains Mono" font-size="11" text-anchor="middle" dominant-baseline="central">40</text><path fill="#d5702c" stroke="#CCCCCC" stroke-width="0.5" d="M275.5 127.3 h37.7 v60.5 h-37.7 v-60.5Z"/><text x="294.375" y="157.5" fill="#000000" font-family="JetBrains Mono" font-size="11" text-anchor="middle" dominant-baseline="central">39</text><path fill="#c46f37" stroke="#CCCCCC" stroke-width="0.5" d="M314.8 127.3 h37.7 v60.5 h-37.7 v-60.5Z"/><text x="333.625" y="157.5" fill="#ffffff" font-family="JetBrains Mono" font-size="11" text-anchor="middle" dominant-baseline="central">35</text><path fill="#a96d47" stroke="#CCCCCC" stroke-width="0.5" d="M354.0 127.3 h37.7 v60.5 h-37.7 v-60.5Z"/><text x="372.875" y="157.5" fill="#ffffff" font-family="JetBrains Mono" font-size="11" text-anchor="middle" dominant-baseline="central">29</text><path fill="#8a6a5b" stroke="#CCCCCC" stroke-width="0.5" d="M393.3 127.3 h37.7 v60.5 h-37.7 v-60.5Z"/><text x="412.125" y="157.5" fill="#ffffff" font-family="JetBrains Mono" font-size="11" text-anchor="middle" dominant-baseline="central">22</text><path fill="#746969" stroke="#CCCCCC" stroke-width="0.5" d="M432.5 127.3 h37.7 v60.5 h-37.7 v-60.5Z"/><text x="451.375" y="157.5" fill="#ffffff" font-family="JetBrains Mono" font-size="11" text-anchor="middle" dominant-baseline="central">17</text><path fill="#3f658a" stroke="#CCCCCC" stroke-width="0.5" d="M0.8 190.3 h37.7 v60.5 h-37.7 v-60.5Z"/><text x="19.625" y="220.5" fill="#ffffff" font-family="JetBrains Mono" font-size="11" text-anchor="middle" dominant-baseline="central">5</text><path fill="#4d6682" stroke="#CCCCCC" stroke-width="0.5" d="M40.0 190.3 h37.7 v60.5 h-37.7 v-60.5Z"/><text x="58.875" y="220.5" fill="#ffffff" font-family="JetBrains Mono" font-size="11" text-anchor="middle" dominant-baseline="central">8</text><path fill="#676871" stroke="#CCCCCC" stroke-width="0.5" d="M79.3 190.3 h37.7 v60.5 h-37.7 v-60.5Z"/><text x="98.125" y="220.5" fill="#ffffff" font-family="JetBrains Mono" font-size="11" text-anchor="middle" dominant-baseline="central">14</text><path fill="#816a60" stroke="#CCCCCC" stroke-width="0.5" d="M118.5 190.3 h37.7 v60.5 h-37.7 v-60.5Z"/><text x="137.375" y="220.5" fill="#ffffff" font-family="JetBrains Mono" font-size="11" text-anchor="middle" dominant-baseline="central">20</text><path fill="#9c6c50" stroke="#CCCCCC" stroke-width="0.5" d="M157.8 190.3 h37.7 v60.5 h-37.7 v-60.5Z"/><text x="176.625" y="220.5" fill="#ffffff" font-family="JetBrains Mono" font-size="11" text-anchor="middle" dominant-baseline="central">26</text><path fill="#b66e3f" stroke="#CCCCCC" stroke-width="0.5" d="M197.0 190.3 h37.7 v60.5 h-37.7 v-60.5Z"/><text x="215.875" y="220.5" fill="#ffffff" font-family="JetBrains Mono" font-size="11" text-anchor="middle" dominant-baseline="central">32</text><path fill="#c46f37" stroke="#CCCCCC" stroke-width="0.5" d="M236.3 190.3 h37.7 v60.5 h-37.7 v-60.5Z"/><text x="255.125" y="220.5" fill="#ffffff" font-family="JetBrains Mono" font-size="11" text-anchor="middle" dominant-baseline="central">35</text><path fill="#bf6e3a" stroke="#CCCCCC" stroke-width="0.5" d="M275.5 190.3 h37.7 v60.5 h-37.7 v-60.5Z"/><text x="294.375" y="220.5" fill="#ffffff" font-family="JetBrains Mono" font-size="11" text-anchor="middle" dominant-baseline="central">34</text><path fill="#a96d47" stroke="#CCCCCC" stroke-width="0.5" d="M314.8 190.3 h37.7 v60.5 h-37.7 v-60.5Z"/><text x="333.625" y="220.5" fill="#ffffff" font-family="JetBrains Mono" font-size="11" text-anchor="middle" dominant-baseline="central">29</text><path fill="#8a6a5b" stroke="#CCCCCC" stroke-width="0.5" d="M354.0 190.3 h37.7 v60.5 h-37.7 v-60.5Z"/><text x="372.875" y="220.5" fill="#ffffff" font-family="JetBrains Mono" font-size="11" text-anchor="middle" dominant-baseline="central">22</text><path fill="#676871" stroke="#CCCCCC" stroke-width="0.5" d="M393.3 190.3 h37.7 v60.5 h-37.7 v-60.5Z"/><text x="412.125" y="220.5" fill="#ffffff" font-family="JetBrains Mono" font-size="11" text-anchor="middle" dominant-baseline="central">14</text><path fill="#486585" stroke="#CCCCCC" stroke-width="0.5" d="M432.5 190.3 h37.7 v60.5 h-37.7 v-60.5Z"/><text x="451.375" y="220.5" fill="#ffffff" font-family="JetBrains Mono" font-size="11" text-anchor="middle" dominant-baseline="central">7</text><path fill="#21639e" stroke="#CCCCCC" stroke-width="0.5" d="M0.8 253.3 h37.7 v60.5 h-37.7 v-60.5Z"/><text x="19.625" y="283.5" fill="#ffffff" font-family="JetBrains Mono" font-size="11" text-anchor="middle" dominant-baseline="central">-2</text><path fill="#326492" stroke="#CCCCCC" stroke-width="0.5" d="M40.0 253.3 h37.7 v60.5 h-37.7 v-60.5Z"/><text x="58.875" y="283.5" fill="#ffffff" font-family="JetBrains Mono" font-size="11" text-anchor="middle" dominant-baseline="central">2</text><path fill="#55667c" stroke="#CCCCCC" stroke-width="0.5" d="M79.3 253.3 h37.7 v60.5 h-37.7 v-60.5Z"/><text x="98.125" y="283.5" fill="#ffffff" font-family="JetBrains Mono" font-size="11" text-anchor="middle" dominant-baseline="central">10</text><path fill="#796966" stroke="#CCCCCC" stroke-width="0.5" d="M118.5 253.3 h37.7 v60.5 h-37.7 v-60.5Z"/><text x="137.375" y="283.5" fill="#ffffff" font-family="JetBrains Mono" font-size="11" text-anchor="middle" dominant-baseline="central">18</text><path fill="#986b53" stroke="#CCCCCC" stroke-width="0.5" d="M157.8 253.3 h37.7 v60.5 h-37.7 v-60.5Z"/><text x="176.625" y="283.5" fill="#ffffff" font-family="JetBrains Mono" font-size="11" text-anchor="middle" dominant-baseline="central">25</text><path fill="#b26d42" stroke="#CCCCCC" stroke-width="0.5" d="M197.0 253.3 h37.7 v60.5 h-37.7 v-60.5Z"/><text x="215.875" y="283.5" fill="#ffffff" font-family="JetBrains Mono" font-size="11" text-anchor="middle" dominant-baseline="central">31</text><path fill="#bf6e3a" stroke="#CCCCCC" stroke-width="0.5" d="M236.3 253.3 h37.7 v60.5 h-37.7 v-60.5Z"/><text x="255.125" y="283.5" fill="#ffffff" font-family="JetBrains Mono" font-size="11" text-anchor="middle" dominant-baseline="central">34</text><path fill="#bb6e3c" stroke="#CCCCCC" stroke-width="0.5" d="M275.5 253.3 h37.7 v60.5 h-37.7 v-60.5Z"/><text x="294.375" y="283.5" fill="#ffffff" font-family="JetBrains Mono" font-size="11" text-anchor="middle" dominant-baseline="central">33</text><path fill="#a06c4d" stroke="#CCCCCC" stroke-width="0.5" d="M314.8 253.3 h37.7 v60.5 h-37.7 v-60.5Z"/><text x="333.625" y="283.5" fill="#ffffff" font-family="JetBrains Mono" font-size="11" text-anchor="middle" dominant-baseline="central">27</text><path fill="#7d6963" stroke="#CCCCCC" stroke-width="0.5" d="M354.0 253.3 h37.7 v60.5 h-37.7 v-60.5Z"/><text x="372.875" y="283.5" fill="#ffffff" font-family="JetBrains Mono" font-size="11" text-anchor="middle" dominant-baseline="central">19</text><path fill="#55667c" stroke="#CCCCCC" stroke-width="0.5" d="M393.3 253.3 h37.7 v60.5 h-37.7 v-60.5Z"/><text x="412.125" y="283.5" fill="#ffffff" font-family="JetBrains Mono" font-size="11" text-anchor="middle" dominant-baseline="central">10</text><path fill="#376490" stroke="#CCCCCC" stroke-width="0.5" d="M432.5 253.3 h37.7 v60.5 h-37.7 v-60.5Z"/><text x="451.375" y="283.5" fill="#ffffff" font-family="JetBrains Mono" font-size="11" text-anchor="middle" dominant-baseline="central">3</text><text x="19.625" y="-2.52" fill="#444444" font-family="JetBrains Mono" font-size="11" text-anchor="middle" dominant-baseline="bottom">Jan</text><text x="58.875" y="-2.52" fill="#444444" font-family="JetBrains Mono" font-size="11" text-anchor="middle" dominant-baseline="bottom">Feb</text><text x="98.125" y="-2.52" fill="#444444" font-family="JetBrains Mono" font-size="11" text-anchor="middle" dominant-baseline="bottom">Mar</text><text x="137.375" y="-2.52" fill="#444444" font-family="JetBrains Mono" font-size="11" text-anchor="middle" dominant-baseline="bottom">Apr</text><text x="176.625" y="-2.52" fill="#444444" font-family="JetBrains Mono" font-size="11" text-anchor="middle" dominant-baseline="bottom">May</text><text x="215.875" y="-2.52" fill="#444444" font-family="JetBrains Mono" font-size="11" text-anchor="middle" dominant-baseline="bottom">Jun</text><text x="255.125" y="-2.52" fill="#444444" font-family="JetBrains Mono" font-size="11" text-anchor="middle" dominant-baseline="bottom">Jul</text><text x="294.375" y="-2.52" fill="#444444" font-family="JetBrains Mono" font-size="11" text-anchor="middle" dominant-baseline="bottom">Aug</text><text x="333.625" y="-2.52" fill="#444444" font-family="JetBrains Mono" font-size="11" text-anchor="middle" dominant-baseline="bottom">Sep</text><text x="372.875" y="-2.52" fill="#444444" font-family="JetBrains Mono" font-size="11" text-anchor="middle" dominant-baseline="bottom">Oct</text><text x="412.125" y="-2.52" fill="#444444" font-family="JetBrains Mono" font-size="11" text-anchor="middle" dominant-baseline="bottom">Nov</text><text x="451.375" y="-2.52" fill="#444444" font-family="JetBrains Mono" font-size="11" text-anchor="middle" dominant-baseline="bottom">Dec</text><text x="-1.57" y="31.5" fill="#444444" font-family="JetBrains Mono" font-size="11" text-anchor="end" dominant-baseline="central">Dubai</text><text x="-1.57" y="94.5" fill="#444444" font-family="JetBrains Mono" font-size="11" text-anchor="end" dominant-baseline="central">Sydney</text><text x="-1.57" y="157.5" fill="#444444" font-family="JetBrains Mono" font-size="11" text-anchor="end" dominant-baseline="central">Tokyo</text><text x="-1.57" y="220.5" fill="#444444" font-family="JetBrains Mono" font-size="11" text-anchor="end" dominant-baseline="central">Berlin</text><text x="-1.57" y="283.5" fill="#444444" font-family="JetBrains Mono" font-size="11" text-anchor="end" dominant-baseline="central">Moscow</text><path fill="#21639e" d="M481.0 0.0 h20 v16.8 h-20 v-16.8Z"/><path fill="#2c6396" d="M481.0 15.8 h20 v16.8 h-20 v-16.8Z"/><path fill="#37648f" d="M481.0 31.5 h20 v16.8 h-20 v-16.8Z"/><path fill="#436588" d="M481.0 47.2 h20 v16.8 h-20 v-16.8Z"/><path fill="#4e6681" d="M481.0 63.0 h20 v16.8 h-20 v-16.8Z"/><path fill="#59677a" d="M481.0 78.8 h20 v16.8 h-20 v-16.8Z"/><path fill="#656873" d="M481.0 94.5 h20 v16.8 h-20 v-16.8Z"/><path fill="#70686b" d="M481.0 110.2 h20 v16.8 h-20 v-16.8Z"/><path fill="#7b6964" d="M481.0 126.0 h20 v16.8 h-20 v-16.8Z"/><path fill="#876a5d" d="M481.0 141.8 h20 v16.8 h-20 v-16.8Z"/><path fill="#926b56" d="M481.0 157.5 h20 v16.8 h-20 v-16.8Z"/><path fill="#9e6c4f" d="M481.0 173.2 h20 v16.8 h-20 v-16.8Z"/><path fill="#a96d48" d="M481.0 189.0 h20 v16.8 h-20 v-16.8Z"/><path fill="#b46d40" d="M481.0 204.8 h20 v16.8 h-20 v-16.8Z"/><path fill="#c06e39" d="M481.0 220.5 h20 v16.8 h-20 v-16.8Z"/><path fill="#cb6f32" d="M481.0 236.2 h20 v16.8 h-20 v-16.8Z"/><path fill="#d6702b" d="M481.0 252.0 h20 v16.8 h-20 v-16.8Z"/><path fill="#e27124" d="M481.0 267.8 h20 v16.8 h-20 v-16.8Z"/><path fill="#ed721d" d="M481.0 283.5 h20 v16.8 h-20 v-16.8Z"/><path fill="#f97316" d="M481.0 299.2 h20 v16.8 h-20 v-16.8Z"/><text x="491.0" y="315.0" fill="#444444" font-family="JetBrains Mono" font-size="11" text-anchor="middle">-2</text><text x="491.0" y="0" fill="#444444" font-family="JetBrains Mono" font-size="11" text-anchor="middle" dominant-baseline="bottom">47</text><path stroke="#CCCCCC" stroke-dasharray="None" d="M0 315.0 h471.0"/><path stroke="#CCCCCC" stroke-dasharray="None" d="M0 0 h471.0"/><path stroke="#CCCCCC" stroke-dasharray="None" d="M0 0 v315.0"/><path stroke="#CCCCCC" stroke-dasharray="None" d="M471.0 0 v315.0"/></g></svg>