<svg xmlns="http://www.w3.org/2000/svg" width="700" height="450" viewBox="0 0 700 450"><path fill="#FFFFFF" d="M0 0 h700 v450 h-700 v-450Z"/><text transform="translate(-163.0, 18)" fill="#444444" font-family="Arial" font-weight="normal" font-size="16" x="350.0" y="11.25">Average Temperature (°C) — Monthly by City</text><g transform="translate(94.0, 49.5)"><path fill="#c46f37" stroke="#CCCCCC" stroke-width="0.5" d="M0.9 1.5 h44.6 v72.6 h-44.6 v-72.6Z"/><text x="23.208333333333332" y="37.8" fill="#ffffff" font-family="Arial" font-size="11" text-anchor="middle" dominant-baseline="central">35</text><path fill="#c86f34" stroke="#CCCCCC" stroke-width="0.5" d="M47.3 1.5 h44.6 v72.6 h-44.6 v-72.6Z"/><text x="69.625" y="37.8" fill="#ffffff" font-family="Arial" font-size="11" text-anchor="middle" dominant-baseline="central">36</text><path fill="#d1702e" stroke="#CCCCCC" stroke-width="0.5" d="M93.8 1.5 h44.6 v72.6 h-44.6 v-72.6Z"/><text x="116.04166666666666" y="37.8" fill="#000000" font-family="Arial" font-size="11" text-anchor="middle" dominant-baseline="central">38</text><path fill="#da7029" stroke="#CCCCCC" stroke-width="0.5" d="M140.2 1.5 h44.6 v72.6 h-44.6 v-72.6Z"/><text x="162.45833333333334" y="37.8" fill="#000000" font-family="Arial" font-size="11" text-anchor="middle" dominant-baseline="central">40</text><path fill="#e77121" stroke="#CCCCCC" stroke-width="0.5" d="M186.6 1.5 h44.6 v72.6 h-44.6 v-72.6Z"/><text x="208.875" y="37.8" fill="#000000" font-family="Arial" font-size="11" text-anchor="middle" dominant-baseline="central">43</text><path fill="#f0721b" stroke="#CCCCCC" stroke-width="0.5" d="M233.0 1.5 h44.6 v72.6 h-44.6 v-72.6Z"/><text x="255.29166666666666" y="37.8" fill="#000000" font-family="Arial" font-size="11" text-anchor="middle" dominant-baseline="central">45</text><path fill="#f97316" stroke="#CCCCCC" stroke-width="0.5" d="M279.4 1.5 h44.6 v72.6 h-44.6 v-72.6Z"/><text x="301.7083333333333" y="37.8" fill="#000000" font-family="Arial" font-size="11" text-anchor="middle" dominant-baseline="central">47</text><path fill="#f47218" stroke="#CCCCCC" stroke-width="0.5" d="M325.8 1.5 h44.6 v72.6 h-44.6 v-72.6Z"/><text x="348.12499999999994" y="37.8" fill="#000000" font-family="Arial" font-size="11" text-anchor="middle" dominant-baseline="central">46</text><path fill="#eb721e" stroke="#CCCCCC" stroke-width="0.5" d="M372.3 1.5 h44.6 v72.6 h-44.6 v-72.6Z"/><text x="394.54166666666663" y="37.8" fill="#000000" font-family="Arial" font-size="11" text-anchor="middle" dominant-baseline="central">44</text><path fill="#de7126" stroke="#CCCCCC" stroke-width="0.5" d="M418.7 1.5 h44.6 v72.6 h-44.6 v-72.6Z"/><text x="440.9583333333333" y="37.8" fill="#000000" font-family="Arial" font-size="11" text-anchor="middle" dominant-baseline="central">41</text><path fill="#d1702e" stroke="#CCCCCC" stroke-width="0.5" d="M465.1 1.5 h44.6 v72.6 h-44.6 v-72.6Z"/><text x="487.37499999999994" y="37.8" fill="#000000" font-family="Arial" font-size="11" text-anchor="middle" dominant-baseline="central">38</text><path fill="#c86f34" stroke="#CCCCCC" stroke-width="0.5" d="M511.5 1.5 h44.6 v72.6 h-44.6 v-72.6Z"/><text x="533.7916666666666" y="37.8" fill="#ffffff" font-family="Arial" font-size="11" text-anchor="middle" dominant-baseline="central">36</text><path fill="#8a6a5b" stroke="#CCCCCC" stroke-width="0.5" d="M0.9 77.1 h44.6 v72.6 h-44.6 v-72.6Z"/><text x="23.208333333333332" y="113.39999999999999" fill="#ffffff" font-family="Arial" font-size="11" text-anchor="middle" dominant-baseline="central">22</text><path fill="#936b55" stroke="#CCCCCC" stroke-width="0.5" d="M47.3 77.1 h44.6 v72.6 h-44.6 v-72.6Z"/><text x="69.625" y="113.39999999999999" fill="#ffffff" font-family="Arial" font-size="11" text-anchor="middle" dominant-baseline="central">24</text><path fill="#a56c4a" stroke="#CCCCCC" stroke-width="0.5" d="M93.8 77.1 h44.6 v72.6 h-44.6 v-72.6Z"/><text x="116.04166666666666" y="113.39999999999999" fill="#ffffff" font-family="Arial" font-size="11" text-anchor="middle" dominant-baseline="central">28</text><path fill="#b66e3f" stroke="#CCCCCC" stroke-width="0.5" d="M140.2 77.1 h44.6 v72.6 h-44.6 v-72.6Z"/><text x="162.45833333333334" y="113.39999999999999" fill="#ffffff" font-family="Arial" font-size="11" text-anchor="middle" dominant-baseline="central">32</text><path fill="#c86f34" stroke="#CCCCCC" stroke-width="0.5" d="M186.6 77.1 h44.6 v72.6 h-44.6 v-72.6Z"/><text x="208.875" y="113.39999999999999" fill="#ffffff" font-family="Arial" font-size="11" text-anchor="middle" dominant-baseline="central">36</text><path fill="#da7029" stroke="#CCCCCC" stroke-width="0.5" d="M233.0 77.1 h44.6 v72.6 h-44.6 v-72.6Z"/><text x="255.29166666666666" y="113.39999999999999" fill="#000000" font-family="Arial" font-size="11" text-anchor="middle" dominant-baseline="central">40</text><path fill="#e27123" stroke="#CCCCCC" stroke-width="0.5" d="M279.4 77.1 h44.6 v72.6 h-44.6 v-72.6Z"/><text x="301.7083333333333" y="113.39999999999999" fill="#000000" font-family="Arial" font-size="11" text-anchor="middle" dominant-baseline="central">42</text><path fill="#de7126" stroke="#CCCCCC" stroke-width="0.5" d="M325.8 77.1 h44.6 v72.6 h-44.6 v-72.6Z"/><text x="348.12499999999994" y="113.39999999999999" fill="#000000" font-family="Arial" font-size="11" text-anchor="middle" dominant-baseline="central">41</text><path fill="#d1702e" stroke="#CCCCCC" stroke-width="0.5" d="M372.3 77.1 h44.6 v72.6 h-44.6 v-72.6Z"/><text x="394.54166666666663" y="113.39999999999999" fill="#000000" font-family="Arial" font-size="11" text-anchor="middle" dominant-baseline="central">38</text><path fill="#bb6e3c" stroke="#CCCCCC" stroke-width="0.5" d="M418.7 77.1 h44.6 v72.6 h-44.6 v-72.6Z"/><text x="440.9583333333333" y="113.39999999999999" fill="#ffffff" font-family="Arial" font-size="11" text-anchor="middle" dominant-baseline="central">33</text><path fill="#a06c4d" stroke="#CCCCCC" stroke-width="0.5" d="M465.1 77.1 h44.6 v72.6 h-44.6 v-72.6Z"/><text x="487.37499999999994" y="113.39999999999999" fill="#ffffff" font-family="Arial" font-size="11" text-anchor="middle" dominant-baseline="central">27</text><path fill="#8f6b58" stroke="#CCCCCC" stroke-width="0.5" d="M511.5 77.1 h44.6 v72.6 h-44.6 v-72.6Z"/><text x="533.7916666666666" y="113.39999999999999" fill="#ffffff" font-family="Arial" font-size="11" text-anchor="middle" dominant-baseline="central">23</text><path fill="#6b686e" stroke="#CCCCCC" stroke-width="0.5" d="M0.9 152.7 h44.6 v72.6 h-44.6 v-72.6Z"/><text x="23.208333333333332" y="189.0" fill="#ffffff" font-family="Arial" font-size="11" text-anchor="middle" dominant-baseline="central">15</text><path fill="#796966" stroke="#CCCCCC" stroke-width="0.5" d="M47.3 152.7 h44.6 v72.6 h-44.6 v-72.6Z"/><text x="69.625" y="189.0" fill="#ffffff" font-family="Arial" font-size="11" text-anchor="middle" dominant-baseline="central">18</text><path fill="#8a6a5b" stroke="#CCCCCC" stroke-width="0.5" d="M93.8 152.7 h44.6 v72.6 h-44.6 v-72.6Z"/><text x="116.04166666666666" y="189.0" fill="#ffffff" font-family="Arial" font-size="11" text-anchor="middle" dominant-baseline="central">22</text><path fill="#a06c4d" stroke="#CCCCCC" stroke-width="0.5" d="M140.2 152.7 h44.6 v72.6 h-44.6 v-72.6Z"/><text x="162.45833333333334" y="189.0" fill="#ffffff" font-family="Arial" font-size="11" text-anchor="middle" dominant-baseline="central">27</text><path fill="#b66e3f" stroke="#CCCCCC" stroke-width="0.5" d="M186.6 152.7 h44.6 v72.6 h-44.6 v-72.6Z"/><text x="208.875" y="189.0" fill="#ffffff" font-family="Arial" font-size="11" text-anchor="middle" dominant-baseline="central">32</text><path fill="#cc6f31" stroke="#CCCCCC" stroke-width="0.5" d="M233.0 152.7 h44.6 v72.6 h-44.6 v-72.6Z"/><text x="255.29166666666666" y="189.0" fill="#ffffff" font-family="Arial" font-size="11" text-anchor="middle" dominant-baseline="central">37</text><path fill="#da7029" stroke="#CCCCCC" stroke-width="0.5" d="M279.4 152.7 h44.6 v72.6 h-44.6 v-72.6Z"/><text x="301.7083333333333" y="189.0" fill="#000000" font-family="Arial" font-size="11" text-anchor="middle" dominant-baseline="central">40</text><path fill="#d5702c" stroke="#CCCCCC" stroke-width="0.5" d="M325.8 152.7 h44.6 v72.6 h-44.6 v-72.6Z"/><text x="348.12499999999994" y="189.0" fill="#000000" font-family="Arial" font-size="11" text-anchor="middle" dominant-baseline="central">39</text><path fill="#c46f37" stroke="#CCCCCC" stroke-width="0.5" d="M372.3 152.7 h44.6 v72.6 h-44.6 v-72.6Z"/><text x="394.54166666666663" y="189.0" fill="#ffffff" font-family="Arial" font-size="11" text-anchor="middle" dominant-baseline="central">35</text><path fill="#a96d47" stroke="#CCCCCC" stroke-width="0.5" d="M418.7 152.7 h44.6 v72.6 h-44.6 v-72.6Z"/><text x="440.9583333333333" y="189.0" fill="#ffffff" font-family="Arial" font-size="11" text-anchor="middle" dominant-baseline="central">29</text><path fill="#8a6a5b" stroke="#CCCCCC" stroke-width="0.5" d="M465.1 152.7 h44.6 v72.6 h-44.6 v-72.6Z"/><text x="487.37499999999994" y="189.0" fill="#ffffff" font-family="Arial" font-size="11" text-anchor="middle" dominant-baseline="central">22</text><path fill="#746969" stroke="#CCCCCC" stroke-width="0.5" d="M511.5 152.7 h44.6 v72.6 h-44.6 v-72.6Z"/><text x="533.7916666666666" y="189.0" fill="#ffffff" font-family="Arial" font-size="11" text-anchor="middle" dominant-baseline="central">17</text><path fill="#3f658a" stroke="#CCCCCC" stroke-width="0.5" d="M0.9 228.3 h44.6 v72.6 h-44.6 v-72.6Z"/><text x="23.208333333333332" y="264.59999999999997" fill="#ffffff" font-family="Arial" font-size="11" text-anchor="middle" dominant-baseline="central">5</text><path fill="#4d6682" stroke="#CCCCCC" stroke-width="0.5" d="M47.3 228.3 h44.6 v72.6 h-44.6 v-72.6Z"/><text x="69.625" y="264.59999999999997" fill="#ffffff" font-family="Arial" font-size="11" text-anchor="middle" dominant-baseline="central">8</text><path fill="#676871" stroke="#CCCCCC" stroke-width="0.5" d="M93.8 228.3 h44.6 v72.6 h-44.6 v-72.6Z"/><text x="116.04166666666666" y="264.59999999999997" fill="#ffffff" font-family="Arial" font-size="11" text-anchor="middle" dominant-baseline="central">14</text><path fill="#816a60" stroke="#CCCCCC" stroke-width="0.5" d="M140.2 228.3 h44.6 v72.6 h-44.6 v-72.6Z"/><text x="162.45833333333334" y="264.59999999999997" fill="#ffffff" font-family="Arial" font-size="11" text-anchor="middle" dominant-baseline="central">20</text><path fill="#9c6c50" stroke="#CCCCCC" stroke-width="0.5" d="M186.6 228.3 h44.6 v72.6 h-44.6 v-72.6Z"/><text x="208.875" y="264.59999999999997" fill="#ffffff" font-family="Arial" font-size="11" text-anchor="middle" dominant-baseline="central">26</text><path fill="#b66e3f" stroke="#CCCCCC" stroke-width="0.5" d="M233.0 228.3 h44.6 v72.6 h-44.6 v-72.6Z"/><text x="255.29166666666666" y="264.59999999999997" fill="#ffffff" font-family="Arial" font-size="11" text-anchor="middle" dominant-baseline="central">32</text><path fill="#c46f37" stroke="#CCCCCC" stroke-width="0.5" d="M279.4 228.3 h44.6 v72.6 h-44.6 v-72.6Z"/><text x="301.7083333333333" y="264.59999999999997" fill="#ffffff" font-family="Arial" font-size="11" text-anchor="middle" dominant-baseline="central">35</text><path fill="#bf6e3a" stroke="#CCCCCC" stroke-width="0.5" d="M325.8 228.3 h44.6 v72.6 h-44.6 v-72.6Z"/><text x="348.12499999999994" y="264.59999999999997" fill="#ffffff" font-family="Arial" font-size="11" text-anchor="middle" dominant-baseline="central">34</text><path fill="#a96d47" stroke="#CCCCCC" stroke-width="0.5" d="M372.3 228.3 h44.6 v72.6 h-44.6 v-72.6Z"/><text x="394.54166666666663" y="264.59999999999997" fill="#ffffff" font-family="Arial" font-size="11" text-anchor="middle" dominant-baseline="central">29</text><path fill="#8a6a5b" stroke="#CCCCCC" stroke-width="0.5" d="M418.7 228.3 h44.6 v72.6 h-44.6 v-72.6Z"/><text x="440.9583333333333" y="264.59999999999997" fill="#ffffff" font-family="Arial" font-size="11" text-anchor="middle" dominant-baseline="central">22</text><path fill="#676871" stroke="#CCCCCC" stroke-width="0.5" d="M465.1 228.3 h44.6 v72.6 h-44.6 v-72.6Z"/><text x="487.37499999999994" y="264.59999999999997" fill="#ffffff" font-family="Arial" font-size="11" text-anchor="middle" dominant-baseline="central">14</text><path fill="#486585" stroke="#CCCCCC" stroke-width="0.5" d="M511.5 228.3 h44.6 v72.6 h-44.6 v-72.6Z"/><text x="533.7916666666666" y="264.59999999999997" fill="#ffffff" font-family="Arial" font-size="11" text-anchor="middle" dominant-baseline="central">7</text><path fill="#21639e" stroke="#CCCCCC" stroke-width="0.5" d="M0.9 303.9 h44.6 v72.6 h-44.6 v-72.6Z"/><text x="23.208333333333332" y="340.2" fill="#ffffff" font-family="Arial" font-size="11" text-anchor="middle" dominant-baseline="central">-2</text><path fill="#326492" stroke="#CCCCCC" stroke-width="0.5" d="M47.3 303.9 h44.6 v72.6 h-44.6 v-72.6Z"/><text x="69.625" y="340.2" fill="#ffffff" font-family="Arial" font-size="11" text-anchor="middle" dominant-baseline="central">2</text><path fill="#55667c" stroke="#CCCCCC" stroke-width="0.5" d="M93.8 303.9 h44.6 v72.6 h-44.6 v-72.6Z"/><text x="116.04166666666666" y="340.2" fill="#ffffff" font-family="Arial" font-size="11" text-anchor="middle" dominant-baseline="central">10</text><path fill="#796966" stroke="#CCCCCC" stroke-width="0.5" d="M140.2 303.9 h44.6 v72.6 h-44.6 v-72.6Z"/><text x="162.45833333333334" y="340.2" fill="#ffffff" font-family="Arial" font-size="11" text-anchor="middle" dominant-baseline="central">18</text><path fill="#986b53" stroke="#CCCCCC" stroke-width="0.5" d="M186.6 303.9 h44.6 v72.6 h-44.6 v-72.6Z"/><text x="208.875" y="340.2" fill="#ffffff" font-family="Arial" font-size="11" text-anchor="middle" dominant-baseline="central">25</text><path fill="#b26d42" stroke="#CCCCCC" stroke-width="0.5" d="M233.0 303.9 h44.6 v72.6 h-44.6 v-72.6Z"/><text x="255.29166666666666" y="340.2" fill="#ffffff" font-family="Arial" font-size="11" text-anchor="middle" dominant-baseline="central">31</text><path fill="#bf6e3a" stroke="#CCCCCC" stroke-width="0.5" d="M279.4 303.9 h44.6 v72.6 h-44.6 v-72.6Z"/><text x="301.7083333333333" y="340.2" fill="#ffffff" font-family="Arial" font-size="11" text-anchor="middle" dominant-baseline="central">34</text><path fill="#bb6e3c" stroke="#CCCCCC" stroke-width="0.5" d="M325.8 303.9 h44.6 v72.6 h-44.6 v-72.6Z"/><text x="348.12499999999994" y="340.2" fill="#ffffff" font-family="Arial" font-size="11" text-anchor="middle" dominant-baseline="central">33</text><path fill="#a06c4d" stroke="#CCCCCC" stroke-width="0.5" d="M372.3 303.9 h44.6 v72.6 h-44.6 v-72.6Z"/><text x="394.54166666666663" y="340.2" fill="#ffffff" font-family="Arial" font-size="11" text-anchor="middle" dominant-baseline="central">27</text><path fill="#7d6963" stroke="#CCCCCC" stroke-width="0.5" d="M418.7 303.9 h44.6 v72.6 h-44.6 v-72.6Z"/><text x="440.9583333333333" y="340.2" fill="#ffffff" font-family="Arial" font-size="11" text-anchor="middle" dominant-baseline="central">19</text><path fill="#55667c" stroke="#CCCCCC" stroke-width="0.5" d="M465.1 303.9 h44.6 v72.6 h-44.6 v-72.6Z"/><text x="487.37499999999994" y="340.2" fill="#ffffff" font-family="Arial" font-size="11" text-anchor="middle" dominant-baseline="central">10</text><path fill="#376490" stroke="#CCCCCC" stroke-width="0.5" d="M511.5 303.9 h44.6 v72.6 h-44.6 v-72.6Z"/><text x="533.7916666666666" y="340.2" fill="#ffffff" font-family="Arial" font-size="11" text-anchor="middle" dominant-baseline="central">3</text><text x="23.208333333333332" y="-3.024" fill="#444444" font-family="Arial" font-size="11" text-anchor="middle" dominant-baseline="bottom">Jan</text><text x="69.625" y="-3.024" fill="#444444" font-family="Arial" font-size="11" text-anchor="middle" dominant-baseline="bottom">Feb</text><text x="116.04166666666666" y="-3.024" fill="#444444" font-family="Arial" font-size="11" text-anchor="middle" dominant-baseline="bottom">Mar</text><text x="162.45833333333334" y="-3.024" fill="#444444" font-family="Arial" font-size="11" text-anchor="middle" dominant-baseline="bottom">Apr</text><text x="208.875" y="-3.024" fill="#444444" font-family="Arial" font-size="11" text-anchor="middle" dominant-baseline="bottom">May</text><text x="255.29166666666666" y="-3.024" fill="#444444" font-family="Arial" font-size="11" text-anchor="middle" dominant-baseline="bottom">Jun</text><text x="301.7083333333333" y="-3.024" fill="#444444" font-family="Arial" font-size="11" text-anchor="middle" dominant-baseline="bottom">Jul</text><text x="348.12499999999994" y="-3.024" fill="#444444" font-family="Arial" font-size="11" text-anchor="middle" dominant-baseline="bottom">Aug</text><text x="394.54166666666663" y="-3.024" fill="#444444" font-family="Arial" font-size="11" text-anchor="middle" dominant-baseline="bottom">Sep</text><text x="440.9583333333333" y="-3.024" fill="#444444" font-family="Arial" font-size="11" text-anchor="middle" dominant-baseline="bottom">Oct</text><text x="487.37499999999994" y="-3.024" fill="#444444" font-family="Arial" font-size="11" text-anchor="middle" dominant-baseline="bottom">Nov</text><text x="533.7916666666666" y="-3.024" fill="#444444" font-family="Arial" font-size="11" text-anchor="middle" dominant-baseline="bottom">Dec</text><text x="-1.8566666666666667" y="37.8" fill="#444444" font-family="Arial" font-size="11" text-anchor="end" dominant-baseline="central">Dubai</text><text x="-1.8566666666666667" y="113.39999999999999" fill="#444444" font-family="Arial" font-size="11" text-anchor="end" dominant-baseline="central">Sydney</text><text x="-1.8566666666666667" y="189.0" fill="#444444" font-family="Arial" font-size="11" text-anchor="end" dominant-baseline="central">Tokyo</text><text x="-1.8566666666666667" y="264.59999999999997" fill="#444444" font-family="Arial" font-size="11" text-anchor="end" dominant-baseline="central">Berlin</text><text x="-1.8566666666666667" y="340.2" fill="#444444" font-family="Arial" font-size="11" text-anchor="end" dominant-baseline="central">Moscow</text><path fill="#21639e" d="M567.0 0.0 h20 v19.9 h-20 v-19.9Z"/><path fill="#2c6396" d="M567.0 18.9 h20 v19.9 h-20 v-19.9Z"/><path fill="#37648f" d="M567.0 37.8 h20 v19.9 h-20 v-19.9Z"/><path fill="#436588" d="M567.0 56.7 h20 v19.9 h-20 v-19.9Z"/><path fill="#4e6681" d="M567.0 75.6 h20 v19.9 h-20 v-19.9Z"/><path fill="#59677a" d="M567.0 94.5 h20 v19.9 h-20 v-19.9Z"/><path fill="#656873" d="M567.0 113.4 h20 v19.9 h-20 v-19.9Z"/><path fill="#70686b" d="M567.0 132.3 h20 v19.9 h-20 v-19.9Z"/><path fill="#7b6964" d="M567.0 151.2 h20 v19.9 h-20 v-19.9Z"/><path fill="#876a5d" d="M567.0 170.1 h20 v19.9 h-20 v-19.9Z"/><path fill="#926b56" d="M567.0 189.0 h20 v19.9 h-20 v-19.9Z"/><path fill="#9e6c4f" d="M567.0 207.9 h20 v19.9 h-20 v-19.9Z"/><path fill="#a96d48" d="M567.0 226.8 h20 v19.9 h-20 v-19.9Z"/><path fill="#b46d40" d="M567.0 245.7 h20 v19.9 h-20 v-19.9Z"/><path fill="#c06e39" d="M567.0 264.6 h20 v19.9 h-20 v-19.9Z"/><path fill="#cb6f32" d="M567.0 283.5 h20 v19.9 h-20 v-19.9Z"/><path fill="#d6702b" d="M567.0 302.4 h20 v19.9 h-20 v-19.9Z"/><path fill="#e27124" d="M567.0 321.3 h20 v19.9 h-20 v-19.9Z"/><path fill="#ed721d" d="M567.0 340.2 h20 v19.9 h-20 v-19.9Z"/><path fill="#f97316" d="M567.0 359.1 h20 v19.9 h-20 v-19.9Z"/><text x="577.0" y="378.0" fill="#444444" font-family="Arial" font-size="11" text-anchor="middle">-2</text><text x="577.0" y="0" fill="#444444" font-family="Arial" font-size="11" text-anchor="middle" dominant-baseline="bottom">47</text><path stroke="#CCCCCC" stroke-dasharray="None" d="M0 378.0 h557.0"/><path stroke="#CCCCCC" stroke-dasharray="None" d="M0 0 h557.0"/><path stroke="#CCCCCC" stroke-dasharray="None" d="M0 0 v378.0"/><path stroke="#CCCCCC" stroke-dasharray="None" d="M557.0 0 v378.0"/></g></svg>