<svg xmlns="http://www.w3.org/2000/svg" width="600" height="400" viewBox="0 0 600 400"><path fill="#FFFFFF" d="M0 0 h600 v400 h-600 v-400Z"/><text transform="translate(0, 16.0)" fill="#444444" font-family="Roboto" font-weight="normal" font-size="16" text-anchor="middle" x="322.5" y="10.0">Average Temperature (°C) — Monthly by City</text><g transform="translate(87.0, 44.0)"><path fill="#c46f37" stroke="#CCCCCC" stroke-width="0.5" d="M0.8 1.3 h37.7 v64.5 h-37.7 v-64.5Z"/><text x="19.625" y="33.6" fill="#ffffff" font-family="Roboto" font-size="11" text-anchor="middle" dominant-baseline="central">35</text><path fill="#c86f34" stroke="#CCCCCC" stroke-width="0.5" d="M40.0 1.3 h37.7 v64.5 h-37.7 v-64.5Z"/><text x="58.875" y="33.6" fill="#ffffff" font-family="Roboto" font-size="11" text-anchor="middle" dominant-baseline="central">36</text><path fill="#d1702e" stroke="#CCCCCC" stroke-width="0.5" d="M79.3 1.3 h37.7 v64.5 h-37.7 v-64.5Z"/><text x="98.125" y="33.6" fill="#000000" font-family="Roboto" font-size="11" text-anchor="middle" dominant-baseline="central">38</text><path fill="#da7029" stroke="#CCCCCC" stroke-width="0.5" d="M118.5 1.3 h37.7 v64.5 h-37.7 v-64.5Z"/><text x="137.375" y="33.6" fill="#000000" font-family="Roboto" font-size="11" text-anchor="middle" dominant-baseline="central">40</text><path fill="#e77121" stroke="#CCCCCC" stroke-width="0.5" d="M157.8 1.3 h37.7 v64.5 h-37.7 v-64.5Z"/><text x="176.625" y="33.6" fill="#000000" font-family="Roboto" font-size="11" text-anchor="middle" dominant-baseline="central">43</text><path fill="#f0721b" stroke="#CCCCCC" stroke-width="0.5" d="M197.0 1.3 h37.7 v64.5 h-37.7 v-64.5Z"/><text x="215.875" y="33.6" fill="#000000" font-family="Roboto" font-size="11" text-anchor="middle" dominant-baseline="central">45</text><path fill="#f97316" stroke="#CCCCCC" stroke-width="0.5" d="M236.3 1.3 h37.7 v64.5 h-37.7 v-64.5Z"/><text x="255.125" y="33.6" fill="#000000" font-family="Roboto" font-size="11" text-anchor="middle" dominant-baseline="central">47</text><path fill="#f47218" stroke="#CCCCCC" stroke-width="0.5" d="M275.5 1.3 h37.7 v64.5 h-37.7 v-64.5Z"/><text x="294.375" y="33.6" fill="#000000" font-family="Roboto" font-size="11" text-anchor="middle" dominant-baseline="central">46</text><path fill="#eb721e" stroke="#CCCCCC" stroke-width="0.5" d="M314.8 1.3 h37.7 v64.5 h-37.7 v-64.5Z"/><text x="333.625" y="33.6" fill="#000000" font-family="Roboto" font-size="11" text-anchor="middle" dominant-baseline="central">44</text><path fill="#de7126" stroke="#CCCCCC" stroke-width="0.5" d="M354.0 1.3 h37.7 v64.5 h-37.7 v-64.5Z"/><text x="372.875" y="33.6" fill="#000000" font-family="Roboto" font-size="11" text-anchor="middle" dominant-baseline="central">41</text><path fill="#d1702e" stroke="#CCCCCC" stroke-width="0.5" d="M393.3 1.3 h37.7 v64.5 h-37.7 v-64.5Z"/><text x="412.125" y="33.6" fill="#000000" font-family="Roboto" font-size="11" text-anchor="middle" dominant-baseline="central">38</text><path fill="#c86f34" stroke="#CCCCCC" stroke-width="0.5" d="M432.5 1.3 h37.7 v64.5 h-37.7 v-64.5Z"/><text x="451.375" y="33.6" fill="#ffffff" font-family="Roboto" font-size="11" text-anchor="middle" dominant-baseline="central">36</text><path fill="#8a6a5b" stroke="#CCCCCC" stroke-width="0.5" d="M0.8 68.5 h37.7 v64.5 h-37.7 v-64.5Z"/><text x="19.625" y="100.8" fill="#ffffff" font-family="Roboto" font-size="11" text-anchor="middle" dominant-baseline="central">22</text><path fill="#936b55" stroke="#CCCCCC" stroke-width="0.5" d="M40.0 68.5 h37.7 v64.5 h-37.7 v-64.5Z"/><text x="58.875" y="100.8" fill="#ffffff" font-family="Roboto" font-size="11" text-anchor="middle" dominant-baseline="central">24</text><path fill="#a56c4a" stroke="#CCCCCC" stroke-width="0.5" d="M79.3 68.5 h37.7 v64.5 h-37.7 v-64.5Z"/><text x="98.125" y="100.8" fill="#ffffff" font-family="Roboto" font-size="11" text-anchor="middle" dominant-baseline="central">28</text><path fill="#b66e3f" stroke="#CCCCCC" stroke-width="0.5" d="M118.5 68.5 h37.7 v64.5 h-37.7 v-64.5Z"/><text x="137.375" y="100.8" fill="#ffffff" font-family="Roboto" font-size="11" text-anchor="middle" dominant-baseline="central">32</text><path fill="#c86f34" stroke="#CCCCCC" stroke-width="0.5" d="M157.8 68.5 h37.7 v64.5 h-37.7 v-64.5Z"/><text x="176.625" y="100.8" fill="#ffffff" font-family="Roboto" font-size="11" text-anchor="middle" dominant-baseline="central">36</text><path fill="#da7029" stroke="#CCCCCC" stroke-width="0.5" d="M197.0 68.5 h37.7 v64.5 h-37.7 v-64.5Z"/><text x="215.875" y="100.8" fill="#000000" font-family="Roboto" font-size="11" text-anchor="middle" dominant-baseline="central">40</text><path fill="#e27123" stroke="#CCCCCC" stroke-width="0.5" d="M236.3 68.5 h37.7 v64.5 h-37.7 v-64.5Z"/><text x="255.125" y="100.8" fill="#000000" font-family="Roboto" font-size="11" text-anchor="middle" dominant-baseline="central">42</text><path fill="#de7126" stroke="#CCCCCC" stroke-width="0.5" d="M275.5 68.5 h37.7 v64.5 h-37.7 v-64.5Z"/><text x="294.375" y="100.8" fill="#000000" font-family="Roboto" font-size="11" text-anchor="middle" dominant-baseline="central">41</text><path fill="#d1702e" stroke="#CCCCCC" stroke-width="0.5" d="M314.8 68.5 h37.7 v64.5 h-37.7 v-64.5Z"/><text x="333.625" y="100.8" fill="#000000" font-family="Roboto" font-size="11" text-anchor="middle" dominant-baseline="central">38</text><path fill="#bb6e3c" stroke="#CCCCCC" stroke-width="0.5" d="M354.0 68.5 h37.7 v64.5 h-37.7 v-64.5Z"/><text x="372.875" y="100.8" fill="#ffffff" font-family="Roboto" font-size="11" text-anchor="middle" dominant-baseline="central">33</text><path fill="#a06c4d" stroke="#CCCCCC" stroke-width="0.5" d="M393.3 68.5 h37.7 v64.5 h-37.7 v-64.5Z"/><text x="412.125" y="100.8" fill="#ffffff" font-family="Roboto" font-size="11" text-anchor="middle" dominant-baseline="central">27</text><path fill="#8f6b58" stroke="#CCCCCC" stroke-width="0.5" d="M432.5 68.5 h37.7 v64.5 h-37.7 v-64.5Z"/><text x="451.375" y="100.8" fill="#ffffff" font-family="Roboto" font-size="11" text-anchor="middle" dominant-baseline="central">23</text><path fill="#6b686e" stroke="#CCCCCC" stroke-width="0.5" d="M0.8 135.7 h37.7 v64.5 h-37.7 v-64.5Z"/><text x="19.625" y="168.0" fill="#ffffff" font-family="Roboto" font-size="11" text-anchor="middle" dominant-baseline="central">15</text><path fill="#796966" stroke="#CCCCCC" stroke-width="0.5" d="M40.0 135.7 h37.7 v64.5 h-37.7 v-64.5Z"/><text x="58.875" y="168.0" fill="#ffffff" font-family="Roboto" font-size="11" text-anchor="middle" dominant-baseline="central">18</text><path fill="#8a6a5b" stroke="#CCCCCC" stroke-width="0.5" d="M79.3 135.7 h37.7 v64.5 h-37.7 v-64.5Z"/><text x="98.125" y="168.0" fill="#ffffff" font-family="Roboto" font-size="11" text-anchor="middle" dominant-baseline="central">22</text><path fill="#a06c4d" stroke="#CCCCCC" stroke-width="0.5" d="M118.5 135.7 h37.7 v64.5 h-37.7 v-64.5Z"/><text x="137.375" y="168.0" fill="#ffffff" font-family="Roboto" font-size="11" text-anchor="middle" dominant-baseline="central">27</text><path fill="#b66e3f" stroke="#CCCCCC" stroke-width="0.5" d="M157.8 135.7 h37.7 v64.5 h-37.7 v-64.5Z"/><text x="176.625" y="168.0" fill="#ffffff" font-family="Roboto" font-size="11" text-anchor="middle" dominant-baseline="central">32</text><path fill="#cc6f31" stroke="#CCCCCC" stroke-width="0.5" d="M197.0 135.7 h37.7 v64.5 h-37.7 v-64.5Z"/><text x="215.875" y="168.0" fill="#ffffff" font-family="Roboto" font-size="11" text-anchor="middle" dominant-baseline="central">37</text><path fill="#da7029" stroke="#CCCCCC" stroke-width="0.5" d="M236.3 135.7 h37.7 v64.5 h-37.7 v-64.5Z"/><text x="255.125" y="168.0" fill="#000000" font-family="Roboto" font-size="11" text-anchor="middle" dominant-baseline="central">40</text><path fill="#d5702c" stroke="#CCCCCC" stroke-width="0.5" d="M275.5 135.7 h37.7 v64.5 h-37.7 v-64.5Z"/><text x="294.375" y="168.0" fill="#000000" font-family="Roboto" font-size="11" text-anchor="middle" dominant-baseline="central">39</text><path fill="#c46f37" stroke="#CCCCCC" stroke-width="0.5" d="M314.8 135.7 h37.7 v64.5 h-37.7 v-64.5Z"/><text x="333.625" y="168.0" fill="#ffffff" font-family="Roboto" font-size="11" text-anchor="middle" dominant-baseline="central">35</text><path fill="#a96d47" stroke="#CCCCCC" stroke-width="0.5" d="M354.0 135.7 h37.7 v64.5 h-37.7 v-64.5Z"/><text x="372.875" y="168.0" fill="#ffffff" font-family="Roboto" font-size="11" text-anchor="middle" dominant-baseline="central">29</text><path fill="#8a6a5b" stroke="#CCCCCC" stroke-width="0.5" d="M393.3 135.7 h37.7 v64.5 h-37.7 v-64.5Z"/><text x="412.125" y="168.0" fill="#ffffff" font-family="Roboto" font-size="11" text-anchor="middle" dominant-baseline="central">22</text><path fill="#746969" stroke="#CCCCCC" stroke-width="0.5" d="M432.5 135.7 h37.7 v64.5 h-37.7 v-64.5Z"/><text x="451.375" y="168.0" fill="#ffffff" font-family="Roboto" font-size="11" text-anchor="middle" dominant-baseline="central">17</text><path fill="#3f658a" stroke="#CCCCCC" stroke-width="0.5" d="M0.8 202.9 h37.7 v64.5 h-37.7 v-64.5Z"/><text x="19.625" y="235.20000000000002" fill="#ffffff" font-family="Roboto" font-size="11" text-anchor="middle" dominant-baseline="central">5</text><path fill="#4d6682" stroke="#CCCCCC" stroke-width="0.5" d="M40.0 202.9 h37.7 v64.5 h-37.7 v-64.5Z"/><text x="58.875" y="235.20000000000002" fill="#ffffff" font-family="Roboto" font-size="11" text-anchor="middle" dominant-baseline="central">8</text><path fill="#676871" stroke="#CCCCCC" stroke-width="0.5" d="M79.3 202.9 h37.7 v64.5 h-37.7 v-64.5Z"/><text x="98.125" y="235.20000000000002" fill="#ffffff" font-family="Roboto" font-size="11" text-anchor="middle" dominant-baseline="central">14</text><path fill="#816a60" stroke="#CCCCCC" stroke-width="0.5" d="M118.5 202.9 h37.7 v64.5 h-37.7 v-64.5Z"/><text x="137.375" y="235.20000000000002" fill="#ffffff" font-family="Roboto" font-size="11" text-anchor="middle" dominant-baseline="central">20</text><path fill="#9c6c50" stroke="#CCCCCC" stroke-width="0.5" d="M157.8 202.9 h37.7 v64.5 h-37.7 v-64.5Z"/><text x="176.625" y="235.20000000000002" fill="#ffffff" font-family="Roboto" font-size="11" text-anchor="middle" dominant-baseline="central">26</text><path fill="#b66e3f" stroke="#CCCCCC" stroke-width="0.5" d="M197.0 202.9 h37.7 v64.5 h-37.7 v-64.5Z"/><text x="215.875" y="235.20000000000002" fill="#ffffff" font-family="Roboto" font-size="11" text-anchor="middle" dominant-baseline="central">32</text><path fill="#c46f37" stroke="#CCCCCC" stroke-width="0.5" d="M236.3 202.9 h37.7 v64.5 h-37.7 v-64.5Z"/><text x="255.125" y="235.20000000000002" fill="#ffffff" font-family="Roboto" font-size="11" text-anchor="middle" dominant-baseline="central">35</text><path fill="#bf6e3a" stroke="#CCCCCC" stroke-width="0.5" d="M275.5 202.9 h37.7 v64.5 h-37.7 v-64.5Z"/><text x="294.375" y="235.20000000000002" fill="#ffffff" font-family="Roboto" font-size="11" text-anchor="middle" dominant-baseline="central">34</text><path fill="#a96d47" stroke="#CCCCCC" stroke-width="0.5" d="M314.8 202.9 h37.7 v64.5 h-37.7 v-64.5Z"/><text x="333.625" y="235.20000000000002" fill="#ffffff" font-family="Roboto" font-size="11" text-anchor="middle" dominant-baseline="central">29</text><path fill="#8a6a5b" stroke="#CCCCCC" stroke-width="0.5" d="M354.0 202.9 h37.7 v64.5 h-37.7 v-64.5Z"/><text x="372.875" y="235.20000000000002" fill="#ffffff" font-family="Roboto" font-size="11" text-anchor="middle" dominant-baseline="central">22</text><path fill="#676871" stroke="#CCCCCC" stroke-width="0.5" d="M393.3 202.9 h37.7 v64.5 h-37.7 v-64.5Z"/><text x="412.125" y="235.20000000000002" fill="#ffffff" font-family="Roboto" font-size="11" text-anchor="middle" dominant-baseline="central">14</text><path fill="#486585" stroke="#CCCCCC" stroke-width="0.5" d="M432.5 202.9 h37.7 v64.5 h-37.7 v-64.5Z"/><text x="451.375" y="235.20000000000002" fill="#ffffff" font-family="Roboto" font-size="11" text-anchor="middle" dominant-baseline="central">7</text><path fill="#21639e" stroke="#CCCCCC" stroke-width="0.5" d="M0.8 270.1 h37.7 v64.5 h-37.7 v-64.5Z"/><text x="19.625" y="302.4" fill="#ffffff" font-family="Roboto" font-size="11" text-anchor="middle" dominant-baseline="central">-2</text><path fill="#326492" stroke="#CCCCCC" stroke-width="0.5" d="M40.0 270.1 h37.7 v64.5 h-37.7 v-64.5Z"/><text x="58.875" y="302.4" fill="#ffffff" font-family="Roboto" font-size="11" text-anchor="middle" dominant-baseline="central">2</text><path fill="#55667c" stroke="#CCCCCC" stroke-width="0.5" d="M79.3 270.1 h37.7 v64.5 h-37.7 v-64.5Z"/><text x="98.125" y="302.4" fill="#ffffff" font-family="Roboto" font-size="11" text-anchor="middle" dominant-baseline="central">10</text><path fill="#796966" stroke="#CCCCCC" stroke-width="0.5" d="M118.5 270.1 h37.7 v64.5 h-37.7 v-64.5Z"/><text x="137.375" y="302.4" fill="#ffffff" font-family="Roboto" font-size="11" text-anchor="middle" dominant-baseline="central">18</text><path fill="#986b53" stroke="#CCCCCC" stroke-width="0.5" d="M157.8 270.1 h37.7 v64.5 h-37.7 v-64.5Z"/><text x="176.625" y="302.4" fill="#ffffff" font-family="Roboto" font-size="11" text-anchor="middle" dominant-baseline="central">25</text><path fill="#b26d42" stroke="#CCCCCC" stroke-width="0.5" d="M197.0 270.1 h37.7 v64.5 h-37.7 v-64.5Z"/><text x="215.875" y="302.4" fill="#ffffff" font-family="Roboto" font-size="11" text-anchor="middle" dominant-baseline="central">31</text><path fill="#bf6e3a" stroke="#CCCCCC" stroke-width="0.5" d="M236.3 270.1 h37.7 v64.5 h-37.7 v-64.5Z"/><text x="255.125" y="302.4" fill="#ffffff" font-family="Roboto" font-size="11" text-anchor="middle" dominant-baseline="central">34</text><path fill="#bb6e3c" stroke="#CCCCCC" stroke-width="0.5" d="M275.5 270.1 h37.7 v64.5 h-37.7 v-64.5Z"/><text x="294.375" y="302.4" fill="#ffffff" font-family="Roboto" font-size="11" text-anchor="middle" dominant-baseline="central">33</text><path fill="#a06c4d" stroke="#CCCCCC" stroke-width="0.5" d="M314.8 270.1 h37.7 v64.5 h-37.7 v-64.5Z"/><text x="333.625" y="302.4" fill="#ffffff" font-family="Roboto" font-size="11" text-anchor="middle" dominant-baseline="central">27</text><path fill="#7d6963" stroke="#CCCCCC" stroke-width="0.5" d="M354.0 270.1 h37.7 v64.5 h-37.7 v-64.5Z"/><text x="372.875" y="302.4" fill="#ffffff" font-family="Roboto" font-size="11" text-anchor="middle" dominant-baseline="central">19</text><path fill="#55667c" stroke="#CCCCCC" stroke-width="0.5" d="M393.3 270.1 h37.7 v64.5 h-37.7 v-64.5Z"/><text x="412.125" y="302.4" fill="#ffffff" font-family="Roboto" font-size="11" text-anchor="middle" dominant-baseline="central">10</text><path fill="#376490" stroke="#CCCCCC" stroke-width="0.5" d="M432.5 270.1 h37.7 v64.5 h-37.7 v-64.5Z"/><text x="451.375" y="302.4" fill="#ffffff" font-family="Roboto" font-size="11" text-anchor="middle" dominant-baseline="central">3</text><text x="19.625" y="-2.688" fill="#444444" font-family="Roboto" font-size="11" text-anchor="middle" dominant-baseline="bottom">Jan</text><text x="58.875" y="-2.688" fill="#444444" font-family="Roboto" font-size="11" text-anchor="middle" dominant-baseline="bottom">Feb</text><text x="98.125" y="-2.688" fill="#444444" font-family="Roboto" font-size="11" text-anchor="middle" dominant-baseline="bottom">Mar</text><text x="137.375" y="-2.688" fill="#444444" font-family="Roboto" font-size="11" text-anchor="middle" dominant-baseline="bottom">Apr</text><text x="176.625" y="-2.688" fill="#444444" font-family="Roboto" font-size="11" text-anchor="middle" dominant-baseline="bottom">May</text><text x="215.875" y="-2.688" fill="#444444" font-family="Roboto" font-size="11" text-anchor="middle" dominant-baseline="bottom">Jun</text><text x="255.125" y="-2.688" fill="#444444" font-family="Roboto" font-size="11" text-anchor="middle" dominant-baseline="bottom">Jul</text><text x="294.375" y="-2.688" fill="#444444" font-family="Roboto" font-size="11" text-anchor="middle" dominant-baseline="bottom">Aug</text><text x="333.625" y="-2.688" fill="#444444" font-family="Roboto" font-size="11" text-anchor="middle" dominant-baseline="bottom">Sep</text><text x="372.875" y="-2.688" fill="#444444" font-family="Roboto" font-size="11" text-anchor="middle" dominant-baseline="bottom">Oct</text><text x="412.125" y="-2.688" fill="#444444" font-family="Roboto" font-size="11" text-anchor="middle" dominant-baseline="bottom">Nov</text><text x="451.375" y="-2.688" fill="#444444" font-family="Roboto" font-size="11" text-anchor="middle" dominant-baseline="bottom">Dec</text><text x="-1.57" y="33.6" fill="#444444" font-family="Roboto" font-size="11" text-anchor="end" dominant-baseline="central">Dubai</text><text x="-1.57" y="100.80000000000001" fill="#444444" font-family="Roboto" font-size="11" text-anchor="end" dominant-baseline="central">Sydney</text><text x="-1.57" y="168.0" fill="#444444" font-family="Roboto" font-size="11" text-anchor="end" dominant-baseline="central">Tokyo</text><text x="-1.57" y="235.20000000000002" fill="#444444" font-family="Roboto" font-size="11" text-anchor="end" dominant-baseline="central">Berlin</text><text x="-1.57" y="302.40000000000003" fill="#444444" font-family="Roboto" font-size="11" text-anchor="end" dominant-baseline="central">Moscow</text><path fill="#21639e" d="M481.0 0.0 h20 v17.8 h-20 v-17.8Z"/><path fill="#2c6396" d="M481.0 16.8 h20 v17.8 h-20 v-17.8Z"/><path fill="#37648f" d="M481.0 33.6 h20 v17.8 h-20 v-17.8Z"/><path fill="#436588" d="M481.0 50.4 h20 v17.8 h-20 v-17.8Z"/><path fill="#4e6681" d="M481.0 67.2 h20 v17.8 h-20 v-17.8Z"/><path fill="#59677a" d="M481.0 84.0 h20 v17.8 h-20 v-17.8Z"/><path fill="#656873" d="M481.0 100.8 h20 v17.8 h-20 v-17.8Z"/><path fill="#70686b" d="M481.0 117.6 h20 v17.8 h-20 v-17.8Z"/><path fill="#7b6964" d="M481.0 134.4 h20 v17.8 h-20 v-17.8Z"/><path fill="#876a5d" d="M481.0 151.2 h20 v17.8 h-20 v-17.8Z"/><path fill="#926b56" d="M481.0 168.0 h20 v17.8 h-20 v-17.8Z"/><path fill="#9e6c4f" d="M481.0 184.8 h20 v17.8 h-20 v-17.8Z"/><path fill="#a96d48" d="M481.0 201.6 h20 v17.8 h-20 v-17.8Z"/><path fill="#b46d40" d="M481.0 218.4 h20 v17.8 h-20 v-17.8Z"/><path fill="#c06e39" d="M481.0 235.2 h20 v17.8 h-20 v-17.8Z"/><path fill="#cb6f32" d="M481.0 252.0 h20 v17.8 h-20 v-17.8Z"/><path fill="#d6702b" d="M481.0 268.8 h20 v17.8 h-20 v-17.8Z"/><path fill="#e27124" d="M481.0 285.6 h20 v17.8 h-20 v-17.8Z"/><path fill="#ed721d" d="M481.0 302.4 h20 v17.8 h-20 v-17.8Z"/><path fill="#f97316" d="M481.0 319.2 h20 v17.8 h-20 v-17.8Z"/><text x="491.0" y="336.0" fill="#444444" font-family="Roboto" font-size="11" text-anchor="middle">-2</text><text x="491.0" y="0" fill="#444444" font-family="Roboto" font-size="11" text-anchor="middle" dominant-baseline="bottom">47</text><path stroke="#CCCCCC" stroke-dasharray="None" d="M0 336.0 h471.0"/><path stroke="#CCCCCC" stroke-dasharray="None" d="M0 0 h471.0"/><path stroke="#CCCCCC" stroke-dasharray="None" d="M0 0 v336.0"/><path stroke="#CCCCCC" stroke-dasharray="None" d="M471.0 0 v336.0"/></g></svg>