<svg xmlns="http://www.w3.org/2000/svg" width="700" height="400" viewBox="0 0 700 400"><path fill="#FFFFFF" d="M0 0 h700 v400 h-700 v-400Z"/><text transform="translate(-217.5, 18)" fill="#444444" font-family="Arial" font-weight="bold" font-size="16" x="350.0" y="10.0">Exam Scores — Normal Distribution (500 Students, 10 Bins)</text><defs><clipPath id="plot-clip"><rect x="0" y="0" width="630.0" height="333.0"/></clipPath></defs><g><path stroke="#cccccc" stroke-dasharray="None" d="M0 0.0 h630.0 M0 66.60000000000001 h630.0 M0 133.20000000000002 h630.0 M0 199.79999999999998 h630.0 M0 266.40000000000003 h630.0 M0 333.0 h630.0" transform="translate(35.0, 47.0)"/><g font-size="12" font-family="Arial" fill="#000000" transform="translate(29.0, 47.0)"><text x="0" y="0.0" transform="translate(-21, 3.5)">150</text><text x="0" y="66.60000000000001" transform="translate(-21, 3.5)">120</text><text x="0" y="133.20000000000002" transform="translate(-14, 3.5)">90</text><text x="0" y="199.79999999999998" transform="translate(-14, 3.5)">60</text><text x="0" y="266.40000000000003" transform="translate(-14, 3.5)">30</text><text x="0" y="333.0" transform="translate(-7, 3.5)">0</text></g></g><g><path stroke="#cccccc" stroke-dasharray="None" d="M0.0 0 v333.0 M52.5 0 v333.0 M105.0 0 v333.0 M157.5 0 v333.0 M210.0 0 v333.0 M262.5 0 v333.0 M315.0 0 v333.0 M367.5 0 v333.0 M420.0 0 v333.0 M472.5 0 v333.0 M525.0 0 v333.0 M577.5 0 v333.0 M630.0 0 v333.0" transform="translate(35.0, 47.0)"/><g font-size="12" font-family="Arial" fill="#000000" transform="translate(35.0, 65.0)"><text x="0.0" y="333.0" transform="translate(-2.0, 0)"> </text><text x="52.5" y="333.0" transform="translate(-12.5, 0)">10.7</text><text x="105.0" y="333.0" transform="translate(-12.5, 0)">19.6</text><text x="157.5" y="333.0" transform="translate(-12.5, 0)">28.6</text><text x="210.0" y="333.0" transform="translate(-12.5, 0)">37.5</text><text x="262.5" y="333.0" transform="translate(-12.5, 0)">46.4</text><text x="315.0" y="333.0" transform="translate(-12.5, 0)">55.3</text><text x="367.5" y="333.0" transform="translate(-12.5, 0)">64.3</text><text x="420.0" y="333.0" transform="translate(-12.5, 0)">73.2</text><text x="472.5" y="333.0" transform="translate(-12.5, 0)">82.1</text><text x="525.0" y="333.0" transform="translate(-12.5, 0)">91.0</text><text x="577.5" y="333.0" transform="translate(-16.0, 0)">100.0</text><text x="630.0" y="333.0" transform="translate(-2.0, 0)"> </text></g></g><g><rect x="87.5" y="357.8" width="52.5" height="22.2" fill="#5fab9e" fill-opacity="0.7" stroke="#5fab9e" stroke-width="0.5"/><rect x="140.0" y="317.84" width="52.5" height="62.160000000000004" fill="#5fab9e" fill-opacity="0.7" stroke="#5fab9e" stroke-width="0.5"/><rect x="192.5" y="271.22" width="52.5" height="108.78" fill="#5fab9e" fill-opacity="0.7" stroke="#5fab9e" stroke-width="0.5"/><rect x="245.0" y="153.55999999999997" width="52.5" height="226.44000000000003" fill="#5fab9e" fill-opacity="0.7" stroke="#5fab9e" stroke-width="0.5"/><rect x="297.5" y="102.5" width="52.5" height="277.5" fill="#5fab9e" fill-opacity="0.7" stroke="#5fab9e" stroke-width="0.5"/><rect x="350.0" y="151.34" width="52.5" height="228.66" fill="#5fab9e" fill-opacity="0.7" stroke="#5fab9e" stroke-width="0.5"/><rect x="402.5" y="266.78" width="52.5" height="113.22000000000001" fill="#5fab9e" fill-opacity="0.7" stroke="#5fab9e" stroke-width="0.5"/><rect x="455.0" y="333.38" width="52.5" height="46.620000000000005" fill="#5fab9e" fill-opacity="0.7" stroke="#5fab9e" stroke-width="0.5"/><rect x="507.5" y="360.02" width="52.5" height="19.98" fill="#5fab9e" fill-opacity="0.7" stroke="#5fab9e" stroke-width="0.5"/><rect x="560.0" y="375.56" width="52.5" height="4.44" fill="#5fab9e" fill-opacity="0.7" stroke="#5fab9e" stroke-width="0.5"/></g><path d="M35.0 47.0 v333.0 M35.0 380.0 h630.0" stroke="#999" stroke-width="1.5" fill="none"/></svg>