<svg xmlns="http://www.w3.org/2000/svg" width="600" height="400" viewBox="0 0 600 400"><path fill="#FFFFFF" d="M0 0 h600 v400 h-600 v-400Z"/><text transform="translate(-247.0, 30)" fill="#444444" font-family="JetBrains Mono" font-weight="normal" font-size="16" x="300.0" y="10.0">Exam Score Distribution (500 Students)</text><defs><clipPath id="plot-clip"><rect x="0" y="0" width="540.0" height="315.0"/></clipPath></defs><g><path stroke="#CCCCCC" stroke-dasharray="None" d="M0 0.0 h540.0 M0 63.0 h540.0 M0 126.0 h540.0 M0 189.0 h540.0 M0 252.0 h540.0 M0 315.0 h540.0" transform="translate(30.0, 65.0)"/><g font-size="12" font-family="Arial" fill="#444444" transform="translate(24.0, 65.0)"><text x="0" y="0.0" transform="translate(-21, 3.5)">150</text><text x="0" y="63.0" transform="translate(-21, 3.5)">120</text><text x="0" y="126.0" transform="translate(-14, 3.5)">90</text><text x="0" y="189.0" transform="translate(-14, 3.5)">60</text><text x="0" y="252.0" transform="translate(-14, 3.5)">30</text><text x="0" y="315.0" transform="translate(-7, 3.5)">0</text></g></g><g><path stroke="#CCCCCC" stroke-dasharray="None" d="M0.0 0 v315.0 M45.0 0 v315.0 M90.0 0 v315.0 M135.0 0 v315.0 M180.0 0 v315.0 M225.0 0 v315.0 M270.0 0 v315.0 M315.0 0 v315.0 M360.0 0 v315.0 M405.0 0 v315.0 M450.0 0 v315.0 M495.0 0 v315.0 M540.0 0 v315.0" transform="translate(30.0, 65.0)"/><g font-size="12" font-family="Arial" fill="#444444" transform="translate(30.0, 83.0)"><text x="0.0" y="315.0" transform="translate(-2.0, 0)"> </text><text x="45.0" y="315.0" transform="translate(-12.5, 0)">10.7</text><text x="90.0" y="315.0" transform="translate(-12.5, 0)">19.6</text><text x="135.0" y="315.0" transform="translate(-12.5, 0)">28.6</text><text x="180.0" y="315.0" transform="translate(-12.5, 0)">37.5</text><text x="225.0" y="315.0" transform="translate(-12.5, 0)">46.4</text><text x="270.0" y="315.0" transform="translate(-12.5, 0)">55.3</text><text x="315.0" y="315.0" transform="translate(-12.5, 0)">64.3</text><text x="360.0" y="315.0" transform="translate(-12.5, 0)">73.2</text><text x="405.0" y="315.0" transform="translate(-12.5, 0)">82.1</text><text x="450.0" y="315.0" transform="translate(-12.5, 0)">91.0</text><text x="495.0" y="315.0" transform="translate(-16.0, 0)">100.0</text><text x="540.0" y="315.0" transform="translate(-2.0, 0)"> </text></g></g><g><rect x="75.0" y="359.0" width="45.0" height="21.0" fill="#5fab9e" fill-opacity="0.7" stroke="#5fab9e" stroke-width="0.5"/><rect x="120.0" y="321.2" width="45.0" height="58.800000000000004" fill="#5fab9e" fill-opacity="0.7" stroke="#5fab9e" stroke-width="0.5"/><rect x="165.0" y="277.1" width="45.0" height="102.89999999999999" fill="#5fab9e" fill-opacity="0.7" stroke="#5fab9e" stroke-width="0.5"/><rect x="210.0" y="165.79999999999998" width="45.0" height="214.20000000000002" fill="#5fab9e" fill-opacity="0.7" stroke="#5fab9e" stroke-width="0.5"/><rect x="255.0" y="117.5" width="45.0" height="262.5" fill="#5fab9e" fill-opacity="0.7" stroke="#5fab9e" stroke-width="0.5"/><rect x="300.0" y="163.70000000000002" width="45.0" height="216.29999999999998" fill="#5fab9e" fill-opacity="0.7" stroke="#5fab9e" stroke-width="0.5"/><rect x="345.0" y="272.9" width="45.0" height="107.10000000000001" fill="#5fab9e" fill-opacity="0.7" stroke="#5fab9e" stroke-width="0.5"/><rect x="390.0" y="335.9" width="45.0" height="44.1" fill="#5fab9e" fill-opacity="0.7" stroke="#5fab9e" stroke-width="0.5"/><rect x="435.0" y="361.1" width="45.0" height="18.9" fill="#5fab9e" fill-opacity="0.7" stroke="#5fab9e" stroke-width="0.5"/><rect x="480.0" y="375.8" width="45.0" height="4.2" fill="#5fab9e" fill-opacity="0.7" stroke="#5fab9e" stroke-width="0.5"/></g><path d="M30.0 65.0 v315.0 M30.0 380.0 h540.0" stroke="#999" stroke-width="1.5" fill="none"/></svg>