<svg xmlns="http://www.w3.org/2000/svg" width="600" height="400" viewBox="0 0 600 400"><path fill="#FFFFFF" d="M0 0 h600 v400 h-600 v-400Z"/><text transform="translate(-95.0, 16.0)" fill="#444444" font-family="Roboto" font-weight="normal" font-size="16" x="300.0" y="10.0">Exam Score Distribution (500 Students)</text><defs><clipPath id="plot-clip"><rect x="0" y="0" width="540.0" height="336.0"/></clipPath></defs><g><path stroke="#CCCCCC" stroke-dasharray="None" d="M0 0.0 h540.0 M0 67.2 h540.0 M0 134.4 h540.0 M0 201.6 h540.0 M0 268.8 h540.0 M0 336.0 h540.0" transform="translate(30.0, 44.0)"/><g font-size="12" font-family="Arial" fill="#444444" transform="translate(24.0, 44.0)"><text x="0" y="0.0" transform="translate(-21, 3.5)">150</text><text x="0" y="67.2" transform="translate(-21, 3.5)">120</text><text x="0" y="134.4" transform="translate(-14, 3.5)">90</text><text x="0" y="201.6" transform="translate(-14, 3.5)">60</text><text x="0" y="268.8" transform="translate(-14, 3.5)">30</text><text x="0" y="336.0" transform="translate(-7, 3.5)">0</text></g></g><g><path stroke="#CCCCCC" stroke-dasharray="None" d="M0.0 0 v336.0 M45.0 0 v336.0 M90.0 0 v336.0 M135.0 0 v336.0 M180.0 0 v336.0 M225.0 0 v336.0 M270.0 0 v336.0 M315.0 0 v336.0 M360.0 0 v336.0 M405.0 0 v336.0 M450.0 0 v336.0 M495.0 0 v336.0 M540.0 0 v336.0" transform="translate(30.0, 44.0)"/><g font-size="12" font-family="Arial" fill="#444444" transform="translate(30.0, 62.0)"><text x="0.0" y="336.0" transform="translate(-2.0, 0)"> </text><text x="45.0" y="336.0" transform="translate(-12.5, 0)">10.7</text><text x="90.0" y="336.0" transform="translate(-12.5, 0)">19.6</text><text x="135.0" y="336.0" transform="translate(-12.5, 0)">28.6</text><text x="180.0" y="336.0" transform="translate(-12.5, 0)">37.5</text><text x="225.0" y="336.0" transform="translate(-12.5, 0)">46.4</text><text x="270.0" y="336.0" transform="translate(-12.5, 0)">55.3</text><text x="315.0" y="336.0" transform="translate(-12.5, 0)">64.3</text><text x="360.0" y="336.0" transform="translate(-12.5, 0)">73.2</text><text x="405.0" y="336.0" transform="translate(-12.5, 0)">82.1</text><text x="450.0" y="336.0" transform="translate(-12.5, 0)">91.0</text><text x="495.0" y="336.0" transform="translate(-16.0, 0)">100.0</text><text x="540.0" y="336.0" transform="translate(-2.0, 0)"> </text></g></g><g><rect x="75.0" y="357.6" width="45.0" height="22.4" fill="#5fab9e" fill-opacity="0.7" stroke="#5fab9e" stroke-width="0.5"/><rect x="120.0" y="317.28" width="45.0" height="62.720000000000006" fill="#5fab9e" fill-opacity="0.7" stroke="#5fab9e" stroke-width="0.5"/><rect x="165.0" y="270.24" width="45.0" height="109.75999999999999" fill="#5fab9e" fill-opacity="0.7" stroke="#5fab9e" stroke-width="0.5"/><rect x="210.0" y="151.51999999999998" width="45.0" height="228.48000000000002" fill="#5fab9e" fill-opacity="0.7" stroke="#5fab9e" stroke-width="0.5"/><rect x="255.0" y="100.0" width="45.0" height="280.0" fill="#5fab9e" fill-opacity="0.7" stroke="#5fab9e" stroke-width="0.5"/><rect x="300.0" y="149.28" width="45.0" height="230.72" fill="#5fab9e" fill-opacity="0.7" stroke="#5fab9e" stroke-width="0.5"/><rect x="345.0" y="265.76" width="45.0" height="114.24000000000001" fill="#5fab9e" fill-opacity="0.7" stroke="#5fab9e" stroke-width="0.5"/><rect x="390.0" y="332.96" width="45.0" height="47.040000000000006" fill="#5fab9e" fill-opacity="0.7" stroke="#5fab9e" stroke-width="0.5"/><rect x="435.0" y="359.84" width="45.0" height="20.16" fill="#5fab9e" fill-opacity="0.7" stroke="#5fab9e" stroke-width="0.5"/><rect x="480.0" y="375.52" width="45.0" height="4.48" fill="#5fab9e" fill-opacity="0.7" stroke="#5fab9e" stroke-width="0.5"/></g><path d="M30.0 44.0 v336.0 M30.0 380.0 h540.0" stroke="#999" stroke-width="1.5" fill="none"/></svg>