<svg xmlns="http://www.w3.org/2000/svg" width="700" height="400" viewBox="0 0 700 400"><path fill="#FFFFFF" d="M0 0 h700 v400 h-700 v-400Z"/><text transform="translate(-92.0, 18)" fill="#444444" font-family="Arial" font-weight="bold" font-size="16" x="350.0" y="10.0">Monthly Active Users (K)</text><defs><clipPath id="plot-clip"><rect x="0" y="0" width="630.0" height="333.0"/></clipPath></defs><g><path stroke="#cccccc" stroke-dasharray="None" d="M0 0.0 h630.0 M0 66.60000000000001 h630.0 M0 133.20000000000002 h630.0 M0 199.79999999999998 h630.0 M0 266.40000000000003 h630.0 M0 333.0 h630.0" transform="translate(35.0, 47.0)"/><g font-size="12" font-family="Arial" fill="#000000" transform="translate(29.0, 47.0)"><text x="0" y="0.0" transform="translate(-21, 3.5)">100</text><text x="0" y="66.60000000000001" transform="translate(-14, 3.5)">80</text><text x="0" y="133.20000000000002" transform="translate(-14, 3.5)">60</text><text x="0" y="199.79999999999998" transform="translate(-14, 3.5)">40</text><text x="0" y="266.40000000000003" transform="translate(-14, 3.5)">20</text><text x="0" y="333.0" transform="translate(-7, 3.5)">0</text></g></g><g><path stroke="#cccccc" stroke-dasharray="None" d="M0.0 0 v333.0 M57.27272727272727 0 v333.0 M114.54545454545455 0 v333.0 M171.8181818181818 0 v333.0 M229.0909090909091 0 v333.0 M286.3636363636364 0 v333.0 M343.6363636363636 0 v333.0 M400.9090909090909 0 v333.0 M458.1818181818182 0 v333.0 M515.4545454545455 0 v333.0 M572.7272727272727 0 v333.0 M630.0 0 v333.0" transform="translate(35.0, 47.0)"/><g font-size="12" font-family="Arial" fill="#000000" transform="translate(35.0, 65.0)"><text x="0.0" y="333.0" transform="translate(-10.0, 0)">Jan</text><text x="57.27272727272727" y="333.0" transform="translate(-11.0, 0)">Feb</text><text x="114.54545454545455" y="333.0" transform="translate(-10.5, 0)">Mar</text><text x="171.8181818181818" y="333.0" transform="translate(-10.0, 0)">Apr</text><text x="229.0909090909091" y="333.0" transform="translate(-11.5, 0)">May</text><text x="286.3636363636364" y="333.0" transform="translate(-10.0, 0)">Jun</text><text x="343.6363636363636" y="333.0" transform="translate(-8.0, 0)">Jul</text><text x="400.9090909090909" y="333.0" transform="translate(-11.5, 0)">Aug</text><text x="458.1818181818182" y="333.0" transform="translate(-11.5, 0)">Sep</text><text x="515.4545454545455" y="333.0" transform="translate(-10.0, 0)">Oct</text><text x="572.7272727272727" y="333.0" transform="translate(-11.0, 0)">Nov</text><text x="630.0" y="333.0" transform="translate(-11.0, 0)">Dec</text></g></g><g opacity="0.8" transform="translate(-35.0, -20.0) rotate(180, 350.0, 200.0) scale(-1, 1) translate(-630.0, 0)"><g fill="white" stroke="#5fab9e" stroke-width="2"><path d="M0.0 139.9 L57.3 159.8 L114.5 183.2 L171.8 203.1 L229.1 193.1 L286.4 233.1 L343.6 266.4 L400.9 259.7 L458.2 283.1 L515.5 306.4 L572.7 293.0 L630.0 333.0" fill="none"/></g></g><g><rect transform="translate(-3.0, -1.2)" x="618.0" y="52.2" width="46.0" height="18.4" fill="#f5f5f5" fill-opacity="0.85" stroke="none"/><g><rect y="54.2" x="618.0" width="12" height="12" fill="#5fab9e"/><text y="63.2" x="632.0" font-size="12" font-family="Arial" fill="#444444">MAU</text></g></g><path d="M35.0 47.0 v333.0 M35.0 380.0 h630.0" stroke="#999" stroke-width="1.5" fill="none"/></svg>