<svg xmlns="http://www.w3.org/2000/svg" width="700" height="400" viewBox="0 0 700 400"><path fill="#FFFFFF" d="M0 0 h700 v400 h-700 v-400Z"/><text transform="translate(-65.0, 18)" fill="#444444" font-family="Arial" font-weight="bold" font-size="16" x="350.0" y="10.0">Step interpolation</text><defs><clipPath id="plot-clip"><rect x="0" y="0" width="630.0" height="333.0"/></clipPath></defs><g><path stroke="#cccccc" stroke-dasharray="None" d="M0 0.0 h630.0 M0 66.60000000000001 h630.0 M0 133.20000000000002 h630.0 M0 199.79999999999998 h630.0 M0 266.40000000000003 h630.0 M0 333.0 h630.0" transform="translate(35.0, 47.0)"/><g font-size="12" font-family="Arial" fill="#000000" transform="translate(29.0, 47.0)"><text x="0" y="0.0" transform="translate(-14, 3.5)">60</text><text x="0" y="66.60000000000001" transform="translate(-14, 3.5)">48</text><text x="0" y="133.20000000000002" transform="translate(-14, 3.5)">36</text><text x="0" y="199.79999999999998" transform="translate(-14, 3.5)">24</text><text x="0" y="266.40000000000003" transform="translate(-14, 3.5)">12</text><text x="0" y="333.0" transform="translate(-7, 3.5)">0</text></g></g><g><path stroke="#cccccc" stroke-dasharray="None" d="M0.0 0 v333.0 M126.0 0 v333.0 M252.0 0 v333.0 M378.0 0 v333.0 M504.0 0 v333.0 M630.0 0 v333.0" transform="translate(35.0, 47.0)"/><g font-size="12" font-family="Arial" fill="#000000" transform="translate(35.0, 65.0)"><text x="0.0" y="333.0" transform="translate(-4.5, 0)">A</text><text x="126.0" y="333.0" transform="translate(-4.5, 0)">B</text><text x="252.0" y="333.0" transform="translate(-4.5, 0)">C</text><text x="378.0" y="333.0" transform="translate(-4.5, 0)">D</text><text x="504.0" y="333.0" transform="translate(-4.5, 0)">E</text><text x="630.0" y="333.0" transform="translate(-4.0, 0)">F</text></g></g><g opacity="0.8" transform="translate(-35.0, -20.0) rotate(180, 350.0, 200.0) scale(-1, 1) translate(-630.0, 0)"><g fill="white" stroke="#5fab9e" stroke-width="2"><path d="M0.0 55.5 H126.0 V222.0 H252.0 V138.8 H378.0 V305.2 H504.0 V166.5 H630.0 V333.0" fill="none"/></g></g><path d="M35.0 47.0 v333.0 M35.0 380.0 h630.0" stroke="#999" stroke-width="1.5" fill="none"/></svg>