<svg xmlns="http://www.w3.org/2000/svg" width="800" height="500" viewBox="0 0 800 500">
  <path fill="white" d="M0 0 h800 v500 h-800 v-500Z"/>
  <g class="plot">
    <path d="M120.0 75.0 h560.0 v350.0 h-560.0 v-350.0Z" fill="white" stroke="#bbb"/>
    <g x1="120.0" y1="75.0" transform="translate(120.0, 75.0)" class="plot-grid">
      <path stroke="#ccc" d="M0.0 0 v350.0z M43.07692307692308 0 v350.0z M86.15384615384616 0 v350.0z M129.23076923076923 0 v350.0z M172.30769230769232 0 v350.0z M215.38461538461542 0 v350.0z M258.46153846153845 0 v350.0z M301.53846153846155 0 v350.0z M344.61538461538464 0 v350.0z M387.69230769230774 0 v350.0z M430.76923076923083 0 v350.0z M473.84615384615387 0 v350.0z M516.9230769230769 0 v350.0z M0 134.50800592300098 h560.0z M0 83.47800592300098 h560.0z M0 32.44800592300098 h560.0z M0 236.56800592300098 h560.0z M0 287.598005923001 h560.0z"/>
    </g>
  </g>
  <g transform="rotate(180, 400.0, 250.0) translate(163.0769230769231, 239.461994076999)">
    <g fill="white" stroke="#EF6F6C" stroke-width="2">
      <path d="M0.0 -75.38364892757784 L43.07692307692308 16.647222471506772 L86.15384615384616 28.582966885039934 L129.23076923076923 91.40267432468814 L172.30769230769232 30.781656645427617 L215.38461538461542 -149.5109037063627 L258.46153846153845 73.81315624158664 L301.53846153846155 98.31284214304944 L344.61538461538464 -47.11478057973615 L387.69230769230774 43.6596966705555 L430.76923076923083 42.08920398456429 L473.84615384615387 53.396751323700975" fill="none"/>
      <circle cx="0.0" cy="-75.38364892757784" r="4"/>
      <circle cx="43.07692307692308" cy="16.647222471506772" r="4"/>
      <circle cx="86.15384615384616" cy="28.582966885039934" r="4"/>
      <circle cx="129.23076923076923" cy="91.40267432468814" r="4"/>
      <circle cx="172.30769230769232" cy="30.781656645427617" r="4"/>
      <circle cx="215.38461538461542" cy="-149.5109037063627" r="4"/>
      <circle cx="258.46153846153845" cy="73.81315624158664" r="4"/>
      <circle cx="301.53846153846155" cy="98.31284214304944" r="4"/>
      <circle cx="344.61538461538464" cy="-47.11478057973615" r="4"/>
      <circle cx="387.69230769230774" cy="43.6596966705555" r="4"/>
      <circle cx="430.76923076923083" cy="42.08920398456429" r="4"/>
      <circle cx="473.84615384615387" cy="53.396751323700975" r="4"/>
    </g>
    <g fill="white" stroke="#477160" stroke-width="2">
      <path d="M0.0 73.81315624158664 L43.07692307692308 30.781656645427617 L86.15384615384616 59.36462353046755 L129.23076923076923 52.140357174908004 L172.30769230769232 -5.339675132370097 L215.38461538461542 67.21708696042357 L258.46153846153845 51.19806156331328 L301.53846153846155 168.67091447545542 L344.61538461538464 142.91483442519964 L387.69230769230774 10.051153190343712 L430.76923076923083 78.83873283675848 L473.84615384615387 15.70492685991205" fill="none"/>
      <circle cx="0.0" cy="73.81315624158664" r="4"/>
      <circle cx="43.07692307692308" cy="30.781656645427617" r="4"/>
      <circle cx="86.15384615384616" cy="59.36462353046755" r="4"/>
      <circle cx="129.23076923076923" cy="52.140357174908004" r="4"/>
      <circle cx="172.30769230769232" cy="-5.339675132370097" r="4"/>
      <circle cx="215.38461538461542" cy="67.21708696042357" r="4"/>
      <circle cx="258.46153846153845" cy="51.19806156331328" r="4"/>
      <circle cx="301.53846153846155" cy="168.67091447545542" r="4"/>
      <circle cx="344.61538461538464" cy="142.91483442519964" r="4"/>
      <circle cx="387.69230769230774" cy="10.051153190343712" r="4"/>
      <circle cx="430.76923076923083" cy="78.83873283675848" r="4"/>
      <circle cx="473.84615384615387" cy="15.70492685991205" r="4"/>
    </g>
  </g>
  <path d="M120.0 260.538005923001 h560.0z" stroke="black"/>
  <g>
    <g class="x-axis" transform="translate(120.0, 12)">
      <g font-size="12" font-family="Helvetica">
        <text x="43.07692307692308" y="425.0" transform="translate(-6.285714285714286, 0) rotate(44.114618548216676, 43.07692307692308, 425.0)">
          January
        </text>
        <text x="86.15384615384616" y="425.0" transform="translate(-6.125, 0) rotate(44.114618548216676, 86.15384615384616, 425.0)">
          February
        </text>
        <text x="129.23076923076923" y="425.0" transform="translate(-6.8, 0) rotate(44.114618548216676, 129.23076923076923, 425.0)">
          March
        </text>
        <text x="172.30769230769232" y="425.0" transform="translate(-5.0, 0) rotate(44.114618548216676, 172.30769230769232, 425.0)">
          April
        </text>
        <text x="215.38461538461542" y="425.0" transform="translate(-7.666666666666667, 0) rotate(44.114618548216676, 215.38461538461542, 425.0)">
          May
        </text>
        <text x="258.4615384615385" y="425.0" transform="translate(-6.75, 0) rotate(44.114618548216676, 258.4615384615385, 425.0)">
          June
        </text>
        <text x="301.53846153846155" y="425.0" transform="translate(-5.5, 0) rotate(44.114618548216676, 301.53846153846155, 425.0)">
          July
        </text>
        <text x="344.61538461538464" y="425.0" transform="translate(-6.333333333333333, 0) rotate(44.114618548216676, 344.61538461538464, 425.0)">
          August
        </text>
        <text x="387.69230769230774" y="425.0" transform="translate(-6.666666666666667, 0) rotate(44.114618548216676, 387.69230769230774, 425.0)">
          September
        </text>
        <text x="430.76923076923083" y="425.0" transform="translate(-6.142857142857143, 0) rotate(44.114618548216676, 430.76923076923083, 425.0)">
          October
        </text>
        <text x="473.8461538461539" y="425.0" transform="translate(-7.125, 0) rotate(44.114618548216676, 473.8461538461539, 425.0)">
          November
        </text>
        <text x="516.9230769230769" y="425.0" transform="translate(-7.125, 0) rotate(44.114618548216676, 516.9230769230769, 425.0)">
          December
        </text>
        <text x="560.0" y="425.0" transform="translate(-3.0, 0) rotate(44.114618548216676, 560.0, 425.0)">
        </text>
      </g>
    </g>
    <g class="y-axis" transform="translate(120.0, 75.0)">
      <g font-size="12" font-family="Helvetica">
        <text x="0" y="32.44800592300098" transform="translate(-33, 7.0)">
          487
        </text>
        <text x="0" y="83.47800592300098" transform="translate(-33, 7.0)">
          325
        </text>
        <text x="0" y="134.50800592300098" transform="translate(-33, 7.0)">
          162
        </text>
        <text x="0" y="236.56800592300098" transform="translate(-37, 7.0)">
          -162
        </text>
        <text x="0" y="287.598005923001" transform="translate(-37, 7.0)">
          -325
        </text>
        <text x="0" y="185.53800592300098" transform="translate(-19, 7.0)">
          0
        </text>
      </g>
    </g>
  </g>
  <text transform="translate(-93.5, 5.75)" font-family="Helvetica" font-weight="bold" font-size="20" x="400.0" y="37.5">
    Example Line Chart
  </text>
</svg>