<svg xmlns="http://www.w3.org/2000/svg" width="700" height="400" viewBox="0 0 700 400"><path fill="white" d="M0 0 h700 v400 h-700 v-400Z"/><text transform="translate(-92.0, 18)" fill="#444444" font-family="Arial" font-weight="bold" font-size="16" x="350.0" y="10.0">Monthly Active Users (K)</text><g><path stroke="#CCCCCC" stroke-dasharray="None" d="M0 0.0 h630.0 M0 66.60000000000001 h630.0 M0 133.20000000000002 h630.0 M0 199.79999999999998 h630.0 M0 266.40000000000003 h630.0 M0 333.0 h630.0" transform="translate(35.0, 47.0)"/><g font-size="12" font-family="Arial" transform="translate(29.0, 47.0)"><text x="0" y="0.0" transform="translate(-21, 3.5)">100</text><text x="0" y="66.60000000000001" transform="translate(-14, 3.5)">80</text><text x="0" y="133.20000000000002" transform="translate(-14, 3.5)">60</text><text x="0" y="199.79999999999998" transform="translate(-14, 3.5)">40</text><text x="0" y="266.40000000000003" transform="translate(-14, 3.5)">20</text><text x="0" y="333.0" transform="translate(-7, 3.5)">0</text></g></g><g><path stroke="#CCCCCC" stroke-dasharray="None" d="M0.0 0 v333.0 M48.46153846153847 0 v333.0 M96.92307692307693 0 v333.0 M145.3846153846154 0 v333.0 M193.84615384615387 0 v333.0 M242.30769230769232 0 v333.0 M290.7692307692308 0 v333.0 M339.2307692307692 0 v333.0 M387.69230769230774 0 v333.0 M436.15384615384613 0 v333.0 M484.61538461538464 0 v333.0 M533.0769230769231 0 v333.0 M581.5384615384615 0 v333.0 M630.0 0 v333.0" transform="translate(35.0, 47.0)"/><g font-size="12" font-family="Arial" transform="translate(35.0, 65.0)"><text x="0.0" y="333.0" transform="translate(-2.0, 0)"> </text><text x="48.46153846153847" y="333.0" transform="translate(-10.0, 0)">Jan</text><text x="96.92307692307693" y="333.0" transform="translate(-11.0, 0)">Feb</text><text x="145.3846153846154" y="333.0" transform="translate(-10.5, 0)">Mar</text><text x="193.84615384615387" y="333.0" transform="translate(-10.0, 0)">Apr</text><text x="242.30769230769232" y="333.0" transform="translate(-11.5, 0)">May</text><text x="290.7692307692308" y="333.0" transform="translate(-10.0, 0)">Jun</text><text x="339.2307692307692" y="333.0" transform="translate(-8.0, 0)">Jul</text><text x="387.69230769230774" y="333.0" transform="translate(-11.5, 0)">Aug</text><text x="436.15384615384613" y="333.0" transform="translate(-11.5, 0)">Sep</text><text x="484.61538461538464" y="333.0" transform="translate(-10.0, 0)">Oct</text><text x="533.0769230769231" y="333.0" transform="translate(-11.0, 0)">Nov</text><text x="581.5384615384615" y="333.0" transform="translate(-11.0, 0)">Dec</text><text x="630.0" y="333.0" transform="translate(-2.0, 0)"> </text></g></g><g opacity="0.8" transform="translate(-35.0, -20.0) rotate(180, 350.0, 200.0) scale(-1, 1) translate(-630.0, 0)"><g fill="white" stroke="#5fab9e" stroke-width="2"><path d="M48.46153846153847 139.85999999999999 L96.92307692307693 159.84 L145.38461538461542 183.15 L193.84615384615387 203.13 L242.30769230769232 193.14 L290.7692307692308 233.1 L339.2307692307692 266.40000000000003 L387.6923076923077 259.74 L436.1538461538462 283.05 L484.6153846153846 306.36 L533.0769230769231 293.04 L581.5384615384615 333.0" fill="none"/><circle cx="48.46153846153847" cy="139.85999999999999" r="3"/><circle cx="96.92307692307693" cy="159.84" r="3"/><circle cx="145.38461538461542" cy="183.15" r="3"/><circle cx="193.84615384615387" cy="203.13" r="3"/><circle cx="242.30769230769232" cy="193.14" r="3"/><circle cx="290.7692307692308" cy="233.1" r="3"/><circle cx="339.2307692307692" cy="266.40000000000003" r="3"/><circle cx="387.6923076923077" cy="259.74" r="3"/><circle cx="436.1538461538462" cy="283.05" r="3"/><circle cx="484.6153846153846" cy="306.36" r="3"/><circle cx="533.0769230769231" cy="293.04" r="3"/><circle cx="581.5384615384615" cy="333.0" r="3"/></g></g><g><rect transform="translate(-5.0, -1.75)" x="616.0" y="52.75" width="50.0" height="17.5" fill="#ffffff" stroke="#CCCCCC"/><g><rect y="53.75" x="616.0" width="12" height="12" fill="#5fab9e"/><text y="62.75" x="630.0" font-size="12" font-family="Arial">MAU</text></g></g></svg>