<svg xmlns="http://www.w3.org/2000/svg" width="700" height="400" viewBox="0 0 700 400"><path fill="#FFFFFF" d="M0 0 h700 v400 h-700 v-400Z"/><text transform="translate(-163.0, 18)" fill="#444444" font-family="Arial" font-weight="normal" font-size="16" x="350.0" y="10.0">Signal Analysis: Raw vs Filtered vs Baseline</text><defs><clipPath id="plot-clip"><rect x="0" y="0" width="630.0" height="333.0"/></clipPath></defs><g><path stroke="#CCCCCC" stroke-dasharray="None" d="M0 0.0 h630.0 M0 33.300000000000004 h630.0 M0 66.60000000000001 h630.0 M0 99.89999999999999 h630.0 M0 133.20000000000002 h630.0 M0 166.5 h630.0 M0 199.79999999999998 h630.0 M0 233.1 h630.0 M0 266.40000000000003 h630.0 M0 299.7 h630.0 M0 333.0 h630.0" transform="translate(35.0, 47.0)"/><g font-size="12" font-family="Arial" fill="#444444" transform="translate(29.0, 47.0)"><text x="0" y="0.0" transform="translate(-14, 3.5)">35</text><text x="0" y="33.300000000000004" transform="translate(-14, 3.5)">28</text><text x="0" y="66.60000000000001" transform="translate(-14, 3.5)">21</text><text x="0" y="99.89999999999999" transform="translate(-14, 3.5)">14</text><text x="0" y="133.20000000000002" transform="translate(-7, 3.5)">7</text><text x="0" y="166.5" transform="translate(-7, 3.5)">0</text><text x="0" y="199.79999999999998" transform="translate(-11, 3.5)">-7</text><text x="0" y="233.1" transform="translate(-18, 3.5)">-14</text><text x="0" y="266.40000000000003" transform="translate(-18, 3.5)">-21</text><text x="0" y="299.7" transform="translate(-18, 3.5)">-28</text><text x="0" y="333.0" transform="translate(-18, 3.5)">-35</text></g></g><g><path stroke="#CCCCCC" stroke-dasharray="None" d="M0.0 0 v333.0 M33.1578947368421 0 v333.0 M66.3157894736842 0 v333.0 M99.47368421052632 0 v333.0 M132.6315789473684 0 v333.0 M165.78947368421052 0 v333.0 M198.94736842105263 0 v333.0 M232.1052631578947 0 v333.0 M265.2631578947368 0 v333.0 M298.4210526315789 0 v333.0 M331.57894736842104 0 v333.0 M364.7368421052632 0 v333.0 M397.89473684210526 0 v333.0 M431.0526315789474 0 v333.0 M464.2105263157894 0 v333.0 M497.36842105263156 0 v333.0 M530.5263157894736 0 v333.0 M563.6842105263158 0 v333.0 M596.8421052631578 0 v333.0 M630.0 0 v333.0" transform="translate(35.0, 47.0)"/><g font-size="12" font-family="Arial" fill="#444444" transform="translate(35.0, 65.0)"><text x="0.0" y="333.0" transform="translate(-3.5, 0)">0</text><text x="33.1578947368421" y="333.0" transform="translate(-3.5, 0)">1</text><text x="66.3157894736842" y="333.0" transform="translate(-3.5, 0)">2</text><text x="99.47368421052632" y="333.0" transform="translate(-3.5, 0)">3</text><text x="132.6315789473684" y="333.0" transform="translate(-3.5, 0)">4</text><text x="165.78947368421052" y="333.0" transform="translate(-3.5, 0)">5</text><text x="198.94736842105263" y="333.0" transform="translate(-3.5, 0)">6</text><text x="232.1052631578947" y="333.0" transform="translate(-3.5, 0)">7</text><text x="265.2631578947368" y="333.0" transform="translate(-3.5, 0)">8</text><text x="298.4210526315789" y="333.0" transform="translate(-3.5, 0)">9</text><text x="331.57894736842104" y="333.0" transform="translate(-7.0, 0)">10</text><text x="364.7368421052632" y="333.0" transform="translate(-7.0, 0)">11</text><text x="397.89473684210526" y="333.0" transform="translate(-7.0, 0)">12</text><text x="431.0526315789474" y="333.0" transform="translate(-7.0, 0)">13</text><text x="464.2105263157894" y="333.0" transform="translate(-7.0, 0)">14</text><text x="497.36842105263156" y="333.0" transform="translate(-7.0, 0)">15</text><text x="530.5263157894736" y="333.0" transform="translate(-7.0, 0)">16</text><text x="563.6842105263158" y="333.0" transform="translate(-7.0, 0)">17</text><text x="596.8421052631578" y="333.0" transform="translate(-7.0, 0)">18</text><text x="630.0" y="333.0" transform="translate(-7.0, 0)">19</text></g></g><path transform="translate(35.0, 47.0)" d="M0 166.5 h630.0z" stroke="black"/><g opacity="0.8" transform="translate(-35.0, -20.0) rotate(180, 350.0, 200.0) scale(-1, 1) translate(-630.0, 0)"><g fill="white" stroke="#5fab9e" stroke-width="2"><path d="M0.0 95.1 L33.2 187.3 L66.3 262.8 L99.5 308.9 L132.6 320.1 L165.8 299.5 L198.9 258.0 L232.1 45.1 L265.3 10.9 L298.4 3.2 L331.6 29.6 L364.7 89.6 L397.9 174.2 L431.1 268.6 L464.2 188.9 L497.4 252.8 L530.5 283.9 L563.7 280.5 L596.8 249.1 L630.0 203.3" fill="none"/></g><g fill="white" stroke="#f58b51" stroke-width="2"><path d="M0.0 166.5 L33.2 223.5 L66.3 266.6 L99.5 285.1 L132.6 274.6 L165.8 237.7 L198.9 183.3 L232.1 124.8 L265.3 76.5 L298.4 50.2 L331.6 52.5 L364.7 82.6 L397.9 133.3 L431.1 192.1 L464.2 244.6 L497.4 278.1 L530.5 284.2 L563.7 261.5 L596.8 215.5 L630.0 157.6" fill="none"/></g><g fill="white" stroke="#f7dd72" stroke-width="2"><path d="M0.0 142.7 L33.2 165.5 L66.3 182.7 L99.5 190.2 L132.6 186.0 L165.8 171.2 L198.9 149.4 L232.1 126.0 L265.3 106.7 L298.4 96.2 L331.6 97.1 L364.7 109.2 L397.9 129.4 L431.1 152.9 L464.2 174.0 L497.4 187.3 L530.5 189.8 L563.7 180.7 L596.8 162.3 L630.0 139.1" fill="none"/></g></g></svg>