<svg xmlns="http://www.w3.org/2000/svg" width="500" height="500" viewBox="0 0 500 500"><path fill="white" d="M0 0 h500 v500 h-500 v-500Z"/><text transform="translate(-106.0, 4.75)" font-family="Helvetica" font-weight="bold" font-size="16" x="250.0" y="12.5">Example Labelled Line Graph</text><g><path stroke="#CCCCCC" stroke-dasharray="None" d="M0 0.0 h419.0 M0 75.0 h419.0 M0 150.0 h419.0 M0 225.0 h419.0 M0 300.0 h419.0 M0 375.0 h419.0 M0 450.0 h419.0" transform="translate(56.0, 25.0)"/><g font-size="12" font-family="Helvetica" transform="translate(50.0, 25.0)"><text x="0" y="0.0" transform="translate(-21, 3.5)">300</text><text x="0" y="75.0" transform="translate(-21, 3.5)">250</text><text x="0" y="150.0" transform="translate(-21, 3.5)">200</text><text x="0" y="225.0" transform="translate(-21, 3.5)">150</text><text x="0" y="300.0" transform="translate(-21, 3.5)">100</text><text x="0" y="375.0" transform="translate(-14, 3.5)">50</text><text x="0" y="450.0" transform="translate(-7, 3.5)">0</text></g></g><g><path stroke="#CCCCCC" stroke-dasharray="None" d="M419.0 0 v450.0 M0.0 0 v450.0 M34.916666666666664 0 v450.0 M69.83333333333333 0 v450.0 M104.75 0 v450.0 M139.66666666666666 0 v450.0 M174.58333333333334 0 v450.0 M209.5 0 v450.0 M244.41666666666669 0 v450.0 M279.3333333333333 0 v450.0 M314.25 0 v450.0 M349.1666666666667 0 v450.0 M384.0833333333333 0 v450.0 M419.0 0 v450.0" transform="translate(56.0, 25.0)"/><g font-size="12" font-family="Helvetica" transform="translate(56.0, 43.0)"><text x="419.0" y="450.0" transform="translate(-1.5, 0)"> </text><text x="0.0" y="450.0" transform="translate(-1.5, 0)"> </text><text x="34.916666666666664" y="450.0" transform="translate(-4.0, 0)">A</text><text x="69.83333333333333" y="450.0" transform="translate(-4.0, 0)">B</text><text x="104.75" y="450.0" transform="translate(-4.5, 0)">C</text><text x="139.66666666666666" y="450.0" transform="translate(-4.5, 0)">D</text><text x="174.58333333333334" y="450.0" transform="translate(-4.0, 0)">E</text><text x="209.5" y="450.0" transform="translate(-3.5, 0)">F</text><text x="244.41666666666669" y="450.0" transform="translate(-4.5, 0)">G</text><text x="279.3333333333333" y="450.0" transform="translate(-4.5, 0)">H</text><text x="314.25" y="450.0" transform="translate(-1.5, 0)">I</text><text x="349.1666666666667" y="450.0" transform="translate(-3.0, 0)">J</text><text x="384.0833333333333" y="450.0" transform="translate(-4.0, 0)">K</text><text x="419.0" y="450.0" transform="translate(-1.5, 0)"> </text></g></g><g opacity="0.8" transform="translate(-25.0, -25.0) rotate(180, 250.0, 250.0) scale(-1, 1) translate(-419.0, 0)"><g fill="white" stroke="#204C9E" stroke-width="2"><path d="M34.916666666666664 7.5 L69.83333333333333 11.25 L104.75 16.875 L139.66666666666666 25.3125 L174.58333333333331 37.96875 L209.5 56.953125 L244.41666666666666 85.4296875 L279.33333333333337 128.14453125 L314.25 192.216796875 L349.1666666666667 288.3251953125 L384.08333333333337 432.48779296875" fill="none"/><circle cx="34.916666666666664" cy="7.5" r="3"/><circle cx="69.83333333333333" cy="11.25" r="3"/><circle cx="104.75" cy="16.875" r="3"/><circle cx="139.66666666666666" cy="25.3125" r="3"/><circle cx="174.58333333333331" cy="37.96875" r="3"/><circle cx="209.5" cy="56.953125" r="3"/><circle cx="244.41666666666666" cy="85.4296875" r="3"/><circle cx="279.33333333333337" cy="128.14453125" r="3"/><circle cx="314.25" cy="192.216796875" r="3"/><circle cx="349.1666666666667" cy="288.3251953125" r="3"/><circle cx="384.08333333333337" cy="432.48779296875" r="3"/></g></g></svg>