<svg xmlns="http://www.w3.org/2000/svg" width="500" height="500" viewBox="0 0 500 500"><path fill="white" d="M0 0 h500 v500 h-500 v-500Z"/><text transform="translate(-106.0, 19)" fill="#444444" font-family="Helvetica" font-weight="bold" font-size="16" x="250.0" y="30.0">Example Labelled Line Graph</text><g><path stroke="#CCCCCC" stroke-dasharray="None" d="M0 0.0 h349.0 M0 70.3 h349.0 M0 140.6 h349.0 M0 210.9 h349.0 M0 281.2 h349.0 M0 351.5 h349.0 M0 351.5 h349.0" transform="translate(91.0, 88.5)"/><g font-size="12" font-family="Helvetica" transform="translate(85.0, 88.5)"><text x="0" y="0.0" transform="translate(-21, 3.5)">300</text><text x="0" y="70.3" transform="translate(-21, 3.5)">240</text><text x="0" y="140.6" transform="translate(-21, 3.5)">180</text><text x="0" y="210.9" transform="translate(-21, 3.5)">120</text><text x="0" y="281.2" transform="translate(-14, 3.5)">60</text><text x="0" y="351.5" transform="translate(-7, 3.5)">0</text></g></g><g><path stroke="#CCCCCC" stroke-dasharray="None" d="M0.0 0 v351.5 M29.083333333333332 0 v351.5 M58.166666666666664 0 v351.5 M87.25 0 v351.5 M116.33333333333333 0 v351.5 M145.41666666666669 0 v351.5 M174.5 0 v351.5 M203.58333333333334 0 v351.5 M232.66666666666666 0 v351.5 M261.75 0 v351.5 M290.83333333333337 0 v351.5 M319.91666666666663 0 v351.5 M349.0 0 v351.5" transform="translate(91.0, 88.5)"/><g font-size="12" font-family="Helvetica" transform="translate(91.0, 106.5)"><text x="0.0" y="351.5" transform="translate(-1.5, 0)"> </text><text x="29.083333333333332" y="351.5" transform="translate(-4.0, 0)">A</text><text x="58.166666666666664" y="351.5" transform="translate(-4.0, 0)">B</text><text x="87.25" y="351.5" transform="translate(-4.5, 0)">C</text><text x="116.33333333333333" y="351.5" transform="translate(-4.5, 0)">D</text><text x="145.41666666666669" y="351.5" transform="translate(-4.0, 0)">E</text><text x="174.5" y="351.5" transform="translate(-3.5, 0)">F</text><text x="203.58333333333334" y="351.5" transform="translate(-4.5, 0)">G</text><text x="232.66666666666666" y="351.5" transform="translate(-4.5, 0)">H</text><text x="261.75" y="351.5" transform="translate(-1.5, 0)">I</text><text x="290.83333333333337" y="351.5" transform="translate(-3.0, 0)">J</text><text x="319.91666666666663" y="351.5" transform="translate(-4.0, 0)">K</text><text x="349.0" y="351.5" transform="translate(-1.5, 0)"> </text></g></g><g opacity="0.8" transform="translate(-60.0, -60.0) rotate(180, 250.0, 250.0) scale(-1, 1) translate(-349.0, 0)"><g fill="white" stroke="#204C9E" stroke-width="2"><path d="M29.083333333333332 5.858333333333333 L58.166666666666664 8.7875 L87.25 13.18125 L116.33333333333333 19.771875 L145.41666666666666 29.657812500000002 L174.50000000000003 44.48671875 L203.58333333333334 66.730078125 L232.66666666666669 100.09511718750001 L261.75 150.14267578125 L290.8333333333333 225.214013671875 L319.9166666666667 337.8210205078125" fill="none"/><circle cx="29.083333333333332" cy="5.858333333333333" r="3"/><circle cx="58.166666666666664" cy="8.7875" r="3"/><circle cx="87.25" cy="13.18125" r="3"/><circle cx="116.33333333333333" cy="19.771875" r="3"/><circle cx="145.41666666666666" cy="29.657812500000002" r="3"/><circle cx="174.50000000000003" cy="44.48671875" r="3"/><circle cx="203.58333333333334" cy="66.730078125" r="3"/><circle cx="232.66666666666669" cy="100.09511718750001" r="3"/><circle cx="261.75" cy="150.14267578125" r="3"/><circle cx="290.8333333333333" cy="225.214013671875" r="3"/><circle cx="319.9166666666667" cy="337.8210205078125" r="3"/></g></g></svg>