<svg xmlns="http://www.w3.org/2000/svg" width="600" height="400" viewBox="0 0 600 400"><path fill="#FFFFFF" d="M0 0 h600 v400 h-600 v-400Z"/><text transform="translate(-77.5, 16.0)" fill="#444444" font-family="Roboto" font-weight="normal" font-size="16" x="300.0" y="10.0">Stock Price (Normalized to 100)</text><defs><clipPath id="plot-clip"><rect x="0" y="0" width="540.0" height="336.0"/></clipPath></defs><g><path stroke="#CCCCCC" stroke-dasharray="None" d="M0 0.0 h540.0 M0 67.2 h540.0 M0 134.4 h540.0 M0 201.6 h540.0 M0 268.8 h540.0 M0 336.0 h540.0" transform="translate(30.0, 44.0)"/><g font-size="12" font-family="Arial" fill="#444444" transform="translate(24.0, 44.0)"><text x="0" y="0.0" transform="translate(-21, 3.5)">150</text><text x="0" y="67.2" transform="translate(-21, 3.5)">120</text><text x="0" y="134.4" transform="translate(-14, 3.5)">90</text><text x="0" y="201.6" transform="translate(-14, 3.5)">60</text><text x="0" y="268.8" transform="translate(-14, 3.5)">30</text><text x="0" y="336.0" transform="translate(-7, 3.5)">0</text></g></g><g><path stroke="#CCCCCC" stroke-dasharray="None" d="M0.0 0 v336.0 M49.09090909090909 0 v336.0 M98.18181818181819 0 v336.0 M147.27272727272725 0 v336.0 M196.36363636363637 0 v336.0 M245.45454545454544 0 v336.0 M294.5454545454545 0 v336.0 M343.6363636363636 0 v336.0 M392.72727272727275 0 v336.0 M441.81818181818187 0 v336.0 M490.9090909090909 0 v336.0 M540.0 0 v336.0" transform="translate(30.0, 44.0)"/><g font-size="12" font-family="Arial" fill="#444444" transform="translate(30.0, 62.0)"><text x="0.0" y="336.0" transform="translate(-10.0, 0)">Jan</text><text x="49.09090909090909" y="336.0" transform="translate(-11.0, 0)">Feb</text><text x="98.18181818181819" y="336.0" transform="translate(-10.5, 0)">Mar</text><text x="147.27272727272725" y="336.0" transform="translate(-10.0, 0)">Apr</text><text x="196.36363636363637" y="336.0" transform="translate(-11.5, 0)">May</text><text x="245.45454545454544" y="336.0" transform="translate(-10.0, 0)">Jun</text><text x="294.5454545454545" y="336.0" transform="translate(-8.0, 0)">Jul</text><text x="343.6363636363636" y="336.0" transform="translate(-11.5, 0)">Aug</text><text x="392.72727272727275" y="336.0" transform="translate(-11.5, 0)">Sep</text><text x="441.81818181818187" y="336.0" transform="translate(-10.0, 0)">Oct</text><text x="490.9090909090909" y="336.0" transform="translate(-11.0, 0)">Nov</text><text x="540.0" y="336.0" transform="translate(-11.0, 0)">Dec</text></g></g><g opacity="0.8" transform="translate(-30.0, -20.0) rotate(180, 300.0, 200.0) scale(-1, 1) translate(-540.0, 0)"><g fill="white" stroke="#5fab9e" stroke-width="2"><path d="M0.0 224.0 L49.1 235.2 L98.2 219.5 L147.3 250.9 L196.4 268.8 L245.5 257.6 L294.5 280.0 L343.6 291.2 L392.7 286.7 L441.8 313.6 L490.9 309.1 L540.0 336.0" fill="none"/></g><g fill="white" stroke="#f58b51" stroke-width="2"><path d="M0.0 224.0 L49.1 217.3 L98.2 228.5 L147.3 241.9 L196.4 233.0 L245.5 246.4 L294.5 257.6 L343.6 250.9 L392.7 264.3 L441.8 273.3 L490.9 280.0 L540.0 291.2" fill="none"/></g><g fill="white" stroke="#f7dd72" stroke-width="2"><path d="M0.0 224.0 L49.1 230.7 L98.2 237.4 L147.3 233.0 L196.4 241.9 L245.5 250.9 L294.5 246.4 L343.6 257.6 L392.7 268.8 L441.8 264.3 L490.9 273.3 L540.0 286.7" fill="none"/></g></g><g><rect transform="translate(-19.5, -10.5)" x="468.5" y="58.5" width="117.0" height="63.0" fill="#f5f5f5" stroke="#d7d7d7"/><g><rect y="61.5" x="468.5" width="12" height="12" fill="#5fab9e"/><text y="70.5" x="482.5" font-size="12" font-family="Roboto" fill="#444444">ACME Corp</text></g><g><rect y="73.5" x="468.5" width="12" height="12" fill="#f58b51"/><text y="82.5" x="482.5" font-size="12" font-family="Roboto" fill="#444444">Globex Inc</text></g><g><rect y="85.5" x="468.5" width="12" height="12" fill="#f7dd72"/><text y="94.5" x="482.5" font-size="12" font-family="Roboto" fill="#444444">Initech</text></g></g><path d="M30.0 44.0 v336.0 M30.0 380.0 h540.0" stroke="#999" stroke-width="1.5" fill="none"/></svg>