<svg xmlns="http://www.w3.org/2000/svg" width="600" height="400" viewBox="0 0 600 400"><path fill="#FFFFFF" d="M0 0 h600 v400 h-600 v-400Z"/><text transform="translate(0, 16.0)" fill="#444444" font-family="Roboto" font-weight="normal" font-size="16" text-anchor="middle" x="308.0" y="10.0">Monthly Revenue — Corner Coffee Co. ($K)</text><defs><clipPath id="plot-clip"><rect x="0" y="0" width="524.0" height="336.0"/></clipPath></defs><g><path stroke="#CCCCCC" stroke-dasharray="None" d="M0 0.0 h524.0 M0 67.2 h524.0 M0 134.4 h524.0 M0 201.6 h524.0 M0 268.8 h524.0 M0 336.0 h524.0" transform="translate(46.0, 44.0)"/><g font-size="12" font-family="Arial" fill="#444444" transform="translate(40.0, 44.0)"><text x="0" y="0.0" transform="translate(-14, 3.5)">45</text><text x="0" y="67.2" transform="translate(-14, 3.5)">36</text><text x="0" y="134.4" transform="translate(-14, 3.5)">27</text><text x="0" y="201.6" transform="translate(-14, 3.5)">18</text><text x="0" y="268.8" transform="translate(-7, 3.5)">9</text><text x="0" y="336.0" transform="translate(-7, 3.5)">0</text></g></g><g><path stroke="#CCCCCC" stroke-dasharray="None" d="M0.0 0 v336.0 M47.63636363636364 0 v336.0 M95.27272727272728 0 v336.0 M142.9090909090909 0 v336.0 M190.54545454545456 0 v336.0 M238.1818181818182 0 v336.0 M285.8181818181818 0 v336.0 M333.45454545454544 0 v336.0 M381.0909090909091 0 v336.0 M428.72727272727275 0 v336.0 M476.3636363636364 0 v336.0 M524.0 0 v336.0" transform="translate(46.0, 44.0)"/><g font-size="12" font-family="Arial" fill="#444444" transform="translate(46.0, 62.0)"><text x="0.0" y="336.0" transform="translate(-10.0, 0)">Jan</text><text x="47.63636363636364" y="336.0" transform="translate(-11.0, 0)">Feb</text><text x="95.27272727272728" y="336.0" transform="translate(-10.5, 0)">Mar</text><text x="142.9090909090909" y="336.0" transform="translate(-10.0, 0)">Apr</text><text x="190.54545454545456" y="336.0" transform="translate(-11.5, 0)">May</text><text x="238.1818181818182" y="336.0" transform="translate(-10.0, 0)">Jun</text><text x="285.8181818181818" y="336.0" transform="translate(-8.0, 0)">Jul</text><text x="333.45454545454544" y="336.0" transform="translate(-11.5, 0)">Aug</text><text x="381.0909090909091" y="336.0" transform="translate(-11.5, 0)">Sep</text><text x="428.72727272727275" y="336.0" transform="translate(-10.0, 0)">Oct</text><text x="476.3636363636364" y="336.0" transform="translate(-11.0, 0)">Nov</text><text x="524.0" y="336.0" transform="translate(-11.0, 0)">Dec</text></g></g><g opacity="0.8" transform="translate(-30.0, -20.0) rotate(180, 300.0, 200.0) scale(-1, 1) translate(-524.0, 0)"><g fill="white" stroke="#5fab9e" stroke-width="2"><path d="M0.0 134.4 L47.6 164.3 L95.3 141.9 L142.9 186.7 L190.5 209.1 L238.2 238.9 L285.8 261.3 L333.5 283.7 L381.1 224.0 L428.7 201.6 L476.4 179.2 L524.0 313.6" fill="none"/></g><text x="524.0" y="297.6" fill="#444444" font-size="12" font-family="Roboto" text-anchor="middle" transform="translate(524.0,297.6) scale(1,-1) translate(-524.0,-297.6)">$42K</text></g><g><rect transform="translate(-4.725, -1.05)" x="498.275" y="49.05" width="72.44999999999999" height="16.099999999999998" fill="none" stroke="none"/><g><rect y="50.05" x="498.275" width="12" height="12" fill="#5fab9e"/><text y="59.05" x="512.275" font-size="12" font-family="Roboto" fill="#444444">Revenue</text></g></g><path d="M46.0 44.0 v336.0 M46.0 380.0 h524.0" stroke="#999" stroke-width="1.5" fill="none"/><g transform="translate(46.0, 44.0)"><path d="M0 124.69333333333333 h524.0" stroke="#666" stroke-width="1.5" stroke-dasharray="6 3" fill="none"/></g><text x="14" y="212.0" fill="#444444" font-size="14" font-family="Roboto" text-anchor="middle" transform="rotate(-90, 14, 212.0)">Revenue ($K)</text></svg>