<svg xmlns="http://www.w3.org/2000/svg" width="700" height="400" viewBox="0 0 700 400"><path fill="#FFFFFF" d="M0 0 h700 v400 h-700 v-400Z"/><text transform="translate(-120.0, 18)" fill="#444444" font-family="Arial" font-weight="bold" font-size="16" x="350.0" y="10.0">Requests per Second (log scale)</text><defs><clipPath id="plot-clip"><rect x="0" y="0" width="630.0" height="333.0"/></clipPath></defs><g><path stroke="#cccccc" stroke-dasharray="None" d="M0 256.23376940841206 h630.0 M0 168.5070766577293 h630.0 M0 80.78038390704656 h630.0" transform="translate(35.0, 47.0)"/><g font-size="12" font-family="Arial" fill="#000000" transform="translate(29.0, 47.0)"><text x="0" y="256.23376940841206" transform="translate(-21, 3.5)">100</text><text x="0" y="168.5070766577293" transform="translate(-28, 3.5)">1000</text><text x="0" y="80.78038390704656" transform="translate(-35, 3.5)">10000</text></g></g><g><path stroke="#cccccc" stroke-dasharray="None" d="M0.0 0 v333.0 M157.5 0 v333.0 M315.0 0 v333.0 M472.5 0 v333.0 M630.0 0 v333.0" transform="translate(35.0, 47.0)"/><g font-size="12" font-family="Arial" fill="#000000" transform="translate(35.0, 65.0)"><text x="0.0" y="333.0" transform="translate(-6.5, 0)">v1</text><text x="157.5" y="333.0" transform="translate(-6.5, 0)">v2</text><text x="315.0" y="333.0" transform="translate(-6.5, 0)">v3</text><text x="472.5" y="333.0" transform="translate(-6.5, 0)">v4</text><text x="630.0" y="333.0" transform="translate(-6.5, 0)">v5</text></g></g><g opacity="0.8" transform="translate(-35.0, -20.0) rotate(180, 350.0, 200.0) scale(-1, 1) translate(-630.0, 0)"><g fill="white" stroke="#5fab9e" stroke-width="2"><path d="M0.0 0.0 L157.5 93.6 L315.0 178.5 L472.5 255.5 L630.0 333.0" fill="none"/></g></g><path d="M35.0 47.0 v333.0 M35.0 380.0 h630.0" stroke="#999" stroke-width="1.5" fill="none"/></svg>