<svg xmlns="http://www.w3.org/2000/svg" width="500" height="500" viewBox="0 0 500 500"><path fill="white" d="M0 0 h500 v500 h-500 v-500Z"/><text transform="translate(-106.0, 4.75)" font-family="Helvetica" font-weight="bold" font-size="16" x="250.0" y="25.0">Example Labelled Line Graph</text><g><path d="M0 0.0 h400.0 M0 66.66666666666666 h400.0 M0 133.33333333333331 h400.0 M0 199.99999999999997 h400.0 M0 266.66666666666663 h400.0 M0 333.33333333333326 h400.0 M0 399.99999999999994 h400.0" stroke="#CCCCCC" transform="translate(50.0, 50.0)"/><g font-size="12" font-family="Helvetica" transform="translate(44.0, 50.0)"><text x="0" y="0.0" transform="translate(-21, 3.5)">300</text><text x="0" y="66.66666666666666" transform="translate(-21, 3.5)">250</text><text x="0" y="133.33333333333331" transform="translate(-21, 3.5)">200</text><text x="0" y="199.99999999999997" transform="translate(-21, 3.5)">150</text><text x="0" y="266.66666666666663" transform="translate(-21, 3.5)">100</text><text x="0" y="333.33333333333326" transform="translate(-14, 3.5)">50</text><text x="0" y="399.99999999999994" transform="translate(-7, 3.5)">0</text></g></g><g><path d="M400.0 0 v400.0 M342.85714285714283 0 v400.0 M285.71428571428567 0 v400.0 M228.57142857142856 0 v400.0 M171.42857142857142 0 v400.0 M114.28571428571428 0 v400.0 M57.14285714285714 0 v400.0 M0.0 0 v400.0" stroke="#CCCCCC" transform="translate(50.0, 50.0)"/><g font-size="12" font-family="Helvetica" transform="translate(50.0, 68.0)"><text x="400.0" y="400.0" transform="translate(-1.5, 0)"> </text><text x="342.85714285714283" y="400.0" transform="translate(-18.5, 0)">mouse</text><text x="285.71428571428567" y="400.0" transform="translate(-8.0, 0)">cat</text><text x="228.57142857142856" y="400.0" transform="translate(-10.5, 0)">dog</text><text x="171.42857142857142" y="400.0" transform="translate(-17.5, 0)">foobar</text><text x="114.28571428571428" y="400.0" transform="translate(-9.0, 0)">bar</text><text x="57.14285714285714" y="400.0" transform="translate(-8.5, 0)">foo</text><text x="0.0" y="400.0" transform="translate(-1.5, 0)"> </text></g></g><path transform="translate(50.0, 50.0)" d="M0 400.0 h400.0z M0.0 0 v400.0z" stroke="black"/><g opacity="0.8" transform="translate(-50.0, -50.0) rotate(180, 250.0, 250.0) scale(-1, 1) translate(-400.0, 0.0)"><g fill="white" stroke="#5fab9e" stroke-width="2"><path d="M57.14285714285714 66.66666666666666 L114.28571428571428 133.33333333333331 L171.42857142857142 200.0 L228.57142857142856 266.66666666666663 L285.71428571428567 333.33333333333337 L342.8571428571429 400.0" fill="none"/><circle cx="57.14285714285714" cy="66.66666666666666" r="4"/><circle cx="114.28571428571428" cy="133.33333333333331" r="4"/><circle cx="171.42857142857142" cy="200.0" r="4"/><circle cx="228.57142857142856" cy="266.66666666666663" r="4"/><circle cx="285.71428571428567" cy="333.33333333333337" r="4"/><circle cx="342.8571428571429" cy="400.0" r="4"/></g><g fill="white" stroke="#f58b51" stroke-width="2"><path d="M57.14285714285714 33.33333333333333 L114.28571428571428 66.66666666666666 L171.42857142857142 100.0 L228.57142857142856 133.33333333333331 L285.71428571428567 166.66666666666669 L342.8571428571429 200.0" fill="none"/><circle cx="57.14285714285714" cy="33.33333333333333" r="4"/><circle cx="114.28571428571428" cy="66.66666666666666" r="4"/><circle cx="171.42857142857142" cy="100.0" r="4"/><circle cx="228.57142857142856" cy="133.33333333333331" r="4"/><circle cx="285.71428571428567" cy="166.66666666666669" r="4"/><circle cx="342.8571428571429" cy="200.0" r="4"/></g></g></svg>