<svg xmlns="http://www.w3.org/2000/svg" width="700" height="400" viewBox="0 0 700 400"><path fill="white" d="M0 0 h700 v400 h-700 v-400Z"/><text transform="translate(-136.0, 18)" fill="#444444" font-family="Arial" font-weight="bold" font-size="16" x="350.0" y="10.0">Temperature Trend (0.25 proportion)</text><g><path stroke="#CCCCCC" stroke-dasharray="None" d="M0 0.0 h601.0 M0 83.25 h601.0 M0 166.5 h601.0 M0 249.75 h601.0 M0 333.0 h601.0" transform="translate(64.0, 47.0)"/><g font-size="12" font-family="Arial" transform="translate(58.0, 47.0)"><text x="0" y="0.0" transform="translate(-14, 3.5)">35</text><text x="0" y="83.25" transform="translate(-14, 3.5)">15</text><text x="0" y="166.5" transform="translate(-11, 3.5)">-5</text><text x="0" y="249.75" transform="translate(-18, 3.5)">-25</text><text x="0" y="333.0" transform="translate(-18, 3.5)">-45</text></g></g><g><path stroke="#CCCCCC" stroke-dasharray="None" d="M0.0 0 v333.0 M46.23076923076923 0 v333.0 M92.46153846153847 0 v333.0 M138.6923076923077 0 v333.0 M184.92307692307693 0 v333.0 M231.15384615384616 0 v333.0 M277.3846153846154 0 v333.0 M323.6153846153846 0 v333.0 M369.84615384615387 0 v333.0 M416.0769230769231 0 v333.0 M462.3076923076923 0 v333.0 M508.53846153846155 0 v333.0 M554.7692307692308 0 v333.0 M601.0 0 v333.0" transform="translate(64.0, 47.0)"/><g font-size="12" font-family="Arial" transform="translate(64.0, 65.0)"><text x="0.0" y="333.0" transform="translate(-2.0, 0)"> </text><text x="46.23076923076923" y="333.0" transform="translate(-10.0, 0)">Jan</text><text x="92.46153846153847" y="333.0" transform="translate(-11.0, 0)">Feb</text><text x="138.6923076923077" y="333.0" transform="translate(-10.5, 0)">Mar</text><text x="184.92307692307693" y="333.0" transform="translate(-10.0, 0)">Apr</text><text x="231.15384615384616" y="333.0" transform="translate(-11.5, 0)">May</text><text x="277.3846153846154" y="333.0" transform="translate(-10.0, 0)">Jun</text><text x="323.6153846153846" y="333.0" transform="translate(-8.0, 0)">Jul</text><text x="369.84615384615387" y="333.0" transform="translate(-11.5, 0)">Aug</text><text x="416.0769230769231" y="333.0" transform="translate(-11.5, 0)">Sep</text><text x="462.3076923076923" y="333.0" transform="translate(-10.0, 0)">Oct</text><text x="508.53846153846155" y="333.0" transform="translate(-11.0, 0)">Nov</text><text x="554.7692307692308" y="333.0" transform="translate(-11.0, 0)">Dec</text><text x="601.0" y="333.0" transform="translate(-2.0, 0)"> </text></g></g><path transform="translate(64.0, 47.0)" d="M0 145.6875 h601.0z" stroke="black"/><g opacity="0.8" transform="translate(-35.0, -20.0) rotate(180, 350.0, 200.0) scale(-1, 1) translate(-601.0, 0)"><g fill="white" stroke="#5fab9e" stroke-width="2"><path d="M46.23076923076923 333.0 L92.46153846153847 303.8625 L138.6923076923077 274.72499999999997 L184.92307692307693 245.5875 L231.15384615384616 216.45000000000002 L277.3846153846154 187.3125 L323.61538461538464 158.17499999999998 L369.8461538461538 129.0375 L416.0769230769231 99.89999999999999 L462.3076923076923 70.7625 L508.53846153846155 41.625 L554.7692307692308 12.487499999999999" fill="none"/><circle cx="46.23076923076923" cy="333.0" r="3"/><circle cx="92.46153846153847" cy="303.8625" r="3"/><circle cx="138.6923076923077" cy="274.72499999999997" r="3"/><circle cx="184.92307692307693" cy="245.5875" r="3"/><circle cx="231.15384615384616" cy="216.45000000000002" r="3"/><circle cx="277.3846153846154" cy="187.3125" r="3"/><circle cx="323.61538461538464" cy="158.17499999999998" r="3"/><circle cx="369.8461538461538" cy="129.0375" r="3"/><circle cx="416.0769230769231" cy="99.89999999999999" r="3"/><circle cx="462.3076923076923" cy="70.7625" r="3"/><circle cx="508.53846153846155" cy="41.625" r="3"/><circle cx="554.7692307692308" cy="12.487499999999999" r="3"/></g></g><g><rect transform="translate(-13.75, -1.75)" x="537.25" y="52.75" width="137.5" height="17.5" fill="#ffffff" stroke="#CCCCCC"/><g transform="translate(0, 12)"><rect y="40.75" x="537.25" width="12" height="12" fill="#5fab9e"/><text y="49.75" x="551.25" font-size="11" font-family="Arial">Temperature (°C)</text></g></g></svg>