<svg xmlns="http://www.w3.org/2000/svg" width="500" height="500" viewBox="0 0 500 500"><path fill="white" d="M0 0 h500 v500 h-500 v-500Z"/><text transform="translate(-106.0, 4.75)" font-family="Helvetica" font-weight="bold" font-size="16" x="250.0" y="25.0">Example Labelled Line Graph</text><g><path d="M0 0.0 h400.0 M0 66.66666666666666 h400.0 M0 133.33333333333331 h400.0 M0 200.0 h400.0 M0 266.66666666666663 h400.0 M0 333.33333333333337 h400.0 M0 400.0 h400.0" stroke="#CCCCCC" transform="translate(50.0, 50.0)"/><g font-size="12" font-family="Helvetica" transform="translate(44.0, 50.0)"><text x="0" y="0.0" transform="translate(-21, 3.5)">300</text><text x="0" y="66.66666666666666" transform="translate(-21, 3.5)">250</text><text x="0" y="133.33333333333331" transform="translate(-21, 3.5)">200</text><text x="0" y="200.0" transform="translate(-21, 3.5)">150</text><text x="0" y="266.66666666666663" transform="translate(-21, 3.5)">100</text><text x="0" y="333.33333333333337" transform="translate(-14, 3.5)">50</text><text x="0" y="400.0" transform="translate(-7, 3.5)">0</text></g></g><g><path d="M400.0 0 v400.0 M0.0 0 v400.0 M33.33333333333333 0 v400.0 M66.66666666666666 0 v400.0 M100.0 0 v400.0 M133.33333333333331 0 v400.0 M166.66666666666669 0 v400.0 M200.0 0 v400.0 M233.33333333333334 0 v400.0 M266.66666666666663 0 v400.0 M300.0 0 v400.0 M333.33333333333337 0 v400.0 M366.66666666666663 0 v400.0 M400.0 0 v400.0" stroke="#CCCCCC" transform="translate(50.0, 50.0)"/><g font-size="12" font-family="Helvetica" transform="translate(50.0, 68.0)"><text x="400.0" y="400.0" transform="translate(-1.5, 0)"> </text><text x="0.0" y="400.0" transform="translate(-1.5, 0)"> </text><text x="33.33333333333333" y="400.0" transform="translate(-4.0, 0)">A</text><text x="66.66666666666666" y="400.0" transform="translate(-4.0, 0)">B</text><text x="100.0" y="400.0" transform="translate(-4.5, 0)">C</text><text x="133.33333333333331" y="400.0" transform="translate(-4.5, 0)">D</text><text x="166.66666666666669" y="400.0" transform="translate(-4.0, 0)">E</text><text x="200.0" y="400.0" transform="translate(-3.5, 0)">F</text><text x="233.33333333333334" y="400.0" transform="translate(-4.5, 0)">G</text><text x="266.66666666666663" y="400.0" transform="translate(-4.5, 0)">H</text><text x="300.0" y="400.0" transform="translate(-1.5, 0)">I</text><text x="333.33333333333337" y="400.0" transform="translate(-3.0, 0)">J</text><text x="366.66666666666663" y="400.0" transform="translate(-4.0, 0)">K</text><text x="400.0" y="400.0" transform="translate(-1.5, 0)"> </text></g></g><g opacity="0.8" transform="translate(-50.0, -50.0) rotate(180, 250.0, 250.0) scale(-1, 1) translate(-400.0, 0)"><g fill="white" stroke="#204C9E" stroke-width="2"><path d="M33.33333333333333 6.666666666666667 L66.66666666666666 10.0 L99.99999999999999 15.0 L133.33333333333331 22.5 L166.66666666666663 33.75 L200.0 50.625 L233.33333333333331 75.9375 L266.6666666666667 113.90625000000001 L299.99999999999994 170.859375 L333.3333333333333 256.2890625 L366.6666666666667 384.43359375" fill="none"/><circle cx="33.33333333333333" cy="6.666666666666667" r="4"/><circle cx="66.66666666666666" cy="10.0" r="4"/><circle cx="99.99999999999999" cy="15.0" r="4"/><circle cx="133.33333333333331" cy="22.5" r="4"/><circle cx="166.66666666666663" cy="33.75" r="4"/><circle cx="200.0" cy="50.625" r="4"/><circle cx="233.33333333333331" cy="75.9375" r="4"/><circle cx="266.6666666666667" cy="113.90625000000001" r="4"/><circle cx="299.99999999999994" cy="170.859375" r="4"/><circle cx="333.3333333333333" cy="256.2890625" r="4"/><circle cx="366.6666666666667" cy="384.43359375" r="4"/></g></g></svg>