<svg xmlns="http://www.w3.org/2000/svg" width="800" height="500" viewBox="0 0 800 500">
  <path fill="white" d="M0 0 h800 v500 h-800 v-500Z"/>
  <g class="plot">
    <path d="M120.0 75.0 h560.0 v350.0 h-560.0 v-350.0Z" fill="white" stroke="#bbb"/>
    <g x1="120.0" y1="75.0" transform="translate(120.0, 75.0)" class="plot-grid">
      <path stroke="#ccc" d="M0.0 0 v350.0z M43.07692307692308 0 v350.0z M86.15384615384616 0 v350.0z M129.23076923076923 0 v350.0z M172.30769230769232 0 v350.0z M215.38461538461542 0 v350.0z M258.46153846153845 0 v350.0z M301.53846153846155 0 v350.0z M344.61538461538464 0 v350.0z M387.69230769230774 0 v350.0z M430.76923076923083 0 v350.0z M473.84615384615387 0 v350.0z M516.9230769230769 0 v350.0z M0 134.50800592300098 h560.0z M0 83.47800592300098 h560.0z M0 32.44800592300098 h560.0z M0 236.56800592300098 h560.0z M0 287.598005923001 h560.0z"/>
    </g>
  </g>
  <g transform="rotate(180, 400.0, 250.0) translate(163.0769230769231, 239.46199407699902)">
    <g fill="white" stroke="#EF6F6C" stroke-width="2">
      <path d="M0.0 -82.92201382033564 L43.07692307692308 18.311944718657454 L86.15384615384616 31.441263573543928 L129.23076923076923 100.54294175715695 L172.30769230769232 33.85982230997038 L215.38461538461542 -164.46199407699902 L258.46153846153845 81.19447186574531 L301.53846153846155 108.1441263573544 L344.61538461538464 -51.82625863770977 L387.69230769230774 48.02566633761106 L430.76923076923083 46.29812438302073 L473.84615384615387 58.73642645607107" fill="none"/>
      <circle cx="0.0" cy="-82.92201382033564" r="4"/>
      <circle cx="43.07692307692308" cy="18.311944718657454" r="4"/>
      <circle cx="86.15384615384616" cy="31.441263573543928" r="4"/>
      <circle cx="129.23076923076923" cy="100.54294175715695" r="4"/>
      <circle cx="172.30769230769232" cy="33.85982230997038" r="4"/>
      <circle cx="215.38461538461542" cy="-164.46199407699902" r="4"/>
      <circle cx="258.46153846153845" cy="81.19447186574531" r="4"/>
      <circle cx="301.53846153846155" cy="108.1441263573544" r="4"/>
      <circle cx="344.61538461538464" cy="-51.82625863770977" r="4"/>
      <circle cx="387.69230769230774" cy="48.02566633761106" r="4"/>
      <circle cx="430.76923076923083" cy="46.29812438302073" r="4"/>
      <circle cx="473.84615384615387" cy="58.73642645607107" r="4"/>
    </g>
    <g fill="white" stroke="#477160" stroke-width="2">
      <path d="M0.0 81.19447186574531 L43.07692307692308 33.85982230997038 L86.15384615384616 65.3010858835143 L129.23076923076923 57.35439289239881 L172.30769230769232 -5.873642645607108 L215.38461538461542 73.93879565646594 L258.46153846153845 56.317867719644624 L301.53846153846155 185.53800592300098 L344.61538461538464 157.20631786771963 L387.69230769230774 11.056268509378084 L430.76923076923083 86.72260612043435 L473.84615384615387 17.275419545903258" fill="none"/>
      <circle cx="0.0" cy="81.19447186574531" r="4"/>
      <circle cx="43.07692307692308" cy="33.85982230997038" r="4"/>
      <circle cx="86.15384615384616" cy="65.3010858835143" r="4"/>
      <circle cx="129.23076923076923" cy="57.35439289239881" r="4"/>
      <circle cx="172.30769230769232" cy="-5.873642645607108" r="4"/>
      <circle cx="215.38461538461542" cy="73.93879565646594" r="4"/>
      <circle cx="258.46153846153845" cy="56.317867719644624" r="4"/>
      <circle cx="301.53846153846155" cy="185.53800592300098" r="4"/>
      <circle cx="344.61538461538464" cy="157.20631786771963" r="4"/>
      <circle cx="387.69230769230774" cy="11.056268509378084" r="4"/>
      <circle cx="430.76923076923083" cy="86.72260612043435" r="4"/>
      <circle cx="473.84615384615387" cy="17.275419545903258" r="4"/>
    </g>
  </g>
  <path d="M120.0 260.538005923001 h560.0z" stroke="black"/>
  <g>
    <g class="x-axis" transform="translate(120.0, 12)">
      <g font-size="12" font-family="Helvetica">
        <text x="43.07692307692308" y="425.0" transform="translate(-6.285714285714286, 0) rotate(44.114618548216676, 43.07692307692308, 425.0)">
          January
        </text>
        <text x="86.15384615384616" y="425.0" transform="translate(-6.125, 0) rotate(44.114618548216676, 86.15384615384616, 425.0)">
          February
        </text>
        <text x="129.23076923076923" y="425.0" transform="translate(-6.8, 0) rotate(44.114618548216676, 129.23076923076923, 425.0)">
          March
        </text>
        <text x="172.30769230769232" y="425.0" transform="translate(-5.0, 0) rotate(44.114618548216676, 172.30769230769232, 425.0)">
          April
        </text>
        <text x="215.38461538461542" y="425.0" transform="translate(-7.666666666666667, 0) rotate(44.114618548216676, 215.38461538461542, 425.0)">
          May
        </text>
        <text x="258.4615384615385" y="425.0" transform="translate(-6.75, 0) rotate(44.114618548216676, 258.4615384615385, 425.0)">
          June
        </text>
        <text x="301.53846153846155" y="425.0" transform="translate(-5.5, 0) rotate(44.114618548216676, 301.53846153846155, 425.0)">
          July
        </text>
        <text x="344.61538461538464" y="425.0" transform="translate(-6.333333333333333, 0) rotate(44.114618548216676, 344.61538461538464, 425.0)">
          August
        </text>
        <text x="387.69230769230774" y="425.0" transform="translate(-6.666666666666667, 0) rotate(44.114618548216676, 387.69230769230774, 425.0)">
          September
        </text>
        <text x="430.76923076923083" y="425.0" transform="translate(-6.142857142857143, 0) rotate(44.114618548216676, 430.76923076923083, 425.0)">
          October
        </text>
        <text x="473.8461538461539" y="425.0" transform="translate(-7.125, 0) rotate(44.114618548216676, 473.8461538461539, 425.0)">
          November
        </text>
        <text x="516.9230769230769" y="425.0" transform="translate(-7.125, 0) rotate(44.114618548216676, 516.9230769230769, 425.0)">
          December
        </text>
        <text x="560.0" y="425.0" transform="translate(-3.0, 0) rotate(44.114618548216676, 560.0, 425.0)">
        </text>
      </g>
    </g>
    <g class="y-axis" transform="translate(120.0, 75.0)">
      <g font-size="12" font-family="Helvetica">
        <text x="0" y="32.44800592300098" transform="translate(-33, 7.0)">
          443
        </text>
        <text x="0" y="83.47800592300098" transform="translate(-33, 7.0)">
          295
        </text>
        <text x="0" y="134.50800592300098" transform="translate(-33, 7.0)">
          148
        </text>
        <text x="0" y="236.56800592300098" transform="translate(-37, 7.0)">
          -148
        </text>
        <text x="0" y="287.598005923001" transform="translate(-37, 7.0)">
          -295
        </text>
        <text x="0" y="185.53800592300098" transform="translate(-19, 7.0)">
          0
        </text>
      </g>
    </g>
  </g>
  <text transform="translate(-93.5, 5.75)" font-family="Helvetica" font-weight="bold" font-size="20" x="400.0" y="37.5">
    Example Line Chart
  </text>
</svg>