<svg xmlns="http://www.w3.org/2000/svg" width="600" height="400" viewBox="0 0 600 400"><path fill="#FFFFFF" d="M0 0 h600 v400 h-600 v-400Z"/><text transform="translate(-158.0, 18)" fill="#444444" font-family="Arial" font-weight="normal" font-size="16" x="300.0" y="10.0">Monthly Revenue — Corner Coffee Co. ($K)</text><defs><clipPath id="plot-clip"><rect x="0" y="0" width="524.0" height="333.0"/></clipPath></defs><g><path stroke="#CCCCCC" stroke-dasharray="None" d="M0 0.0 h524.0 M0 66.60000000000001 h524.0 M0 133.20000000000002 h524.0 M0 199.79999999999998 h524.0 M0 266.40000000000003 h524.0 M0 333.0 h524.0" transform="translate(46.0, 47.0)"/><g font-size="12" font-family="Arial" fill="#444444" transform="translate(40.0, 47.0)"><text x="0" y="0.0" transform="translate(-14, 3.5)">45</text><text x="0" y="66.60000000000001" transform="translate(-14, 3.5)">36</text><text x="0" y="133.20000000000002" transform="translate(-14, 3.5)">27</text><text x="0" y="199.79999999999998" transform="translate(-14, 3.5)">18</text><text x="0" y="266.40000000000003" transform="translate(-7, 3.5)">9</text><text x="0" y="333.0" transform="translate(-7, 3.5)">0</text></g></g><g><path stroke="#CCCCCC" stroke-dasharray="None" d="M0.0 0 v333.0 M47.63636363636364 0 v333.0 M95.27272727272728 0 v333.0 M142.9090909090909 0 v333.0 M190.54545454545456 0 v333.0 M238.1818181818182 0 v333.0 M285.8181818181818 0 v333.0 M333.45454545454544 0 v333.0 M381.0909090909091 0 v333.0 M428.72727272727275 0 v333.0 M476.3636363636364 0 v333.0 M524.0 0 v333.0" transform="translate(46.0, 47.0)"/><g font-size="12" font-family="Arial" fill="#444444" transform="translate(46.0, 65.0)"><text x="0.0" y="333.0" transform="translate(-10.0, 0)">Jan</text><text x="47.63636363636364" y="333.0" transform="translate(-11.0, 0)">Feb</text><text x="95.27272727272728" y="333.0" transform="translate(-10.5, 0)">Mar</text><text x="142.9090909090909" y="333.0" transform="translate(-10.0, 0)">Apr</text><text x="190.54545454545456" y="333.0" transform="translate(-11.5, 0)">May</text><text x="238.1818181818182" y="333.0" transform="translate(-10.0, 0)">Jun</text><text x="285.8181818181818" y="333.0" transform="translate(-8.0, 0)">Jul</text><text x="333.45454545454544" y="333.0" transform="translate(-11.5, 0)">Aug</text><text x="381.0909090909091" y="333.0" transform="translate(-11.5, 0)">Sep</text><text x="428.72727272727275" y="333.0" transform="translate(-10.0, 0)">Oct</text><text x="476.3636363636364" y="333.0" transform="translate(-11.0, 0)">Nov</text><text x="524.0" y="333.0" transform="translate(-11.0, 0)">Dec</text></g></g><g opacity="0.8" transform="translate(-30.0, -20.0) rotate(180, 300.0, 200.0) scale(-1, 1) translate(-524.0, 0)"><g fill="white" stroke="#5fab9e" stroke-width="2"><path d="M0.0 133.2 L47.6 162.8 L95.3 140.6 L142.9 185.0 L190.5 207.2 L238.2 236.8 L285.8 259.0 L333.5 281.2 L381.1 222.0 L428.7 199.8 L476.4 177.6 L524.0 310.8" fill="none"/></g><text x="524.0" y="294.8" fill="#444444" font-size="12" font-family="Arial" text-anchor="middle" transform="translate(524.0,294.8) scale(1,-1) translate(-524.0,-294.8)">$42K</text></g><g><rect transform="translate(-15.75, -3.5)" x="487.25" y="54.5" width="94.5" height="21.0" fill="#f5f5f5" stroke="#d7d7d7"/><g><rect y="55.5" x="487.25" width="12" height="12" fill="#5fab9e"/><text y="64.5" x="501.25" font-size="12" font-family="Arial" fill="#444444">Revenue</text></g></g><path d="M46.0 47.0 v333.0 M46.0 380.0 h524.0" stroke="#999" stroke-width="1.5" fill="none"/><g transform="translate(46.0, 47.0)"><path d="M0 123.57999999999998 h524.0" stroke="#666" stroke-width="1.5" stroke-dasharray="6 3" fill="none"/></g><text x="14" y="213.5" fill="#444444" font-size="14" font-family="Arial" text-anchor="middle" transform="rotate(-90, 14, 213.5)">Revenue ($K)</text></svg>