<svg xmlns="http://www.w3.org/2000/svg" width="720" height="440" viewBox="0 0 720 440"><path fill="#FFFFFF" d="M0 0 h720 v440 h-720 v-440Z"/><text transform="translate(-167.5, 18)" fill="#444444" font-family="Arial" font-weight="bold" font-size="16" x="360.0" y="11.0">Monthly Active Users (K) — Actual vs Forecast</text><defs><clipPath id="plot-clip"><rect x="0" y="0" width="648.0" height="336.0"/></clipPath></defs><g><path stroke="#cccccc" stroke-dasharray="None" d="M0 0.0 h648.0 M0 67.2 h648.0 M0 134.4 h648.0 M0 201.6 h648.0 M0 268.8 h648.0 M0 336.0 h648.0" transform="translate(36.0, 49.0)"/><g font-size="12" font-family="Arial" fill="#000000" transform="translate(30.0, 49.0)"><text x="0" y="0.0" transform="translate(-21, 3.5)">150</text><text x="0" y="67.2" transform="translate(-21, 3.5)">120</text><text x="0" y="134.4" transform="translate(-14, 3.5)">90</text><text x="0" y="201.6" transform="translate(-14, 3.5)">60</text><text x="0" y="268.8" transform="translate(-14, 3.5)">30</text><text x="0" y="336.0" transform="translate(-7, 3.5)">0</text></g></g><g><path stroke="#cccccc" stroke-dasharray="None" d="M0.0 0 v336.0 M58.909090909090914 0 v336.0 M117.81818181818183 0 v336.0 M176.72727272727272 0 v336.0 M235.63636363636365 0 v336.0 M294.54545454545456 0 v336.0 M353.45454545454544 0 v336.0 M412.3636363636364 0 v336.0 M471.2727272727273 0 v336.0 M530.1818181818182 0 v336.0 M589.0909090909091 0 v336.0 M648.0 0 v336.0" transform="translate(36.0, 49.0)"/><g font-size="12" font-family="Arial" fill="#000000" transform="translate(36.0, 67.0)"><text x="0.0" y="336.0" transform="translate(-10.0, 0)">Jan</text><text x="58.909090909090914" y="336.0" transform="translate(-11.0, 0)">Feb</text><text x="117.81818181818183" y="336.0" transform="translate(-10.5, 0)">Mar</text><text x="176.72727272727272" y="336.0" transform="translate(-10.0, 0)">Apr</text><text x="235.63636363636365" y="336.0" transform="translate(-11.5, 0)">May</text><text x="294.54545454545456" y="336.0" transform="translate(-10.0, 0)">Jun</text><text x="353.45454545454544" y="336.0" transform="translate(-8.0, 0)">Jul</text><text x="412.3636363636364" y="336.0" transform="translate(-11.5, 0)">Aug</text><text x="471.2727272727273" y="336.0" transform="translate(-11.5, 0)">Sep</text><text x="530.1818181818182" y="336.0" transform="translate(-10.0, 0)">Oct</text><text x="589.0909090909091" y="336.0" transform="translate(-11.0, 0)">Nov</text><text x="648.0" y="336.0" transform="translate(-11.0, 0)">Dec</text></g></g><g opacity="0.8" transform="translate(-36.0, -55.0) rotate(180, 360.0, 220.0) scale(-1, 1) translate(-648.0, 0)"><g fill="white" stroke="#5fab9e" stroke-width="2.5"><path d="M0.0 94.1 L58.9 107.5 L117.8 123.2 L176.7 136.6 L235.6 129.9 L294.5 156.8 L353.5 179.2 L412.4 174.7 L471.3 190.4 L530.2 206.1 L589.1 197.1 L648.0 224.0" fill="none"/></g><g fill="white" stroke="#f58b51" stroke-width="2.5" stroke-dasharray="6,4"><path d="M0.0 89.6 L58.9 105.3 L117.8 118.7 L176.7 134.4 L235.6 141.1 L294.5 159.0 L353.5 177.0 L412.4 188.2 L471.3 201.6 L530.2 215.0 L589.1 230.7 L648.0 246.4" fill="none"/></g></g><g><rect x="293.5" y="418.0" width="11.0" height="11.0" fill="#5fab9e"/><text x="310.5" y="427.35" fill="#444444" font-size="11" font-family="Arial" text-anchor="start">Actual</text><rect x="361.5" y="418.0" width="11.0" height="11.0" fill="#f58b51"/><text x="378.5" y="427.35" fill="#444444" font-size="11" font-family="Arial" text-anchor="start">Forecast</text></g><path d="M36.0 49.0 v336.0 M36.0 385.0 h648.0" stroke="#999" stroke-width="1.5" fill="none"/></svg>