<svg xmlns="http://www.w3.org/2000/svg" width="700" height="400" viewBox="0 0 700 400"><path fill="#FFFFFF" d="M0 0 h700 v400 h-700 v-400Z"/><text transform="translate(-97.35500000000002, 19)" fill="#444444" font-family="DejaVu Sans, sans-serif" font-weight="bold" font-size="16" x="350.0" y="10.0">Requests/sec (log scale)</text><defs><clipPath id="plot-clip"><rect x="0" y="0" width="591.85" height="331.5"/></clipPath></defs><g><path stroke="#cccccc" stroke-dasharray="None" d="M0 301.50479483243043 h591.85 M0 226.12859612432283 h591.85 M0 150.75239741621522 h591.85 M0 75.37619870810761 h591.85 M0 0.0 h591.85" transform="translate(73.15, 48.5)"/><g font-size="12" font-family="DejaVu Sans, sans-serif" fill="#000000" transform="translate(67.15, 48.5)"><text x="0" y="301.50479483243043" transform="translate(-7.63, 3.5)">1</text><text x="0" y="226.12859612432283" transform="translate(-15.26, 3.5)">10</text><text x="0" y="150.75239741621522" transform="translate(-22.89, 3.5)">100</text><text x="0" y="75.37619870810761" transform="translate(-30.52, 3.5)">1000</text><text x="0" y="0.0" transform="translate(-38.15, 3.5)">10000</text></g></g><g><path stroke="#cccccc" stroke-dasharray="None" d="M0.0 0 v331.5 M118.37 0 v331.5 M236.74 0 v331.5 M355.11 0 v331.5 M473.48 0 v331.5 M591.85 0 v331.5" transform="translate(73.15, 48.5)"/><g font-size="12" font-family="DejaVu Sans, sans-serif" fill="#000000" transform="translate(73.15, 66.5)"><text x="0.0" y="331.5" transform="translate(-6.17, 0)">t0</text><text x="118.37" y="331.5" transform="translate(-6.17, 0)">t1</text><text x="236.74" y="331.5" transform="translate(-6.17, 0)">t2</text><text x="355.11" y="331.5" transform="translate(-6.17, 0)">t3</text><text x="473.48" y="331.5" transform="translate(-6.17, 0)">t4</text><text x="591.85" y="331.5" transform="translate(-6.17, 0)">t5</text></g></g><g opacity="0.8" transform="translate(-35.0, -20.0) rotate(180, 350.0, 200.0) scale(-1, 1) translate(-591.85, 0)"><g fill="white" stroke="#5fab9e" stroke-width="2"><path d="M0.0 0.0 L118.4 68.1 L236.7 134.0 L355.1 200.0 L473.5 264.2 L591.9 331.5" fill="none"/></g></g><g><rect transform="translate(-2.41725, -1.275)" x="626.35275" y="53.775" width="37.0645" height="19.549999999999997" fill="#f5f5f5" fill-opacity="0.85" stroke="none"/><g><rect y="55.775" x="626.35275" width="13" height="13" fill="#5fab9e"/><text y="65.525" x="641.35275" font-size="13" font-family="DejaVu Sans, sans-serif" fill="#444444">rps</text></g></g><path d="M73.15 48.5 v331.5 M73.15 380.0 h591.85" stroke="#999" stroke-width="1.5" fill="none"/></svg>