<svg xmlns="http://www.w3.org/2000/svg" width="600" height="400" viewBox="0 0 600 400"><path fill="#FFFFFF" d="M0 0 h600 v400 h-600 v-400Z"/><text transform="translate(-201.5, 30)" fill="#444444" font-family="JetBrains Mono" font-weight="normal" font-size="16" x="300.0" y="10.0">Stock Price (Normalized to 100)</text><defs><clipPath id="plot-clip"><rect x="0" y="0" width="540.0" height="315.0"/></clipPath></defs><g><path stroke="#CCCCCC" stroke-dasharray="None" d="M0 0.0 h540.0 M0 63.0 h540.0 M0 126.0 h540.0 M0 189.0 h540.0 M0 252.0 h540.0 M0 315.0 h540.0" transform="translate(30.0, 65.0)"/><g font-size="12" font-family="Arial" fill="#444444" transform="translate(24.0, 65.0)"><text x="0" y="0.0" transform="translate(-21, 3.5)">150</text><text x="0" y="63.0" transform="translate(-21, 3.5)">120</text><text x="0" y="126.0" transform="translate(-14, 3.5)">90</text><text x="0" y="189.0" transform="translate(-14, 3.5)">60</text><text x="0" y="252.0" transform="translate(-14, 3.5)">30</text><text x="0" y="315.0" transform="translate(-7, 3.5)">0</text></g></g><g><path stroke="#CCCCCC" stroke-dasharray="None" d="M0.0 0 v315.0 M49.09090909090909 0 v315.0 M98.18181818181819 0 v315.0 M147.27272727272725 0 v315.0 M196.36363636363637 0 v315.0 M245.45454545454544 0 v315.0 M294.5454545454545 0 v315.0 M343.6363636363636 0 v315.0 M392.72727272727275 0 v315.0 M441.81818181818187 0 v315.0 M490.9090909090909 0 v315.0 M540.0 0 v315.0" transform="translate(30.0, 65.0)"/><g font-size="12" font-family="Arial" fill="#444444" transform="translate(30.0, 83.0)"><text x="0.0" y="315.0" transform="translate(-10.0, 0)">Jan</text><text x="49.09090909090909" y="315.0" transform="translate(-11.0, 0)">Feb</text><text x="98.18181818181819" y="315.0" transform="translate(-10.5, 0)">Mar</text><text x="147.27272727272725" y="315.0" transform="translate(-10.0, 0)">Apr</text><text x="196.36363636363637" y="315.0" transform="translate(-11.5, 0)">May</text><text x="245.45454545454544" y="315.0" transform="translate(-10.0, 0)">Jun</text><text x="294.5454545454545" y="315.0" transform="translate(-8.0, 0)">Jul</text><text x="343.6363636363636" y="315.0" transform="translate(-11.5, 0)">Aug</text><text x="392.72727272727275" y="315.0" transform="translate(-11.5, 0)">Sep</text><text x="441.81818181818187" y="315.0" transform="translate(-10.0, 0)">Oct</text><text x="490.9090909090909" y="315.0" transform="translate(-11.0, 0)">Nov</text><text x="540.0" y="315.0" transform="translate(-11.0, 0)">Dec</text></g></g><g opacity="0.8" transform="translate(-30.0, -20.0) rotate(180, 300.0, 200.0) scale(-1, 1) translate(-540.0, 0)"><g fill="white" stroke="#5fab9e" stroke-width="2"><path d="M0.0 210.0 L49.1 220.5 L98.2 205.8 L147.3 235.2 L196.4 252.0 L245.5 241.5 L294.5 262.5 L343.6 273.0 L392.7 268.8 L441.8 294.0 L490.9 289.8 L540.0 315.0" fill="none"/></g><g fill="white" stroke="#f58b51" stroke-width="2"><path d="M0.0 210.0 L49.1 203.7 L98.2 214.2 L147.3 226.8 L196.4 218.4 L245.5 231.0 L294.5 241.5 L343.6 235.2 L392.7 247.8 L441.8 256.2 L490.9 262.5 L540.0 273.0" fill="none"/></g><g fill="white" stroke="#f7dd72" stroke-width="2"><path d="M0.0 210.0 L49.1 216.3 L98.2 222.6 L147.3 218.4 L196.4 226.8 L245.5 235.2 L294.5 231.0 L343.6 241.5 L392.7 252.0 L441.8 247.8 L490.9 256.2 L540.0 268.8" fill="none"/></g></g><g><rect transform="translate(-19.5, -10.5)" x="468.5" y="79.5" width="117.0" height="63.0" fill="#f5f5f5" stroke="#d7d7d7"/><g><rect y="82.5" x="468.5" width="12" height="12" fill="#5fab9e"/><text y="91.5" x="482.5" font-size="12" font-family="Arial" fill="#444444">ACME Corp</text></g><g><rect y="94.5" x="468.5" width="12" height="12" fill="#f58b51"/><text y="103.5" x="482.5" font-size="12" font-family="Arial" fill="#444444">Globex Inc</text></g><g><rect y="106.5" x="468.5" width="12" height="12" fill="#f7dd72"/><text y="115.5" x="482.5" font-size="12" font-family="Arial" fill="#444444">Initech</text></g></g><path d="M30.0 65.0 v315.0 M30.0 380.0 h540.0" stroke="#999" stroke-width="1.5" fill="none"/></svg>