<svg xmlns="http://www.w3.org/2000/svg" width="700" height="400" viewBox="0 0 700 400"><path fill="white" d="M0 0 h700 v400 h-700 v-400Z"/><text transform="translate(-120.5, 18)" fill="#444444" font-family="Arial" font-weight="bold" font-size="16" x="350.0" y="10.0">Temperature Trend (25% labels)</text><g><path stroke="#CCCCCC" stroke-dasharray="None" d="M0 0.0 h605.0 M0 66.60000000000001 h605.0 M0 133.20000000000002 h605.0 M0 199.79999999999998 h605.0 M0 266.40000000000003 h605.0 M0 333.0 h605.0" transform="translate(60.0, 47.0)"/><g font-size="12" font-family="Arial" transform="translate(54.0, 47.0)"><text x="0" y="0.0" transform="translate(-14, 3.5)">35</text><text x="0" y="66.60000000000001" transform="translate(-14, 3.5)">28</text><text x="0" y="133.20000000000002" transform="translate(-14, 3.5)">21</text><text x="0" y="199.79999999999998" transform="translate(-14, 3.5)">14</text><text x="0" y="266.40000000000003" transform="translate(-7, 3.5)">7</text><text x="0" y="333.0" transform="translate(-7, 3.5)">0</text></g></g><g><path stroke="#CCCCCC" stroke-dasharray="None" d="M0.0 0 v333.0 M46.53846153846154 0 v333.0 M93.07692307692308 0 v333.0 M139.6153846153846 0 v333.0 M186.15384615384616 0 v333.0 M232.6923076923077 0 v333.0 M279.2307692307692 0 v333.0 M325.7692307692308 0 v333.0 M372.3076923076923 0 v333.0 M418.8461538461538 0 v333.0 M465.3846153846154 0 v333.0 M511.9230769230769 0 v333.0 M558.4615384615385 0 v333.0 M605.0 0 v333.0" transform="translate(60.0, 47.0)"/><g font-size="12" font-family="Arial" transform="translate(60.0, 65.0)"><text x="0.0" y="333.0" transform="translate(-2.0, 0)"> </text><text x="46.53846153846154" y="333.0" transform="translate(-10.0, 0)">Jan</text><text x="93.07692307692308" y="333.0" transform="translate(-11.0, 0)">Feb</text><text x="139.6153846153846" y="333.0" transform="translate(-10.5, 0)">Mar</text><text x="186.15384615384616" y="333.0" transform="translate(-10.0, 0)">Apr</text><text x="232.6923076923077" y="333.0" transform="translate(-11.5, 0)">May</text><text x="279.2307692307692" y="333.0" transform="translate(-10.0, 0)">Jun</text><text x="325.7692307692308" y="333.0" transform="translate(-8.0, 0)">Jul</text><text x="372.3076923076923" y="333.0" transform="translate(-11.5, 0)">Aug</text><text x="418.8461538461538" y="333.0" transform="translate(-11.5, 0)">Sep</text><text x="465.3846153846154" y="333.0" transform="translate(-10.0, 0)">Oct</text><text x="511.9230769230769" y="333.0" transform="translate(-11.0, 0)">Nov</text><text x="558.4615384615385" y="333.0" transform="translate(-11.0, 0)">Dec</text><text x="605.0" y="333.0" transform="translate(-2.0, 0)"> </text></g></g><g opacity="0.8" transform="translate(-35.0, -20.0) rotate(180, 350.0, 200.0) scale(-1, 1) translate(-605.0, 0)"><g fill="white" stroke="#5fab9e" stroke-width="2"><path d="M46.53846153846154 209.31428571428572 L93.07692307692308 228.34285714285716 L139.6153846153846 218.82857142857142 L186.15384615384616 237.85714285714286 L232.6923076923077 256.8857142857143 L279.2307692307692 247.37142857142857 L325.7692307692308 266.40000000000003 L372.3076923076923 285.4285714285714 L418.84615384615387 275.9142857142857 L465.38461538461536 294.9428571428571 L511.92307692307696 313.9714285714286 L558.4615384615385 304.45714285714286" fill="none"/><circle cx="46.53846153846154" cy="209.31428571428572" r="3"/><circle cx="93.07692307692308" cy="228.34285714285716" r="3"/><circle cx="139.6153846153846" cy="218.82857142857142" r="3"/><circle cx="186.15384615384616" cy="237.85714285714286" r="3"/><circle cx="232.6923076923077" cy="256.8857142857143" r="3"/><circle cx="279.2307692307692" cy="247.37142857142857" r="3"/><circle cx="325.7692307692308" cy="266.40000000000003" r="3"/><circle cx="372.3076923076923" cy="285.4285714285714" r="3"/><circle cx="418.84615384615387" cy="275.9142857142857" r="3"/><circle cx="465.38461538461536" cy="294.9428571428571" r="3"/><circle cx="511.92307692307696" cy="313.9714285714286" r="3"/><circle cx="558.4615384615385" cy="304.45714285714286" r="3"/></g></g></svg>