<svg xmlns="http://www.w3.org/2000/svg" width="500" height="500" viewBox="0 0 500 500"><path fill="white" d="M0 0 h500 v500 h-500 v-500Z"/><text transform="translate(-106.0, 19)" fill="#444444" font-family="Helvetica" font-weight="bold" font-size="16" x="250.0" y="30.0">Example Labelled Line Graph</text><g><path stroke="#CCCCCC" stroke-dasharray="None" d="M0 351.5 h359.0 M0 281.2 h359.0 M0 210.9 h359.0 M0 140.6 h359.0 M0 70.3 h359.0 M0 0.0 h359.0" transform="translate(81.0, 88.5)"/><g font-size="12" font-family="Helvetica" transform="translate(81.0, 88.5)"><text x="0" y="351.5" transform="translate(-6, -7.0)">300</text><text x="0" y="281.2" transform="translate(-6, -7.0)">240</text><text x="0" y="210.9" transform="translate(-6, -7.0)">180</text><text x="0" y="140.6" transform="translate(-6, -7.0)">120</text><text x="0" y="70.3" transform="translate(-6, -7.0)">60</text><text x="0" y="0.0" transform="translate(-6, -7.0)">0</text></g></g><g><path stroke="#CCCCCC" stroke-dasharray="None" d="M0.0 0 v351.5 M29.916666666666664 0 v351.5 M59.83333333333333 0 v351.5 M89.75 0 v351.5 M119.66666666666666 0 v351.5 M149.58333333333334 0 v351.5 M179.5 0 v351.5 M209.41666666666669 0 v351.5 M239.33333333333331 0 v351.5 M269.25 0 v351.5 M299.1666666666667 0 v351.5 M329.0833333333333 0 v351.5 M359.0 0 v351.5" transform="translate(81.0, 88.5)"/><g font-size="12" font-family="Helvetica" transform="translate(81.0, 106.5)"><text x="0.0" y="351.5" transform="translate(-1.5, 0)"> </text><text x="29.916666666666664" y="351.5" transform="translate(-4.0, 0)">A</text><text x="59.83333333333333" y="351.5" transform="translate(-4.0, 0)">B</text><text x="89.75" y="351.5" transform="translate(-4.5, 0)">C</text><text x="119.66666666666666" y="351.5" transform="translate(-4.5, 0)">D</text><text x="149.58333333333334" y="351.5" transform="translate(-4.0, 0)">E</text><text x="179.5" y="351.5" transform="translate(-3.5, 0)">F</text><text x="209.41666666666669" y="351.5" transform="translate(-4.5, 0)">G</text><text x="239.33333333333331" y="351.5" transform="translate(-4.5, 0)">H</text><text x="269.25" y="351.5" transform="translate(-1.5, 0)">I</text><text x="299.1666666666667" y="351.5" transform="translate(-3.0, 0)">J</text><text x="329.0833333333333" y="351.5" transform="translate(-4.0, 0)">K</text><text x="359.0" y="351.5" transform="translate(-1.5, 0)"> </text></g></g><g opacity="0.8" transform="translate(-60.0, -60.0) rotate(180, 250.0, 250.0) scale(-1, 1) translate(-359.0, 0)"><g fill="white" stroke="#204C9E" stroke-width="2"><path d="M0.0 5.858333333333333 L29.916666666666664 8.7875 L59.83333333333333 13.18125 L89.75 19.771875 L119.66666666666666 29.657812500000002 L149.58333333333334 44.48671875 L179.5 66.730078125 L209.41666666666669 100.09511718750001 L239.33333333333331 150.14267578125 L269.25 225.214013671875 L299.1666666666667 337.8210205078125" fill="none"/><circle cx="0.0" cy="5.858333333333333" r="3"/><circle cx="29.916666666666664" cy="8.7875" r="3"/><circle cx="59.83333333333333" cy="13.18125" r="3"/><circle cx="89.75" cy="19.771875" r="3"/><circle cx="119.66666666666666" cy="29.657812500000002" r="3"/><circle cx="149.58333333333334" cy="44.48671875" r="3"/><circle cx="179.5" cy="66.730078125" r="3"/><circle cx="209.41666666666669" cy="100.09511718750001" r="3"/><circle cx="239.33333333333331" cy="150.14267578125" r="3"/><circle cx="269.25" cy="225.214013671875" r="3"/><circle cx="299.1666666666667" cy="337.8210205078125" r="3"/></g></g></svg>