<svg xmlns="http://www.w3.org/2000/svg" width="700" height="400" viewBox="0 0 700 400"><path fill="white" d="M0 0 h700 v400 h-700 v-400Z"/><text transform="translate(-87.5, 19)" fill="#444444" font-family="Helvetica" font-weight="bold" font-size="16" x="350.0" y="10.0">Monthly Active Users (K)</text><g><path stroke="#CCCCCC" stroke-dasharray="None" d="M0 0.0 h599.0 M0 66.3 h599.0 M0 132.6 h599.0 M0 198.9 h599.0 M0 265.2 h599.0 M0 331.5 h599.0" transform="translate(66.0, 48.5)"/><g font-size="12" font-family="Helvetica" transform="translate(60.0, 48.5)"><text x="0" y="0.0" transform="translate(-21, 3.5)">100</text><text x="0" y="66.3" transform="translate(-14, 3.5)">80</text><text x="0" y="132.6" transform="translate(-14, 3.5)">60</text><text x="0" y="198.9" transform="translate(-14, 3.5)">40</text><text x="0" y="265.2" transform="translate(-14, 3.5)">20</text><text x="0" y="331.5" transform="translate(-7, 3.5)">0</text></g></g><g><path stroke="#CCCCCC" stroke-dasharray="None" d="M0.0 0 v331.5 M46.07692307692308 0 v331.5 M92.15384615384616 0 v331.5 M138.23076923076923 0 v331.5 M184.30769230769232 0 v331.5 M230.3846153846154 0 v331.5 M276.46153846153845 0 v331.5 M322.53846153846155 0 v331.5 M368.61538461538464 0 v331.5 M414.6923076923077 0 v331.5 M460.7692307692308 0 v331.5 M506.84615384615387 0 v331.5 M552.9230769230769 0 v331.5 M599.0 0 v331.5" transform="translate(66.0, 48.5)"/><g font-size="12" font-family="Helvetica" transform="translate(66.0, 66.5)"><text x="0.0" y="331.5" transform="translate(-1.5, 0)"> </text><text x="46.07692307692308" y="331.5" transform="translate(-10.0, 0)">Jan</text><text x="92.15384615384616" y="331.5" transform="translate(-10.5, 0)">Feb</text><text x="138.23076923076923" y="331.5" transform="translate(-10.5, 0)">Mar</text><text x="184.30769230769232" y="331.5" transform="translate(-9.5, 0)">Apr</text><text x="230.3846153846154" y="331.5" transform="translate(-11.5, 0)">May</text><text x="276.46153846153845" y="331.5" transform="translate(-10.0, 0)">Jun</text><text x="322.53846153846155" y="331.5" transform="translate(-8.0, 0)">Jul</text><text x="368.61538461538464" y="331.5" transform="translate(-11.0, 0)">Aug</text><text x="414.6923076923077" y="331.5" transform="translate(-11.0, 0)">Sep</text><text x="460.7692307692308" y="331.5" transform="translate(-9.0, 0)">Oct</text><text x="506.84615384615387" y="331.5" transform="translate(-11.0, 0)">Nov</text><text x="552.9230769230769" y="331.5" transform="translate(-11.0, 0)">Dec</text><text x="599.0" y="331.5" transform="translate(-1.5, 0)"> </text></g></g><g opacity="0.8" transform="translate(-35.0, -20.0) rotate(180, 350.0, 200.0) scale(-1, 1) translate(-599.0, 0)"><g fill="white" stroke="#5fab9e" stroke-width="2"><path d="M46.07692307692308 139.23 L92.15384615384616 159.12 L138.23076923076923 182.32500000000002 L184.30769230769232 202.215 L230.38461538461542 192.26999999999998 L276.46153846153845 232.04999999999998 L322.53846153846155 265.2 L368.61538461538464 258.57 L414.69230769230774 281.775 L460.7692307692308 304.98 L506.84615384615387 291.72 L552.9230769230769 331.5" fill="none"/><circle cx="46.07692307692308" cy="139.23" r="3"/><circle cx="92.15384615384616" cy="159.12" r="3"/><circle cx="138.23076923076923" cy="182.32500000000002" r="3"/><circle cx="184.30769230769232" cy="202.215" r="3"/><circle cx="230.38461538461542" cy="192.26999999999998" r="3"/><circle cx="276.46153846153845" cy="232.04999999999998" r="3"/><circle cx="322.53846153846155" cy="265.2" r="3"/><circle cx="368.61538461538464" cy="258.57" r="3"/><circle cx="414.69230769230774" cy="281.775" r="3"/><circle cx="460.7692307692308" cy="304.98" r="3"/><circle cx="506.84615384615387" cy="291.72" r="3"/><circle cx="552.9230769230769" cy="331.5" r="3"/></g></g><g><rect transform="translate(-5.125, -1.875)" x="614.875" y="54.375" width="51.25" height="18.75" fill="#ffffff" stroke="#CCCCCC"/><g transform="translate(0, 13)"><rect y="41.375" x="614.875" width="13" height="13" fill="#5fab9e"/><text y="51.125" x="629.875" font-size="11" font-family="Helvetica">MAU</text></g></g></svg>