<svg xmlns="http://www.w3.org/2000/svg" width="500" height="500" viewBox="0 0 500 500"><path fill="white" d="M0 0 h500 v500 h-500 v-500Z"/><text transform="translate(-106.0, 19)" fill="#444444" font-family="Helvetica" font-weight="bold" font-size="16" x="250.0" y="12.5">Example Labelled Line Graph</text><g><path stroke="#CCCCCC" stroke-dasharray="None" d="M0 0.0 h419.0 M0 84.30000000000001 h419.0 M0 168.60000000000002 h419.0 M0 252.89999999999998 h419.0 M0 337.20000000000005 h419.0 M0 421.5 h419.0" transform="translate(56.0, 53.5)"/><g font-size="12" font-family="Helvetica" transform="translate(50.0, 53.5)"><text x="0" y="0.0" transform="translate(-21, 3.5)">300</text><text x="0" y="84.30000000000001" transform="translate(-21, 3.5)">240</text><text x="0" y="168.60000000000002" transform="translate(-21, 3.5)">180</text><text x="0" y="252.89999999999998" transform="translate(-21, 3.5)">120</text><text x="0" y="337.20000000000005" transform="translate(-14, 3.5)">60</text><text x="0" y="421.5" transform="translate(-7, 3.5)">0</text></g></g><g><path stroke="#CCCCCC" stroke-dasharray="None" d="M0.0 0 v421.5 M34.916666666666664 0 v421.5 M69.83333333333333 0 v421.5 M104.75 0 v421.5 M139.66666666666666 0 v421.5 M174.58333333333334 0 v421.5 M209.5 0 v421.5 M244.41666666666669 0 v421.5 M279.3333333333333 0 v421.5 M314.25 0 v421.5 M349.1666666666667 0 v421.5 M384.0833333333333 0 v421.5 M419.0 0 v421.5" transform="translate(56.0, 53.5)"/><g font-size="12" font-family="Helvetica" transform="translate(56.0, 71.5)"><text x="0.0" y="421.5" transform="translate(-1.5, 0)"> </text><text x="34.916666666666664" y="421.5" transform="translate(-4.0, 0)">A</text><text x="69.83333333333333" y="421.5" transform="translate(-4.0, 0)">B</text><text x="104.75" y="421.5" transform="translate(-4.5, 0)">C</text><text x="139.66666666666666" y="421.5" transform="translate(-4.5, 0)">D</text><text x="174.58333333333334" y="421.5" transform="translate(-4.0, 0)">E</text><text x="209.5" y="421.5" transform="translate(-3.5, 0)">F</text><text x="244.41666666666669" y="421.5" transform="translate(-4.5, 0)">G</text><text x="279.3333333333333" y="421.5" transform="translate(-4.5, 0)">H</text><text x="314.25" y="421.5" transform="translate(-1.5, 0)">I</text><text x="349.1666666666667" y="421.5" transform="translate(-3.0, 0)">J</text><text x="384.0833333333333" y="421.5" transform="translate(-4.0, 0)">K</text><text x="419.0" y="421.5" transform="translate(-1.5, 0)"> </text></g></g><g opacity="0.8" transform="translate(-25.0, -25.0) rotate(180, 250.0, 250.0) scale(-1, 1) translate(-419.0, 0)"><g fill="white" stroke="#204C9E" stroke-width="2"><path d="M34.916666666666664 7.0249999999999995 L69.83333333333333 10.537500000000001 L104.75 15.806249999999999 L139.66666666666666 23.709375 L174.58333333333331 35.564062500000006 L209.5 53.346093749999994 L244.41666666666666 80.019140625 L279.33333333333337 120.02871093750001 L314.25 180.04306640624998 L349.1666666666667 270.064599609375 L384.08333333333337 405.0968994140625" fill="none"/><circle cx="34.916666666666664" cy="7.0249999999999995" r="3"/><circle cx="69.83333333333333" cy="10.537500000000001" r="3"/><circle cx="104.75" cy="15.806249999999999" r="3"/><circle cx="139.66666666666666" cy="23.709375" r="3"/><circle cx="174.58333333333331" cy="35.564062500000006" r="3"/><circle cx="209.5" cy="53.346093749999994" r="3"/><circle cx="244.41666666666666" cy="80.019140625" r="3"/><circle cx="279.33333333333337" cy="120.02871093750001" r="3"/><circle cx="314.25" cy="180.04306640624998" r="3"/><circle cx="349.1666666666667" cy="270.064599609375" r="3"/><circle cx="384.08333333333337" cy="405.0968994140625" r="3"/></g></g></svg>