<svg xmlns="http://www.w3.org/2000/svg" width="700" height="400" viewBox="0 0 700 400"><path fill="white" d="M0 0 h700 v400 h-700 v-400Z"/><text transform="translate(-120.5, 18)" fill="#444444" font-family="Arial" font-weight="bold" font-size="16" x="350.0" y="10.0">Temperature Trend (25% labels)</text><g><path stroke="#CCCCCC" stroke-dasharray="None" d="M0 0.0 h630.0 M0 66.60000000000001 h630.0 M0 133.20000000000002 h630.0 M0 199.79999999999998 h630.0 M0 266.40000000000003 h630.0 M0 333.0 h630.0" transform="translate(35.0, 47.0)"/><g font-size="12" font-family="Arial" transform="translate(29.0, 47.0)"><text x="0" y="0.0" transform="translate(-14, 3.5)">35</text><text x="0" y="66.60000000000001" transform="translate(-14, 3.5)">28</text><text x="0" y="133.20000000000002" transform="translate(-14, 3.5)">21</text><text x="0" y="199.79999999999998" transform="translate(-14, 3.5)">14</text><text x="0" y="266.40000000000003" transform="translate(-7, 3.5)">7</text><text x="0" y="333.0" transform="translate(-7, 3.5)">0</text></g></g><g><path stroke="#CCCCCC" stroke-dasharray="None" d="M0.0 0 v333.0 M48.46153846153847 0 v333.0 M96.92307692307693 0 v333.0 M145.3846153846154 0 v333.0 M193.84615384615387 0 v333.0 M242.30769230769232 0 v333.0 M290.7692307692308 0 v333.0 M339.2307692307692 0 v333.0 M387.69230769230774 0 v333.0 M436.15384615384613 0 v333.0 M484.61538461538464 0 v333.0 M533.0769230769231 0 v333.0 M581.5384615384615 0 v333.0 M630.0 0 v333.0" transform="translate(35.0, 47.0)"/><g font-size="12" font-family="Arial" transform="translate(35.0, 65.0)"><text x="0.0" y="333.0" transform="translate(-2.0, 0)"> </text><text x="48.46153846153847" y="333.0" transform="translate(-10.0, 0)">Jan</text><text x="96.92307692307693" y="333.0" transform="translate(-11.0, 0)">Feb</text><text x="145.3846153846154" y="333.0" transform="translate(-10.5, 0)">Mar</text><text x="193.84615384615387" y="333.0" transform="translate(-10.0, 0)">Apr</text><text x="242.30769230769232" y="333.0" transform="translate(-11.5, 0)">May</text><text x="290.7692307692308" y="333.0" transform="translate(-10.0, 0)">Jun</text><text x="339.2307692307692" y="333.0" transform="translate(-8.0, 0)">Jul</text><text x="387.69230769230774" y="333.0" transform="translate(-11.5, 0)">Aug</text><text x="436.15384615384613" y="333.0" transform="translate(-11.5, 0)">Sep</text><text x="484.61538461538464" y="333.0" transform="translate(-10.0, 0)">Oct</text><text x="533.0769230769231" y="333.0" transform="translate(-11.0, 0)">Nov</text><text x="581.5384615384615" y="333.0" transform="translate(-11.0, 0)">Dec</text><text x="630.0" y="333.0" transform="translate(-2.0, 0)"> </text></g></g><g opacity="0.8" transform="translate(-35.0, -20.0) rotate(180, 350.0, 200.0) scale(-1, 1) translate(-630.0, 0)"><g fill="white" stroke="#5fab9e" stroke-width="2"><path d="M48.46153846153847 333.0 L96.92307692307693 266.40000000000003 L145.38461538461542 199.79999999999998 L193.84615384615387 133.20000000000002 L242.30769230769232 66.60000000000001 L290.7692307692308 0.0" fill="none"/><circle cx="48.46153846153847" cy="333.0" r="3"/><circle cx="96.92307692307693" cy="266.40000000000003" r="3"/><circle cx="145.38461538461542" cy="199.79999999999998" r="3"/><circle cx="193.84615384615387" cy="133.20000000000002" r="3"/><circle cx="242.30769230769232" cy="66.60000000000001" r="3"/><circle cx="290.7692307692308" cy="0.0" r="3"/></g></g><g><rect transform="translate(-13.75, -1.75)" x="537.25" y="52.75" width="137.5" height="17.5" fill="#ffffff" stroke="#CCCCCC"/><g><rect y="53.75" x="537.25" width="12" height="12" fill="#5fab9e"/><text y="62.75" x="551.25" font-size="12" font-family="Arial">Temperature (°C)</text></g></g></svg>