<svg xmlns="http://www.w3.org/2000/svg" width="700" height="400" viewBox="0 0 700 400"><path fill="white" d="M0 0 h700 v400 h-700 v-400Z"/><text transform="translate(-163.0, 18)" fill="#444444" font-family="Arial" font-weight="bold" font-size="16" x="350.0" y="10.0">Signal Analysis: Raw vs Filtered vs Baseline</text><g><path stroke="#CCCCCC" stroke-dasharray="None" d="M0 0.0 h630.0 M0 33.300000000000004 h630.0 M0 66.60000000000001 h630.0 M0 99.89999999999999 h630.0 M0 133.20000000000002 h630.0 M0 166.5 h630.0 M0 199.79999999999998 h630.0 M0 233.1 h630.0 M0 266.40000000000003 h630.0 M0 299.7 h630.0 M0 333.0 h630.0" transform="translate(35.0, 47.0)"/><g font-size="12" font-family="Arial" transform="translate(29.0, 47.0)"><text x="0" y="0.0" transform="translate(-14, 3.5)">35</text><text x="0" y="33.300000000000004" transform="translate(-14, 3.5)">28</text><text x="0" y="66.60000000000001" transform="translate(-14, 3.5)">21</text><text x="0" y="99.89999999999999" transform="translate(-14, 3.5)">14</text><text x="0" y="133.20000000000002" transform="translate(-7, 3.5)">7</text><text x="0" y="166.5" transform="translate(-7, 3.5)">0</text><text x="0" y="199.79999999999998" transform="translate(-11, 3.5)">-7</text><text x="0" y="233.1" transform="translate(-18, 3.5)">-14</text><text x="0" y="266.40000000000003" transform="translate(-18, 3.5)">-21</text><text x="0" y="299.7" transform="translate(-18, 3.5)">-28</text><text x="0" y="333.0" transform="translate(-18, 3.5)">-35</text></g></g><g><path stroke="#CCCCCC" stroke-dasharray="None" d="M0.0 0 v333.0 M30.0 0 v333.0 M60.0 0 v333.0 M90.0 0 v333.0 M120.0 0 v333.0 M150.0 0 v333.0 M180.0 0 v333.0 M210.0 0 v333.0 M240.0 0 v333.0 M270.0 0 v333.0 M300.0 0 v333.0 M330.0 0 v333.0 M360.0 0 v333.0 M390.0 0 v333.0 M420.0 0 v333.0 M450.0 0 v333.0 M480.0 0 v333.0 M510.0 0 v333.0 M540.0 0 v333.0 M570.0 0 v333.0 M600.0 0 v333.0 M630.0 0 v333.0" transform="translate(35.0, 47.0)"/><g font-size="12" font-family="Arial" transform="translate(35.0, 65.0)"><text x="0.0" y="333.0" transform="translate(-2.0, 0)"> </text><text x="30.0" y="333.0" transform="translate(-3.5, 0)">0</text><text x="60.0" y="333.0" transform="translate(-3.5, 0)">1</text><text x="90.0" y="333.0" transform="translate(-3.5, 0)">2</text><text x="120.0" y="333.0" transform="translate(-3.5, 0)">3</text><text x="150.0" y="333.0" transform="translate(-3.5, 0)">4</text><text x="180.0" y="333.0" transform="translate(-3.5, 0)">5</text><text x="210.0" y="333.0" transform="translate(-3.5, 0)">6</text><text x="240.0" y="333.0" transform="translate(-3.5, 0)">7</text><text x="270.0" y="333.0" transform="translate(-3.5, 0)">8</text><text x="300.0" y="333.0" transform="translate(-3.5, 0)">9</text><text x="330.0" y="333.0" transform="translate(-7.0, 0)">10</text><text x="360.0" y="333.0" transform="translate(-7.0, 0)">11</text><text x="390.0" y="333.0" transform="translate(-7.0, 0)">12</text><text x="420.0" y="333.0" transform="translate(-7.0, 0)">13</text><text x="450.0" y="333.0" transform="translate(-7.0, 0)">14</text><text x="480.0" y="333.0" transform="translate(-7.0, 0)">15</text><text x="510.0" y="333.0" transform="translate(-7.0, 0)">16</text><text x="540.0" y="333.0" transform="translate(-7.0, 0)">17</text><text x="570.0" y="333.0" transform="translate(-7.0, 0)">18</text><text x="600.0" y="333.0" transform="translate(-7.0, 0)">19</text><text x="630.0" y="333.0" transform="translate(-2.0, 0)"> </text></g></g><path transform="translate(35.0, 47.0)" d="M0 166.5 h630.0z" stroke="black"/><g opacity="0.8" transform="translate(-35.0, -20.0) rotate(180, 350.0, 200.0) scale(-1, 1) translate(-630.0, 0)"><g fill="white" stroke="#5fab9e" stroke-width="2"><path d="M30.0 95.14285714285714 L60.0 187.34944472365697 L90.0 262.80421626044125 L120.0 308.8567845167786 L150.0 320.0554470569794 L180.0 299.48195313712176 L210.0 257.99698400740107 L240.0 45.081079362581406 L270.0 10.922043883911375 L300.0 3.206773207509727 L330.0 29.647807087360665 L360.0 89.5950306793112 L390.0 174.19484532846755 L420.0 268.5578382999611 L450.0 188.90423030286718 L480.0 252.79456811399487 L510.0 283.9098411966798 L540.0 280.45551793012385 L570.0 249.100909536645 L600.0 203.3462900940932" fill="none"/><circle cx="30.0" cy="95.14285714285714" r="3"/><circle cx="60.0" cy="187.34944472365697" r="3"/><circle cx="90.0" cy="262.80421626044125" r="3"/><circle cx="120.0" cy="308.8567845167786" r="3"/><circle cx="150.0" cy="320.0554470569794" r="3"/><circle cx="180.0" cy="299.48195313712176" r="3"/><circle cx="210.0" cy="257.99698400740107" r="3"/><circle cx="240.0" cy="45.081079362581406" r="3"/><circle cx="270.0" cy="10.922043883911375" r="3"/><circle cx="300.0" cy="3.206773207509727" r="3"/><circle cx="330.0" cy="29.647807087360665" r="3"/><circle cx="360.0" cy="89.5950306793112" r="3"/><circle cx="390.0" cy="174.19484532846755" r="3"/><circle cx="420.0" cy="268.5578382999611" r="3"/><circle cx="450.0" cy="188.90423030286718" r="3"/><circle cx="480.0" cy="252.79456811399487" r="3"/><circle cx="510.0" cy="283.9098411966798" r="3"/><circle cx="540.0" cy="280.45551793012385" r="3"/><circle cx="570.0" cy="249.100909536645" r="3"/><circle cx="600.0" cy="203.3462900940932" r="3"/></g><g fill="white" stroke="#f58b51" stroke-width="2"><path d="M30.0 166.5 L60.0 223.5173944125713 L90.0 266.57494212179625 L120.0 285.1306537639822 L150.0 274.6414439760543 L180.0 237.67543713807768 L210.0 183.2832009585485 L240.0 124.78185184977022 L270.0 76.49456037944996 L300.0 50.243739577686675 L330.0 52.45650590613389 L360.0 82.5910969946641 L390.0 133.26951396419918 L420.0 192.0839128690152 L450.0 244.6344776333417 L480.0 278.0549972378529 L510.0 284.16296290199506 L540.0 261.4629316084365 L570.0 215.5126627091089 L600.0 157.56238460222056" fill="none"/><circle cx="30.0" cy="166.5" r="3"/><circle cx="60.0" cy="223.5173944125713" r="3"/><circle cx="90.0" cy="266.57494212179625" r="3"/><circle cx="120.0" cy="285.1306537639822" r="3"/><circle cx="150.0" cy="274.6414439760543" r="3"/><circle cx="180.0" cy="237.67543713807768" r="3"/><circle cx="210.0" cy="183.2832009585485" r="3"/><circle cx="240.0" cy="124.78185184977022" r="3"/><circle cx="270.0" cy="76.49456037944996" r="3"/><circle cx="300.0" cy="50.243739577686675" r="3"/><circle cx="330.0" cy="52.45650590613389" r="3"/><circle cx="360.0" cy="82.5910969946641" r="3"/><circle cx="390.0" cy="133.26951396419918" r="3"/><circle cx="420.0" cy="192.0839128690152" r="3"/><circle cx="450.0" cy="244.6344776333417" r="3"/><circle cx="480.0" cy="278.0549972378529" r="3"/><circle cx="510.0" cy="284.16296290199506" r="3"/><circle cx="540.0" cy="261.4629316084365" r="3"/><circle cx="570.0" cy="215.5126627091089" r="3"/><circle cx="600.0" cy="157.56238460222056" r="3"/></g><g fill="white" stroke="#f7dd72" stroke-width="2"><path d="M30.0 142.7142857142857 L60.0 165.52124347931425 L90.0 182.7442625630042 L120.0 190.1665472198786 L150.0 185.97086330470742 L180.0 171.1844605695168 L210.0 149.42756609770512 L240.0 126.0270264541938 L270.0 106.7121098660657 L300.0 96.21178154536038 L330.0 97.09688807673928 L360.0 109.15072451215137 L390.0 129.4220912999654 L420.0 152.9478508618918 L450.0 173.96807676762236 L480.0 187.33628460942688 L510.0 189.77947087508372 L540.0 180.69945835766032 L570.0 162.31935079792925 L600.0 139.13923955517393" fill="none"/><circle cx="30.0" cy="142.7142857142857" r="3"/><circle cx="60.0" cy="165.52124347931425" r="3"/><circle cx="90.0" cy="182.7442625630042" r="3"/><circle cx="120.0" cy="190.1665472198786" r="3"/><circle cx="150.0" cy="185.97086330470742" r="3"/><circle cx="180.0" cy="171.1844605695168" r="3"/><circle cx="210.0" cy="149.42756609770512" r="3"/><circle cx="240.0" cy="126.0270264541938" r="3"/><circle cx="270.0" cy="106.7121098660657" r="3"/><circle cx="300.0" cy="96.21178154536038" r="3"/><circle cx="330.0" cy="97.09688807673928" r="3"/><circle cx="360.0" cy="109.15072451215137" r="3"/><circle cx="390.0" cy="129.4220912999654" r="3"/><circle cx="420.0" cy="152.9478508618918" r="3"/><circle cx="450.0" cy="173.96807676762236" r="3"/><circle cx="480.0" cy="187.33628460942688" r="3"/><circle cx="510.0" cy="189.77947087508372" r="3"/><circle cx="540.0" cy="180.69945835766032" r="3"/><circle cx="570.0" cy="162.31935079792925" r="3"/><circle cx="600.0" cy="139.13923955517393" r="3"/></g></g></svg>