<svg xmlns="http://www.w3.org/2000/svg" width="800" height="500" viewBox="0 0 800 500">
  <path fill="white" d="M0 0 h800 v500 h-800 v-500Z"/>
  <g class="plot">
    <path d="M120.0 75.0 h560.0 v350.0 h-560.0 v-350.0Z" fill="white" stroke="#bbb"/>
    <g x1="120.0" y1="75.0" transform="translate(120.0, 75.0)" class="plot-grid">
      <path stroke="#ccc" d="M152.72727272727275 0 v350.0z M101.81818181818184 0 v350.0z M50.909090909090935 0 v350.0z M2.842170943040401e-14 0 v350.0z M254.54545454545456 0 v350.0z M305.4545454545455 0 v350.0z M356.3636363636364 0 v350.0z M407.27272727272725 0 v350.0z M458.1818181818182 0 v350.0z M509.0909090909091 0 v350.0z M560.0 0 v350.0z M0 168.67171717171718 h560.0z M0 142.8989898989899 h560.0z M0 117.12626262626264 h560.0z M0 91.35353535353536 h560.0z M0 65.58080808080808 h560.0z M0 39.80808080808083 h560.0z M0 220.21717171717174 h560.0z M0 245.98989898989902 h560.0z M0 271.76262626262627 h560.0z M0 297.5353535353536 h560.0z M0 323.30808080808083 h560.0z"/>
    </g>
  </g>
  <g stroke="black">
    <path d="M120.0 269.44444444444446 h560.0z"/>
    <path d="M323.6363636363636 75.0 v350.0z"/>
  </g>
  <g>
    <g class="x-axis" transform="translate(120.0, 12)">
      <g font-size="12" font-family="Helvetica">
        <text x="152.72727272727275" y="425.0" transform="translate(-5.5, 0) rotate(0, 152.72727272727275, 425.0)">
          -1
        </text>
        <text x="101.81818181818184" y="425.0" transform="translate(-5.5, 0) rotate(0, 101.81818181818184, 425.0)">
          -2
        </text>
        <text x="50.909090909090935" y="425.0" transform="translate(-5.5, 0) rotate(0, 50.909090909090935, 425.0)">
          -3
        </text>
        <text x="2.842170943040401e-14" y="425.0" transform="translate(-5.5, 0) rotate(0, 2.842170943040401e-14, 425.0)">
          -4
        </text>
        <text x="254.54545454545456" y="425.0" transform="translate(-3.5, 0) rotate(0, 254.54545454545456, 425.0)">
          1
        </text>
        <text x="305.4545454545455" y="425.0" transform="translate(-3.5, 0) rotate(0, 305.4545454545455, 425.0)">
          2
        </text>
        <text x="356.3636363636364" y="425.0" transform="translate(-3.5, 0) rotate(0, 356.3636363636364, 425.0)">
          3
        </text>
        <text x="407.27272727272725" y="425.0" transform="translate(-3.5, 0) rotate(0, 407.27272727272725, 425.0)">
          4
        </text>
        <text x="458.1818181818182" y="425.0" transform="translate(-3.5, 0) rotate(0, 458.1818181818182, 425.0)">
          5
        </text>
        <text x="509.0909090909091" y="425.0" transform="translate(-3.5, 0) rotate(0, 509.0909090909091, 425.0)">
          6
        </text>
        <text x="560.0" y="425.0" transform="translate(-3.5, 0) rotate(0, 560.0, 425.0)">
          7
        </text>
        <text x="203.63636363636365" y="425.0" transform="translate(-3.5, 0) rotate(0, 203.63636363636365, 425.0)">
          0
        </text>
      </g>
    </g>
    <g class="y-axis" transform="translate(120.0, 75.0)">
      <g font-size="12" font-family="Helvetica">
        <text x="0" y="39.80808080808083" transform="translate(-33, 7.0)">
          199
        </text>
        <text x="0" y="65.58080808080808" transform="translate(-33, 7.0)">
          166
        </text>
        <text x="0" y="91.35353535353536" transform="translate(-33, 7.0)">
          133
        </text>
        <text x="0" y="117.12626262626264" transform="translate(-26, 7.0)">
          99
        </text>
        <text x="0" y="142.8989898989899" transform="translate(-26, 7.0)">
          66
        </text>
        <text x="0" y="168.67171717171718" transform="translate(-26, 7.0)">
          33
        </text>
        <text x="0" y="220.21717171717174" transform="translate(-30, 7.0)">
          -33
        </text>
        <text x="0" y="245.98989898989902" transform="translate(-30, 7.0)">
          -66
        </text>
        <text x="0" y="271.76262626262627" transform="translate(-30, 7.0)">
          -99
        </text>
        <text x="0" y="297.5353535353536" transform="translate(-37, 7.0)">
          -133
        </text>
        <text x="0" y="323.30808080808083" transform="translate(-37, 7.0)">
          -166
        </text>
        <text x="0" y="194.44444444444446" transform="translate(-19, 7.0)">
          0
        </text>
      </g>
    </g>
  </g>
  <g transform="rotate(180, 400.0, 250.0) translate(323.6363636363636, 230.55555555555554)">
    <g fill="white" stroke="#EF6F6C" stroke-width="2">
      <path d="M-203.63636363636365 194.44444444444446 L-152.72727272727272 38.888888888888886 L-101.81818181818183 19.444444444444443 L-50.909090909090914 38.888888888888886 L0.0 155.55555555555554 L50.909090909090914 38.888888888888886 L101.81818181818183 155.55555555555554 L152.72727272727272 77.77777777777777 L203.63636363636365 38.888888888888886 L254.54545454545453 -155.55555555555554 L305.45454545454544 77.77777777777777 L356.3636363636364 38.888888888888886" fill="none"/>
      <circle cx="-203.63636363636365" cy="194.44444444444446" r="4"/>
      <circle cx="-152.72727272727272" cy="38.888888888888886" r="4"/>
      <circle cx="-101.81818181818183" cy="19.444444444444443" r="4"/>
      <circle cx="-50.909090909090914" cy="38.888888888888886" r="4"/>
      <circle cx="0.0" cy="155.55555555555554" r="4"/>
      <circle cx="50.909090909090914" cy="38.888888888888886" r="4"/>
      <circle cx="101.81818181818183" cy="155.55555555555554" r="4"/>
      <circle cx="152.72727272727272" cy="77.77777777777777" r="4"/>
      <circle cx="203.63636363636365" cy="38.888888888888886" r="4"/>
      <circle cx="254.54545454545453" cy="-155.55555555555554" r="4"/>
      <circle cx="305.45454545454544" cy="77.77777777777777" r="4"/>
      <circle cx="356.3636363636364" cy="38.888888888888886" r="4"/>
    </g>
    <g fill="white" stroke="#477160" stroke-width="2">
      <path d="M-203.63636363636365 97.22222222222223 L-152.72727272727272 19.444444444444443 L-101.81818181818183 9.722222222222221 L-50.909090909090914 19.444444444444443 L0.0 77.77777777777777 L50.909090909090914 19.444444444444443 L101.81818181818183 77.77777777777777 L152.72727272727272 38.888888888888886 L203.63636363636365 19.444444444444443 L254.54545454545453 -77.77777777777777 L305.45454545454544 38.888888888888886 L356.3636363636364 19.444444444444443" fill="none"/>
      <circle cx="-203.63636363636365" cy="97.22222222222223" r="4"/>
      <circle cx="-152.72727272727272" cy="19.444444444444443" r="4"/>
      <circle cx="-101.81818181818183" cy="9.722222222222221" r="4"/>
      <circle cx="-50.909090909090914" cy="19.444444444444443" r="4"/>
      <circle cx="0.0" cy="77.77777777777777" r="4"/>
      <circle cx="50.909090909090914" cy="19.444444444444443" r="4"/>
      <circle cx="101.81818181818183" cy="77.77777777777777" r="4"/>
      <circle cx="152.72727272727272" cy="38.888888888888886" r="4"/>
      <circle cx="203.63636363636365" cy="19.444444444444443" r="4"/>
      <circle cx="254.54545454545453" cy="-77.77777777777777" r="4"/>
      <circle cx="305.45454545454544" cy="38.888888888888886" r="4"/>
      <circle cx="356.3636363636364" cy="19.444444444444443" r="4"/>
    </g>
  </g>
  <text transform="translate(-93.5, 5.75)" font-family="Helvetica" font-weight="bold" font-size="20" x="400.0" y="37.5">
    Example Line Chart
  </text>
</svg>