<svg xmlns="http://www.w3.org/2000/svg" width="500" height="500" viewBox="0 0 500 500"><path fill="white" d="M0 0 h500 v500 h-500 v-500Z"/><text transform="translate(-106.0, 19)" fill="#444444" font-family="Helvetica" font-weight="bold" font-size="16" x="250.0" y="25.0">Example Labelled Line Graph</text><g><path stroke="#CCCCCC" stroke-dasharray="None" d="M0 0.0 h369.0 M0 74.3 h369.0 M0 148.6 h369.0 M0 222.9 h369.0 M0 297.2 h369.0 M0 371.5 h369.0 M0 371.5 h369.0" transform="translate(81.0, 78.5)"/><g font-size="12" font-family="Helvetica" transform="translate(75.0, 78.5)"><text x="0" y="0.0" transform="translate(-21, 3.5)">300</text><text x="0" y="74.3" transform="translate(-21, 3.5)">240</text><text x="0" y="148.6" transform="translate(-21, 3.5)">180</text><text x="0" y="222.9" transform="translate(-21, 3.5)">120</text><text x="0" y="297.2" transform="translate(-14, 3.5)">60</text><text x="0" y="371.5" transform="translate(-7, 3.5)">0</text></g></g><g><path stroke="#CCCCCC" stroke-dasharray="None" d="M369.0 0 v371.5 M0.0 0 v371.5 M30.75 0 v371.5 M61.5 0 v371.5 M92.25 0 v371.5 M123.0 0 v371.5 M153.75 0 v371.5 M184.5 0 v371.5 M215.25 0 v371.5 M246.0 0 v371.5 M276.75 0 v371.5 M307.5 0 v371.5 M338.25 0 v371.5 M369.0 0 v371.5" transform="translate(81.0, 78.5)"/><g font-size="12" font-family="Helvetica" transform="translate(81.0, 96.5)"><text x="369.0" y="371.5" transform="translate(-1.5, 0)"> </text><text x="0.0" y="371.5" transform="translate(-1.5, 0)"> </text><text x="30.75" y="371.5" transform="translate(-4.0, 0)">A</text><text x="61.5" y="371.5" transform="translate(-4.0, 0)">B</text><text x="92.25" y="371.5" transform="translate(-4.5, 0)">C</text><text x="123.0" y="371.5" transform="translate(-4.5, 0)">D</text><text x="153.75" y="371.5" transform="translate(-4.0, 0)">E</text><text x="184.5" y="371.5" transform="translate(-3.5, 0)">F</text><text x="215.25" y="371.5" transform="translate(-4.5, 0)">G</text><text x="246.0" y="371.5" transform="translate(-4.5, 0)">H</text><text x="276.75" y="371.5" transform="translate(-1.5, 0)">I</text><text x="307.5" y="371.5" transform="translate(-3.0, 0)">J</text><text x="338.25" y="371.5" transform="translate(-4.0, 0)">K</text><text x="369.0" y="371.5" transform="translate(-1.5, 0)"> </text></g></g><g opacity="0.8" transform="translate(-50.0, -50.0) rotate(180, 250.0, 250.0) scale(-1, 1) translate(-369.0, 0)"><g fill="white" stroke="#204C9E" stroke-width="2"><path d="M30.75 6.191666666666666 L61.5 9.2875 L92.25 13.93125 L123.0 20.896875 L153.75 31.345312500000002 L184.5 47.01796875 L215.25 70.526953125 L246.0 105.79042968750001 L276.75 158.68564453125 L307.5 238.028466796875 L338.25 357.0427001953125" fill="none"/><circle cx="30.75" cy="6.191666666666666" r="3"/><circle cx="61.5" cy="9.2875" r="3"/><circle cx="92.25" cy="13.93125" r="3"/><circle cx="123.0" cy="20.896875" r="3"/><circle cx="153.75" cy="31.345312500000002" r="3"/><circle cx="184.5" cy="47.01796875" r="3"/><circle cx="215.25" cy="70.526953125" r="3"/><circle cx="246.0" cy="105.79042968750001" r="3"/><circle cx="276.75" cy="158.68564453125" r="3"/><circle cx="307.5" cy="238.028466796875" r="3"/><circle cx="338.25" cy="357.0427001953125" r="3"/></g></g></svg>