<svg xmlns="http://www.w3.org/2000/svg" width="700" height="400" viewBox="0 0 700 400"><path fill="white" d="M0 0 h700 v400 h-700 v-400Z"/><text transform="translate(-158.5, 19)" fill="#444444" font-family="Helvetica" font-weight="bold" font-size="16" x="350.0" y="24.0">Signal Analysis: Raw vs Filtered vs Baseline</text><g><path stroke="#CCCCCC" stroke-dasharray="None" d="M0 0.0 h560.0 M0 27.55 h560.0 M0 55.1 h560.0 M0 82.64999999999999 h560.0 M0 110.2 h560.0 M0 137.75 h560.0 M0 165.29999999999998 h560.0 M0 192.85 h560.0 M0 220.4 h560.0 M0 247.95000000000002 h560.0 M0 275.5 h560.0" transform="translate(84.0, 76.5)"/><g font-size="12" font-family="Helvetica" transform="translate(78.0, 76.5)"><text x="0" y="0.0" transform="translate(-14, 3.5)">35</text><text x="0" y="27.55" transform="translate(-14, 3.5)">28</text><text x="0" y="55.1" transform="translate(-14, 3.5)">21</text><text x="0" y="82.64999999999999" transform="translate(-14, 3.5)">14</text><text x="0" y="110.2" transform="translate(-7, 3.5)">7</text><text x="0" y="137.75" transform="translate(-7, 3.5)">0</text><text x="0" y="165.29999999999998" transform="translate(-11, 3.5)">-7</text><text x="0" y="192.85" transform="translate(-18, 3.5)">-14</text><text x="0" y="220.4" transform="translate(-18, 3.5)">-21</text><text x="0" y="247.95000000000002" transform="translate(-18, 3.5)">-28</text><text x="0" y="275.5" transform="translate(-18, 3.5)">-35</text></g></g><g><path stroke="#CCCCCC" stroke-dasharray="None" d="M0.0 0 v275.5 M26.666666666666664 0 v275.5 M53.33333333333333 0 v275.5 M80.0 0 v275.5 M106.66666666666666 0 v275.5 M133.33333333333331 0 v275.5 M160.0 0 v275.5 M186.66666666666666 0 v275.5 M213.33333333333331 0 v275.5 M240.0 0 v275.5 M266.66666666666663 0 v275.5 M293.33333333333337 0 v275.5 M320.0 0 v275.5 M346.6666666666667 0 v275.5 M373.3333333333333 0 v275.5 M400.0 0 v275.5 M426.66666666666663 0 v275.5 M453.3333333333333 0 v275.5 M480.0 0 v275.5 M506.6666666666667 0 v275.5 M533.3333333333333 0 v275.5 M560.0 0 v275.5" transform="translate(84.0, 76.5)"/><g font-size="12" font-family="Helvetica" transform="translate(84.0, 94.5)"><text x="0.0" y="275.5" transform="translate(-1.5, 0)"> </text><text x="26.666666666666664" y="275.5" transform="translate(-3.5, 0)">0</text><text x="53.33333333333333" y="275.5" transform="translate(-3.5, 0)">1</text><text x="80.0" y="275.5" transform="translate(-3.5, 0)">2</text><text x="106.66666666666666" y="275.5" transform="translate(-3.5, 0)">3</text><text x="133.33333333333331" y="275.5" transform="translate(-3.5, 0)">4</text><text x="160.0" y="275.5" transform="translate(-3.5, 0)">5</text><text x="186.66666666666666" y="275.5" transform="translate(-3.5, 0)">6</text><text x="213.33333333333331" y="275.5" transform="translate(-3.5, 0)">7</text><text x="240.0" y="275.5" transform="translate(-3.5, 0)">8</text><text x="266.66666666666663" y="275.5" transform="translate(-3.5, 0)">9</text><text x="293.33333333333337" y="275.5" transform="translate(-7.0, 0)">10</text><text x="320.0" y="275.5" transform="translate(-7.0, 0)">11</text><text x="346.6666666666667" y="275.5" transform="translate(-7.0, 0)">12</text><text x="373.3333333333333" y="275.5" transform="translate(-7.0, 0)">13</text><text x="400.0" y="275.5" transform="translate(-7.0, 0)">14</text><text x="426.66666666666663" y="275.5" transform="translate(-7.0, 0)">15</text><text x="453.3333333333333" y="275.5" transform="translate(-7.0, 0)">16</text><text x="480.0" y="275.5" transform="translate(-7.0, 0)">17</text><text x="506.6666666666667" y="275.5" transform="translate(-7.0, 0)">18</text><text x="533.3333333333333" y="275.5" transform="translate(-7.0, 0)">19</text><text x="560.0" y="275.5" transform="translate(-1.5, 0)"> </text></g></g><path transform="translate(84.0, 76.5)" d="M0 137.75 h560.0z" stroke="black"/><g opacity="0.8" transform="translate(-56.0, -48.0) rotate(180, 350.0, 200.0) scale(-1, 1) translate(-560.0, 0)"><g fill="white" stroke="#5fab9e" stroke-width="2"><path d="M26.666666666666664 78.71428571428571 L53.33333333333333 154.99931537948197 L80.0 217.4251098491038 L106.66666666666666 255.52565806117866 L133.33333333333331 264.7906176102037 L159.99999999999997 247.76960387170286 L186.66666666666666 213.4479552373543 L213.33333333333331 37.29680890207561 L239.99999999999997 9.03610537542818 L266.6666666666667 2.653051107113903 L293.3333333333333 24.52844099870229 L320.00000000000006 74.12441727372443 L346.6666666666667 144.11615581979825 L373.33333333333337 222.18523859351134 L400.0 156.28563197729702 L426.6666666666667 209.14385440061739 L453.3333333333333 234.886370119175 L480.0 232.0285140833307 L506.6666666666667 206.08798972175885 L533.3333333333334 168.2339427054735" fill="none"/><circle cx="26.666666666666664" cy="78.71428571428571" r="3"/><circle cx="53.33333333333333" cy="154.99931537948197" r="3"/><circle cx="80.0" cy="217.4251098491038" r="3"/><circle cx="106.66666666666666" cy="255.52565806117866" r="3"/><circle cx="133.33333333333331" cy="264.7906176102037" r="3"/><circle cx="159.99999999999997" cy="247.76960387170286" r="3"/><circle cx="186.66666666666666" cy="213.4479552373543" r="3"/><circle cx="213.33333333333331" cy="37.29680890207561" r="3"/><circle cx="239.99999999999997" cy="9.03610537542818" r="3"/><circle cx="266.6666666666667" cy="2.653051107113903" r="3"/><circle cx="293.3333333333333" cy="24.52844099870229" r="3"/><circle cx="320.00000000000006" cy="74.12441727372443" r="3"/><circle cx="346.6666666666667" cy="144.11615581979825" r="3"/><circle cx="373.33333333333337" cy="222.18523859351134" r="3"/><circle cx="400.0" cy="156.28563197729702" r="3"/><circle cx="426.6666666666667" cy="209.14385440061739" r="3"/><circle cx="453.3333333333333" cy="234.886370119175" r="3"/><circle cx="480.0" cy="232.0285140833307" r="3"/><circle cx="506.6666666666667" cy="206.08798972175885" r="3"/><circle cx="533.3333333333334" cy="168.2339427054735" r="3"/></g><g fill="white" stroke="#f58b51" stroke-width="2"><path d="M26.666666666666664 137.75 L53.33333333333333 184.9220485305207 L80.0 220.54473439806267 L106.66666666666666 235.89638171764892 L133.33333333333331 227.21837181802692 L159.99999999999997 196.6353841788 L186.66666666666666 151.63520079303336 L213.33333333333331 103.23543598982491 L239.99999999999997 63.28604019380921 L266.6666666666667 41.56801877973778 L293.3333333333333 43.39870083225191 L320.00000000000006 68.32987153762751 L346.6666666666667 110.25751080221282 L373.33333333333337 158.91627025649757 L400.0 202.39278855250942 L426.6666666666667 230.04249771480022 L453.3333333333333 235.09578462312203 L480.0 216.31542840277555 L506.6666666666667 178.29951524432283 L533.3333333333334 130.35566654027556" fill="none"/><circle cx="26.666666666666664" cy="137.75" r="3"/><circle cx="53.33333333333333" cy="184.9220485305207" r="3"/><circle cx="80.0" cy="220.54473439806267" r="3"/><circle cx="106.66666666666666" cy="235.89638171764892" r="3"/><circle cx="133.33333333333331" cy="227.21837181802692" r="3"/><circle cx="159.99999999999997" cy="196.6353841788" r="3"/><circle cx="186.66666666666666" cy="151.63520079303336" r="3"/><circle cx="213.33333333333331" cy="103.23543598982491" r="3"/><circle cx="239.99999999999997" cy="63.28604019380921" r="3"/><circle cx="266.6666666666667" cy="41.56801877973778" r="3"/><circle cx="293.3333333333333" cy="43.39870083225191" r="3"/><circle cx="320.00000000000006" cy="68.32987153762751" r="3"/><circle cx="346.6666666666667" cy="110.25751080221282" r="3"/><circle cx="373.33333333333337" cy="158.91627025649757" r="3"/><circle cx="400.0" cy="202.39278855250942" r="3"/><circle cx="426.6666666666667" cy="230.04249771480022" r="3"/><circle cx="453.3333333333333" cy="235.09578462312203" r="3"/><circle cx="480.0" cy="216.31542840277555" r="3"/><circle cx="506.6666666666667" cy="178.29951524432283" r="3"/><circle cx="533.3333333333334" cy="130.35566654027556" r="3"/></g><g fill="white" stroke="#f7dd72" stroke-width="2"><path d="M26.666666666666664 118.07142857142857 L53.33333333333333 136.94024798363685 L80.0 151.18932233065365 L106.66666666666666 157.32998125848815 L133.33333333333331 153.85877729863932 L159.99999999999997 141.62558224294858 L186.66666666666666 123.62550888864192 L213.33333333333331 104.26560296735853 L239.99999999999997 88.28584464895226 L266.6666666666667 79.59863608332368 L293.3333333333333 80.33090890432933 L320.00000000000006 90.30337718647958 L346.6666666666667 107.07443289231371 L373.33333333333337 126.53793667402759 L400.0 143.9285439924323 L426.6666666666667 154.98842765734867 L453.3333333333333 157.00974242067738 L480.0 149.49759993253878 L506.6666666666667 134.2912346691577 L533.3333333333334 115.11369518753878" fill="none"/><circle cx="26.666666666666664" cy="118.07142857142857" r="3"/><circle cx="53.33333333333333" cy="136.94024798363685" r="3"/><circle cx="80.0" cy="151.18932233065365" r="3"/><circle cx="106.66666666666666" cy="157.32998125848815" r="3"/><circle cx="133.33333333333331" cy="153.85877729863932" r="3"/><circle cx="159.99999999999997" cy="141.62558224294858" r="3"/><circle cx="186.66666666666666" cy="123.62550888864192" r="3"/><circle cx="213.33333333333331" cy="104.26560296735853" r="3"/><circle cx="239.99999999999997" cy="88.28584464895226" r="3"/><circle cx="266.6666666666667" cy="79.59863608332368" r="3"/><circle cx="293.3333333333333" cy="80.33090890432933" r="3"/><circle cx="320.00000000000006" cy="90.30337718647958" r="3"/><circle cx="346.6666666666667" cy="107.07443289231371" r="3"/><circle cx="373.33333333333337" cy="126.53793667402759" r="3"/><circle cx="400.0" cy="143.9285439924323" r="3"/><circle cx="426.6666666666667" cy="154.98842765734867" r="3"/><circle cx="453.3333333333333" cy="157.00974242067738" r="3"/><circle cx="480.0" cy="149.49759993253878" r="3"/><circle cx="506.6666666666667" cy="134.2912346691577" r="3"/><circle cx="533.3333333333334" cy="115.11369518753878" r="3"/></g></g></svg>