<svg xmlns="http://www.w3.org/2000/svg" width="700" height="400" viewBox="0 0 700 400"><path fill="white" d="M0 0 h700 v400 h-700 v-400Z"/><text transform="translate(-158.5, 19)" fill="#444444" font-family="Helvetica" font-weight="bold" font-size="16" x="350.0" y="10.0">Signal Analysis: Raw vs Filtered vs Baseline</text><g><path stroke="#CCCCCC" stroke-dasharray="None" d="M0 0.0 h602.0 M0 33.15 h602.0 M0 66.3 h602.0 M0 99.45 h602.0 M0 132.6 h602.0 M0 165.75 h602.0 M0 198.9 h602.0 M0 232.04999999999998 h602.0 M0 265.2 h602.0 M0 298.35 h602.0 M0 331.5 h602.0" transform="translate(63.0, 48.5)"/><g font-size="12" font-family="Helvetica" transform="translate(57.0, 48.5)"><text x="0" y="0.0" transform="translate(-14, 3.5)">35</text><text x="0" y="33.15" transform="translate(-14, 3.5)">28</text><text x="0" y="66.3" transform="translate(-14, 3.5)">21</text><text x="0" y="99.45" transform="translate(-14, 3.5)">14</text><text x="0" y="132.6" transform="translate(-7, 3.5)">7</text><text x="0" y="165.75" transform="translate(-7, 3.5)">0</text><text x="0" y="198.9" transform="translate(-11, 3.5)">-7</text><text x="0" y="232.04999999999998" transform="translate(-18, 3.5)">-14</text><text x="0" y="265.2" transform="translate(-18, 3.5)">-21</text><text x="0" y="298.35" transform="translate(-18, 3.5)">-28</text><text x="0" y="331.5" transform="translate(-18, 3.5)">-35</text></g></g><g><path stroke="#CCCCCC" stroke-dasharray="None" d="M0.0 0 v331.5 M28.666666666666664 0 v331.5 M57.33333333333333 0 v331.5 M86.0 0 v331.5 M114.66666666666666 0 v331.5 M143.33333333333331 0 v331.5 M172.0 0 v331.5 M200.66666666666666 0 v331.5 M229.33333333333331 0 v331.5 M258.0 0 v331.5 M286.66666666666663 0 v331.5 M315.33333333333337 0 v331.5 M344.0 0 v331.5 M372.6666666666667 0 v331.5 M401.3333333333333 0 v331.5 M430.0 0 v331.5 M458.66666666666663 0 v331.5 M487.3333333333333 0 v331.5 M516.0 0 v331.5 M544.6666666666666 0 v331.5 M573.3333333333333 0 v331.5 M602.0 0 v331.5" transform="translate(63.0, 48.5)"/><g font-size="12" font-family="Helvetica" transform="translate(63.0, 66.5)"><text x="0.0" y="331.5" transform="translate(-1.5, 0)"> </text><text x="28.666666666666664" y="331.5" transform="translate(-3.5, 0)">0</text><text x="57.33333333333333" y="331.5" transform="translate(-3.5, 0)">1</text><text x="86.0" y="331.5" transform="translate(-3.5, 0)">2</text><text x="114.66666666666666" y="331.5" transform="translate(-3.5, 0)">3</text><text x="143.33333333333331" y="331.5" transform="translate(-3.5, 0)">4</text><text x="172.0" y="331.5" transform="translate(-3.5, 0)">5</text><text x="200.66666666666666" y="331.5" transform="translate(-3.5, 0)">6</text><text x="229.33333333333331" y="331.5" transform="translate(-3.5, 0)">7</text><text x="258.0" y="331.5" transform="translate(-3.5, 0)">8</text><text x="286.66666666666663" y="331.5" transform="translate(-3.5, 0)">9</text><text x="315.33333333333337" y="331.5" transform="translate(-7.0, 0)">10</text><text x="344.0" y="331.5" transform="translate(-7.0, 0)">11</text><text x="372.6666666666667" y="331.5" transform="translate(-7.0, 0)">12</text><text x="401.3333333333333" y="331.5" transform="translate(-7.0, 0)">13</text><text x="430.0" y="331.5" transform="translate(-7.0, 0)">14</text><text x="458.66666666666663" y="331.5" transform="translate(-7.0, 0)">15</text><text x="487.3333333333333" y="331.5" transform="translate(-7.0, 0)">16</text><text x="516.0" y="331.5" transform="translate(-7.0, 0)">17</text><text x="544.6666666666666" y="331.5" transform="translate(-7.0, 0)">18</text><text x="573.3333333333333" y="331.5" transform="translate(-7.0, 0)">19</text><text x="602.0" y="331.5" transform="translate(-1.5, 0)"> </text></g></g><path transform="translate(63.0, 48.5)" d="M0 165.75 h602.0z" stroke="black"/><g opacity="0.8" transform="translate(-35.0, -20.0) rotate(180, 350.0, 200.0) scale(-1, 1) translate(-602.0, 0)"><g fill="white" stroke="#5fab9e" stroke-width="2"><path d="M28.666666666666664 94.71428571428571 L57.33333333333333 186.50552830598284 L86.0 261.6204134844933 L114.66666666666666 307.465537739676 L143.33333333333331 318.61375585402004 L171.99999999999997 298.1329353301978 L200.66666666666666 256.83483543079114 L229.33333333333331 44.878011437524734 L258.0 10.8728454880379 L286.6666666666667 3.192328283151575 L315.3333333333333 29.51425840678697 L344.00000000000006 89.19144946003502 L372.6666666666667 173.41018386302403 L401.33333333333337 267.3481183076189 L430.0 188.05331034654796 L458.6666666666667 251.6558538432111 L487.3333333333333 282.6309680381362 L516.0 279.19220478629444 L544.6666666666666 247.978833367561 L573.3333333333333 202.4303158143901" fill="none"/><circle cx="28.666666666666664" cy="94.71428571428571" r="3"/><circle cx="57.33333333333333" cy="186.50552830598284" r="3"/><circle cx="86.0" cy="261.6204134844933" r="3"/><circle cx="114.66666666666666" cy="307.465537739676" r="3"/><circle cx="143.33333333333331" cy="318.61375585402004" r="3"/><circle cx="171.99999999999997" cy="298.1329353301978" r="3"/><circle cx="200.66666666666666" cy="256.83483543079114" r="3"/><circle cx="229.33333333333331" cy="44.878011437524734" r="3"/><circle cx="258.0" cy="10.8728454880379" r="3"/><circle cx="286.6666666666667" cy="3.192328283151575" r="3"/><circle cx="315.3333333333333" cy="29.51425840678697" r="3"/><circle cx="344.00000000000006" cy="89.19144946003502" r="3"/><circle cx="372.6666666666667" cy="173.41018386302403" r="3"/><circle cx="401.33333333333337" cy="267.3481183076189" r="3"/><circle cx="430.0" cy="188.05331034654796" r="3"/><circle cx="458.6666666666667" cy="251.6558538432111" r="3"/><circle cx="487.3333333333333" cy="282.6309680381362" r="3"/><circle cx="516.0" cy="279.19220478629444" r="3"/><circle cx="544.6666666666666" cy="247.978833367561" r="3"/><circle cx="573.3333333333333" cy="202.4303158143901" r="3"/></g><g fill="white" stroke="#f58b51" stroke-width="2"><path d="M28.666666666666664 165.75 L57.33333333333333 222.51055930260475 L86.0 265.3741540942206 L114.66666666666666 283.84628144973 L143.33333333333331 273.4043203545406 L171.99999999999997 236.60482706087913 L200.66666666666666 182.45760095423068 L229.33333333333331 124.21977143603252 L258.0 76.14999028765064 L286.6666666666667 50.01741642643584 L315.3333333333333 52.22021533898914 L344.00000000000006 82.21906502621967 L372.6666666666667 132.6692008382343 L401.33333333333337 191.21867001825387 L430.0 243.5325205268852 L458.6666666666667 276.802497250295 L487.3333333333333 282.8829495555897 L516.0 260.28517065524534 L544.6666666666666 214.54188494915795 L573.3333333333333 156.8526441310394" fill="none"/><circle cx="28.666666666666664" cy="165.75" r="3"/><circle cx="57.33333333333333" cy="222.51055930260475" r="3"/><circle cx="86.0" cy="265.3741540942206" r="3"/><circle cx="114.66666666666666" cy="283.84628144973" r="3"/><circle cx="143.33333333333331" cy="273.4043203545406" r="3"/><circle cx="171.99999999999997" cy="236.60482706087913" r="3"/><circle cx="200.66666666666666" cy="182.45760095423068" r="3"/><circle cx="229.33333333333331" cy="124.21977143603252" r="3"/><circle cx="258.0" cy="76.14999028765064" r="3"/><circle cx="286.6666666666667" cy="50.01741642643584" r="3"/><circle cx="315.3333333333333" cy="52.22021533898914" r="3"/><circle cx="344.00000000000006" cy="82.21906502621967" r="3"/><circle cx="372.6666666666667" cy="132.6692008382343" r="3"/><circle cx="401.33333333333337" cy="191.21867001825387" r="3"/><circle cx="430.0" cy="243.5325205268852" r="3"/><circle cx="458.6666666666667" cy="276.802497250295" r="3"/><circle cx="487.3333333333333" cy="282.8829495555897" r="3"/><circle cx="516.0" cy="260.28517065524534" r="3"/><circle cx="544.6666666666666" cy="214.54188494915795" r="3"/><circle cx="573.3333333333333" cy="156.8526441310394" r="3"/></g><g fill="white" stroke="#f7dd72" stroke-width="2"><path d="M28.666666666666664 142.07142857142856 L57.33333333333333 164.77565229247048 L86.0 181.9210902091168 L114.66666666666666 189.30994115132057 L143.33333333333331 185.13315671324477 L171.99999999999997 170.41335939578022 L200.66666666666666 148.75446895312086 L229.33333333333331 125.45933714584157 L258.0 106.23142468648884 L286.6666666666667 95.7783951420029 L315.3333333333333 96.65951470702423 L344.00000000000006 108.65905458191645 L372.6666666666667 128.8391089067223 L401.33333333333337 152.25889657873012 L430.0 173.18443678218262 L458.6666666666667 186.4924274715466 L487.3333333333333 188.9246083936644 L516.0 179.8854968335267 L544.6666666666666 161.58818255109173 L573.3333333333333 138.51248622384432" fill="none"/><circle cx="28.666666666666664" cy="142.07142857142856" r="3"/><circle cx="57.33333333333333" cy="164.77565229247048" r="3"/><circle cx="86.0" cy="181.9210902091168" r="3"/><circle cx="114.66666666666666" cy="189.30994115132057" r="3"/><circle cx="143.33333333333331" cy="185.13315671324477" r="3"/><circle cx="171.99999999999997" cy="170.41335939578022" r="3"/><circle cx="200.66666666666666" cy="148.75446895312086" r="3"/><circle cx="229.33333333333331" cy="125.45933714584157" r="3"/><circle cx="258.0" cy="106.23142468648884" r="3"/><circle cx="286.6666666666667" cy="95.7783951420029" r="3"/><circle cx="315.3333333333333" cy="96.65951470702423" r="3"/><circle cx="344.00000000000006" cy="108.65905458191645" r="3"/><circle cx="372.6666666666667" cy="128.8391089067223" r="3"/><circle cx="401.33333333333337" cy="152.25889657873012" r="3"/><circle cx="430.0" cy="173.18443678218262" r="3"/><circle cx="458.6666666666667" cy="186.4924274715466" r="3"/><circle cx="487.3333333333333" cy="188.9246083936644" r="3"/><circle cx="516.0" cy="179.8854968335267" r="3"/><circle cx="544.6666666666666" cy="161.58818255109173" r="3"/><circle cx="573.3333333333333" cy="138.51248622384432" r="3"/></g></g></svg>