<svg xmlns="http://www.w3.org/2000/svg" width="600" height="400" viewBox="0 0 600 400"><path fill="#FFFFFF" d="M0 0 h600 v400 h-600 v-400Z"/><text transform="translate(-256.0, 30)" fill="#444444" font-family="JetBrains Mono" font-weight="normal" font-size="16" x="300.0" y="10.0">Monthly Revenue — Corner Coffee Co. ($K)</text><defs><clipPath id="plot-clip"><rect x="0" y="0" width="524.0" height="315.0"/></clipPath></defs><g><path stroke="#CCCCCC" stroke-dasharray="None" d="M0 0.0 h524.0 M0 63.0 h524.0 M0 126.0 h524.0 M0 189.0 h524.0 M0 252.0 h524.0 M0 315.0 h524.0" transform="translate(46.0, 65.0)"/><g font-size="12" font-family="Arial" fill="#444444" transform="translate(40.0, 65.0)"><text x="0" y="0.0" transform="translate(-14, 3.5)">45</text><text x="0" y="63.0" transform="translate(-14, 3.5)">36</text><text x="0" y="126.0" transform="translate(-14, 3.5)">27</text><text x="0" y="189.0" transform="translate(-14, 3.5)">18</text><text x="0" y="252.0" transform="translate(-7, 3.5)">9</text><text x="0" y="315.0" transform="translate(-7, 3.5)">0</text></g></g><g><path stroke="#CCCCCC" stroke-dasharray="None" d="M0.0 0 v315.0 M47.63636363636364 0 v315.0 M95.27272727272728 0 v315.0 M142.9090909090909 0 v315.0 M190.54545454545456 0 v315.0 M238.1818181818182 0 v315.0 M285.8181818181818 0 v315.0 M333.45454545454544 0 v315.0 M381.0909090909091 0 v315.0 M428.72727272727275 0 v315.0 M476.3636363636364 0 v315.0 M524.0 0 v315.0" transform="translate(46.0, 65.0)"/><g font-size="12" font-family="Arial" fill="#444444" transform="translate(46.0, 83.0)"><text x="0.0" y="315.0" transform="translate(-10.0, 0)">Jan</text><text x="47.63636363636364" y="315.0" transform="translate(-11.0, 0)">Feb</text><text x="95.27272727272728" y="315.0" transform="translate(-10.5, 0)">Mar</text><text x="142.9090909090909" y="315.0" transform="translate(-10.0, 0)">Apr</text><text x="190.54545454545456" y="315.0" transform="translate(-11.5, 0)">May</text><text x="238.1818181818182" y="315.0" transform="translate(-10.0, 0)">Jun</text><text x="285.8181818181818" y="315.0" transform="translate(-8.0, 0)">Jul</text><text x="333.45454545454544" y="315.0" transform="translate(-11.5, 0)">Aug</text><text x="381.0909090909091" y="315.0" transform="translate(-11.5, 0)">Sep</text><text x="428.72727272727275" y="315.0" transform="translate(-10.0, 0)">Oct</text><text x="476.3636363636364" y="315.0" transform="translate(-11.0, 0)">Nov</text><text x="524.0" y="315.0" transform="translate(-11.0, 0)">Dec</text></g></g><g opacity="0.8" transform="translate(-30.0, -20.0) rotate(180, 300.0, 200.0) scale(-1, 1) translate(-524.0, 0)"><g fill="white" stroke="#5fab9e" stroke-width="2"><path d="M0.0 126.0 L47.6 154.0 L95.3 133.0 L142.9 175.0 L190.5 196.0 L238.2 224.0 L285.8 245.0 L333.5 266.0 L381.1 210.0 L428.7 189.0 L476.4 168.0 L524.0 294.0" fill="none"/></g><text x="524.0" y="278.0" fill="#444444" font-size="12" font-family="JetBrains Mono" text-anchor="middle" transform="translate(524.0,278.0) scale(1,-1) translate(-524.0,-278.0)">$42K</text></g><g><rect transform="translate(-15.75, -3.5)" x="487.25" y="72.5" width="94.5" height="21.0" fill="#f5f5f5" stroke="#d7d7d7"/><g><rect y="73.5" x="487.25" width="12" height="12" fill="#5fab9e"/><text y="82.5" x="501.25" font-size="12" font-family="Arial" fill="#444444">Revenue</text></g></g><path d="M46.0 65.0 v315.0 M46.0 380.0 h524.0" stroke="#999" stroke-width="1.5" fill="none"/><g transform="translate(46.0, 65.0)"><path d="M0 116.89999999999998 h524.0" stroke="#666" stroke-width="1.5" stroke-dasharray="6 3" fill="none"/></g><text x="14" y="222.5" fill="#444444" font-size="14" font-family="JetBrains Mono" text-anchor="middle" transform="rotate(-90, 14, 222.5)">Revenue ($K)</text></svg>