<svg xmlns="http://www.w3.org/2000/svg" width="600" height="500" viewBox="0 0 600 500"><path fill="white" d="M0 0 h600 v500 h-600 v-500Z"/><text transform="translate(-105.0, 19)" fill="#444444" font-family="Helvetica" font-weight="bold" font-size="16" x="300.0" y="12.5">Market Share by Product Line</text><g><path stroke="#CCCCCC" stroke-dasharray="None" d="M0 421.5 h486.0 M0 316.125 h486.0 M0 210.75 h486.0 M0 105.375 h486.0 M0 0.0 h486.0" transform="translate(84.0, 53.5)"/><g font-size="12" font-family="Helvetica" transform="translate(78.0, 53.5)"><text x="0" y="421.5" transform="translate(-53, 3.5)">Product A</text><text x="0" y="316.125" transform="translate(-53, 3.5)">Product B</text><text x="0" y="210.75" transform="translate(-54, 3.5)">Product C</text><text x="0" y="105.375" transform="translate(-54, 3.5)">Product D</text><text x="0" y="0.0" transform="translate(-30, 3.5)">Other</text></g></g><g><path stroke="#CCCCCC" stroke-dasharray="None" d="M486.0 0 v421.5 M416.57142857142856 0 v421.5 M347.14285714285717 0 v421.5 M277.7142857142857 0 v421.5 M208.28571428571428 0 v421.5 M138.85714285714286 0 v421.5 M69.42857142857143 0 v421.5 M0.0 0 v421.5" transform="translate(84.0, 53.5)"/><g font-size="12" font-family="Helvetica" transform="translate(84.0, 71.5)"><text x="486.0" y="421.5" transform="translate(-7.0, 0)">35</text><text x="416.57142857142856" y="421.5" transform="translate(-7.0, 0)">31</text><text x="347.14285714285717" y="421.5" transform="translate(-7.0, 0)">27</text><text x="277.7142857142857" y="421.5" transform="translate(-7.0, 0)">23</text><text x="208.28571428571428" y="421.5" transform="translate(-7.0, 0)">19</text><text x="138.85714285714286" y="421.5" transform="translate(-7.0, 0)">15</text><text x="69.42857142857143" y="421.5" transform="translate(-7.0, 0)">11</text><text x="0.0" y="421.5" transform="translate(-3.5, 0)">7</text></g></g><g transform="translate(300.0, 250.0)"><path d="M 0 0 L 1.3011872240940628e-14 -212.5 A 212.5 212.5 0 0 1 171.91611130467635 124.9043661121505 Z" fill="#5fab9e" stroke="#333333" stroke-width="1"/><path d="M 0 0 L 171.91611130467635 124.9043661121505 A 212.5 212.5 0 0 1 -154.90583332704998 145.4662600098463 Z" fill="#f58b51" stroke="#333333" stroke-width="1"/><path d="M 0 0 L -154.90583332704998 145.4662600098463 A 212.5 212.5 0 0 1 -197.57750325125338 -78.22646744549414 Z" fill="#f7dd72" stroke="#333333" stroke-width="1"/><path d="M 0 0 L -197.57750325125338 -78.22646744549414 A 212.5 212.5 0 0 1 -90.47809945757784 -192.2757486490292 Z" fill="#db504a" stroke="#333333" stroke-width="1"/><path d="M 0 0 L -90.47809945757784 -192.2757486490292 A 212.5 212.5 0 0 1 -3.903561672282188e-14 -212.5 Z" fill="#2e4756" stroke="#333333" stroke-width="1"/></g></svg>