<svg xmlns="http://www.w3.org/2000/svg" width="720.0" height="600.0" viewBox="-60.0 -50.0 720.0 600.0"><path fill="white" d="M0 0 h720.0 v600.0 h-720.0 v-600.0Z"/><text transform="translate(-105.0, 19)" fill="#444444" font-family="Helvetica" font-weight="bold" font-size="16" x="360.0" y="15.0">Market Share by Product Line</text><g><path d="M 360.0 300.0 L 360.0 45.0 A 255.0 255.0 0 0 1 566.2993335656116 449.8852393345806 Z" fill="#5fab9e" stroke="#ffffff" stroke-width="2"/><text x="621.2876632182388" y="166.86728595137788" text-anchor="middle" dominant-baseline="middle" fill="white" font-size="11" font-weight="600" font-family="Helvetica"><tspan x="621.2876632182388" y="152.86728595137788">Product A</tspan><tspan x="621.2876632182388" y="166.86728595137788">35.0</tspan><tspan x="621.2876632182388" y="180.86728595137788">35.0%</tspan></text><path d="M 360.0 300.0 L 566.2993335656116 449.8852393345806 A 255.0 255.0 0 0 1 174.11300000754002 474.55951201181557 Z" fill="#f58b51" stroke="#ffffff" stroke-width="2"/><text x="378.41331985197115" y="592.6713381115906" text-anchor="middle" dominant-baseline="middle" fill="white" font-size="11" font-weight="600" font-family="Helvetica"><tspan x="378.41331985197115" y="578.6713381115906">Product B</tspan><tspan x="378.41331985197115" y="592.6713381115906">28.0</tspan><tspan x="378.41331985197115" y="606.6713381115906">28.0%</tspan></text><path d="M 360.0 300.0 L 174.11300000754002 474.55951201181557 A 255.0 255.0 0 0 1 122.90699609849594 206.12823906540703 Z" fill="#f7dd72" stroke="#ffffff" stroke-width="2"/><text x="71.94426372381201" y="354.94957050226344" text-anchor="middle" dominant-baseline="middle" fill="white" font-size="11" font-weight="600" font-family="Helvetica"><tspan x="71.94426372381201" y="340.94957050226344">Product C</tspan><tspan x="71.94426372381201" y="354.94957050226344">18.0</tspan><tspan x="71.94426372381201" y="368.94957050226344">18.0%</tspan></text><path d="M 360.0 300.0 L 122.90699609849594 206.12823906540703 A 255.0 255.0 0 0 1 251.42628065090662 69.26910162116496 Z" fill="#db504a" stroke="#ffffff" stroke-width="2"/><text x="146.22995000867127" y="99.25656118641183" text-anchor="middle" dominant-baseline="middle" fill="white" font-size="11" font-weight="600" font-family="Helvetica"><tspan x="146.22995000867127" y="85.25656118641183">Product D</tspan><tspan x="146.22995000867127" y="99.25656118641183">12.0</tspan><tspan x="146.22995000867127" y="113.25656118641183">12.0%</tspan></text><path d="M 360.0 300.0 L 251.42628065090662 69.26910162116496 A 255.0 255.0 0 0 1 359.99999999999994 45.0 Z" fill="#2e4756" stroke="#ffffff" stroke-width="2"/><text x="296.0294944604637" y="13.812409561462403" text-anchor="middle" dominant-baseline="middle" fill="white" font-size="11" font-weight="600" font-family="Helvetica"><tspan x="296.0294944604637" y="-0.1875904385375975">Other</tspan><tspan x="296.0294944604637" y="13.812409561462403">7.0</tspan><tspan x="296.0294944604637" y="27.812409561462403">7.0%</tspan></text></g></svg>