<svg xmlns="http://www.w3.org/2000/svg" width="600" height="500" viewBox="0 0 600 500"><path fill="white" d="M0 0 h600 v500 h-600 v-500Z"/><text transform="translate(-105.0, 19)" fill="#444444" font-family="Helvetica" font-weight="bold" font-size="16" x="300.0" y="12.5">Market Share by Product Line</text><g><path stroke="#CCCCCC" stroke-dasharray="None" d="M0 0.0 h523.0 M0 0.0 h523.0 M0 0.0 h523.0 M0 0.0 h523.0 M0 0.0 h523.0 M0 0.0 h523.0" transform="translate(47.0, 53.5)"/><g font-size="12" font-family="Helvetica" transform="translate(41.0, 53.5)"><text x="0" y="0.0" transform="translate(-7, 3.5)">1</text><text x="0" y="0.0" transform="translate(-17, 3.5)">0.8</text><text x="0" y="0.0" transform="translate(-17, 3.5)">0.6</text><text x="0" y="0.0" transform="translate(-17, 3.5)">0.4</text><text x="0" y="0.0" transform="translate(-17, 3.5)">0.2</text><text x="0" y="0.0" transform="translate(-17, 3.5)">0.0</text></g></g><g><path stroke="#CCCCCC" stroke-dasharray="None" d="M0.0 0 v421.5 M0.0 0 v421.5 M0.0 0 v421.5 M0.0 0 v421.5 M0.0 0 v421.5 M0.0 0 v421.5" transform="translate(47.0, 53.5)"/><g font-size="12" font-family="Helvetica" transform="translate(47.0, 71.5)"><text x="0.0" y="421.5" transform="translate(-3.5, 0)">1</text><text x="0.0" y="421.5" transform="translate(-8.5, 0)">0.8</text><text x="0.0" y="421.5" transform="translate(-8.5, 0)">0.6</text><text x="0.0" y="421.5" transform="translate(-8.5, 0)">0.4</text><text x="0.0" y="421.5" transform="translate(-8.5, 0)">0.2</text><text x="0.0" y="421.5" transform="translate(-8.5, 0)">0.0</text></g></g><g><path d="M 300.0 250.0 L 300.0 25.0 A 225.0 225.0 0 0 1 482.0288237343632 382.25168176580644 Z" fill="#5fab9e"/><path d="M 300.0 250.0 L 482.0288237343632 382.25168176580644 A 225.0 225.0 0 0 1 135.98205883018238 404.0230988339549 Z" fill="#f58b51"/><path d="M 300.0 250.0 L 135.98205883018238 404.0230988339549 A 225.0 225.0 0 0 1 90.80029067514346 167.17197564594738 Z" fill="#f7dd72"/><path d="M 300.0 250.0 L 90.80029067514346 167.17197564594738 A 225.0 225.0 0 0 1 204.19965939785877 46.41391319514554 Z" fill="#db504a"/><path d="M 300.0 250.0 L 204.19965939785877 46.41391319514554 A 225.0 225.0 0 0 1 299.99999999999994 25.0 Z" fill="#2e4756"/></g></svg>