<svg xmlns="http://www.w3.org/2000/svg" width="600" height="500" viewBox="0 0 600 500"><path fill="#FFFFFF" d="M0 0 h600 v500 h-600 v-500Z"/><text transform="translate(-110.0, 18)" fill="#444444" font-family="Arial" font-weight="bold" font-size="16" x="300.0" y="12.5">Market Share by Product Line</text><defs><clipPath id="plot-clip"><rect x="0" y="0" width="483.0" height="423.0"/></clipPath></defs><g><g><rect x="10" y="222.0" width="91" height="56" fill="#f5f5f5" fill-opacity="0.85" rx="3"/><rect x="499" y="230.0" width="91" height="40" fill="#f5f5f5" fill-opacity="0.85" rx="3"/><g><rect y="228.0" x="16" width="12" height="12" fill="#5fab9e"/><text y="237.0" x="30" font-size="12" font-family="Arial" fill="#444444">Product A</text></g><g><rect y="244.0" x="16" width="12" height="12" fill="#f58b51"/><text y="253.0" x="30" font-size="12" font-family="Arial" fill="#444444">Product B</text></g><g><rect y="260.0" x="16" width="12" height="12" fill="#f7dd72"/><text y="269.0" x="30" font-size="12" font-family="Arial" fill="#444444">Product C</text></g><g><rect y="236.0" x="505" width="12" height="12" fill="#db504a"/><text y="245.0" x="519" font-size="12" font-family="Arial" fill="#444444">Product D</text></g><g><rect y="252.0" x="505" width="12" height="12" fill="#2e4756"/><text y="261.0" x="519" font-size="12" font-family="Arial" fill="#444444">Other</text></g></g><path d="M 300.0 250.0 L 300.0 50.0 A 200.0 200.0 0 0 1 461.8033988749895 367.5570504584946 Z" fill="#5fab9e" opacity="0.8"/><path d="M 300.0 250.0 L 461.8033988749895 367.5570504584946 A 200.0 200.0 0 0 1 154.20627451571767 386.9094211857377 Z" fill="#f58b51" opacity="0.8"/><path d="M 300.0 250.0 L 154.20627451571767 386.9094211857377 A 200.0 200.0 0 0 1 114.04470282234976 176.37508946306434 Z" fill="#f7dd72" opacity="0.8"/><path d="M 300.0 250.0 L 114.04470282234976 176.37508946306434 A 200.0 200.0 0 0 1 214.84414168698555 69.03458950679604 Z" fill="#db504a" opacity="0.8"/><path d="M 300.0 250.0 L 214.84414168698555 69.03458950679604 A 200.0 200.0 0 0 1 299.99999999999994 50.0 Z" fill="#2e4756" opacity="0.8"/><path d="M 255.50 50.91 L 76.00 240.55 L 64.00 240.55" stroke="#cccccc" stroke-width="1" fill="none" opacity="0.7"/><text x="60.0" y="240.55" fill="#000000" font-size="14" font-family="Arial" text-anchor="end" dominant-baseline="middle">Other</text><path d="M 151.29 110.35 L 76.00 259.45 L 64.00 259.45" stroke="#cccccc" stroke-width="1" fill="none" opacity="0.7"/><text x="60.0" y="259.45" fill="#000000" font-size="14" font-family="Arial" text-anchor="end" dominant-baseline="middle">Product D</text><text x="406.9207829026041" y="195.5211400312544" fill="#000000" font-size="14" font-family="Arial" text-anchor="middle" dominant-baseline="middle">Product A</text><text x="307.5348623435176" y="369.7632074113926" fill="#000000" font-size="14" font-family="Arial" text-anchor="middle" dominant-baseline="middle">Product B</text><text x="182.12552991255734" y="272.48575775028684" fill="#000000" font-size="14" font-family="Arial" text-anchor="middle" dominant-baseline="middle">Product C</text></g></svg>