<svg xmlns="http://www.w3.org/2000/svg" width="600" height="500" viewBox="0 0 600 500"><path fill="white" d="M0 0 h600 v500 h-600 v-500Z"/><text transform="translate(-105.0, 19)" fill="#444444" font-family="Helvetica" font-weight="bold" font-size="16" x="300.0" y="12.5">Market Share by Product Line</text><g><path d="M 300.0 250.0 L 300.0 25.0 A 225.0 225.0 0 0 1 482.0288237343632 382.25168176580644 Z" fill="#5fab9e"/><text x="440.3335275596679" y="178.49649629102137" text-anchor="middle" dominant-baseline="middle" fill="white" font-size="12" font-weight="bold">Product A
35.0
35.0%</text><path d="M 300.0 250.0 L 482.0288237343632 382.25168176580644 A 225.0 225.0 0 0 1 135.98205883018238 404.0230988339549 Z" fill="#f58b51"/><text x="309.8895068258669" y="407.18920972745275" text-anchor="middle" dominant-baseline="middle" fill="white" font-size="12" font-weight="bold">Product B
28.0
28.0%</text><path d="M 300.0 250.0 L 135.98205883018238 404.0230988339549 A 225.0 225.0 0 0 1 90.80029067514346 167.17197564594738 Z" fill="#f7dd72"/><text x="145.2897580102315" y="279.5125570472515" text-anchor="middle" dominant-baseline="middle" fill="white" font-size="12" font-weight="bold">Product C
18.0
18.0%</text><path d="M 300.0 250.0 L 90.80029067514346 167.17197564594738 A 225.0 225.0 0 0 1 204.19965939785877 46.41391319514554 Z" fill="#db504a"/><text x="185.18744118112778" y="142.18383081623142" text-anchor="middle" dominant-baseline="middle" fill="white" font-size="12" font-weight="bold">Product D
12.0
12.0%</text><path d="M 300.0 250.0 L 204.19965939785877 46.41391319514554 A 225.0 225.0 0 0 1 299.99999999999994 25.0 Z" fill="#2e4756"/><text x="265.64243948004446" y="96.29310999464732" text-anchor="middle" dominant-baseline="middle" fill="white" font-size="12" font-weight="bold">Other
7.0
7.0%</text></g></svg>