<svg xmlns="http://www.w3.org/2000/svg" width="550" height="450" viewBox="0 0 550 450"><path fill="#FFFFFF" d="M0 0 h550 v450 h-550 v-450Z"/><text transform="translate(0, 16.0)" fill="#444444" font-family="Roboto" font-weight="normal" font-size="16" text-anchor="middle" x="296.5" y="11.25">Global Cloud Market Share (2025)</text><defs><clipPath id="plot-clip"><rect x="0" y="0" width="452.0" height="381.0"/></clipPath></defs><g><path d="M 275.0 225.0 L 275.0 45.0 A 180.0 180.0 0 0 1 432.73520240789543 311.7156613383088 Z" fill="#5fab9e" opacity="0.8"/><text x="367.96013891642593" y="170.0235270989599" fill="#000000" font-size="14" font-family="Roboto" text-anchor="middle" dominant-baseline="middle">AWS</text><path d="M 275.0 225.0 L 432.73520240789543 311.7156613383088 A 180.0 180.0 0 0 1 219.37694101250946 396.19017293312766 Z" fill="#f58b51" opacity="0.8"/><text x="314.7574516899452" y="325.41586047593114" fill="#000000" font-size="14" font-family="Roboto" text-anchor="middle" dominant-baseline="middle">Azure</text><path d="M 275.0 225.0 L 219.37694101250946 396.19017293312766 A 180.0 180.0 0 0 1 129.3769410125095 330.8013454126452 Z" fill="#f7dd72" opacity="0.8"/><text x="211.51919275241292" y="312.37383539249436" fill="#000000" font-size="14" font-family="Roboto" text-anchor="middle" dominant-baseline="middle">GCP</text><path d="M 275.0 225.0 L 129.3769410125095 330.8013454126452 A 180.0 180.0 0 0 1 96.41935376339399 247.55998204157473 Z" fill="#db504a" opacity="0.8"/><text x="174.58413952406886" y="264.7574516899452" fill="#ffffff" font-size="14" font-family="Roboto" text-anchor="middle" dominant-baseline="middle">Alibaba</text><path d="M 275.0 225.0 L 96.41935376339399 247.55998204157473 A 180.0 180.0 0 0 1 274.99999999999994 45.0 Z" fill="#2e4756" opacity="0.8"/><text x="193.98800447991033" y="153.57831854504565" fill="#ffffff" font-size="14" font-family="Roboto" text-anchor="middle" dominant-baseline="middle">Others</text></g></svg>