<svg xmlns="http://www.w3.org/2000/svg" width="600" height="500" viewBox="0 0 600 500"><path fill="white" d="M0 0 h600 v500 h-600 v-500Z"/><text transform="translate(-105.0, 19)" fill="#444444" font-family="Helvetica" font-weight="bold" font-size="16" x="300.0" y="12.5">Market Share by Product Line</text><g><path d="M 300.0 250.0 L 300.0 37.5 A 212.5 212.5 0 0 1 471.91611130467635 374.9043661121505 Z" fill="#5fab9e" stroke="#ffffff" stroke-width="2"/><text x="517.7397193485324" y="139.05607162614825" text-anchor="middle" dominant-baseline="middle" fill="white" font-size="11" font-weight="600" font-family="Inter, -apple-system, BlinkMacSystemFont, Segoe UI, sans-serif"><tspan x="517.7397193485324" y="125.05607162614825">Product A</tspan><tspan x="517.7397193485324" y="139.05607162614825">35.0</tspan><tspan x="517.7397193485324" y="153.05607162614825">35.0%</tspan></text><path d="M 300.0 250.0 L 471.91611130467635 374.9043661121505 A 212.5 212.5 0 0 1 145.09416667295002 395.46626000984634 Z" fill="#f58b51" stroke="#ffffff" stroke-width="2"/><text x="315.34443320997593" y="493.8927817596589" text-anchor="middle" dominant-baseline="middle" fill="white" font-size="11" font-weight="600" font-family="Inter, -apple-system, BlinkMacSystemFont, Segoe UI, sans-serif"><tspan x="315.34443320997593" y="479.8927817596589">Product B</tspan><tspan x="315.34443320997593" y="493.8927817596589">28.0</tspan><tspan x="315.34443320997593" y="507.8927817596589">28.0%</tspan></text><path d="M 300.0 250.0 L 145.09416667295002 395.46626000984634 A 212.5 212.5 0 0 1 102.42249674874662 171.77353255450586 Z" fill="#f7dd72" stroke="#ffffff" stroke-width="2"/><text x="59.95355310317669" y="295.7913087518862" text-anchor="middle" dominant-baseline="middle" fill="white" font-size="11" font-weight="600" font-family="Inter, -apple-system, BlinkMacSystemFont, Segoe UI, sans-serif"><tspan x="59.95355310317669" y="281.7913087518862">Product C</tspan><tspan x="59.95355310317669" y="295.7913087518862">18.0</tspan><tspan x="59.95355310317669" y="309.7913087518862">18.0%</tspan></text><path d="M 300.0 250.0 L 102.42249674874662 171.77353255450586 A 212.5 212.5 0 0 1 209.52190054242215 57.7242513509708 Z" fill="#db504a" stroke="#ffffff" stroke-width="2"/><text x="121.85829167389272" y="82.71380098867655" text-anchor="middle" dominant-baseline="middle" fill="white" font-size="11" font-weight="600" font-family="Inter, -apple-system, BlinkMacSystemFont, Segoe UI, sans-serif"><tspan x="121.85829167389272" y="68.71380098867655">Product D</tspan><tspan x="121.85829167389272" y="82.71380098867655">12.0</tspan><tspan x="121.85829167389272" y="96.71380098867655">12.0%</tspan></text><path d="M 300.0 250.0 L 209.52190054242215 57.7242513509708 A 212.5 212.5 0 0 1 299.99999999999994 37.5 Z" fill="#2e4756" stroke="#ffffff" stroke-width="2"/><text x="246.69124538371975" y="11.510341301218688" text-anchor="middle" dominant-baseline="middle" fill="white" font-size="11" font-weight="600" font-family="Inter, -apple-system, BlinkMacSystemFont, Segoe UI, sans-serif"><tspan x="246.69124538371975" y="-2.4896586987813123">Other</tspan><tspan x="246.69124538371975" y="11.510341301218688">7.0</tspan><tspan x="246.69124538371975" y="25.510341301218688">7.0%</tspan></text></g></svg>