<svg xmlns="http://www.w3.org/2000/svg" width="600" height="500" viewBox="0 0 600 500"><path fill="white" d="M0 0 h600 v500 h-600 v-500Z"/><text transform="translate(-113.0, 19)" fill="#444444" font-family="Helvetica" font-weight="bold" font-size="16" x="300.0" y="12.5">Operating System Market Share</text><g><path d="M 300.0 50.0 A 200.0 200.0 0 1 1 103.54254985426229 287.476262917145 L 201.77127492713115 268.7381314585725 A 100.0 100.0 0 1 0 300.0 150.0 Z" fill="#5fab9e" opacity="0.8"/><text x="415.5769864163684" y="345.61359846230346" fill="#000000" font-size="14" font-family="Helvetica" text-anchor="middle" dominant-baseline="middle">Windows</text><path d="M 103.54254985426229 287.476262917145 A 200.0 200.0 0 0 1 154.20627451571764 113.09057881426233 L 227.1031372578588 181.54528940713118 A 100.0 100.0 0 0 0 201.77127492713115 268.7381314585725 Z" fill="#f58b51" opacity="0.8"/><text x="155.95594714845853" y="208.15133409411567" fill="#000000" font-size="14" font-family="Helvetica" text-anchor="middle" dominant-baseline="middle">macOS</text><path d="M 154.20627451571764 113.09057881426233 A 200.0 200.0 0 0 1 238.1966011250105 59.7886967409693 L 269.09830056250524 154.89434837048464 A 100.0 100.0 0 0 0 227.1031372578588 181.54528940713118 Z" fill="#f7dd72" opacity="0.8"/><text x="219.62598075315054" y="123.35081117469771" fill="#000000" font-size="14" font-family="Helvetica" text-anchor="middle" dominant-baseline="middle">Linux</text><path d="M 238.1966011250105 59.7886967409693 A 200.0 200.0 0 0 1 299.99999999999994 50.0 L 300.0 150.0 A 100.0 100.0 0 0 0 269.09830056250524 154.89434837048464 Z" fill="#db504a" opacity="0.8"/><text x="276.53483024396536" y="101.84674891072936" fill="#ffffff" font-size="14" font-family="Helvetica" text-anchor="middle" dominant-baseline="middle">Other</text></g></svg>