<svg xmlns="http://www.w3.org/2000/svg" width="500" height="500" viewBox="0 0 500 500"><path fill="white" d="M0 0 h500 v500 h-500 v-500Z"/><g><path stroke="#CCCCCC" stroke-dasharray="None" d="M0 450.0 h441.0 M0 0.0 h441.0" transform="translate(34.0, 25.0)"/><g font-size="12" font-family="Helvetica" transform="translate(28.0, 25.0)"><text x="0" y="450.0" transform="translate(-8, 3.5)">A</text><text x="0" y="0.0" transform="translate(-8, 3.5)">B</text></g></g><g><path stroke="#CCCCCC" stroke-dasharray="None" d="M441.0 0 v450.0 M385.875 0 v450.0 M330.75 0 v450.0 M275.625 0 v450.0 M220.5 0 v450.0 M165.375 0 v450.0 M110.25 0 v450.0 M55.125 0 v450.0 M0.0 0 v450.0" transform="translate(34.0, 25.0)"/><g font-size="12" font-family="Helvetica" transform="translate(34.0, 43.0)"><text x="441.0" y="450.0" transform="translate(-3.5, 0)">2</text><text x="385.875" y="450.0" transform="translate(-8.5, 0)">1.8</text><text x="330.75" y="450.0" transform="translate(-8.5, 0)">1.5</text><text x="275.625" y="450.0" transform="translate(-8.5, 0)">1.2</text><text x="220.5" y="450.0" transform="translate(-8.5, 0)">1.0</text><text x="165.375" y="450.0" transform="translate(-8.5, 0)">0.8</text><text x="110.25" y="450.0" transform="translate(-8.5, 0)">0.5</text><text x="55.125" y="450.0" transform="translate(-8.5, 0)">0.2</text><text x="0.0" y="450.0" transform="translate(-8.5, 0)">0.0</text></g></g><g><path d="M 250.0 50.0 A 200.0 200.0 0 0 1 440.21130325903073 311.80339887498945 L 297.5528258147577 265.45084971874735 A 50 50 0 0 0 250.0 200.0 Z" fill="#5fab9e"/><text x="351.12712429686843" y="176.52684346344085" fill="white" font-size="14" font-family="Helvetica" text-anchor="middle" dominant-baseline="middle">A</text><path d="M 440.21130325903073 311.80339887498945 A 200.0 200.0 0 0 1 59.7886967409693 311.8033988749895 L 202.44717418524232 265.45084971874735 A 50 50 0 0 0 297.5528258147577 265.45084971874735 Z" fill="#f58b51"/><text x="250.0" y="375.0" fill="white" font-size="14" font-family="Helvetica" text-anchor="middle" dominant-baseline="middle">B</text><path d="M 59.7886967409693 311.8033988749895 A 200.0 200.0 0 0 1 249.99999999999997 50.0 L 250.0 200.0 A 50 50 0 0 0 202.44717418524232 265.45084971874735 Z" fill="#f7dd72"/><text x="148.87287570313157" y="176.52684346344085" fill="white" font-size="14" font-family="Helvetica" text-anchor="middle" dominant-baseline="middle">C</text></g></svg>