<svg xmlns="http://www.w3.org/2000/svg" width="550" height="450" viewBox="0 0 550 450"><path fill="#FFFFFF" d="M0 0 h550 v450 h-550 v-450Z"/><text transform="translate(-104.0, 18)" fill="#444444" font-family="Arial" font-weight="normal" font-size="16" x="275.0" y="11.25">Time Spent Per Day (hours)</text><defs><clipPath id="plot-clip"><rect x="0" y="0" width="441.0" height="378.0"/></clipPath></defs><g><path d="M 275.0 45.0 A 180.0 180.0 0 0 1 430.88457268119896 315.0 L 352.9422863405995 270.0 A 90.0 90.0 0 0 0 275.0 135.0 Z" fill="#5fab9e" opacity="0.8"/><text x="391.9134295108992" y="157.5" fill="#000000" font-size="14" font-family="Arial" text-anchor="middle" dominant-baseline="middle">Sleep</text><path d="M 430.88457268119896 315.0 A 180.0 180.0 0 0 1 147.72077938642144 352.27922061357856 L 211.36038969321072 288.6396103067893 A 90.0 90.0 0 0 0 352.9422863405995 270.0 Z" fill="#f58b51" opacity="0.8"/><text x="292.621035949707" y="358.8450562854644" fill="#000000" font-size="14" font-family="Arial" text-anchor="middle" dominant-baseline="middle">Work</text><path d="M 147.72077938642144 352.27922061357856 A 180.0 180.0 0 0 1 101.13335126796773 271.5874281184538 L 188.06667563398386 248.2937140592269 A 90.0 90.0 0 0 0 211.36038969321072 288.6396103067893 Z" fill="#f7dd72" opacity="0.8"/><text x="158.08657048910078" y="292.5" fill="#000000" font-size="14" font-family="Arial" text-anchor="middle" dominant-baseline="middle">Exercise</text><path d="M 101.13335126796773 271.5874281184538 A 180.0 180.0 0 0 1 119.11542731880104 135.0 L 197.05771365940052 180.0 A 90.0 90.0 0 0 0 188.06667563398386 248.2937140592269 Z" fill="#db504a" opacity="0.8"/><text x="141.1549437145356" y="207.37896405029306" fill="#ffffff" font-size="14" font-family="Arial" text-anchor="middle" dominant-baseline="middle">Commute</text><path d="M 119.11542731880104 135.0 A 180.0 180.0 0 0 1 184.99999999999991 69.1154273188011 L 229.99999999999994 147.05771365940055 A 90.0 90.0 0 0 0 197.05771365940052 180.0 Z" fill="#2e4756" opacity="0.8"/><text x="179.54058453981605" y="129.5405845398161" fill="#ffffff" font-size="14" font-family="Arial" text-anchor="middle" dominant-baseline="middle">Cooking</text><path d="M 184.99999999999991 69.1154273188011 A 180.0 180.0 0 0 1 274.99999999999994 45.0 L 275.0 135.0 A 90.0 90.0 0 0 0 229.99999999999994 147.05771365940055 Z" fill="#ab5f6b" opacity="0.8"/><text x="240.05942891115973" y="94.60001345097578" fill="#ffffff" font-size="14" font-family="Arial" text-anchor="middle" dominant-baseline="middle">Leisure</text></g></svg>