<svg xmlns="http://www.w3.org/2000/svg" width="720" height="500" viewBox="0 0 720 500"><path fill="#FFFFFF" d="M0 0 h720 v500 h-720 v-500Z"/><text transform="translate(-88.5, 18)" fill="#444444" font-family="Arial" font-weight="bold" font-size="16" x="360.0" y="12.5">Cloud Spend by Service</text><defs><clipPath id="plot-clip"><rect x="0" y="0" width="508.0" height="423.0"/></clipPath></defs><g><path d="M 360.0 250.0 L 360.0 50.0 A 200.0 200.0 0 0 1 456.3507348203431 425.2613360087727 Z" fill="#5fab9e" opacity="0.8"/><path d="M 360.0 250.0 L 456.3507348203431 425.2613360087727 A 200.0 200.0 0 0 1 179.0345895067961 335.1558583130145 Z" fill="#f58b51" opacity="0.8"/><path d="M 360.0 250.0 L 179.0345895067961 335.1558583130145 A 200.0 200.0 0 0 1 205.8973514448422 122.515202050262 Z" fill="#f7dd72" opacity="0.8"/><path d="M 360.0 250.0 L 205.8973514448422 122.515202050262 A 200.0 200.0 0 0 1 298.1966011250105 59.7886967409693 Z" fill="#db504a" opacity="0.8"/><path d="M 360.0 250.0 L 298.1966011250105 59.7886967409693 A 200.0 200.0 0 0 1 359.99999999999994 50.0 Z" fill="#2e4756" opacity="0.8"/><path d="M 328.09 48.51 L 136.00 231.10 L 124.00 231.10" stroke="#cccccc" stroke-width="1" fill="none" opacity="0.7"/><text x="120.0" y="231.1" fill="#000000" font-size="14" font-family="Arial" text-anchor="end" dominant-baseline="middle">Other (5%)</text><path d="M 245.33 81.28 L 136.00 250.00 L 124.00 250.00" stroke="#cccccc" stroke-width="1" fill="none" opacity="0.7"/><text x="120.0" y="250.0" fill="#000000" font-size="14" font-family="Arial" text-anchor="end" dominant-baseline="middle">Database (9%)</text><path d="M 157.61 224.43 L 136.00 268.90 L 124.00 268.90" stroke="#cccccc" stroke-width="1" fill="none" opacity="0.7"/><text x="120.0" y="268.9" fill="#000000" font-size="14" font-family="Arial" text-anchor="end" dominant-baseline="middle">Network (18%)</text><text x="476.2299793354357" y="220.1572135402174" fill="#000000" font-size="14" font-family="Arial" text-anchor="middle" dominant-baseline="middle">Compute (42%)</text><text x="322.9179606750063" y="364.12678195541844" fill="#000000" font-size="14" font-family="Arial" text-anchor="middle" dominant-baseline="middle">Storage (26%)</text></g><g><rect x="606.0" y="224.0" width="11.0" height="11.0" fill="#5fab9e"/><text x="623.0" y="233.35" fill="#444444" font-size="11" font-family="Arial" text-anchor="start">Compute</text><rect x="606.0" y="241.0" width="11.0" height="11.0" fill="#f58b51"/><text x="623.0" y="250.35" fill="#444444" font-size="11" font-family="Arial" text-anchor="start">Storage</text><rect x="606.0" y="258.0" width="11.0" height="11.0" fill="#f7dd72"/><text x="623.0" y="267.35" fill="#444444" font-size="11" font-family="Arial" text-anchor="start">Network</text><rect x="606.0" y="275.0" width="11.0" height="11.0" fill="#db504a"/><text x="623.0" y="284.35" fill="#444444" font-size="11" font-family="Arial" text-anchor="start">Database</text><rect x="606.0" y="292.0" width="11.0" height="11.0" fill="#2e4756"/><text x="623.0" y="301.35" fill="#444444" font-size="11" font-family="Arial" text-anchor="start">Other</text></g></svg>