<svg xmlns="http://www.w3.org/2000/svg" width="600" height="500" viewBox="0 0 600 500"><path fill="#FFFFFF" d="M0 0 h600 v500 h-600 v-500Z"/><text transform="translate(-119.0, 18)" fill="#444444" font-family="Arial" font-weight="bold" font-size="16" x="300.0" y="12.5">Operating System Market Share</text><defs><clipPath id="plot-clip"><rect x="0" y="0" width="489.0" height="423.0"/></clipPath></defs><g><g><rect x="10" y="230.0" width="85" height="40" fill="#f5f5f5" fill-opacity="0.85" rx="3"/><rect x="505" y="230.0" width="85" height="40" fill="#f5f5f5" fill-opacity="0.85" rx="3"/><g><rect y="236.0" x="16" width="12" height="12" fill="#5fab9e"/><text y="245.0" x="30" font-size="12" font-family="Arial" fill="#444444">Windows</text></g><g><rect y="252.0" x="16" width="12" height="12" fill="#f58b51"/><text y="261.0" x="30" font-size="12" font-family="Arial" fill="#444444">macOS</text></g><g><rect y="236.0" x="511" width="12" height="12" fill="#f7dd72"/><text y="245.0" x="525" font-size="12" font-family="Arial" fill="#444444">Linux</text></g><g><rect y="252.0" x="511" width="12" height="12" fill="#db504a"/><text y="261.0" x="525" font-size="12" font-family="Arial" fill="#444444">Other</text></g></g><path d="M 300.0 50.0 A 200.0 200.0 0 1 1 103.54254985426229 287.476262917145 L 201.77127492713115 268.7381314585725 A 100.0 100.0 0 1 0 300.0 150.0 Z" fill="#5fab9e" opacity="0.8"/><path d="M 103.54254985426229 287.476262917145 A 200.0 200.0 0 0 1 154.20627451571764 113.09057881426233 L 227.1031372578588 181.54528940713118 A 100.0 100.0 0 0 0 201.77127492713115 268.7381314585725 Z" fill="#f58b51" opacity="0.8"/><path d="M 154.20627451571764 113.09057881426233 A 200.0 200.0 0 0 1 238.1966011250105 59.7886967409693 L 269.09830056250524 154.89434837048464 A 100.0 100.0 0 0 0 227.1031372578588 181.54528940713118 Z" fill="#f7dd72" opacity="0.8"/><path d="M 238.1966011250105 59.7886967409693 A 200.0 200.0 0 0 1 299.99999999999994 50.0 L 300.0 150.0 A 100.0 100.0 0 0 0 269.09830056250524 154.89434837048464 Z" fill="#db504a" opacity="0.8"/><path d="M 268.09 48.51 L 76.00 250.00 L 64.00 250.00" stroke="#cccccc" stroke-width="1" fill="none" opacity="0.7"/><text x="60.0" y="250.0" fill="#000000" font-size="14" font-family="Arial" text-anchor="end" dominant-baseline="middle">Other</text><text x="415.5769864163684" y="345.61359846230346" fill="#000000" font-size="14" font-family="Arial" text-anchor="middle" dominant-baseline="middle">Windows</text><text x="155.95594714845853" y="208.15133409411567" fill="#000000" font-size="14" font-family="Arial" text-anchor="middle" dominant-baseline="middle">macOS</text><text x="219.62598075315054" y="123.35081117469771" fill="#000000" font-size="14" font-family="Arial" text-anchor="middle" dominant-baseline="middle">Linux</text></g></svg>