<svg xmlns="http://www.w3.org/2000/svg" width="720.0" height="600.0" viewBox="-60.0 -50.0 720.0 600.0"><path fill="white" d="M0 0 h720.0 v600.0 h-720.0 v-600.0Z"/><text transform="translate(-113.0, 19)" fill="#444444" font-family="Helvetica" font-weight="bold" font-size="16" x="360.0" y="15.0">Operating System Market Share</text><g><path d="M 360.0 45.0 A 255.0 255.0 0 1 1 109.5167510641844 347.7822352193599 L 234.7583755320922 323.89111760967995 A 127.5 127.5 0 1 0 360.0 172.5 Z" fill="#5fab9e" stroke="#ffffff" stroke-width="2"/><text x="585.9530084440003" y="486.92458499380325" text-anchor="middle" dominant-baseline="middle" fill="white" font-size="11" font-weight="600" font-family="Helvetica"><tspan x="585.9530084440003" y="472.92458499380325">Windows</tspan><tspan x="585.9530084440003" y="486.92458499380325">72.0</tspan><tspan x="585.9530084440003" y="500.92458499380325">72.0%</tspan></text><path d="M 109.5167510641844 347.7822352193599 A 255.0 255.0 0 0 1 174.11300000754 125.44048798818446 L 267.05650000377 212.72024399409224 A 127.5 127.5 0 0 0 234.7583755320922 323.89111760967995 Z" fill="#f58b51" stroke="#ffffff" stroke-width="2"/><text x="78.39387667523641" y="218.18585815399612" text-anchor="middle" dominant-baseline="middle" fill="white" font-size="11" font-weight="600" font-family="Helvetica"><tspan x="78.39387667523641" y="204.18585815399612">macOS</tspan><tspan x="78.39387667523641" y="218.18585815399612">15.0</tspan><tspan x="78.39387667523641" y="232.18585815399612">15.0%</tspan></text><path d="M 174.11300000754 125.44048798818446 A 255.0 255.0 0 0 1 281.2006664343884 57.48058834473585 L 320.6003332171942 178.74029417236792 A 127.5 127.5 0 0 0 267.05650000377 212.72024399409224 Z" fill="#f7dd72" stroke="#ffffff" stroke-width="2"/><text x="202.86879237240933" y="52.40083584653402" text-anchor="middle" dominant-baseline="middle" fill="white" font-size="11" font-weight="600" font-family="Helvetica"><tspan x="202.86879237240933" y="38.40083584653402">Linux</tspan><tspan x="202.86879237240933" y="52.40083584653402">8.0</tspan><tspan x="202.86879237240933" y="66.40083584653402">8.0%</tspan></text><path d="M 281.2006664343884 57.48058834473585 A 255.0 255.0 0 0 1 359.99999999999994 45.0 L 360.0 172.5 A 127.5 127.5 0 0 0 320.6003332171942 178.74029417236792 Z" fill="#db504a" stroke="#ffffff" stroke-width="2"/><text x="314.12559312695225" y="10.36039412047586" text-anchor="middle" dominant-baseline="middle" fill="white" font-size="11" font-weight="600" font-family="Helvetica"><tspan x="314.12559312695225" y="-3.63960587952414">Other</tspan><tspan x="314.12559312695225" y="10.36039412047586">5.0</tspan><tspan x="314.12559312695225" y="24.36039412047586">5.0%</tspan></text></g></svg>