<svg xmlns="http://www.w3.org/2000/svg" width="600" height="500" viewBox="0 0 600 500"><path fill="white" d="M0 0 h600 v500 h-600 v-500Z"/><text transform="translate(-113.0, 19)" fill="#444444" font-family="Helvetica" font-weight="bold" font-size="16" x="300.0" y="12.5">Operating System Market Share</text><g><path stroke="#CCCCCC" stroke-dasharray="None" d="M0 0.0 h523.0 M0 0.0 h523.0 M0 0.0 h523.0 M0 0.0 h523.0 M0 0.0 h523.0 M0 0.0 h523.0" transform="translate(47.0, 53.5)"/><g font-size="12" font-family="Helvetica" transform="translate(41.0, 53.5)"><text x="0" y="0.0" transform="translate(-7, 3.5)">1</text><text x="0" y="0.0" transform="translate(-17, 3.5)">0.8</text><text x="0" y="0.0" transform="translate(-17, 3.5)">0.6</text><text x="0" y="0.0" transform="translate(-17, 3.5)">0.4</text><text x="0" y="0.0" transform="translate(-17, 3.5)">0.2</text><text x="0" y="0.0" transform="translate(-17, 3.5)">0.0</text></g></g><g><path stroke="#CCCCCC" stroke-dasharray="None" d="M0.0 0 v421.5 M0.0 0 v421.5 M0.0 0 v421.5 M0.0 0 v421.5 M0.0 0 v421.5 M0.0 0 v421.5" transform="translate(47.0, 53.5)"/><g font-size="12" font-family="Helvetica" transform="translate(47.0, 71.5)"><text x="0.0" y="421.5" transform="translate(-3.5, 0)">1</text><text x="0.0" y="421.5" transform="translate(-8.5, 0)">0.8</text><text x="0.0" y="421.5" transform="translate(-8.5, 0)">0.6</text><text x="0.0" y="421.5" transform="translate(-8.5, 0)">0.4</text><text x="0.0" y="421.5" transform="translate(-8.5, 0)">0.2</text><text x="0.0" y="421.5" transform="translate(-8.5, 0)">0.0</text></g></g><g><path d="M 300.0 25.0 A 225.0 225.0 0 1 1 78.98536858604507 292.1607957817881 L 189.49268429302253 271.08039789089406 A 112.5 112.5 0 1 0 300.0 137.5 Z" fill="#5fab9e"/><path d="M 78.98536858604507 292.1607957817881 A 225.0 225.0 0 0 1 135.98205883018235 95.97690116604511 L 217.9910294150912 172.98845058302254 A 112.5 112.5 0 0 0 189.49268429302253 271.08039789089406 Z" fill="#f58b51"/><path d="M 135.98205883018235 95.97690116604511 A 225.0 225.0 0 0 1 230.4711762656368 36.01228383359046 L 265.2355881328184 143.00614191679523 A 112.5 112.5 0 0 0 217.9910294150912 172.98845058302254 Z" fill="#f7dd72"/><path d="M 230.4711762656368 36.01228383359046 A 225.0 225.0 0 0 1 299.99999999999994 25.0 L 300.0 137.5 A 112.5 112.5 0 0 0 265.2355881328184 143.00614191679523 Z" fill="#db504a"/></g></svg>