<svg xmlns="http://www.w3.org/2000/svg" width="840.0" height="700.0" viewBox="-120.0 -100.0 840.0 700.0"><path fill="white" d="M0 0 h840.0 v700.0 h-840.0 v-700.0Z"/><text transform="translate(-113.0, 19)" fill="#444444" font-family="Helvetica" font-weight="bold" font-size="16" x="420.0" y="17.5">Operating System Market Share</text><g><path d="M 300.0 37.5 A 212.5 212.5 0 1 1 91.26395922015368 289.8185293494666 L 195.63197961007683 269.90926467473327 A 106.25 106.25 0 1 0 300.0 143.75 Z" fill="#5fab9e" stroke="#ffffff" stroke-width="2"/><text x="488.2941737033335" y="405.770487494836" text-anchor="middle" dominant-baseline="middle" fill="white" font-size="11" font-weight="600" font-family="Helvetica"><tspan x="488.2941737033335" y="391.770487494836">Windows</tspan><tspan x="488.2941737033335" y="405.770487494836">72.0</tspan><tspan x="488.2941737033335" y="419.770487494836">72.0%</tspan></text><path d="M 91.26395922015368 289.8185293494666 A 212.5 212.5 0 0 1 145.09416667295 104.53373999015372 L 222.547083336475 177.26686999507686 A 106.25 106.25 0 0 0 195.63197961007683 269.90926467473327 Z" fill="#f58b51" stroke="#ffffff" stroke-width="2"/><text x="65.32823056269703" y="181.82154846166344" text-anchor="middle" dominant-baseline="middle" fill="white" font-size="11" font-weight="600" font-family="Helvetica"><tspan x="65.32823056269703" y="167.82154846166344">macOS</tspan><tspan x="65.32823056269703" y="181.82154846166344">15.0</tspan><tspan x="65.32823056269703" y="195.82154846166344">15.0%</tspan></text><path d="M 145.09416667295 104.53373999015372 A 212.5 212.5 0 0 1 234.33388869532365 47.900490287279865 L 267.1669443476618 148.95024514363993 A 106.25 106.25 0 0 0 222.547083336475 177.26686999507686 Z" fill="#f7dd72" stroke="#ffffff" stroke-width="2"/><text x="169.0573269770078" y="43.66736320544504" text-anchor="middle" dominant-baseline="middle" fill="white" font-size="11" font-weight="600" font-family="Helvetica"><tspan x="169.0573269770078" y="29.667363205445042">Linux</tspan><tspan x="169.0573269770078" y="43.66736320544504">8.0</tspan><tspan x="169.0573269770078" y="57.66736320544504">8.0%</tspan></text><path d="M 234.33388869532365 47.900490287279865 A 212.5 212.5 0 0 1 299.99999999999994 37.5 L 300.0 143.75 A 106.25 106.25 0 0 0 267.1669443476618 148.95024514363993 Z" fill="#db504a" stroke="#ffffff" stroke-width="2"/><text x="261.77132760579354" y="8.633661767063273" text-anchor="middle" dominant-baseline="middle" fill="white" font-size="11" font-weight="600" font-family="Helvetica"><tspan x="261.77132760579354" y="-5.366338232936727">Other</tspan><tspan x="261.77132760579354" y="8.633661767063273">5.0</tspan><tspan x="261.77132760579354" y="22.633661767063273">5.0%</tspan></text></g></svg>