<svg xmlns="http://www.w3.org/2000/svg" width="600" height="500" viewBox="0 0 600 500"><path fill="white" d="M0 0 h600 v500 h-600 v-500Z"/><text transform="translate(-113.0, 19)" fill="#444444" font-family="Helvetica" font-weight="bold" font-size="16" x="300.0" y="12.5">Operating System Market Share</text><g><path stroke="#CCCCCC" stroke-dasharray="None" d="M0 421.5 h490.0 M0 281.0 h490.0 M0 140.5 h490.0 M0 0.0 h490.0" transform="translate(80.0, 53.5)"/><g font-size="12" font-family="Helvetica" transform="translate(74.0, 53.5)"><text x="0" y="421.5" transform="translate(-50, 3.5)">Windows</text><text x="0" y="281.0" transform="translate(-40, 3.5)">macOS</text><text x="0" y="140.5" transform="translate(-30, 3.5)">Linux</text><text x="0" y="0.0" transform="translate(-30, 3.5)">Other</text></g></g><g><path stroke="#CCCCCC" stroke-dasharray="None" d="M490.0 0 v421.5 M420.0 0 v421.5 M350.0 0 v421.5 M280.0 0 v421.5 M210.0 0 v421.5 M140.0 0 v421.5 M70.0 0 v421.5 M0.0 0 v421.5" transform="translate(80.0, 53.5)"/><g font-size="12" font-family="Helvetica" transform="translate(80.0, 71.5)"><text x="490.0" y="421.5" transform="translate(-7.0, 0)">75</text><text x="420.0" y="421.5" transform="translate(-7.0, 0)">65</text><text x="350.0" y="421.5" transform="translate(-7.0, 0)">55</text><text x="280.0" y="421.5" transform="translate(-7.0, 0)">45</text><text x="210.0" y="421.5" transform="translate(-7.0, 0)">35</text><text x="140.0" y="421.5" transform="translate(-7.0, 0)">25</text><text x="70.0" y="421.5" transform="translate(-7.0, 0)">15</text><text x="0.0" y="421.5" transform="translate(-3.5, 0)">5</text></g></g><g transform="translate(300.0, 250.0)"><path d="M 1.3011872240940628e-14 -212.5 A 212.5 212.5 0 1 1 -208.73604077984632 39.818529349466566 L -104.36802038992316 19.909264674733283 A 106.25 106.25 0 1 0 6.505936120470314e-15 -106.25 Z" fill="#5fab9e" stroke="#333333" stroke-width="1"/><path d="M -208.73604077984632 39.818529349466566 A 212.5 212.5 0 0 1 -154.90583332705 -145.46626000984628 L -77.452916663525 -72.73313000492314 A 106.25 106.25 0 0 0 -104.36802038992316 19.909264674733283 Z" fill="#f58b51" stroke="#333333" stroke-width="1"/><path d="M -154.90583332705 -145.46626000984628 A 212.5 212.5 0 0 1 -65.66611130467636 -202.09950971272013 L -32.83305565233818 -101.04975485636007 A 106.25 106.25 0 0 0 -77.452916663525 -72.73313000492314 Z" fill="#f7dd72" stroke="#333333" stroke-width="1"/><path d="M -65.66611130467636 -202.09950971272013 A 212.5 212.5 0 0 1 -3.903561672282188e-14 -212.5 L -1.951780836141094e-14 -106.25 A 106.25 106.25 0 0 0 -32.83305565233818 -101.04975485636007 Z" fill="#db504a" stroke="#333333" stroke-width="1"/></g></svg>