<svg xmlns="http://www.w3.org/2000/svg" width="600" height="500" viewBox="0 0 600 500"><path fill="white" d="M0 0 h600 v500 h-600 v-500Z"/><text transform="translate(-113.0, 19)" fill="#444444" font-family="Helvetica" font-weight="bold" font-size="16" x="300.0" y="12.5">Operating System Market Share</text><g><path d="M 300.0 37.5 A 212.5 212.5 0 1 1 91.26395922015368 289.8185293494666 L -21878.204332858673 4480.718743380823 A 22578.125 22578.125 0 1 0 300.00000000000136 -22328.125 Z" fill="#5fab9e" stroke="#ffffff" stroke-width="2"/><text x="488.2941737033335" y="405.770487494836" text-anchor="middle" dominant-baseline="middle" fill="white" font-size="11" font-weight="600" font-family="Inter, -apple-system, BlinkMacSystemFont, Segoe UI, sans-serif"><tspan x="488.2941737033335" y="391.770487494836">Windows</tspan><tspan x="488.2941737033335" y="405.770487494836">72.0</tspan><tspan x="488.2941737033335" y="419.770487494836">72.0%</tspan></text><path d="M 91.26395922015368 289.8185293494666 A 212.5 212.5 0 0 1 145.09416667295 104.53373999015372 L -16158.744790999062 -15205.790126046168 A 22578.125 22578.125 0 0 0 -21878.204332858673 4480.718743380823 Z" fill="#f58b51" stroke="#ffffff" stroke-width="2"/><text x="65.32823056269703" y="181.82154846166344" text-anchor="middle" dominant-baseline="middle" fill="white" font-size="11" font-weight="600" font-family="Inter, -apple-system, BlinkMacSystemFont, Segoe UI, sans-serif"><tspan x="65.32823056269703" y="167.82154846166344">macOS</tspan><tspan x="65.32823056269703" y="181.82154846166344">15.0</tspan><tspan x="65.32823056269703" y="195.82154846166344">15.0%</tspan></text><path d="M 145.09416667295 104.53373999015372 A 212.5 212.5 0 0 1 234.33388869532365 47.900490287279865 L -6677.024326121863 -21223.072906976515 A 22578.125 22578.125 0 0 0 -16158.744790999062 -15205.790126046168 Z" fill="#f7dd72" stroke="#ffffff" stroke-width="2"/><text x="169.0573269770078" y="43.66736320544504" text-anchor="middle" dominant-baseline="middle" fill="white" font-size="11" font-weight="600" font-family="Inter, -apple-system, BlinkMacSystemFont, Segoe UI, sans-serif"><tspan x="169.0573269770078" y="29.667363205445042">Linux</tspan><tspan x="169.0573269770078" y="43.66736320544504">8.0</tspan><tspan x="169.0573269770078" y="57.66736320544504">8.0%</tspan></text><path d="M 234.33388869532365 47.900490287279865 A 212.5 212.5 0 0 1 299.99999999999994 37.5 L 299.99999999999585 -22328.125 A 22578.125 22578.125 0 0 0 -6677.024326121863 -21223.072906976515 Z" fill="#db504a" stroke="#ffffff" stroke-width="2"/><text x="261.77132760579354" y="8.633661767063273" text-anchor="middle" dominant-baseline="middle" fill="white" font-size="11" font-weight="600" font-family="Inter, -apple-system, BlinkMacSystemFont, Segoe UI, sans-serif"><tspan x="261.77132760579354" y="-5.366338232936727">Other</tspan><tspan x="261.77132760579354" y="8.633661767063273">5.0</tspan><tspan x="261.77132760579354" y="22.633661767063273">5.0%</tspan></text></g></svg>