<svg xmlns="http://www.w3.org/2000/svg" width="500" height="500" viewBox="0 0 500 500"><path fill="#FFFFFF" d="M0 0 h500 v500 h-500 v-500Z"/><text transform="translate(-73.5, 18)" fill="#444444" font-family="Arial" font-weight="bold" font-size="16" x="250.0" y="12.5">Activity by Category</text><defs><clipPath id="plot-clip"><rect x="0" y="0" width="441.0" height="423.0"/></clipPath></defs><g><path d="M 250.0 250.0 L 250.0 163.33333333333334 A 86.66666666666666 86.66666666666666 0 0 1 332.4248980789133 223.21852715417123 Z" fill="#5fab9e" opacity="0.8"/><text x="280.56483311920863" y="207.93111629250274" fill="#000000" font-size="14" font-family="Arial" text-anchor="middle" dominant-baseline="middle">A</text><path d="M 250.0 250.0 L 386.31810066897197 205.7075641395909 A 143.33333333333331 143.33333333333331 0 0 1 334.24921949525447 365.9591025270758 Z" fill="#f58b51" opacity="0.8"/><text x="331.79086040138316" y="276.57546151624547" fill="#000000" font-size="14" font-family="Arial" text-anchor="middle" dominant-baseline="middle">B</text><path d="M 250.0 250.0 L 367.55705045849464 411.8033988749895 A 200.0 200.0 0 0 1 132.4429495415054 411.8033988749895 Z" fill="#f7dd72" opacity="0.8"/><text x="250.0" y="370.0" fill="#000000" font-size="14" font-family="Arial" text-anchor="middle" dominant-baseline="middle">C</text><path d="M 250.0 250.0 L 182.4046959863656 343.036954353119 A 115.0 115.0 0 0 1 140.62850062605733 214.46304564688106 Z" fill="#db504a" opacity="0.8"/><text x="184.37710037563443" y="271.3221726118714" fill="#ffffff" font-size="14" font-family="Arial" text-anchor="middle" dominant-baseline="middle">D</text><path d="M 250.0 250.0 L 86.7352980359986 196.95208263230072 A 171.66666666666669 171.66666666666669 0 0 1 249.99999999999997 78.33333333333331 Z" fill="#2e4756" opacity="0.8"/><text x="189.45811901387526" y="166.6712495793804" fill="#ffffff" font-size="14" font-family="Arial" text-anchor="middle" dominant-baseline="middle">E</text></g></svg>