<svg xmlns="http://www.w3.org/2000/svg" width="640" height="540" viewBox="0 0 640 540"><path fill="#1a1a1a" d="M0 0 h640 v540 h-640 v-540Z"/><text transform="translate(-80.5, 18)" fill="#ffffff" font-family="Arial" font-weight="bold" font-size="16" x="320.0" y="13.5">Commits by Weekday</text><defs><clipPath id="plot-clip"><rect x="0" y="0" width="492.0" height="459.0"/></clipPath></defs><g><circle cx="320.0" cy="283.5" r="36.720000000000006" fill="none" stroke="#474747" stroke-width="1"/><circle cx="320.0" cy="283.5" r="73.44000000000001" fill="none" stroke="#474747" stroke-width="1"/><circle cx="320.0" cy="283.5" r="110.16000000000001" fill="none" stroke="#474747" stroke-width="1"/><circle cx="320.0" cy="283.5" r="146.88000000000002" fill="none" stroke="#474747" stroke-width="1"/><circle cx="320.0" cy="283.5" r="183.60000000000002" fill="none" stroke="#474747" stroke-width="1"/><path d="M 320.0 283.5 L 320.0 177.012 A 106.488 106.488 0 0 1 403.2556709050556 217.1058179796672 Z" fill="#5fab9e" opacity="0.8"/><text x="353.45764289083314" y="214.02448865830866" fill="#ffffff" font-size="14" font-family="Arial" text-anchor="middle" dominant-baseline="middle">Mon</text><path d="M 320.0 283.5 L 423.3518673304138 201.0796361126903 A 132.192 132.192 0 0 1 448.8776705671396 312.9154873015531 Z" fill="#f58b51" opacity="0.8"/><text x="397.3266023402838" y="265.85070761906815" fill="#000000" font-size="14" font-family="Arial" text-anchor="middle" dominant-baseline="middle">Tue</text><path d="M 320.0 283.5 L 464.9873793880321 316.5924232142473 A 148.71600000000004 148.71600000000004 0 0 1 384.5254541466068 417.4884861589762 Z" fill="#f7dd72" opacity="0.8"/><text x="389.76251044802933" y="339.13374562393403" fill="#000000" font-size="14" font-family="Arial" text-anchor="middle" dominant-baseline="middle">Wed</text><path d="M 320.0 283.5 L 380.54240142150763 409.21759195163196 A 139.53600000000003 139.53600000000003 0 0 1 259.4575985784924 409.217591951632 Z" fill="#db504a" opacity="0.8"/><text x="320.0" y="367.2216" fill="#ffffff" font-size="14" font-family="Arial" text-anchor="middle" dominant-baseline="middle">Thu</text><path d="M 320.0 283.5 L 269.01692511873046 389.3674458540059 A 117.50400000000002 117.50400000000002 0 0 1 205.44207060698696 309.64709982360273 Z" fill="#2e4756" opacity="0.8"/><text x="259.71141072392527" y="331.5785456009306" fill="#ffffff" font-size="14" font-family="Arial" text-anchor="middle" dominant-baseline="middle">Fri</text><path d="M 320.0 283.5 L 280.6207117711518 292.48806556436347 A 40.392 40.392 0 0 1 288.42026276015133 258.315999923322 Z" fill="#ab5f6b" opacity="0.8"/><text x="244.8213588358352" y="266.3409657407607" fill="#ffffff" font-size="14" font-family="Arial" text-anchor="middle" dominant-baseline="middle">Sat</text><path d="M 320.0 283.5 L 298.46836097283045 266.32909085681047 A 27.540000000000003 27.540000000000003 0 0 1 320.0 255.96 Z" fill="#51bbf5" opacity="0.8"/><text x="286.54235710916686" y="214.02448865830866" fill="#ffffff" font-size="14" font-family="Arial" text-anchor="middle" dominant-baseline="middle">Sun</text><rect x="320.0" y="231.78" width="23.36" height="18" rx="2" fill="#ffffff" fill-opacity="1"/><text x="331.68" y="240.78" fill="#1a1a1a" font-size="14" font-family="Arial" font-weight="bold" text-anchor="middle" dominant-baseline="central">20</text><rect x="320.0" y="195.06" width="23.36" height="18" rx="2" fill="#ffffff" fill-opacity="1"/><text x="331.68" y="204.06" fill="#1a1a1a" font-size="14" font-family="Arial" font-weight="bold" text-anchor="middle" dominant-baseline="central">40</text><rect x="320.0" y="158.33999999999997" width="23.36" height="18" rx="2" fill="#ffffff" fill-opacity="1"/><text x="331.68" y="167.33999999999997" fill="#1a1a1a" font-size="14" font-family="Arial" font-weight="bold" text-anchor="middle" dominant-baseline="central">60</text><rect x="320.0" y="121.61999999999998" width="23.36" height="18" rx="2" fill="#ffffff" fill-opacity="1"/><text x="331.68" y="130.61999999999998" fill="#1a1a1a" font-size="14" font-family="Arial" font-weight="bold" text-anchor="middle" dominant-baseline="central">80</text><rect x="320.0" y="84.89999999999998" width="32.04" height="18" rx="2" fill="#ffffff" fill-opacity="1"/><text x="336.02" y="93.89999999999998" fill="#1a1a1a" font-size="14" font-family="Arial" font-weight="bold" text-anchor="middle" dominant-baseline="central">100</text></g><g><rect x="558.0" y="227.0" width="11.0" height="11.0" fill="#5fab9e"/><text x="575.0" y="236.35" fill="#e5e5e5" font-size="11" font-family="Arial" text-anchor="start">Mon</text><rect x="558.0" y="244.0" width="11.0" height="11.0" fill="#f58b51"/><text x="575.0" y="253.35" fill="#e5e5e5" font-size="11" font-family="Arial" text-anchor="start">Tue</text><rect x="558.0" y="261.0" width="11.0" height="11.0" fill="#f7dd72"/><text x="575.0" y="270.35" fill="#e5e5e5" font-size="11" font-family="Arial" text-anchor="start">Wed</text><rect x="558.0" y="278.0" width="11.0" height="11.0" fill="#db504a"/><text x="575.0" y="287.35" fill="#e5e5e5" font-size="11" font-family="Arial" text-anchor="start">Thu</text><rect x="558.0" y="295.0" width="11.0" height="11.0" fill="#2e4756"/><text x="575.0" y="304.35" fill="#e5e5e5" font-size="11" font-family="Arial" text-anchor="start">Fri</text><rect x="558.0" y="312.0" width="11.0" height="11.0" fill="#ab5f6b"/><text x="575.0" y="321.35" fill="#e5e5e5" font-size="11" font-family="Arial" text-anchor="start">Sat</text><rect x="558.0" y="329.0" width="11.0" height="11.0" fill="#51bbf5"/><text x="575.0" y="338.35" fill="#e5e5e5" font-size="11" font-family="Arial" text-anchor="start">Sun</text></g></svg>