<svg xmlns="http://www.w3.org/2000/svg" width="550" height="450" viewBox="0 0 550 450"><path fill="#FFFFFF" d="M0 0 h550 v450 h-550 v-450Z"/><text transform="translate(0, 16.0)" fill="#444444" font-family="Roboto" font-weight="normal" font-size="16" text-anchor="middle" x="275.0" y="11.25">Athlete Comparison: Sprint vs Endurance</text><defs><clipPath id="plot-clip"><rect x="0" y="0" width="495.0" height="381.0"/></clipPath></defs><g opacity="0.8" transform=""><circle cx="275.0" cy="225.0" r="17.009999999999998" fill="none" stroke="#CCCCCC" stroke-width="1"/><circle cx="275.0" cy="225.0" r="34.019999999999996" fill="none" stroke="#CCCCCC" stroke-width="1"/><circle cx="275.0" cy="225.0" r="51.029999999999994" fill="none" stroke="#CCCCCC" stroke-width="1"/><circle cx="275.0" cy="225.0" r="68.03999999999999" fill="none" stroke="#CCCCCC" stroke-width="1"/><circle cx="275.0" cy="225.0" r="85.04999999999998" fill="none" stroke="#CCCCCC" stroke-width="1"/><path d="M275.0 225.0 L275.0 310.05" stroke="#CCCCCC" stroke-width="1"/><text x="280.0" y="334.05" fill="#444444" font-size="12" font-family="Arial" text-anchor="start">Speed</text><path d="M275.0 225.0 L355.8873567109028 251.2818953715893" stroke="#CCCCCC" stroke-width="1"/><text x="379.90848703680587" y="261.46223525908823" fill="#444444" font-size="12" font-family="Arial" text-anchor="start">Stamina</text><path d="M275.0 225.0 L324.9911357074748 156.1931046284107" stroke="#CCCCCC" stroke-width="1"/><text x="341.7468407533243" y="144.0127647409118" fill="#444444" font-size="12" font-family="Arial" text-anchor="start">Recovery</text><path d="M275.0 225.0 L225.00886429252517 156.1931046284107" stroke="#CCCCCC" stroke-width="1"/><text x="208.2531592466757" y="144.0127647409118" fill="#444444" font-size="12" font-family="Arial" text-anchor="end">Power</text><path d="M275.0 225.0 L194.11264328909718 251.28189537158926" stroke="#CCCCCC" stroke-width="1"/><text x="170.0915129631941" y="261.46223525908823" fill="#444444" font-size="12" font-family="Arial" text-anchor="end">Agility</text><path d="M275.0,307.3642105263158 330.3439809074598,242.9823494647716 303.9422364622223,185.16442899539567 232.9022015094949,167.05735126603008 215.39878979196635,244.3656071159079 Z" fill="#5fab9e" fill-opacity="0.2" stroke="#5fab9e" stroke-width="2"/><circle cx="275.0" cy="307.3642105263158" r="4" fill="#5fab9e" stroke="white" stroke-width="1"/><circle cx="330.3439809074598" cy="242.9823494647716" r="4" fill="#5fab9e" stroke="white" stroke-width="1"/><circle cx="303.9422364622223" cy="185.16442899539567" r="4" fill="#5fab9e" stroke="white" stroke-width="1"/><circle cx="232.9022015094949" cy="167.05735126603008" r="4" fill="#5fab9e" stroke="white" stroke-width="1"/><circle cx="215.39878979196635" cy="244.3656071159079" r="4" fill="#5fab9e" stroke="white" stroke-width="1"/><path d="M275.0,278.7157894736842 351.63012741032895,249.898637720453 324.9911357074748,156.1931046284107 240.7955387264646,177.92159790364946 202.62710189024483,248.5153800693167 Z" fill="#f58b51" fill-opacity="0.2" stroke="#f58b51" stroke-width="2"/><circle cx="275.0" cy="278.7157894736842" r="4" fill="#f58b51" stroke="white" stroke-width="1"/><circle cx="351.63012741032895" cy="249.898637720453" r="4" fill="#f58b51" stroke="white" stroke-width="1"/><circle cx="324.9911357074748" cy="156.1931046284107" r="4" fill="#f58b51" stroke="white" stroke-width="1"/><circle cx="240.7955387264646" cy="177.92159790364946" r="4" fill="#f58b51" stroke="white" stroke-width="1"/><circle cx="202.62710189024483" cy="248.5153800693167" r="4" fill="#f58b51" stroke="white" stroke-width="1"/></g><g><rect transform="translate(-5.85, -2.1)" x="434.65" y="52.6" width="89.69999999999999" height="32.199999999999996" fill="none" stroke="none"/><g><rect y="54.599999999999994" x="434.65" width="12" height="12" fill="#5fab9e"/><text y="63.599999999999994" x="448.65" font-size="12" font-family="Roboto" fill="#444444">Sprinter</text></g><g><rect y="66.6" x="434.65" width="12" height="12" fill="#f58b51"/><text y="75.6" x="448.65" font-size="12" font-family="Roboto" fill="#444444">Marathoner</text></g></g></svg>