<svg xmlns="http://www.w3.org/2000/svg" width="620" height="520" viewBox="0 0 620 520"><path fill="#1a1a1a" d="M0 0 h620 v520 h-620 v-520Z"/><text transform="translate(-123.5, 18)" fill="#ffffff" font-family="Arial" font-weight="bold" font-size="16" x="310.0" y="13.0">Engineering Team Skill Coverage</text><defs><clipPath id="plot-clip"><rect x="0" y="0" width="558.0" height="441.0"/></clipPath></defs><g transform=""><g opacity="0.8"><circle cx="310.0" cy="260.0" r="33.6" fill="none" stroke="#474747" stroke-width="1"/><circle cx="310.0" cy="260.0" r="67.2" fill="none" stroke="#474747" stroke-width="1"/><circle cx="310.0" cy="260.0" r="100.80000000000001" fill="none" stroke="#474747" stroke-width="1"/><circle cx="310.0" cy="260.0" r="134.4" fill="none" stroke="#474747" stroke-width="1"/><circle cx="310.0" cy="260.0" r="168.0" fill="none" stroke="#474747" stroke-width="1"/><path d="M310.0 260.0 L310.0 428.0" stroke="#474747" stroke-width="1"/><text x="310.0" y="460.0" fill="#ffffff" font-size="12" font-family="Arial" text-anchor="middle">Backend</text><path d="M310.0 260.0 L455.4922678357857 344.0" stroke="#474747" stroke-width="1"/><text x="477.8127759114745" y="366.0" fill="#ffffff" font-size="12" font-family="Arial" text-anchor="start">Frontend</text><path d="M310.0 260.0 L455.4922678357857 176.0" stroke="#474747" stroke-width="1"/><text x="477.8127759114745" y="164.0" fill="#ffffff" font-size="12" font-family="Arial" text-anchor="start">DevOps</text><path d="M310.0 260.0 L310.0 92.0" stroke="#474747" stroke-width="1"/><text x="310.0" y="70.0" fill="#ffffff" font-size="12" font-family="Arial" text-anchor="middle">Testing</text><path d="M310.0 260.0 L164.5077321642143 176.0" stroke="#474747" stroke-width="1"/><text x="142.1872240885255" y="164.0" fill="#ffffff" font-size="12" font-family="Arial" text-anchor="end">Data</text><path d="M310.0 260.0 L164.5077321642143 344.0" stroke="#474747" stroke-width="1"/><text x="142.18722408852554" y="366.0" fill="#ffffff" font-size="12" font-family="Arial" text-anchor="end">Design</text><path d="M310.0,409.3333333333333 415.0777489925119,320.66666666666663 423.16065276116666,194.66666666666669 310.0,157.33333333333331 164.5077321642143,176.0 213.0051547761429,316.0 Z" fill="#5fab9e" fill-opacity="0.2" stroke="#5fab9e" stroke-width="2"/><circle cx="310.0" cy="409.3333333333333" r="4" fill="#5fab9e" stroke="white" stroke-width="1"/><circle cx="415.0777489925119" cy="320.66666666666663" r="4" fill="#5fab9e" stroke="white" stroke-width="1"/><circle cx="423.16065276116666" cy="194.66666666666669" r="4" fill="#5fab9e" stroke="white" stroke-width="1"/><circle cx="310.0" cy="157.33333333333331" r="4" fill="#5fab9e" stroke="white" stroke-width="1"/><circle cx="164.5077321642143" cy="176.0" r="4" fill="#5fab9e" stroke="white" stroke-width="1"/><circle cx="213.0051547761429" cy="316.0" r="4" fill="#5fab9e" stroke="white" stroke-width="1"/><path d="M310.0,362.6666666666667 447.4093640671309,339.3333333333333 406.99484522385717,204.0 310.0,110.66666666666669 229.17096231345238,213.33333333333334 188.7564434701786,330.0 Z" fill="#f58b51" fill-opacity="0.2" stroke="#f58b51" stroke-width="2"/><circle cx="310.0" cy="362.6666666666667" r="4" fill="#f58b51" stroke="white" stroke-width="1"/><circle cx="447.4093640671309" cy="339.3333333333333" r="4" fill="#f58b51" stroke="white" stroke-width="1"/><circle cx="406.99484522385717" cy="204.0" r="4" fill="#f58b51" stroke="white" stroke-width="1"/><circle cx="310.0" cy="110.66666666666669" r="4" fill="#f58b51" stroke="white" stroke-width="1"/><circle cx="229.17096231345238" cy="213.33333333333334" r="4" fill="#f58b51" stroke="white" stroke-width="1"/><circle cx="188.7564434701786" cy="330.0" r="4" fill="#f58b51" stroke="white" stroke-width="1"/></g><g opacity="1"><rect x="310.0" y="222.4" width="20.88" height="16" rx="2" fill="#ffffff" fill-opacity="1"/><text x="313.0" y="232.4" fill="#1a1a1a" font-size="12" font-family="Arial" font-weight="bold" text-anchor="start">18</text><rect x="310.0" y="188.8" width="20.88" height="16" rx="2" fill="#ffffff" fill-opacity="1"/><text x="313.0" y="198.8" fill="#1a1a1a" font-size="12" font-family="Arial" font-weight="bold" text-anchor="start">36</text><rect x="310.0" y="155.2" width="20.88" height="16" rx="2" fill="#ffffff" fill-opacity="1"/><text x="313.0" y="165.2" fill="#1a1a1a" font-size="12" font-family="Arial" font-weight="bold" text-anchor="start">54</text><rect x="310.0" y="121.6" width="20.88" height="16" rx="2" fill="#ffffff" fill-opacity="1"/><text x="313.0" y="131.6" fill="#1a1a1a" font-size="12" font-family="Arial" font-weight="bold" text-anchor="start">72</text><rect x="310.0" y="88.0" width="20.88" height="16" rx="2" fill="#ffffff" fill-opacity="1"/><text x="313.0" y="98.0" fill="#1a1a1a" font-size="12" font-family="Arial" font-weight="bold" text-anchor="start">90</text></g></g><g><rect transform="translate(-6.075, -2.4)" x="497.925" y="59.4" width="93.14999999999999" height="36.8" fill="#2e2e2e" fill-opacity="0.85" stroke="none"/><g><rect y="61.4" x="497.925" width="12" height="12" fill="#5fab9e"/><text y="70.4" x="511.925" font-size="12" font-family="Arial" fill="#e5e5e5">Team Alpha</text></g><g><rect y="77.4" x="497.925" width="12" height="12" fill="#f58b51"/><text y="86.4" x="511.925" font-size="12" font-family="Arial" fill="#e5e5e5">Team Beta</text></g></g></svg>