<svg xmlns="http://www.w3.org/2000/svg" width="600" height="500" viewBox="0 0 600 500"><path fill="white" d="M0 0 h600 v500 h-600 v-500Z"/><text transform="translate(-105.0, 18)" fill="#444444" font-family="Arial" font-weight="bold" font-size="16" x="300.0" y="12.5">Character Stats Comparison</text><g opacity="0.8" transform=""><circle cx="300.0" cy="250.0" r="19.259999999999998" fill="none" stroke="#e0e0e0" stroke-width="1"/><circle cx="300.0" cy="250.0" r="38.519999999999996" fill="none" stroke="#e0e0e0" stroke-width="1"/><circle cx="300.0" cy="250.0" r="57.779999999999994" fill="none" stroke="#e0e0e0" stroke-width="1"/><circle cx="300.0" cy="250.0" r="77.03999999999999" fill="none" stroke="#e0e0e0" stroke-width="1"/><circle cx="300.0" cy="250.0" r="96.29999999999998" fill="none" stroke="#e0e0e0" stroke-width="1"/><path d="M300.0 250.0 L300.0 346.3" stroke="#e0e0e0" stroke-width="1"/><text x="305.0" y="370.3" fill="#333" font-size="12" font-family="Arial" text-anchor="start">Speed</text><path d="M300.0 250.0 L391.58674251922326 279.7583365583074" stroke="#e0e0e0" stroke-width="1"/><text x="415.60787284512634" y="289.9386764458064" fill="#333" font-size="12" font-family="Arial" text-anchor="start">Power</text><path d="M300.0 250.0 L356.6037197957652 172.09166344169256" stroke="#e0e0e0" stroke-width="1"/><text x="373.3594248416146" y="159.91132355419361" fill="#333" font-size="12" font-family="Arial" text-anchor="start">Endurance</text><path d="M300.0 250.0 L243.39628020423484 172.09166344169256" stroke="#e0e0e0" stroke-width="1"/><text x="226.6405751583854" y="159.91132355419361" fill="#333" font-size="12" font-family="Arial" text-anchor="end">Defense</text><path d="M300.0 250.0 L208.4132574807767 279.7583365583074" stroke="#e0e0e0" stroke-width="1"/><text x="184.39212715487363" y="289.9386764458064" fill="#333" font-size="12" font-family="Arial" text-anchor="end">Skill</text><path d="M300.0,292.8 371.234133070507,273.1453728786836 337.73581319717675,198.06110896112838 243.39628020423484,172.09166344169256 249.11847637820927,266.53240919905966 Z" fill="#5fab9e" fill-opacity="0.2" stroke="#5fab9e" stroke-width="2"/><circle cx="300.0" cy="292.8" r="4" fill="#5fab9e" stroke="white" stroke-width="1"/><circle cx="371.234133070507" cy="273.1453728786836" r="4" fill="#5fab9e" stroke="white" stroke-width="1"/><circle cx="337.73581319717675" cy="198.06110896112838" r="4" fill="#5fab9e" stroke="white" stroke-width="1"/><circle cx="243.39628020423484" cy="172.09166344169256" r="4" fill="#5fab9e" stroke="white" stroke-width="1"/><circle cx="249.11847637820927" cy="266.53240919905966" r="4" fill="#5fab9e" stroke="white" stroke-width="1"/></g></svg>