<svg xmlns="http://www.w3.org/2000/svg" width="600" height="500" viewBox="0 0 600 500"><path fill="#FFFFFF" d="M0 0 h600 v500 h-600 v-500Z"/><text transform="translate(-105.0, 18)" fill="#444444" font-family="Arial" font-weight="bold" font-size="16" x="300.0" y="12.5">Character Stats Comparison</text><defs><clipPath id="plot-clip"><rect x="0" y="0" width="540.0" height="423.0"/></clipPath></defs><g transform=""><g opacity="0.8"><circle cx="300.0" cy="250.0" r="32.1" fill="none" stroke="#cccccc" stroke-width="1"/><circle cx="300.0" cy="250.0" r="64.2" fill="none" stroke="#cccccc" stroke-width="1"/><circle cx="300.0" cy="250.0" r="96.30000000000001" fill="none" stroke="#cccccc" stroke-width="1"/><circle cx="300.0" cy="250.0" r="128.4" fill="none" stroke="#cccccc" stroke-width="1"/><circle cx="300.0" cy="250.0" r="160.5" fill="none" stroke="#cccccc" stroke-width="1"/><path d="M300.0 250.0 L300.0 410.5" stroke="#cccccc" stroke-width="1"/><text x="300.0" y="442.5" fill="#444444" font-size="12" font-family="Arial" text-anchor="middle">Speed</text><path d="M300.0 250.0 L452.64457086537215 299.5972275971791" stroke="#cccccc" stroke-width="1"/><text x="476.6657011912752" y="317.777567484678" fill="#444444" font-size="12" font-family="Arial" text-anchor="start">Power</text><path d="M300.0 250.0 L394.33953299294194 120.15277240282094" stroke="#cccccc" stroke-width="1"/><text x="411.0952380387914" y="101.972432515322" fill="#444444" font-size="12" font-family="Arial" text-anchor="start">Endurance</text><path d="M300.0 250.0 L205.66046700705806 120.15277240282094" stroke="#cccccc" stroke-width="1"/><text x="188.90476196120864" y="101.972432515322" fill="#444444" font-size="12" font-family="Arial" text-anchor="end">Defense</text><path d="M300.0 250.0 L147.35542913462785 299.597227597179" stroke="#cccccc" stroke-width="1"/><text x="123.33429880872478" y="317.777567484678" fill="#444444" font-size="12" font-family="Arial" text-anchor="end">Skill</text><path d="M300.0,321.3333333333333 418.72355511751164,288.5756214644726 362.89302199529465,163.43518160188063 205.66046700705806,120.15277240282094 215.19746063034881,277.55401533176615 Z" fill="#5fab9e" fill-opacity="0.2" stroke="#5fab9e" stroke-width="2"/><circle cx="300.0" cy="321.3333333333333" r="4" fill="#5fab9e" stroke="white" stroke-width="1"/><circle cx="418.72355511751164" cy="288.5756214644726" r="4" fill="#5fab9e" stroke="white" stroke-width="1"/><circle cx="362.89302199529465" cy="163.43518160188063" r="4" fill="#5fab9e" stroke="white" stroke-width="1"/><circle cx="205.66046700705806" cy="120.15277240282094" r="4" fill="#5fab9e" stroke="white" stroke-width="1"/><circle cx="215.19746063034881" cy="277.55401533176615" r="4" fill="#5fab9e" stroke="white" stroke-width="1"/></g><g opacity="1"><rect x="300.0" y="213.9" width="13.44" height="16" rx="2" fill="#000000" fill-opacity="1"/><text x="306.72" y="221.9" fill="#FFFFFF" font-size="12" font-family="Arial" font-weight="bold" text-anchor="middle" dominant-baseline="central">9</text><rect x="300.0" y="181.8" width="20.88" height="16" rx="2" fill="#000000" fill-opacity="1"/><text x="310.44" y="189.8" fill="#FFFFFF" font-size="12" font-family="Arial" font-weight="bold" text-anchor="middle" dominant-baseline="central">18</text><rect x="300.0" y="149.7" width="20.88" height="16" rx="2" fill="#000000" fill-opacity="1"/><text x="310.44" y="157.7" fill="#FFFFFF" font-size="12" font-family="Arial" font-weight="bold" text-anchor="middle" dominant-baseline="central">27</text><rect x="300.0" y="117.6" width="20.88" height="16" rx="2" fill="#000000" fill-opacity="1"/><text x="310.44" y="125.6" fill="#FFFFFF" font-size="12" font-family="Arial" font-weight="bold" text-anchor="middle" dominant-baseline="central">36</text><rect x="300.0" y="85.5" width="20.88" height="16" rx="2" fill="#000000" fill-opacity="1"/><text x="310.44" y="93.5" fill="#FFFFFF" font-size="12" font-family="Arial" font-weight="bold" text-anchor="middle" dominant-baseline="central">45</text></g></g></svg>