<svg xmlns="http://www.w3.org/2000/svg" width="600" height="500" viewBox="0 0 600 500"><path fill="white" d="M0 0 h600 v500 h-600 v-500Z"/><text transform="translate(-70.5, 18)" fill="#444444" font-family="Arial" font-weight="bold" font-size="16" x="300.0" y="12.5">Player Comparison</text><g opacity="0.8" transform="translate(-30.0, -25.0) rotate(180, 300.0, 250.0) scale(-1, 1) translate(-515.0, 0)"><circle cx="300.0" cy="250.0" r="14.7" fill="none" stroke="#e0e0e0" stroke-width="1"/><circle cx="300.0" cy="250.0" r="29.4" fill="none" stroke="#e0e0e0" stroke-width="1"/><circle cx="300.0" cy="250.0" r="44.099999999999994" fill="none" stroke="#e0e0e0" stroke-width="1"/><circle cx="300.0" cy="250.0" r="58.8" fill="none" stroke="#e0e0e0" stroke-width="1"/><circle cx="300.0" cy="250.0" r="73.5" fill="none" stroke="#e0e0e0" stroke-width="1"/><path d="M300.0 250.0 L300.0 176.5" stroke="#e0e0e0" stroke-width="1"/><text x="305.0" y="160.5" fill="#333" font-size="12" text-anchor="start">Speed</text><path d="M300.0 250.0 L369.9026539476938 227.28725091344137" stroke="#e0e0e0" stroke-width="1"/><text x="393.9237842735969" y="225.10691102594242" fill="#333" font-size="12" text-anchor="start">Power</text><path d="M300.0 250.0 L343.2022160434968 309.46274908655863" stroke="#e0e0e0" stroke-width="1"/><text x="359.95792108934626" y="329.6430889740576" fill="#333" font-size="12" text-anchor="start">Endurance</text><path d="M300.0 250.0 L256.7977839565032 309.46274908655863" stroke="#e0e0e0" stroke-width="1"/><text x="240.04207891065377" y="329.6430889740576" fill="#333" font-size="12" text-anchor="end">Defense</text><path d="M300.0 250.0 L230.0973460523062 227.28725091344137" stroke="#e0e0e0" stroke-width="1"/><text x="206.07621572640312" y="225.10691102594242" fill="#333" font-size="12" text-anchor="end">Skill</text><path d="M300.0,217.33333333333334 354.36873084820627,232.33452848823217 328.8014773623312,289.6418327243724 256.7977839565032,309.46274908655863 261.1651922512812,237.381806063023 Z" fill="#5fab9e" fill-opacity="0.2" stroke="#5fab9e" stroke-width="2"/><circle cx="300.0" cy="217.33333333333334" r="4" fill="#5fab9e" stroke="white" stroke-width="1"/><circle cx="354.36873084820627" cy="232.33452848823217" r="4" fill="#5fab9e" stroke="white" stroke-width="1"/><circle cx="328.8014773623312" cy="289.6418327243724" r="4" fill="#5fab9e" stroke="white" stroke-width="1"/><circle cx="256.7977839565032" cy="309.46274908655863" r="4" fill="#5fab9e" stroke="white" stroke-width="1"/><circle cx="261.1651922512812" cy="237.381806063023" r="4" fill="#5fab9e" stroke="white" stroke-width="1"/></g><g><rect transform="translate(-7.625, -3.5)" x="497.375" y="59.5" width="76.25" height="35.0" fill="#ffffff" stroke="#CCCCCC"/><g transform="translate(0, 12)"><rect y="47.5" x="497.375" width="12" height="12" fill="#5fab9e"/><text y="56.5" x="511.375" font-size="11" font-family="Helvetica">Player A</text></g></g></svg>