<svg xmlns="http://www.w3.org/2000/svg" width="550" height="450" viewBox="0 0 550 450"><path fill="#FFFFFF" d="M0 0 h550 v450 h-550 v-450Z"/><text transform="translate(-72.5, 16.0)" fill="#444444" font-family="Roboto" font-weight="normal" font-size="16" x="275.0" y="11.25">Frontend Framework Evaluation</text><defs><clipPath id="plot-clip"><rect x="0" y="0" width="495.0" height="381.0"/></clipPath></defs><g opacity="0.8" transform=""><circle cx="275.0" cy="225.0" r="17.009999999999998" fill="none" stroke="#CCCCCC" stroke-width="1"/><circle cx="275.0" cy="225.0" r="34.019999999999996" fill="none" stroke="#CCCCCC" stroke-width="1"/><circle cx="275.0" cy="225.0" r="51.029999999999994" fill="none" stroke="#CCCCCC" stroke-width="1"/><circle cx="275.0" cy="225.0" r="68.03999999999999" fill="none" stroke="#CCCCCC" stroke-width="1"/><circle cx="275.0" cy="225.0" r="85.04999999999998" fill="none" stroke="#CCCCCC" stroke-width="1"/><path d="M275.0 225.0 L275.0 310.05" stroke="#CCCCCC" stroke-width="1"/><text x="280.0" y="334.05" fill="#444444" font-size="12" font-family="Arial" text-anchor="start">Performance</text><path d="M275.0 225.0 L348.65546059186653 267.525" stroke="#CCCCCC" stroke-width="1"/><text x="370.97596866755526" y="281.525" fill="#444444" font-size="12" font-family="Arial" text-anchor="start">Ecosystem</text><path d="M275.0 225.0 L348.65546059186653 182.47500000000002" stroke="#CCCCCC" stroke-width="1"/><text x="370.97596866755526" y="176.47500000000002" fill="#444444" font-size="12" font-family="Arial" text-anchor="start">DX</text><path d="M275.0 225.0 L275.0 139.95" stroke="#CCCCCC" stroke-width="1"/><text x="280.0" y="123.95" fill="#444444" font-size="12" font-family="Arial" text-anchor="start">Bundle Size</text><path d="M275.0 225.0 L201.34453940813347 182.47500000000002" stroke="#CCCCCC" stroke-width="1"/><text x="179.02403133244474" y="176.47500000000002" fill="#444444" font-size="12" font-family="Arial" text-anchor="end">TypeScript</text><path d="M275.0 225.0 L201.3445394081335 267.525" stroke="#CCCCCC" stroke-width="1"/><text x="179.02403133244474" y="281.52500000000003" fill="#444444" font-size="12" font-family="Arial" text-anchor="end">Community</text><path d="M275.0,305.325 332.2875804603406,258.075 348.65546059186653,182.47500000000002 275.0,168.3 213.6204495067779,189.5625 209.52847947389645,262.8 Z" fill="#5fab9e" fill-opacity="0.2" stroke="#5fab9e" stroke-width="2"/><circle cx="275.0" cy="305.325" r="4" fill="#5fab9e" stroke="white" stroke-width="1"/><circle cx="332.2875804603406" cy="258.075" r="4" fill="#5fab9e" stroke="white" stroke-width="1"/><circle cx="348.65546059186653" cy="182.47500000000002" r="4" fill="#5fab9e" stroke="white" stroke-width="1"/><circle cx="275.0" cy="168.3" r="4" fill="#5fab9e" stroke="white" stroke-width="1"/><circle cx="213.6204495067779" cy="189.5625" r="4" fill="#5fab9e" stroke="white" stroke-width="1"/><circle cx="209.52847947389645" cy="262.8" r="4" fill="#5fab9e" stroke="white" stroke-width="1"/></g></svg>