<svg xmlns="http://www.w3.org/2000/svg" width="600" height="500" viewBox="0 0 600 500"><path fill="#FFFFFF" d="M0 0 h600 v500 h-600 v-500Z"/><text transform="translate(-70.5, 18)" fill="#444444" font-family="Arial" font-weight="normal" font-size="16" x="300.0" y="12.5">Player Comparison</text><defs><clipPath id="plot-clip"><rect x="0" y="0" width="540.0" height="423.0"/></clipPath></defs><g opacity="0.8" transform=""><circle cx="300.0" cy="250.0" r="19.259999999999998" fill="none" stroke="#CCCCCC" stroke-width="1"/><circle cx="300.0" cy="250.0" r="38.519999999999996" fill="none" stroke="#CCCCCC" stroke-width="1"/><circle cx="300.0" cy="250.0" r="57.779999999999994" fill="none" stroke="#CCCCCC" stroke-width="1"/><circle cx="300.0" cy="250.0" r="77.03999999999999" fill="none" stroke="#CCCCCC" stroke-width="1"/><circle cx="300.0" cy="250.0" r="96.29999999999998" fill="none" stroke="#CCCCCC" stroke-width="1"/><path d="M300.0 250.0 L300.0 346.3" stroke="#CCCCCC" stroke-width="1"/><text x="305.0" y="370.3" fill="#444444" font-size="12" font-family="Arial" text-anchor="start">Speed</text><path d="M300.0 250.0 L391.58674251922326 279.7583365583074" stroke="#CCCCCC" stroke-width="1"/><text x="415.60787284512634" y="289.9386764458064" fill="#444444" font-size="12" font-family="Arial" text-anchor="start">Power</text><path d="M300.0 250.0 L356.6037197957652 172.09166344169256" stroke="#CCCCCC" stroke-width="1"/><text x="373.3594248416146" y="159.91132355419361" fill="#444444" font-size="12" font-family="Arial" text-anchor="start">Endurance</text><path d="M300.0 250.0 L243.39628020423484 172.09166344169256" stroke="#CCCCCC" stroke-width="1"/><text x="226.6405751583854" y="159.91132355419361" fill="#444444" font-size="12" font-family="Arial" text-anchor="end">Defense</text><path d="M300.0 250.0 L208.4132574807767 279.7583365583074" stroke="#CCCCCC" stroke-width="1"/><text x="184.39212715487363" y="289.9386764458064" fill="#444444" font-size="12" font-family="Arial" text-anchor="end">Skill</text><path d="M300.0,292.8 371.234133070507,273.1453728786836 337.73581319717675,198.06110896112838 243.39628020423484,172.09166344169256 249.11847637820927,266.53240919905966 Z" fill="#5fab9e" fill-opacity="0.2" stroke="#5fab9e" stroke-width="2"/><circle cx="300.0" cy="292.8" r="4" fill="#5fab9e" stroke="white" stroke-width="1"/><circle cx="371.234133070507" cy="273.1453728786836" r="4" fill="#5fab9e" stroke="white" stroke-width="1"/><circle cx="337.73581319717675" cy="198.06110896112838" r="4" fill="#5fab9e" stroke="white" stroke-width="1"/><circle cx="243.39628020423484" cy="172.09166344169256" r="4" fill="#5fab9e" stroke="white" stroke-width="1"/><circle cx="249.11847637820927" cy="266.53240919905966" r="4" fill="#5fab9e" stroke="white" stroke-width="1"/><path d="M300.0,314.2 350.88152362179073,266.53240919905966 350.31441759623567,180.7481452815045 255.97488460329376,189.40462712131642 238.94217165385115,269.8388910388716 Z" fill="#f58b51" fill-opacity="0.2" stroke="#f58b51" stroke-width="2"/><circle cx="300.0" cy="314.2" r="4" fill="#f58b51" stroke="white" stroke-width="1"/><circle cx="350.88152362179073" cy="266.53240919905966" r="4" fill="#f58b51" stroke="white" stroke-width="1"/><circle cx="350.31441759623567" cy="180.7481452815045" r="4" fill="#f58b51" stroke="white" stroke-width="1"/><circle cx="255.97488460329376" cy="189.40462712131642" r="4" fill="#f58b51" stroke="white" stroke-width="1"/><circle cx="238.94217165385115" cy="269.8388910388716" r="4" fill="#f58b51" stroke="white" stroke-width="1"/></g><g><rect transform="translate(-4.575, -2.1)" x="500.425" y="58.1" width="70.14999999999999" height="32.199999999999996" fill="#f5f5f5" fill-opacity="0.85" stroke="none"/><g><rect y="60.099999999999994" x="500.425" width="12" height="12" fill="#5fab9e"/><text y="69.1" x="514.425" font-size="12" font-family="Arial" fill="#444444">Player A</text></g><g><rect y="72.1" x="500.425" width="12" height="12" fill="#f58b51"/><text y="81.1" x="514.425" font-size="12" font-family="Arial" fill="#444444">Player B</text></g></g></svg>