<svg xmlns="http://www.w3.org/2000/svg" width="600" height="500" viewBox="0 0 600 500"><path fill="white" d="M0 0 h600 v500 h-600 v-500Z"/><text transform="translate(-70.5, 18)" fill="#444444" font-family="Arial" font-weight="bold" font-size="16" x="300.0" y="12.5">Player Comparison</text><g opacity="0.8" transform=""><circle cx="300.0" cy="250.0" r="14.7" fill="none" stroke="#e0e0e0" stroke-width="1"/><circle cx="300.0" cy="250.0" r="29.4" fill="none" stroke="#e0e0e0" stroke-width="1"/><circle cx="300.0" cy="250.0" r="44.099999999999994" fill="none" stroke="#e0e0e0" stroke-width="1"/><circle cx="300.0" cy="250.0" r="58.8" fill="none" stroke="#e0e0e0" stroke-width="1"/><circle cx="300.0" cy="250.0" r="73.5" fill="none" stroke="#e0e0e0" stroke-width="1"/><path d="M300.0 250.0 L300.0 323.5" stroke="#e0e0e0" stroke-width="1"/><text x="305.0" y="347.5" fill="#333" font-size="12" text-anchor="start">Speed</text><path d="M300.0 250.0 L369.9026539476938 272.71274908655863" stroke="#e0e0e0" stroke-width="1"/><text x="393.9237842735969" y="282.8930889740576" fill="#333" font-size="12" text-anchor="start">Power</text><path d="M300.0 250.0 L343.2022160434968 190.53725091344137" stroke="#e0e0e0" stroke-width="1"/><text x="359.95792108934626" y="178.3569110259424" fill="#333" font-size="12" text-anchor="start">Endurance</text><path d="M300.0 250.0 L256.7977839565032 190.53725091344137" stroke="#e0e0e0" stroke-width="1"/><text x="240.04207891065377" y="178.3569110259424" fill="#333" font-size="12" text-anchor="end">Defense</text><path d="M300.0 250.0 L230.0973460523062 272.71274908655863" stroke="#e0e0e0" stroke-width="1"/><text x="206.07621572640312" y="282.89308897405755" fill="#333" font-size="12" text-anchor="end">Skill</text><path d="M300.0,282.6666666666667 354.36873084820627,267.6654715117678 328.8014773623312,210.35816727562758 256.7977839565032,190.53725091344137 261.1651922512812,262.61819393697704 Z" fill="#5fab9e" fill-opacity="0.2" stroke="#5fab9e" stroke-width="2"/><circle cx="300.0" cy="282.6666666666667" r="4" fill="#5fab9e" stroke="white" stroke-width="1"/><circle cx="354.36873084820627" cy="267.6654715117678" r="4" fill="#5fab9e" stroke="white" stroke-width="1"/><circle cx="328.8014773623312" cy="210.35816727562758" r="4" fill="#5fab9e" stroke="white" stroke-width="1"/><circle cx="256.7977839565032" cy="190.53725091344137" r="4" fill="#5fab9e" stroke="white" stroke-width="1"/><circle cx="261.1651922512812" cy="262.61819393697704" r="4" fill="#5fab9e" stroke="white" stroke-width="1"/></g><g><rect transform="translate(-7.625, -3.5)" x="497.375" y="59.5" width="76.25" height="35.0" fill="#ffffff" stroke="#CCCCCC"/><g transform="translate(0, 12)"><rect y="47.5" x="497.375" width="12" height="12" fill="#5fab9e"/><text y="56.5" x="511.375" font-size="11" font-family="Helvetica">Player A</text></g></g></svg>