<svg xmlns="http://www.w3.org/2000/svg" width="500" height="500" viewBox="0 0 500 500"><path fill="white" d="M0 0 h500 v500 h-500 v-500Z"/><text transform="translate(-82.5, 19)" fill="#444444" font-family="Helvetica" font-weight="bold" font-size="16" x="250.0" y="30.0">Example Scatter Graph</text><g><path stroke="#CCCCCC" stroke-dasharray="None" d="M0 351.5 h362.0 M0 312.4444444444444 h362.0 M0 273.3888888888889 h362.0 M0 234.33333333333331 h362.0 M0 195.2777777777778 h362.0 M0 156.2222222222222 h362.0 M0 117.16666666666666 h362.0 M0 78.1111111111111 h362.0 M0 39.05555555555555 h362.0 M0 0.0 h362.0" transform="translate(78.0, 88.5)"/><g font-size="12" font-family="Helvetica" transform="translate(78.0, 88.5)"><text x="0" y="351.5" transform="translate(-6, -7.0)">25</text><text x="0" y="312.4444444444444" transform="translate(-6, -7.0)">20</text><text x="0" y="273.3888888888889" transform="translate(-6, -7.0)">15</text><text x="0" y="234.33333333333331" transform="translate(-6, -7.0)">10</text><text x="0" y="195.2777777777778" transform="translate(-6, -7.0)">5</text><text x="0" y="156.2222222222222" transform="translate(-6, -7.0)">0</text><text x="0" y="117.16666666666666" transform="translate(-6, -7.0)">-5</text><text x="0" y="78.1111111111111" transform="translate(-6, -7.0)">-10</text><text x="0" y="39.05555555555555" transform="translate(-6, -7.0)">-15</text><text x="0" y="0.0" transform="translate(-6, -7.0)">-20</text></g></g><g><path stroke="#CCCCCC" stroke-dasharray="None" d="M362.0 0 v351.5 M321.77777777777777 0 v351.5 M281.55555555555554 0 v351.5 M241.33333333333331 0 v351.5 M201.11111111111111 0 v351.5 M160.88888888888889 0 v351.5 M120.66666666666666 0 v351.5 M80.44444444444444 0 v351.5 M40.22222222222222 0 v351.5 M0.0 0 v351.5" transform="translate(78.0, 88.5)"/><g font-size="12" font-family="Helvetica" transform="translate(78.0, 106.5)"><text x="362.0" y="351.5" transform="translate(-7.0, 0)">25</text><text x="321.77777777777777" y="351.5" transform="translate(-7.0, 0)">20</text><text x="281.55555555555554" y="351.5" transform="translate(-7.0, 0)">15</text><text x="241.33333333333331" y="351.5" transform="translate(-7.0, 0)">10</text><text x="201.11111111111111" y="351.5" transform="translate(-3.5, 0)">5</text><text x="160.88888888888889" y="351.5" transform="translate(-3.5, 0)">0</text><text x="120.66666666666666" y="351.5" transform="translate(-5.5, 0)">-5</text><text x="80.44444444444444" y="351.5" transform="translate(-9.0, 0)">-10</text><text x="40.22222222222222" y="351.5" transform="translate(-9.0, 0)">-15</text><text x="0.0" y="351.5" transform="translate(-9.0, 0)">-20</text></g></g><path transform="translate(78.0, 88.5)" d="M160.88888888888889 0 v351.5z M0 195.2777777777778 h362.0z" stroke="black"/><g opacity="0.8" transform="translate(-60.0, -60.0) rotate(180, 250.0, 250.0) scale(-1, 1) translate(-362.0, 0)"><g fill="#5fab9e"><circle cx="135.4246850972224" cy="118.35095997406137" r="4"/><circle cx="8.587603867333677" cy="125.67919063041062" r="4"/><circle cx="53.01177396695833" cy="144.18780091090053" r="4"/><circle cx="27.655775218318105" cy="95.2877041708379" r="4"/><circle cx="81.83300780481365" cy="119.12200248812943" r="4"/><circle cx="145.74301279847612" cy="66.80098361046018" r="4"/><circle cx="38.100382970087175" cy="123.25034287004969" r="4"/><circle cx="66.7005546976149" cy="71.16925058114218" r="4"/><circle cx="62.65612767520663" cy="114.6742443444271" r="4"/><circle cx="160.1368375692847" cy="82.57206109993409" r="4"/><circle cx="137.30514945118358" cy="107.95868634482628" r="4"/><circle cx="108.11768612593747" cy="144.01960576798797" r="4"/><circle cx="84.23952374743436" cy="70.21663789800328" r="4"/><circle cx="121.24005303024437" cy="90.60260771475009" r="4"/><circle cx="81.55875607705043" cy="124.99144552941279" r="4"/><circle cx="143.6720919101337" cy="138.35235836777545" r="4"/><circle cx="96.35125222804616" cy="139.30275552343676" r="4"/><circle cx="99.37718863599235" cy="149.69312414291173" r="4"/><circle cx="139.9496979844503" cy="112.46517794215778" r="4"/><circle cx="135.50817881581088" cy="134.98526020304294" r="4"/><circle cx="157.60284772211568" cy="136.2360161797182" r="4"/><circle cx="158.2610202416454" cy="146.12258709068425" r="4"/><circle cx="157.36108567134363" cy="138.75522534551848" r="4"/><circle cx="160.66915301508558" cy="144.8139808556927" r="4"/><circle cx="160.76451317139555" cy="149.70929511077327" r="4"/><circle cx="160.88888888888889" cy="156.2222222222222" r="4"/><circle cx="165.4599082968798" cy="160.90089028177482" r="4"/><circle cx="161.70864961732397" cy="165.18790426824717" r="4"/><circle cx="162.37263125436087" cy="159.17447982661955" r="4"/><circle cx="189.97278061647884" cy="185.06273929125203" r="4"/><circle cx="165.29726469250454" cy="170.90128190073955" r="4"/><circle cx="179.28402121388586" cy="180.51920658049616" r="4"/><circle cx="180.76833665097305" cy="206.21991820829084" r="4"/><circle cx="196.35411131340913" cy="178.31323124624498" r="4"/><circle cx="183.71381450605563" cy="168.4359214795168" r="4"/><circle cx="212.32439310826635" cy="203.66240645323816" r="4"/><circle cx="200.33729941914083" cy="202.05753169716024" r="4"/><circle cx="217.57609891466382" cy="195.68670231422968" r="4"/><circle cx="175.47259957924348" cy="253.12200582970425" r="4"/><circle cx="243.81798639374978" cy="197.26335004255918" r="4"/><circle cx="240.46034269025583" cy="265.78131311374244" r="4"/><circle cx="239.57923028791512" cy="177.49134171079515" r="4"/><circle cx="202.37338160216657" cy="199.73067923670084" r="4"/><circle cx="254.1056065879473" cy="186.70077689924645" r="4"/><circle cx="224.4368748996549" cy="291.3253326138381" r="4"/><circle cx="295.6144058810322" cy="219.94961864651404" r="4"/><circle cx="220.19792221413394" cy="210.0764580032852" r="4"/><circle cx="327.92528676189954" cy="172.27672000467746" r="4"/><circle cx="340.1020006274102" cy="218.8729472793391" r="4"/><circle cx="214.24910552746718" cy="331.0576148110768" r="4"/></g><g fill="#f58b51"><circle cx="23.780996142140776" cy="143.58572031119178" r="4"/><circle cx="30.335056504154185" cy="62.19745769520483" r="4"/><circle cx="136.0685602173265" cy="38.6244835947226" r="4"/><circle cx="128.66298324786422" cy="93.46086986690177" r="4"/><circle cx="74.69896728968213" cy="63.65529951937428" r="4"/><circle cx="34.6332905071918" cy="60.27662985304134" r="4"/><circle cx="108.5810701177056" cy="85.48098532287665" r="4"/><circle cx="54.33803620274172" cy="61.484112212764074" r="4"/><circle cx="34.43412046653022" cy="154.8804063423347" r="4"/><circle cx="141.7083392175977" cy="37.40814651563383" r="4"/><circle cx="143.84778458085674" cy="120.10410858517007" r="4"/><circle cx="66.77195447704547" cy="150.95354540012724" r="4"/><circle cx="147.84275197398304" cy="110.77014508935247" r="4"/><circle cx="123.15639978841712" cy="74.59376329792319" r="4"/><circle cx="94.01221808554303" cy="106.06004804687943" r="4"/><circle cx="122.79104064967116" cy="121.06198091727067" r="4"/><circle cx="132.27702928370218" cy="153.33744015839494" r="4"/><circle cx="151.18710035654587" cy="101.29684545582214" r="4"/><circle cx="117.7490035567403" cy="118.26245381814681" r="4"/><circle cx="159.81865002484125" cy="141.7364774808511" r="4"/><circle cx="130.3705704773433" cy="141.90684872191656" r="4"/><circle cx="158.4021683552067" cy="146.49942903652487" r="4"/><circle cx="145.9899695833851" cy="152.7039297736291" r="4"/><circle cx="148.33634275163098" cy="153.0972749251158" r="4"/><circle cx="156.03504515938724" cy="155.2243600034198" r="4"/><circle cx="160.88888888888889" cy="156.2222222222222" r="4"/><circle cx="165.82695577851274" cy="162.3199881856386" r="4"/><circle cx="169.77646669342172" cy="168.3545576670328" r="4"/><circle cx="170.9841308042496" cy="179.51900184939245" r="4"/><circle cx="163.85394139704826" cy="166.76342214949725" r="4"/><circle cx="177.21159454087484" cy="168.21854790392283" r="4"/><circle cx="184.41593280561108" cy="193.10554563089633" r="4"/><circle cx="162.0493166163058" cy="187.12544936712186" r="4"/><circle cx="168.41006906294908" cy="191.08825613158538" r="4"/><circle cx="191.01297629002897" cy="188.96901492406585" r="4"/><circle cx="161.5795349543401" cy="172.88198227045382" r="4"/><circle cx="185.2339315869654" cy="228.14965991226313" r="4"/><circle cx="237.57046749357892" cy="247.61727964799974" r="4"/><circle cx="171.36241630015823" cy="165.0034523109024" r="4"/><circle cx="164.97935729653082" cy="177.42971974898396" r="4"/><circle cx="171.64758010759354" cy="260.4469520684803" r="4"/><circle cx="231.73319927835428" cy="194.53295657570902" r="4"/><circle cx="223.4563288634892" cy="220.69920311866156" r="4"/><circle cx="288.2260277316906" cy="272.05935381999484" r="4"/><circle cx="295.3197674959547" cy="161.29421960773826" r="4"/><circle cx="176.15807075355247" cy="297.15815770110305" r="4"/><circle cx="279.2667325858681" cy="184.50351737895326" r="4"/><circle cx="215.383813862415" cy="274.40801378681135" r="4"/><circle cx="280.6696921118856" cy="206.86037677021974" r="4"/><circle cx="231.21172173991238" cy="324.95846247265047" r="4"/></g></g></svg>