<svg xmlns="http://www.w3.org/2000/svg" width="500" height="500" viewBox="0 0 500 500"><path fill="white" d="M0 0 h500 v500 h-500 v-500Z"/><text transform="translate(-82.5, 19)" fill="#444444" font-family="Helvetica" font-weight="bold" font-size="16" x="250.0" y="25.0">Example Scatter Graph</text><g><path stroke="#CCCCCC" stroke-dasharray="None" d="M0 0.0 h372.0 M0 37.15 h372.0 M0 74.3 h372.0 M0 111.45 h372.0 M0 148.6 h372.0 M0 185.75 h372.0 M0 222.9 h372.0 M0 260.05 h372.0 M0 297.2 h372.0 M0 334.35 h372.0 M0 371.5 h372.0 M0 371.5 h372.0" transform="translate(78.0, 78.5)"/><g font-size="12" font-family="Helvetica" transform="translate(72.0, 78.5)"><text x="0" y="0.0" transform="translate(-14, 3.5)">25</text><text x="0" y="37.15" transform="translate(-14, 3.5)">20</text><text x="0" y="74.3" transform="translate(-14, 3.5)">15</text><text x="0" y="111.45" transform="translate(-14, 3.5)">10</text><text x="0" y="148.6" transform="translate(-7, 3.5)">5</text><text x="0" y="185.75" transform="translate(-7, 3.5)">0</text><text x="0" y="222.9" transform="translate(-11, 3.5)">-5</text><text x="0" y="260.05" transform="translate(-18, 3.5)">-10</text><text x="0" y="297.2" transform="translate(-18, 3.5)">-15</text><text x="0" y="334.35" transform="translate(-18, 3.5)">-20</text><text x="0" y="371.5" transform="translate(-18, 3.5)">-25</text></g></g><g><path stroke="#CCCCCC" stroke-dasharray="None" d="M372.0 0 v371.5 M330.66666666666663 0 v371.5 M289.3333333333333 0 v371.5 M248.0 0 v371.5 M206.66666666666669 0 v371.5 M165.33333333333331 0 v371.5 M124.0 0 v371.5 M82.66666666666666 0 v371.5 M41.33333333333333 0 v371.5 M0.0 0 v371.5" transform="translate(78.0, 78.5)"/><g font-size="12" font-family="Helvetica" transform="translate(78.0, 96.5)"><text x="372.0" y="371.5" transform="translate(-7.0, 0)">25</text><text x="330.66666666666663" y="371.5" transform="translate(-7.0, 0)">20</text><text x="289.3333333333333" y="371.5" transform="translate(-7.0, 0)">15</text><text x="248.0" y="371.5" transform="translate(-7.0, 0)">10</text><text x="206.66666666666669" y="371.5" transform="translate(-3.5, 0)">5</text><text x="165.33333333333331" y="371.5" transform="translate(-3.5, 0)">0</text><text x="124.0" y="371.5" transform="translate(-5.5, 0)">-5</text><text x="82.66666666666666" y="371.5" transform="translate(-9.0, 0)">-10</text><text x="41.33333333333333" y="371.5" transform="translate(-9.0, 0)">-15</text><text x="0.0" y="371.5" transform="translate(-9.0, 0)">-20</text></g></g><path transform="translate(78.0, 78.5)" d="M165.33333333333331 0 v371.5z M0 185.75 h372.0z" stroke="black"/><g opacity="0.8" transform="translate(-50.0, -50.0) rotate(180, 250.0, 250.0) scale(-1, 1) translate(-372.0, 0)"><g fill="#5fab9e"><circle cx="58.2683877017512" cy="77.05762668231624" r="4"/><circle cx="53.57096910787968" cy="36.96639924451753" r="4"/><circle cx="90.88247548263433" cy="79.91102956672565" r="4"/><circle cx="13.671127843993123" cy="65.37925902972117" r="4"/><circle cx="51.15723587165424" cy="109.56413394687384" r="4"/><circle cx="45.12325959874499" cy="123.28032907970973" r="4"/><circle cx="108.07678496040694" cy="68.03390229979618" r="4"/><circle cx="148.14757137581077" cy="112.12858950985328" r="4"/><circle cx="151.85676309873298" cy="160.64517478012078" r="4"/><circle cx="68.28357026032667" cy="70.15407594526711" r="4"/><circle cx="106.86969768422254" cy="122.03819172105226" r="4"/><circle cx="81.24661303253905" cy="160.00832521926122" r="4"/><circle cx="78.93197801350975" cy="119.08502408056867" r="4"/><circle cx="70.36405790422296" cy="156.46247249301624" r="4"/><circle cx="161.0960447560213" cy="154.04503811531148" r="4"/><circle cx="153.4269625428533" cy="111.51565397598127" r="4"/><circle cx="144.88328530284053" cy="130.10354673501342" r="4"/><circle cx="102.49152806279791" cy="157.63879104422986" r="4"/><circle cx="152.6588684432748" cy="162.82250214278568" r="4"/><circle cx="119.28363666585109" cy="145.48678842613617" r="4"/><circle cx="128.90971516363535" cy="170.6745355908452" r="4"/><circle cx="150.7328715732376" cy="157.19576426764934" r="4"/><circle cx="162.6347952054459" cy="169.6637875175194" r="4"/><circle cx="150.46489639494524" cy="173.31302205631803" r="4"/><circle cx="162.66440126348945" cy="179.1441361561534" r="4"/><circle cx="165.33333333333331" cy="185.75" r="4"/><circle cx="167.5769551743232" cy="189.2034676488473" r="4"/><circle cx="176.0575341499216" cy="194.72459799703597" r="4"/><circle cx="187.86451505852602" cy="200.8954810579296" r="4"/><circle cx="166.19842757009346" cy="187.9917162071952" r="4"/><circle cx="188.07104772594423" cy="211.08275416047175" r="4"/><circle cx="211.69279978284823" cy="190.1501034176154" r="4"/><circle cx="218.2531794940643" cy="234.39590060178367" r="4"/><circle cx="229.04405948445407" cy="236.66984889996888" r="4"/><circle cx="225.12139825566237" cy="188.57645648926456" r="4"/><circle cx="204.45659452610573" cy="228.2905862726257" r="4"/><circle cx="233.1426904970709" cy="210.90972494340008" r="4"/><circle cx="201.38380554543713" cy="225.58537615646804" r="4"/><circle cx="202.19086692387705" cy="194.09464329847788" r="4"/><circle cx="201.6675902746426" cy="199.26472984066552" r="4"/><circle cx="187.4782200850265" cy="281.64075994214613" r="4"/><circle cx="273.59015886829343" cy="296.8087123260879" r="4"/><circle cx="237.3252529186836" cy="258.93120893114684" r="4"/><circle cx="269.334576600763" cy="195.79710948820855" r="4"/><circle cx="211.22023924006803" cy="244.63506877321507" r="4"/><circle cx="201.2747977977585" cy="293.0702248241876" r="4"/><circle cx="243.40224287621533" cy="242.13876668987092" r="4"/><circle cx="257.8968341316246" cy="309.28292756592765" r="4"/><circle cx="214.91414499966268" cy="198.4015179101585" r="4"/><circle cx="229.31262987054117" cy="361.17676522769483" r="4"/></g><g fill="#f58b51"><circle cx="42.77586296831804" cy="85.20082734627223" r="4"/><circle cx="70.7568205972718" cy="153.13651755144744" r="4"/><circle cx="52.001309814018825" cy="99.0001948842755" r="4"/><circle cx="155.71877103250372" cy="83.03093262518193" r="4"/><circle cx="90.43710505262852" cy="42.31875728986288" r="4"/><circle cx="94.05855538180057" cy="145.74473659449907" r="4"/><circle cx="78.9365412663218" cy="162.76412112684466" r="4"/><circle cx="78.54056830414521" cy="157.57793995483604" r="4"/><circle cx="37.92450277734062" cy="101.81723992323892" r="4"/><circle cx="88.75785683746217" cy="96.2367659159407" r="4"/><circle cx="69.4300614284171" cy="82.50500984934185" r="4"/><circle cx="133.89920626532717" cy="107.92485972710028" r="4"/><circle cx="69.65414835449344" cy="170.9199046421079" r="4"/><circle cx="110.93723619276915" cy="100.26219560690393" r="4"/><circle cx="133.60591808342906" cy="123.63251315264715" r="4"/><circle cx="84.66389297047098" cy="158.38184081811457" r="4"/><circle cx="133.09704499544688" cy="170.74763327088354" r="4"/><circle cx="123.70512411537852" cy="176.63084397139625" r="4"/><circle cx="135.98202990163693" cy="149.8773774154694" r="4"/><circle cx="129.25638278504434" cy="172.83960527823388" r="4"/><circle cx="135.86222041304717" cy="178.69469683841595" r="4"/><circle cx="151.78701481876325" cy="176.81043722862856" r="4"/><circle cx="143.58462646030276" cy="173.67380246174747" r="4"/><circle cx="152.4196191878095" cy="172.83349840407453" r="4"/><circle cx="163.09842998889732" cy="182.76340787102876" r="4"/><circle cx="165.33333333333331" cy="185.75" r="4"/><circle cx="170.77810930672644" cy="190.91963279196133" r="4"/><circle cx="179.16596021386673" cy="192.4369890018674" r="4"/><circle cx="184.60564963390624" cy="202.53448724983951" r="4"/><circle cx="186.49774668956417" cy="188.61623984240882" r="4"/><circle cx="203.3964583695683" cy="204.58096898357832" r="4"/><circle cx="190.79909355787075" cy="222.08666396052868" r="4"/><circle cx="189.9678529305135" cy="189.57937808725745" r="4"/><circle cx="192.1843621094402" cy="237.27133929711803" r="4"/><circle cx="169.20007603139283" cy="249.27185119982562" r="4"/><circle cx="202.3752647276233" cy="254.64471460196725" r="4"/><circle cx="189.66850421948646" cy="255.10681023813436" r="4"/><circle cx="192.41760854730714" cy="265.1622954389106" r="4"/><circle cx="258.5655849646407" cy="201.29145924637115" r="4"/><circle cx="261.463919038007" cy="203.64159177861694" r="4"/><circle cx="227.59494841991483" cy="280.70026221373854" r="4"/><circle cx="295.73558153487306" cy="247.29093440679318" r="4"/><circle cx="191.8464925580743" cy="213.14613298653165" r="4"/><circle cx="286.64858506888316" cy="319.4510724056788" r="4"/><circle cx="228.9602066349011" cy="269.1113989214009" r="4"/><circle cx="222.41638725601035" cy="312.6845232528131" r="4"/><circle cx="296.5024814348358" cy="292.46321059500673" r="4"/><circle cx="326.1273170372837" cy="319.6862253270938" r="4"/><circle cx="332.85926094863464" cy="330.45909175182146" r="4"/><circle cx="256.4766929813112" cy="306.80177369314134" r="4"/></g></g></svg>