<svg xmlns="http://www.w3.org/2000/svg" width="500" height="500" viewBox="0 0 500 500"><path fill="white" d="M0 0 h500 v500 h-500 v-500Z"/><text transform="translate(-82.5, 19)" fill="#444444" font-family="Helvetica" font-weight="bold" font-size="16" x="250.0" y="30.0">Example Scatter Graph</text><g><path stroke="#CCCCCC" stroke-dasharray="None" d="M0 0.0 h352.0 M0 35.15 h352.0 M0 70.3 h352.0 M0 105.45 h352.0 M0 140.6 h352.0 M0 175.75 h352.0 M0 210.9 h352.0 M0 246.04999999999998 h352.0 M0 281.2 h352.0 M0 316.35 h352.0 M0 351.5 h352.0 M0 351.5 h352.0" transform="translate(88.0, 88.5)"/><g font-size="12" font-family="Helvetica" transform="translate(82.0, 88.5)"><text x="0" y="0.0" transform="translate(-14, 3.5)">25</text><text x="0" y="35.15" transform="translate(-14, 3.5)">20</text><text x="0" y="70.3" transform="translate(-14, 3.5)">15</text><text x="0" y="105.45" transform="translate(-14, 3.5)">10</text><text x="0" y="140.6" transform="translate(-7, 3.5)">5</text><text x="0" y="175.75" transform="translate(-7, 3.5)">0</text><text x="0" y="210.9" transform="translate(-11, 3.5)">-5</text><text x="0" y="246.04999999999998" transform="translate(-18, 3.5)">-10</text><text x="0" y="281.2" transform="translate(-18, 3.5)">-15</text><text x="0" y="316.35" transform="translate(-18, 3.5)">-20</text><text x="0" y="351.5" transform="translate(-18, 3.5)">-25</text></g></g><g><path stroke="#CCCCCC" stroke-dasharray="None" d="M352.0 0 v351.5 M308.0 0 v351.5 M264.0 0 v351.5 M220.0 0 v351.5 M176.0 0 v351.5 M132.0 0 v351.5 M88.0 0 v351.5 M44.0 0 v351.5 M0.0 0 v351.5" transform="translate(88.0, 88.5)"/><g font-size="12" font-family="Helvetica" transform="translate(88.0, 106.5)"><text x="352.0" y="351.5" transform="translate(-7.0, 0)">15</text><text x="308.0" y="351.5" transform="translate(-7.0, 0)">10</text><text x="264.0" y="351.5" transform="translate(-3.5, 0)">5</text><text x="220.0" y="351.5" transform="translate(-3.5, 0)">0</text><text x="176.0" y="351.5" transform="translate(-5.5, 0)">-5</text><text x="132.0" y="351.5" transform="translate(-9.0, 0)">-10</text><text x="88.0" y="351.5" transform="translate(-9.0, 0)">-15</text><text x="44.0" y="351.5" transform="translate(-9.0, 0)">-20</text><text x="0.0" y="351.5" transform="translate(-9.0, 0)">-25</text></g></g><path transform="translate(88.0, 88.5)" d="M0 175.75 h352.0z" stroke="black"/><g opacity="0.8" transform="translate(-60.0, -60.0) rotate(180, 250.0, 250.0) scale(-1, 1) translate(-352.0, 0)"><g fill="#5fab9e"><circle cx="143.91196266969672" cy="30.30249798880477" r="4"/><circle cx="31.311108401283278" cy="116.80846677039119" r="4"/><circle cx="77.99095657837006" cy="15.594114680321645" r="4"/><circle cx="108.6649046145591" cy="116.64123094896055" r="4"/><circle cx="76.75629025684668" cy="105.64089980000482" r="4"/><circle cx="175.2629748967985" cy="51.287020430803395" r="4"/><circle cx="145.5946426788762" cy="50.11948134760465" r="4"/><circle cx="218.71984105062668" cy="78.26544438456766" r="4"/><circle cx="70.56379824980867" cy="137.64939703880415" r="4"/><circle cx="113.04526063201521" cy="141.8343771769549" r="4"/><circle cx="95.55248771567925" cy="85.96164100009626" r="4"/><circle cx="120.82085309364531" cy="104.16103991488889" r="4"/><circle cx="176.97575462022127" cy="113.7516492393211" r="4"/><circle cx="177.0151502186257" cy="121.57010535352502" r="4"/><circle cx="166.44226579168168" cy="155.74008506447277" r="4"/><circle cx="169.9980170746053" cy="138.2579850522655" r="4"/><circle cx="194.61464339024857" cy="143.8183266314714" r="4"/><circle cx="213.89772003369035" cy="144.0086896137377" r="4"/><circle cx="169.9900882392887" cy="142.6956055850556" r="4"/><circle cx="211.41090247744688" cy="149.77657429903175" r="4"/><circle cx="208.98416601366685" cy="146.55298158174048" r="4"/><circle cx="196.30755080602728" cy="169.0533061656124" r="4"/><circle cx="202.07284803812914" cy="164.57819062189654" r="4"/><circle cx="212.8682243460004" cy="175.3240551669614" r="4"/><circle cx="217.25777531578723" cy="172.77949418463157" r="4"/><circle cx="220.0" cy="175.75" r="4"/><circle cx="223.79105158880125" cy="176.97070891728674" r="4"/><circle cx="236.5121591868864" cy="178.88532792399243" r="4"/><circle cx="233.279920224344" cy="181.3479311385979" r="4"/><circle cx="236.94697494080336" cy="199.05977042072922" r="4"/><circle cx="247.1161480159671" cy="197.2914815303169" r="4"/><circle cx="260.1284658467018" cy="212.13728618062189" r="4"/><circle cx="230.5591257639752" cy="195.6720410156348" r="4"/><circle cx="229.50061618054997" cy="210.19131849084988" r="4"/><circle cx="251.8600325053259" cy="230.10952793962008" r="4"/><circle cx="225.8681094175668" cy="187.00200224286175" r="4"/><circle cx="301.6758598971822" cy="206.66694553917856" r="4"/><circle cx="321.56996666807595" cy="252.20369035861006" r="4"/><circle cx="226.9050155475394" cy="251.54163738238847" r="4"/><circle cx="308.05974365250586" cy="239.40350319059138" r="4"/><circle cx="279.68362161946595" cy="182.14282148314908" r="4"/><circle cx="265.1824360699797" cy="285.0406627107563" r="4"/><circle cx="347.0609090720297" cy="273.9097814936319" r="4"/><circle cx="251.07831488716187" cy="249.34455972577905" r="4"/><circle cx="230.7293912847964" cy="267.40226377099305" r="4"/><circle cx="305.2079151142289" cy="186.30338648623604" r="4"/><circle cx="305.9006675424122" cy="189.70568215936976" r="4"/><circle cx="309.69377587173256" cy="256.1071746059" r="4"/><circle cx="235.86444426288492" cy="304.4827138073938" r="4"/><circle cx="297.87512458686075" cy="325.10631606327786" r="4"/></g><g fill="#f58b51"><circle cx="132.55735093770255" cy="82.92927193144322" r="4"/><circle cx="140.25748152496575" cy="131.325627446782" r="4"/><circle cx="19.234615089004127" cy="139.9345395281536" r="4"/><circle cx="115.77258274045937" cy="24.33851599554189" r="4"/><circle cx="215.1705307665087" cy="50.32367967517013" r="4"/><circle cx="64.44854314359245" cy="161.41817310276195" r="4"/><circle cx="71.4066674749931" cy="74.79134115787626" r="4"/><circle cx="115.44238434435394" cy="75.2989509290469" r="4"/><circle cx="172.27684952610522" cy="121.53700201638027" r="4"/><circle cx="96.74930056735838" cy="105.14876443815083" r="4"/><circle cx="159.0443389741161" cy="157.31316544490022" r="4"/><circle cx="129.03908180737494" cy="112.36128887011924" r="4"/><circle cx="113.63343162751303" cy="92.29969935083021" r="4"/><circle cx="187.68043636149213" cy="125.81087283762015" r="4"/><circle cx="191.28689201755026" cy="125.72635688357823" r="4"/><circle cx="177.9709441424897" cy="166.0729910287702" r="4"/><circle cx="143.54766711677095" cy="134.04429826297317" r="4"/><circle cx="212.49078710295407" cy="169.54099046698192" r="4"/><circle cx="216.39675184109444" cy="136.420494373222" r="4"/><circle cx="172.10485625235177" cy="133.87961367256702" r="4"/><circle cx="208.34244003200996" cy="141.87925565689602" r="4"/><circle cx="188.6242945230254" cy="173.8331790238656" r="4"/><circle cx="200.0165317736522" cy="160.46942405325842" r="4"/><circle cx="209.58894742344557" cy="167.45413549121227" r="4"/><circle cx="218.14090510705114" cy="174.92905574531986" r="4"/><circle cx="220.0" cy="175.75" r="4"/><circle cx="223.28150307110047" cy="176.21016724627398" r="4"/><circle cx="228.68428718329884" cy="182.53380767873594" r="4"/><circle cx="231.70489371156125" cy="191.9723728022136" r="4"/><circle cx="228.68157304415783" cy="190.0536766146541" r="4"/><circle cx="231.38963705872817" cy="179.63103282577134" r="4"/><circle cx="272.00662664363296" cy="215.84244790510937" r="4"/><circle cx="256.93094816580884" cy="216.77434873354292" r="4"/><circle cx="230.40396391451986" cy="182.92943478832697" r="4"/><circle cx="231.360516390528" cy="181.73499202103966" r="4"/><circle cx="262.87827738079716" cy="202.80761189770638" r="4"/><circle cx="275.40292131810503" cy="230.10278282833818" r="4"/><circle cx="308.0957748418295" cy="216.29367676989204" r="4"/><circle cx="286.57904554241475" cy="221.6836793502631" r="4"/><circle cx="324.54398469001137" cy="215.95857447657284" r="4"/><circle cx="242.53965088579102" cy="196.26585672300826" r="4"/><circle cx="262.9485213275997" cy="227.86189381096213" r="4"/><circle cx="339.05047317945866" cy="257.8027990750356" r="4"/><circle cx="292.7003965726269" cy="254.70214213038088" r="4"/><circle cx="315.5590186383642" cy="283.50974336946126" r="4"/><circle cx="254.81473129035064" cy="289.319623758246" r="4"/><circle cx="285.7698328543702" cy="200.62612369217254" r="4"/><circle cx="233.59909463643396" cy="298.84957596920896" r="4"/><circle cx="251.88824528492003" cy="321.46190873038586" r="4"/><circle cx="332.7985313119087" cy="337.38253941676123" r="4"/></g></g></svg>