<svg xmlns="http://www.w3.org/2000/svg" width="700" height="400" viewBox="0 0 700 400"><path fill="white" d="M0 0 h700 v400 h-700 v-400Z"/><text transform="translate(-74.0, 18)" fill="#444444" font-family="Arial" font-weight="bold" font-size="16" x="350.0" y="10.0">Correlation Analysis</text><g><path stroke="#CCCCCC" stroke-dasharray="None" d="M0 0.0 h605.0 M0 66.60000000000001 h605.0 M0 133.20000000000002 h605.0 M0 199.79999999999998 h605.0 M0 266.40000000000003 h605.0 M0 333.0 h605.0" transform="translate(60.0, 47.0)"/><g font-size="12" font-family="Arial" transform="translate(54.0, 47.0)"><text x="0" y="0.0" transform="translate(-7, 3.5)">0</text><text x="0" y="66.60000000000001" transform="translate(-14, 3.5)">14</text><text x="0" y="133.20000000000002" transform="translate(-14, 3.5)">28</text><text x="0" y="199.79999999999998" transform="translate(-14, 3.5)">42</text><text x="0" y="266.40000000000003" transform="translate(-14, 3.5)">56</text><text x="0" y="333.0" transform="translate(-14, 3.5)">70</text></g></g><g><path stroke="#CCCCCC" stroke-dasharray="None" d="M605.0 0 v333.0 M484.0 0 v333.0 M363.0 0 v333.0 M242.0 0 v333.0 M121.0 0 v333.0 M0.0 0 v333.0" transform="translate(60.0, 47.0)"/><g font-size="12" font-family="Arial" transform="translate(60.0, 65.0)"><text x="605.0" y="333.0" transform="translate(-7.0, 0)">55</text><text x="484.0" y="333.0" transform="translate(-7.0, 0)">44</text><text x="363.0" y="333.0" transform="translate(-7.0, 0)">33</text><text x="242.0" y="333.0" transform="translate(-7.0, 0)">22</text><text x="121.0" y="333.0" transform="translate(-7.0, 0)">11</text><text x="0.0" y="333.0" transform="translate(-3.5, 0)">0</text></g></g><g opacity="0.8" transform="translate(-35.0, -20.0) rotate(180, 350.0, 200.0) scale(-1, 1) translate(-605.0, 0)"><g fill="#5fab9e"><circle cx="0.0" cy="47.57142857142857" r="4"/><circle cx="110.0" cy="95.14285714285714" r="4"/><circle cx="220.0" cy="142.7142857142857" r="4"/><circle cx="330.0" cy="190.28571428571428" r="4"/><circle cx="440.0" cy="237.85714285714286" r="4"/><circle cx="550.0" cy="285.4285714285714" r="4"/></g><g fill="#f58b51"><circle cx="55.0" cy="71.35714285714285" r="4"/><circle cx="165.0" cy="118.92857142857143" r="4"/><circle cx="275.0" cy="166.5" r="4"/><circle cx="385.0" cy="237.85714285714286" r="4"/><circle cx="495.00000000000006" cy="285.4285714285714" r="4"/><circle cx="605.0" cy="333.0" r="4"/></g></g><g><rect transform="translate(-7.5, -3.5)" x="593.5" y="54.5" width="75.0" height="35.0" fill="#ffffff" stroke="#CCCCCC"/><g transform="translate(0, 12)"><rect y="42.5" x="593.5" width="12" height="12" fill="#5fab9e"/><text y="51.5" x="607.5" font-size="11" font-family="Arial">Group A</text></g><g transform="translate(0, 14)"><rect y="54.5" x="593.5" width="12" height="12" fill="#f58b51"/><text y="63.5" x="607.5" font-size="11" font-family="Arial">Group B</text></g></g></svg>