<svg xmlns="http://www.w3.org/2000/svg" width="600" height="500" viewBox="0 0 600 500"><path fill="#FFFFFF" d="M0 0 h600 v500 h-600 v-500Z"/><text transform="translate(0, 16.0)" fill="#444444" font-family="Roboto" font-weight="normal" font-size="16" text-anchor="middle" x="308.0" y="12.5">Employee Performance Quadrant</text><defs><clipPath id="plot-clip"><rect x="0" y="0" width="524.0" height="408.0"/></clipPath></defs><g><path stroke="#CCCCCC" stroke-dasharray="None" d="M0 0.0 h524.0 M0 81.60000000000001 h524.0 M0 163.20000000000002 h524.0 M0 244.79999999999998 h524.0 M0 326.40000000000003 h524.0 M0 408.0 h524.0" transform="translate(46.0, 49.0)"/><g font-size="12" font-family="Arial" fill="#444444" transform="translate(40.0, 49.0)"><text x="0" y="0.0" transform="translate(-14, 3.5)">85</text><text x="0" y="81.60000000000001" transform="translate(-14, 3.5)">68</text><text x="0" y="163.20000000000002" transform="translate(-14, 3.5)">51</text><text x="0" y="244.79999999999998" transform="translate(-14, 3.5)">34</text><text x="0" y="326.40000000000003" transform="translate(-14, 3.5)">17</text><text x="0" y="408.0" transform="translate(-7, 3.5)">0</text></g></g><g><path stroke="#CCCCCC" stroke-dasharray="None" d="M524.0 0 v408.0 M419.20000000000005 0 v408.0 M314.4 0 v408.0 M209.60000000000002 0 v408.0 M104.80000000000001 0 v408.0 M0.0 0 v408.0" transform="translate(46.0, 49.0)"/><g font-size="12" font-family="Arial" fill="#444444" transform="translate(46.0, 67.0)"><text x="524.0" y="408.0" transform="translate(-7.0, 0)">85</text><text x="419.20000000000005" y="408.0" transform="translate(-7.0, 0)">68</text><text x="314.4" y="408.0" transform="translate(-7.0, 0)">51</text><text x="209.60000000000002" y="408.0" transform="translate(-7.0, 0)">34</text><text x="104.80000000000001" y="408.0" transform="translate(-7.0, 0)">17</text><text x="0.0" y="408.0" transform="translate(-3.5, 0)">0</text></g></g><g><g opacity="0.8" transform="translate(-30.0, -43.0) rotate(180, 300.0, 250.0) scale(-1, 1) translate(-524.0, 0)" clip-path="url(#plot-clip)"><g fill="#5fab9e"><circle cx="393.30823529411765" cy="367.68" r="4"/><circle cx="392.0752941176471" cy="341.28" r="4"/><circle cx="395.1576470588235" cy="300.48" r="4"/><circle cx="435.2282352941176" cy="287.52" r="4"/><circle cx="394.54117647058825" cy="348.0" r="4"/><circle cx="326.7294117647059" cy="398.87999999999994" r="4"/><circle cx="417.35058823529414" cy="337.9200000000001" r="4"/><circle cx="387.76" cy="330.72" r="4"/><circle cx="390.22588235294114" cy="361.44" r="4"/><circle cx="406.2541176470589" cy="266.4" r="4"/><circle cx="412.4188235294118" cy="321.12" r="4"/><circle cx="458.0376470588235" cy="359.52000000000004" r="4"/></g><g fill="#f58b51"><circle cx="258.91764705882355" cy="343.67999999999995" r="4"/><circle cx="204.05176470588236" cy="253.43999999999997" r="4"/><circle cx="234.25882352941179" cy="352.8" r="4"/><circle cx="228.09411764705882" cy="264.0" r="4"/><circle cx="254.60235294117646" cy="307.67999999999995" r="4"/><circle cx="160.89882352941177" cy="298.08" r="4"/><circle cx="243.50588235294117" cy="317.28" r="4"/><circle cx="141.17176470588234" cy="351.36" r="4"/><circle cx="86.30588235294117" cy="342.72" r="4"/><circle cx="185.55764705882353" cy="328.8" r="4"/><circle cx="170.76235294117646" cy="343.2" r="4"/><circle cx="258.91764705882355" cy="335.04" r="4"/></g><g fill="#f7dd72"><circle cx="331.04470588235296" cy="222.72" r="4"/><circle cx="325.49647058823524" cy="164.16000000000003" r="4"/><circle cx="340.9082352941176" cy="113.28" r="4"/><circle cx="400.70588235294116" cy="147.35999999999999" r="4"/><circle cx="354.47058823529414" cy="204.48000000000002" r="4"/><circle cx="514.1364705882353" cy="112.80000000000001" r="4"/><circle cx="319.33176470588234" cy="169.44" r="4"/><circle cx="302.0705882352941" cy="177.6" r="4"/><circle cx="417.35058823529414" cy="156.0" r="4"/><circle cx="457.42117647058825" cy="195.84" r="4"/><circle cx="401.32235294117646" cy="190.08" r="4"/><circle cx="421.66588235294125" cy="257.28000000000003" r="4"/></g></g><g transform="translate(-30.0, -43.0) rotate(180, 300.0, 250.0) scale(-1, 1) translate(-524.0, 0)"><g><text x="8" y="388.0" fill="#CCCCCC" font-size="12" font-family="Roboto" text-anchor="start" opacity="0.8" transform="translate(8,388.0) scale(1,-1) translate(-8,-388.0)">Disengaged Experts</text><text x="516.0" y="388.0" fill="#CCCCCC" font-size="12" font-family="Roboto" text-anchor="end" opacity="0.8" transform="translate(516.0,388.0) scale(1,-1) translate(-516.0,-388.0)">Stars</text><text x="8" y="16.0" fill="#CCCCCC" font-size="12" font-family="Roboto" text-anchor="start" opacity="0.8" transform="translate(8,16.0) scale(1,-1) translate(-8,-16.0)">At Risk</text><text x="516.0" y="16.0" fill="#CCCCCC" font-size="12" font-family="Roboto" text-anchor="end" opacity="0.8" transform="translate(516.0,16.0) scale(1,-1) translate(-516.0,-16.0)">Rising Talent</text></g></g></g><g><rect transform="translate(-31.25, -10.5)" x="409.75" y="63.5" width="187.5" height="63.0" fill="#f5f5f5" stroke="#d7d7d7"/><g><rect y="66.5" x="409.75" width="12" height="12" fill="#5fab9e"/><text y="75.5" x="423.75" font-size="12" font-family="Roboto" fill="#444444">High Performers</text></g><g><rect y="78.5" x="409.75" width="12" height="12" fill="#f58b51"/><text y="87.5" x="423.75" font-size="12" font-family="Roboto" fill="#444444">Growth Potential</text></g><g><rect y="90.5" x="409.75" width="12" height="12" fill="#f7dd72"/><text y="99.5" x="423.75" font-size="12" font-family="Roboto" fill="#444444">Steady Contributors</text></g></g><path d="M46.0 49.0 v408.0 M46.0 457.0 h524.0" stroke="#999" stroke-width="1.5" fill="none"/><g transform="translate(46.0, 49.0)"><path d="M0 204.0 h524.0" stroke="#666" stroke-width="1.5" stroke-dasharray="6 3" fill="none"/><path d="M262.0 0 v408.0" stroke="#666" stroke-width="1.5" stroke-dasharray="6 3" fill="none"/></g><text x="308.0" y="498" fill="#444444" font-size="14" font-family="Roboto" text-anchor="middle">Skills Score</text><text x="14" y="253.0" fill="#444444" font-size="14" font-family="Roboto" text-anchor="middle" transform="rotate(-90, 14, 253.0)">Engagement Score</text></svg>