<svg xmlns="http://www.w3.org/2000/svg" width="700" height="400" viewBox="0 0 700 400"><path fill="white" d="M0 0 h700 v400 h-700 v-400Z"/><text transform="translate(-103.0, 19)" fill="#444444" font-family="Helvetica" font-weight="bold" font-size="16" x="350.0" y="10.0">Height vs Weight Distribution</text><g><path stroke="#CCCCCC" stroke-dasharray="None" d="M0 0.0 h606.0 M0 66.3 h606.0 M0 132.6 h606.0 M0 198.9 h606.0 M0 265.2 h606.0 M0 331.5 h606.0" transform="translate(59.0, 48.5)"/><g font-size="12" font-family="Helvetica" transform="translate(53.0, 48.5)"><text x="0" y="0.0" transform="translate(-14, 3.5)">95</text><text x="0" y="66.3" transform="translate(-14, 3.5)">76</text><text x="0" y="132.6" transform="translate(-14, 3.5)">57</text><text x="0" y="198.9" transform="translate(-14, 3.5)">38</text><text x="0" y="265.2" transform="translate(-14, 3.5)">19</text><text x="0" y="331.5" transform="translate(-7, 3.5)">0</text></g></g><g><path stroke="#CCCCCC" stroke-dasharray="None" d="M606.0 0 v331.5 M484.8 0 v331.5 M363.59999999999997 0 v331.5 M242.4 0 v331.5 M121.2 0 v331.5 M0.0 0 v331.5" transform="translate(59.0, 48.5)"/><g font-size="12" font-family="Helvetica" transform="translate(59.0, 66.5)"><text x="606.0" y="331.5" transform="translate(-10.5, 0)">200</text><text x="484.8" y="331.5" transform="translate(-10.5, 0)">160</text><text x="363.59999999999997" y="331.5" transform="translate(-10.5, 0)">120</text><text x="242.4" y="331.5" transform="translate(-7.0, 0)">80</text><text x="121.2" y="331.5" transform="translate(-7.0, 0)">40</text><text x="0.0" y="331.5" transform="translate(-3.5, 0)">0</text></g></g><g opacity="0.8" transform="translate(-35.0, -20.0) rotate(180, 350.0, 200.0) scale(-1, 1) translate(-606.0, 0)"><g fill="#5fab9e"><circle cx="484.8" cy="191.92105263157896" r="4"/><circle cx="499.95" cy="209.36842105263156" r="4"/><circle cx="515.1" cy="226.81578947368422" r="4"/><circle cx="521.16" cy="237.2842105263158" r="4"/><circle cx="530.25" cy="251.2421052631579" r="4"/><circle cx="539.34" cy="261.7105263157895" r="4"/><circle cx="545.4" cy="272.17894736842106" r="4"/><circle cx="551.46" cy="279.1578947368421" r="4"/><circle cx="560.5500000000001" cy="296.60526315789474" r="4"/><circle cx="569.64" cy="307.0736842105263" r="4"/><circle cx="575.6999999999999" cy="321.0315789473684" r="4"/></g></g><g><rect transform="translate(-10.875, -1.875)" x="563.125" y="54.375" width="108.75" height="18.75" fill="#ffffff" stroke="#CCCCCC"/><g transform="translate(0, 13)"><rect y="41.375" x="563.125" width="13" height="13" fill="#5fab9e"/><text y="51.125" x="578.125" font-size="11" font-family="Helvetica">Observations</text></g></g></svg>