<svg xmlns="http://www.w3.org/2000/svg" width="500" height="500" viewBox="0 0 500 500"><path fill="white" d="M0 0 h500 v500 h-500 v-500Z"/><text transform="translate(-82.5, 19)" fill="#444444" font-family="Helvetica" font-weight="bold" font-size="16" x="250.0" y="30.0">Example Scatter Graph</text><g><path stroke="#CCCCCC" stroke-dasharray="None" d="M0 0.0 h352.0 M0 39.05555555555555 h352.0 M0 78.1111111111111 h352.0 M0 117.16666666666666 h352.0 M0 156.2222222222222 h352.0 M0 195.2777777777778 h352.0 M0 234.33333333333331 h352.0 M0 273.3888888888889 h352.0 M0 312.4444444444444 h352.0 M0 351.5 h352.0 M0 351.5 h352.0" transform="translate(88.0, 88.5)"/><g font-size="12" font-family="Helvetica" transform="translate(82.0, 88.5)"><text x="0" y="0.0" transform="translate(-14, -7.0)">25</text><text x="0" y="39.05555555555555" transform="translate(-14, -7.0)">20</text><text x="0" y="78.1111111111111" transform="translate(-14, -7.0)">15</text><text x="0" y="117.16666666666666" transform="translate(-14, -7.0)">10</text><text x="0" y="156.2222222222222" transform="translate(-7, -7.0)">5</text><text x="0" y="195.2777777777778" transform="translate(-7, -7.0)">0</text><text x="0" y="234.33333333333331" transform="translate(-11, -7.0)">-5</text><text x="0" y="273.3888888888889" transform="translate(-18, -7.0)">-10</text><text x="0" y="312.4444444444444" transform="translate(-18, -7.0)">-15</text><text x="0" y="351.5" transform="translate(-18, -7.0)">-20</text></g></g><g><path stroke="#CCCCCC" stroke-dasharray="None" d="M352.0 0 v351.5 M316.8 0 v351.5 M281.6 0 v351.5 M246.39999999999998 0 v351.5 M211.2 0 v351.5 M176.0 0 v351.5 M140.8 0 v351.5 M105.6 0 v351.5 M70.4 0 v351.5 M35.2 0 v351.5 M0.0 0 v351.5" transform="translate(88.0, 88.5)"/><g font-size="12" font-family="Helvetica" transform="translate(88.0, 106.5)"><text x="352.0" y="351.5" transform="translate(-7.0, 0)">25</text><text x="316.8" y="351.5" transform="translate(-7.0, 0)">20</text><text x="281.6" y="351.5" transform="translate(-7.0, 0)">15</text><text x="246.39999999999998" y="351.5" transform="translate(-7.0, 0)">10</text><text x="211.2" y="351.5" transform="translate(-3.5, 0)">5</text><text x="176.0" y="351.5" transform="translate(-3.5, 0)">0</text><text x="140.8" y="351.5" transform="translate(-5.5, 0)">-5</text><text x="105.6" y="351.5" transform="translate(-9.0, 0)">-10</text><text x="70.4" y="351.5" transform="translate(-9.0, 0)">-15</text><text x="35.2" y="351.5" transform="translate(-9.0, 0)">-20</text><text x="0.0" y="351.5" transform="translate(-9.0, 0)">-25</text></g></g><path transform="translate(88.0, 88.5)" d="M176.0 0 v351.5z M0 195.2777777777778 h352.0z" stroke="black"/><g opacity="0.8" transform="translate(-60.0, -60.0) rotate(180, 250.0, 250.0) scale(-1, 1) translate(-352.0, 0)"><g fill="#5fab9e"><circle cx="20.883062035936806" cy="124.19370655519465" r="4"/><circle cx="118.93016344760527" cy="55.91942754541439" r="4"/><circle cx="84.79842989569349" cy="23.64234506742491" r="4"/><circle cx="97.32371165880753" cy="100.21054276736746" r="4"/><circle cx="90.06998710062072" cy="148.6520630427935" r="4"/><circle cx="72.71327861029621" cy="72.41666411302408" r="4"/><circle cx="114.6674260738609" cy="44.83897069686261" r="4"/><circle cx="129.6225980803045" cy="89.23429498859139" r="4"/><circle cx="172.62180753908666" cy="23.917220100895886" r="4"/><circle cx="141.79812002739362" cy="119.53014897690059" r="4"/><circle cx="142.76579578227117" cy="83.75394889880391" r="4"/><circle cx="141.94542758811053" cy="74.08076467373994" r="4"/><circle cx="107.75069516229503" cy="145.42722557513042" r="4"/><circle cx="94.50842748872286" cy="147.2463590209299" r="4"/><circle cx="172.2378442186022" cy="140.9113358501313" r="4"/><circle cx="155.41066181915212" cy="128.3527394435619" r="4"/><circle cx="140.3076602929608" cy="113.15780873964408" r="4"/><circle cx="140.26584884344578" cy="148.10027055852356" r="4"/><circle cx="136.05858322172074" cy="104.77526650902652" r="4"/><circle cx="142.46708290920554" cy="122.30994856171914" r="4"/><circle cx="149.92400037773587" cy="151.59522405100972" r="4"/><circle cx="167.01834141021152" cy="135.57490428543753" r="4"/><circle cx="173.41805138916527" cy="134.96465586942813" r="4"/><circle cx="168.20281079081232" cy="154.15915245048083" r="4"/><circle cx="172.97728775124074" cy="150.31961432186733" r="4"/><circle cx="176.0" cy="156.2222222222222" r="4"/><circle cx="179.13374855309905" cy="157.4681322491253" r="4"/><circle cx="177.98105965847378" cy="166.4754720761512" r="4"/><circle cx="192.40441774265292" cy="176.25849572889538" r="4"/><circle cx="190.52113239822887" cy="176.59437993218125" r="4"/><circle cx="199.63357021738727" cy="183.2149068194027" r="4"/><circle cx="178.41499109497556" cy="167.30823182149248" r="4"/><circle cx="205.26185787418532" cy="185.92665922146583" r="4"/><circle cx="200.3841316926002" cy="180.57232268537282" r="4"/><circle cx="194.84310140930614" cy="189.7897212961639" r="4"/><circle cx="224.8133094005178" cy="172.82253023567054" r="4"/><circle cx="221.0627223067591" cy="226.52005141161027" r="4"/><circle cx="189.72661896158155" cy="171.60100467108782" r="4"/><circle cx="185.57069249531645" cy="224.1339955480251" r="4"/><circle cx="210.0521870082688" cy="158.21697846697816" r="4"/><circle cx="269.2167559552446" cy="231.0672051846658" r="4"/><circle cx="285.7707210446656" cy="198.0238201679368" r="4"/><circle cx="277.5573765308977" cy="267.56283502469137" r="4"/><circle cx="264.791902220452" cy="243.34584378337888" r="4"/><circle cx="264.1070240248854" cy="269.6448285212661" r="4"/><circle cx="176.68943918075334" cy="244.44244786082268" r="4"/><circle cx="196.48810324401325" cy="207.91849500528153" r="4"/><circle cx="261.6494158071031" cy="200.43856327500984" r="4"/><circle cx="247.81604783291647" cy="301.74555853992695" r="4"/><circle cx="296.07124880116163" cy="322.11380704113316" r="4"/></g><g fill="#f58b51"><circle cx="119.94955539600701" cy="129.44469819446846" r="4"/><circle cx="85.5285947137278" cy="26.561712732004935" r="4"/><circle cx="172.06819043315363" cy="30.57934758544014" r="4"/><circle cx="129.07399050383245" cy="149.31701792700912" r="4"/><circle cx="129.70660003310243" cy="60.48994813264685" r="4"/><circle cx="96.90727275716368" cy="50.95577197242399" r="4"/><circle cx="149.89657525754046" cy="123.47958943246778" r="4"/><circle cx="159.5655389425446" cy="124.54781677730898" r="4"/><circle cx="169.84929107672863" cy="125.73014104315382" r="4"/><circle cx="71.11520999144027" cy="84.05816739978212" r="4"/><circle cx="164.90337231638912" cy="140.51716871781252" r="4"/><circle cx="155.07286746591495" cy="65.43241716612171" r="4"/><circle cx="175.70433858291022" cy="123.79609840481308" r="4"/><circle cx="142.55198342783098" cy="146.56379017387528" r="4"/><circle cx="153.8548666940278" cy="99.7959639719871" r="4"/><circle cx="171.31306654743034" cy="80.69636552619616" r="4"/><circle cx="161.59863335479116" cy="103.10353619131871" r="4"/><circle cx="163.3200579960713" cy="138.01353086038307" r="4"/><circle cx="166.68368607083465" cy="147.45069340396512" r="4"/><circle cx="170.2187260882469" cy="137.9118286626005" r="4"/><circle cx="166.42179987310334" cy="149.3184455947233" r="4"/><circle cx="165.09298606805385" cy="146.40174777883854" r="4"/><circle cx="171.79375846518275" cy="139.08129383481585" r="4"/><circle cx="169.82248417686492" cy="143.9165804581281" r="4"/><circle cx="170.627880362815" cy="154.0165977620034" r="4"/><circle cx="176.0" cy="156.2222222222222" r="4"/><circle cx="178.36806585194694" cy="162.033231901566" r="4"/><circle cx="185.09363457409503" cy="170.03489225512183" r="4"/><circle cx="187.66330904402483" cy="159.03769696677776" r="4"/><circle cx="192.67129847856887" cy="185.43730739823064" r="4"/><circle cx="186.91212393049494" cy="189.1301676950405" r="4"/><circle cx="217.20969949650126" cy="158.29977479638555" r="4"/><circle cx="201.88375918769998" cy="158.58316145971924" r="4"/><circle cx="211.65609556029642" cy="166.6761031722513" r="4"/><circle cx="210.86495748803472" cy="202.57836062493612" r="4"/><circle cx="185.24783708105934" cy="228.16576159452018" r="4"/><circle cx="252.57389522837303" cy="189.6288134220632" r="4"/><circle cx="222.41846369430834" cy="225.23949060916337" r="4"/><circle cx="249.90816705771212" cy="176.93200564083088" r="4"/><circle cx="244.3975186314341" cy="255.5002555070391" r="4"/><circle cx="281.28021734493745" cy="240.42972681119585" r="4"/><circle cx="260.30509212851825" cy="159.81129030020776" r="4"/><circle cx="241.5140230915812" cy="249.3689809328501" r="4"/><circle cx="257.07437012824937" cy="276.55977902368727" r="4"/><circle cx="176.6513914124507" cy="279.7823521697003" r="4"/><circle cx="192.744364163186" cy="279.6620711285241" r="4"/><circle cx="306.85660372083646" cy="273.64752185387147" r="4"/><circle cx="308.23994088452093" cy="184.2532056332908" r="4"/><circle cx="251.41949219227794" cy="282.85891124641853" r="4"/><circle cx="317.9286239943011" cy="190.45542511384124" r="4"/></g></g></svg>