<svg xmlns="http://www.w3.org/2000/svg" width="500" height="500" viewBox="0 0 500 500"><path fill="white" d="M0 0 h500 v500 h-500 v-500Z"/><text transform="translate(-82.5, 19)" fill="#444444" font-family="Helvetica" font-weight="bold" font-size="16" x="250.0" y="25.0">Example Scatter Graph</text><g><path stroke="#CCCCCC" stroke-dasharray="None" d="M0 0.0 h372.0 M0 37.15 h372.0 M0 74.3 h372.0 M0 111.45 h372.0 M0 148.6 h372.0 M0 185.75 h372.0 M0 222.9 h372.0 M0 260.05 h372.0 M0 297.2 h372.0 M0 334.35 h372.0 M0 371.5 h372.0 M0 371.5 h372.0" transform="translate(78.0, 78.5)"/><g font-size="12" font-family="Helvetica" transform="translate(72.0, 78.5)"><text x="0" y="0.0" transform="translate(-14, -7.0)">25</text><text x="0" y="37.15" transform="translate(-14, -7.0)">20</text><text x="0" y="74.3" transform="translate(-14, -7.0)">15</text><text x="0" y="111.45" transform="translate(-14, -7.0)">10</text><text x="0" y="148.6" transform="translate(-7, -7.0)">5</text><text x="0" y="185.75" transform="translate(-7, -7.0)">0</text><text x="0" y="222.9" transform="translate(-11, -7.0)">-5</text><text x="0" y="260.05" transform="translate(-18, -7.0)">-10</text><text x="0" y="297.2" transform="translate(-18, -7.0)">-15</text><text x="0" y="334.35" transform="translate(-18, -7.0)">-20</text><text x="0" y="371.5" transform="translate(-18, -7.0)">-25</text></g></g><g><path stroke="#CCCCCC" stroke-dasharray="None" d="M372.0 0 v371.5 M334.8 0 v371.5 M297.6 0 v371.5 M260.4 0 v371.5 M223.2 0 v371.5 M186.0 0 v371.5 M148.8 0 v371.5 M111.6 0 v371.5 M74.4 0 v371.5 M37.2 0 v371.5 M0.0 0 v371.5" transform="translate(78.0, 78.5)"/><g font-size="12" font-family="Helvetica" transform="translate(78.0, 96.5)"><text x="372.0" y="371.5" transform="translate(-7.0, 0)">25</text><text x="334.8" y="371.5" transform="translate(-7.0, 0)">20</text><text x="297.6" y="371.5" transform="translate(-7.0, 0)">15</text><text x="260.4" y="371.5" transform="translate(-7.0, 0)">10</text><text x="223.2" y="371.5" transform="translate(-3.5, 0)">5</text><text x="186.0" y="371.5" transform="translate(-3.5, 0)">0</text><text x="148.8" y="371.5" transform="translate(-5.5, 0)">-5</text><text x="111.6" y="371.5" transform="translate(-9.0, 0)">-10</text><text x="74.4" y="371.5" transform="translate(-9.0, 0)">-15</text><text x="37.2" y="371.5" transform="translate(-9.0, 0)">-20</text><text x="0.0" y="371.5" transform="translate(-9.0, 0)">-25</text></g></g><path transform="translate(78.0, 78.5)" d="M186.0 0 v371.5z M0 185.75 h372.0z" stroke="black"/><g opacity="0.8" transform="translate(-50.0, -50.0) rotate(180, 250.0, 250.0) scale(-1, 1) translate(-372.0, 0)"><g fill="#5fab9e"><circle cx="27.803914119407178" cy="10.734391942456195" r="4"/><circle cx="52.197469123099246" cy="148.19616461312617" r="4"/><circle cx="129.63590002539735" cy="40.75568852788879" r="4"/><circle cx="81.87155709195218" cy="134.78197815283647" r="4"/><circle cx="185.78989538431244" cy="81.03046529386657" r="4"/><circle cx="50.669569788510934" cy="171.4653092436941" r="4"/><circle cx="54.36103081915465" cy="184.39644567160542" r="4"/><circle cx="156.45601744015116" cy="86.67715969292543" r="4"/><circle cx="175.59194370233433" cy="175.9532730687686" r="4"/><circle cx="127.48208927041809" cy="113.24627566871568" r="4"/><circle cx="152.71476476833416" cy="170.22724981521682" r="4"/><circle cx="116.6178276917516" cy="82.64693304643781" r="4"/><circle cx="153.31771050179228" cy="100.81408843753852" r="4"/><circle cx="124.24583243337314" cy="127.15757104015196" r="4"/><circle cx="157.12970608403575" cy="160.84791800484396" r="4"/><circle cx="128.45855021070471" cy="113.34238567830378" r="4"/><circle cx="123.44238303953026" cy="140.23824798057245" r="4"/><circle cx="141.0883184908098" cy="183.92899063345823" r="4"/><circle cx="165.9368429002596" cy="142.72154194143167" r="4"/><circle cx="181.57833894811813" cy="145.76240274843815" r="4"/><circle cx="173.0303865489472" cy="169.39697965468483" r="4"/><circle cx="170.42121444000455" cy="179.72890700490777" r="4"/><circle cx="176.97975959347107" cy="168.5948977865827" r="4"/><circle cx="173.32109948975108" cy="184.65269750084073" r="4"/><circle cx="183.61983925553685" cy="180.40515035986104" r="4"/><circle cx="186.0" cy="185.75" r="4"/><circle cx="190.25250737881953" cy="191.13597519059206" r="4"/><circle cx="190.53955738389868" cy="187.6081294287205" r="4"/><circle cx="203.13666777412072" cy="200.5963319259369" r="4"/><circle cx="211.15959316215464" cy="214.54724595816683" r="4"/><circle cx="217.9592956633845" cy="197.20155171854117" r="4"/><circle cx="221.0979980234977" cy="209.40164114896834" r="4"/><circle cx="209.73728590541447" cy="207.15309105671685" r="4"/><circle cx="223.0114658807745" cy="225.97933514379991" r="4"/><circle cx="217.48827879129453" cy="192.19186737097684" r="4"/><circle cx="198.48691912007865" cy="244.24661475678886" r="4"/><circle cx="236.7948310991997" cy="236.83834179724326" r="4"/><circle cx="233.5998653001111" cy="225.64393302738276" r="4"/><circle cx="252.17036209444083" cy="251.1432406167828" r="4"/><circle cx="191.48369735056696" cy="281.1889790594507" r="4"/><circle cx="253.27935014343552" cy="215.46574262274322" r="4"/><circle cx="240.2094695323175" cy="287.99606143749264" r="4"/><circle cx="253.01398530201837" cy="283.64034653215316" r="4"/><circle cx="235.619702197509" cy="224.55286372335448" r="4"/><circle cx="256.67206626853266" cy="229.51890792551347" r="4"/><circle cx="283.54277774043453" cy="281.0272121684996" r="4"/><circle cx="206.67797068714063" cy="211.92791578254352" r="4"/><circle cx="306.6667389756907" cy="302.02106155432165" r="4"/><circle cx="235.2217522435502" cy="326.1465642892672" r="4"/><circle cx="296.36608575984087" cy="292.3475428021498" r="4"/></g><g fill="#f58b51"><circle cx="108.73042215131723" cy="93.38703948831147" r="4"/><circle cx="18.66673932283239" cy="41.06967039227585" r="4"/><circle cx="39.372937759390815" cy="47.3520342172988" r="4"/><circle cx="41.718137627186245" cy="66.4061460002586" r="4"/><circle cx="78.75092149526904" cy="77.40182509565838" r="4"/><circle cx="184.48598667694483" cy="144.23322607834095" r="4"/><circle cx="116.71295947409574" cy="168.65948998791336" r="4"/><circle cx="125.20110688328279" cy="182.21898025844445" r="4"/><circle cx="94.31005890451497" cy="91.79709186549545" r="4"/><circle cx="83.65274470535144" cy="116.22771122284712" r="4"/><circle cx="163.51148436331658" cy="135.09742333051244" r="4"/><circle cx="105.41505766920842" cy="117.41642207752292" r="4"/><circle cx="103.63244817804275" cy="122.19528295848163" r="4"/><circle cx="153.0692461658715" cy="106.91254046784724" r="4"/><circle cx="180.67530649042476" cy="157.0278481808147" r="4"/><circle cx="115.51441754972133" cy="142.36406452055644" r="4"/><circle cx="172.57241072889002" cy="132.646095637256" r="4"/><circle cx="160.75588250431315" cy="181.39917168896287" r="4"/><circle cx="134.98449790917368" cy="146.04115220327407" r="4"/><circle cx="176.9206131798046" cy="159.20339889585742" r="4"/><circle cx="185.8719345680191" cy="179.84016566678062" r="4"/><circle cx="157.270783161946" cy="180.41797625791207" r="4"/><circle cx="166.8785481911792" cy="173.70792425918785" r="4"/><circle cx="176.84258478464346" cy="179.3851189754696" r="4"/><circle cx="181.83796249003862" cy="178.58015268036084" r="4"/><circle cx="186.0" cy="185.75" r="4"/><circle cx="186.53405667691132" cy="187.39468715435206" r="4"/><circle cx="191.80529772912476" cy="186.99433546589782" r="4"/><circle cx="199.11157168565109" cy="198.24586402759635" r="4"/><circle cx="196.89251108212525" cy="187.80708331751924" r="4"/><circle cx="198.12178579321008" cy="192.2350589137263" r="4"/><circle cx="197.9437241542251" cy="209.4031643927195" r="4"/><circle cx="206.65797028266383" cy="229.00404124130074" r="4"/><circle cx="242.46851253273272" cy="218.1931050378318" r="4"/><circle cx="195.49508277287882" cy="244.33491692595774" r="4"/><circle cx="236.40044235676282" cy="206.41493163904047" r="4"/><circle cx="202.07770963875936" cy="196.76859823431437" r="4"/><circle cx="248.60512719650086" cy="212.90775060328113" r="4"/><circle cx="276.7183414920764" cy="273.65735419204003" r="4"/><circle cx="234.35718399345" cy="201.0153957174196" r="4"/><circle cx="284.5158182272205" cy="295.2534900419913" r="4"/><circle cx="250.5091758463374" cy="277.670395519695" r="4"/><circle cx="280.1324804852324" cy="305.8078481584628" r="4"/><circle cx="197.05827415120004" cy="287.8361394969296" r="4"/><circle cx="285.5986299189873" cy="282.0185012847725" r="4"/><circle cx="258.98873496877496" cy="290.8982001155287" r="4"/><circle cx="284.3824215464901" cy="335.3254100879086" r="4"/><circle cx="308.97589716782716" cy="222.79372898360293" r="4"/><circle cx="340.74550755515315" cy="290.9027627668158" r="4"/><circle cx="250.6903396064689" cy="356.7965353637293" r="4"/></g></g></svg>