<svg xmlns="http://www.w3.org/2000/svg" width="600" height="450" viewBox="0 0 600 450"><path fill="#FFFFFF" d="M0 0 h600 v450 h-600 v-450Z"/><text transform="translate(0, 16.0)" fill="#444444" font-family="Roboto" font-weight="normal" font-size="16" text-anchor="middle" x="308.0" y="11.25">Home Price vs Size — Mid-Market Cities</text><defs><clipPath id="plot-clip"><rect x="0" y="0" width="524.0" height="363.0"/></clipPath></defs><g><path stroke="#CCCCCC" stroke-dasharray="None" d="M0 0.0 h524.0 M0 72.60000000000001 h524.0 M0 145.20000000000002 h524.0 M0 217.79999999999998 h524.0 M0 290.40000000000003 h524.0 M0 363.0 h524.0" transform="translate(46.0, 46.5)"/><g font-size="12" font-family="Arial" fill="#444444" transform="translate(40.0, 46.5)"><text x="0" y="0.0" transform="translate(-21, 3.5)">500</text><text x="0" y="72.60000000000001" transform="translate(-21, 3.5)">400</text><text x="0" y="145.20000000000002" transform="translate(-21, 3.5)">300</text><text x="0" y="217.79999999999998" transform="translate(-21, 3.5)">200</text><text x="0" y="290.40000000000003" transform="translate(-21, 3.5)">100</text><text x="0" y="363.0" transform="translate(-7, 3.5)">0</text></g></g><g><path stroke="#CCCCCC" stroke-dasharray="None" d="M524.0 0 v363.0 M419.20000000000005 0 v363.0 M314.4 0 v363.0 M209.60000000000002 0 v363.0 M104.80000000000001 0 v363.0 M0.0 0 v363.0" transform="translate(46.0, 46.5)"/><g font-size="12" font-family="Arial" fill="#444444" transform="translate(46.0, 64.5)"><text x="524.0" y="363.0" transform="translate(-14.0, 0)">3500</text><text x="419.20000000000005" y="363.0" transform="translate(-14.0, 0)">2800</text><text x="314.4" y="363.0" transform="translate(-14.0, 0)">2100</text><text x="209.60000000000002" y="363.0" transform="translate(-14.0, 0)">1400</text><text x="104.80000000000001" y="363.0" transform="translate(-10.5, 0)">700</text><text x="0.0" y="363.0" transform="translate(-3.5, 0)">0</text></g></g><g><g opacity="0.8" transform="translate(-30.0, -40.5) rotate(180, 300.0, 225.0) scale(-1, 1) translate(-524.0, 0)" clip-path="url(#plot-clip)"><g fill="#5fab9e"><circle cx="179.65714285714287" cy="124.87199999999999" r="4"/><circle cx="217.0857142857143" cy="163.35" r="4"/><circle cx="239.54285714285714" cy="160.446" r="4"/><circle cx="269.48571428571427" cy="176.418" r="4"/><circle cx="299.4285714285714" cy="180.048" r="4"/><circle cx="329.37142857142857" cy="213.444" r="4"/><circle cx="374.2857142857143" cy="267.894" r="4"/><circle cx="419.20000000000005" cy="279.51" r="4"/><circle cx="464.1142857142857" cy="318.714" r="4"/><circle cx="524.0" cy="336.13800000000003" r="4"/></g></g><g transform="translate(-30.0, -40.5) rotate(180, 300.0, 225.0) scale(-1, 1) translate(-524.0, 0)"><g><text x="179.65714285714287" y="108.87199999999999" fill="#444444" font-size="12" font-family="Roboto" text-anchor="middle" transform="translate(179.65714285714287,108.87199999999999) scale(1,-1) translate(-179.65714285714287,-108.87199999999999)">Austin</text><text x="217.0857142857143" y="138.00000000000003" fill="#444444" font-size="12" font-family="Roboto" text-anchor="middle" transform="translate(217.0857142857143,138.00000000000003) scale(1,-1) translate(-217.0857142857143,-138.00000000000003)">Denver</text><text x="239.54285714285714" y="152.4" fill="#444444" font-size="12" font-family="Roboto" text-anchor="middle" transform="translate(239.54285714285714,152.4) scale(1,-1) translate(-239.54285714285714,-152.4)">Portland</text><text x="269.48571428571427" y="160.418" fill="#444444" font-size="12" font-family="Roboto" text-anchor="middle" transform="translate(269.48571428571427,160.418) scale(1,-1) translate(-269.48571428571427,-160.418)">Nashville</text><text x="299.4285714285714" y="164.048" fill="#444444" font-size="12" font-family="Roboto" text-anchor="middle" transform="translate(299.4285714285714,164.048) scale(1,-1) translate(-299.4285714285714,-164.048)">Raleigh</text><text x="329.37142857142857" y="197.444" fill="#444444" font-size="12" font-family="Roboto" text-anchor="middle" transform="translate(329.37142857142857,197.444) scale(1,-1) translate(-329.37142857142857,-197.444)">Boise</text><text x="374.2857142857143" y="251.894" fill="#444444" font-size="12" font-family="Roboto" text-anchor="middle" transform="translate(374.2857142857143,251.894) scale(1,-1) translate(-374.2857142857143,-251.894)">Tampa</text><text x="419.20000000000005" y="263.51" fill="#444444" font-size="12" font-family="Roboto" text-anchor="middle" transform="translate(419.20000000000005,263.51) scale(1,-1) translate(-419.20000000000005,-263.51)">Phoenix</text><text x="464.1142857142857" y="302.714" fill="#444444" font-size="12" font-family="Roboto" text-anchor="end" transform="translate(464.1142857142857,302.714) scale(1,-1) translate(-464.1142857142857,-302.714)">Atlanta</text><text x="524.0" y="320.13800000000003" fill="#444444" font-size="12" font-family="Roboto" text-anchor="end" transform="translate(524.0,320.13800000000003) scale(1,-1) translate(-524.0,-320.13800000000003)">Seattle</text></g></g></g><g><rect transform="translate(-6.5249999999999995, -1.05)" x="472.475" y="51.55" width="100.05" height="16.099999999999998" fill="#f5f5f5" fill-opacity="0.85" stroke="none"/><g><rect y="52.55" x="472.475" width="12" height="12" fill="#5fab9e"/><text y="61.55" x="486.475" font-size="12" font-family="Roboto" fill="#444444">Median Price</text></g></g><path d="M46.0 46.5 v363.0 M46.0 409.5 h524.0" stroke="#999" stroke-width="1.5" fill="none"/><text x="308.0" y="448" fill="#444444" font-size="14" font-family="Roboto" text-anchor="middle">Square Footage</text><text x="14" y="228.0" fill="#444444" font-size="14" font-family="Roboto" text-anchor="middle" transform="rotate(-90, 14, 228.0)">Price ($K)</text></svg>