<svg xmlns="http://www.w3.org/2000/svg" width="700" height="400" viewBox="0 0 700 400"><path fill="#FFFFFF" d="M0 0 h700 v400 h-700 v-400Z"/><text transform="translate(-162.5, 18)" fill="#444444" font-family="Arial" font-weight="normal" font-size="16" x="350.0" y="10.0">U-Shaped Response Curve — Signal vs Input</text><defs><clipPath id="plot-clip"><rect x="0" y="0" width="630.0" height="333.0"/></clipPath></defs><g><path stroke="#CCCCCC" stroke-dasharray="None" d="M0 0.0 h630.0 M0 66.60000000000001 h630.0 M0 133.20000000000002 h630.0 M0 199.79999999999998 h630.0 M0 266.40000000000003 h630.0 M0 333.0 h630.0" transform="translate(35.0, 47.0)"/><g font-size="12" font-family="Arial" fill="#444444" transform="translate(29.0, 47.0)"><text x="0" y="0.0" transform="translate(-14, 3.5)">60</text><text x="0" y="66.60000000000001" transform="translate(-14, 3.5)">48</text><text x="0" y="133.20000000000002" transform="translate(-14, 3.5)">36</text><text x="0" y="199.79999999999998" transform="translate(-14, 3.5)">24</text><text x="0" y="266.40000000000003" transform="translate(-14, 3.5)">12</text><text x="0" y="333.0" transform="translate(-7, 3.5)">0</text></g></g><g><path stroke="#CCCCCC" stroke-dasharray="None" d="M630.0 0 v333.0 M504.0 0 v333.0 M378.0 0 v333.0 M252.0 0 v333.0 M126.0 0 v333.0 M0.0 0 v333.0" transform="translate(35.0, 47.0)"/><g font-size="12" font-family="Arial" fill="#444444" transform="translate(35.0, 65.0)"><text x="630.0" y="333.0" transform="translate(-7.0, 0)">90</text><text x="504.0" y="333.0" transform="translate(-7.0, 0)">72</text><text x="378.0" y="333.0" transform="translate(-7.0, 0)">54</text><text x="252.0" y="333.0" transform="translate(-7.0, 0)">36</text><text x="126.0" y="333.0" transform="translate(-7.0, 0)">18</text><text x="0.0" y="333.0" transform="translate(-3.5, 0)">0</text></g></g><g opacity="0.8" transform="translate(-35.0, -20.0) rotate(180, 350.0, 200.0) scale(-1, 1) translate(-630.0, 0)" clip-path="url(#plot-clip)"><g fill="#5fab9e"><circle cx="35.0" cy="309.135" r="4"/><circle cx="70.0" cy="265.28999999999996" r="4"/><circle cx="105.0" cy="193.14" r="4"/><circle cx="140.0" cy="138.195" r="4"/><circle cx="175.0" cy="100.45500000000001" r="4"/><circle cx="210.0" cy="100.45500000000001" r="4"/><circle cx="245.0" cy="57.72" r="4"/><circle cx="280.0" cy="34.964999999999996" r="4"/><circle cx="315.0" cy="62.715" r="4"/><circle cx="350.0" cy="58.275" r="4"/><circle cx="385.00000000000006" cy="70.48499999999999" r="4"/><circle cx="420.0" cy="46.065" r="4"/><circle cx="455.0" cy="80.475" r="4"/><circle cx="490.0" cy="98.235" r="4"/><circle cx="525.0" cy="91.575" r="4"/><circle cx="560.0" cy="167.60999999999999" r="4"/><circle cx="595.0" cy="198.68999999999997" r="4"/><circle cx="630.0" cy="286.38" r="4"/></g></g><g><rect transform="translate(-21.75, -3.5)" x="552.25" y="54.5" width="130.5" height="21.0" fill="#ffffff" stroke="#CCCCCC"/><g><rect y="55.5" x="552.25" width="12" height="12" fill="#5fab9e"/><text y="64.5" x="566.25" font-size="12" font-family="Arial">Observations</text></g></g></svg>