<svg xmlns="http://www.w3.org/2000/svg" width="500" height="500" viewBox="0 0 500 500"><path fill="white" d="M0 0 h500 v500 h-500 v-500Z"/><text transform="translate(-82.5, 19)" fill="#444444" font-family="Helvetica" font-weight="bold" font-size="16" x="250.0" y="25.0">Example Scatter Graph</text><g><path stroke="#CCCCCC" stroke-dasharray="None" d="M0 0.0 h372.0 M0 74.3 h372.0 M0 148.6 h372.0 M0 222.9 h372.0 M0 297.2 h372.0 M0 371.5 h372.0 M0 371.5 h372.0" transform="translate(78.0, 78.5)"/><g font-size="12" font-family="Helvetica" transform="translate(72.0, 78.5)"><text x="0" y="0.0" transform="translate(-14, 3.5)">25</text><text x="0" y="74.3" transform="translate(-14, 3.5)">15</text><text x="0" y="148.6" transform="translate(-7, 3.5)">5</text><text x="0" y="222.9" transform="translate(-11, 3.5)">-5</text><text x="0" y="297.2" transform="translate(-18, 3.5)">-15</text><text x="0" y="371.5" transform="translate(-18, 3.5)">-25</text></g></g><g><path stroke="#CCCCCC" stroke-dasharray="None" d="M465.0 0 v371.5 M372.0 0 v371.5 M279.0 0 v371.5 M186.0 0 v371.5 M93.0 0 v371.5 M0.0 0 v371.5" transform="translate(78.0, 78.5)"/><g font-size="12" font-family="Helvetica" transform="translate(78.0, 96.5)"><text x="465.0" y="371.5" transform="translate(-7.0, 0)">30</text><text x="372.0" y="371.5" transform="translate(-7.0, 0)">20</text><text x="279.0" y="371.5" transform="translate(-7.0, 0)">10</text><text x="186.0" y="371.5" transform="translate(-3.5, 0)">0</text><text x="93.0" y="371.5" transform="translate(-9.0, 0)">-10</text><text x="0.0" y="371.5" transform="translate(-9.0, 0)">-20</text></g></g><path transform="translate(78.0, 78.5)" d="M186.0 0 v371.5z M0 185.75 h372.0z" stroke="black"/><g opacity="0.8" transform="translate(-50.0, -50.0) rotate(180, 250.0, 250.0) scale(-1, 1) translate(-372.0, 0)"><g fill="#5fab9e"><circle cx="183.8977063917603" cy="42.39153849616325" r="4"/><circle cx="151.5162541542542" cy="63.716771464337825" r="4"/><circle cx="123.44129307091933" cy="115.51901396848383" r="4"/><circle cx="179.71618305614433" cy="175.19803756750017" r="4"/><circle cx="121.62957301282624" cy="120.12660575083935" r="4"/><circle cx="166.8296777093616" cy="179.5319473114479" r="4"/><circle cx="54.84165984901999" cy="76.97719449655672" r="4"/><circle cx="133.28489143238446" cy="79.67385171345074" r="4"/><circle cx="127.3470954466617" cy="98.53055949217412" r="4"/><circle cx="42.81094841848784" cy="86.0733775146032" r="4"/><circle cx="98.37497052994291" cy="130.93815510804728" r="4"/><circle cx="180.62946844869086" cy="122.67940783847183" r="4"/><circle cx="82.98698187042656" cy="183.32628696239013" r="4"/><circle cx="98.78544999919256" cy="136.336496036606" r="4"/><circle cx="121.98687086720912" cy="130.90848812389763" r="4"/><circle cx="121.19496485291658" cy="154.27956075238637" r="4"/><circle cx="134.0468409251926" cy="171.18891781782767" r="4"/><circle cx="148.37235308394042" cy="184.43881535288452" r="4"/><circle cx="154.9709221633129" cy="148.33165264797205" r="4"/><circle cx="184.71279972605387" cy="142.61822810936619" r="4"/><circle cx="142.39356721030393" cy="149.36787829647722" r="4"/><circle cx="179.90439265340143" cy="184.6407102861392" r="4"/><circle cx="159.58314337287194" cy="165.60785175285528" r="4"/><circle cx="169.20063996181756" cy="179.43285151080588" r="4"/><circle cx="182.652457409709" cy="180.76630654581754" r="4"/><circle cx="186.0" cy="185.75" r="4"/><circle cx="189.13087905789405" cy="191.36714244243365" r="4"/><circle cx="189.90089534949212" cy="195.77696297725956" r="4"/><circle cx="203.24147130901278" cy="190.84756493949496" r="4"/><circle cx="188.48190250957327" cy="186.1022687474947" r="4"/><circle cx="225.33575177076835" cy="214.6289374325975" r="4"/><circle cx="201.5053034736939" cy="211.28176667977652" r="4"/><circle cx="189.70267579584163" cy="193.7840615008471" r="4"/><circle cx="202.78619687900084" cy="204.74700508362963" r="4"/><circle cx="264.78967127039766" cy="199.73385204936946" r="4"/><circle cx="186.38044990933435" cy="222.3163921206131" r="4"/><circle cx="270.09288812535056" cy="240.96158568072096" r="4"/><circle cx="206.08009325022078" cy="257.9371329543305" r="4"/><circle cx="194.02676408115067" cy="210.08979387795824" r="4"/><circle cx="195.30440433928737" cy="202.37461019697452" r="4"/><circle cx="322.5336166057197" cy="212.18487739442645" r="4"/><circle cx="255.50103446795498" cy="276.2343206665382" r="4"/><circle cx="228.3321809373198" cy="214.08311779807119" r="4"/><circle cx="279.30398161069263" cy="245.3632479754116" r="4"/><circle cx="361.3648673879717" cy="268.15287469203105" r="4"/><circle cx="269.8745448714468" cy="297.54359836236745" r="4"/><circle cx="209.2611164853803" cy="319.89777567739" r="4"/><circle cx="196.50444348144794" cy="192.70263962924534" r="4"/><circle cx="249.17448132794303" cy="275.2825533751306" r="4"/><circle cx="203.68029258723945" cy="203.87662888219413" r="4"/></g><g fill="#f58b51"><circle cx="125.84533244168395" cy="114.7737773386235" r="4"/><circle cx="40.22640571242978" cy="53.46349678311229" r="4"/><circle cx="172.39801526702774" cy="33.120904086787874" r="4"/><circle cx="169.10596872784643" cy="107.55033546313783" r="4"/><circle cx="7.3118773929572445" cy="170.399623451165" r="4"/><circle cx="134.2077148827884" cy="93.48490183864153" r="4"/><circle cx="177.58013868754722" cy="124.81575506476682" r="4"/><circle cx="26.462996654005746" cy="119.52263953190155" r="4"/><circle cx="149.81423622839233" cy="66.18189468331111" r="4"/><circle cx="98.15840210111661" cy="112.30728738195356" r="4"/><circle cx="87.89192338609563" cy="95.9680769615437" r="4"/><circle cx="95.46900534415892" cy="105.10803593103628" r="4"/><circle cx="159.76449121959124" cy="166.28960965873904" r="4"/><circle cx="133.8748389256519" cy="145.16958867217818" r="4"/><circle cx="116.47105867174814" cy="157.78267009560108" r="4"/><circle cx="99.03872288922226" cy="149.8956396756004" r="4"/><circle cx="129.59309184431635" cy="139.66480431473778" r="4"/><circle cx="183.5978834922787" cy="185.10246142581084" r="4"/><circle cx="171.60698560799676" cy="155.9740233346768" r="4"/><circle cx="157.29524062778555" cy="147.6579175429394" r="4"/><circle cx="154.4315374825921" cy="184.95814448693395" r="4"/><circle cx="153.48462058103468" cy="163.4728267712961" r="4"/><circle cx="170.68072200762094" cy="179.5127430039633" r="4"/><circle cx="179.98682308307852" cy="184.06062488973825" r="4"/><circle cx="177.63899638189784" cy="178.50768071825942" r="4"/><circle cx="186.0" cy="185.75" r="4"/><circle cx="193.53153972673678" cy="187.50167391572322" r="4"/><circle cx="196.0759972876848" cy="189.08612879881213" r="4"/><circle cx="186.68931542790247" cy="187.46430047336108" r="4"/><circle cx="214.0736921448074" cy="189.59240835993958" r="4"/><circle cx="212.0332178355683" cy="217.50112087349086" r="4"/><circle cx="221.63254562347944" cy="218.0897476382001" r="4"/><circle cx="206.33417441589245" cy="229.24191925713916" r="4"/><circle cx="258.3917921485868" cy="218.70856897704772" r="4"/><circle cx="244.15186843488328" cy="230.66002815685286" r="4"/><circle cx="207.00773933351894" cy="196.8418119840576" r="4"/><circle cx="240.38530794319627" cy="267.3876431772357" r="4"/><circle cx="293.0860851201488" cy="256.0869899879473" r="4"/><circle cx="218.7915759341887" cy="267.87386972778665" r="4"/><circle cx="313.5375202597496" cy="263.42030406816156" r="4"/><circle cx="288.49463400068595" cy="239.92133024004468" r="4"/><circle cx="282.07791583500455" cy="278.6132318457953" r="4"/><circle cx="246.5281813606684" cy="186.28458938647887" r="4"/><circle cx="347.5664373316496" cy="303.189780475732" r="4"/><circle cx="228.70670420289773" cy="211.00100561809444" r="4"/><circle cx="195.02695741740396" cy="288.6136459433407" r="4"/><circle cx="350.7159516877819" cy="236.6730944333584" r="4"/><circle cx="257.1413023285356" cy="318.34245816807237" r="4"/><circle cx="308.96068671287475" cy="215.50777506446127" r="4"/><circle cx="263.498612266273" cy="290.0691281163936" r="4"/></g></g></svg>