<svg xmlns="http://www.w3.org/2000/svg" width="500" height="500" viewBox="0 0 500 500"><path fill="white" d="M0 0 h500 v500 h-500 v-500Z"/><text transform="translate(-82.5, 19)" fill="#444444" font-family="Helvetica" font-weight="bold" font-size="16" x="250.0" y="30.0">Example Scatter Graph</text><g><path stroke="#CCCCCC" stroke-dasharray="None" d="M0 0.0 h352.0 M0 39.05555555555555 h352.0 M0 78.1111111111111 h352.0 M0 117.16666666666666 h352.0 M0 156.2222222222222 h352.0 M0 195.2777777777778 h352.0 M0 234.33333333333331 h352.0 M0 273.3888888888889 h352.0 M0 312.4444444444444 h352.0 M0 351.5 h352.0 M0 351.5 h352.0" transform="translate(88.0, 88.5)"/><g font-size="12" font-family="Helvetica" transform="translate(82.0, 88.5)"><text x="0" y="0.0" transform="translate(-14, -7.0)">20</text><text x="0" y="39.05555555555555" transform="translate(-14, -7.0)">15</text><text x="0" y="78.1111111111111" transform="translate(-14, -7.0)">10</text><text x="0" y="117.16666666666666" transform="translate(-7, -7.0)">5</text><text x="0" y="156.2222222222222" transform="translate(-7, -7.0)">0</text><text x="0" y="195.2777777777778" transform="translate(-11, -7.0)">-5</text><text x="0" y="234.33333333333331" transform="translate(-18, -7.0)">-10</text><text x="0" y="273.3888888888889" transform="translate(-18, -7.0)">-15</text><text x="0" y="312.4444444444444" transform="translate(-18, -7.0)">-20</text><text x="0" y="351.5" transform="translate(-18, -7.0)">-25</text></g></g><g><path stroke="#CCCCCC" stroke-dasharray="None" d="M352.0 0 v351.5 M316.8 0 v351.5 M281.6 0 v351.5 M246.39999999999998 0 v351.5 M211.2 0 v351.5 M176.0 0 v351.5 M140.8 0 v351.5 M105.6 0 v351.5 M70.4 0 v351.5 M35.2 0 v351.5 M0.0 0 v351.5" transform="translate(88.0, 88.5)"/><g font-size="12" font-family="Helvetica" transform="translate(88.0, 106.5)"><text x="352.0" y="351.5" transform="translate(-7.0, 0)">25</text><text x="316.8" y="351.5" transform="translate(-7.0, 0)">20</text><text x="281.6" y="351.5" transform="translate(-7.0, 0)">15</text><text x="246.39999999999998" y="351.5" transform="translate(-7.0, 0)">10</text><text x="211.2" y="351.5" transform="translate(-3.5, 0)">5</text><text x="176.0" y="351.5" transform="translate(-3.5, 0)">0</text><text x="140.8" y="351.5" transform="translate(-5.5, 0)">-5</text><text x="105.6" y="351.5" transform="translate(-9.0, 0)">-10</text><text x="70.4" y="351.5" transform="translate(-9.0, 0)">-15</text><text x="35.2" y="351.5" transform="translate(-9.0, 0)">-20</text><text x="0.0" y="351.5" transform="translate(-9.0, 0)">-25</text></g></g><path transform="translate(88.0, 88.5)" d="M176.0 0 v351.5z M0 156.2222222222222 h352.0z" stroke="black"/><g opacity="0.8" transform="translate(-60.0, -60.0) rotate(180, 250.0, 250.0) scale(-1, 1) translate(-352.0, 0)"><g fill="#5fab9e"><circle cx="91.0159791826665" cy="59.07738069452796" r="4"/><circle cx="26.877156025534237" cy="68.48685667916148" r="4"/><circle cx="97.80681305213717" cy="124.66773404685044" r="4"/><circle cx="88.6524034295278" cy="27.430263150437735" r="4"/><circle cx="153.73723261956695" cy="150.99173952947814" r="4"/><circle cx="81.12018545432977" cy="102.12211232258517" r="4"/><circle cx="65.16709501552552" cy="163.1668258198477" r="4"/><circle cx="88.38752540398785" cy="175.64111929136627" r="4"/><circle cx="116.9271409369596" cy="72.13860801730738" r="4"/><circle cx="168.116379887872" cy="192.62829955920577" r="4"/><circle cx="160.59615868278738" cy="111.09075850543601" r="4"/><circle cx="79.41742384622437" cy="121.40358555695168" r="4"/><circle cx="102.38483727965722" cy="129.60118281207994" r="4"/><circle cx="110.52969723640074" cy="157.7913990262038" r="4"/><circle cx="128.29447875843897" cy="158.207470914558" r="4"/><circle cx="172.6703654616241" cy="141.27264016652322" r="4"/><circle cx="113.27356321141997" cy="150.7049669457436" r="4"/><circle cx="165.4581458840014" cy="183.0566324964366" r="4"/><circle cx="164.6628666917931" cy="145.1023622123994" r="4"/><circle cx="146.06726664486888" cy="193.12781948076605" r="4"/><circle cx="171.38948371986288" cy="169.4180216978671" r="4"/><circle cx="167.38186316006207" cy="185.4267941329482" r="4"/><circle cx="155.55417314152976" cy="176.45249859094483" r="4"/><circle cx="165.45259013454654" cy="191.2857176731691" r="4"/><circle cx="172.06555755960323" cy="194.5127795411811" r="4"/><circle cx="176.0" cy="195.2777777777778" r="4"/><circle cx="178.17931392763097" cy="202.01900324616003" r="4"/><circle cx="176.39774722277028" cy="205.45827594934568" r="4"/><circle cx="195.49697089599897" cy="198.19727019619495" r="4"/><circle cx="187.1232389489802" cy="212.40014642169837" r="4"/><circle cx="197.95125681841964" cy="228.38286015733058" r="4"/><circle cx="194.1896890534643" cy="230.72214855120103" r="4"/><circle cx="180.64805507918584" cy="204.2203190176901" r="4"/><circle cx="183.88092823190453" cy="225.12189024939428" r="4"/><circle cx="219.7004233915872" cy="256.3025876371248" r="4"/><circle cx="225.5701978363593" cy="264.6874542145036" r="4"/><circle cx="206.3993650474154" cy="217.43870967880463" r="4"/><circle cx="242.84522820122208" cy="198.55900576395538" r="4"/><circle cx="189.38435337377814" cy="245.35009850396247" r="4"/><circle cx="218.69633139957344" cy="214.6831445265891" r="4"/><circle cx="275.1930686872503" cy="263.5250136666951" r="4"/><circle cx="215.22564405489237" cy="274.69055195210547" r="4"/><circle cx="233.39321083413108" cy="273.3601598728086" r="4"/><circle cx="281.2460814748048" cy="281.211393556933" r="4"/><circle cx="222.8692068809263" cy="256.4431724393163" r="4"/><circle cx="228.98240846504592" cy="199.56717167937833" r="4"/><circle cx="179.91813082482517" cy="298.0175055885457" r="4"/><circle cx="314.13112933993193" cy="225.96847015959779" r="4"/><circle cx="255.52597537076133" cy="316.2428725287045" r="4"/><circle cx="274.82438286145236" cy="312.7430783977549" r="4"/></g><g fill="#f58b51"><circle cx="98.3544637588966" cy="164.32959728028135" r="4"/><circle cx="65.2921021133551" cy="172.8152628386945" r="4"/><circle cx="85.17937080479649" cy="127.77995203592249" r="4"/><circle cx="146.67007032433412" cy="61.242337726338256" r="4"/><circle cx="74.12916149692373" cy="157.70130741029237" r="4"/><circle cx="106.47017930014815" cy="113.24286732506397" r="4"/><circle cx="116.35178182975729" cy="152.92736538486173" r="4"/><circle cx="61.75341927867261" cy="72.45758664100143" r="4"/><circle cx="89.96642304877773" cy="178.1306216932223" r="4"/><circle cx="70.08654567452933" cy="154.35308919668103" r="4"/><circle cx="134.95964304777962" cy="105.69801470142141" r="4"/><circle cx="155.14281288143587" cy="184.2841950908043" r="4"/><circle cx="147.96199006786262" cy="142.4319498204944" r="4"/><circle cx="122.33197561552835" cy="165.09209719944826" r="4"/><circle cx="166.19583308590776" cy="175.50636991621394" r="4"/><circle cx="154.36909779801067" cy="159.07479523140915" r="4"/><circle cx="162.0776432151264" cy="192.34239942555035" r="4"/><circle cx="139.95857035148475" cy="143.39338891907911" r="4"/><circle cx="133.52184374694923" cy="192.75665481999712" r="4"/><circle cx="167.20022307360142" cy="168.08491965053483" r="4"/><circle cx="158.58361144560175" cy="177.32590680578858" r="4"/><circle cx="149.72276279911964" cy="184.20014065255359" r="4"/><circle cx="174.03381141460247" cy="174.08521438411506" r="4"/><circle cx="166.50602705922165" cy="187.35040648082395" r="4"/><circle cx="172.7032064112197" cy="194.28695749097156" r="4"/><circle cx="176.0" cy="195.2777777777778" r="4"/><circle cx="178.97895721199168" cy="201.6874646296278" r="4"/><circle cx="176.60894767645684" cy="208.36191281764732" r="4"/><circle cx="180.24684749321722" cy="214.00792618031684" r="4"/><circle cx="203.90008684691" cy="201.5221651149966" r="4"/><circle cx="210.43220619181642" cy="223.30691498440206" r="4"/><circle cx="178.97002928376185" cy="205.27722660629394" r="4"/><circle cx="190.62329850234056" cy="206.14205563691186" r="4"/><circle cx="217.57375437665542" cy="233.8329934273978" r="4"/><circle cx="212.3018939181216" cy="239.9280290154152" r="4"/><circle cx="213.1863632438606" cy="222.09570697502147" r="4"/><circle cx="210.02514899681597" cy="203.58024690392503" r="4"/><circle cx="215.67866139915412" cy="202.23393943651715" r="4"/><circle cx="180.34916027435793" cy="219.1253411196539" r="4"/><circle cx="216.49950842635408" cy="298.54993300619344" r="4"/><circle cx="235.7277180997467" cy="265.5043356838951" r="4"/><circle cx="263.6299303872298" cy="251.87582610447697" r="4"/><circle cx="240.28343620347204" cy="284.162904195734" r="4"/><circle cx="177.21008800736067" cy="199.20610713446797" r="4"/><circle cx="308.31190181405" cy="200.12711838112202" r="4"/><circle cx="255.3081178754077" cy="225.1368808291902" r="4"/><circle cx="205.01814664862258" cy="244.5698742072671" r="4"/><circle cx="270.91428812549657" cy="317.3510045963523" r="4"/><circle cx="326.8511863331363" cy="217.80720491861183" r="4"/><circle cx="273.8783770571716" cy="327.0129874501352" r="4"/></g></g></svg>