<svg xmlns="http://www.w3.org/2000/svg" width="700" height="400" viewBox="0 0 700 400"><path fill="white" d="M0 0 h700 v400 h-700 v-400Z"/><text transform="translate(-72.0, 19)" fill="#444444" font-family="Helvetica" font-weight="bold" font-size="16" x="350.0" y="10.0">Correlation Analysis</text><g><path stroke="#CCCCCC" stroke-dasharray="None" d="M0 0.0 h606.0 M0 66.3 h606.0 M0 132.6 h606.0 M0 198.9 h606.0 M0 265.2 h606.0 M0 331.5 h606.0" transform="translate(59.0, 48.5)"/><g font-size="12" font-family="Helvetica" transform="translate(53.0, 48.5)"><text x="0" y="0.0" transform="translate(-14, 3.5)">70</text><text x="0" y="66.3" transform="translate(-14, 3.5)">56</text><text x="0" y="132.6" transform="translate(-14, 3.5)">42</text><text x="0" y="198.9" transform="translate(-14, 3.5)">28</text><text x="0" y="265.2" transform="translate(-14, 3.5)">14</text><text x="0" y="331.5" transform="translate(-7, 3.5)">0</text></g></g><g><path stroke="#CCCCCC" stroke-dasharray="None" d="M606.0 0 v331.5 M484.8 0 v331.5 M363.59999999999997 0 v331.5 M242.4 0 v331.5 M121.2 0 v331.5 M0.0 0 v331.5" transform="translate(59.0, 48.5)"/><g font-size="12" font-family="Helvetica" transform="translate(59.0, 66.5)"><text x="606.0" y="331.5" transform="translate(-7.0, 0)">55</text><text x="484.8" y="331.5" transform="translate(-7.0, 0)">44</text><text x="363.59999999999997" y="331.5" transform="translate(-7.0, 0)">33</text><text x="242.4" y="331.5" transform="translate(-7.0, 0)">22</text><text x="121.2" y="331.5" transform="translate(-7.0, 0)">11</text><text x="0.0" y="331.5" transform="translate(-3.5, 0)">0</text></g></g><g opacity="0.8" transform="translate(-35.0, -20.0) rotate(180, 350.0, 200.0) scale(-1, 1) translate(-606.0, 0)"><g fill="#5fab9e"><circle cx="0.0" cy="47.357142857142854" r="4"/><circle cx="110.18181818181819" cy="94.71428571428571" r="4"/><circle cx="220.36363636363637" cy="142.07142857142856" r="4"/><circle cx="330.5454545454545" cy="189.42857142857142" r="4"/><circle cx="440.72727272727275" cy="236.78571428571428" r="4"/><circle cx="550.9090909090909" cy="284.1428571428571" r="4"/></g><g fill="#f58b51"><circle cx="55.09090909090909" cy="71.03571428571428" r="4"/><circle cx="165.27272727272725" cy="118.39285714285714" r="4"/><circle cx="275.45454545454544" cy="165.75" r="4"/><circle cx="385.6363636363636" cy="236.78571428571428" r="4"/><circle cx="495.81818181818187" cy="284.1428571428571" r="4"/><circle cx="606.0" cy="331.5" r="4"/></g></g><g><rect transform="translate(-7.5, -3.75)" x="593.5" y="56.25" width="75.0" height="37.5" fill="#ffffff" stroke="#CCCCCC"/><g transform="translate(0, 13)"><rect y="43.25" x="593.5" width="13" height="13" fill="#5fab9e"/><text y="53.0" x="608.5" font-size="11" font-family="Helvetica">Group A</text></g><g transform="translate(0, 15)"><rect y="56.25" x="593.5" width="13" height="13" fill="#f58b51"/><text y="66.0" x="608.5" font-size="11" font-family="Helvetica">Group B</text></g></g></svg>