<svg xmlns="http://www.w3.org/2000/svg" width="500" height="500" viewBox="0 0 500 500"><path fill="white" d="M0 0 h500 v500 h-500 v-500Z"/><text transform="translate(-82.5, 19)" fill="#444444" font-family="Helvetica" font-weight="bold" font-size="16" x="250.0" y="12.5">Example Scatter Graph</text><g><path stroke="#CCCCCC" stroke-dasharray="None" d="M0 0.0 h422.0 M0 42.150000000000006 h422.0 M0 84.30000000000001 h422.0 M0 126.44999999999999 h422.0 M0 168.60000000000002 h422.0 M0 210.75 h422.0 M0 252.89999999999998 h422.0 M0 295.04999999999995 h422.0 M0 337.20000000000005 h422.0 M0 379.35 h422.0 M0 421.5 h422.0" transform="translate(53.0, 53.5)"/><g font-size="12" font-family="Helvetica" transform="translate(47.0, 53.5)"><text x="0" y="0.0" transform="translate(-14, 3.5)">25</text><text x="0" y="42.150000000000006" transform="translate(-14, 3.5)">20</text><text x="0" y="84.30000000000001" transform="translate(-14, 3.5)">15</text><text x="0" y="126.44999999999999" transform="translate(-14, 3.5)">10</text><text x="0" y="168.60000000000002" transform="translate(-7, 3.5)">5</text><text x="0" y="210.75" transform="translate(-7, 3.5)">0</text><text x="0" y="252.89999999999998" transform="translate(-11, 3.5)">-5</text><text x="0" y="295.04999999999995" transform="translate(-18, 3.5)">-10</text><text x="0" y="337.20000000000005" transform="translate(-18, 3.5)">-15</text><text x="0" y="379.35" transform="translate(-18, 3.5)">-20</text><text x="0" y="421.5" transform="translate(-18, 3.5)">-25</text></g></g><g><path stroke="#CCCCCC" stroke-dasharray="None" d="M422.0 0 v421.5 M375.1111111111111 0 v421.5 M328.22222222222223 0 v421.5 M281.3333333333333 0 v421.5 M234.44444444444446 0 v421.5 M187.55555555555554 0 v421.5 M140.66666666666666 0 v421.5 M93.77777777777777 0 v421.5 M46.888888888888886 0 v421.5 M0.0 0 v421.5" transform="translate(53.0, 53.5)"/><g font-size="12" font-family="Helvetica" transform="translate(53.0, 71.5)"><text x="422.0" y="421.5" transform="translate(-7.0, 0)">20</text><text x="375.1111111111111" y="421.5" transform="translate(-7.0, 0)">15</text><text x="328.22222222222223" y="421.5" transform="translate(-7.0, 0)">10</text><text x="281.3333333333333" y="421.5" transform="translate(-3.5, 0)">5</text><text x="234.44444444444446" y="421.5" transform="translate(-3.5, 0)">0</text><text x="187.55555555555554" y="421.5" transform="translate(-5.5, 0)">-5</text><text x="140.66666666666666" y="421.5" transform="translate(-9.0, 0)">-10</text><text x="93.77777777777777" y="421.5" transform="translate(-9.0, 0)">-15</text><text x="46.888888888888886" y="421.5" transform="translate(-9.0, 0)">-20</text><text x="0.0" y="421.5" transform="translate(-9.0, 0)">-25</text></g></g><path transform="translate(53.0, 53.5)" d="M0 210.75 h422.0z" stroke="black"/><g opacity="0.8" transform="translate(-25.0, -25.0) rotate(180, 250.0, 250.0) scale(-1, 1) translate(-422.0, 0)"><g fill="#5fab9e"><circle cx="7.693276249535819" cy="154.19280187201653" r="4"/><circle cx="220.59546838431433" cy="46.05176661218525" r="4"/><circle cx="64.41632549704234" cy="110.01956627591359" r="4"/><circle cx="209.2352756846272" cy="205.14152924327232" r="4"/><circle cx="69.3859751272397" cy="208.18778083659697" r="4"/><circle cx="67.67267617935066" cy="61.014294850879125" r="4"/><circle cx="149.10908059751333" cy="163.97256246723953" r="4"/><circle cx="139.7249290055362" cy="155.67813766040916" r="4"/><circle cx="147.97232134106923" cy="185.9124763581985" r="4"/><circle cx="166.61664016127878" cy="203.89808582682952" r="4"/><circle cx="135.13743096202458" cy="197.16039315301555" r="4"/><circle cx="148.34783243730806" cy="121.72559800926504" r="4"/><circle cx="208.30220269382522" cy="156.70752986007798" r="4"/><circle cx="150.7089150064976" cy="138.67046112204542" r="4"/><circle cx="185.06726297827277" cy="202.76274525383573" r="4"/><circle cx="231.85199661709558" cy="174.53026517212513" r="4"/><circle cx="153.20423103214344" cy="147.69663522590838" r="4"/><circle cx="184.91681861259036" cy="145.32962160411796" r="4"/><circle cx="209.8471862594659" cy="186.11636100470145" r="4"/><circle cx="219.4200074909575" cy="207.84128577128106" r="4"/><circle cx="202.39216533222938" cy="180.16787354433066" r="4"/><circle cx="203.35196265232324" cy="199.54737805647233" r="4"/><circle cx="221.40244039113463" cy="197.46328121928374" r="4"/><circle cx="222.77392476465604" cy="199.9583116115473" r="4"/><circle cx="231.25797214698446" cy="202.38043216700683" r="4"/><circle cx="234.44444444444446" cy="210.75" r="4"/><circle cx="242.60387504257685" cy="211.74249016284801" r="4"/><circle cx="248.61476486497952" cy="219.26351285511092" r="4"/><circle cx="255.14575141370366" cy="230.47573352360183" r="4"/><circle cx="243.21707434798986" cy="220.17971490656006" r="4"/><circle cx="249.9839463183137" cy="235.51027469835225" r="4"/><circle cx="241.17730947407946" cy="246.85564362228357" r="4"/><circle cx="279.1789373295625" cy="259.3945637168172" r="4"/><circle cx="276.7746593794147" cy="263.4259360029963" r="4"/><circle cx="276.22731867123764" cy="279.00369096116617" r="4"/><circle cx="307.20821626212984" cy="291.87331535459595" r="4"/><circle cx="284.3517968252531" cy="258.50795158907175" r="4"/><circle cx="344.6715521794072" cy="308.77279749122016" r="4"/><circle cx="296.28857951525424" cy="257.5545150856672" r="4"/><circle cx="254.8578174041447" cy="276.71495092337017" r="4"/><circle cx="253.75794853932524" cy="220.03865773997254" r="4"/><circle cx="348.09490127968854" cy="274.4230078487432" r="4"/><circle cx="314.95435856159" cy="309.15683286528" r="4"/><circle cx="365.3118172328089" cy="220.88984709654758" r="4"/><circle cx="312.59130833135254" cy="304.87475165945506" r="4"/><circle cx="271.7090003678389" cy="326.63420510947003" r="4"/><circle cx="339.2837900421866" cy="337.27892880526497" r="4"/><circle cx="262.4400234923101" cy="386.0625076255484" r="4"/><circle cx="288.30818735165695" cy="365.3981841980227" r="4"/><circle cx="293.860896827746" cy="378.8368406946349" r="4"/></g><g fill="#f58b51"><circle cx="122.08938676930984" cy="30.02764867456456" r="4"/><circle cx="73.1007224094649" cy="82.08929853811819" r="4"/><circle cx="206.11460368655608" cy="31.592317712917946" r="4"/><circle cx="112.4979123012751" cy="62.793056363532685" r="4"/><circle cx="215.00237731721467" cy="41.44040060588715" r="4"/><circle cx="215.93373426909363" cy="75.60194913064056" r="4"/><circle cx="108.92622390592328" cy="93.34690588256682" r="4"/><circle cx="89.05578173423211" cy="150.061781348044" r="4"/><circle cx="96.8518214144745" cy="113.32891724167993" r="4"/><circle cx="139.9692520584422" cy="168.32300679686682" r="4"/><circle cx="109.4695082254807" cy="151.18282393398977" r="4"/><circle cx="145.77018190324176" cy="141.8622589237219" r="4"/><circle cx="221.874422278007" cy="202.3474319091466" r="4"/><circle cx="191.91824209583186" cy="189.60933988029925" r="4"/><circle cx="172.9866666411585" cy="177.97124782546476" r="4"/><circle cx="159.64251554858572" cy="149.6834601717673" r="4"/><circle cx="150.97289082247258" cy="136.80722982574068" r="4"/><circle cx="234.16943928242668" cy="171.96997653858045" r="4"/><circle cx="183.83239999445175" cy="152.67146808773904" r="4"/><circle cx="219.55731426472468" cy="161.7878052027654" r="4"/><circle cx="198.09376572862408" cy="184.51906714190685" r="4"/><circle cx="203.13283318117885" cy="186.40486820592508" r="4"/><circle cx="208.61268093106443" cy="197.08994647028416" r="4"/><circle cx="216.1225787524762" cy="199.50187291884296" r="4"/><circle cx="229.30105177066397" cy="209.66961090955357" r="4"/><circle cx="234.44444444444446" cy="210.75" r="4"/><circle cx="238.48095858869962" cy="213.09468219857064" r="4"/><circle cx="242.38520010820648" cy="212.8293855907808" r="4"/><circle cx="249.5706850670233" cy="211.22866328148083" r="4"/><circle cx="243.8690688771033" cy="216.4679745943397" r="4"/><circle cx="243.7687087546352" cy="220.54305746049747" r="4"/><circle cx="272.8270118368538" cy="241.27959986455951" r="4"/><circle cx="237.10416813394667" cy="222.29273743150267" r="4"/><circle cx="238.10803140951614" cy="260.3771493929521" r="4"/><circle cx="307.8691872135179" cy="214.31366182122537" r="4"/><circle cx="276.55077720989203" cy="223.05830578791895" r="4"/><circle cx="238.1084963456799" cy="289.7274730497272" r="4"/><circle cx="313.2589227948723" cy="230.3287406004135" r="4"/><circle cx="286.1231568806575" cy="283.1480221317345" r="4"/><circle cx="279.33052778010926" cy="233.4913507433662" r="4"/><circle cx="363.35075050023954" cy="266.4937579704487" r="4"/><circle cx="320.5313762170552" cy="277.9221916462926" r="4"/><circle cx="256.8450581278579" cy="211.7861414355587" r="4"/><circle cx="291.69764066583326" cy="265.01054792446934" r="4"/><circle cx="378.81557438157466" cy="231.027637114883" r="4"/><circle cx="368.5780382314191" cy="363.53619332176106" r="4"/><circle cx="290.2364241620573" cy="258.65996557910495" r="4"/><circle cx="367.12284694351916" cy="348.98082964132834" r="4"/><circle cx="238.2309713233754" cy="215.31559823089893" r="4"/><circle cx="421.39279053479487" cy="262.58992552824367" r="4"/></g></g></svg>