<svg xmlns="http://www.w3.org/2000/svg" width="500" height="500" viewBox="0 0 500 500"><path fill="white" d="M0 0 h500 v500 h-500 v-500Z"/><text transform="translate(-82.5, 19)" fill="#444444" font-family="Helvetica" font-weight="bold" font-size="16" x="250.0" y="12.5">Example Scatter Graph</text><g><path stroke="#CCCCCC" stroke-dasharray="None" d="M0 0.0 h422.0 M0 42.150000000000006 h422.0 M0 84.30000000000001 h422.0 M0 126.44999999999999 h422.0 M0 168.60000000000002 h422.0 M0 210.75 h422.0 M0 252.89999999999998 h422.0 M0 295.04999999999995 h422.0 M0 337.20000000000005 h422.0 M0 379.35 h422.0 M0 421.5 h422.0" transform="translate(53.0, 53.5)"/><g font-size="12" font-family="Helvetica" transform="translate(47.0, 53.5)"><text x="0" y="0.0" transform="translate(-14, 3.5)">25</text><text x="0" y="42.150000000000006" transform="translate(-14, 3.5)">20</text><text x="0" y="84.30000000000001" transform="translate(-14, 3.5)">15</text><text x="0" y="126.44999999999999" transform="translate(-14, 3.5)">10</text><text x="0" y="168.60000000000002" transform="translate(-7, 3.5)">5</text><text x="0" y="210.75" transform="translate(-7, 3.5)">0</text><text x="0" y="252.89999999999998" transform="translate(-11, 3.5)">-5</text><text x="0" y="295.04999999999995" transform="translate(-18, 3.5)">-10</text><text x="0" y="337.20000000000005" transform="translate(-18, 3.5)">-15</text><text x="0" y="379.35" transform="translate(-18, 3.5)">-20</text><text x="0" y="421.5" transform="translate(-18, 3.5)">-25</text></g></g><g><path stroke="#CCCCCC" stroke-dasharray="None" d="M422.0 0 v421.5 M375.1111111111111 0 v421.5 M328.22222222222223 0 v421.5 M281.3333333333333 0 v421.5 M234.44444444444446 0 v421.5 M187.55555555555554 0 v421.5 M140.66666666666666 0 v421.5 M93.77777777777777 0 v421.5 M46.888888888888886 0 v421.5 M0.0 0 v421.5" transform="translate(53.0, 53.5)"/><g font-size="12" font-family="Helvetica" transform="translate(53.0, 71.5)"><text x="422.0" y="421.5" transform="translate(-7.0, 0)">20</text><text x="375.1111111111111" y="421.5" transform="translate(-7.0, 0)">15</text><text x="328.22222222222223" y="421.5" transform="translate(-7.0, 0)">10</text><text x="281.3333333333333" y="421.5" transform="translate(-3.5, 0)">5</text><text x="234.44444444444446" y="421.5" transform="translate(-3.5, 0)">0</text><text x="187.55555555555554" y="421.5" transform="translate(-5.5, 0)">-5</text><text x="140.66666666666666" y="421.5" transform="translate(-9.0, 0)">-10</text><text x="93.77777777777777" y="421.5" transform="translate(-9.0, 0)">-15</text><text x="46.888888888888886" y="421.5" transform="translate(-9.0, 0)">-20</text><text x="0.0" y="421.5" transform="translate(-9.0, 0)">-25</text></g></g><path transform="translate(53.0, 53.5)" d="M0 210.75 h422.0z" stroke="black"/><g opacity="0.8" transform="translate(-25.0, -25.0) rotate(180, 250.0, 250.0) scale(-1, 1) translate(-422.0, 0)"><g fill="#5fab9e"><circle cx="158.04736297430895" cy="187.45172180665685" r="4"/><circle cx="85.28411182004305" cy="40.46445716309654" r="4"/><circle cx="26.206747236511486" cy="112.08538591230247" r="4"/><circle cx="214.5144105278431" cy="202.64661048835956" r="4"/><circle cx="119.87304109861446" cy="152.92966159774255" r="4"/><circle cx="135.58318341451013" cy="108.69580026856164" r="4"/><circle cx="137.4951116996669" cy="122.96774957340772" r="4"/><circle cx="121.61224165992324" cy="144.17318243519347" r="4"/><circle cx="100.4597704284324" cy="98.00076752273748" r="4"/><circle cx="154.9765049067268" cy="127.21760750803377" r="4"/><circle cx="163.14819127773384" cy="197.4673540180606" r="4"/><circle cx="176.17020943649672" cy="167.02990043754588" r="4"/><circle cx="122.84260728839153" cy="189.49090659516776" r="4"/><circle cx="226.08138375862478" cy="182.05107582687015" r="4"/><circle cx="138.5639012354893" cy="204.61463270242893" r="4"/><circle cx="144.97984836357818" cy="137.33865946450865" r="4"/><circle cx="175.85913493399983" cy="173.17467744308422" r="4"/><circle cx="179.66481892935383" cy="143.8635949328674" r="4"/><circle cx="229.77506727013306" cy="177.16522478026326" r="4"/><circle cx="196.70686601505204" cy="207.00149730822466" r="4"/><circle cx="198.26703364961085" cy="203.39691481649527" r="4"/><circle cx="200.37830775854115" cy="203.78730829636808" r="4"/><circle cx="216.9189504809732" cy="200.43036483500023" r="4"/><circle cx="231.9907912603477" cy="196.14609973385728" r="4"/><circle cx="234.01808087319935" cy="204.99348567243703" r="4"/><circle cx="234.44444444444446" cy="210.75" r="4"/><circle cx="242.8735729097871" cy="218.38582533206704" r="4"/><circle cx="252.29389404995823" cy="222.4376032952601" r="4"/><circle cx="244.54181462393817" cy="233.0789751291107" r="4"/><circle cx="251.97731321686123" cy="237.96293371306066" r="4"/><circle cx="258.17064559821733" cy="239.94429962304488" r="4"/><circle cx="248.59239913711468" cy="234.80853637709217" r="4"/><circle cx="277.75843294613105" cy="219.98063671712526" r="4"/><circle cx="267.00031244014207" cy="263.4161941736574" r="4"/><circle cx="260.1305177421092" cy="261.7042448182562" r="4"/><circle cx="294.9943106769366" cy="237.38589507685725" r="4"/><circle cx="235.79261772558098" cy="300.8206185810353" r="4"/><circle cx="302.39683383364456" cy="233.6636024956826" r="4"/><circle cx="336.3440427971397" cy="244.97342092513145" r="4"/><circle cx="343.87115905247526" cy="230.68060453879744" r="4"/><circle cx="247.8744538983067" cy="227.8754155584555" r="4"/><circle cx="382.3468103043747" cy="211.7890307419116" r="4"/><circle cx="357.01073559587803" cy="287.40747743178264" r="4"/><circle cx="356.54383774105105" cy="292.0794435718177" r="4"/><circle cx="263.0005120005147" cy="310.65851552768123" r="4"/><circle cx="317.021811601706" cy="313.5189276042717" r="4"/><circle cx="303.8818503279909" cy="329.1879798360673" r="4"/><circle cx="379.1881547397656" cy="269.4326329163759" r="4"/><circle cx="237.91812087992162" cy="400.4761569199514" r="4"/><circle cx="386.7927043611149" cy="234.04171889055883" r="4"/></g><g fill="#f58b51"><circle cx="67.33391713712962" cy="188.0917776758062" r="4"/><circle cx="223.96257692528192" cy="95.10178213806994" r="4"/><circle cx="172.551337363552" cy="176.04275442090585" r="4"/><circle cx="134.78888824710728" cy="137.16872653748655" r="4"/><circle cx="168.47114617927005" cy="173.46102032180727" r="4"/><circle cx="149.53297048593157" cy="172.1896419329774" r="4"/><circle cx="145.46207868158334" cy="102.56202601943632" r="4"/><circle cx="148.05452374687184" cy="147.74030565379016" r="4"/><circle cx="150.0449016938678" cy="80.54956868282349" r="4"/><circle cx="160.95745385084285" cy="173.80864378748691" r="4"/><circle cx="137.89438598404882" cy="169.2296978021248" r="4"/><circle cx="122.81291307664723" cy="120.67782236625922" r="4"/><circle cx="193.28088045811086" cy="106.78222454571113" r="4"/><circle cx="218.3599178993921" cy="191.64185394508692" r="4"/><circle cx="180.16650565085538" cy="134.71419690197365" r="4"/><circle cx="193.86715266903065" cy="132.48504569920976" r="4"/><circle cx="198.93226631738074" cy="142.52940148659297" r="4"/><circle cx="207.90734458513555" cy="143.6238328011854" r="4"/><circle cx="182.08890954911087" cy="187.3152602985745" r="4"/><circle cx="214.31617869241325" cy="202.7469840163732" r="4"/><circle cx="220.5211401875039" cy="170.32427115797586" r="4"/><circle cx="214.16859011734982" cy="198.66577349782654" r="4"/><circle cx="218.8269213343241" cy="210.69071938637015" r="4"/><circle cx="221.60447909230638" cy="203.50406397900736" r="4"/><circle cx="229.15794393297102" cy="205.15835090153053" r="4"/><circle cx="234.44444444444446" cy="210.75" r="4"/><circle cx="241.82548748413825" cy="214.22320535073294" r="4"/><circle cx="238.79550495898297" cy="222.54340449318735" r="4"/><circle cx="254.43596666151672" cy="229.19437765762507" r="4"/><circle cx="262.14328528796193" cy="229.32735243115485" r="4"/><circle cx="248.45669802704717" cy="219.15062428864255" r="4"/><circle cx="246.35206806186574" cy="239.23891535999167" r="4"/><circle cx="253.48703381218053" cy="235.5222243282488" r="4"/><circle cx="303.4960424645234" cy="259.16497711231824" r="4"/><circle cx="258.13689646737697" cy="283.21358527191" r="4"/><circle cx="268.9791915721589" cy="234.15059546328757" r="4"/><circle cx="237.80723917800262" cy="237.49827812691436" r="4"/><circle cx="333.12714857372066" cy="301.3379655899894" r="4"/><circle cx="307.5895543839518" cy="277.7706748136569" r="4"/><circle cx="359.879330393344" cy="288.61921113955196" r="4"/><circle cx="290.24725768352016" cy="296.4452331727242" r="4"/><circle cx="342.8102625794545" cy="284.14834990048456" r="4"/><circle cx="327.28302445125706" cy="244.60515572781813" r="4"/><circle cx="387.3104599488931" cy="241.06898215775132" r="4"/><circle cx="374.16037076771505" cy="300.33894157127173" r="4"/><circle cx="296.48952432828327" cy="227.431103957551" r="4"/><circle cx="295.31008000543886" cy="227.02208496508146" r="4"/><circle cx="365.6586646907246" cy="361.2562776645209" r="4"/><circle cx="250.53519125917884" cy="373.48857739453103" r="4"/><circle cx="392.944530774364" cy="370.5058573667198" r="4"/></g></g></svg>