<svg xmlns="http://www.w3.org/2000/svg" width="700" height="400" viewBox="0 0 700 400"><path fill="white" d="M0 0 h700 v400 h-700 v-400Z"/><text transform="translate(-107.5, 18)" fill="#444444" font-family="Arial" font-weight="bold" font-size="16" x="350.0" y="10.0">Height vs Weight Distribution</text><g><path stroke="#CCCCCC" stroke-dasharray="None" d="M0 0.0 h605.0 M0 66.60000000000001 h605.0 M0 133.20000000000002 h605.0 M0 199.79999999999998 h605.0 M0 266.40000000000003 h605.0 M0 333.0 h605.0" transform="translate(60.0, 47.0)"/><g font-size="12" font-family="Arial" transform="translate(54.0, 47.0)"><text x="0" y="0.0" transform="translate(-7, 3.5)">0</text><text x="0" y="66.60000000000001" transform="translate(-14, 3.5)">19</text><text x="0" y="133.20000000000002" transform="translate(-14, 3.5)">38</text><text x="0" y="199.79999999999998" transform="translate(-14, 3.5)">57</text><text x="0" y="266.40000000000003" transform="translate(-14, 3.5)">76</text><text x="0" y="333.0" transform="translate(-14, 3.5)">95</text></g></g><g><path stroke="#CCCCCC" stroke-dasharray="None" d="M605.0 0 v333.0 M484.0 0 v333.0 M363.0 0 v333.0 M242.0 0 v333.0 M121.0 0 v333.0 M0.0 0 v333.0" transform="translate(60.0, 47.0)"/><g font-size="12" font-family="Arial" transform="translate(60.0, 65.0)"><text x="605.0" y="333.0" transform="translate(-10.5, 0)">200</text><text x="484.0" y="333.0" transform="translate(-10.5, 0)">160</text><text x="363.0" y="333.0" transform="translate(-10.5, 0)">120</text><text x="242.0" y="333.0" transform="translate(-7.0, 0)">80</text><text x="121.0" y="333.0" transform="translate(-7.0, 0)">40</text><text x="0.0" y="333.0" transform="translate(-3.5, 0)">0</text></g></g><g opacity="0.8" transform="translate(-35.0, -20.0) rotate(180, 350.0, 200.0) scale(-1, 1) translate(-605.0, 0)"><g fill="#5fab9e"><circle cx="484.0" cy="192.78947368421052" r="4"/><circle cx="499.125" cy="210.3157894736842" r="4"/><circle cx="514.25" cy="227.8421052631579" r="4"/><circle cx="520.3" cy="238.3578947368421" r="4"/><circle cx="529.375" cy="252.37894736842105" r="4"/><circle cx="538.45" cy="262.89473684210526" r="4"/><circle cx="544.5" cy="273.41052631578947" r="4"/><circle cx="550.5500000000001" cy="280.42105263157896" r="4"/><circle cx="559.625" cy="297.94736842105266" r="4"/><circle cx="568.6999999999999" cy="308.46315789473687" r="4"/><circle cx="574.75" cy="322.4842105263158" r="4"/></g></g><g><rect transform="translate(-10.875, -1.75)" x="563.125" y="52.75" width="108.75" height="17.5" fill="#ffffff" stroke="#CCCCCC"/><g transform="translate(0, 12)"><rect y="40.75" x="563.125" width="12" height="12" fill="#5fab9e"/><text y="49.75" x="577.125" font-size="11" font-family="Arial">Observations</text></g></g></svg>