<svg xmlns="http://www.w3.org/2000/svg" width="500" height="500" viewBox="0 0 500 500"><path fill="white" d="M0 0 h500 v500 h-500 v-500Z"/><text transform="translate(-82.5, 19)" fill="#444444" font-family="Helvetica" font-weight="bold" font-size="16" x="250.0" y="25.0">Example Scatter Graph</text><g><path stroke="#CCCCCC" stroke-dasharray="None" d="M0 0.0 h372.0 M0 37.15 h372.0 M0 74.3 h372.0 M0 111.45 h372.0 M0 148.6 h372.0 M0 185.75 h372.0 M0 222.9 h372.0 M0 260.05 h372.0 M0 297.2 h372.0 M0 334.35 h372.0 M0 371.5 h372.0 M0 371.5 h372.0" transform="translate(78.0, 78.5)"/><g font-size="12" font-family="Helvetica" transform="translate(72.0, 78.5)"><text x="0" y="0.0" transform="translate(-14, 3.5)">25</text><text x="0" y="37.15" transform="translate(-14, 3.5)">20</text><text x="0" y="74.3" transform="translate(-14, 3.5)">15</text><text x="0" y="111.45" transform="translate(-14, 3.5)">10</text><text x="0" y="148.6" transform="translate(-7, 3.5)">5</text><text x="0" y="185.75" transform="translate(-7, 3.5)">0</text><text x="0" y="222.9" transform="translate(-11, 3.5)">-5</text><text x="0" y="260.05" transform="translate(-18, 3.5)">-10</text><text x="0" y="297.2" transform="translate(-18, 3.5)">-15</text><text x="0" y="334.35" transform="translate(-18, 3.5)">-20</text><text x="0" y="371.5" transform="translate(-18, 3.5)">-25</text></g></g><g><path stroke="#CCCCCC" stroke-dasharray="None" d="M372.0 0 v371.5 M330.66666666666663 0 v371.5 M289.3333333333333 0 v371.5 M248.0 0 v371.5 M206.66666666666669 0 v371.5 M165.33333333333331 0 v371.5 M124.0 0 v371.5 M82.66666666666666 0 v371.5 M41.33333333333333 0 v371.5 M0.0 0 v371.5" transform="translate(78.0, 78.5)"/><g font-size="12" font-family="Helvetica" transform="translate(78.0, 96.5)"><text x="372.0" y="371.5" transform="translate(-7.0, 0)">25</text><text x="330.66666666666663" y="371.5" transform="translate(-7.0, 0)">20</text><text x="289.3333333333333" y="371.5" transform="translate(-7.0, 0)">15</text><text x="248.0" y="371.5" transform="translate(-7.0, 0)">10</text><text x="206.66666666666669" y="371.5" transform="translate(-3.5, 0)">5</text><text x="165.33333333333331" y="371.5" transform="translate(-3.5, 0)">0</text><text x="124.0" y="371.5" transform="translate(-5.5, 0)">-5</text><text x="82.66666666666666" y="371.5" transform="translate(-9.0, 0)">-10</text><text x="41.33333333333333" y="371.5" transform="translate(-9.0, 0)">-15</text><text x="0.0" y="371.5" transform="translate(-9.0, 0)">-20</text></g></g><path transform="translate(78.0, 78.5)" d="M165.33333333333331 0 v371.5z M0 185.75 h372.0z" stroke="black"/><g opacity="0.8" transform="translate(-50.0, -50.0) rotate(180, 250.0, 250.0) scale(-1, 1) translate(-372.0, 0)"><g fill="#5fab9e"><circle cx="60.73079649835481" cy="131.07229342570645" r="4"/><circle cx="163.3102126407586" cy="183.1166937394414" r="4"/><circle cx="110.9951275000175" cy="26.905080335909492" r="4"/><circle cx="42.93072548223735" cy="131.9386607822046" r="4"/><circle cx="25.61452882262132" cy="156.08930099732265" r="4"/><circle cx="107.91554094266785" cy="133.9540788177896" r="4"/><circle cx="57.48062927725325" cy="54.9686236116992" r="4"/><circle cx="115.17371314311866" cy="89.21060807130756" r="4"/><circle cx="50.64034263646484" cy="184.64037701526988" r="4"/><circle cx="145.93357069839382" cy="104.06501130823513" r="4"/><circle cx="134.16939819633157" cy="179.35379460179527" r="4"/><circle cx="134.54180421665046" cy="105.8249386873618" r="4"/><circle cx="126.52282229689801" cy="106.9074942117072" r="4"/><circle cx="70.3183450784384" cy="185.284658917328" r="4"/><circle cx="93.60176090594094" cy="133.49039323199707" r="4"/><circle cx="163.39469694898852" cy="154.93273502974887" r="4"/><circle cx="163.91128804548472" cy="127.99839980366181" r="4"/><circle cx="134.01998559985665" cy="129.1840904208455" r="4"/><circle cx="135.37916382720192" cy="133.85014288897776" r="4"/><circle cx="159.9090079725246" cy="165.14551053432237" r="4"/><circle cx="130.22273207951324" cy="176.8973115345901" r="4"/><circle cx="150.42133701313014" cy="185.11732830093268" r="4"/><circle cx="150.79070946230271" cy="164.73526097407378" r="4"/><circle cx="152.80410521963393" cy="173.91922228969844" r="4"/><circle cx="164.1094001778501" cy="184.51918119351637" r="4"/><circle cx="165.33333333333331" cy="185.75" r="4"/><circle cx="167.68668774685221" cy="186.33453617444945" r="4"/><circle cx="177.7987593084819" cy="187.1826035765223" r="4"/><circle cx="181.5526856595841" cy="185.98048144636718" r="4"/><circle cx="178.9547047789969" cy="202.67542567661826" r="4"/><circle cx="206.0012432292921" cy="203.1433563158522" r="4"/><circle cx="205.51290001349398" cy="208.47708997322988" r="4"/><circle cx="196.18534860807316" cy="209.21245859872485" r="4"/><circle cx="168.41788188505723" cy="221.7837817848683" r="4"/><circle cx="230.33011097646244" cy="244.3778533479121" r="4"/><circle cx="193.8444270253506" cy="230.2328818779062" r="4"/><circle cx="166.40802017466305" cy="256.27887003685913" r="4"/><circle cx="244.4445033766273" cy="241.019175782728" r="4"/><circle cx="184.98031886416672" cy="217.62134484466668" r="4"/><circle cx="225.59154562467154" cy="284.19138273360056" r="4"/><circle cx="276.90191083796975" cy="265.2013565043941" r="4"/><circle cx="190.16869113034164" cy="256.9136349871326" r="4"/><circle cx="303.00780325923256" cy="298.1328644398889" r="4"/><circle cx="226.77364874152005" cy="306.2033076071762" r="4"/><circle cx="183.40052047265505" cy="186.4631263495897" r="4"/><circle cx="183.26270801236873" cy="274.5667402681005" r="4"/><circle cx="242.39739070302883" cy="276.6175012307363" r="4"/><circle cx="190.81977878206752" cy="259.773176672632" r="4"/><circle cx="351.98511897761597" cy="300.9147915949917" r="4"/><circle cx="276.16214705288013" cy="356.2807750961361" r="4"/></g><g fill="#f58b51"><circle cx="87.80704406873481" cy="16.145615107886872" r="4"/><circle cx="73.80150710981476" cy="86.83620666978076" r="4"/><circle cx="49.62612767446487" cy="155.12168357701074" r="4"/><circle cx="140.84338234595458" cy="31.77544782267264" r="4"/><circle cx="7.227987329074174" cy="170.49735762117882" r="4"/><circle cx="101.47138455327811" cy="49.46305038513837" r="4"/><circle cx="15.597919736128375" cy="113.83608966627243" r="4"/><circle cx="113.47613826997951" cy="77.26291377829759" r="4"/><circle cx="139.74655857898543" cy="129.21985604379373" r="4"/><circle cx="40.82448916495628" cy="167.12924673944724" r="4"/><circle cx="69.27499120569249" cy="164.34842703767777" r="4"/><circle cx="93.46901768234429" cy="140.07479804379847" r="4"/><circle cx="124.14926679746293" cy="162.4888417460854" r="4"/><circle cx="116.77775073522348" cy="148.11663840017124" r="4"/><circle cx="132.10598315685695" cy="137.0771769497205" r="4"/><circle cx="162.87813188864814" cy="173.44927185345648" r="4"/><circle cx="131.60405384530856" cy="152.61253714583293" r="4"/><circle cx="158.70143104311663" cy="130.15735402531038" r="4"/><circle cx="132.00269986364157" cy="175.71253251112384" r="4"/><circle cx="130.4756146138034" cy="150.51253406400883" r="4"/><circle cx="159.83404680581432" cy="175.81705709520716" r="4"/><circle cx="149.7841582942244" cy="164.8675050571301" r="4"/><circle cx="161.76343874214942" cy="180.33626299744233" r="4"/><circle cx="152.15921760225643" cy="174.68655234252117" r="4"/><circle cx="163.7773481705346" cy="184.49724026299742" r="4"/><circle cx="165.33333333333331" cy="185.75" r="4"/><circle cx="172.08675597521898" cy="189.56339875998717" r="4"/><circle cx="168.49878783495427" cy="190.7071677979582" r="4"/><circle cx="175.29681959063524" cy="199.40097532551061" r="4"/><circle cx="181.8668892324223" cy="214.4548777452933" r="4"/><circle cx="192.64869727686408" cy="220.44761634346645" r="4"/><circle cx="184.36280080754324" cy="191.7624165748132" r="4"/><circle cx="200.2072180041802" cy="218.80756368934183" r="4"/><circle cx="173.58184591251273" cy="191.07538987886545" r="4"/><circle cx="173.17269380466405" cy="202.84207775436724" r="4"/><circle cx="216.2430911821793" cy="203.77818860662398" r="4"/><circle cx="201.94865308189114" cy="243.75395660151733" r="4"/><circle cx="244.4847347062794" cy="207.8243788871396" r="4"/><circle cx="175.73780679495084" cy="193.7894329839304" r="4"/><circle cx="210.45888860600337" cy="277.8637262664668" r="4"/><circle cx="170.54261890744434" cy="278.11057088776334" r="4"/><circle cx="281.66063586857615" cy="240.55195361118646" r="4"/><circle cx="240.6791100704214" cy="275.45746395357105" r="4"/><circle cx="190.7646457824877" cy="282.61356523460614" r="4"/><circle cx="306.56410434846134" cy="247.09268077593708" r="4"/><circle cx="267.31633680368077" cy="237.55791281275805" r="4"/><circle cx="276.3840892146875" cy="253.88511941816802" r="4"/><circle cx="231.69569149803874" cy="318.500957359361" r="4"/><circle cx="268.38023050509685" cy="244.2972358061863" r="4"/><circle cx="167.2344247627925" cy="277.78728368525435" r="4"/></g></g></svg>