<svg xmlns="http://www.w3.org/2000/svg" width="500" height="500" viewBox="0 0 500 500"><path fill="white" d="M0 0 h500 v500 h-500 v-500Z"/><text transform="translate(-82.5, 4.75)" font-family="Helvetica" font-weight="bold" font-size="16" x="250.0" y="25.0">Example Scatter Graph</text><g><path d="M0 0.0 h400.0 M0 40.0 h400.0 M0 80.0 h400.0 M0 120.0 h400.0 M0 160.0 h400.0 M0 200.0 h400.0 M0 240.0 h400.0 M0 280.0 h400.0 M0 320.0 h400.0 M0 360.0 h400.0 M0 400.0 h400.0" stroke="#CCCCCC" transform="translate(50.0, 50.0)"/><g font-size="12" font-family="Helvetica" transform="translate(44.0, 50.0)"><text x="0" y="0.0" transform="translate(-14, 3.5)">25</text><text x="0" y="40.0" transform="translate(-14, 3.5)">20</text><text x="0" y="80.0" transform="translate(-14, 3.5)">15</text><text x="0" y="120.0" transform="translate(-14, 3.5)">10</text><text x="0" y="160.0" transform="translate(-7, 3.5)">5</text><text x="0" y="200.0" transform="translate(-7, 3.5)">0</text><text x="0" y="240.0" transform="translate(-11, 3.5)">-5</text><text x="0" y="280.0" transform="translate(-18, 3.5)">-10</text><text x="0" y="320.0" transform="translate(-18, 3.5)">-15</text><text x="0" y="360.0" transform="translate(-18, 3.5)">-20</text><text x="0" y="400.0" transform="translate(-18, 3.5)">-25</text></g></g><g><path d="M400.0 0 v400.0 M350.0 0 v400.0 M300.0 0 v400.0 M250.0 0 v400.0 M200.0 0 v400.0 M150.0 0 v400.0 M100.0 0 v400.0 M50.0 0 v400.0 M0.0 0 v400.0" stroke="#CCCCCC" transform="translate(50.0, 50.0)"/><g font-size="12" font-family="Helvetica" transform="translate(50.0, 68.0)"><text x="400.0" y="400.0" transform="translate(-7.0, 0)">20</text><text x="350.0" y="400.0" transform="translate(-7.0, 0)">15</text><text x="300.0" y="400.0" transform="translate(-7.0, 0)">10</text><text x="250.0" y="400.0" transform="translate(-3.5, 0)">5</text><text x="200.0" y="400.0" transform="translate(-3.5, 0)">0</text><text x="150.0" y="400.0" transform="translate(-5.5, 0)">-5</text><text x="100.0" y="400.0" transform="translate(-9.0, 0)">-10</text><text x="50.0" y="400.0" transform="translate(-9.0, 0)">-15</text><text x="0.0" y="400.0" transform="translate(-9.0, 0)">-20</text></g></g><path transform="translate(50.0, 50.0)" d="M0 200.0 h400.0z M200.0 0 v400.0z" stroke="black"/><g opacity="0.8" transform="translate(-50.0, -50.0) rotate(180, 250.0, 250.0) scale(-1, 1) translate(-400.0, 200.0)"><g fill="#5fab9e"><circle cx="169.513971522698" cy="-108.1340572739184" r="4"/><circle cx="122.76132437438714" cy="-116.48126360564164" r="4"/><circle cx="112.675061964652" cy="-98.71076043174378" r="4"/><circle cx="154.13083642043352" cy="-33.808206587705875" r="4"/><circle cx="160.81015403692632" cy="-144.05804435172806" r="4"/><circle cx="77.78705825575042" cy="-49.095109058518304" r="4"/><circle cx="80.66639378666981" cy="-50.44198153467529" r="4"/><circle cx="62.297628421997814" cy="-75.67442266636718" r="4"/><circle cx="115.2407269722327" cy="-17.42717617261954" r="4"/><circle cx="86.1752428122173" cy="-58.26286913233321" r="4"/><circle cx="92.5324379890204" cy="-39.171309878287175" r="4"/><circle cx="180.7401326682721" cy="-24.399390455579194" r="4"/><circle cx="117.95916741861305" cy="-46.294792229252025" r="4"/><circle cx="144.09992741897864" cy="-73.96703410140378" r="4"/><circle cx="170.80739369054467" cy="-41.40406096615844" r="4"/><circle cx="153.63019624444587" cy="-41.548268304046715" r="4"/><circle cx="139.21709253844676" cy="-67.98808385394707" r="4"/><circle cx="145.55312668297142" cy="-35.63300699936533" r="4"/><circle cx="179.06223077432918" cy="-11.39974678047852" r="4"/><circle cx="189.04671556517417" cy="-11.665945560970734" r="4"/><circle cx="194.113038476352" cy="-10.206575691417887" r="4"/><circle cx="181.68291500739147" cy="-18.944435191455984" r="4"/><circle cx="185.9954093803607" cy="-6.669980535291678" r="4"/><circle cx="199.60070341545807" cy="-1.9057688987500594" r="4"/><circle cx="195.57277505379085" cy="-6.632905700653219" r="4"/><circle cx="200.0" cy="0.0" r="4"/><circle cx="203.97375951581103" cy="0.5095251879875793" r="4"/><circle cx="209.56091699767353" cy="5.088484188094377" r="4"/><circle cx="210.77597996871765" cy="5.679071263889432" r="4"/><circle cx="230.70739171260138" cy="12.973349613477222" r="4"/><circle cx="245.65980913718164" cy="24.287907389259903" r="4"/><circle cx="240.13095907745873" cy="41.85873921936014" r="4"/><circle cx="261.1129167778123" cy="54.152773871391005" r="4"/><circle cx="273.1023009570532" cy="24.08562374181733" r="4"/><circle cx="284.3283293081146" cy="50.048351851927755" r="4"/><circle cx="250.21230041561296" cy="69.15964491251644" r="4"/><circle cx="255.19103658274935" cy="29.561033448600348" r="4"/><circle cx="269.6736553902614" cy="94.35143607112742" r="4"/><circle cx="273.07018294973886" cy="51.50317213851216" r="4"/><circle cx="298.6989448404859" cy="67.66130093959548" r="4"/><circle cx="258.5334157610388" cy="89.78569478288645" r="4"/><circle cx="262.377832785469" cy="96.42565497820623" r="4"/><circle cx="368.0816021065342" cy="95.0884941680049" r="4"/><circle cx="320.0244725952114" cy="14.582961079186402" r="4"/><circle cx="248.8115672232862" cy="75.84247730493117" r="4"/><circle cx="274.37382627557184" cy="8.019083786574388" r="4"/><circle cx="232.1660155815266" cy="83.8132167637838" r="4"/><circle cx="249.1136677344744" cy="135.98305593354186" r="4"/><circle cx="312.62918590813035" cy="32.826335359755696" r="4"/><circle cx="277.3285396443622" cy="142.03122389774214" r="4"/></g><g fill="#f58b51"><circle cx="91.12990292727238" cy="-29.026623065733137" r="4"/><circle cx="106.4287484445148" cy="-182.15466805612763" r="4"/><circle cx="32.54082405121389" cy="-47.63723448165899" r="4"/><circle cx="13.090638089242958" cy="-3.6716455521083735" r="4"/><circle cx="10.408180784329346" cy="-12.327351553987302" r="4"/><circle cx="121.78815959716532" cy="-137.11597393066822" r="4"/><circle cx="96.53019082396337" cy="-48.488118356590356" r="4"/><circle cx="168.46557908385813" cy="-38.90221277523887" r="4"/><circle cx="99.45059118974287" cy="-2.206926290620249" r="4"/><circle cx="79.7162260411572" cy="-28.629056113990615" r="4"/><circle cx="128.8699917899936" cy="-27.16502687343365" r="4"/><circle cx="62.943270718204616" cy="-107.47239986811658" r="4"/><circle cx="125.82063025131013" cy="-16.193351777719535" r="4"/><circle cx="150.75876136448522" cy="-27.777013747729228" r="4"/><circle cx="91.15940684689127" cy="-34.397703042613614" r="4"/><circle cx="179.74636244301672" cy="-38.49329683086936" r="4"/><circle cx="185.55777267045937" cy="-48.98285062854566" r="4"/><circle cx="185.95395621809013" cy="-34.939571747926365" r="4"/><circle cx="150.81154446950512" cy="-45.21256605344412" r="4"/><circle cx="155.26933324098096" cy="-46.686993183861574" r="4"/><circle cx="158.54051089148237" cy="-6.393666864810337" r="4"/><circle cx="171.94844859638584" cy="-18.989320573555453" r="4"/><circle cx="196.74114958458387" cy="-2.0420937281518814" r="4"/><circle cx="180.5517267215934" cy="-7.0166598806395895" r="4"/><circle cx="196.31392362963376" cy="-5.307568917681279" r="4"/><circle cx="200.0" cy="0.0" r="4"/><circle cx="207.5111473775507" cy="2.4453859377408973" r="4"/><circle cx="205.8179802233832" cy="8.086726134850778" r="4"/><circle cx="210.01579440759977" cy="13.941124902000308" r="4"/><circle cx="228.59309368536879" cy="27.236614924168233" r="4"/><circle cx="213.29888800629595" cy="23.521852145154753" r="4"/><circle cx="234.81885231771773" cy="29.60633456358076" r="4"/><circle cx="241.02056480190694" cy="10.205771833000412" r="4"/><circle cx="252.98268767983552" cy="4.8589314728023965" r="4"/><circle cx="239.37194423758243" cy="34.76652027938359" r="4"/><circle cx="257.38507921772003" cy="59.67159897333848" r="4"/><circle cx="284.27698085070426" cy="83.82997540876082" r="4"/><circle cx="212.87453447905304" cy="36.03934170938132" r="4"/><circle cx="295.2518474780784" cy="6.576446718924267" r="4"/><circle cx="334.95932521315297" cy="45.494745336452105" r="4"/><circle cx="224.60105404137485" cy="74.10676672923158" r="4"/><circle cx="329.5004255998955" cy="115.40189904279885" r="4"/><circle cx="208.32153547154854" cy="88.53550154378215" r="4"/><circle cx="319.16781630985895" cy="77.4691863216407" r="4"/><circle cx="260.4922047578459" cy="102.58138544738028" r="4"/><circle cx="207.2055801434228" cy="8.548180302134796" r="4"/><circle cx="228.63050830270765" cy="36.47681178834513" r="4"/><circle cx="206.32703203794478" cy="137.51883667375523" r="4"/><circle cx="298.3030653532796" cy="152.21432047796543" r="4"/><circle cx="200.19539784505557" cy="169.37304281277918" r="4"/></g></g></svg>