<svg xmlns="http://www.w3.org/2000/svg" width="500" height="500" viewBox="0 0 500 500"><path fill="white" d="M0 0 h500 v500 h-500 v-500Z"/><text transform="translate(-82.5, 19)" fill="#444444" font-family="Helvetica" font-weight="bold" font-size="16" x="250.0" y="30.0">Example Scatter Graph</text><g><path stroke="#CCCCCC" stroke-dasharray="None" d="M0 0.0 h352.0 M0 39.05555555555555 h352.0 M0 78.1111111111111 h352.0 M0 117.16666666666666 h352.0 M0 156.2222222222222 h352.0 M0 195.2777777777778 h352.0 M0 234.33333333333331 h352.0 M0 273.3888888888889 h352.0 M0 312.4444444444444 h352.0 M0 351.5 h352.0 M0 351.5 h352.0" transform="translate(88.0, 88.5)"/><g font-size="12" font-family="Helvetica" transform="translate(82.0, 88.5)"><text x="0" y="0.0" transform="translate(-14, 3.5)">20</text><text x="0" y="39.05555555555555" transform="translate(-14, 3.5)">15</text><text x="0" y="78.1111111111111" transform="translate(-14, 3.5)">10</text><text x="0" y="117.16666666666666" transform="translate(-7, 3.5)">5</text><text x="0" y="156.2222222222222" transform="translate(-7, 3.5)">0</text><text x="0" y="195.2777777777778" transform="translate(-11, 3.5)">-5</text><text x="0" y="234.33333333333331" transform="translate(-18, 3.5)">-10</text><text x="0" y="273.3888888888889" transform="translate(-18, 3.5)">-15</text><text x="0" y="312.4444444444444" transform="translate(-18, 3.5)">-20</text><text x="0" y="351.5" transform="translate(-18, 3.5)">-25</text></g></g><g><path stroke="#CCCCCC" stroke-dasharray="None" d="M352.0 0 v351.5 M316.8 0 v351.5 M281.6 0 v351.5 M246.39999999999998 0 v351.5 M211.2 0 v351.5 M176.0 0 v351.5 M140.8 0 v351.5 M105.6 0 v351.5 M70.4 0 v351.5 M35.2 0 v351.5 M0.0 0 v351.5" transform="translate(88.0, 88.5)"/><g font-size="12" font-family="Helvetica" transform="translate(88.0, 106.5)"><text x="352.0" y="351.5" transform="translate(-7.0, 0)">25</text><text x="316.8" y="351.5" transform="translate(-7.0, 0)">20</text><text x="281.6" y="351.5" transform="translate(-7.0, 0)">15</text><text x="246.39999999999998" y="351.5" transform="translate(-7.0, 0)">10</text><text x="211.2" y="351.5" transform="translate(-3.5, 0)">5</text><text x="176.0" y="351.5" transform="translate(-3.5, 0)">0</text><text x="140.8" y="351.5" transform="translate(-5.5, 0)">-5</text><text x="105.6" y="351.5" transform="translate(-9.0, 0)">-10</text><text x="70.4" y="351.5" transform="translate(-9.0, 0)">-15</text><text x="35.2" y="351.5" transform="translate(-9.0, 0)">-20</text><text x="0.0" y="351.5" transform="translate(-9.0, 0)">-25</text></g></g><path transform="translate(88.0, 88.5)" d="M176.0 0 v351.5z M0 156.2222222222222 h352.0z" stroke="black"/><g opacity="0.8" transform="translate(-60.0, -60.0) rotate(180, 250.0, 250.0) scale(-1, 1) translate(-352.0, 0)"><g fill="#5fab9e"><circle cx="26.447295532238385" cy="138.35784574359673" r="4"/><circle cx="74.53499806131803" cy="141.08419507368018" r="4"/><circle cx="24.696425178068075" cy="34.63770067644473" r="4"/><circle cx="102.24526704083354" cy="88.20367786174975" r="4"/><circle cx="53.25415200013941" cy="38.45112313659321" r="4"/><circle cx="35.67045703120361" cy="86.63207840629924" r="4"/><circle cx="126.5824223142767" cy="135.5524501387578" r="4"/><circle cx="86.06849833056644" cy="65.47472341811911" r="4"/><circle cx="151.92664802592498" cy="80.59853353197326" r="4"/><circle cx="99.39404057092318" cy="148.81370040675222" r="4"/><circle cx="146.46976188583398" cy="119.07599907892207" r="4"/><circle cx="163.3989267001471" cy="107.30531233530307" r="4"/><circle cx="136.34472636821144" cy="159.872002017148" r="4"/><circle cx="160.53127216675858" cy="179.2663124419189" r="4"/><circle cx="174.21596845176393" cy="136.59005870475778" r="4"/><circle cx="137.17253370772966" cy="185.93606775293335" r="4"/><circle cx="143.13784443984122" cy="154.0080876691121" r="4"/><circle cx="164.256361181148" cy="133.97304820705887" r="4"/><circle cx="130.44426085205757" cy="143.3540799089025" r="4"/><circle cx="165.11829408580218" cy="184.3638481998615" r="4"/><circle cx="157.11131328357013" cy="189.4828627399636" r="4"/><circle cx="163.36959638736238" cy="168.6400014427316" r="4"/><circle cx="173.6926739449549" cy="195.0313018036515" r="4"/><circle cx="172.9350398004861" cy="193.81238506347393" r="4"/><circle cx="173.7422879450702" cy="189.01235218767718" r="4"/><circle cx="176.0" cy="195.2777777777778" r="4"/><circle cx="177.08106239263788" cy="198.88847265012933" r="4"/><circle cx="179.00140716853477" cy="209.87747764575295" r="4"/><circle cx="192.9331526602216" cy="216.51253888617254" r="4"/><circle cx="195.4294454950597" cy="206.98874402949863" r="4"/><circle cx="205.41817272856161" cy="200.27982424629522" r="4"/><circle cx="177.9759638258141" cy="241.49696332561797" r="4"/><circle cx="215.99780387903712" cy="215.62314261203497" r="4"/><circle cx="214.10196471905417" cy="214.79621652578183" r="4"/><circle cx="201.8730474937563" cy="213.59566695263362" r="4"/><circle cx="201.23451691678406" cy="221.71942775929023" r="4"/><circle cx="212.52933937080763" cy="196.22301477321963" r="4"/><circle cx="240.61441317186316" cy="247.27669632682978" r="4"/><circle cx="213.65787344886098" cy="282.16140123467153" r="4"/><circle cx="199.28067388590978" cy="300.3952891179135" r="4"/><circle cx="207.33124198992184" cy="261.7624209745529" r="4"/><circle cx="225.35357770914976" cy="219.4345060043752" r="4"/><circle cx="211.95006375061143" cy="296.3067354326987" r="4"/><circle cx="274.8960300756273" cy="326.03274197646647" r="4"/><circle cx="304.521427031515" cy="294.5462989695865" r="4"/><circle cx="228.65764359149364" cy="195.33411372060408" r="4"/><circle cx="268.4781713187275" cy="283.9797959746417" r="4"/><circle cx="236.61326221488616" cy="338.3906227445808" r="4"/><circle cx="202.16637091379147" cy="331.2807134139362" r="4"/><circle cx="337.4093231045931" cy="272.15931299769267" r="4"/></g><g fill="#f58b51"><circle cx="73.36317850282506" cy="72.21399616109493" r="4"/><circle cx="148.5974703658917" cy="169.00255166034015" r="4"/><circle cx="154.83860133919282" cy="40.71298850155626" r="4"/><circle cx="137.63700596320314" cy="104.27246411385667" r="4"/><circle cx="91.89293655910612" cy="72.92965827533445" r="4"/><circle cx="159.077792871163" cy="153.674006747454" r="4"/><circle cx="108.36975728133345" cy="71.35522458324976" r="4"/><circle cx="133.22975668846976" cy="142.47395580694996" r="4"/><circle cx="106.11167333390414" cy="186.26683874055857" r="4"/><circle cx="86.82927524239182" cy="163.72387985390614" r="4"/><circle cx="153.82201493257426" cy="162.4000349610095" r="4"/><circle cx="147.1567036287986" cy="147.94581010253535" r="4"/><circle cx="161.65351538190595" cy="108.255075693011" r="4"/><circle cx="152.69105174405718" cy="172.70603056247637" r="4"/><circle cx="141.81448823473718" cy="179.98398965490512" r="4"/><circle cx="151.52669420072706" cy="137.66445557800736" r="4"/><circle cx="128.16407163216596" cy="170.34189792870032" r="4"/><circle cx="123.98621502148347" cy="146.93950730309612" r="4"/><circle cx="172.11659524740372" cy="153.03859329941395" r="4"/><circle cx="167.95154494983575" cy="176.5676632120261" r="4"/><circle cx="174.27918855287732" cy="186.1384041289997" r="4"/><circle cx="171.69375855010918" cy="167.3842729761124" r="4"/><circle cx="172.92640404145308" cy="176.60294560498653" r="4"/><circle cx="169.3356972693835" cy="184.0897314737168" r="4"/><circle cx="170.7329483080173" cy="190.3352093107256" r="4"/><circle cx="176.0" cy="195.2777777777778" r="4"/><circle cx="180.4176575210817" cy="195.3046979125088" r="4"/><circle cx="184.27220953688652" cy="200.77354825888898" r="4"/><circle cx="189.15240513528067" cy="216.99748241248747" r="4"/><circle cx="201.44568195717977" cy="216.65704697704456" r="4"/><circle cx="191.8294159804489" cy="207.76966299889733" r="4"/><circle cx="205.99898818314537" cy="214.19006432519666" r="4"/><circle cx="193.70109377311402" cy="231.50294341242812" r="4"/><circle cx="206.45810085892944" cy="238.96925524025556" r="4"/><circle cx="207.99597753296058" cy="244.04237169502574" r="4"/><circle cx="218.31647170094956" cy="262.11401488780996" r="4"/><circle cx="208.1746243301355" cy="255.65317346020652" r="4"/><circle cx="247.6457522737086" cy="285.436051090473" r="4"/><circle cx="216.1821034529401" cy="274.12338923516046" r="4"/><circle cx="237.91324633713464" cy="282.678406670299" r="4"/><circle cx="187.76579238204434" cy="254.34288521280993" r="4"/><circle cx="215.36836111313687" cy="210.8466265475046" r="4"/><circle cx="287.6554711564092" cy="255.46829939459607" r="4"/><circle cx="194.25703700761804" cy="327.8238953631116" r="4"/><circle cx="294.41014414742597" cy="312.5738823589834" r="4"/><circle cx="183.35600335011188" cy="213.77370581050374" r="4"/><circle cx="317.52846361648915" cy="217.20142854650675" r="4"/><circle cx="274.3678568025383" cy="250.7777014887753" r="4"/><circle cx="290.6914958205422" cy="217.69511375051388" r="4"/><circle cx="186.66112695242302" cy="272.87477875526395" r="4"/></g></g></svg>