<svg xmlns="http://www.w3.org/2000/svg" width="500" height="500" viewBox="0 0 500 500"><path fill="white" d="M0 0 h500 v500 h-500 v-500Z"/><text transform="translate(-82.5, 19)" fill="#444444" font-family="Helvetica" font-weight="bold" font-size="16" x="250.0" y="25.0">Example Scatter Graph</text><g><path stroke="#CCCCCC" stroke-dasharray="None" d="M0 0.0 h372.0 M0 92.875 h372.0 M0 185.75 h372.0 M0 278.625 h372.0 M0 371.5 h372.0 M0 464.375 h372.0 M0 371.5 h372.0" transform="translate(78.0, 78.5)"/><g font-size="12" font-family="Helvetica" transform="translate(72.0, 78.5)"><text x="0" y="0.0" transform="translate(-14, 3.5)">30</text><text x="0" y="92.875" transform="translate(-14, 3.5)">20</text><text x="0" y="185.75" transform="translate(-14, 3.5)">10</text><text x="0" y="278.625" transform="translate(-7, 3.5)">0</text><text x="0" y="371.5" transform="translate(-18, 3.5)">-10</text><text x="0" y="464.375" transform="translate(-18, 3.5)">-20</text></g></g><g><path stroke="#CCCCCC" stroke-dasharray="None" d="M372.0 0 v371.5 M372.0 0 v371.5 M297.6 0 v371.5 M223.2 0 v371.5 M148.8 0 v371.5 M74.4 0 v371.5 M0.0 0 v371.5" transform="translate(78.0, 78.5)"/><g font-size="12" font-family="Helvetica" transform="translate(78.0, 96.5)"><text x="372.0" y="371.5" transform="translate(-7.0, 0)">30</text><text x="372.0" y="371.5" transform="translate(-7.0, 0)">20</text><text x="297.6" y="371.5" transform="translate(-7.0, 0)">10</text><text x="223.2" y="371.5" transform="translate(-3.5, 0)">0</text><text x="148.8" y="371.5" transform="translate(-9.0, 0)">-10</text><text x="74.4" y="371.5" transform="translate(-9.0, 0)">-20</text></g></g><path transform="translate(78.0, 78.5)" d="M148.8 0 v371.5z M0 185.75 h372.0z" stroke="black"/><g opacity="0.8" transform="translate(-50.0, -50.0) rotate(180, 250.0, 250.0) scale(-1, 1) translate(-372.0, 0)"><g fill="#5fab9e"><circle cx="109.11367943075885" cy="87.15279826954583" r="4"/><circle cx="129.15313930709317" cy="177.3999304474217" r="4"/><circle cx="106.79711822592374" cy="170.21330228104546" r="4"/><circle cx="125.27689488877623" cy="110.33592045375934" r="4"/><circle cx="125.20478956204411" cy="14.235333828589628" r="4"/><circle cx="119.96290408892618" cy="113.06461612533559" r="4"/><circle cx="78.04842061420797" cy="54.55729202908965" r="4"/><circle cx="48.613638725679635" cy="133.20318261098762" r="4"/><circle cx="145.45289741205758" cy="86.9411201930458" r="4"/><circle cx="34.27740321378186" cy="61.37265993781657" r="4"/><circle cx="55.3678953149027" cy="143.69080934407242" r="4"/><circle cx="86.18293391308023" cy="118.87617885050533" r="4"/><circle cx="95.93747667127215" cy="84.11029863416778" r="4"/><circle cx="91.91934409179622" cy="155.11267916728806" r="4"/><circle cx="135.7222301494954" cy="115.88756554704463" r="4"/><circle cx="92.66170721061556" cy="126.67757887796863" r="4"/><circle cx="85.26478267244357" cy="160.72086718493003" r="4"/><circle cx="121.17022641692647" cy="136.04396034135715" r="4"/><circle cx="111.86297360306249" cy="131.80315031293148" r="4"/><circle cx="107.03605976978952" cy="164.64204847423932" r="4"/><circle cx="148.11895590099306" cy="168.7397644395643" r="4"/><circle cx="139.72176783956147" cy="167.0690388628133" r="4"/><circle cx="143.78603835395947" cy="162.7066268772534" r="4"/><circle cx="143.84132245980442" cy="171.36675534449833" r="4"/><circle cx="141.90889599930426" cy="178.28327441363433" r="4"/><circle cx="148.8" cy="185.75" r="4"/><circle cx="151.018759840388" cy="192.74355200081814" r="4"/><circle cx="149.98116610452556" cy="191.75006310072934" r="4"/><circle cx="166.21747932594207" cy="191.87241557317583" r="4"/><circle cx="170.4580760358949" cy="210.12800785603633" r="4"/><circle cx="170.70118082658166" cy="210.8606431390102" r="4"/><circle cx="192.34341294513294" cy="226.85172804864212" r="4"/><circle cx="178.1240736455133" cy="195.9752619305708" r="4"/><circle cx="165.6030575738723" cy="200.22182470922846" r="4"/><circle cx="210.3694166733173" cy="241.82489372420275" r="4"/><circle cx="200.36866525900305" cy="271.24450208556374" r="4"/><circle cx="216.46438886220002" cy="235.97881972988196" r="4"/><circle cx="197.09336938898778" cy="255.69478060608182" r="4"/><circle cx="165.8071008248525" cy="280.88326685597633" r="4"/><circle cx="191.10364760668392" cy="192.75833552766207" r="4"/><circle cx="180.97015182059124" cy="187.73095500830613" r="4"/><circle cx="207.57730595409936" cy="199.1891622185563" r="4"/><circle cx="185.81681568191794" cy="270.13202334662805" r="4"/><circle cx="238.58413871442573" cy="285.3576524789331" r="4"/><circle cx="198.54203732848694" cy="225.5767450064765" r="4"/><circle cx="281.31102813993584" cy="299.68037292312823" r="4"/><circle cx="299.32669771468477" cy="270.49692153784525" r="4"/><circle cx="150.5097977131532" cy="262.61818174412275" r="4"/><circle cx="150.54649108063967" cy="354.58001867138535" r="4"/><circle cx="286.6836500366694" cy="209.8960499102905" r="4"/></g><g fill="#f58b51"><circle cx="106.63642607117505" cy="161.76492345423193" r="4"/><circle cx="124.65271599234461" cy="153.029691322893" r="4"/><circle cx="26.73948893430503" cy="32.112298354361606" r="4"/><circle cx="-6.272307151056715" cy="17.371603861455963" r="4"/><circle cx="34.66423513722536" cy="48.49615353105726" r="4"/><circle cx="137.09054763526413" cy="35.234198427807165" r="4"/><circle cx="28.052598403712842" cy="37.063672390433595" r="4"/><circle cx="51.756366412967395" cy="182.0697946925994" r="4"/><circle cx="93.68726453122504" cy="90.69423733192197" r="4"/><circle cx="44.58959518612312" cy="150.07938357755035" r="4"/><circle cx="88.27205089501034" cy="115.87341183179313" r="4"/><circle cx="65.63915695266569" cy="68.97478594864837" r="4"/><circle cx="71.96760948684053" cy="138.6319800372774" r="4"/><circle cx="138.07653132156636" cy="146.81030481978377" r="4"/><circle cx="94.47037662889012" cy="128.728732630152" r="4"/><circle cx="105.53291223593403" cy="163.01615919031275" r="4"/><circle cx="116.35578060523501" cy="103.21670785889029" r="4"/><circle cx="121.6164219728004" cy="184.83243225254483" r="4"/><circle cx="115.95402416045899" cy="169.66040465352827" r="4"/><circle cx="118.14727970694784" cy="151.3361122968267" r="4"/><circle cx="122.7855328586685" cy="179.76173350409363" r="4"/><circle cx="146.96641676094546" cy="174.32892075604124" r="4"/><circle cx="132.76060720916365" cy="182.59137554810695" r="4"/><circle cx="137.1703596155171" cy="184.6238637818725" r="4"/><circle cx="143.25270715304845" cy="182.64494980249157" r="4"/><circle cx="148.8" cy="185.75" r="4"/><circle cx="154.36013054425842" cy="185.81587856891227" r="4"/><circle cx="161.5599693087771" cy="202.99146423812024" r="4"/><circle cx="167.0905131879848" cy="211.00635331913205" r="4"/><circle cx="173.53491143383087" cy="204.58407635090268" r="4"/><circle cx="151.38287838046887" cy="215.18690177796992" r="4"/><circle cx="163.06342473447796" cy="215.06384377294387" r="4"/><circle cx="166.25591788764012" cy="197.3833161601872" r="4"/><circle cx="197.83849505988948" cy="225.06685997040583" r="4"/><circle cx="182.13214661999785" cy="219.91535389728264" r="4"/><circle cx="197.84538545919688" cy="229.736947447844" r="4"/><circle cx="224.55623446932262" cy="270.1524469514529" r="4"/><circle cx="186.75905529081982" cy="259.47996840600115" r="4"/><circle cx="218.3271855991837" cy="265.3185013525105" r="4"/><circle cx="218.12935019081868" cy="192.07699146848302" r="4"/><circle cx="203.4057359674541" cy="283.90657656747607" r="4"/><circle cx="196.63852061928728" cy="325.3933161245856" r="4"/><circle cx="196.3897916889711" cy="245.7049915170143" r="4"/><circle cx="227.73868344935778" cy="227.70794883689774" r="4"/><circle cx="168.90929941974574" cy="282.6036404205645" r="4"/><circle cx="172.74654228870187" cy="247.97073838870415" r="4"/><circle cx="238.96367561575647" cy="344.23539584687114" r="4"/><circle cx="255.26923579515295" cy="249.75843935476192" r="4"/><circle cx="228.03223334764647" cy="248.03558019553805" r="4"/><circle cx="287.15424280891204" cy="330.6205421864721" r="4"/></g></g></svg>