<svg xmlns="http://www.w3.org/2000/svg" width="500" height="500" viewBox="0 0 500 500"><path fill="white" d="M0 0 h500 v500 h-500 v-500Z"/><text transform="translate(-82.5, 19)" fill="#444444" font-family="Helvetica" font-weight="bold" font-size="16" x="250.0" y="25.0">Example Scatter Graph</text><g><path stroke="#CCCCCC" stroke-dasharray="None" d="M0 0.0 h372.0 M0 41.27777777777778 h372.0 M0 82.55555555555556 h372.0 M0 123.83333333333333 h372.0 M0 165.11111111111111 h372.0 M0 206.38888888888889 h372.0 M0 247.66666666666666 h372.0 M0 288.94444444444446 h372.0 M0 330.22222222222223 h372.0 M0 371.5 h372.0 M0 371.5 h372.0" transform="translate(78.0, 78.5)"/><g font-size="12" font-family="Helvetica" transform="translate(72.0, 78.5)"><text x="0" y="0.0" transform="translate(-14, 3.5)">25</text><text x="0" y="41.27777777777778" transform="translate(-14, 3.5)">20</text><text x="0" y="82.55555555555556" transform="translate(-14, 3.5)">15</text><text x="0" y="123.83333333333333" transform="translate(-14, 3.5)">10</text><text x="0" y="165.11111111111111" transform="translate(-7, 3.5)">5</text><text x="0" y="206.38888888888889" transform="translate(-7, 3.5)">0</text><text x="0" y="247.66666666666666" transform="translate(-11, 3.5)">-5</text><text x="0" y="288.94444444444446" transform="translate(-18, 3.5)">-10</text><text x="0" y="330.22222222222223" transform="translate(-18, 3.5)">-15</text><text x="0" y="371.5" transform="translate(-18, 3.5)">-20</text></g></g><g><path stroke="#CCCCCC" stroke-dasharray="None" d="M372.0 0 v371.5 M372.0 0 v371.5 M297.6 0 v371.5 M223.2 0 v371.5 M148.8 0 v371.5 M74.4 0 v371.5 M0.0 0 v371.5" transform="translate(78.0, 78.5)"/><g font-size="12" font-family="Helvetica" transform="translate(78.0, 96.5)"><text x="372.0" y="371.5" transform="translate(-7.0, 0)">25</text><text x="372.0" y="371.5" transform="translate(-7.0, 0)">15</text><text x="297.6" y="371.5" transform="translate(-3.5, 0)">5</text><text x="223.2" y="371.5" transform="translate(-5.5, 0)">-5</text><text x="148.8" y="371.5" transform="translate(-9.0, 0)">-15</text><text x="74.4" y="371.5" transform="translate(-9.0, 0)">-25</text></g></g><path transform="translate(78.0, 78.5)" d="M186.0 0 v371.5z M0 206.38888888888889 h372.0z" stroke="black"/><g opacity="0.8" transform="translate(-50.0, -50.0) rotate(180, 250.0, 250.0) scale(-1, 1) translate(-372.0, 0)"><g fill="#5fab9e"><circle cx="181.72488718039088" cy="57.64383636401754" r="4"/><circle cx="128.45872211973938" cy="131.473175178447" r="4"/><circle cx="78.31615370720185" cy="113.91551820877064" r="4"/><circle cx="69.68694493907326" cy="72.81250146327157" r="4"/><circle cx="134.25090748453223" cy="101.45453888865968" r="4"/><circle cx="87.47460104534417" cy="94.57707821662346" r="4"/><circle cx="55.71662668106676" cy="40.18052982958252" r="4"/><circle cx="130.23378766632752" cy="103.09704398689917" r="4"/><circle cx="79.88710144157929" cy="161.9566840300535" r="4"/><circle cx="109.9729886003621" cy="89.3172193768529" r="4"/><circle cx="153.9779150028268" cy="77.71455480713286" r="4"/><circle cx="135.07469294450658" cy="130.06593499752734" r="4"/><circle cx="177.93864273682672" cy="103.18468934529314" r="4"/><circle cx="104.60193105143892" cy="75.80830375653008" r="4"/><circle cx="143.94877347783927" cy="78.9466309497045" r="4"/><circle cx="148.72514662051034" cy="121.99570129998969" r="4"/><circle cx="150.18703178970304" cy="137.95348320658331" r="4"/><circle cx="131.04070169510143" cy="158.99915251930702" r="4"/><circle cx="149.67623083634538" cy="143.39624634924152" r="4"/><circle cx="150.92345465535746" cy="115.66625553662837" r="4"/><circle cx="176.68928778193958" cy="138.58236322137103" r="4"/><circle cx="157.44268884495614" cy="145.6295017185753" r="4"/><circle cx="173.29420616238497" cy="158.07636358872372" r="4"/><circle cx="184.84570461614007" cy="160.84963064881467" r="4"/><circle cx="184.473181106727" cy="157.91550365306162" r="4"/><circle cx="186.0" cy="165.11111111111111" r="4"/><circle cx="191.26524836288093" cy="169.38455489396682" r="4"/><circle cx="189.95819177081205" cy="170.23371714088046" r="4"/><circle cx="196.07320271435083" cy="174.0758930496017" r="4"/><circle cx="195.3837757241612" cy="165.70100074350236" r="4"/><circle cx="187.64970769476878" cy="171.9516760386099" r="4"/><circle cx="197.71098825087012" cy="207.3733086828271" r="4"/><circle cx="207.63202984921548" cy="177.18676514004784" r="4"/><circle cx="233.80271932311314" cy="175.9804262081819" r="4"/><circle cx="216.89189099803932" cy="225.92821746495557" r="4"/><circle cx="240.59417021822904" cy="169.1450154833122" r="4"/><circle cx="267.2642759279349" cy="194.82353393120252" r="4"/><circle cx="221.62178881105055" cy="181.7785633810935" r="4"/><circle cx="226.55483968311046" cy="267.5249869187028" r="4"/><circle cx="258.43449815483837" cy="201.86780561169854" r="4"/><circle cx="222.73105764326507" cy="267.33182917806613" r="4"/><circle cx="295.84497392030323" cy="264.4637616070671" r="4"/><circle cx="281.322840774508" cy="224.6710096409309" r="4"/><circle cx="263.22133299783957" cy="229.0411442413613" r="4"/><circle cx="302.096937171378" cy="251.80319476977547" r="4"/><circle cx="303.16466161075425" cy="239.87892418891613" r="4"/><circle cx="199.51392935774263" cy="284.72570236620265" r="4"/><circle cx="218.3156439175442" cy="242.34950603011353" r="4"/><circle cx="320.4555514963923" cy="241.173292943374" r="4"/><circle cx="190.58800281609135" cy="298.58126169473917" r="4"/></g><g fill="#f58b51"><circle cx="72.47897492543281" cy="92.49656250669335" r="4"/><circle cx="182.27264276788696" cy="158.98239410808353" r="4"/><circle cx="32.65075386405861" cy="15.242332134084517" r="4"/><circle cx="159.22246105460277" cy="27.31372930757197" r="4"/><circle cx="83.89103604480258" cy="96.99160681917874" r="4"/><circle cx="93.33962303511807" cy="3.1300541493662823" r="4"/><circle cx="120.7984260591078" cy="151.54449742321864" r="4"/><circle cx="81.43583331626006" cy="111.56014705579197" r="4"/><circle cx="181.93864353930508" cy="147.53364557503082" r="4"/><circle cx="136.78319421326026" cy="117.59342467148039" r="4"/><circle cx="105.28443388019345" cy="58.66391334679467" r="4"/><circle cx="144.89246797055657" cy="100.6347937965327" r="4"/><circle cx="170.2947123570134" cy="141.3922961474462" r="4"/><circle cx="106.67548052914881" cy="91.12080808534695" r="4"/><circle cx="117.86880430981661" cy="82.12537085471735" r="4"/><circle cx="119.88756624311472" cy="155.0404802158014" r="4"/><circle cx="180.83414470629023" cy="161.46585490009593" r="4"/><circle cx="167.46131754767663" cy="117.73332987297324" r="4"/><circle cx="155.0486929474554" cy="113.94129142879875" r="4"/><circle cx="184.336856350609" cy="143.83605061461836" r="4"/><circle cx="174.59226022326945" cy="161.708388329097" r="4"/><circle cx="181.424130252753" cy="147.14149063253973" r="4"/><circle cx="182.67143512222725" cy="149.59914748343937" r="4"/><circle cx="172.7864142494084" cy="153.78823772181866" r="4"/><circle cx="184.67605461842547" cy="160.08429770056014" r="4"/><circle cx="186.0" cy="165.11111111111111" r="4"/><circle cx="187.81632697086766" cy="172.97081299327215" r="4"/><circle cx="192.5807582064158" cy="172.60614954316716" r="4"/><circle cx="187.98973567192155" cy="175.5892004717511" r="4"/><circle cx="203.2679812547539" cy="188.9572004071068" r="4"/><circle cx="211.5191747821502" cy="202.85085865777637" r="4"/><circle cx="212.9087016761067" cy="171.4868778551986" r="4"/><circle cx="234.69797765435635" cy="176.24538670137153" r="4"/><circle cx="244.67127751312665" cy="212.8114574186074" r="4"/><circle cx="223.2642034200069" cy="169.8153557135738" r="4"/><circle cx="190.20449789101826" cy="191.77076446543606" r="4"/><circle cx="222.40281064096885" cy="196.19755253240174" r="4"/><circle cx="259.68847314268584" cy="229.23137985145388" r="4"/><circle cx="246.74898260694758" cy="269.11517473175786" r="4"/><circle cx="255.5603842295899" cy="190.92722992496527" r="4"/><circle cx="253.8563019257163" cy="201.33913846669145" r="4"/><circle cx="198.77728252053606" cy="204.54612113268414" r="4"/><circle cx="279.0882148830529" cy="239.5471800278035" r="4"/><circle cx="228.41020313350487" cy="208.17669305899145" r="4"/><circle cx="213.99264678904356" cy="166.2813724820534" r="4"/><circle cx="206.31654913194367" cy="297.610976751677" r="4"/><circle cx="331.463571900532" cy="190.9269147437964" r="4"/><circle cx="324.92107374362195" cy="295.5575276181551" r="4"/><circle cx="197.26664387449122" cy="246.4159491191418" r="4"/><circle cx="348.0879134663909" cy="330.9891722707137" r="4"/></g></g></svg>