<svg xmlns="http://www.w3.org/2000/svg" width="500" height="500" viewBox="0 0 500 500"><path fill="white" d="M0 0 h500 v500 h-500 v-500Z"/><text transform="translate(-82.5, 19)" fill="#444444" font-family="Helvetica" font-weight="bold" font-size="16" x="250.0" y="30.0">Example Scatter Graph</text><g><path stroke="#CCCCCC" stroke-dasharray="None" d="M0 0.0 h352.0 M0 39.05555555555555 h352.0 M0 78.1111111111111 h352.0 M0 117.16666666666666 h352.0 M0 156.2222222222222 h352.0 M0 195.2777777777778 h352.0 M0 234.33333333333331 h352.0 M0 273.3888888888889 h352.0 M0 312.4444444444444 h352.0 M0 351.5 h352.0 M0 351.5 h352.0" transform="translate(88.0, 88.5)"/><g font-size="12" font-family="Helvetica" transform="translate(82.0, 88.5)"><text x="0" y="0.0" transform="translate(-14, 3.5)">20</text><text x="0" y="39.05555555555555" transform="translate(-14, 3.5)">15</text><text x="0" y="78.1111111111111" transform="translate(-14, 3.5)">10</text><text x="0" y="117.16666666666666" transform="translate(-7, 3.5)">5</text><text x="0" y="156.2222222222222" transform="translate(-7, 3.5)">0</text><text x="0" y="195.2777777777778" transform="translate(-11, 3.5)">-5</text><text x="0" y="234.33333333333331" transform="translate(-18, 3.5)">-10</text><text x="0" y="273.3888888888889" transform="translate(-18, 3.5)">-15</text><text x="0" y="312.4444444444444" transform="translate(-18, 3.5)">-20</text><text x="0" y="351.5" transform="translate(-18, 3.5)">-25</text></g></g><g><path stroke="#CCCCCC" stroke-dasharray="None" d="M352.0 0 v351.5 M312.88888888888886 0 v351.5 M273.77777777777777 0 v351.5 M234.66666666666666 0 v351.5 M195.55555555555557 0 v351.5 M156.44444444444443 0 v351.5 M117.33333333333333 0 v351.5 M78.22222222222221 0 v351.5 M39.11111111111111 0 v351.5 M0.0 0 v351.5" transform="translate(88.0, 88.5)"/><g font-size="12" font-family="Helvetica" transform="translate(88.0, 106.5)"><text x="352.0" y="351.5" transform="translate(-7.0, 0)">20</text><text x="312.88888888888886" y="351.5" transform="translate(-7.0, 0)">15</text><text x="273.77777777777777" y="351.5" transform="translate(-7.0, 0)">10</text><text x="234.66666666666666" y="351.5" transform="translate(-3.5, 0)">5</text><text x="195.55555555555557" y="351.5" transform="translate(-3.5, 0)">0</text><text x="156.44444444444443" y="351.5" transform="translate(-5.5, 0)">-5</text><text x="117.33333333333333" y="351.5" transform="translate(-9.0, 0)">-10</text><text x="78.22222222222221" y="351.5" transform="translate(-9.0, 0)">-15</text><text x="39.11111111111111" y="351.5" transform="translate(-9.0, 0)">-20</text><text x="0.0" y="351.5" transform="translate(-9.0, 0)">-25</text></g></g><path transform="translate(88.0, 88.5)" d="M195.55555555555557 0 v351.5z M0 156.2222222222222 h352.0z" stroke="black"/><g opacity="0.8" transform="translate(-60.0, -60.0) rotate(180, 250.0, 250.0) scale(-1, 1) translate(-352.0, 0)"><g fill="#5fab9e"><circle cx="130.55201116075395" cy="4.580720224268186" r="4"/><circle cx="68.22719314528844" cy="170.5510253108547" r="4"/><circle cx="107.38110218747909" cy="187.63750070352577" r="4"/><circle cx="118.96389424570584" cy="135.361617385628" r="4"/><circle cx="155.83483176609403" cy="65.14193348141465" r="4"/><circle cx="185.64533413327476" cy="78.0661480588549" r="4"/><circle cx="60.741792064441775" cy="120.53548779917143" r="4"/><circle cx="168.9754967191624" cy="108.35034552508378" r="4"/><circle cx="138.68961923144138" cy="137.93940728059536" r="4"/><circle cx="171.7922551614157" cy="165.2872422042969" r="4"/><circle cx="176.54750058878244" cy="164.88937367238006" r="4"/><circle cx="187.7887448615214" cy="171.90091048804348" r="4"/><circle cx="119.17085008350206" cy="161.36867609541642" r="4"/><circle cx="111.84667900825026" cy="122.80119102819003" r="4"/><circle cx="180.10138866520285" cy="148.92928122392237" r="4"/><circle cx="127.73553789673724" cy="182.37953289449067" r="4"/><circle cx="182.75978378553162" cy="145.54338533936655" r="4"/><circle cx="192.5890268874771" cy="139.84289950145646" r="4"/><circle cx="184.04220512443422" cy="184.5477982080514" r="4"/><circle cx="185.96020220316595" cy="154.68513542591867" r="4"/><circle cx="170.88387643949113" cy="168.96674397498103" r="4"/><circle cx="179.34240090006628" cy="170.48882394500612" r="4"/><circle cx="189.76601020965225" cy="172.42401819247877" r="4"/><circle cx="183.5546287595997" cy="183.31499869204774" r="4"/><circle cx="189.3880160718849" cy="194.32210177997587" r="4"/><circle cx="195.55555555555557" cy="195.2777777777778" r="4"/><circle cx="197.86695856523986" cy="200.4508285281377" r="4"/><circle cx="202.2775588470629" cy="204.75907838419047" r="4"/><circle cx="201.98446066493526" cy="201.9400411906036" r="4"/><circle cx="195.9218160912252" cy="206.07975049258485" r="4"/><circle cx="198.56374744152475" cy="198.68159340280306" r="4"/><circle cx="238.72740909830551" cy="196.6832962276037" r="4"/><circle cx="222.05405498757324" cy="215.72303949584335" r="4"/><circle cx="227.34395564165294" cy="216.78612691436604" r="4"/><circle cx="232.12100743845463" cy="200.4869033023026" r="4"/><circle cx="236.5001369684627" cy="235.39770485840586" r="4"/><circle cx="274.4538561660906" cy="235.8945543580579" r="4"/><circle cx="264.90556964351424" cy="248.02345544827654" r="4"/><circle cx="241.38992243038962" cy="280.5063218880564" r="4"/><circle cx="212.80877044167025" cy="249.46172342183752" r="4"/><circle cx="237.33894724469988" cy="303.8453141163906" r="4"/><circle cx="256.1055708278882" cy="201.71824569778903" r="4"/><circle cx="317.969012355504" cy="301.6043986665597" r="4"/><circle cx="326.2422112734966" cy="279.94381876547527" r="4"/><circle cx="339.8604296756263" cy="214.7927699750876" r="4"/><circle cx="319.6257990324775" cy="280.00366545225603" r="4"/><circle cx="261.0488923071544" cy="321.3581297221646" r="4"/><circle cx="200.07767170231335" cy="279.6570564745552" r="4"/><circle cx="308.07280616484195" cy="200.98077777611132" r="4"/><circle cx="214.55252986373432" cy="300.0474530771384" r="4"/></g><g fill="#f58b51"><circle cx="5.921029397531351" cy="166.70892780819025" r="4"/><circle cx="112.05303719441004" cy="74.37584867558148" r="4"/><circle cx="107.14110341619661" cy="110.19581994208508" r="4"/><circle cx="191.45554381093373" cy="59.06310695074037" r="4"/><circle cx="106.28855102678799" cy="168.27563475023803" r="4"/><circle cx="130.8785695438128" cy="167.59157800793471" r="4"/><circle cx="52.86659394368394" cy="72.70102378302624" r="4"/><circle cx="109.77933651255978" cy="167.69863867815022" r="4"/><circle cx="114.74193986233873" cy="182.93336839630493" r="4"/><circle cx="188.73159178898047" cy="125.59141310771696" r="4"/><circle cx="163.82880510582976" cy="137.3991021082036" r="4"/><circle cx="100.95648267965157" cy="165.7919316949318" r="4"/><circle cx="184.67381835863534" cy="132.4070355615295" r="4"/><circle cx="147.56885683740657" cy="150.29333084113134" r="4"/><circle cx="142.09053988780127" cy="127.70363662795108" r="4"/><circle cx="161.81029181352858" cy="188.27629910123144" r="4"/><circle cx="142.1120780569162" cy="136.29755603346052" r="4"/><circle cx="153.55624445580767" cy="191.82666528619978" r="4"/><circle cx="188.74614127045376" cy="181.2987582676662" r="4"/><circle cx="169.85247296269273" cy="186.2519758436013" r="4"/><circle cx="193.50336657888957" cy="161.96315457162834" r="4"/><circle cx="167.36206980675058" cy="179.28858495146764" r="4"/><circle cx="194.2871935027061" cy="192.98834944030204" r="4"/><circle cx="187.38795287174057" cy="186.76775632556027" r="4"/><circle cx="189.68193058489192" cy="192.00794487906072" r="4"/><circle cx="195.55555555555557" cy="195.2777777777778" r="4"/><circle cx="197.1967552164649" cy="197.9608545860961" r="4"/><circle cx="199.64480166262877" cy="196.36723261538455" r="4"/><circle cx="218.763207629116" cy="196.2695013194341" r="4"/><circle cx="209.1529876764709" cy="207.2717741906666" r="4"/><circle cx="233.10354175099087" cy="231.3355667504191" r="4"/><circle cx="223.30987124348164" cy="231.76819246255948" r="4"/><circle cx="211.63693288093222" cy="245.02797227500358" r="4"/><circle cx="252.62566675752217" cy="232.77054392653582" r="4"/><circle cx="217.68799645868881" cy="213.71591954569783" r="4"/><circle cx="249.41317968764588" cy="256.46297260559174" r="4"/><circle cx="231.6077775915733" cy="277.1549883640417" r="4"/><circle cx="255.94918641812572" cy="256.9543115739472" r="4"/><circle cx="196.03796189598464" cy="271.98922209768654" r="4"/><circle cx="289.0290387874326" cy="231.45875023397682" r="4"/><circle cx="279.97797673904853" cy="308.9466337536977" r="4"/><circle cx="240.14639512582215" cy="225.92321487169454" r="4"/><circle cx="244.4869998336537" cy="307.9380404621729" r="4"/><circle cx="221.35545022110767" cy="243.57054444997513" r="4"/><circle cx="234.93372601012936" cy="245.4083499351643" r="4"/><circle cx="348.66561649305055" cy="328.1188209917738" r="4"/><circle cx="326.69168386315044" cy="236.24982822785086" r="4"/><circle cx="239.90089051957156" cy="324.0830588645999" r="4"/><circle cx="304.0228257712493" cy="242.8474238948786" r="4"/><circle cx="268.0127156672247" cy="349.22445920021806" r="4"/></g></g></svg>