<svg xmlns="http://www.w3.org/2000/svg" width="500" height="500" viewBox="0 0 500 500"><path fill="white" d="M0 0 h500 v500 h-500 v-500Z"/><text transform="translate(-82.5, 4.75)" font-family="Helvetica" font-weight="bold" font-size="16" x="250.0" y="12.5">Example Scatter Graph</text><g><path stroke="#CCCCCC" stroke-dasharray="None" d="M0 0.0 h426.0 M0 45.0 h426.0 M0 90.0 h426.0 M0 135.0 h426.0 M0 180.0 h426.0 M0 225.0 h426.0 M0 270.0 h426.0 M0 315.0 h426.0 M0 360.0 h426.0 M0 405.0 h426.0 M0 450.0 h426.0" transform="translate(49.0, 25.0)"/><g font-size="12" font-family="Helvetica" transform="translate(43.0, 25.0)"><text x="0" y="0.0" transform="translate(-14, 3.5)">25</text><text x="0" y="45.0" transform="translate(-14, 3.5)">20</text><text x="0" y="90.0" transform="translate(-14, 3.5)">15</text><text x="0" y="135.0" transform="translate(-14, 3.5)">10</text><text x="0" y="180.0" transform="translate(-7, 3.5)">5</text><text x="0" y="225.0" transform="translate(-7, 3.5)">0</text><text x="0" y="270.0" transform="translate(-11, 3.5)">-5</text><text x="0" y="315.0" transform="translate(-18, 3.5)">-10</text><text x="0" y="360.0" transform="translate(-18, 3.5)">-15</text><text x="0" y="405.0" transform="translate(-18, 3.5)">-20</text><text x="0" y="450.0" transform="translate(-18, 3.5)">-25</text></g></g><g><path stroke="#CCCCCC" stroke-dasharray="None" d="M426.0 0 v450.0 M383.40000000000003 0 v450.0 M340.8 0 v450.0 M298.2 0 v450.0 M255.6 0 v450.0 M213.0 0 v450.0 M170.4 0 v450.0 M127.8 0 v450.0 M85.2 0 v450.0 M42.6 0 v450.0 M0.0 0 v450.0" transform="translate(49.0, 25.0)"/><g font-size="12" font-family="Helvetica" transform="translate(49.0, 43.0)"><text x="426.0" y="450.0" transform="translate(-7.0, 0)">25</text><text x="383.40000000000003" y="450.0" transform="translate(-7.0, 0)">20</text><text x="340.8" y="450.0" transform="translate(-7.0, 0)">15</text><text x="298.2" y="450.0" transform="translate(-7.0, 0)">10</text><text x="255.6" y="450.0" transform="translate(-3.5, 0)">5</text><text x="213.0" y="450.0" transform="translate(-3.5, 0)">0</text><text x="170.4" y="450.0" transform="translate(-5.5, 0)">-5</text><text x="127.8" y="450.0" transform="translate(-9.0, 0)">-10</text><text x="85.2" y="450.0" transform="translate(-9.0, 0)">-15</text><text x="42.6" y="450.0" transform="translate(-9.0, 0)">-20</text><text x="0.0" y="450.0" transform="translate(-9.0, 0)">-25</text></g></g><path transform="translate(49.0, 25.0)" d="M213.0 0 v450.0z M0 225.0 h426.0z" stroke="black"/><g opacity="0.8" transform="translate(-25.0, -25.0) rotate(180, 250.0, 250.0) scale(-1, 1) translate(-426.0, 0)"><g fill="#5fab9e"><circle cx="126.6232949234347" cy="171.66522077659596" r="4"/><circle cx="190.1110063653088" cy="41.48271400018532" r="4"/><circle cx="210.4000391125317" cy="45.22321268142112" r="4"/><circle cx="117.6659075113351" cy="164.3097012297803" r="4"/><circle cx="34.97270435707419" cy="110.77071905328191" r="4"/><circle cx="54.16402853390013" cy="187.97047015664532" r="4"/><circle cx="58.599782956925466" cy="143.04466591786053" r="4"/><circle cx="151.77876226488897" cy="79.61977622985852" r="4"/><circle cx="171.96303696594202" cy="207.18737994428176" r="4"/><circle cx="203.7291926970062" cy="132.89810167412455" r="4"/><circle cx="203.0056929300971" cy="191.9616305381016" r="4"/><circle cx="189.57433098128507" cy="170.18759416917212" r="4"/><circle cx="207.61207849639516" cy="145.99997908991116" r="4"/><circle cx="122.37434183156248" cy="216.82006222428367" r="4"/><circle cx="194.40937411435422" cy="196.29214781244718" r="4"/><circle cx="182.53183682913266" cy="160.28108437090123" r="4"/><circle cx="171.42261118133774" cy="216.4874736602253" r="4"/><circle cx="212.01412727975253" cy="179.0669830937227" r="4"/><circle cx="190.09372493040377" cy="193.67550490982953" r="4"/><circle cx="173.92464522862133" cy="204.80519302944506" r="4"/><circle cx="198.06750457686968" cy="206.35979087282766" r="4"/><circle cx="179.1733750606072" cy="207.19848323097509" r="4"/><circle cx="198.01627472932648" cy="217.92012634645744" r="4"/><circle cx="201.02441887969093" cy="219.83699184636345" r="4"/><circle cx="210.76001236374947" cy="216.8121448402349" r="4"/><circle cx="213.0" cy="225.0" r="4"/><circle cx="217.98600537545528" cy="228.18183472463886" r="4"/><circle cx="214.01862498261895" cy="241.14497958936246" r="4"/><circle cx="235.90148224678538" cy="241.79866734702918" r="4"/><circle cx="241.28764788804918" cy="259.53202979065685" r="4"/><circle cx="217.08171864873856" cy="245.45320483446008" r="4"/><circle cx="230.97391635518971" cy="236.5884179347175" r="4"/><circle cx="215.61812460462147" cy="285.7727324309479" r="4"/><circle cx="232.08131930593132" cy="233.67225334849795" r="4"/><circle cx="215.29126977278892" cy="253.40819139907074" r="4"/><circle cx="221.0122605120357" cy="276.196143885701" r="4"/><circle cx="218.17803542588837" cy="283.5550361327297" r="4"/><circle cx="259.2368701731187" cy="301.8822987592817" r="4"/><circle cx="297.96003247283113" cy="264.2511220389454" r="4"/><circle cx="279.69151306464596" cy="230.45902536195322" r="4"/><circle cx="320.54754365225483" cy="292.78394666016277" r="4"/><circle cx="235.70170793400618" cy="241.92665973723416" r="4"/><circle cx="233.30694779554" cy="305.64055315584784" r="4"/><circle cx="240.99729837085923" cy="373.9116251660808" r="4"/><circle cx="255.06189579311572" cy="267.87754270593297" r="4"/><circle cx="329.4473659288268" cy="296.5857055703641" r="4"/><circle cx="255.60467804818074" cy="409.87497138637883" r="4"/><circle cx="241.05367539933906" cy="307.8999332907792" r="4"/><circle cx="326.53300128914054" cy="290.4666575050231" r="4"/><circle cx="296.4323275590418" cy="255.90677025319332" r="4"/></g><g fill="#f58b51"><circle cx="12.688676774223614" cy="12.756705329363797" r="4"/><circle cx="34.85094479839857" cy="26.284976035041215" r="4"/><circle cx="37.599521693157435" cy="129.55281210765426" r="4"/><circle cx="120.66539492663209" cy="185.1014591298232" r="4"/><circle cx="100.89230164178932" cy="64.41284281136745" r="4"/><circle cx="50.10201892613796" cy="69.47759624750937" r="4"/><circle cx="137.92848315376256" cy="114.00483426016868" r="4"/><circle cx="174.0151283830927" cy="127.60241901611874" r="4"/><circle cx="133.54468417021283" cy="127.56344747067193" r="4"/><circle cx="141.51225681805863" cy="207.6900794467258" r="4"/><circle cx="90.87677043408856" cy="166.2739516565882" r="4"/><circle cx="195.75953510999076" cy="219.51927666378518" r="4"/><circle cx="105.11867482909867" cy="115.35677527711945" r="4"/><circle cx="197.26219146581587" cy="154.67137812852857" r="4"/><circle cx="141.5260724470997" cy="221.18478476608777" r="4"/><circle cx="155.97633629218802" cy="183.6901133574429" r="4"/><circle cx="193.88086761108167" cy="192.60692214699262" r="4"/><circle cx="190.30360766340004" cy="207.45159828919464" r="4"/><circle cx="170.0526928871406" cy="181.44827961566074" r="4"/><circle cx="208.3828450640254" cy="220.59879328332582" r="4"/><circle cx="190.04111152541597" cy="192.28629232853638" r="4"/><circle cx="185.01740248548472" cy="191.46720759277858" r="4"/><circle cx="200.61425458228737" cy="218.48305649163822" r="4"/><circle cx="212.02584985098434" cy="217.91054455811897" r="4"/><circle cx="205.49924653614372" cy="222.02402987437344" r="4"/><circle cx="213.0" cy="225.0" r="4"/><circle cx="219.22628755043957" cy="225.63789636150176" r="4"/><circle cx="220.44576529467858" cy="239.02995860796844" r="4"/><circle cx="226.01128838454474" cy="238.60926020842362" r="4"/><circle cx="222.29564454354835" cy="227.7474240583002" r="4"/><circle cx="226.48903771794696" cy="235.13515995753548" r="4"/><circle cx="228.94217946817528" cy="272.49519392168173" r="4"/><circle cx="242.0282951002554" cy="248.47065466170048" r="4"/><circle cx="280.49260281540984" cy="281.2321246786194" r="4"/><circle cx="271.3567566039717" cy="304.3362170453887" r="4"/><circle cx="243.924297011624" cy="251.8719795296288" r="4"/><circle cx="271.33212439457793" cy="292.430362244376" r="4"/><circle cx="218.3033849062809" cy="248.61325135395293" r="4"/><circle cx="253.00621690755926" cy="231.58316143654744" r="4"/><circle cx="219.32259578233337" cy="274.09561624097194" r="4"/><circle cx="236.40589470221965" cy="307.67476563485474" r="4"/><circle cx="263.4702244330506" cy="256.9784869732455" r="4"/><circle cx="237.07327676637058" cy="292.96306079997737" r="4"/><circle cx="349.7892615961417" cy="301.86307952682006" r="4"/><circle cx="255.37107031552625" cy="245.62927605149366" r="4"/><circle cx="225.04982856092516" cy="310.81788707678135" r="4"/><circle cx="228.53598484947688" cy="387.7629279084057" r="4"/><circle cx="235.5718537424385" cy="302.5742635747629" r="4"/><circle cx="239.21262876294847" cy="350.18129558765486" r="4"/><circle cx="412.2418520361506" cy="397.2489360963581" r="4"/></g></g></svg>