<svg xmlns="http://www.w3.org/2000/svg" width="700" height="400" viewBox="0 0 700 400"><path fill="white" d="M0 0 h700 v400 h-700 v-400Z"/><text transform="translate(-74.0, 18)" fill="#444444" font-family="Arial" font-weight="bold" font-size="16" x="350.0" y="10.0">Correlation Analysis</text><g><path stroke="#CCCCCC" stroke-dasharray="None" d="M0 0.0 h630.0 M0 66.60000000000001 h630.0 M0 133.20000000000002 h630.0 M0 199.79999999999998 h630.0 M0 266.40000000000003 h630.0 M0 333.0 h630.0" transform="translate(35.0, 47.0)"/><g font-size="12" font-family="Arial" transform="translate(29.0, 47.0)"><text x="0" y="0.0" transform="translate(-14, 3.5)">70</text><text x="0" y="66.60000000000001" transform="translate(-14, 3.5)">56</text><text x="0" y="133.20000000000002" transform="translate(-14, 3.5)">42</text><text x="0" y="199.79999999999998" transform="translate(-14, 3.5)">28</text><text x="0" y="266.40000000000003" transform="translate(-14, 3.5)">14</text><text x="0" y="333.0" transform="translate(-7, 3.5)">0</text></g></g><g><path stroke="#CCCCCC" stroke-dasharray="None" d="M630.0 0 v333.0 M504.0 0 v333.0 M378.0 0 v333.0 M252.0 0 v333.0 M126.0 0 v333.0 M0.0 0 v333.0" transform="translate(35.0, 47.0)"/><g font-size="12" font-family="Arial" transform="translate(35.0, 65.0)"><text x="630.0" y="333.0" transform="translate(-7.0, 0)">55</text><text x="504.0" y="333.0" transform="translate(-7.0, 0)">44</text><text x="378.0" y="333.0" transform="translate(-7.0, 0)">33</text><text x="252.0" y="333.0" transform="translate(-7.0, 0)">22</text><text x="126.0" y="333.0" transform="translate(-7.0, 0)">11</text><text x="0.0" y="333.0" transform="translate(-3.5, 0)">0</text></g></g><g opacity="0.8" transform="translate(-35.0, -20.0) rotate(180, 350.0, 200.0) scale(-1, 1) translate(-630.0, 0)"><g fill="#5fab9e"><circle cx="0.0" cy="47.57142857142857" r="4"/><circle cx="114.54545454545455" cy="95.14285714285714" r="4"/><circle cx="229.0909090909091" cy="142.7142857142857" r="4"/><circle cx="343.6363636363636" cy="190.28571428571428" r="4"/><circle cx="458.1818181818182" cy="237.85714285714286" r="4"/><circle cx="572.7272727272727" cy="285.4285714285714" r="4"/></g><g fill="#f58b51"><circle cx="57.27272727272727" cy="71.35714285714285" r="4"/><circle cx="171.8181818181818" cy="118.92857142857143" r="4"/><circle cx="286.3636363636364" cy="166.5" r="4"/><circle cx="400.9090909090909" cy="237.85714285714286" r="4"/><circle cx="515.4545454545455" cy="285.4285714285714" r="4"/><circle cx="630.0" cy="333.0" r="4"/></g></g><g><rect transform="translate(-7.5, -3.5)" x="593.5" y="54.5" width="75.0" height="35.0" fill="#ffffff" stroke="#CCCCCC"/><g><rect y="56.5" x="593.5" width="12" height="12" fill="#5fab9e"/><text y="65.5" x="607.5" font-size="12" font-family="Arial">Group A</text></g><g><rect y="68.5" x="593.5" width="12" height="12" fill="#f58b51"/><text y="77.5" x="607.5" font-size="12" font-family="Arial">Group B</text></g></g></svg>