<svg xmlns="http://www.w3.org/2000/svg" width="600" height="500" viewBox="0 0 600 500"><path fill="#FFFFFF" d="M0 0 h600 v500 h-600 v-500Z"/><text transform="translate(-188.5, 30)" fill="#444444" font-family="JetBrains Mono" font-weight="normal" font-size="16" x="300.0" y="12.5">Employee Performance Quadrant</text><defs><clipPath id="plot-clip"><rect x="0" y="0" width="524.0" height="387.0"/></clipPath></defs><g><path stroke="#CCCCCC" stroke-dasharray="None" d="M0 0.0 h524.0 M0 77.4 h524.0 M0 154.8 h524.0 M0 232.2 h524.0 M0 309.6 h524.0 M0 387.0 h524.0" transform="translate(46.0, 70.0)"/><g font-size="12" font-family="Arial" fill="#444444" transform="translate(40.0, 70.0)"><text x="0" y="0.0" transform="translate(-14, 3.5)">85</text><text x="0" y="77.4" transform="translate(-14, 3.5)">68</text><text x="0" y="154.8" transform="translate(-14, 3.5)">51</text><text x="0" y="232.2" transform="translate(-14, 3.5)">34</text><text x="0" y="309.6" transform="translate(-14, 3.5)">17</text><text x="0" y="387.0" transform="translate(-7, 3.5)">0</text></g></g><g><path stroke="#CCCCCC" stroke-dasharray="None" d="M524.0 0 v387.0 M419.20000000000005 0 v387.0 M314.4 0 v387.0 M209.60000000000002 0 v387.0 M104.80000000000001 0 v387.0 M0.0 0 v387.0" transform="translate(46.0, 70.0)"/><g font-size="12" font-family="Arial" fill="#444444" transform="translate(46.0, 88.0)"><text x="524.0" y="387.0" transform="translate(-7.0, 0)">85</text><text x="419.20000000000005" y="387.0" transform="translate(-7.0, 0)">68</text><text x="314.4" y="387.0" transform="translate(-7.0, 0)">51</text><text x="209.60000000000002" y="387.0" transform="translate(-7.0, 0)">34</text><text x="104.80000000000001" y="387.0" transform="translate(-7.0, 0)">17</text><text x="0.0" y="387.0" transform="translate(-3.5, 0)">0</text></g></g><g><g opacity="0.8" transform="translate(-30.0, -43.0) rotate(180, 300.0, 250.0) scale(-1, 1) translate(-524.0, 0)" clip-path="url(#plot-clip)"><g fill="#5fab9e"><circle cx="393.30823529411765" cy="348.75529411764705" r="4"/><circle cx="392.0752941176471" cy="323.7141176470588" r="4"/><circle cx="395.1576470588235" cy="285.0141176470588" r="4"/><circle cx="435.2282352941176" cy="272.72117647058826" r="4"/><circle cx="394.54117647058825" cy="330.0882352941176" r="4"/><circle cx="326.7294117647059" cy="378.34941176470585" r="4"/><circle cx="417.35058823529414" cy="320.52705882352944" r="4"/><circle cx="387.76" cy="313.6976470588236" r="4"/><circle cx="390.22588235294114" cy="342.8364705882353" r="4"/><circle cx="406.2541176470589" cy="252.68823529411765" r="4"/><circle cx="412.4188235294118" cy="304.5917647058824" r="4"/><circle cx="458.0376470588235" cy="341.0152941176471" r="4"/></g><g fill="#f58b51"><circle cx="258.91764705882355" cy="325.99058823529407" r="4"/><circle cx="204.05176470588236" cy="240.39529411764704" r="4"/><circle cx="234.25882352941179" cy="334.6411764705883" r="4"/><circle cx="228.09411764705882" cy="250.41176470588238" r="4"/><circle cx="254.60235294117646" cy="291.8435294117647" r="4"/><circle cx="160.89882352941177" cy="282.73764705882354" r="4"/><circle cx="243.50588235294117" cy="300.94941176470587" r="4"/><circle cx="141.17176470588234" cy="333.2752941176471" r="4"/><circle cx="86.30588235294117" cy="325.08000000000004" r="4"/><circle cx="185.55764705882353" cy="311.8764705882353" r="4"/><circle cx="170.76235294117646" cy="325.5352941176471" r="4"/><circle cx="258.91764705882355" cy="317.7952941176471" r="4"/></g><g fill="#f7dd72"><circle cx="331.04470588235296" cy="211.2564705882353" r="4"/><circle cx="325.49647058823524" cy="155.71058823529413" r="4"/><circle cx="340.9082352941176" cy="107.44941176470589" r="4"/><circle cx="400.70588235294116" cy="139.77529411764704" r="4"/><circle cx="354.47058823529414" cy="193.95529411764707" r="4"/><circle cx="514.1364705882353" cy="106.99411764705883" r="4"/><circle cx="319.33176470588234" cy="160.71882352941176" r="4"/><circle cx="302.0705882352941" cy="168.45882352941177" r="4"/><circle cx="417.35058823529414" cy="147.97058823529412" r="4"/><circle cx="457.42117647058825" cy="185.76" r="4"/><circle cx="401.32235294117646" cy="180.29647058823528" r="4"/><circle cx="421.66588235294125" cy="244.03764705882355" r="4"/></g></g><g transform="translate(-30.0, -43.0) rotate(180, 300.0, 250.0) scale(-1, 1) translate(-524.0, 0)"><g><text x="8" y="367.0" fill="#CCCCCC" font-size="12" font-family="JetBrains Mono" text-anchor="start" opacity="0.8" transform="translate(8,367.0) scale(1,-1) translate(-8,-367.0)">Disengaged Experts</text><text x="516.0" y="367.0" fill="#CCCCCC" font-size="12" font-family="JetBrains Mono" text-anchor="end" opacity="0.8" transform="translate(516.0,367.0) scale(1,-1) translate(-516.0,-367.0)">Stars</text><text x="8" y="16.0" fill="#CCCCCC" font-size="12" font-family="JetBrains Mono" text-anchor="start" opacity="0.8" transform="translate(8,16.0) scale(1,-1) translate(-8,-16.0)">At Risk</text><text x="516.0" y="16.0" fill="#CCCCCC" font-size="12" font-family="JetBrains Mono" text-anchor="end" opacity="0.8" transform="translate(516.0,16.0) scale(1,-1) translate(-516.0,-16.0)">Rising Talent</text></g></g></g><g><rect transform="translate(-31.25, -10.5)" x="409.75" y="84.5" width="187.5" height="63.0" fill="#f5f5f5" stroke="#d7d7d7"/><g><rect y="87.5" x="409.75" width="12" height="12" fill="#5fab9e"/><text y="96.5" x="423.75" font-size="12" font-family="Arial" fill="#444444">High Performers</text></g><g><rect y="99.5" x="409.75" width="12" height="12" fill="#f58b51"/><text y="108.5" x="423.75" font-size="12" font-family="Arial" fill="#444444">Growth Potential</text></g><g><rect y="111.5" x="409.75" width="12" height="12" fill="#f7dd72"/><text y="120.5" x="423.75" font-size="12" font-family="Arial" fill="#444444">Steady Contributors</text></g></g><path d="M46.0 70.0 v387.0 M46.0 457.0 h524.0" stroke="#999" stroke-width="1.5" fill="none"/><g transform="translate(46.0, 70.0)"><path d="M0 159.35294117647058 h524.0" stroke="#666" stroke-width="1.5" stroke-dasharray="6 3" fill="none"/><path d="M308.2352941176471 0 v387.0" stroke="#666" stroke-width="1.5" stroke-dasharray="6 3" fill="none"/></g><text x="308.0" y="498" fill="#444444" font-size="14" font-family="JetBrains Mono" text-anchor="middle">Skills Score</text><text x="14" y="263.5" fill="#444444" font-size="14" font-family="JetBrains Mono" text-anchor="middle" transform="rotate(-90, 14, 263.5)">Engagement Score</text></svg>