<svg xmlns="http://www.w3.org/2000/svg" width="500" height="500" viewBox="0 0 500 500"><path fill="white" d="M0 0 h500 v500 h-500 v-500Z"/><text transform="translate(-82.5, 19)" fill="#444444" font-family="Helvetica" font-weight="bold" font-size="16" x="250.0" y="30.0">Example Scatter Graph</text><g><path stroke="#CCCCCC" stroke-dasharray="None" d="M0 0.0 h352.0 M0 39.05555555555555 h352.0 M0 78.1111111111111 h352.0 M0 117.16666666666666 h352.0 M0 156.2222222222222 h352.0 M0 195.2777777777778 h352.0 M0 234.33333333333331 h352.0 M0 273.3888888888889 h352.0 M0 312.4444444444444 h352.0 M0 351.5 h352.0 M0 351.5 h352.0" transform="translate(88.0, 88.5)"/><g font-size="12" font-family="Helvetica" transform="translate(82.0, 88.5)"><text x="0" y="0.0" transform="translate(-14, -7.0)">25</text><text x="0" y="39.05555555555555" transform="translate(-14, -7.0)">20</text><text x="0" y="78.1111111111111" transform="translate(-14, -7.0)">15</text><text x="0" y="117.16666666666666" transform="translate(-14, -7.0)">10</text><text x="0" y="156.2222222222222" transform="translate(-7, -7.0)">5</text><text x="0" y="195.2777777777778" transform="translate(-7, -7.0)">0</text><text x="0" y="234.33333333333331" transform="translate(-11, -7.0)">-5</text><text x="0" y="273.3888888888889" transform="translate(-18, -7.0)">-10</text><text x="0" y="312.4444444444444" transform="translate(-18, -7.0)">-15</text><text x="0" y="351.5" transform="translate(-18, -7.0)">-20</text></g></g><g><path stroke="#CCCCCC" stroke-dasharray="None" d="M352.0 0 v351.5 M312.88888888888886 0 v351.5 M273.77777777777777 0 v351.5 M234.66666666666666 0 v351.5 M195.55555555555557 0 v351.5 M156.44444444444443 0 v351.5 M117.33333333333333 0 v351.5 M78.22222222222221 0 v351.5 M39.11111111111111 0 v351.5 M0.0 0 v351.5" transform="translate(88.0, 88.5)"/><g font-size="12" font-family="Helvetica" transform="translate(88.0, 106.5)"><text x="352.0" y="351.5" transform="translate(-7.0, 0)">20</text><text x="312.88888888888886" y="351.5" transform="translate(-7.0, 0)">15</text><text x="273.77777777777777" y="351.5" transform="translate(-7.0, 0)">10</text><text x="234.66666666666666" y="351.5" transform="translate(-3.5, 0)">5</text><text x="195.55555555555557" y="351.5" transform="translate(-3.5, 0)">0</text><text x="156.44444444444443" y="351.5" transform="translate(-5.5, 0)">-5</text><text x="117.33333333333333" y="351.5" transform="translate(-9.0, 0)">-10</text><text x="78.22222222222221" y="351.5" transform="translate(-9.0, 0)">-15</text><text x="39.11111111111111" y="351.5" transform="translate(-9.0, 0)">-20</text><text x="0.0" y="351.5" transform="translate(-9.0, 0)">-25</text></g></g><path transform="translate(88.0, 88.5)" d="M195.55555555555557 0 v351.5z M0 195.2777777777778 h352.0z" stroke="black"/><g opacity="0.8" transform="translate(-60.0, -60.0) rotate(180, 250.0, 250.0) scale(-1, 1) translate(-352.0, 0)"><g fill="#5fab9e"><circle cx="89.78889351366442" cy="13.465121626879734" r="4"/><circle cx="124.26411626054704" cy="56.97178817108323" r="4"/><circle cx="54.79526102077635" cy="128.57692012917624" r="4"/><circle cx="25.08601311890649" cy="122.01549002489631" r="4"/><circle cx="43.31406965630629" cy="124.9987226823227" r="4"/><circle cx="101.44563528055808" cy="39.99010820701679" r="4"/><circle cx="86.4965055338345" cy="124.0386782698675" r="4"/><circle cx="113.7824317858329" cy="15.839810570237951" r="4"/><circle cx="144.09378318258445" cy="59.42123295097459" r="4"/><circle cx="121.98644720856291" cy="74.05556210979864" r="4"/><circle cx="138.52304246659656" cy="153.34430239957913" r="4"/><circle cx="121.88999065710013" cy="128.22468579005837" r="4"/><circle cx="180.51148498512734" cy="124.39581736189363" r="4"/><circle cx="108.44886549057756" cy="99.15945550871821" r="4"/><circle cx="119.88965335284247" cy="74.39597352545508" r="4"/><circle cx="155.82987704820175" cy="152.5658523276013" r="4"/><circle cx="191.8426031795798" cy="103.65851044525515" r="4"/><circle cx="149.28290609901669" cy="97.34373317928107" r="4"/><circle cx="192.62722264795173" cy="153.47629491629317" r="4"/><circle cx="184.34056973384213" cy="111.72263829043985" r="4"/><circle cx="168.9469612549198" cy="151.83303419862682" r="4"/><circle cx="167.66894326964064" cy="130.21002801187063" r="4"/><circle cx="192.47166984088534" cy="145.7191105093648" r="4"/><circle cx="187.30014238026473" cy="148.88878640056245" r="4"/><circle cx="191.34847610362226" cy="150.19425754409104" r="4"/><circle cx="195.55555555555557" cy="156.2222222222222" r="4"/><circle cx="199.49006150182308" cy="161.98402213407624" r="4"/><circle cx="202.82590739270978" cy="159.3600213119007" r="4"/><circle cx="204.5770837844549" cy="175.50251093850105" r="4"/><circle cx="212.81108910230088" cy="168.1815468065988" r="4"/><circle cx="214.10002999757705" cy="174.50600409503434" r="4"/><circle cx="211.72935344904147" cy="202.36056070418766" r="4"/><circle cx="214.97852721602464" cy="167.5172721285553" r="4"/><circle cx="203.12457206387322" cy="204.42947712837537" r="4"/><circle cx="207.253213159392" cy="173.34249000385125" r="4"/><circle cx="210.9142700114132" cy="179.50860215055047" r="4"/><circle cx="270.7950938483568" cy="189.06211247846323" r="4"/><circle cx="216.38654043525534" cy="195.1871877933013" r="4"/><circle cx="233.7933643355399" cy="240.6075676384236" r="4"/><circle cx="250.43130977452756" cy="254.10882860252178" r="4"/><circle cx="298.1077993299024" cy="203.97572073102336" r="4"/><circle cx="292.0619261409251" cy="178.7075561812969" r="4"/><circle cx="320.83128302495646" cy="279.20819234495366" r="4"/><circle cx="293.4938591127066" cy="288.69642703128955" r="4"/><circle cx="309.9072615814455" cy="201.29188066164065" r="4"/><circle cx="316.54834406062724" cy="173.5268183092162" r="4"/><circle cx="251.555347263821" cy="258.0835978512567" r="4"/><circle cx="246.17164831988111" cy="205.05079882970165" r="4"/><circle cx="283.1735225512905" cy="300.49999917092305" r="4"/><circle cx="288.6534009653993" cy="238.45679878072593" r="4"/></g><g fill="#f58b51"><circle cx="175.45658697029188" cy="3.8749312059933754" r="4"/><circle cx="56.703858668982605" cy="84.31554683516332" r="4"/><circle cx="194.19855949947663" cy="104.21833700050585" r="4"/><circle cx="39.36760881907062" cy="143.88558241842458" r="4"/><circle cx="175.98326548319721" cy="7.273834365105016" r="4"/><circle cx="110.19831109050311" cy="37.32867951747379" r="4"/><circle cx="189.4424680080806" cy="98.4603269888307" r="4"/><circle cx="108.32389497847262" cy="107.53059716068161" r="4"/><circle cx="68.09639824483195" cy="151.37911422625723" r="4"/><circle cx="166.28569199700544" cy="117.8138699290115" r="4"/><circle cx="185.9695539985859" cy="81.97688137468411" r="4"/><circle cx="102.22321892127735" cy="65.66134102427536" r="4"/><circle cx="183.99309469875612" cy="154.90690507448997" r="4"/><circle cx="161.96711183688842" cy="97.02137724369612" r="4"/><circle cx="111.24260219903955" cy="118.69709523779476" r="4"/><circle cx="135.35776164452292" cy="142.3401776223828" r="4"/><circle cx="150.46254750893058" cy="102.112509391139" r="4"/><circle cx="168.06532548048114" cy="140.21336467718817" r="4"/><circle cx="184.6762608528735" cy="150.11366969593493" r="4"/><circle cx="157.74605018077975" cy="147.75857387094757" r="4"/><circle cx="170.1016382699567" cy="143.00052765424178" r="4"/><circle cx="187.19424113468486" cy="150.70616993913166" r="4"/><circle cx="172.33766067525957" cy="146.84184382529813" r="4"/><circle cx="194.1116615187232" cy="143.8573311414492" r="4"/><circle cx="191.08408145483085" cy="148.92097394083513" r="4"/><circle cx="195.55555555555557" cy="156.2222222222222" r="4"/><circle cx="195.73272657898835" cy="162.1615621787533" r="4"/><circle cx="206.00135719266177" cy="160.39722416900406" r="4"/><circle cx="200.2275320546729" cy="168.03833162553138" r="4"/><circle cx="211.63423370374338" cy="162.34236863874352" r="4"/><circle cx="218.39747537847126" cy="177.89236110162176" r="4"/><circle cx="212.91645962643855" cy="171.84850038533446" r="4"/><circle cx="204.59764465068744" cy="205.30943784491683" r="4"/><circle cx="208.02405608577" cy="199.81472821298445" r="4"/><circle cx="246.62592530716506" cy="221.66217137883095" r="4"/><circle cx="253.87819016543418" cy="179.73257383051737" r="4"/><circle cx="202.7258006945153" cy="165.1190330054472" r="4"/><circle cx="198.17370500352033" cy="194.73404156666237" r="4"/><circle cx="256.94277827431824" cy="157.6535907819137" r="4"/><circle cx="237.5000905787693" cy="215.15343079230246" r="4"/><circle cx="279.8694695721183" cy="245.1800313045909" r="4"/><circle cx="215.3850321052306" cy="157.74859519840493" r="4"/><circle cx="314.32906342425997" cy="286.602180447937" r="4"/><circle cx="242.1937211925348" cy="285.2624754253646" r="4"/><circle cx="240.48248450578654" cy="179.99258754523223" r="4"/><circle cx="342.6202341596736" cy="188.81425103781305" r="4"/><circle cx="200.28415951575602" cy="256.57511659269375" r="4"/><circle cx="267.3371517162459" cy="220.83387071546304" r="4"/><circle cx="196.924915014296" cy="235.75514233559423" r="4"/><circle cx="326.94240019185804" cy="339.3343845226463" r="4"/></g></g></svg>