<svg xmlns="http://www.w3.org/2000/svg" width="500" height="500" viewBox="0 0 500 500"><path fill="white" d="M0 0 h500 v500 h-500 v-500Z"/><text transform="translate(-82.5, 4.75)" font-family="Helvetica" font-weight="bold" font-size="16" x="250.0" y="25.0">Example Scatter Graph</text><g><path d="M0 0.0 h400.0 M0 40.0 h400.0 M0 80.0 h400.0 M0 120.0 h400.0 M0 160.0 h400.0 M0 200.0 h400.0 M0 240.0 h400.0 M0 280.0 h400.0 M0 320.0 h400.0 M0 360.0 h400.0 M0 400.0 h400.0" stroke="#CCCCCC" transform="translate(50.0, 50.0)"/><g font-size="12" font-family="Helvetica" transform="translate(44.0, 50.0)"><text x="0" y="0.0" transform="translate(-14, 3.5)">25</text><text x="0" y="40.0" transform="translate(-14, 3.5)">20</text><text x="0" y="80.0" transform="translate(-14, 3.5)">15</text><text x="0" y="120.0" transform="translate(-14, 3.5)">10</text><text x="0" y="160.0" transform="translate(-7, 3.5)">5</text><text x="0" y="200.0" transform="translate(-7, 3.5)">0</text><text x="0" y="240.0" transform="translate(-11, 3.5)">-5</text><text x="0" y="280.0" transform="translate(-18, 3.5)">-10</text><text x="0" y="320.0" transform="translate(-18, 3.5)">-15</text><text x="0" y="360.0" transform="translate(-18, 3.5)">-20</text><text x="0" y="400.0" transform="translate(-18, 3.5)">-25</text></g></g><g><path d="M400.0 0 v400.0 M360.0 0 v400.0 M320.0 0 v400.0 M280.0 0 v400.0 M240.0 0 v400.0 M200.0 0 v400.0 M160.0 0 v400.0 M120.0 0 v400.0 M80.0 0 v400.0 M40.0 0 v400.0 M0.0 0 v400.0" stroke="#CCCCCC" transform="translate(50.0, 50.0)"/><g font-size="12" font-family="Helvetica" transform="translate(50.0, 68.0)"><text x="400.0" y="400.0" transform="translate(-7.0, 0)">25</text><text x="360.0" y="400.0" transform="translate(-7.0, 0)">20</text><text x="320.0" y="400.0" transform="translate(-7.0, 0)">15</text><text x="280.0" y="400.0" transform="translate(-7.0, 0)">10</text><text x="240.0" y="400.0" transform="translate(-3.5, 0)">5</text><text x="200.0" y="400.0" transform="translate(-3.5, 0)">0</text><text x="160.0" y="400.0" transform="translate(-5.5, 0)">-5</text><text x="120.0" y="400.0" transform="translate(-9.0, 0)">-10</text><text x="80.0" y="400.0" transform="translate(-9.0, 0)">-15</text><text x="40.0" y="400.0" transform="translate(-9.0, 0)">-20</text><text x="0.0" y="400.0" transform="translate(-9.0, 0)">-25</text></g></g><path transform="translate(50.0, 50.0)" d="M200.0 0 v400.0z M0 200.0 h400.0z" stroke="black"/><g opacity="0.8" transform="translate(-50.0, -50.0) rotate(180, 250.0, 250.0) scale(-1, 1) translate(-400.0, 0)"><g fill="#5fab9e"><circle cx="104.03344568713256" cy="125.0521462992686" r="4"/><circle cx="89.43821371822511" cy="193.86023985809803" r="4"/><circle cx="43.58069616076659" cy="111.69741384691612" r="4"/><circle cx="168.3392473620365" cy="119.81841089009109" r="4"/><circle cx="148.24206811839608" cy="159.2695819775693" r="4"/><circle cx="141.57131717951376" cy="105.7840918830621" r="4"/><circle cx="99.45005181091709" cy="98.16261567018094" r="4"/><circle cx="136.59239660609126" cy="179.0766290268662" r="4"/><circle cx="65.052346847119" cy="132.50808153052427" r="4"/><circle cx="176.44081890734174" cy="154.81170416979467" r="4"/><circle cx="172.38212789643705" cy="182.9973314034105" r="4"/><circle cx="136.39108241826062" cy="184.5737449905115" r="4"/><circle cx="113.02141730689482" cy="194.4580620907513" r="4"/><circle cx="159.3877626358228" cy="108.20308540663268" r="4"/><circle cx="167.68877183043233" cy="196.37083926822524" r="4"/><circle cx="165.96247231720423" cy="174.54734899997007" r="4"/><circle cx="194.6265019474051" cy="152.98991020349962" r="4"/><circle cx="150.25625013082097" cy="194.43381655580578" r="4"/><circle cx="149.09874474686148" cy="188.95431610939033" r="4"/><circle cx="160.11081213922404" cy="173.23007541325435" r="4"/><circle cx="175.27355434755472" cy="172.86815471479014" r="4"/><circle cx="190.01227753455942" cy="181.08799646370318" r="4"/><circle cx="188.51217245762552" cy="194.2879214590483" r="4"/><circle cx="198.4430412598091" cy="185.71529660869413" r="4"/><circle cx="195.23855908510168" cy="193.63315693277795" r="4"/><circle cx="200.0" cy="200.0" r="4"/><circle cx="203.92215673073872" cy="202.3807465081097" r="4"/><circle cx="215.60399257649593" cy="212.83845444518334" r="4"/><circle cx="223.7992802437312" cy="208.48191083966213" r="4"/><circle cx="226.02214554151243" cy="212.90683876346108" r="4"/><circle cx="223.87294422186704" cy="223.27529989276965" r="4"/><circle cx="227.0386334209002" cy="230.9036381215271" r="4"/><circle cx="231.1091539080503" cy="253.2842756937543" r="4"/><circle cx="208.09379990425353" cy="224.52259870460716" r="4"/><circle cx="227.23533636129068" cy="239.8425057238919" r="4"/><circle cx="207.8266126643699" cy="241.3520476317097" r="4"/><circle cx="277.2098771354489" cy="206.12026061183965" r="4"/><circle cx="200.69401313924584" cy="246.157520401688" r="4"/><circle cx="250.81276740976475" cy="283.38418816157747" r="4"/><circle cx="310.66381179791904" cy="250.57641193074193" r="4"/><circle cx="301.8856486585861" cy="232.2447305720018" r="4"/><circle cx="287.9003303554105" cy="219.07691367338623" r="4"/><circle cx="316.49855777251844" cy="320.61148372588343" r="4"/><circle cx="275.396821754881" cy="308.7902256069324" r="4"/><circle cx="213.11632230402768" cy="348.81594904375373" r="4"/><circle cx="275.1612936937485" cy="226.50457212346976" r="4"/><circle cx="227.59904617215255" cy="306.65162828320786" r="4"/><circle cx="261.462680113944" cy="225.16851201326324" r="4"/><circle cx="258.15537220438637" cy="216.1364481191655" r="4"/><circle cx="367.73928965600385" cy="225.84469405193852" r="4"/></g><g fill="#f58b51"><circle cx="183.5811135797932" cy="199.2488504933274" r="4"/><circle cx="22.50124724111447" cy="58.18141349944301" r="4"/><circle cx="37.93202775563077" cy="22.77961641957384" r="4"/><circle cx="106.58086976251356" cy="46.892173415612234" r="4"/><circle cx="122.76266537975246" cy="41.20016116577497" r="4"/><circle cx="72.23438923676437" cy="195.5593600071646" r="4"/><circle cx="162.14895670173908" cy="70.08288028655778" r="4"/><circle cx="188.47451586237338" cy="90.22331839776197" r="4"/><circle cx="108.10547992139112" cy="181.2381363911447" r="4"/><circle cx="179.7224587506425" cy="161.65195360725556" r="4"/><circle cx="148.1439362992337" cy="103.62505822552059" r="4"/><circle cx="177.54430665390743" cy="198.82158027796885" r="4"/><circle cx="106.86728436782683" cy="152.65390425441473" r="4"/><circle cx="145.0454155028567" cy="133.23595423832694" r="4"/><circle cx="155.2679257957804" cy="128.80212177165214" r="4"/><circle cx="188.73348769922688" cy="158.30526802700274" r="4"/><circle cx="163.02098975091516" cy="157.72976232357675" r="4"/><circle cx="176.29856833853938" cy="192.522332706261" r="4"/><circle cx="156.59024604880332" cy="193.07110522818581" r="4"/><circle cx="187.9350241738091" cy="164.6628675981253" r="4"/><circle cx="161.0528039867033" cy="188.2418928490644" r="4"/><circle cx="183.00845898798" cy="198.46871103743635" r="4"/><circle cx="185.26591222765094" cy="184.86431560471837" r="4"/><circle cx="188.0819470034297" cy="194.52110306244546" r="4"/><circle cx="192.78126491699027" cy="192.15472705733455" r="4"/><circle cx="200.0" cy="200.0" r="4"/><circle cx="201.80351912673595" cy="207.86865255623576" r="4"/><circle cx="206.84176353483542" cy="215.16506273881356" r="4"/><circle cx="209.71340103547118" cy="202.04728781058154" r="4"/><circle cx="229.5648964620802" cy="212.30663421918567" r="4"/><circle cx="200.60929429375332" cy="214.10785442687165" r="4"/><circle cx="217.00453232594901" cy="218.7258956250302" r="4"/><circle cx="225.85110542883595" cy="203.0662594159955" r="4"/><circle cx="231.31991946637083" cy="255.47886067909235" r="4"/><circle cx="210.3959919167684" cy="221.40921425807463" r="4"/><circle cx="220.19081416113346" cy="241.0756046862369" r="4"/><circle cx="220.42576279902835" cy="238.2881046101643" r="4"/><circle cx="251.71181624578196" cy="226.9190302444112" r="4"/><circle cx="295.31778257739893" cy="210.70203129163298" r="4"/><circle cx="307.43665586165" cy="265.9738767639744" r="4"/><circle cx="274.14236237154785" cy="261.33685374829975" r="4"/><circle cx="267.341563012709" cy="251.2479827056435" r="4"/><circle cx="317.81937037754165" cy="279.1571924585559" r="4"/><circle cx="233.72677510537852" cy="330.11822681284207" r="4"/><circle cx="282.06247567896554" cy="347.5884816622131" r="4"/><circle cx="325.48090759988395" cy="325.57717774132414" r="4"/><circle cx="340.87667432437445" cy="359.0923977341244" r="4"/><circle cx="224.8427624612448" cy="339.5548098015329" r="4"/><circle cx="278.51413113570356" cy="360.82999625194157" r="4"/><circle cx="372.83271853863306" cy="322.5370522562182" r="4"/></g></g></svg>