<svg xmlns="http://www.w3.org/2000/svg" width="500" height="500" viewBox="0 0 500 500"><path fill="white" d="M0 0 h500 v500 h-500 v-500Z"/><text transform="translate(-82.5, 19)" fill="#444444" font-family="Helvetica" font-weight="bold" font-size="16" x="250.0" y="25.0">Example Scatter Graph</text><g><path stroke="#CCCCCC" stroke-dasharray="None" d="M0 0.0 h372.0 M0 37.15 h372.0 M0 74.3 h372.0 M0 111.45 h372.0 M0 148.6 h372.0 M0 185.75 h372.0 M0 222.9 h372.0 M0 260.05 h372.0 M0 297.2 h372.0 M0 334.35 h372.0 M0 371.5 h372.0 M0 408.65000000000003 h372.0 M0 371.5 h372.0" transform="translate(78.0, 78.5)"/><g font-size="12" font-family="Helvetica" transform="translate(72.0, 78.5)"><text x="0" y="0.0" transform="translate(-14, 3.5)">30</text><text x="0" y="37.15" transform="translate(-14, 3.5)">25</text><text x="0" y="74.3" transform="translate(-14, 3.5)">20</text><text x="0" y="111.45" transform="translate(-14, 3.5)">15</text><text x="0" y="148.6" transform="translate(-14, 3.5)">10</text><text x="0" y="185.75" transform="translate(-7, 3.5)">5</text><text x="0" y="222.9" transform="translate(-7, 3.5)">0</text><text x="0" y="260.05" transform="translate(-11, 3.5)">-5</text><text x="0" y="297.2" transform="translate(-18, 3.5)">-10</text><text x="0" y="334.35" transform="translate(-18, 3.5)">-15</text><text x="0" y="371.5" transform="translate(-18, 3.5)">-20</text><text x="0" y="408.65000000000003" transform="translate(-18, 3.5)">-25</text></g></g><g><path stroke="#CCCCCC" stroke-dasharray="None" d="M465.0 0 v371.5 M372.0 0 v371.5 M279.0 0 v371.5 M186.0 0 v371.5 M93.0 0 v371.5 M0.0 0 v371.5" transform="translate(78.0, 78.5)"/><g font-size="12" font-family="Helvetica" transform="translate(78.0, 96.5)"><text x="465.0" y="371.5" transform="translate(-7.0, 0)">30</text><text x="372.0" y="371.5" transform="translate(-7.0, 0)">20</text><text x="279.0" y="371.5" transform="translate(-7.0, 0)">10</text><text x="186.0" y="371.5" transform="translate(-3.5, 0)">0</text><text x="93.0" y="371.5" transform="translate(-9.0, 0)">-10</text><text x="0.0" y="371.5" transform="translate(-9.0, 0)">-20</text></g></g><path transform="translate(78.0, 78.5)" d="M186.0 0 v371.5z M0 185.75 h372.0z" stroke="black"/><g opacity="0.8" transform="translate(-50.0, -50.0) rotate(180, 250.0, 250.0) scale(-1, 1) translate(-372.0, 0)"><g fill="#5fab9e"><circle cx="149.92868487480544" cy="157.23963409550254" r="4"/><circle cx="85.03767100188048" cy="73.36569663174815" r="4"/><circle cx="149.8102142571138" cy="75.28560895582224" r="4"/><circle cx="43.78679170581611" cy="162.5284257452873" r="4"/><circle cx="96.22397454171411" cy="180.0539390671508" r="4"/><circle cx="16.050476814728466" cy="128.39086881129577" r="4"/><circle cx="78.81239776303741" cy="95.35006369258416" r="4"/><circle cx="91.15384771228265" cy="68.93038887349843" r="4"/><circle cx="91.85007743444966" cy="99.84242730782694" r="4"/><circle cx="66.9435810984435" cy="167.28385340699407" r="4"/><circle cx="178.22461676467915" cy="120.00197448069133" r="4"/><circle cx="66.02772983372661" cy="109.43006788292277" r="4"/><circle cx="116.49782114671547" cy="175.49348319475862" r="4"/><circle cx="123.61158505175894" cy="113.8176985864718" r="4"/><circle cx="176.10058614056612" cy="133.62057670855518" r="4"/><circle cx="126.41124843619828" cy="150.9014153226523" r="4"/><circle cx="106.93458058896984" cy="128.38487030484822" r="4"/><circle cx="157.3407121175953" cy="177.64098781025112" r="4"/><circle cx="161.95855326955746" cy="185.41136926407714" r="4"/><circle cx="150.3647147549703" cy="177.59807837935887" r="4"/><circle cx="142.08720879692078" cy="184.3918844205084" r="4"/><circle cx="167.58957826598973" cy="178.30761808516482" r="4"/><circle cx="164.7498038998264" cy="168.97511032364667" r="4"/><circle cx="173.6362084036587" cy="175.9755112849016" r="4"/><circle cx="184.16912142365828" cy="180.71537073678806" r="4"/><circle cx="186.0" cy="185.75" r="4"/><circle cx="189.38117894070527" cy="187.66755143259311" r="4"/><circle cx="189.4964464451709" cy="194.98960183907414" r="4"/><circle cx="213.1681737445233" cy="201.968985945778" r="4"/><circle cx="211.16459832825484" cy="210.7974189869937" r="4"/><circle cx="227.3304838811566" cy="215.29626423052954" r="4"/><circle cx="228.11460194982263" cy="195.867142201776" r="4"/><circle cx="203.71114785074042" cy="210.74927599203897" r="4"/><circle cx="252.03220851631403" cy="241.45928173235663" r="4"/><circle cx="238.87459631926436" cy="221.35770707975047" r="4"/><circle cx="254.07206641523308" cy="254.17247280856418" r="4"/><circle cx="242.8348657404522" cy="252.81028183884655" r="4"/><circle cx="213.32031010587258" cy="255.1933265291874" r="4"/><circle cx="220.10715020802854" cy="242.01570955610524" r="4"/><circle cx="236.34733249478808" cy="201.55098339160696" r="4"/><circle cx="290.7870271995435" cy="261.7713690136509" r="4"/><circle cx="309.1326830824315" cy="243.11110869119923" r="4"/><circle cx="306.5974347688753" cy="280.31027516246473" r="4"/><circle cx="202.56628891249807" cy="206.11208556514177" r="4"/><circle cx="281.1252327651195" cy="261.1053915536591" r="4"/><circle cx="290.75634439223427" cy="329.91600016916846" r="4"/><circle cx="331.365224668433" cy="216.74367556242595" r="4"/><circle cx="243.9434516696282" cy="303.81912560172674" r="4"/><circle cx="246.2057674014015" cy="255.98238205827877" r="4"/><circle cx="262.44630531980135" cy="357.2151699589593" r="4"/></g><g fill="#f58b51"><circle cx="152.35167648526303" cy="41.8218868680419" r="4"/><circle cx="67.50145323204475" cy="179.53673227143994" r="4"/><circle cx="133.09028811489154" cy="72.95457889049806" r="4"/><circle cx="159.4324584859246" cy="164.80686780260825" r="4"/><circle cx="170.01744057829072" cy="30.68087188687094" r="4"/><circle cx="22.577040056902966" cy="71.91184956685765" r="4"/><circle cx="168.46127862063943" cy="67.30429921588552" r="4"/><circle cx="22.57539767974017" cy="181.929179306615" r="4"/><circle cx="51.03148315303704" cy="94.54964940075727" r="4"/><circle cx="139.8545682812724" cy="140.4239177885651" r="4"/><circle cx="93.6252297748831" cy="122.21915850844618" r="4"/><circle cx="97.8956580094991" cy="124.04896838666185" r="4"/><circle cx="171.80249871351606" cy="120.29165059287435" r="4"/><circle cx="98.4087456632896" cy="136.9113147996409" r="4"/><circle cx="100.56562594567298" cy="172.12946900868155" r="4"/><circle cx="96.18332786336941" cy="144.1322940953044" r="4"/><circle cx="140.29178679702986" cy="160.95714194598932" r="4"/><circle cx="141.07976125923614" cy="135.96673204108194" r="4"/><circle cx="124.86910021881343" cy="150.673504312347" r="4"/><circle cx="184.57633173870818" cy="177.0791176144009" r="4"/><circle cx="183.1316084608221" cy="158.94629610411053" r="4"/><circle cx="170.9072907366132" cy="164.15964993070156" r="4"/><circle cx="181.62670581057878" cy="180.67359617106845" r="4"/><circle cx="171.858412784624" cy="179.51266647655873" r="4"/><circle cx="184.13956781945788" cy="179.08617283620345" r="4"/><circle cx="186.0" cy="185.75" r="4"/><circle cx="193.51536442060006" cy="192.441536480316" r="4"/><circle cx="193.69040705597538" cy="194.7492058880415" r="4"/><circle cx="211.13199201949232" cy="199.89149915875797" r="4"/><circle cx="218.88458517259613" cy="189.18552572875734" r="4"/><circle cx="206.41049688912116" cy="192.4289685439375" r="4"/><circle cx="186.085168630526" cy="216.75136338534585" r="4"/><circle cx="242.70933401256718" cy="227.0761688634726" r="4"/><circle cx="244.88404003156774" cy="192.86626544099835" r="4"/><circle cx="186.2584888940798" cy="192.26567322669322" r="4"/><circle cx="242.87981428101608" cy="224.49407875871884" r="4"/><circle cx="281.1733632893299" cy="231.53389409258278" r="4"/><circle cx="197.26095159628528" cy="247.42977839747567" r="4"/><circle cx="279.0255812250293" cy="219.9177744766614" r="4"/><circle cx="293.0880668719242" cy="191.15685245674965" r="4"/><circle cx="311.61406094577114" cy="226.62229862009949" r="4"/><circle cx="308.02802325158575" cy="299.4571388157396" r="4"/><circle cx="298.25464741503123" cy="216.1432202471349" r="4"/><circle cx="254.50630933155676" cy="240.37299381093075" r="4"/><circle cx="260.22930120445795" cy="251.43519112444616" r="4"/><circle cx="220.33665791571303" cy="206.79789248450663" r="4"/><circle cx="336.1294164013987" cy="311.80780627837765" r="4"/><circle cx="334.3169044381376" cy="312.3747908854232" r="4"/><circle cx="340.4321307753143" cy="196.30683197214717" r="4"/><circle cx="317.8414788737532" cy="205.12860602779438" r="4"/></g></g></svg>