<svg xmlns="http://www.w3.org/2000/svg" width="500" height="500" viewBox="0 0 500 500"><path fill="white" d="M0 0 h500 v500 h-500 v-500Z"/><text transform="translate(-82.5, 19)" fill="#444444" font-family="Helvetica" font-weight="bold" font-size="16" x="250.0" y="30.0">Example Scatter Graph</text><g><path stroke="#CCCCCC" stroke-dasharray="None" d="M0 0.0 h352.0 M0 39.05555555555555 h352.0 M0 78.1111111111111 h352.0 M0 117.16666666666666 h352.0 M0 156.2222222222222 h352.0 M0 195.2777777777778 h352.0 M0 234.33333333333331 h352.0 M0 273.3888888888889 h352.0 M0 312.4444444444444 h352.0 M0 351.5 h352.0 M0 351.5 h352.0" transform="translate(88.0, 88.5)"/><g font-size="12" font-family="Helvetica" transform="translate(82.0, 88.5)"><text x="0" y="0.0" transform="translate(-14, -7.0)">25</text><text x="0" y="39.05555555555555" transform="translate(-14, -7.0)">20</text><text x="0" y="78.1111111111111" transform="translate(-14, -7.0)">15</text><text x="0" y="117.16666666666666" transform="translate(-14, -7.0)">10</text><text x="0" y="156.2222222222222" transform="translate(-7, -7.0)">5</text><text x="0" y="195.2777777777778" transform="translate(-7, -7.0)">0</text><text x="0" y="234.33333333333331" transform="translate(-11, -7.0)">-5</text><text x="0" y="273.3888888888889" transform="translate(-18, -7.0)">-10</text><text x="0" y="312.4444444444444" transform="translate(-18, -7.0)">-15</text><text x="0" y="351.5" transform="translate(-18, -7.0)">-20</text></g></g><g><path stroke="#CCCCCC" stroke-dasharray="None" d="M352.0 0 v351.5 M312.88888888888886 0 v351.5 M273.77777777777777 0 v351.5 M234.66666666666666 0 v351.5 M195.55555555555557 0 v351.5 M156.44444444444443 0 v351.5 M117.33333333333333 0 v351.5 M78.22222222222221 0 v351.5 M39.11111111111111 0 v351.5 M0.0 0 v351.5" transform="translate(88.0, 88.5)"/><g font-size="12" font-family="Helvetica" transform="translate(88.0, 106.5)"><text x="352.0" y="351.5" transform="translate(-7.0, 0)">25</text><text x="312.88888888888886" y="351.5" transform="translate(-7.0, 0)">20</text><text x="273.77777777777777" y="351.5" transform="translate(-7.0, 0)">15</text><text x="234.66666666666666" y="351.5" transform="translate(-7.0, 0)">10</text><text x="195.55555555555557" y="351.5" transform="translate(-3.5, 0)">5</text><text x="156.44444444444443" y="351.5" transform="translate(-3.5, 0)">0</text><text x="117.33333333333333" y="351.5" transform="translate(-5.5, 0)">-5</text><text x="78.22222222222221" y="351.5" transform="translate(-9.0, 0)">-10</text><text x="39.11111111111111" y="351.5" transform="translate(-9.0, 0)">-15</text><text x="0.0" y="351.5" transform="translate(-9.0, 0)">-20</text></g></g><path transform="translate(88.0, 88.5)" d="M156.44444444444443 0 v351.5z M0 195.2777777777778 h352.0z" stroke="black"/><g opacity="0.8" transform="translate(-60.0, -60.0) rotate(180, 250.0, 250.0) scale(-1, 1) translate(-352.0, 0)"><g fill="#5fab9e"><circle cx="139.44926407529348" cy="104.19762003582186" r="4"/><circle cx="139.34705414931773" cy="70.70665790055801" r="4"/><circle cx="14.1555979716744" cy="70.72287574884407" r="4"/><circle cx="155.89149516170778" cy="91.26177494504536" r="4"/><circle cx="21.771278747202732" cy="85.4605433315232" r="4"/><circle cx="50.198330026037006" cy="10.216138441711783" r="4"/><circle cx="9.71613637670323" cy="62.07107443631415" r="4"/><circle cx="99.86982414319009" cy="116.4106933230682" r="4"/><circle cx="74.00339839992319" cy="106.71606597876774" r="4"/><circle cx="128.36909223743092" cy="64.87152820976753" r="4"/><circle cx="73.62505808046087" cy="142.38780622824092" r="4"/><circle cx="114.41308457798209" cy="154.951674408106" r="4"/><circle cx="138.67346370753248" cy="139.29453263454553" r="4"/><circle cx="100.98376445591823" cy="116.85278790576254" r="4"/><circle cx="110.19160587082985" cy="144.27434497645174" r="4"/><circle cx="134.13380770802988" cy="123.87603990017303" r="4"/><circle cx="127.11223606236904" cy="113.98491682324548" r="4"/><circle cx="104.51636066652657" cy="141.45928316680397" r="4"/><circle cx="124.10354609920115" cy="149.25909465570783" r="4"/><circle cx="152.36981510741995" cy="147.5105755818261" r="4"/><circle cx="138.7525908915725" cy="145.01228487710176" r="4"/><circle cx="132.42146936260897" cy="150.48334627488285" r="4"/><circle cx="138.7284334178672" cy="147.29265916328453" r="4"/><circle cx="145.02557539966273" cy="146.373272271682" r="4"/><circle cx="151.94560298293902" cy="154.04113056987828" r="4"/><circle cx="156.44444444444443" cy="156.2222222222222" r="4"/><circle cx="160.9563474392057" cy="157.86127984114657" r="4"/><circle cx="169.38139767503148" cy="165.95953613733695" r="4"/><circle cx="164.83255180278752" cy="168.44228635518994" r="4"/><circle cx="171.32453552904278" cy="168.4370169216375" r="4"/><circle cx="182.13927297928765" cy="159.21859875322824" r="4"/><circle cx="176.85597239938082" cy="172.03219477839136" r="4"/><circle cx="209.64259500988734" cy="157.72020087651305" r="4"/><circle cx="171.5630072963893" cy="195.27610328507922" r="4"/><circle cx="205.18748262002367" cy="189.4820428871882" r="4"/><circle cx="194.13050172740782" cy="207.83550388663278" r="4"/><circle cx="205.44989437914683" cy="175.1501585124738" r="4"/><circle cx="211.69694845510867" cy="191.88088588693273" r="4"/><circle cx="219.8687109571696" cy="235.75723281418144" r="4"/><circle cx="213.12242010546117" cy="214.72669115927943" r="4"/><circle cx="188.34934871593236" cy="225.88490913156073" r="4"/><circle cx="222.50924107166" cy="189.5646323778739" r="4"/><circle cx="236.01965226629392" cy="160.17108500354476" r="4"/><circle cx="267.96993406635164" cy="280.26905091499793" r="4"/><circle cx="207.93955615237215" cy="197.3204432344984" r="4"/><circle cx="210.06926436663338" cy="204.16425869872828" r="4"/><circle cx="244.03780385601215" cy="192.06899902860812" r="4"/><circle cx="199.01452813168663" cy="284.09235678875183" r="4"/><circle cx="201.31670640544294" cy="236.35207022985276" r="4"/><circle cx="173.51239822006357" cy="320.2274080415496" r="4"/></g><g fill="#f58b51"><circle cx="62.11571373765896" cy="30.327642317789255" r="4"/><circle cx="54.632181900335574" cy="154.2259265333909" r="4"/><circle cx="18.833834221944276" cy="134.4367006961754" r="4"/><circle cx="58.390157450034906" cy="90.78506182281113" r="4"/><circle cx="38.95956022717343" cy="114.74818410499586" r="4"/><circle cx="28.630059310168825" cy="141.01811505547573" r="4"/><circle cx="90.66558101377113" cy="152.14185113340878" r="4"/><circle cx="98.78674208744194" cy="22.86893058259877" r="4"/><circle cx="49.570229026504975" cy="153.6594781629629" r="4"/><circle cx="49.169128668761005" cy="137.68120437520201" r="4"/><circle cx="134.52477100437306" cy="150.81870030973388" r="4"/><circle cx="152.61735152731927" cy="110.58992415930483" r="4"/><circle cx="139.6935697232893" cy="114.82760404837921" r="4"/><circle cx="110.6169543671662" cy="136.51852121634667" r="4"/><circle cx="131.6304785261948" cy="143.14296616703876" r="4"/><circle cx="80.66603959396268" cy="129.72676697681698" r="4"/><circle cx="104.87476610218836" cy="149.03208589810248" r="4"/><circle cx="130.06361254478713" cy="120.6853261888892" r="4"/><circle cx="127.84745696584568" cy="148.09462971034083" r="4"/><circle cx="149.76056346561208" cy="121.63209962655422" r="4"/><circle cx="142.57584609234408" cy="147.60125721071427" r="4"/><circle cx="145.7706545965558" cy="146.2559840034435" r="4"/><circle cx="143.10796890991915" cy="154.5557725630124" r="4"/><circle cx="144.9282962273805" cy="149.29255142963981" r="4"/><circle cx="154.8364261069898" cy="150.85114543989886" r="4"/><circle cx="156.44444444444443" cy="156.2222222222222" r="4"/><circle cx="163.45159845606648" cy="160.016023095532" r="4"/><circle cx="162.67183714240852" cy="156.75926398724098" r="4"/><circle cx="177.51610017911787" cy="162.2775311099564" r="4"/><circle cx="177.60853923588957" cy="173.15759179212597" r="4"/><circle cx="156.64878190575595" cy="166.4235020543797" r="4"/><circle cx="156.92793506541906" cy="196.26880237329905" r="4"/><circle cx="177.00102661654643" cy="187.1329342158165" r="4"/><circle cx="157.26084210861816" cy="191.0729436907995" r="4"/><circle cx="173.7552237487729" cy="226.35293261593904" r="4"/><circle cx="166.1181504461403" cy="214.97942898532986" r="4"/><circle cx="203.90444537599225" cy="229.51148681642366" r="4"/><circle cx="233.32042268672978" cy="164.9608589977437" r="4"/><circle cx="203.62651422471845" cy="199.7461570576304" r="4"/><circle cx="253.1394623965545" cy="168.52882754294143" r="4"/><circle cx="230.3281668383075" cy="250.61085121093464" r="4"/><circle cx="184.55762874669657" cy="190.24194621722071" r="4"/><circle cx="240.69741295618593" cy="275.60174415825156" r="4"/><circle cx="250.2049686218131" cy="197.80485550621864" r="4"/><circle cx="214.65699461425518" cy="235.34372154458245" r="4"/><circle cx="228.92405679955078" cy="202.93064713143758" r="4"/><circle cx="285.543945554259" cy="238.97900012133385" r="4"/><circle cx="285.3147680060365" cy="265.936499613921" r="4"/><circle cx="332.72970285009905" cy="270.60242221590084" r="4"/><circle cx="185.74888050283369" cy="165.49663842250467" r="4"/></g></g></svg>