<svg xmlns="http://www.w3.org/2000/svg" width="600" height="450" viewBox="0 0 600 450"><path fill="#FFFFFF" d="M0 0 h600 v450 h-600 v-450Z"/><text transform="translate(-243.0, 30)" fill="#444444" font-family="JetBrains Mono" font-weight="normal" font-size="16" x="300.0" y="11.25">Home Price vs Size — Mid-Market Cities</text><defs><clipPath id="plot-clip"><rect x="0" y="0" width="524.0" height="342.0"/></clipPath></defs><g><path stroke="#CCCCCC" stroke-dasharray="None" d="M0 0.0 h524.0 M0 68.4 h524.0 M0 136.8 h524.0 M0 205.2 h524.0 M0 273.6 h524.0 M0 342.0 h524.0" transform="translate(46.0, 67.5)"/><g font-size="12" font-family="Arial" fill="#444444" transform="translate(40.0, 67.5)"><text x="0" y="0.0" transform="translate(-21, 3.5)">500</text><text x="0" y="68.4" transform="translate(-21, 3.5)">400</text><text x="0" y="136.8" transform="translate(-21, 3.5)">300</text><text x="0" y="205.2" transform="translate(-21, 3.5)">200</text><text x="0" y="273.6" transform="translate(-21, 3.5)">100</text><text x="0" y="342.0" transform="translate(-7, 3.5)">0</text></g></g><g><path stroke="#CCCCCC" stroke-dasharray="None" d="M524.0 0 v342.0 M419.20000000000005 0 v342.0 M314.4 0 v342.0 M209.60000000000002 0 v342.0 M104.80000000000001 0 v342.0 M0.0 0 v342.0" transform="translate(46.0, 67.5)"/><g font-size="12" font-family="Arial" fill="#444444" transform="translate(46.0, 85.5)"><text x="524.0" y="342.0" transform="translate(-14.0, 0)">3500</text><text x="419.20000000000005" y="342.0" transform="translate(-14.0, 0)">2800</text><text x="314.4" y="342.0" transform="translate(-14.0, 0)">2100</text><text x="209.60000000000002" y="342.0" transform="translate(-14.0, 0)">1400</text><text x="104.80000000000001" y="342.0" transform="translate(-10.5, 0)">700</text><text x="0.0" y="342.0" transform="translate(-3.5, 0)">0</text></g></g><g><g opacity="0.8" transform="translate(-30.0, -40.5) rotate(180, 300.0, 225.0) scale(-1, 1) translate(-524.0, 0)" clip-path="url(#plot-clip)"><g fill="#5fab9e"><circle cx="179.65714285714287" cy="117.648" r="4"/><circle cx="217.0857142857143" cy="153.9" r="4"/><circle cx="239.54285714285714" cy="151.164" r="4"/><circle cx="269.48571428571427" cy="166.212" r="4"/><circle cx="299.4285714285714" cy="169.632" r="4"/><circle cx="329.37142857142857" cy="201.09599999999998" r="4"/><circle cx="374.2857142857143" cy="252.396" r="4"/><circle cx="419.20000000000005" cy="263.34000000000003" r="4"/><circle cx="464.1142857142857" cy="300.276" r="4"/><circle cx="524.0" cy="316.692" r="4"/></g></g><g transform="translate(-30.0, -40.5) rotate(180, 300.0, 225.0) scale(-1, 1) translate(-524.0, 0)"><g><text x="179.65714285714287" y="101.648" fill="#444444" font-size="12" font-family="JetBrains Mono" text-anchor="middle" transform="translate(179.65714285714287,101.648) scale(1,-1) translate(-179.65714285714287,-101.648)">Austin</text><text x="217.0857142857143" y="129.60000000000002" fill="#444444" font-size="12" font-family="JetBrains Mono" text-anchor="middle" transform="translate(217.0857142857143,129.60000000000002) scale(1,-1) translate(-217.0857142857143,-129.60000000000002)">Denver</text><text x="239.54285714285714" y="144.0" fill="#444444" font-size="12" font-family="JetBrains Mono" text-anchor="middle" transform="translate(239.54285714285714,144.0) scale(1,-1) translate(-239.54285714285714,-144.0)">Portland</text><text x="269.48571428571427" y="150.212" fill="#444444" font-size="12" font-family="JetBrains Mono" text-anchor="middle" transform="translate(269.48571428571427,150.212) scale(1,-1) translate(-269.48571428571427,-150.212)">Nashville</text><text x="299.4285714285714" y="153.632" fill="#444444" font-size="12" font-family="JetBrains Mono" text-anchor="middle" transform="translate(299.4285714285714,153.632) scale(1,-1) translate(-299.4285714285714,-153.632)">Raleigh</text><text x="329.37142857142857" y="185.09599999999998" fill="#444444" font-size="12" font-family="JetBrains Mono" text-anchor="middle" transform="translate(329.37142857142857,185.09599999999998) scale(1,-1) translate(-329.37142857142857,-185.09599999999998)">Boise</text><text x="374.2857142857143" y="236.396" fill="#444444" font-size="12" font-family="JetBrains Mono" text-anchor="middle" transform="translate(374.2857142857143,236.396) scale(1,-1) translate(-374.2857142857143,-236.396)">Tampa</text><text x="419.20000000000005" y="247.34000000000003" fill="#444444" font-size="12" font-family="JetBrains Mono" text-anchor="middle" transform="translate(419.20000000000005,247.34000000000003) scale(1,-1) translate(-419.20000000000005,-247.34000000000003)">Phoenix</text><text x="464.1142857142857" y="284.276" fill="#444444" font-size="12" font-family="JetBrains Mono" text-anchor="end" transform="translate(464.1142857142857,284.276) scale(1,-1) translate(-464.1142857142857,-284.276)">Atlanta</text><text x="524.0" y="300.692" fill="#444444" font-size="12" font-family="JetBrains Mono" text-anchor="end" transform="translate(524.0,300.692) scale(1,-1) translate(-524.0,-300.692)">Seattle</text></g></g></g><g><rect transform="translate(-21.75, -3.5)" x="457.25" y="75.0" width="130.5" height="21.0" fill="#f5f5f5" stroke="#d7d7d7"/><g><rect y="76.0" x="457.25" width="12" height="12" fill="#5fab9e"/><text y="85.0" x="471.25" font-size="12" font-family="Arial" fill="#444444">Median Price</text></g></g><path d="M46.0 67.5 v342.0 M46.0 409.5 h524.0" stroke="#999" stroke-width="1.5" fill="none"/><text x="308.0" y="448" fill="#444444" font-size="14" font-family="JetBrains Mono" text-anchor="middle">Square Footage</text><text x="14" y="238.5" fill="#444444" font-size="14" font-family="JetBrains Mono" text-anchor="middle" transform="rotate(-90, 14, 238.5)">Price ($K)</text></svg>