<svg xmlns="http://www.w3.org/2000/svg" width="700" height="400" viewBox="0 0 700 400"><path fill="#FFFFFF" d="M0 0 h700 v400 h-700 v-400Z"/><text transform="translate(-158.0, 18)" fill="#444444" font-family="Arial" font-weight="normal" font-size="16" x="350.0" y="10.0">Cluster Analysis — Two Distinct Populations</text><defs><clipPath id="plot-clip"><rect x="0" y="0" width="630.0" height="333.0"/></clipPath></defs><g><path stroke="#CCCCCC" stroke-dasharray="None" d="M0 0.0 h630.0 M0 66.60000000000001 h630.0 M0 133.20000000000002 h630.0 M0 199.79999999999998 h630.0 M0 266.40000000000003 h630.0 M0 333.0 h630.0" transform="translate(35.0, 47.0)"/><g font-size="12" font-family="Arial" fill="#444444" transform="translate(29.0, 47.0)"><text x="0" y="0.0" transform="translate(-14, 3.5)">50</text><text x="0" y="66.60000000000001" transform="translate(-14, 3.5)">40</text><text x="0" y="133.20000000000002" transform="translate(-14, 3.5)">30</text><text x="0" y="199.79999999999998" transform="translate(-14, 3.5)">20</text><text x="0" y="266.40000000000003" transform="translate(-14, 3.5)">10</text><text x="0" y="333.0" transform="translate(-7, 3.5)">0</text></g></g><g><path stroke="#CCCCCC" stroke-dasharray="None" d="M630.0 0 v333.0 M504.0 0 v333.0 M378.0 0 v333.0 M252.0 0 v333.0 M126.0 0 v333.0 M0.0 0 v333.0" transform="translate(35.0, 47.0)"/><g font-size="12" font-family="Arial" fill="#444444" transform="translate(35.0, 65.0)"><text x="630.0" y="333.0" transform="translate(-7.0, 0)">95</text><text x="504.0" y="333.0" transform="translate(-7.0, 0)">76</text><text x="378.0" y="333.0" transform="translate(-7.0, 0)">57</text><text x="252.0" y="333.0" transform="translate(-7.0, 0)">38</text><text x="126.0" y="333.0" transform="translate(-7.0, 0)">19</text><text x="0.0" y="333.0" transform="translate(-3.5, 0)">0</text></g></g><g opacity="0.8" transform="translate(-35.0, -20.0) rotate(180, 350.0, 200.0) scale(-1, 1) translate(-630.0, 0)" clip-path="url(#plot-clip)"><g fill="#5fab9e"><circle cx="191.3029972518657" cy="294.7330370229583" r="4"/><circle cx="189.77437741399098" cy="188.95510652209762" r="4"/><circle cx="193.04176902841033" cy="249.76186454253786" r="4"/><circle cx="236.18945236313968" cy="292.526515736583" r="4"/><circle cx="192.17847420772893" cy="312.9349856530169" r="4"/><circle cx="119.50882938654289" cy="253.5792510409344" r="4"/><circle cx="216.57773109580302" cy="286.46524047089184" r="4"/><circle cx="184.7644116670976" cy="279.6248125802179" r="4"/><circle cx="187.43713928324436" cy="308.08237236773004" r="4"/><circle cx="205.095361315498" cy="207.0875204248574" r="4"/><circle cx="211.27137467378816" cy="296.67639663454935" r="4"/><circle cx="260.67721874168086" cy="185.7063535288846" r="4"/><circle cx="233.78366309752937" cy="126.80930790417958" r="4"/><circle cx="204.8100649928096" cy="234.06486200153049" r="4"/><circle cx="159.77746446507476" cy="217.6056407306854" r="4"/><circle cx="145.11685966170427" cy="313.07393231004534" r="4"/><circle cx="212.01647014594167" cy="301.792087131375" r="4"/><circle cx="268.5036565169305" cy="201.44769778376536" r="4"/><circle cx="201.1573746744532" cy="311.54741663598145" r="4"/><circle cx="193.30663788837103" cy="213.0026335243676" r="4"/></g><g fill="#f58b51"><circle cx="458.4911975587517" cy="228.194575497648" r="4"/><circle cx="444.7203305144616" cy="126.93777009731416" r="4"/><circle cx="471.79836949477686" cy="38.43093505294412" r="4"/><circle cx="518.4990396076394" cy="97.76370188197373" r="4"/><circle cx="506.5474408630779" cy="196.662857437284" r="4"/><circle cx="487.4134330713265" cy="37.05101815518602" r="4"/><circle cx="507.3123475387335" cy="135.4331859644316" r="4"/><circle cx="495.94210354942896" cy="150.06560813218132" r="4"/><circle cx="422.63149020122654" cy="112.18156182340955" r="4"/><circle cx="416.6374958837427" cy="181.3938902921152" r="4"/><circle cx="433.04420918887485" cy="171.8799307856693" r="4"/><circle cx="497.3237507684602" cy="287.8058072255887" r="4"/><circle cx="447.6239147654366" cy="174.4898533336908" r="4"/><circle cx="619.1079115960785" cy="92.61372965437207" r="4"/><circle cx="409.87849457079045" cy="95.78428035055356" r="4"/><circle cx="391.337789690699" cy="77.81669865728237" r="4"/><circle cx="515.1724541837799" cy="196.62141908373366" r="4"/><circle cx="558.5016303417245" cy="95.44893320140751" r="4"/><circle cx="497.7459363398667" cy="128.52063247154018" r="4"/><circle cx="519.6384134694352" cy="183.10355444469238" r="4"/></g></g><g><rect transform="translate(-16.25, -7.0)" x="579.75" y="58.0" width="97.5" height="42.0" fill="#ffffff" stroke="#CCCCCC"/><g><rect y="60.0" x="579.75" width="12" height="12" fill="#5fab9e"/><text y="69.0" x="593.75" font-size="12" font-family="Arial">Cluster A</text></g><g><rect y="72.0" x="579.75" width="12" height="12" fill="#f58b51"/><text y="81.0" x="593.75" font-size="12" font-family="Arial">Cluster B</text></g></g></svg>