<svg xmlns="http://www.w3.org/2000/svg" width="600" height="400" viewBox="0 0 600 400"><path fill="#FFFFFF" d="M0 0 h600 v400 h-600 v-400Z"/><text transform="translate(-145.0, 16.0)" fill="#444444" font-family="Roboto" font-weight="normal" font-size="16" x="300.0" y="10.0">Temperature Anomaly vs 5-Year Rolling Baseline (1990-2009)</text><defs><clipPath id="plot-clip"><rect x="0" y="0" width="540.0" height="328.5838015129043"/></clipPath></defs><g><path stroke="#CCCCCC" stroke-dasharray="None" d="M0 0.0 h540.0 M0 19.328458912523782 h540.0 M0 38.656917825047564 h540.0 M0 57.98537673757135 h540.0 M0 77.31383565009513 h540.0 M0 96.64229456261891 h540.0 M0 115.9707534751427 h540.0 M0 135.29921238766647 h540.0 M0 154.62767130019026 h540.0 M0 173.95613021271404 h540.0 M0 193.28458912523783 h540.0 M0 212.61304803776162 h540.0 M0 231.9415069502854 h540.0 M0 251.26996586280916 h540.0 M0 270.59842477533294 h540.0 M0 289.92688368785673 h540.0 M0 309.2553426003805 h540.0 M0 328.5838015129043 h540.0" transform="translate(30.0, 44.0)"/><g font-size="12" font-family="Arial" fill="#444444" transform="translate(24.0, 44.0)"><text x="0" y="0.0" transform="translate(-14, 3.5)">70</text><text x="0" y="19.328458912523782" transform="translate(-14, 3.5)">65</text><text x="0" y="38.656917825047564" transform="translate(-14, 3.5)">60</text><text x="0" y="57.98537673757135" transform="translate(-14, 3.5)">55</text><text x="0" y="77.31383565009513" transform="translate(-14, 3.5)">50</text><text x="0" y="96.64229456261891" transform="translate(-14, 3.5)">45</text><text x="0" y="115.9707534751427" transform="translate(-14, 3.5)">40</text><text x="0" y="135.29921238766647" transform="translate(-14, 3.5)">35</text><text x="0" y="154.62767130019026" transform="translate(-14, 3.5)">30</text><text x="0" y="173.95613021271404" transform="translate(-14, 3.5)">25</text><text x="0" y="193.28458912523783" transform="translate(-14, 3.5)">20</text><text x="0" y="212.61304803776162" transform="translate(-14, 3.5)">15</text><text x="0" y="231.9415069502854" transform="translate(-14, 3.5)">10</text><text x="0" y="251.26996586280916" transform="translate(-7, 3.5)">5</text><text x="0" y="270.59842477533294" transform="translate(-7, 3.5)">0</text><text x="0" y="289.92688368785673" transform="translate(-11, 3.5)">-5</text><text x="0" y="309.2553426003805" transform="translate(-18, 3.5)">-10</text><text x="0" y="328.5838015129043" transform="translate(-18, 3.5)">-15</text></g></g><g><path stroke="#CCCCCC" stroke-dasharray="None" d="M0.0 0 v328.5838015129043 M28.421052631578945 0 v328.5838015129043 M56.84210526315789 0 v328.5838015129043 M85.26315789473684 0 v328.5838015129043 M113.68421052631578 0 v328.5838015129043 M142.10526315789474 0 v328.5838015129043 M170.52631578947367 0 v328.5838015129043 M198.94736842105263 0 v328.5838015129043 M227.36842105263156 0 v328.5838015129043 M255.78947368421052 0 v328.5838015129043 M284.2105263157895 0 v328.5838015129043 M312.63157894736844 0 v328.5838015129043 M341.05263157894734 0 v328.5838015129043 M369.4736842105263 0 v328.5838015129043 M397.89473684210526 0 v328.5838015129043 M426.3157894736842 0 v328.5838015129043 M454.7368421052631 0 v328.5838015129043 M483.1578947368421 0 v328.5838015129043 M511.57894736842104 0 v328.5838015129043 M540.0 0 v328.5838015129043" transform="translate(30.0, 44.0)"/><g font-size="12" font-family="Arial" fill="#444444" transform="translate(30.0, 62.0)"><text x="0.0" y="328.5838015129043" transform="translate(-7.0, 0) rotate(15.358885580822717, 0.0, 328.5838015129043)">1990</text><text x="28.421052631578945" y="328.5838015129043" transform="translate(-7.0, 0) rotate(15.358885580822717, 28.421052631578945, 328.5838015129043)">1991</text><text x="56.84210526315789" y="328.5838015129043" transform="translate(-7.0, 0) rotate(15.358885580822717, 56.84210526315789, 328.5838015129043)">1992</text><text x="85.26315789473684" y="328.5838015129043" transform="translate(-7.0, 0) rotate(15.358885580822717, 85.26315789473684, 328.5838015129043)">1993</text><text x="113.68421052631578" y="328.5838015129043" transform="translate(-7.0, 0) rotate(15.358885580822717, 113.68421052631578, 328.5838015129043)">1994</text><text x="142.10526315789474" y="328.5838015129043" transform="translate(-7.0, 0) rotate(15.358885580822717, 142.10526315789474, 328.5838015129043)">1995</text><text x="170.52631578947367" y="328.5838015129043" transform="translate(-7.0, 0) rotate(15.358885580822717, 170.52631578947367, 328.5838015129043)">1996</text><text x="198.94736842105263" y="328.5838015129043" transform="translate(-7.0, 0) rotate(15.358885580822717, 198.94736842105263, 328.5838015129043)">1997</text><text x="227.36842105263156" y="328.5838015129043" transform="translate(-7.0, 0) rotate(15.358885580822717, 227.36842105263156, 328.5838015129043)">1998</text><text x="255.78947368421052" y="328.5838015129043" transform="translate(-7.0, 0) rotate(15.358885580822717, 255.78947368421052, 328.5838015129043)">1999</text><text x="284.2105263157895" y="328.5838015129043" transform="translate(-7.0, 0) rotate(15.358885580822717, 284.2105263157895, 328.5838015129043)">2000</text><text x="312.63157894736844" y="328.5838015129043" transform="translate(-7.0, 0) rotate(15.358885580822717, 312.63157894736844, 328.5838015129043)">2001</text><text x="341.05263157894734" y="328.5838015129043" transform="translate(-7.0, 0) rotate(15.358885580822717, 341.05263157894734, 328.5838015129043)">2002</text><text x="369.4736842105263" y="328.5838015129043" transform="translate(-7.0, 0) rotate(15.358885580822717, 369.4736842105263, 328.5838015129043)">2003</text><text x="397.89473684210526" y="328.5838015129043" transform="translate(-7.0, 0) rotate(15.358885580822717, 397.89473684210526, 328.5838015129043)">2004</text><text x="426.3157894736842" y="328.5838015129043" transform="translate(-7.0, 0) rotate(15.358885580822717, 426.3157894736842, 328.5838015129043)">2005</text><text x="454.7368421052631" y="328.5838015129043" transform="translate(-7.0, 0) rotate(15.358885580822717, 454.7368421052631, 328.5838015129043)">2006</text><text x="483.1578947368421" y="328.5838015129043" transform="translate(-7.0, 0) rotate(15.358885580822717, 483.1578947368421, 328.5838015129043)">2007</text><text x="511.57894736842104" y="328.5838015129043" transform="translate(-7.0, 0) rotate(15.358885580822717, 511.57894736842104, 328.5838015129043)">2008</text><text x="540.0" y="328.5838015129043" transform="translate(-7.0, 0) rotate(15.358885580822717, 540.0, 328.5838015129043)">2009</text></g></g><path transform="translate(30.0, 44.0)" d="M0 270.6 h540.0z" stroke="black"/><g opacity="0.8" transform="translate(-30.0, -27.416198487095663) rotate(180, 300.0, 200.0) scale(-1, 1) translate(-540.0, 0)"><g fill="white" stroke="#5fab9e" stroke-width="2"><path d="M0.0 0.0 L28.4 38.7 L56.8 96.6 L85.3 135.3 L113.7 77.3 L142.1 154.6 L170.5 116.0 L198.9 174.0 L227.4 96.6 L255.8 135.3 L284.2 212.6 L312.6 154.6 L341.1 231.9 L369.5 174.0 L397.9 251.3 L426.3 193.3 L454.7 289.9 L483.2 270.6 L511.6 231.9 L540.0 328.6" fill="none"/></g><g fill="white" stroke="#f58b51" stroke-width="2"><path d="M0.0 77.3 L28.4 82.3 L56.8 86.6 L85.3 90.5 L113.7 92.8 L142.1 93.9 L170.5 94.3 L198.9 93.5 L227.4 92.4 L255.8 91.2 L284.2 90.8 L312.6 91.2 L341.1 92.8 L369.5 95.5 L397.9 99.3 L426.3 104.0 L454.7 109.0 L483.2 114.0 L511.6 118.3 L540.0 121.4" fill="none"/></g></g><path d="M30.0 44.0 v328.5838015129043 M30.0 372.5838015129043 h540.0" stroke="#999" stroke-width="1.5" fill="none"/></svg>