<svg xmlns="http://www.w3.org/2000/svg" width="500" height="500" viewBox="0 0 500 500"><path fill="white" d="M0 0 h500 v500 h-500 v-500Z"/><text transform="translate(-156.0, 19)" fill="#444444" font-family="Helvetica" font-weight="bold" font-size="16" x="250.0" y="25.0">Monthly Temperature vs CO2 Concentration</text><g><path stroke="#CCCCCC" stroke-dasharray="None" d="M0 0.0 h369.0 M0 74.3 h369.0 M0 148.6 h369.0 M0 222.9 h369.0 M0 297.2 h369.0 M0 371.5 h369.0 M0 371.5 h369.0" transform="translate(81.0, 78.5)"/><g font-size="12" font-family="Helvetica" transform="translate(75.0, 78.5)"><text x="0" y="0.0" transform="translate(-21, -7.0)">400</text><text x="0" y="74.3" transform="translate(-21, -7.0)">320</text><text x="0" y="148.6" transform="translate(-21, -7.0)">240</text><text x="0" y="222.9" transform="translate(-21, -7.0)">160</text><text x="0" y="297.2" transform="translate(-14, -7.0)">80</text><text x="0" y="371.5" transform="translate(-7, -7.0)">0</text></g></g><g><path stroke="#CCCCCC" stroke-dasharray="None" d="M201.27272727272725 0 v371.5 M234.8181818181818 0 v371.5 M268.3636363636364 0 v371.5 M301.90909090909093 0 v371.5 M335.45454545454544 0 v371.5 M369.0 0 v371.5 M402.5454545454545 0 v371.5 M436.0909090909091 0 v371.5 M469.6363636363636 0 v371.5 M503.18181818181813 0 v371.5 M536.7272727272727 0 v371.5 M570.2727272727273 0 v371.5" transform="translate(81.0, 78.5)"/><g font-size="12" font-family="Helvetica" transform="translate(81.0, 96.5)"><text x="201.27272727272725" y="371.5" transform="translate(-10.0, 0)">Jan</text><text x="234.8181818181818" y="371.5" transform="translate(-10.5, 0)">Feb</text><text x="268.3636363636364" y="371.5" transform="translate(-10.5, 0)">Mar</text><text x="301.90909090909093" y="371.5" transform="translate(-9.5, 0)">Apr</text><text x="335.45454545454544" y="371.5" transform="translate(-11.5, 0)">May</text><text x="369.0" y="371.5" transform="translate(-10.0, 0)">Jun</text><text x="402.5454545454545" y="371.5" transform="translate(-8.0, 0)">Jul</text><text x="436.0909090909091" y="371.5" transform="translate(-11.0, 0)">Aug</text><text x="469.6363636363636" y="371.5" transform="translate(-11.0, 0)">Sep</text><text x="503.18181818181813" y="371.5" transform="translate(-9.0, 0)">Oct</text><text x="536.7272727272727" y="371.5" transform="translate(-11.0, 0)">Nov</text><text x="570.2727272727273" y="371.5" transform="translate(-11.0, 0)">Dec</text></g></g><path transform="translate(81.0, 78.5)" d="M201.27272727272725 0 v371.5z" stroke="black"/><g opacity="0.8" transform="translate(-50.0, -50.0) rotate(180, 250.0, 250.0) scale(-1, 1) translate(-369.0, 0)"><g fill="white" stroke="#5fab9e" stroke-width="2"><path d="M234.8181818181818 29.72 L268.3636363636364 32.50625 L301.9090909090909 39.0075 L335.45454545454544 48.295 L369.0 57.5825 L402.5454545454545 66.87 L436.09090909090907 72.4425 L469.6363636363636 70.585 L503.1818181818182 63.155 L536.7272727272727 51.081250000000004 L570.2727272727273 41.79375 L603.8181818181818 35.2925" fill="none"/><circle cx="234.8181818181818" cy="29.72" r="3"/><circle cx="268.3636363636364" cy="32.50625" r="3"/><circle cx="301.9090909090909" cy="39.0075" r="3"/><circle cx="335.45454545454544" cy="48.295" r="3"/><circle cx="369.0" cy="57.5825" r="3"/><circle cx="402.5454545454545" cy="66.87" r="3"/><circle cx="436.09090909090907" cy="72.4425" r="3"/><circle cx="469.6363636363636" cy="70.585" r="3"/><circle cx="503.1818181818182" cy="63.155" r="3"/><circle cx="536.7272727272727" cy="51.081250000000004" r="3"/><circle cx="570.2727272727273" cy="41.79375" r="3"/><circle cx="603.8181818181818" cy="35.2925" r="3"/></g><g fill="white" stroke="#f58b51" stroke-width="2"><path d="M234.8181818181818 292.55625 L268.3636363636364 295.34250000000003 L301.9090909090909 299.0575 L335.45454545454544 304.63 L369.0 311.13125 L402.5454545454545 317.6325 L436.09090909090907 323.205 L469.6363636363636 326.92 L503.1818181818182 323.205 L536.7272727272727 317.6325 L570.2727272727273 311.13125 L603.8181818181818 304.63" fill="none"/><circle cx="234.8181818181818" cy="292.55625" r="3"/><circle cx="268.3636363636364" cy="295.34250000000003" r="3"/><circle cx="301.9090909090909" cy="299.0575" r="3"/><circle cx="335.45454545454544" cy="304.63" r="3"/><circle cx="369.0" cy="311.13125" r="3"/><circle cx="402.5454545454545" cy="317.6325" r="3"/><circle cx="436.09090909090907" cy="323.205" r="3"/><circle cx="469.6363636363636" cy="326.92" r="3"/><circle cx="503.1818181818182" cy="323.205" r="3"/><circle cx="536.7272727272727" cy="317.6325" r="3"/><circle cx="570.2727272727273" cy="311.13125" r="3"/><circle cx="603.8181818181818" cy="304.63" r="3"/></g></g></svg>