<svg xmlns="http://www.w3.org/2000/svg" width="700" height="400" viewBox="0 0 700 400"><path fill="white" d="M0 0 h700 v400 h-700 v-400Z"/><text transform="translate(-168.0, 19)" fill="#444444" font-family="Helvetica" font-weight="bold" font-size="16" x="350.0" y="10.0">Temperature Anomaly vs Baseline (1990-2009)</text><g><path stroke="#CCCCCC" stroke-dasharray="None" d="M0 0.0 h602.0 M0 19.5 h602.0 M0 39.0 h602.0 M0 58.50000000000001 h602.0 M0 78.0 h602.0 M0 97.5 h602.0 M0 117.00000000000001 h602.0 M0 136.5 h602.0 M0 156.0 h602.0 M0 175.5 h602.0 M0 195.0 h602.0 M0 214.5 h602.0 M0 234.00000000000003 h602.0 M0 253.49999999999997 h602.0 M0 273.0 h602.0 M0 292.5 h602.0 M0 312.0 h602.0 M0 331.5 h602.0" transform="translate(63.0, 48.5)"/><g font-size="12" font-family="Helvetica" transform="translate(57.0, 48.5)"><text x="0" y="0.0" transform="translate(-14, 3.5)">70</text><text x="0" y="19.5" transform="translate(-14, 3.5)">65</text><text x="0" y="39.0" transform="translate(-14, 3.5)">60</text><text x="0" y="58.50000000000001" transform="translate(-14, 3.5)">55</text><text x="0" y="78.0" transform="translate(-14, 3.5)">50</text><text x="0" y="97.5" transform="translate(-14, 3.5)">45</text><text x="0" y="117.00000000000001" transform="translate(-14, 3.5)">40</text><text x="0" y="136.5" transform="translate(-14, 3.5)">35</text><text x="0" y="156.0" transform="translate(-14, 3.5)">30</text><text x="0" y="175.5" transform="translate(-14, 3.5)">25</text><text x="0" y="195.0" transform="translate(-14, 3.5)">20</text><text x="0" y="214.5" transform="translate(-14, 3.5)">15</text><text x="0" y="234.00000000000003" transform="translate(-14, 3.5)">10</text><text x="0" y="253.49999999999997" transform="translate(-7, 3.5)">5</text><text x="0" y="273.0" transform="translate(-7, 3.5)">0</text><text x="0" y="292.5" transform="translate(-11, 3.5)">-5</text><text x="0" y="312.0" transform="translate(-18, 3.5)">-10</text><text x="0" y="331.5" transform="translate(-18, 3.5)">-15</text></g></g><g><path stroke="#CCCCCC" stroke-dasharray="None" d="M596.3066202090592 0 v331.5 M596.6062717770035 0 v331.5 M596.9059233449477 0 v331.5 M597.205574912892 0 v331.5 M597.5052264808362 0 v331.5 M597.8048780487804 0 v331.5 M598.1045296167247 0 v331.5 M598.404181184669 0 v331.5 M598.7038327526133 0 v331.5 M599.0034843205575 0 v331.5 M599.3031358885017 0 v331.5 M599.602787456446 0 v331.5 M599.9024390243902 0 v331.5 M600.2020905923345 0 v331.5 M600.5017421602787 0 v331.5 M600.801393728223 0 v331.5 M601.1010452961673 0 v331.5 M601.4006968641114 0 v331.5 M601.7003484320558 0 v331.5 M602.0 0 v331.5" transform="translate(63.0, 48.5)"/><g font-size="12" font-family="Helvetica" transform="translate(63.0, 66.5)"><text x="596.3066202090592" y="331.5" transform="translate(-14.0, 0)">1990</text><text x="596.6062717770035" y="331.5" transform="translate(-14.0, 0)">1991</text><text x="596.9059233449477" y="331.5" transform="translate(-14.0, 0)">1992</text><text x="597.205574912892" y="331.5" transform="translate(-14.0, 0)">1993</text><text x="597.5052264808362" y="331.5" transform="translate(-14.0, 0)">1994</text><text x="597.8048780487804" y="331.5" transform="translate(-14.0, 0)">1995</text><text x="598.1045296167247" y="331.5" transform="translate(-14.0, 0)">1996</text><text x="598.404181184669" y="331.5" transform="translate(-14.0, 0)">1997</text><text x="598.7038327526133" y="331.5" transform="translate(-14.0, 0)">1998</text><text x="599.0034843205575" y="331.5" transform="translate(-14.0, 0)">1999</text><text x="599.3031358885017" y="331.5" transform="translate(-14.0, 0)">2000</text><text x="599.602787456446" y="331.5" transform="translate(-14.0, 0)">2001</text><text x="599.9024390243902" y="331.5" transform="translate(-14.0, 0)">2002</text><text x="600.2020905923345" y="331.5" transform="translate(-14.0, 0)">2003</text><text x="600.5017421602787" y="331.5" transform="translate(-14.0, 0)">2004</text><text x="600.801393728223" y="331.5" transform="translate(-14.0, 0)">2005</text><text x="601.1010452961673" y="331.5" transform="translate(-14.0, 0)">2006</text><text x="601.4006968641114" y="331.5" transform="translate(-14.0, 0)">2007</text><text x="601.7003484320558" y="331.5" transform="translate(-14.0, 0)">2008</text><text x="602.0" y="331.5" transform="translate(-14.0, 0)">2009</text></g></g><path transform="translate(63.0, 48.5)" d="M0 273.0 h602.0z" stroke="black"/><g opacity="0.8" transform="translate(-35.0, -20.0) rotate(180, 350.0, 200.0) scale(-1, 1) translate(-602.0, 0)"><g fill="white" stroke="#5fab9e" stroke-width="2"><path d="M596.3066202090592 0.0 L596.6062717770035 39.0 L596.9059233449477 97.5 L597.205574912892 136.5 L597.5052264808362 78.0 L597.8048780487804 156.0 L598.1045296167247 117.00000000000001 L598.404181184669 175.5 L598.7038327526133 97.5 L599.0034843205575 136.5 L599.3031358885017 214.5 L599.602787456446 156.0 L599.9024390243902 234.00000000000003 L600.2020905923345 175.5 L600.5017421602787 253.49999999999997 L600.801393728223 195.0 L601.1010452961673 292.5 L601.4006968641114 273.0 L601.7003484320558 234.00000000000003 L602.0 331.5" fill="none"/><circle cx="596.3066202090592" cy="0.0" r="3"/><circle cx="596.6062717770035" cy="39.0" r="3"/><circle cx="596.9059233449477" cy="97.5" r="3"/><circle cx="597.205574912892" cy="136.5" r="3"/><circle cx="597.5052264808362" cy="78.0" r="3"/><circle cx="597.8048780487804" cy="156.0" r="3"/><circle cx="598.1045296167247" cy="117.00000000000001" r="3"/><circle cx="598.404181184669" cy="175.5" r="3"/><circle cx="598.7038327526133" cy="97.5" r="3"/><circle cx="599.0034843205575" cy="136.5" r="3"/><circle cx="599.3031358885017" cy="214.5" r="3"/><circle cx="599.602787456446" cy="156.0" r="3"/><circle cx="599.9024390243902" cy="234.00000000000003" r="3"/><circle cx="600.2020905923345" cy="175.5" r="3"/><circle cx="600.5017421602787" cy="253.49999999999997" r="3"/><circle cx="600.801393728223" cy="195.0" r="3"/><circle cx="601.1010452961673" cy="292.5" r="3"/><circle cx="601.4006968641114" cy="273.0" r="3"/><circle cx="601.7003484320558" cy="234.00000000000003" r="3"/><circle cx="602.0" cy="331.5" r="3"/></g><g fill="white" stroke="#f58b51" stroke-width="2"><path d="M596.3066202090592 58.50000000000001 L596.6062717770035 58.50000000000001 L596.9059233449477 58.50000000000001 L597.205574912892 58.50000000000001 L597.5052264808362 58.50000000000001 L597.8048780487804 58.50000000000001 L598.1045296167247 58.50000000000001 L598.404181184669 58.50000000000001 L598.7038327526133 58.50000000000001 L599.0034843205575 58.50000000000001 L599.3031358885017 58.50000000000001 L599.602787456446 58.50000000000001 L599.9024390243902 58.50000000000001 L600.2020905923345 58.50000000000001 L600.5017421602787 58.50000000000001 L600.801393728223 58.50000000000001 L601.1010452961673 58.50000000000001 L601.4006968641114 58.50000000000001 L601.7003484320558 58.50000000000001 L602.0 58.50000000000001" fill="none"/><circle cx="596.3066202090592" cy="58.50000000000001" r="3"/><circle cx="596.6062717770035" cy="58.50000000000001" r="3"/><circle cx="596.9059233449477" cy="58.50000000000001" r="3"/><circle cx="597.205574912892" cy="58.50000000000001" r="3"/><circle cx="597.5052264808362" cy="58.50000000000001" r="3"/><circle cx="597.8048780487804" cy="58.50000000000001" r="3"/><circle cx="598.1045296167247" cy="58.50000000000001" r="3"/><circle cx="598.404181184669" cy="58.50000000000001" r="3"/><circle cx="598.7038327526133" cy="58.50000000000001" r="3"/><circle cx="599.0034843205575" cy="58.50000000000001" r="3"/><circle cx="599.3031358885017" cy="58.50000000000001" r="3"/><circle cx="599.602787456446" cy="58.50000000000001" r="3"/><circle cx="599.9024390243902" cy="58.50000000000001" r="3"/><circle cx="600.2020905923345" cy="58.50000000000001" r="3"/><circle cx="600.5017421602787" cy="58.50000000000001" r="3"/><circle cx="600.801393728223" cy="58.50000000000001" r="3"/><circle cx="601.1010452961673" cy="58.50000000000001" r="3"/><circle cx="601.4006968641114" cy="58.50000000000001" r="3"/><circle cx="601.7003484320558" cy="58.50000000000001" r="3"/><circle cx="602.0" cy="58.50000000000001" r="3"/></g></g></svg>