<svg xmlns="http://www.w3.org/2000/svg" width="700" height="400" viewBox="0 0 700 400"><path fill="white" d="M0 0 h700 v400 h-700 v-400Z"/><text transform="translate(-168.0, 19)" fill="#444444" font-family="Helvetica" font-weight="bold" font-size="16" x="350.0" y="10.0">Temperature Anomaly vs Baseline (1990-2009)</text><g><path stroke="#CCCCCC" stroke-dasharray="None" d="M0 0.0 h602.0 M0 41.4375 h602.0 M0 82.875 h602.0 M0 124.3125 h602.0 M0 165.75 h602.0 M0 207.1875 h602.0 M0 248.625 h602.0 M0 290.0625 h602.0 M0 331.5 h602.0" transform="translate(63.0, 48.5)"/><g font-size="12" font-family="Helvetica" transform="translate(57.0, 48.5)"><text x="0" y="0.0" transform="translate(-7, 3.5)">1</text><text x="0" y="41.4375" transform="translate(-17, 3.5)">0.8</text><text x="0" y="82.875" transform="translate(-17, 3.5)">0.5</text><text x="0" y="124.3125" transform="translate(-17, 3.5)">0.2</text><text x="0" y="165.75" transform="translate(-17, 3.5)">0.0</text><text x="0" y="207.1875" transform="translate(-21, 3.5)">-0.2</text><text x="0" y="248.625" transform="translate(-21, 3.5)">-0.5</text><text x="0" y="290.0625" transform="translate(-21, 3.5)">-0.8</text><text x="0" y="331.5" transform="translate(-21, 3.5)">-1.0</text></g></g><g><path stroke="#CCCCCC" stroke-dasharray="None" d="M0.0 0 v331.5 M31.684210526315788 0 v331.5 M63.368421052631575 0 v331.5 M95.05263157894737 0 v331.5 M126.73684210526315 0 v331.5 M158.42105263157893 0 v331.5 M190.10526315789474 0 v331.5 M221.78947368421052 0 v331.5 M253.4736842105263 0 v331.5 M285.1578947368421 0 v331.5 M316.84210526315786 0 v331.5 M348.5263157894737 0 v331.5 M380.2105263157895 0 v331.5 M411.89473684210526 0 v331.5 M443.57894736842104 0 v331.5 M475.2631578947368 0 v331.5 M506.9473684210526 0 v331.5 M538.6315789473684 0 v331.5 M570.3157894736842 0 v331.5 M602.0 0 v331.5" transform="translate(63.0, 48.5)"/><g font-size="12" font-family="Helvetica" transform="translate(63.0, 66.5)"><text x="0.0" y="331.5" transform="translate(-14.0, 0)">1990</text><text x="31.684210526315788" y="331.5" transform="translate(-14.0, 0)">1991</text><text x="63.368421052631575" y="331.5" transform="translate(-14.0, 0)">1992</text><text x="95.05263157894737" y="331.5" transform="translate(-14.0, 0)">1993</text><text x="126.73684210526315" y="331.5" transform="translate(-14.0, 0)">1994</text><text x="158.42105263157893" y="331.5" transform="translate(-14.0, 0)">1995</text><text x="190.10526315789474" y="331.5" transform="translate(-14.0, 0)">1996</text><text x="221.78947368421052" y="331.5" transform="translate(-14.0, 0)">1997</text><text x="253.4736842105263" y="331.5" transform="translate(-14.0, 0)">1998</text><text x="285.1578947368421" y="331.5" transform="translate(-14.0, 0)">1999</text><text x="316.84210526315786" y="331.5" transform="translate(-14.0, 0)">2000</text><text x="348.5263157894737" y="331.5" transform="translate(-14.0, 0)">2001</text><text x="380.2105263157895" y="331.5" transform="translate(-14.0, 0)">2002</text><text x="411.89473684210526" y="331.5" transform="translate(-14.0, 0)">2003</text><text x="443.57894736842104" y="331.5" transform="translate(-14.0, 0)">2004</text><text x="475.2631578947368" y="331.5" transform="translate(-14.0, 0)">2005</text><text x="506.9473684210526" y="331.5" transform="translate(-14.0, 0)">2006</text><text x="538.6315789473684" y="331.5" transform="translate(-14.0, 0)">2007</text><text x="570.3157894736842" y="331.5" transform="translate(-14.0, 0)">2008</text><text x="602.0" y="331.5" transform="translate(-14.0, 0)">2009</text></g></g><path transform="translate(63.0, 48.5)" d="M0 165.75 h602.0z" stroke="black"/><g opacity="0.8" transform="translate(-35.0, -20.0) rotate(180, 350.0, 200.0) scale(-1, 1) translate(-602.0, 0)"><g fill="white" stroke="#5fab9e" stroke-width="2"><path d="M0.0 120.9975 L31.684210526315788 144.2025 L63.368421052631575 172.38 L95.05263157894737 185.64000000000001 L126.73684210526315 195.58499999999998 L158.42105263157893 200.5575 L190.10526315789474 193.92749999999998 L221.78947368421052 207.1875 L253.4736842105263 230.3925 L285.1578947368421 237.02249999999998 L316.84210526315786 255.255 L348.5263157894737 245.31 L380.2105263157895 270.17249999999996 L411.89473684210526 258.57 L443.57894736842104 265.2 L475.2631578947368 255.255 L506.9473684210526 245.31 L538.6315789473684 266.85749999999996 L570.3157894736842 278.46000000000004 L602.0 285.09" fill="none"/><circle cx="0.0" cy="120.9975" r="3"/><circle cx="31.684210526315788" cy="144.2025" r="3"/><circle cx="63.368421052631575" cy="172.38" r="3"/><circle cx="95.05263157894737" cy="185.64000000000001" r="3"/><circle cx="126.73684210526315" cy="195.58499999999998" r="3"/><circle cx="158.42105263157893" cy="200.5575" r="3"/><circle cx="190.10526315789474" cy="193.92749999999998" r="3"/><circle cx="221.78947368421052" cy="207.1875" r="3"/><circle cx="253.4736842105263" cy="230.3925" r="3"/><circle cx="285.1578947368421" cy="237.02249999999998" r="3"/><circle cx="316.84210526315786" cy="255.255" r="3"/><circle cx="348.5263157894737" cy="245.31" r="3"/><circle cx="380.2105263157895" cy="270.17249999999996" r="3"/><circle cx="411.89473684210526" cy="258.57" r="3"/><circle cx="443.57894736842104" cy="265.2" r="3"/><circle cx="475.2631578947368" cy="255.255" r="3"/><circle cx="506.9473684210526" cy="245.31" r="3"/><circle cx="538.6315789473684" cy="266.85749999999996" r="3"/><circle cx="570.3157894736842" cy="278.46000000000004" r="3"/><circle cx="602.0" cy="285.09" r="3"/></g><g fill="white" stroke="#f58b51" stroke-width="2"><path d="M0.0 165.75 L31.684210526315788 165.75 L63.368421052631575 165.75 L95.05263157894737 165.75 L126.73684210526315 165.75 L158.42105263157893 165.75 L190.10526315789474 165.75 L221.78947368421052 165.75 L253.4736842105263 165.75 L285.1578947368421 165.75 L316.84210526315786 165.75 L348.5263157894737 165.75 L380.2105263157895 165.75 L411.89473684210526 165.75 L443.57894736842104 165.75 L475.2631578947368 165.75 L506.9473684210526 165.75 L538.6315789473684 165.75 L570.3157894736842 165.75 L602.0 165.75" fill="none"/><circle cx="0.0" cy="165.75" r="3"/><circle cx="31.684210526315788" cy="165.75" r="3"/><circle cx="63.368421052631575" cy="165.75" r="3"/><circle cx="95.05263157894737" cy="165.75" r="3"/><circle cx="126.73684210526315" cy="165.75" r="3"/><circle cx="158.42105263157893" cy="165.75" r="3"/><circle cx="190.10526315789474" cy="165.75" r="3"/><circle cx="221.78947368421052" cy="165.75" r="3"/><circle cx="253.4736842105263" cy="165.75" r="3"/><circle cx="285.1578947368421" cy="165.75" r="3"/><circle cx="316.84210526315786" cy="165.75" r="3"/><circle cx="348.5263157894737" cy="165.75" r="3"/><circle cx="380.2105263157895" cy="165.75" r="3"/><circle cx="411.89473684210526" cy="165.75" r="3"/><circle cx="443.57894736842104" cy="165.75" r="3"/><circle cx="475.2631578947368" cy="165.75" r="3"/><circle cx="506.9473684210526" cy="165.75" r="3"/><circle cx="538.6315789473684" cy="165.75" r="3"/><circle cx="570.3157894736842" cy="165.75" r="3"/><circle cx="602.0" cy="165.75" r="3"/></g></g><g><rect transform="translate(-7.875, -3.75)" x="593.25" y="60.625" width="78.75" height="37.5" fill="#ffffff" stroke="#CCCCCC"/><g transform="translate(0, 13)"><rect y="47.625" x="593.25" width="13" height="13" fill="#5fab9e"/><text y="57.375" x="608.25" font-size="11">Anomaly</text></g><g transform="translate(0, 15)"><rect y="60.625" x="593.25" width="13" height="13" fill="#f58b51"/><text y="70.375" x="608.25" font-size="11">Baseline</text></g></g></svg>