<svg xmlns="http://www.w3.org/2000/svg" width="700" height="400" viewBox="0 0 700 400"><path fill="#FFFFFF" d="M0 0 h700 v400 h-700 v-400Z"/><text transform="translate(-229.5, 18)" fill="#444444" font-family="Arial" font-weight="normal" font-size="16" x="350.0" y="10.0">Temperature Anomaly vs 5-Year Rolling Baseline (1990-2009)</text><defs><clipPath id="plot-clip"><rect x="0" y="0" width="630.0" height="333.0"/></clipPath></defs><g><path stroke="#cccccc" stroke-dasharray="None" d="M0 0.0 h630.0 M0 19.58823529411765 h630.0 M0 39.1764705882353 h630.0 M0 58.76470588235294 h630.0 M0 78.3529411764706 h630.0 M0 97.94117647058823 h630.0 M0 117.52941176470588 h630.0 M0 137.11764705882354 h630.0 M0 156.7058823529412 h630.0 M0 176.2941176470588 h630.0 M0 195.88235294117646 h630.0 M0 215.47058823529412 h630.0 M0 235.05882352941177 h630.0 M0 254.6470588235294 h630.0 M0 274.2352941176471 h630.0 M0 293.8235294117647 h630.0 M0 313.4117647058824 h630.0 M0 333.0 h630.0" transform="translate(35.0, 47.0)"/><g font-size="12" font-family="Arial" fill="#000000" transform="translate(29.0, 47.0)"><text x="0" y="0.0" transform="translate(-14, 3.5)">70</text><text x="0" y="19.58823529411765" transform="translate(-14, 3.5)">65</text><text x="0" y="39.1764705882353" transform="translate(-14, 3.5)">60</text><text x="0" y="58.76470588235294" transform="translate(-14, 3.5)">55</text><text x="0" y="78.3529411764706" transform="translate(-14, 3.5)">50</text><text x="0" y="97.94117647058823" transform="translate(-14, 3.5)">45</text><text x="0" y="117.52941176470588" transform="translate(-14, 3.5)">40</text><text x="0" y="137.11764705882354" transform="translate(-14, 3.5)">35</text><text x="0" y="156.7058823529412" transform="translate(-14, 3.5)">30</text><text x="0" y="176.2941176470588" transform="translate(-14, 3.5)">25</text><text x="0" y="195.88235294117646" transform="translate(-14, 3.5)">20</text><text x="0" y="215.47058823529412" transform="translate(-14, 3.5)">15</text><text x="0" y="235.05882352941177" transform="translate(-14, 3.5)">10</text><text x="0" y="254.6470588235294" transform="translate(-7, 3.5)">5</text><text x="0" y="274.2352941176471" transform="translate(-7, 3.5)">0</text><text x="0" y="293.8235294117647" transform="translate(-11, 3.5)">-5</text><text x="0" y="313.4117647058824" transform="translate(-18, 3.5)">-10</text><text x="0" y="333.0" transform="translate(-18, 3.5)">-15</text></g></g><g><path stroke="#cccccc" stroke-dasharray="None" d="M0.0 0 v333.0 M33.1578947368421 0 v333.0 M66.3157894736842 0 v333.0 M99.47368421052632 0 v333.0 M132.6315789473684 0 v333.0 M165.78947368421052 0 v333.0 M198.94736842105263 0 v333.0 M232.1052631578947 0 v333.0 M265.2631578947368 0 v333.0 M298.4210526315789 0 v333.0 M331.57894736842104 0 v333.0 M364.7368421052632 0 v333.0 M397.89473684210526 0 v333.0 M431.0526315789474 0 v333.0 M464.2105263157894 0 v333.0 M497.36842105263156 0 v333.0 M530.5263157894736 0 v333.0 M563.6842105263158 0 v333.0 M596.8421052631578 0 v333.0 M630.0 0 v333.0" transform="translate(35.0, 47.0)"/><g font-size="12" font-family="Arial" fill="#000000" transform="translate(35.0, 65.0)"><text x="0.0" y="333.0" transform="translate(-14.0, 0)">1990</text><text x="33.1578947368421" y="333.0" transform="translate(-14.0, 0)">1991</text><text x="66.3157894736842" y="333.0" transform="translate(-14.0, 0)">1992</text><text x="99.47368421052632" y="333.0" transform="translate(-14.0, 0)">1993</text><text x="132.6315789473684" y="333.0" transform="translate(-14.0, 0)">1994</text><text x="165.78947368421052" y="333.0" transform="translate(-14.0, 0)">1995</text><text x="198.94736842105263" y="333.0" transform="translate(-14.0, 0)">1996</text><text x="232.1052631578947" y="333.0" transform="translate(-14.0, 0)">1997</text><text x="265.2631578947368" y="333.0" transform="translate(-14.0, 0)">1998</text><text x="298.4210526315789" y="333.0" transform="translate(-14.0, 0)">1999</text><text x="331.57894736842104" y="333.0" transform="translate(-14.0, 0)">2000</text><text x="364.7368421052632" y="333.0" transform="translate(-14.0, 0)">2001</text><text x="397.89473684210526" y="333.0" transform="translate(-14.0, 0)">2002</text><text x="431.0526315789474" y="333.0" transform="translate(-14.0, 0)">2003</text><text x="464.2105263157894" y="333.0" transform="translate(-14.0, 0)">2004</text><text x="497.36842105263156" y="333.0" transform="translate(-14.0, 0)">2005</text><text x="530.5263157894736" y="333.0" transform="translate(-14.0, 0)">2006</text><text x="563.6842105263158" y="333.0" transform="translate(-14.0, 0)">2007</text><text x="596.8421052631578" y="333.0" transform="translate(-14.0, 0)">2008</text><text x="630.0" y="333.0" transform="translate(-14.0, 0)">2009</text></g></g><path transform="translate(35.0, 47.0)" d="M0 274.2 h630.0z" stroke="black"/><g opacity="0.8" transform="translate(-35.0, -20.0) rotate(180, 350.0, 200.0) scale(-1, 1) translate(-630.0, 0)"><g fill="white" stroke="#5fab9e" stroke-width="2"><path d="M0.0 0.0 L33.2 39.2 L66.3 97.9 L99.5 137.1 L132.6 78.4 L165.8 156.7 L198.9 117.5 L232.1 176.3 L265.3 97.9 L298.4 137.1 L331.6 215.5 L364.7 156.7 L397.9 235.1 L431.1 176.3 L464.2 254.6 L497.4 195.9 L530.5 293.8 L563.7 274.2 L596.8 235.1 L630.0 333.0" fill="none"/></g><g fill="white" stroke="#f58b51" stroke-width="2"><path d="M0.0 78.4 L33.2 83.4 L66.3 87.8 L99.5 91.7 L132.6 94.0 L165.8 95.2 L198.9 95.6 L232.1 94.8 L265.3 93.6 L298.4 92.5 L331.6 92.1 L364.7 92.5 L397.9 94.0 L431.1 96.8 L464.2 100.7 L497.4 105.4 L530.5 110.5 L563.7 115.6 L596.8 119.9 L630.0 123.0" fill="none"/></g></g><path d="M35.0 47.0 v333.0 M35.0 380.0 h630.0" stroke="#999" stroke-width="1.5" fill="none"/></svg>