<svg xmlns="http://www.w3.org/2000/svg" width="500" height="500" viewBox="0 0 500 500"><path fill="white" d="M0 0 h500 v500 h-500 v-500Z"/><text transform="translate(-156.0, 19)" fill="#444444" font-family="Helvetica" font-weight="bold" font-size="16" x="250.0" y="30.0">Monthly Temperature vs CO2 Concentration</text><g><path stroke="#CCCCCC" stroke-dasharray="None" d="M0 0.0 h349.0 M0 70.3 h349.0 M0 140.6 h349.0 M0 210.9 h349.0 M0 281.2 h349.0 M0 351.5 h349.0 M0 351.5 h349.0" transform="translate(91.0, 88.5)"/><g font-size="12" font-family="Helvetica" transform="translate(85.0, 88.5)"><text x="0" y="0.0" transform="translate(-21, -7.0)">400</text><text x="0" y="70.3" transform="translate(-21, -7.0)">320</text><text x="0" y="140.6" transform="translate(-21, -7.0)">240</text><text x="0" y="210.9" transform="translate(-21, -7.0)">160</text><text x="0" y="281.2" transform="translate(-14, -7.0)">80</text><text x="0" y="351.5" transform="translate(-7, -7.0)">0</text></g></g><g><path stroke="#CCCCCC" stroke-dasharray="None" d="M190.36363636363635 0 v351.5 M222.0909090909091 0 v351.5 M253.8181818181818 0 v351.5 M285.54545454545456 0 v351.5 M317.27272727272725 0 v351.5 M349.0 0 v351.5 M380.7272727272727 0 v351.5 M412.4545454545455 0 v351.5 M444.1818181818182 0 v351.5 M475.9090909090909 0 v351.5 M507.6363636363636 0 v351.5 M539.3636363636364 0 v351.5" transform="translate(91.0, 88.5)"/><g font-size="12" font-family="Helvetica" transform="translate(91.0, 106.5)"><text x="190.36363636363635" y="351.5" transform="translate(-10.0, 0)">Jan</text><text x="222.0909090909091" y="351.5" transform="translate(-10.5, 0)">Feb</text><text x="253.8181818181818" y="351.5" transform="translate(-10.5, 0)">Mar</text><text x="285.54545454545456" y="351.5" transform="translate(-9.5, 0)">Apr</text><text x="317.27272727272725" y="351.5" transform="translate(-11.5, 0)">May</text><text x="349.0" y="351.5" transform="translate(-10.0, 0)">Jun</text><text x="380.7272727272727" y="351.5" transform="translate(-8.0, 0)">Jul</text><text x="412.4545454545455" y="351.5" transform="translate(-11.0, 0)">Aug</text><text x="444.1818181818182" y="351.5" transform="translate(-11.0, 0)">Sep</text><text x="475.9090909090909" y="351.5" transform="translate(-9.0, 0)">Oct</text><text x="507.6363636363636" y="351.5" transform="translate(-11.0, 0)">Nov</text><text x="539.3636363636364" y="351.5" transform="translate(-11.0, 0)">Dec</text></g></g><path transform="translate(91.0, 88.5)" d="M190.36363636363635 0 v351.5z" stroke="black"/><g opacity="0.8" transform="translate(-60.0, -60.0) rotate(180, 250.0, 250.0) scale(-1, 1) translate(-349.0, 0)"><g fill="white" stroke="#5fab9e" stroke-width="2"><path d="M222.0909090909091 28.12 L253.8181818181818 30.756249999999998 L285.54545454545456 36.9075 L317.27272727272725 45.695 L349.0 54.4825 L380.72727272727275 63.269999999999996 L412.45454545454544 68.5425 L444.1818181818182 66.785 L475.9090909090909 59.755 L507.6363636363636 48.331250000000004 L539.3636363636364 39.54375 L571.0909090909091 33.3925" fill="none"/><circle cx="222.0909090909091" cy="28.12" r="3"/><circle cx="253.8181818181818" cy="30.756249999999998" r="3"/><circle cx="285.54545454545456" cy="36.9075" r="3"/><circle cx="317.27272727272725" cy="45.695" r="3"/><circle cx="349.0" cy="54.4825" r="3"/><circle cx="380.72727272727275" cy="63.269999999999996" r="3"/><circle cx="412.45454545454544" cy="68.5425" r="3"/><circle cx="444.1818181818182" cy="66.785" r="3"/><circle cx="475.9090909090909" cy="59.755" r="3"/><circle cx="507.6363636363636" cy="48.331250000000004" r="3"/><circle cx="539.3636363636364" cy="39.54375" r="3"/><circle cx="571.0909090909091" cy="33.3925" r="3"/></g><g fill="white" stroke="#f58b51" stroke-width="2"><path d="M222.0909090909091 276.80625 L253.8181818181818 279.4425 L285.54545454545456 282.95750000000004 L317.27272727272725 288.22999999999996 L349.0 294.38125 L380.72727272727275 300.53249999999997 L412.45454545454544 305.805 L444.1818181818182 309.32 L475.9090909090909 305.805 L507.6363636363636 300.53249999999997 L539.3636363636364 294.38125 L571.0909090909091 288.22999999999996" fill="none"/><circle cx="222.0909090909091" cy="276.80625" r="3"/><circle cx="253.8181818181818" cy="279.4425" r="3"/><circle cx="285.54545454545456" cy="282.95750000000004" r="3"/><circle cx="317.27272727272725" cy="288.22999999999996" r="3"/><circle cx="349.0" cy="294.38125" r="3"/><circle cx="380.72727272727275" cy="300.53249999999997" r="3"/><circle cx="412.45454545454544" cy="305.805" r="3"/><circle cx="444.1818181818182" cy="309.32" r="3"/><circle cx="475.9090909090909" cy="305.805" r="3"/><circle cx="507.6363636363636" cy="300.53249999999997" r="3"/><circle cx="539.3636363636364" cy="294.38125" r="3"/><circle cx="571.0909090909091" cy="288.22999999999996" r="3"/></g></g></svg>