<svg xmlns="http://www.w3.org/2000/svg" width="500" height="500" viewBox="0 0 500 500"><path fill="white" d="M0 0 h500 v500 h-500 v-500Z"/><text transform="translate(-86.0, 19)" fill="#444444" font-family="Helvetica" font-weight="bold" font-size="16" x="250.0" y="25.0">Example XY Line Graph</text><g><path stroke="#CCCCCC" stroke-dasharray="None" d="M0 0.0 h365.0 M0 92.875 h365.0 M0 185.75 h365.0 M0 278.625 h365.0 M0 371.5 h365.0 M0 464.375 h365.0 M0 371.5 h365.0" transform="translate(85.0, 78.5)"/><g font-size="12" font-family="Helvetica" transform="translate(79.0, 78.5)"><text x="0" y="0.0" transform="translate(-21, 3.5)">450</text><text x="0" y="92.875" transform="translate(-21, 3.5)">300</text><text x="0" y="185.75" transform="translate(-21, 3.5)">150</text><text x="0" y="278.625" transform="translate(-7, 3.5)">0</text><text x="0" y="371.5" transform="translate(-25, 3.5)">-150</text><text x="0" y="464.375" transform="translate(-25, 3.5)">-300</text></g></g><g><path stroke="#CCCCCC" stroke-dasharray="None" d="M438.0 0 v371.5 M365.0 0 v371.5 M292.0 0 v371.5 M219.0 0 v371.5 M146.0 0 v371.5 M73.0 0 v371.5 M0.0 0 v371.5" transform="translate(85.0, 78.5)"/><g font-size="12" font-family="Helvetica" transform="translate(85.0, 96.5)"><text x="438.0" y="371.5" transform="translate(-3.5, 0)">6</text><text x="365.0" y="371.5" transform="translate(-3.5, 0)">4</text><text x="292.0" y="371.5" transform="translate(-3.5, 0)">2</text><text x="219.0" y="371.5" transform="translate(-3.5, 0)">0</text><text x="146.0" y="371.5" transform="translate(-5.5, 0)">-2</text><text x="73.0" y="371.5" transform="translate(-5.5, 0)">-4</text><text x="0.0" y="371.5" transform="translate(-5.5, 0)">-6</text></g></g><path transform="translate(85.0, 78.5)" d="M219.0 0 v371.5z M0 185.75 h365.0z" stroke="black"/><g opacity="0.8" transform="translate(-50.0, -50.0) rotate(180, 250.0, 250.0) scale(-1, 1) translate(-365.0, 0)"><g fill="white" stroke="#5fab9e" stroke-width="2"><path d="M0.0 188.84583333333333 L36.5 190.39374999999998 L73.0 192.71562500000002 L109.5 196.19843749999998 L146.0 201.42265625000002 L182.5 209.25898437499998 L219.0 221.01347656250002 L255.49999999999997 238.64521484374998 L292.0 265.092822265625 L328.5 304.7642333984375 L365.0 364.27135009765624" fill="none"/><circle cx="0.0" cy="188.84583333333333" r="3"/><circle cx="36.5" cy="190.39374999999998" r="3"/><circle cx="73.0" cy="192.71562500000002" r="3"/><circle cx="109.5" cy="196.19843749999998" r="3"/><circle cx="146.0" cy="201.42265625000002" r="3"/><circle cx="182.5" cy="209.25898437499998" r="3"/><circle cx="219.0" cy="221.01347656250002" r="3"/><circle cx="255.49999999999997" cy="238.64521484374998" r="3"/><circle cx="292.0" cy="265.092822265625" r="3"/><circle cx="328.5" cy="304.7642333984375" r="3"/><circle cx="365.0" cy="364.27135009765624" r="3"/></g><g fill="white" stroke="#f58b51" stroke-width="2"><path d="M0.0 182.65416666666667 L36.5 181.10625 L73.0 178.784375 L109.5 175.3015625 L146.0 170.07734375 L182.5 162.241015625 L219.0 150.4865234375 L255.49999999999997 132.85478515625 L292.0 106.407177734375 L328.5 66.7357666015625 L365.0 7.22864990234375" fill="none"/><circle cx="0.0" cy="182.65416666666667" r="3"/><circle cx="36.5" cy="181.10625" r="3"/><circle cx="73.0" cy="178.784375" r="3"/><circle cx="109.5" cy="175.3015625" r="3"/><circle cx="146.0" cy="170.07734375" r="3"/><circle cx="182.5" cy="162.241015625" r="3"/><circle cx="219.0" cy="150.4865234375" r="3"/><circle cx="255.49999999999997" cy="132.85478515625" r="3"/><circle cx="292.0" cy="106.407177734375" r="3"/><circle cx="328.5" cy="66.7357666015625" r="3"/><circle cx="365.0" cy="7.22864990234375" r="3"/></g></g></svg>