<svg xmlns="http://www.w3.org/2000/svg" width="500" height="500" viewBox="0 0 500 500"><path fill="white" d="M0 0 h500 v500 h-500 v-500Z"/><text transform="translate(-156.0, 19)" fill="#444444" font-family="Helvetica" font-weight="bold" font-size="16" x="250.0" y="12.5">Monthly Temperature vs CO2 Concentration</text><g><path stroke="#CCCCCC" stroke-dasharray="None" d="M0 0.0 h419.0 M0 84.30000000000001 h419.0 M0 168.60000000000002 h419.0 M0 252.89999999999998 h419.0 M0 337.20000000000005 h419.0 M0 421.5 h419.0 M0 421.5 h419.0" transform="translate(56.0, 53.5)"/><g font-size="12" font-family="Helvetica" transform="translate(50.0, 53.5)"><text x="0" y="0.0" transform="translate(-21, -7.0)">400</text><text x="0" y="84.30000000000001" transform="translate(-21, -7.0)">320</text><text x="0" y="168.60000000000002" transform="translate(-21, -7.0)">240</text><text x="0" y="252.89999999999998" transform="translate(-21, -7.0)">160</text><text x="0" y="337.20000000000005" transform="translate(-14, -7.0)">80</text><text x="0" y="421.5" transform="translate(-7, -7.0)">0</text></g></g><g><path stroke="#CCCCCC" stroke-dasharray="None" d="M228.54545454545453 0 v421.5 M266.6363636363636 0 v421.5 M304.72727272727275 0 v421.5 M342.8181818181818 0 v421.5 M380.9090909090909 0 v421.5 M419.0 0 v421.5 M457.09090909090907 0 v421.5 M495.1818181818182 0 v421.5 M533.2727272727273 0 v421.5 M571.3636363636364 0 v421.5 M609.4545454545455 0 v421.5 M647.5454545454545 0 v421.5" transform="translate(56.0, 53.5)"/><g font-size="12" font-family="Helvetica" transform="translate(56.0, 71.5)"><text x="228.54545454545453" y="421.5" transform="translate(-10.0, 0)">Jan</text><text x="266.6363636363636" y="421.5" transform="translate(-10.5, 0)">Feb</text><text x="304.72727272727275" y="421.5" transform="translate(-10.5, 0)">Mar</text><text x="342.8181818181818" y="421.5" transform="translate(-9.5, 0)">Apr</text><text x="380.9090909090909" y="421.5" transform="translate(-11.5, 0)">May</text><text x="419.0" y="421.5" transform="translate(-10.0, 0)">Jun</text><text x="457.09090909090907" y="421.5" transform="translate(-8.0, 0)">Jul</text><text x="495.1818181818182" y="421.5" transform="translate(-11.0, 0)">Aug</text><text x="533.2727272727273" y="421.5" transform="translate(-11.0, 0)">Sep</text><text x="571.3636363636364" y="421.5" transform="translate(-9.0, 0)">Oct</text><text x="609.4545454545455" y="421.5" transform="translate(-11.0, 0)">Nov</text><text x="647.5454545454545" y="421.5" transform="translate(-11.0, 0)">Dec</text></g></g><path transform="translate(56.0, 53.5)" d="M228.54545454545453 0 v421.5z" stroke="black"/><g opacity="0.8" transform="translate(-25.0, -25.0) rotate(180, 250.0, 250.0) scale(-1, 1) translate(-419.0, 0)"><g fill="white" stroke="#5fab9e" stroke-width="2"><path d="M0.0 33.72 L38.09090909090909 36.881249999999994 L76.18181818181819 44.2575 L114.27272727272727 54.795 L152.36363636363637 65.3325 L190.45454545454544 75.86999999999999 L228.54545454545453 82.19250000000001 L266.6363636363636 80.08500000000001 L304.72727272727275 71.655 L342.8181818181818 57.956250000000004 L380.9090909090909 47.41875 L419.0 40.042500000000004" fill="none"/><circle cx="0.0" cy="33.72" r="3"/><circle cx="38.09090909090909" cy="36.881249999999994" r="3"/><circle cx="76.18181818181819" cy="44.2575" r="3"/><circle cx="114.27272727272727" cy="54.795" r="3"/><circle cx="152.36363636363637" cy="65.3325" r="3"/><circle cx="190.45454545454544" cy="75.86999999999999" r="3"/><circle cx="228.54545454545453" cy="82.19250000000001" r="3"/><circle cx="266.6363636363636" cy="80.08500000000001" r="3"/><circle cx="304.72727272727275" cy="71.655" r="3"/><circle cx="342.8181818181818" cy="57.956250000000004" r="3"/><circle cx="380.9090909090909" cy="47.41875" r="3"/><circle cx="419.0" cy="40.042500000000004" r="3"/></g><g fill="white" stroke="#f58b51" stroke-width="2"><path d="M0.0 331.93125 L38.09090909090909 335.09250000000003 L76.18181818181819 339.3075 L114.27272727272727 345.63 L152.36363636363637 353.00625 L190.45454545454544 360.3825 L228.54545454545453 366.705 L266.6363636363636 370.92 L304.72727272727275 366.705 L342.8181818181818 360.3825 L380.9090909090909 353.00625 L419.0 345.63" fill="none"/><circle cx="0.0" cy="331.93125" r="3"/><circle cx="38.09090909090909" cy="335.09250000000003" r="3"/><circle cx="76.18181818181819" cy="339.3075" r="3"/><circle cx="114.27272727272727" cy="345.63" r="3"/><circle cx="152.36363636363637" cy="353.00625" r="3"/><circle cx="190.45454545454544" cy="360.3825" r="3"/><circle cx="228.54545454545453" cy="366.705" r="3"/><circle cx="266.6363636363636" cy="370.92" r="3"/><circle cx="304.72727272727275" cy="366.705" r="3"/><circle cx="342.8181818181818" cy="360.3825" r="3"/><circle cx="380.9090909090909" cy="353.00625" r="3"/><circle cx="419.0" cy="345.63" r="3"/></g></g></svg>