<svg xmlns="http://www.w3.org/2000/svg" width="500" height="500" viewBox="0 0 500 500"><path fill="white" d="M0 0 h500 v500 h-500 v-500Z"/><text transform="translate(-86.0, 4.75)" font-family="Helvetica" font-weight="bold" font-size="16" x="250.0" y="25.0">Example XY Line Graph</text><g><path d="M0 0.0 h400.0 M0 66.66666666666666 h400.0 M0 133.33333333333331 h400.0 M0 199.99999999999997 h400.0 M0 266.66666666666663 h400.0 M0 333.33333333333326 h400.0 M0 399.99999999999994 h400.0" stroke="#CCCCCC" transform="translate(50.0, 50.0)"/><g font-size="12" font-family="Helvetica" transform="translate(44.0, 50.0)"><text x="0" y="0.0" transform="translate(-21, 3.5)">300</text><text x="0" y="66.66666666666666" transform="translate(-21, 3.5)">225</text><text x="0" y="133.33333333333331" transform="translate(-21, 3.5)">150</text><text x="0" y="199.99999999999997" transform="translate(-14, 3.5)">75</text><text x="0" y="266.66666666666663" transform="translate(-7, 3.5)">0</text><text x="0" y="333.33333333333326" transform="translate(-18, 3.5)">-75</text><text x="0" y="399.99999999999994" transform="translate(-25, 3.5)">-150</text></g></g><g><path d="M400.0 0 v400.0 M355.55555555555554 0 v400.0 M311.1111111111111 0 v400.0 M266.66666666666663 0 v400.0 M222.22222222222223 0 v400.0 M177.77777777777777 0 v400.0 M133.33333333333331 0 v400.0 M88.88888888888889 0 v400.0 M44.44444444444444 0 v400.0 M0.0 0 v400.0" stroke="#CCCCCC" transform="translate(50.0, 50.0)"/><g font-size="12" font-family="Helvetica" transform="translate(50.0, 68.0)"><text x="400.0" y="400.0" transform="translate(-3.5, 0)">4</text><text x="355.55555555555554" y="400.0" transform="translate(-3.5, 0)">3</text><text x="311.1111111111111" y="400.0" transform="translate(-3.5, 0)">2</text><text x="266.66666666666663" y="400.0" transform="translate(-3.5, 0)">1</text><text x="222.22222222222223" y="400.0" transform="translate(-3.5, 0)">0</text><text x="177.77777777777777" y="400.0" transform="translate(-5.5, 0)">-1</text><text x="133.33333333333331" y="400.0" transform="translate(-5.5, 0)">-2</text><text x="88.88888888888889" y="400.0" transform="translate(-5.5, 0)">-3</text><text x="44.44444444444444" y="400.0" transform="translate(-5.5, 0)">-4</text><text x="0.0" y="400.0" transform="translate(-5.5, 0)">-5</text></g></g><path transform="translate(50.0, 50.0)" d="M0 266.6666666666667 h400.0z M222.22222222222223 0 v400.0z" stroke="black"/><g opacity="0.8" transform="translate(-50.0, -50.0) rotate(180, 250.0, 250.0) scale(-1, 1) translate(-400.0, 133.33333333333331)"><g fill="white" stroke="#5fab9e" stroke-width="2"><path d="M0.0 44.44444444444444 L222.22222222222223 88.88888888888889 L266.6666666666667 133.33333333333331 L311.1111111111111 177.77777777777777 L355.55555555555554 222.22222222222223 L400.0 266.66666666666663" fill="none"/><circle cx="0.0" cy="44.44444444444444" r="4"/><circle cx="222.22222222222223" cy="88.88888888888889" r="4"/><circle cx="266.6666666666667" cy="133.33333333333331" r="4"/><circle cx="311.1111111111111" cy="177.77777777777777" r="4"/><circle cx="355.55555555555554" cy="222.22222222222223" r="4"/><circle cx="400.0" cy="266.66666666666663" r="4"/></g><g fill="white" stroke="#f58b51" stroke-width="2"><path d="M0.0 -22.22222222222222 L222.22222222222223 -44.44444444444444 L266.6666666666667 -66.66666666666666 L311.1111111111111 -88.88888888888889 L355.55555555555554 -111.11111111111111 L400.0 -133.33333333333331" fill="none"/><circle cx="0.0" cy="-22.22222222222222" r="4"/><circle cx="222.22222222222223" cy="-44.44444444444444" r="4"/><circle cx="266.6666666666667" cy="-66.66666666666666" r="4"/><circle cx="311.1111111111111" cy="-88.88888888888889" r="4"/><circle cx="355.55555555555554" cy="-111.11111111111111" r="4"/><circle cx="400.0" cy="-133.33333333333331" r="4"/></g></g></svg>