<svg xmlns="http://www.w3.org/2000/svg" width="500" height="500" viewBox="0 0 500 500"><path fill="white" d="M0 0 h500 v500 h-500 v-500Z"/><text transform="translate(-156.0, 19)" fill="#444444" font-family="Helvetica" font-weight="bold" font-size="16" x="250.0" y="30.0">Monthly Temperature vs CO2 Concentration</text><g><path stroke="#CCCCCC" stroke-dasharray="None" d="M0 0.0 h349.0 M0 70.3 h349.0 M0 140.6 h349.0 M0 210.9 h349.0 M0 281.2 h349.0 M0 351.5 h349.0 M0 351.5 h349.0" transform="translate(91.0, 88.5)"/><g font-size="12" font-family="Helvetica" transform="translate(85.0, 88.5)"><text x="0" y="0.0" transform="translate(-21, 3.5)">400</text><text x="0" y="70.3" transform="translate(-21, 3.5)">320</text><text x="0" y="140.6" transform="translate(-21, 3.5)">240</text><text x="0" y="210.9" transform="translate(-21, 3.5)">160</text><text x="0" y="281.2" transform="translate(-14, 3.5)">80</text><text x="0" y="351.5" transform="translate(-7, 3.5)">0</text></g></g><g><path stroke="#CCCCCC" stroke-dasharray="None" d="M0.0 0 v351.5 M31.727272727272727 0 v351.5 M63.45454545454545 0 v351.5 M95.18181818181817 0 v351.5 M126.9090909090909 0 v351.5 M158.63636363636363 0 v351.5 M190.36363636363635 0 v351.5 M222.0909090909091 0 v351.5 M253.8181818181818 0 v351.5 M285.54545454545456 0 v351.5 M317.27272727272725 0 v351.5 M349.0 0 v351.5" transform="translate(91.0, 88.5)"/><g font-size="12" font-family="Helvetica" transform="translate(91.0, 106.5)"><text x="0.0" y="351.5" transform="translate(-10.0, 0)">Jan</text><text x="31.727272727272727" y="351.5" transform="translate(-10.5, 0)">Feb</text><text x="63.45454545454545" y="351.5" transform="translate(-10.5, 0)">Mar</text><text x="95.18181818181817" y="351.5" transform="translate(-9.5, 0)">Apr</text><text x="126.9090909090909" y="351.5" transform="translate(-11.5, 0)">May</text><text x="158.63636363636363" y="351.5" transform="translate(-10.0, 0)">Jun</text><text x="190.36363636363635" y="351.5" transform="translate(-8.0, 0)">Jul</text><text x="222.0909090909091" y="351.5" transform="translate(-11.0, 0)">Aug</text><text x="253.8181818181818" y="351.5" transform="translate(-11.0, 0)">Sep</text><text x="285.54545454545456" y="351.5" transform="translate(-9.0, 0)">Oct</text><text x="317.27272727272725" y="351.5" transform="translate(-11.0, 0)">Nov</text><text x="349.0" y="351.5" transform="translate(-11.0, 0)">Dec</text></g></g><g opacity="0.8" transform="translate(-60.0, -60.0) rotate(180, 250.0, 250.0) scale(-1, 1) translate(-349.0, 0)"><g fill="white" stroke="#5fab9e" stroke-width="2"><path d="M0.0 28.12 L31.727272727272727 30.756249999999998 L63.45454545454545 36.9075 L95.18181818181817 45.695 L126.9090909090909 54.4825 L158.63636363636363 63.269999999999996 L190.36363636363635 68.5425 L222.0909090909091 66.785 L253.8181818181818 59.755 L285.54545454545456 48.331250000000004 L317.27272727272725 39.54375 L349.0 33.3925" fill="none"/><circle cx="0.0" cy="28.12" r="3"/><circle cx="31.727272727272727" cy="30.756249999999998" r="3"/><circle cx="63.45454545454545" cy="36.9075" r="3"/><circle cx="95.18181818181817" cy="45.695" r="3"/><circle cx="126.9090909090909" cy="54.4825" r="3"/><circle cx="158.63636363636363" cy="63.269999999999996" r="3"/><circle cx="190.36363636363635" cy="68.5425" r="3"/><circle cx="222.0909090909091" cy="66.785" r="3"/><circle cx="253.8181818181818" cy="59.755" r="3"/><circle cx="285.54545454545456" cy="48.331250000000004" r="3"/><circle cx="317.27272727272725" cy="39.54375" r="3"/><circle cx="349.0" cy="33.3925" r="3"/></g><g fill="white" stroke="#f58b51" stroke-width="2"><path d="M0.0 276.80625 L31.727272727272727 279.4425 L63.45454545454545 282.95750000000004 L95.18181818181817 288.22999999999996 L126.9090909090909 294.38125 L158.63636363636363 300.53249999999997 L190.36363636363635 305.805 L222.0909090909091 309.32 L253.8181818181818 305.805 L285.54545454545456 300.53249999999997 L317.27272727272725 294.38125 L349.0 288.22999999999996" fill="none"/><circle cx="0.0" cy="276.80625" r="3"/><circle cx="31.727272727272727" cy="279.4425" r="3"/><circle cx="63.45454545454545" cy="282.95750000000004" r="3"/><circle cx="95.18181818181817" cy="288.22999999999996" r="3"/><circle cx="126.9090909090909" cy="294.38125" r="3"/><circle cx="158.63636363636363" cy="300.53249999999997" r="3"/><circle cx="190.36363636363635" cy="305.805" r="3"/><circle cx="222.0909090909091" cy="309.32" r="3"/><circle cx="253.8181818181818" cy="305.805" r="3"/><circle cx="285.54545454545456" cy="300.53249999999997" r="3"/><circle cx="317.27272727272725" cy="294.38125" r="3"/><circle cx="349.0" cy="288.22999999999996" r="3"/></g></g></svg>