<svg xmlns="http://www.w3.org/2000/svg" width="600" height="400" viewBox="0 0 600 400"><path fill="#FFFFFF" d="M0 0 h600 v400 h-600 v-400Z"/><text transform="translate(-377.0, 30)" fill="#444444" font-family="JetBrains Mono" font-weight="normal" font-size="16" x="300.0" y="10.0">Temperature Anomaly vs 5-Year Rolling Baseline (1990-2009)</text><defs><clipPath id="plot-clip"><rect x="0" y="0" width="540.0" height="307.5838015129043"/></clipPath></defs><g><path stroke="#CCCCCC" stroke-dasharray="None" d="M0 0.0 h540.0 M0 18.093164794876724 h540.0 M0 36.18632958975345 h540.0 M0 54.279494384630176 h540.0 M0 72.3726591795069 h540.0 M0 90.46582397438362 h540.0 M0 108.55898876926035 h540.0 M0 126.65215356413707 h540.0 M0 144.7453183590138 h540.0 M0 162.8384831538905 h540.0 M0 180.93164794876725 h540.0 M0 199.02481274364396 h540.0 M0 217.1179775385207 h540.0 M0 235.2111423333974 h540.0 M0 253.30430712827413 h540.0 M0 271.3974719231509 h540.0 M0 289.4906367180276 h540.0 M0 307.5838015129043 h540.0" transform="translate(30.0, 65.0)"/><g font-size="12" font-family="Arial" fill="#444444" transform="translate(24.0, 65.0)"><text x="0" y="0.0" transform="translate(-14, 3.5)">70</text><text x="0" y="18.093164794876724" transform="translate(-14, 3.5)">65</text><text x="0" y="36.18632958975345" transform="translate(-14, 3.5)">60</text><text x="0" y="54.279494384630176" transform="translate(-14, 3.5)">55</text><text x="0" y="72.3726591795069" transform="translate(-14, 3.5)">50</text><text x="0" y="90.46582397438362" transform="translate(-14, 3.5)">45</text><text x="0" y="108.55898876926035" transform="translate(-14, 3.5)">40</text><text x="0" y="126.65215356413707" transform="translate(-14, 3.5)">35</text><text x="0" y="144.7453183590138" transform="translate(-14, 3.5)">30</text><text x="0" y="162.8384831538905" transform="translate(-14, 3.5)">25</text><text x="0" y="180.93164794876725" transform="translate(-14, 3.5)">20</text><text x="0" y="199.02481274364396" transform="translate(-14, 3.5)">15</text><text x="0" y="217.1179775385207" transform="translate(-14, 3.5)">10</text><text x="0" y="235.2111423333974" transform="translate(-7, 3.5)">5</text><text x="0" y="253.30430712827413" transform="translate(-7, 3.5)">0</text><text x="0" y="271.3974719231509" transform="translate(-11, 3.5)">-5</text><text x="0" y="289.4906367180276" transform="translate(-18, 3.5)">-10</text><text x="0" y="307.5838015129043" transform="translate(-18, 3.5)">-15</text></g></g><g><path stroke="#CCCCCC" stroke-dasharray="None" d="M0.0 0 v307.5838015129043 M28.421052631578945 0 v307.5838015129043 M56.84210526315789 0 v307.5838015129043 M85.26315789473684 0 v307.5838015129043 M113.68421052631578 0 v307.5838015129043 M142.10526315789474 0 v307.5838015129043 M170.52631578947367 0 v307.5838015129043 M198.94736842105263 0 v307.5838015129043 M227.36842105263156 0 v307.5838015129043 M255.78947368421052 0 v307.5838015129043 M284.2105263157895 0 v307.5838015129043 M312.63157894736844 0 v307.5838015129043 M341.05263157894734 0 v307.5838015129043 M369.4736842105263 0 v307.5838015129043 M397.89473684210526 0 v307.5838015129043 M426.3157894736842 0 v307.5838015129043 M454.7368421052631 0 v307.5838015129043 M483.1578947368421 0 v307.5838015129043 M511.57894736842104 0 v307.5838015129043 M540.0 0 v307.5838015129043" transform="translate(30.0, 65.0)"/><g font-size="12" font-family="Arial" fill="#444444" transform="translate(30.0, 83.0)"><text x="0.0" y="307.5838015129043" transform="translate(-7.0, 0) rotate(15.358885580822717, 0.0, 307.5838015129043)">1990</text><text x="28.421052631578945" y="307.5838015129043" transform="translate(-7.0, 0) rotate(15.358885580822717, 28.421052631578945, 307.5838015129043)">1991</text><text x="56.84210526315789" y="307.5838015129043" transform="translate(-7.0, 0) rotate(15.358885580822717, 56.84210526315789, 307.5838015129043)">1992</text><text x="85.26315789473684" y="307.5838015129043" transform="translate(-7.0, 0) rotate(15.358885580822717, 85.26315789473684, 307.5838015129043)">1993</text><text x="113.68421052631578" y="307.5838015129043" transform="translate(-7.0, 0) rotate(15.358885580822717, 113.68421052631578, 307.5838015129043)">1994</text><text x="142.10526315789474" y="307.5838015129043" transform="translate(-7.0, 0) rotate(15.358885580822717, 142.10526315789474, 307.5838015129043)">1995</text><text x="170.52631578947367" y="307.5838015129043" transform="translate(-7.0, 0) rotate(15.358885580822717, 170.52631578947367, 307.5838015129043)">1996</text><text x="198.94736842105263" y="307.5838015129043" transform="translate(-7.0, 0) rotate(15.358885580822717, 198.94736842105263, 307.5838015129043)">1997</text><text x="227.36842105263156" y="307.5838015129043" transform="translate(-7.0, 0) rotate(15.358885580822717, 227.36842105263156, 307.5838015129043)">1998</text><text x="255.78947368421052" y="307.5838015129043" transform="translate(-7.0, 0) rotate(15.358885580822717, 255.78947368421052, 307.5838015129043)">1999</text><text x="284.2105263157895" y="307.5838015129043" transform="translate(-7.0, 0) rotate(15.358885580822717, 284.2105263157895, 307.5838015129043)">2000</text><text x="312.63157894736844" y="307.5838015129043" transform="translate(-7.0, 0) rotate(15.358885580822717, 312.63157894736844, 307.5838015129043)">2001</text><text x="341.05263157894734" y="307.5838015129043" transform="translate(-7.0, 0) rotate(15.358885580822717, 341.05263157894734, 307.5838015129043)">2002</text><text x="369.4736842105263" y="307.5838015129043" transform="translate(-7.0, 0) rotate(15.358885580822717, 369.4736842105263, 307.5838015129043)">2003</text><text x="397.89473684210526" y="307.5838015129043" transform="translate(-7.0, 0) rotate(15.358885580822717, 397.89473684210526, 307.5838015129043)">2004</text><text x="426.3157894736842" y="307.5838015129043" transform="translate(-7.0, 0) rotate(15.358885580822717, 426.3157894736842, 307.5838015129043)">2005</text><text x="454.7368421052631" y="307.5838015129043" transform="translate(-7.0, 0) rotate(15.358885580822717, 454.7368421052631, 307.5838015129043)">2006</text><text x="483.1578947368421" y="307.5838015129043" transform="translate(-7.0, 0) rotate(15.358885580822717, 483.1578947368421, 307.5838015129043)">2007</text><text x="511.57894736842104" y="307.5838015129043" transform="translate(-7.0, 0) rotate(15.358885580822717, 511.57894736842104, 307.5838015129043)">2008</text><text x="540.0" y="307.5838015129043" transform="translate(-7.0, 0) rotate(15.358885580822717, 540.0, 307.5838015129043)">2009</text></g></g><path transform="translate(30.0, 65.0)" d="M0 253.3 h540.0z" stroke="black"/><g opacity="0.8" transform="translate(-30.0, -27.416198487095663) rotate(180, 300.0, 200.0) scale(-1, 1) translate(-540.0, 0)"><g fill="white" stroke="#5fab9e" stroke-width="2"><path d="M0.0 0.0 L28.4 36.2 L56.8 90.5 L85.3 126.7 L113.7 72.4 L142.1 144.7 L170.5 108.6 L198.9 162.8 L227.4 90.5 L255.8 126.7 L284.2 199.0 L312.6 144.7 L341.1 217.1 L369.5 162.8 L397.9 235.2 L426.3 180.9 L454.7 271.4 L483.2 253.3 L511.6 217.1 L540.0 307.6" fill="none"/></g><g fill="white" stroke="#f58b51" stroke-width="2"><path d="M0.0 72.4 L28.4 77.1 L56.8 81.1 L85.3 84.7 L113.7 86.8 L142.1 87.9 L170.5 88.3 L198.9 87.6 L227.4 86.5 L255.8 85.4 L284.2 85.0 L312.6 85.4 L341.1 86.8 L369.5 89.4 L397.9 93.0 L426.3 97.3 L454.7 102.0 L483.2 106.7 L511.6 110.7 L540.0 113.6" fill="none"/></g></g><path d="M30.0 65.0 v307.5838015129043 M30.0 372.5838015129043 h540.0" stroke="#999" stroke-width="1.5" fill="none"/></svg>