<svg xmlns="http://www.w3.org/2000/svg" width="500" height="500" viewBox="0 0 500 500"><path fill="white" d="M0 0 h500 v500 h-500 v-500Z"/><text transform="translate(-156.0, 19)" fill="#444444" font-family="Helvetica" font-weight="bold" font-size="16" x="250.0" y="30.0">Monthly Temperature vs CO2 Concentration</text><g><path stroke="#CCCCCC" stroke-dasharray="None" d="M0 351.5 h359.0 M0 281.2 h359.0 M0 210.9 h359.0 M0 140.6 h359.0 M0 70.3 h359.0 M0 0.0 h359.0" transform="translate(81.0, 88.5)"/><g font-size="12" font-family="Helvetica" transform="translate(81.0, 88.5)"><text x="0" y="351.5" transform="translate(-6, -7.0)">400</text><text x="0" y="281.2" transform="translate(-6, -7.0)">320</text><text x="0" y="210.9" transform="translate(-6, -7.0)">240</text><text x="0" y="140.6" transform="translate(-6, -7.0)">160</text><text x="0" y="70.3" transform="translate(-6, -7.0)">80</text><text x="0" y="0.0" transform="translate(-6, -7.0)">0</text></g></g><g><path stroke="#CCCCCC" stroke-dasharray="None" d="M195.8181818181818 0 v351.5 M228.45454545454544 0 v351.5 M261.0909090909091 0 v351.5 M293.72727272727275 0 v351.5 M326.3636363636364 0 v351.5 M359.0 0 v351.5 M391.6363636363636 0 v351.5 M424.2727272727273 0 v351.5 M456.9090909090909 0 v351.5 M489.5454545454545 0 v351.5 M522.1818181818182 0 v351.5 M554.8181818181818 0 v351.5" transform="translate(81.0, 88.5)"/><g font-size="12" font-family="Helvetica" transform="translate(81.0, 106.5)"><text x="195.8181818181818" y="351.5" transform="translate(-10.0, 0)">Jan</text><text x="228.45454545454544" y="351.5" transform="translate(-10.5, 0)">Feb</text><text x="261.0909090909091" y="351.5" transform="translate(-10.5, 0)">Mar</text><text x="293.72727272727275" y="351.5" transform="translate(-9.5, 0)">Apr</text><text x="326.3636363636364" y="351.5" transform="translate(-11.5, 0)">May</text><text x="359.0" y="351.5" transform="translate(-10.0, 0)">Jun</text><text x="391.6363636363636" y="351.5" transform="translate(-8.0, 0)">Jul</text><text x="424.2727272727273" y="351.5" transform="translate(-11.0, 0)">Aug</text><text x="456.9090909090909" y="351.5" transform="translate(-11.0, 0)">Sep</text><text x="489.5454545454545" y="351.5" transform="translate(-9.0, 0)">Oct</text><text x="522.1818181818182" y="351.5" transform="translate(-11.0, 0)">Nov</text><text x="554.8181818181818" y="351.5" transform="translate(-11.0, 0)">Dec</text></g></g><path transform="translate(81.0, 88.5)" d="M195.8181818181818 0 v351.5z" stroke="black"/><g opacity="0.8" transform="translate(-60.0, -60.0) rotate(180, 250.0, 250.0) scale(-1, 1) translate(-359.0, 0)"><g fill="white" stroke="#5fab9e" stroke-width="2"><path d="M0.0 28.12 L32.63636363636364 30.756249999999998 L65.27272727272728 36.9075 L97.9090909090909 45.695 L130.54545454545456 54.4825 L163.1818181818182 63.269999999999996 L195.8181818181818 68.5425 L228.45454545454544 66.785 L261.0909090909091 59.755 L293.72727272727275 48.331250000000004 L326.3636363636364 39.54375 L359.0 33.3925" fill="none"/><circle cx="0.0" cy="28.12" r="3"/><circle cx="32.63636363636364" cy="30.756249999999998" r="3"/><circle cx="65.27272727272728" cy="36.9075" r="3"/><circle cx="97.9090909090909" cy="45.695" r="3"/><circle cx="130.54545454545456" cy="54.4825" r="3"/><circle cx="163.1818181818182" cy="63.269999999999996" r="3"/><circle cx="195.8181818181818" cy="68.5425" r="3"/><circle cx="228.45454545454544" cy="66.785" r="3"/><circle cx="261.0909090909091" cy="59.755" r="3"/><circle cx="293.72727272727275" cy="48.331250000000004" r="3"/><circle cx="326.3636363636364" cy="39.54375" r="3"/><circle cx="359.0" cy="33.3925" r="3"/></g><g fill="white" stroke="#f58b51" stroke-width="2"><path d="M0.0 276.80625 L32.63636363636364 279.4425 L65.27272727272728 282.95750000000004 L97.9090909090909 288.22999999999996 L130.54545454545456 294.38125 L163.1818181818182 300.53249999999997 L195.8181818181818 305.805 L228.45454545454544 309.32 L261.0909090909091 305.805 L293.72727272727275 300.53249999999997 L326.3636363636364 294.38125 L359.0 288.22999999999996" fill="none"/><circle cx="0.0" cy="276.80625" r="3"/><circle cx="32.63636363636364" cy="279.4425" r="3"/><circle cx="65.27272727272728" cy="282.95750000000004" r="3"/><circle cx="97.9090909090909" cy="288.22999999999996" r="3"/><circle cx="130.54545454545456" cy="294.38125" r="3"/><circle cx="163.1818181818182" cy="300.53249999999997" r="3"/><circle cx="195.8181818181818" cy="305.805" r="3"/><circle cx="228.45454545454544" cy="309.32" r="3"/><circle cx="261.0909090909091" cy="305.805" r="3"/><circle cx="293.72727272727275" cy="300.53249999999997" r="3"/><circle cx="326.3636363636364" cy="294.38125" r="3"/><circle cx="359.0" cy="288.22999999999996" r="3"/></g></g></svg>