<svg xmlns="http://www.w3.org/2000/svg" width="700" height="400" viewBox="0 0 700 400"><path fill="white" d="M0 0 h700 v400 h-700 v-400Z"/><text transform="translate(-168.0, 19)" fill="#444444" font-family="Helvetica" font-weight="bold" font-size="16" x="350.0" y="10.0">Temperature Anomaly vs Baseline (1990-2009)</text><g><path stroke="#CCCCCC" stroke-dasharray="None" d="M0 0.0 h602.0 M0 19.5 h602.0 M0 39.0 h602.0 M0 58.50000000000001 h602.0 M0 78.0 h602.0 M0 97.5 h602.0 M0 117.00000000000001 h602.0 M0 136.5 h602.0 M0 156.0 h602.0 M0 175.5 h602.0 M0 195.0 h602.0 M0 214.5 h602.0 M0 234.00000000000003 h602.0 M0 253.49999999999997 h602.0 M0 273.0 h602.0 M0 292.5 h602.0 M0 312.0 h602.0 M0 331.5 h602.0" transform="translate(63.0, 48.5)"/><g font-size="12" font-family="Helvetica" transform="translate(57.0, 48.5)"><text x="0" y="0.0" transform="translate(-14, 3.5)">70</text><text x="0" y="19.5" transform="translate(-14, 3.5)">65</text><text x="0" y="39.0" transform="translate(-14, 3.5)">60</text><text x="0" y="58.50000000000001" transform="translate(-14, 3.5)">55</text><text x="0" y="78.0" transform="translate(-14, 3.5)">50</text><text x="0" y="97.5" transform="translate(-14, 3.5)">45</text><text x="0" y="117.00000000000001" transform="translate(-14, 3.5)">40</text><text x="0" y="136.5" transform="translate(-14, 3.5)">35</text><text x="0" y="156.0" transform="translate(-14, 3.5)">30</text><text x="0" y="175.5" transform="translate(-14, 3.5)">25</text><text x="0" y="195.0" transform="translate(-14, 3.5)">20</text><text x="0" y="214.5" transform="translate(-14, 3.5)">15</text><text x="0" y="234.00000000000003" transform="translate(-14, 3.5)">10</text><text x="0" y="253.49999999999997" transform="translate(-7, 3.5)">5</text><text x="0" y="273.0" transform="translate(-7, 3.5)">0</text><text x="0" y="292.5" transform="translate(-11, 3.5)">-5</text><text x="0" y="312.0" transform="translate(-18, 3.5)">-10</text><text x="0" y="331.5" transform="translate(-18, 3.5)">-15</text></g></g><g><path stroke="#CCCCCC" stroke-dasharray="None" d="M0.0 0 v331.5 M31.684210526315788 0 v331.5 M63.368421052631575 0 v331.5 M95.05263157894737 0 v331.5 M126.73684210526315 0 v331.5 M158.42105263157893 0 v331.5 M190.10526315789474 0 v331.5 M221.78947368421052 0 v331.5 M253.4736842105263 0 v331.5 M285.1578947368421 0 v331.5 M316.84210526315786 0 v331.5 M348.5263157894737 0 v331.5 M380.2105263157895 0 v331.5 M411.89473684210526 0 v331.5 M443.57894736842104 0 v331.5 M475.2631578947368 0 v331.5 M506.9473684210526 0 v331.5 M538.6315789473684 0 v331.5 M570.3157894736842 0 v331.5 M602.0 0 v331.5" transform="translate(63.0, 48.5)"/><g font-size="12" font-family="Helvetica" transform="translate(63.0, 66.5)"><text x="0.0" y="331.5" transform="translate(-14.0, 0)">1990</text><text x="31.684210526315788" y="331.5" transform="translate(-14.0, 0)">1991</text><text x="63.368421052631575" y="331.5" transform="translate(-14.0, 0)">1992</text><text x="95.05263157894737" y="331.5" transform="translate(-14.0, 0)">1993</text><text x="126.73684210526315" y="331.5" transform="translate(-14.0, 0)">1994</text><text x="158.42105263157893" y="331.5" transform="translate(-14.0, 0)">1995</text><text x="190.10526315789474" y="331.5" transform="translate(-14.0, 0)">1996</text><text x="221.78947368421052" y="331.5" transform="translate(-14.0, 0)">1997</text><text x="253.4736842105263" y="331.5" transform="translate(-14.0, 0)">1998</text><text x="285.1578947368421" y="331.5" transform="translate(-14.0, 0)">1999</text><text x="316.84210526315786" y="331.5" transform="translate(-14.0, 0)">2000</text><text x="348.5263157894737" y="331.5" transform="translate(-14.0, 0)">2001</text><text x="380.2105263157895" y="331.5" transform="translate(-14.0, 0)">2002</text><text x="411.89473684210526" y="331.5" transform="translate(-14.0, 0)">2003</text><text x="443.57894736842104" y="331.5" transform="translate(-14.0, 0)">2004</text><text x="475.2631578947368" y="331.5" transform="translate(-14.0, 0)">2005</text><text x="506.9473684210526" y="331.5" transform="translate(-14.0, 0)">2006</text><text x="538.6315789473684" y="331.5" transform="translate(-14.0, 0)">2007</text><text x="570.3157894736842" y="331.5" transform="translate(-14.0, 0)">2008</text><text x="602.0" y="331.5" transform="translate(-14.0, 0)">2009</text></g></g><path transform="translate(63.0, 48.5)" d="M0 273.0 h602.0z" stroke="black"/><g opacity="0.8" transform="translate(-35.0, -20.0) rotate(180, 350.0, 200.0) scale(-1, 1) translate(-602.0, 0)"><g fill="white" stroke="#5fab9e" stroke-width="2"><path d="M0.0 0.0 L31.684210526315788 39.0 L63.368421052631575 97.5 L95.05263157894737 136.5 L126.73684210526315 78.0 L158.42105263157893 156.0 L190.10526315789474 117.00000000000001 L221.78947368421052 175.5 L253.4736842105263 97.5 L285.1578947368421 136.5 L316.84210526315786 214.5 L348.5263157894737 156.0 L380.2105263157895 234.00000000000003 L411.89473684210526 175.5 L443.57894736842104 253.49999999999997 L475.2631578947368 195.0 L506.9473684210526 292.5 L538.6315789473684 273.0 L570.3157894736842 234.00000000000003 L602.0 331.5" fill="none"/><circle cx="0.0" cy="0.0" r="3"/><circle cx="31.684210526315788" cy="39.0" r="3"/><circle cx="63.368421052631575" cy="97.5" r="3"/><circle cx="95.05263157894737" cy="136.5" r="3"/><circle cx="126.73684210526315" cy="78.0" r="3"/><circle cx="158.42105263157893" cy="156.0" r="3"/><circle cx="190.10526315789474" cy="117.00000000000001" r="3"/><circle cx="221.78947368421052" cy="175.5" r="3"/><circle cx="253.4736842105263" cy="97.5" r="3"/><circle cx="285.1578947368421" cy="136.5" r="3"/><circle cx="316.84210526315786" cy="214.5" r="3"/><circle cx="348.5263157894737" cy="156.0" r="3"/><circle cx="380.2105263157895" cy="234.00000000000003" r="3"/><circle cx="411.89473684210526" cy="175.5" r="3"/><circle cx="443.57894736842104" cy="253.49999999999997" r="3"/><circle cx="475.2631578947368" cy="195.0" r="3"/><circle cx="506.9473684210526" cy="292.5" r="3"/><circle cx="538.6315789473684" cy="273.0" r="3"/><circle cx="570.3157894736842" cy="234.00000000000003" r="3"/><circle cx="602.0" cy="331.5" r="3"/></g><g fill="white" stroke="#f58b51" stroke-width="2"><path d="M0.0 58.50000000000001 L31.684210526315788 58.50000000000001 L63.368421052631575 58.50000000000001 L95.05263157894737 58.50000000000001 L126.73684210526315 58.50000000000001 L158.42105263157893 58.50000000000001 L190.10526315789474 58.50000000000001 L221.78947368421052 58.50000000000001 L253.4736842105263 58.50000000000001 L285.1578947368421 58.50000000000001 L316.84210526315786 58.50000000000001 L348.5263157894737 58.50000000000001 L380.2105263157895 58.50000000000001 L411.89473684210526 58.50000000000001 L443.57894736842104 58.50000000000001 L475.2631578947368 58.50000000000001 L506.9473684210526 58.50000000000001 L538.6315789473684 58.50000000000001 L570.3157894736842 58.50000000000001 L602.0 58.50000000000001" fill="none"/><circle cx="0.0" cy="58.50000000000001" r="3"/><circle cx="31.684210526315788" cy="58.50000000000001" r="3"/><circle cx="63.368421052631575" cy="58.50000000000001" r="3"/><circle cx="95.05263157894737" cy="58.50000000000001" r="3"/><circle cx="126.73684210526315" cy="58.50000000000001" r="3"/><circle cx="158.42105263157893" cy="58.50000000000001" r="3"/><circle cx="190.10526315789474" cy="58.50000000000001" r="3"/><circle cx="221.78947368421052" cy="58.50000000000001" r="3"/><circle cx="253.4736842105263" cy="58.50000000000001" r="3"/><circle cx="285.1578947368421" cy="58.50000000000001" r="3"/><circle cx="316.84210526315786" cy="58.50000000000001" r="3"/><circle cx="348.5263157894737" cy="58.50000000000001" r="3"/><circle cx="380.2105263157895" cy="58.50000000000001" r="3"/><circle cx="411.89473684210526" cy="58.50000000000001" r="3"/><circle cx="443.57894736842104" cy="58.50000000000001" r="3"/><circle cx="475.2631578947368" cy="58.50000000000001" r="3"/><circle cx="506.9473684210526" cy="58.50000000000001" r="3"/><circle cx="538.6315789473684" cy="58.50000000000001" r="3"/><circle cx="570.3157894736842" cy="58.50000000000001" r="3"/><circle cx="602.0" cy="58.50000000000001" r="3"/></g></g></svg>