<svg xmlns="http://www.w3.org/2000/svg" width="600" height="400" viewBox="0 0 600 400"><path fill="#FFFFFF" d="M0 0 h600 v400 h-600 v-400Z"/><text transform="translate(-229.5, 18)" fill="#444444" font-family="Arial" font-weight="normal" font-size="16" x="300.0" y="10.0">Temperature Anomaly vs 5-Year Rolling Baseline (1990-2009)</text><defs><clipPath id="plot-clip"><rect x="0" y="0" width="540.0" height="325.5838015129043"/></clipPath></defs><g><path stroke="#CCCCCC" stroke-dasharray="None" d="M0 0.0 h540.0 M0 19.15198832428849 h540.0 M0 38.30397664857698 h540.0 M0 57.455964972865466 h540.0 M0 76.60795329715395 h540.0 M0 95.75994162144245 h540.0 M0 114.91192994573093 h540.0 M0 134.0639182700194 h540.0 M0 153.2159065943079 h540.0 M0 172.3678949185964 h540.0 M0 191.5198832428849 h540.0 M0 210.67187156717338 h540.0 M0 229.82385989146186 h540.0 M0 248.97584821575032 h540.0 M0 268.1278365400388 h540.0 M0 287.27982486432734 h540.0 M0 306.4318131886158 h540.0 M0 325.5838015129043 h540.0" transform="translate(30.0, 47.0)"/><g font-size="12" font-family="Arial" fill="#444444" transform="translate(24.0, 47.0)"><text x="0" y="0.0" transform="translate(-14, 3.5)">70</text><text x="0" y="19.15198832428849" transform="translate(-14, 3.5)">65</text><text x="0" y="38.30397664857698" transform="translate(-14, 3.5)">60</text><text x="0" y="57.455964972865466" transform="translate(-14, 3.5)">55</text><text x="0" y="76.60795329715395" transform="translate(-14, 3.5)">50</text><text x="0" y="95.75994162144245" transform="translate(-14, 3.5)">45</text><text x="0" y="114.91192994573093" transform="translate(-14, 3.5)">40</text><text x="0" y="134.0639182700194" transform="translate(-14, 3.5)">35</text><text x="0" y="153.2159065943079" transform="translate(-14, 3.5)">30</text><text x="0" y="172.3678949185964" transform="translate(-14, 3.5)">25</text><text x="0" y="191.5198832428849" transform="translate(-14, 3.5)">20</text><text x="0" y="210.67187156717338" transform="translate(-14, 3.5)">15</text><text x="0" y="229.82385989146186" transform="translate(-14, 3.5)">10</text><text x="0" y="248.97584821575032" transform="translate(-7, 3.5)">5</text><text x="0" y="268.1278365400388" transform="translate(-7, 3.5)">0</text><text x="0" y="287.27982486432734" transform="translate(-11, 3.5)">-5</text><text x="0" y="306.4318131886158" transform="translate(-18, 3.5)">-10</text><text x="0" y="325.5838015129043" transform="translate(-18, 3.5)">-15</text></g></g><g><path stroke="#CCCCCC" stroke-dasharray="None" d="M0.0 0 v325.5838015129043 M28.421052631578945 0 v325.5838015129043 M56.84210526315789 0 v325.5838015129043 M85.26315789473684 0 v325.5838015129043 M113.68421052631578 0 v325.5838015129043 M142.10526315789474 0 v325.5838015129043 M170.52631578947367 0 v325.5838015129043 M198.94736842105263 0 v325.5838015129043 M227.36842105263156 0 v325.5838015129043 M255.78947368421052 0 v325.5838015129043 M284.2105263157895 0 v325.5838015129043 M312.63157894736844 0 v325.5838015129043 M341.05263157894734 0 v325.5838015129043 M369.4736842105263 0 v325.5838015129043 M397.89473684210526 0 v325.5838015129043 M426.3157894736842 0 v325.5838015129043 M454.7368421052631 0 v325.5838015129043 M483.1578947368421 0 v325.5838015129043 M511.57894736842104 0 v325.5838015129043 M540.0 0 v325.5838015129043" transform="translate(30.0, 47.0)"/><g font-size="12" font-family="Arial" fill="#444444" transform="translate(30.0, 65.0)"><text x="0.0" y="325.5838015129043" transform="translate(-7.0, 0) rotate(15.358885580822717, 0.0, 325.5838015129043)">1990</text><text x="28.421052631578945" y="325.5838015129043" transform="translate(-7.0, 0) rotate(15.358885580822717, 28.421052631578945, 325.5838015129043)">1991</text><text x="56.84210526315789" y="325.5838015129043" transform="translate(-7.0, 0) rotate(15.358885580822717, 56.84210526315789, 325.5838015129043)">1992</text><text x="85.26315789473684" y="325.5838015129043" transform="translate(-7.0, 0) rotate(15.358885580822717, 85.26315789473684, 325.5838015129043)">1993</text><text x="113.68421052631578" y="325.5838015129043" transform="translate(-7.0, 0) rotate(15.358885580822717, 113.68421052631578, 325.5838015129043)">1994</text><text x="142.10526315789474" y="325.5838015129043" transform="translate(-7.0, 0) rotate(15.358885580822717, 142.10526315789474, 325.5838015129043)">1995</text><text x="170.52631578947367" y="325.5838015129043" transform="translate(-7.0, 0) rotate(15.358885580822717, 170.52631578947367, 325.5838015129043)">1996</text><text x="198.94736842105263" y="325.5838015129043" transform="translate(-7.0, 0) rotate(15.358885580822717, 198.94736842105263, 325.5838015129043)">1997</text><text x="227.36842105263156" y="325.5838015129043" transform="translate(-7.0, 0) rotate(15.358885580822717, 227.36842105263156, 325.5838015129043)">1998</text><text x="255.78947368421052" y="325.5838015129043" transform="translate(-7.0, 0) rotate(15.358885580822717, 255.78947368421052, 325.5838015129043)">1999</text><text x="284.2105263157895" y="325.5838015129043" transform="translate(-7.0, 0) rotate(15.358885580822717, 284.2105263157895, 325.5838015129043)">2000</text><text x="312.63157894736844" y="325.5838015129043" transform="translate(-7.0, 0) rotate(15.358885580822717, 312.63157894736844, 325.5838015129043)">2001</text><text x="341.05263157894734" y="325.5838015129043" transform="translate(-7.0, 0) rotate(15.358885580822717, 341.05263157894734, 325.5838015129043)">2002</text><text x="369.4736842105263" y="325.5838015129043" transform="translate(-7.0, 0) rotate(15.358885580822717, 369.4736842105263, 325.5838015129043)">2003</text><text x="397.89473684210526" y="325.5838015129043" transform="translate(-7.0, 0) rotate(15.358885580822717, 397.89473684210526, 325.5838015129043)">2004</text><text x="426.3157894736842" y="325.5838015129043" transform="translate(-7.0, 0) rotate(15.358885580822717, 426.3157894736842, 325.5838015129043)">2005</text><text x="454.7368421052631" y="325.5838015129043" transform="translate(-7.0, 0) rotate(15.358885580822717, 454.7368421052631, 325.5838015129043)">2006</text><text x="483.1578947368421" y="325.5838015129043" transform="translate(-7.0, 0) rotate(15.358885580822717, 483.1578947368421, 325.5838015129043)">2007</text><text x="511.57894736842104" y="325.5838015129043" transform="translate(-7.0, 0) rotate(15.358885580822717, 511.57894736842104, 325.5838015129043)">2008</text><text x="540.0" y="325.5838015129043" transform="translate(-7.0, 0) rotate(15.358885580822717, 540.0, 325.5838015129043)">2009</text></g></g><path transform="translate(30.0, 47.0)" d="M0 268.1 h540.0z" stroke="black"/><g opacity="0.8" transform="translate(-30.0, -27.416198487095663) rotate(180, 300.0, 200.0) scale(-1, 1) translate(-540.0, 0)"><g fill="white" stroke="#5fab9e" stroke-width="2"><path d="M0.0 0.0 L28.4 38.3 L56.8 95.8 L85.3 134.1 L113.7 76.6 L142.1 153.2 L170.5 114.9 L198.9 172.4 L227.4 95.8 L255.8 134.1 L284.2 210.7 L312.6 153.2 L341.1 229.8 L369.5 172.4 L397.9 249.0 L426.3 191.5 L454.7 287.3 L483.2 268.1 L511.6 229.8 L540.0 325.6" fill="none"/></g><g fill="white" stroke="#f58b51" stroke-width="2"><path d="M0.0 76.6 L28.4 81.6 L56.8 85.8 L85.3 89.6 L113.7 91.9 L142.1 93.1 L170.5 93.5 L198.9 92.7 L227.4 91.5 L255.8 90.4 L284.2 90.0 L312.6 90.4 L341.1 91.9 L369.5 94.6 L397.9 98.4 L426.3 103.0 L454.7 108.0 L483.2 113.0 L511.6 117.2 L540.0 120.3" fill="none"/></g></g><path d="M30.0 47.0 v325.5838015129043 M30.0 372.5838015129043 h540.0" stroke="#999" stroke-width="1.5" fill="none"/></svg>