<svg xmlns="http://www.w3.org/2000/svg" width="500" height="500" viewBox="0 0 500 500"><path fill="white" d="M0 0 h500 v500 h-500 v-500Z"/><text transform="translate(-86.0, 4.75)" font-family="Helvetica" font-weight="bold" font-size="16" x="250.0" y="12.5">Example XY Line Graph</text><g><path stroke="#CCCCCC" stroke-dasharray="None" d="M0 0.0 h419.0 M0 75.0 h419.0 M0 150.0 h419.0 M0 225.0 h419.0 M0 300.0 h419.0 M0 375.0 h419.0 M0 450.0 h419.0" transform="translate(56.0, 25.0)"/><g font-size="12" font-family="Helvetica" transform="translate(50.0, 25.0)"><text x="0" y="0.0" transform="translate(-21, 3.5)">300</text><text x="0" y="75.0" transform="translate(-21, 3.5)">200</text><text x="0" y="150.0" transform="translate(-21, 3.5)">100</text><text x="0" y="225.0" transform="translate(-7, 3.5)">0</text><text x="0" y="300.0" transform="translate(-25, 3.5)">-100</text><text x="0" y="375.0" transform="translate(-25, 3.5)">-200</text><text x="0" y="450.0" transform="translate(-25, 3.5)">-300</text></g></g><g><path stroke="#CCCCCC" stroke-dasharray="None" d="M419.0 0 v450.0 M377.1 0 v450.0 M335.20000000000005 0 v450.0 M293.29999999999995 0 v450.0 M251.39999999999998 0 v450.0 M209.5 0 v450.0 M167.60000000000002 0 v450.0 M125.69999999999999 0 v450.0 M83.80000000000001 0 v450.0 M41.900000000000006 0 v450.0 M0.0 0 v450.0" transform="translate(56.0, 25.0)"/><g font-size="12" font-family="Helvetica" transform="translate(56.0, 43.0)"><text x="419.0" y="450.0" transform="translate(-3.5, 0)">4</text><text x="377.1" y="450.0" transform="translate(-3.5, 0)">3</text><text x="335.20000000000005" y="450.0" transform="translate(-3.5, 0)">2</text><text x="293.29999999999995" y="450.0" transform="translate(-3.5, 0)">1</text><text x="251.39999999999998" y="450.0" transform="translate(-3.5, 0)">0</text><text x="209.5" y="450.0" transform="translate(-5.5, 0)">-1</text><text x="167.60000000000002" y="450.0" transform="translate(-5.5, 0)">-2</text><text x="125.69999999999999" y="450.0" transform="translate(-5.5, 0)">-3</text><text x="83.80000000000001" y="450.0" transform="translate(-5.5, 0)">-4</text><text x="41.900000000000006" y="450.0" transform="translate(-5.5, 0)">-5</text><text x="0.0" y="450.0" transform="translate(-5.5, 0)">-6</text></g></g><path transform="translate(56.0, 25.0)" d="M251.39999999999998 0 v450.0z M0 225.0 h419.0z" stroke="black"/><g opacity="0.8" transform="translate(-25.0, -25.0) rotate(180, 250.0, 250.0) scale(-1, 1) translate(-419.0, 0)"><g fill="white" stroke="#5fab9e" stroke-width="2"><path d="M0.0 228.75 L41.900000000000006 230.62499999999997 L83.80000000000001 233.43750000000003 L125.69999999999999 237.65624999999997 L167.60000000000002 243.98437500000003 L209.5 253.47656249999997 L251.39999999999998 267.71484375 L293.29999999999995 289.072265625 L335.20000000000005 321.1083984375 L377.1 369.16259765625 L419.0 441.243896484375" fill="none"/><circle cx="0.0" cy="228.75" r="3"/><circle cx="41.900000000000006" cy="230.62499999999997" r="3"/><circle cx="83.80000000000001" cy="233.43750000000003" r="3"/><circle cx="125.69999999999999" cy="237.65624999999997" r="3"/><circle cx="167.60000000000002" cy="243.98437500000003" r="3"/><circle cx="209.5" cy="253.47656249999997" r="3"/><circle cx="251.39999999999998" cy="267.71484375" r="3"/><circle cx="293.29999999999995" cy="289.072265625" r="3"/><circle cx="335.20000000000005" cy="321.1083984375" r="3"/><circle cx="377.1" cy="369.16259765625" r="3"/><circle cx="419.0" cy="441.243896484375" r="3"/></g><g fill="white" stroke="#f58b51" stroke-width="2"><path d="M0.0 221.25 L41.900000000000006 219.375 L83.80000000000001 216.5625 L125.69999999999999 212.34375 L167.60000000000002 206.015625 L209.5 196.5234375 L251.39999999999998 182.28515625 L293.29999999999995 160.927734375 L335.20000000000005 128.8916015625 L377.1 80.83740234375 L419.0 8.756103515625" fill="none"/><circle cx="0.0" cy="221.25" r="3"/><circle cx="41.900000000000006" cy="219.375" r="3"/><circle cx="83.80000000000001" cy="216.5625" r="3"/><circle cx="125.69999999999999" cy="212.34375" r="3"/><circle cx="167.60000000000002" cy="206.015625" r="3"/><circle cx="209.5" cy="196.5234375" r="3"/><circle cx="251.39999999999998" cy="182.28515625" r="3"/><circle cx="293.29999999999995" cy="160.927734375" r="3"/><circle cx="335.20000000000005" cy="128.8916015625" r="3"/><circle cx="377.1" cy="80.83740234375" r="3"/><circle cx="419.0" cy="8.756103515625" r="3"/></g></g></svg>