<svg xmlns="http://www.w3.org/2000/svg" width="500" height="500" viewBox="0 0 500 500"><path fill="white" d="M0 0 h500 v500 h-500 v-500Z"/><text transform="translate(-86.0, 4.75)" font-family="Helvetica" font-weight="bold" font-size="16" x="250.0" y="25.0">Example XY Line Graph</text><g><path d="M0 0.0 h400.0 M0 66.66666666666666 h400.0 M0 133.33333333333331 h400.0 M0 200.0 h400.0 M0 266.66666666666663 h400.0 M0 333.33333333333337 h400.0 M0 400.0 h400.0" stroke="#CCCCCC" transform="translate(50.0, 50.0)"/><g font-size="12" font-family="Helvetica" transform="translate(44.0, 50.0)"><text x="0" y="0.0" transform="translate(-21, 3.5)">300</text><text x="0" y="66.66666666666666" transform="translate(-21, 3.5)">200</text><text x="0" y="133.33333333333331" transform="translate(-21, 3.5)">100</text><text x="0" y="200.0" transform="translate(-7, 3.5)">0</text><text x="0" y="266.66666666666663" transform="translate(-25, 3.5)">-100</text><text x="0" y="333.33333333333337" transform="translate(-25, 3.5)">-200</text><text x="0" y="400.0" transform="translate(-25, 3.5)">-300</text></g></g><g><path d="M400.0 0 v400.0 M360.0 0 v400.0 M320.0 0 v400.0 M280.0 0 v400.0 M240.0 0 v400.0 M200.0 0 v400.0 M160.0 0 v400.0 M120.0 0 v400.0 M80.0 0 v400.0 M40.0 0 v400.0 M0.0 0 v400.0" stroke="#CCCCCC" transform="translate(50.0, 50.0)"/><g font-size="12" font-family="Helvetica" transform="translate(50.0, 68.0)"><text x="400.0" y="400.0" transform="translate(-3.5, 0)">4</text><text x="360.0" y="400.0" transform="translate(-3.5, 0)">3</text><text x="320.0" y="400.0" transform="translate(-3.5, 0)">2</text><text x="280.0" y="400.0" transform="translate(-3.5, 0)">1</text><text x="240.0" y="400.0" transform="translate(-3.5, 0)">0</text><text x="200.0" y="400.0" transform="translate(-5.5, 0)">-1</text><text x="160.0" y="400.0" transform="translate(-5.5, 0)">-2</text><text x="120.0" y="400.0" transform="translate(-5.5, 0)">-3</text><text x="80.0" y="400.0" transform="translate(-5.5, 0)">-4</text><text x="40.0" y="400.0" transform="translate(-5.5, 0)">-5</text><text x="0.0" y="400.0" transform="translate(-5.5, 0)">-6</text></g></g><path transform="translate(50.0, 50.0)" d="M240.0 0 v400.0z M0 200.0 h400.0z" stroke="black"/><g opacity="0.8" transform="translate(-50.0, -50.0) rotate(180, 250.0, 250.0) scale(-1, 1) translate(-400.0, 0)"><g fill="white" stroke="#5fab9e" stroke-width="2"><path d="M0.0 203.33333333333331 L40.0 204.99999999999997 L80.0 207.50000000000003 L120.0 211.24999999999997 L160.0 216.87500000000003 L200.0 225.31249999999997 L240.0 237.96875000000003 L280.0 256.953125 L320.0 285.4296875 L360.0 328.14453125 L400.0 392.216796875" fill="none"/><circle cx="0.0" cy="203.33333333333331" r="4"/><circle cx="40.0" cy="204.99999999999997" r="4"/><circle cx="80.0" cy="207.50000000000003" r="4"/><circle cx="120.0" cy="211.24999999999997" r="4"/><circle cx="160.0" cy="216.87500000000003" r="4"/><circle cx="200.0" cy="225.31249999999997" r="4"/><circle cx="240.0" cy="237.96875000000003" r="4"/><circle cx="280.0" cy="256.953125" r="4"/><circle cx="320.0" cy="285.4296875" r="4"/><circle cx="360.0" cy="328.14453125" r="4"/><circle cx="400.0" cy="392.216796875" r="4"/></g><g fill="white" stroke="#f58b51" stroke-width="2"><path d="M0.0 196.66666666666666 L40.0 195.0 L80.0 192.5 L120.0 188.75 L160.0 183.125 L200.0 174.6875 L240.0 162.03125 L280.0 143.046875 L320.0 114.5703125 L360.0 71.85546875 L400.0 7.783203125" fill="none"/><circle cx="0.0" cy="196.66666666666666" r="4"/><circle cx="40.0" cy="195.0" r="4"/><circle cx="80.0" cy="192.5" r="4"/><circle cx="120.0" cy="188.75" r="4"/><circle cx="160.0" cy="183.125" r="4"/><circle cx="200.0" cy="174.6875" r="4"/><circle cx="240.0" cy="162.03125" r="4"/><circle cx="280.0" cy="143.046875" r="4"/><circle cx="320.0" cy="114.5703125" r="4"/><circle cx="360.0" cy="71.85546875" r="4"/><circle cx="400.0" cy="7.783203125" r="4"/></g></g></svg>