<svg xmlns="http://www.w3.org/2000/svg" width="500" height="500" viewBox="0 0 500 500"><path fill="white" d="M0 0 h500 v500 h-500 v-500Z"/><text transform="translate(-70.0, 18)" fill="#444444" font-family="Arial" font-weight="bold" font-size="16" x="250.0" y="12.5">All Four Quadrants</text><g><path stroke="#CCCCCC" stroke-dasharray="None" d="M0 423.0 h450.0 M0 370.125 h450.0 M0 317.25 h450.0 M0 264.375 h450.0 M0 211.5 h450.0 M0 158.625 h450.0 M0 105.75 h450.0 M0 52.875 h450.0 M0 0.0 h450.0" transform="translate(25.0, 52.0)"/><g font-size="12" font-family="Arial" transform="translate(19.0, 52.0)"><text x="0" y="423.0" transform="translate(-18, 3.5)">-20</text><text x="0" y="370.125" transform="translate(-18, 3.5)">-10</text><text x="0" y="317.25" transform="translate(-7, 3.5)">0</text><text x="0" y="264.375" transform="translate(-14, 3.5)">10</text><text x="0" y="211.5" transform="translate(-14, 3.5)">20</text></g></g><g><path stroke="#CCCCCC" stroke-dasharray="None" d="M0.0 0 v423.0 M56.25 0 v423.0 M112.5 0 v423.0 M168.75 0 v423.0 M225.0 0 v423.0 M281.25 0 v423.0 M337.5 0 v423.0 M393.75 0 v423.0 M450.0 0 v423.0" transform="translate(25.0, 52.0)"/><g font-size="12" font-family="Arial" transform="translate(25.0, 70.0)"><text x="0.0" y="423.0" transform="translate(-5.5, 0)">-4</text><text x="56.25" y="423.0" transform="translate(-5.5, 0)">-2</text><text x="112.5" y="423.0" transform="translate(-3.5, 0)">0</text><text x="168.75" y="423.0" transform="translate(-3.5, 0)">2</text><text x="225.0" y="423.0" transform="translate(-3.5, 0)">4</text></g></g><path transform="translate(25.0, 0)" d="M0 211.5 h450.0z" stroke="black"/><g opacity="0.8" transform="translate(-25.0, -25.0) rotate(180, 250.0, 250.0) scale(-1, 1) translate(-450.0, 0)"><g fill="white" stroke="#5fab9e" stroke-width="2"><path d="M0.0 0.0 L112.5 105.75 L225.0 211.5 L337.5 317.25 L450.0 423.0" fill="none"/><circle cx="0.0" cy="0.0" r="3"/><circle cx="112.5" cy="105.75" r="3"/><circle cx="225.0" cy="211.5" r="3"/><circle cx="337.5" cy="317.25" r="3"/><circle cx="450.0" cy="423.0" r="3"/></g></g></svg>