<svg xmlns="http://www.w3.org/2000/svg" width="500" height="500" viewBox="0 0 500 500"><path fill="white" d="M0 0 h500 v500 h-500 v-500Z"/><text transform="translate(-162.5, 18)" fill="#444444" font-family="Arial" font-weight="bold" font-size="16" x="250.0" y="12.5">Both Axes with Negative Values (interval=2)</text><g><path stroke="#CCCCCC" stroke-dasharray="None" d="M0 423.0 h450.0 M0 352.5 h450.0 M0 282.0 h450.0 M0 211.5 h450.0 M0 141.0 h450.0 M0 70.5 h450.0 M0 0.0 h450.0" transform="translate(25.0, 52.0)"/><g font-size="12" font-family="Arial" transform="translate(19.0, 52.0)"><text x="0" y="423.0" transform="translate(-18, 3.5)">-30</text><text x="0" y="352.5" transform="translate(-18, 3.5)">-10</text><text x="0" y="282.0" transform="translate(-7, 3.5)">0</text><text x="0" y="211.5" transform="translate(-14, 3.5)">10</text><text x="0" y="141.0" transform="translate(-14, 3.5)">30</text></g></g><g><path stroke="#CCCCCC" stroke-dasharray="None" d="M0.0 0 v423.0 M75.0 0 v423.0 M150.0 0 v423.0 M225.0 0 v423.0 M300.0 0 v423.0 M375.0 0 v423.0 M450.0 0 v423.0" transform="translate(25.0, 52.0)"/><g font-size="12" font-family="Arial" transform="translate(25.0, 70.0)"><text x="0.0" y="423.0" transform="translate(-5.5, 0)">-3</text><text x="75.0" y="423.0" transform="translate(-5.5, 0)">-1</text><text x="150.0" y="423.0" transform="translate(-3.5, 0)">0</text><text x="225.0" y="423.0" transform="translate(-3.5, 0)">1</text><text x="300.0" y="423.0" transform="translate(-3.5, 0)">3</text></g></g><path transform="translate(25.0, 0)" d="M0 211.5 h450.0z" stroke="black"/><g opacity="0.8" transform="translate(-25.0, -25.0) rotate(180, 250.0, 250.0) scale(-1, 1) translate(-450.0, 0)"><g fill="white" stroke="#5fab9e" stroke-width="2"><path d="M0.0 0.0 L75.0 70.5 L150.0 141.0 L225.0 211.5 L300.0 282.0 L375.0 352.5 L450.0 423.0" fill="none"/><circle cx="0.0" cy="0.0" r="3"/><circle cx="75.0" cy="70.5" r="3"/><circle cx="150.0" cy="141.0" r="3"/><circle cx="225.0" cy="211.5" r="3"/><circle cx="300.0" cy="282.0" r="3"/><circle cx="375.0" cy="352.5" r="3"/><circle cx="450.0" cy="423.0" r="3"/></g></g></svg>