<svg xmlns="http://www.w3.org/2000/svg" width="500" height="500" viewBox="0 0 500 500"><path fill="white" d="M0 0 h500 v500 h-500 v-500Z"/><text transform="translate(-109.5, 18)" fill="#444444" font-family="Arial" font-weight="bold" font-size="16" x="250.0" y="12.5">Float Proportion Interval (0.2)</text><g><path stroke="#CCCCCC" stroke-dasharray="None" d="M0 423.0 h450.0 M0 380.7 h450.0 M0 338.40000000000003 h450.0 M0 296.09999999999997 h450.0 M0 253.79999999999998 h450.0 M0 211.5 h450.0 M0 169.20000000000002 h450.0 M0 126.89999999999999 h450.0 M0 84.60000000000001 h450.0 M0 42.300000000000004 h450.0 M0 0.0 h450.0" transform="translate(25.0, 52.0)"/><g font-size="12" font-family="Arial" transform="translate(19.0, 52.0)"><text x="0" y="423.0" transform="translate(-7, 3.5)">0</text><text x="0" y="380.7" transform="translate(-14, 3.5)">20</text><text x="0" y="338.40000000000003" transform="translate(-14, 3.5)">40</text><text x="0" y="296.09999999999997" transform="translate(-14, 3.5)">60</text><text x="0" y="253.79999999999998" transform="translate(-14, 3.5)">80</text><text x="0" y="211.5" transform="translate(-21, 3.5)">100</text></g></g><g><path stroke="#CCCCCC" stroke-dasharray="None" d="M0.0 0 v423.0 M20.454545454545457 0 v423.0 M40.909090909090914 0 v423.0 M61.36363636363636 0 v423.0 M81.81818181818183 0 v423.0 M102.27272727272727 0 v423.0 M122.72727272727272 0 v423.0 M143.1818181818182 0 v423.0 M163.63636363636365 0 v423.0 M184.0909090909091 0 v423.0 M204.54545454545453 0 v423.0 M225.0 0 v423.0 M245.45454545454544 0 v423.0 M265.90909090909093 0 v423.0 M286.3636363636364 0 v423.0 M306.8181818181818 0 v423.0 M327.2727272727273 0 v423.0 M347.7272727272727 0 v423.0 M368.1818181818182 0 v423.0 M388.6363636363636 0 v423.0 M409.09090909090907 0 v423.0 M429.54545454545456 0 v423.0 M450.0 0 v423.0" transform="translate(25.0, 52.0)"/><g font-size="12" font-family="Arial" transform="translate(25.0, 70.0)"><text x="0.0" y="423.0" transform="translate(-2.0, 0)"> </text><text x="20.454545454545457" y="423.0" transform="translate(-3.5, 0)">0</text><text x="40.909090909090914" y="423.0" transform="translate(-3.5, 0)">1</text><text x="61.36363636363636" y="423.0" transform="translate(-3.5, 0)">2</text><text x="81.81818181818183" y="423.0" transform="translate(-3.5, 0)">3</text><text x="102.27272727272727" y="423.0" transform="translate(-3.5, 0)">4</text><text x="122.72727272727272" y="423.0" transform="translate(-3.5, 0)">5</text><text x="143.1818181818182" y="423.0" transform="translate(-3.5, 0)">6</text><text x="163.63636363636365" y="423.0" transform="translate(-3.5, 0)">7</text><text x="184.0909090909091" y="423.0" transform="translate(-3.5, 0)">8</text><text x="204.54545454545453" y="423.0" transform="translate(-3.5, 0)">9</text><text x="225.0" y="423.0" transform="translate(-7.0, 0)">10</text><text x="245.45454545454544" y="423.0" transform="translate(-7.0, 0)">11</text><text x="265.90909090909093" y="423.0" transform="translate(-7.0, 0)">12</text><text x="286.3636363636364" y="423.0" transform="translate(-7.0, 0)">13</text><text x="306.8181818181818" y="423.0" transform="translate(-7.0, 0)">14</text><text x="327.2727272727273" y="423.0" transform="translate(-7.0, 0)">15</text><text x="347.7272727272727" y="423.0" transform="translate(-7.0, 0)">16</text><text x="368.1818181818182" y="423.0" transform="translate(-7.0, 0)">17</text><text x="388.6363636363636" y="423.0" transform="translate(-7.0, 0)">18</text><text x="409.09090909090907" y="423.0" transform="translate(-7.0, 0)">19</text><text x="429.54545454545456" y="423.0" transform="translate(-7.0, 0)">20</text><text x="450.0" y="423.0" transform="translate(-2.0, 0)"> </text></g></g><g opacity="0.8" transform="translate(-25.0, -25.0) rotate(180, 250.0, 250.0) scale(-1, 1) translate(-450.0, 0)"><g fill="white" stroke="#5fab9e" stroke-width="2"><path d="M20.454545454545457 0.0 L40.909090909090914 21.150000000000002 L61.363636363636374 42.300000000000004 L81.81818181818181 63.449999999999996 L102.27272727272728 84.60000000000001 L122.72727272727272 105.75 L143.1818181818182 126.89999999999999 L163.63636363636365 148.04999999999998 L184.09090909090912 169.20000000000002 L204.54545454545456 190.35 L225.0 211.5 L245.45454545454547 232.65 L265.9090909090909 253.79999999999998 L286.3636363636364 274.95 L306.8181818181818 296.09999999999997 L327.27272727272725 317.25 L347.72727272727275 338.40000000000003 L368.18181818181813 359.55 L388.6363636363636 380.7 L409.09090909090907 401.84999999999997 L429.5454545454545 423.0" fill="none"/><circle cx="20.454545454545457" cy="0.0" r="3"/><circle cx="40.909090909090914" cy="21.150000000000002" r="3"/><circle cx="61.363636363636374" cy="42.300000000000004" r="3"/><circle cx="81.81818181818181" cy="63.449999999999996" r="3"/><circle cx="102.27272727272728" cy="84.60000000000001" r="3"/><circle cx="122.72727272727272" cy="105.75" r="3"/><circle cx="143.1818181818182" cy="126.89999999999999" r="3"/><circle cx="163.63636363636365" cy="148.04999999999998" r="3"/><circle cx="184.09090909090912" cy="169.20000000000002" r="3"/><circle cx="204.54545454545456" cy="190.35" r="3"/><circle cx="225.0" cy="211.5" r="3"/><circle cx="245.45454545454547" cy="232.65" r="3"/><circle cx="265.9090909090909" cy="253.79999999999998" r="3"/><circle cx="286.3636363636364" cy="274.95" r="3"/><circle cx="306.8181818181818" cy="296.09999999999997" r="3"/><circle cx="327.27272727272725" cy="317.25" r="3"/><circle cx="347.72727272727275" cy="338.40000000000003" r="3"/><circle cx="368.18181818181813" cy="359.55" r="3"/><circle cx="388.6363636363636" cy="380.7" r="3"/><circle cx="409.09090909090907" cy="401.84999999999997" r="3"/><circle cx="429.5454545454545" cy="423.0" r="3"/></g></g></svg>