<svg xmlns="http://www.w3.org/2000/svg" width="500" height="500" viewBox="0 0 500 500"><path fill="white" d="M0 0 h500 v500 h-500 v-500Z"/><text transform="translate(-152.0, 18)" fill="#444444" font-family="Arial" font-weight="bold" font-size="16" x="250.0" y="12.5">Large Y-Range with Custom Interval (10)</text><g><path stroke="#CCCCCC" stroke-dasharray="None" d="M0 423.0 h450.0 M0 380.7 h450.0 M0 338.40000000000003 h450.0 M0 296.09999999999997 h450.0 M0 253.79999999999998 h450.0 M0 211.5 h450.0 M0 169.20000000000002 h450.0 M0 126.89999999999999 h450.0 M0 84.60000000000001 h450.0 M0 42.300000000000004 h450.0 M0 0.0 h450.0" transform="translate(25.0, 52.0)"/><g font-size="12" font-family="Arial" transform="translate(19.0, 52.0)"><text x="0" y="423.0" transform="translate(-7, 3.5)">0</text><text x="0" y="380.7" transform="translate(-28, 3.5)">1000</text></g></g><g><path stroke="#CCCCCC" stroke-dasharray="None" d="M0.0 0 v423.0 M56.25 0 v423.0 M112.5 0 v423.0 M168.75 0 v423.0 M225.0 0 v423.0 M281.25 0 v423.0 M337.5 0 v423.0 M393.75 0 v423.0 M450.0 0 v423.0" transform="translate(25.0, 52.0)"/><g font-size="12" font-family="Arial" transform="translate(25.0, 70.0)"><text x="0.0" y="423.0" transform="translate(-2.0, 0)"> </text><text x="56.25" y="423.0" transform="translate(-8.5, 0)">Q1</text><text x="112.5" y="423.0" transform="translate(-8.5, 0)">Q2</text><text x="168.75" y="423.0" transform="translate(-8.5, 0)">Q3</text><text x="225.0" y="423.0" transform="translate(-8.5, 0)">Q4</text><text x="281.25" y="423.0" transform="translate(-8.5, 0)">Q5</text><text x="337.5" y="423.0" transform="translate(-8.5, 0)">Q6</text><text x="393.75" y="423.0" transform="translate(-8.5, 0)">Q7</text><text x="450.0" y="423.0" transform="translate(-2.0, 0)"> </text></g></g><g opacity="0.8" transform="translate(-25.0, -25.0) rotate(180, 250.0, 250.0) scale(-1, 1) translate(-450.0, 0) translate(-20.454545454545453, 0)"><path d="M56.25 0.0 h40.90909090909091 v42.300000000000004 h-40.90909090909091 v-42.300000000000004Z M112.5 0.0 h40.90909090909091 v105.75 h-40.90909090909091 v-105.75Z M168.75 0.0 h40.90909090909091 v211.5 h-40.90909090909091 v-211.5Z M225.0 0.0 h40.90909090909091 v317.25 h-40.90909090909091 v-317.25Z M281.25 0.0 h40.90909090909091 v423.0 h-40.90909090909091 v-423.0Z M337.5 0.0 h40.90909090909091 v338.40000000000003 h-40.90909090909091 v-338.40000000000003Z M393.75 0.0 h40.90909090909091 v253.79999999999998 h-40.90909090909091 v-253.79999999999998Z" fill="#5fab9e"/></g></svg>