<svg xmlns="http://www.w3.org/2000/svg" width="500" height="500" viewBox="0 0 500 500"><path fill="white" d="M0 0 h500 v500 h-500 v-500Z"/><text transform="translate(-149.0, 18)" fill="#444444" font-family="Arial" font-weight="bold" font-size="16" x="250.0" y="12.5">X-Axis with Negative Values (interval=2)</text><g><path stroke="#CCCCCC" stroke-dasharray="None" d="M0 423.0 h450.0 M0 380.7 h450.0 M0 338.40000000000003 h450.0 M0 296.09999999999997 h450.0 M0 253.79999999999998 h450.0 M0 211.5 h450.0 M0 169.20000000000002 h450.0 M0 126.89999999999999 h450.0 M0 84.60000000000001 h450.0 M0 42.300000000000004 h450.0 M0 0.0 h450.0" transform="translate(25.0, 52.0)"/><g font-size="12" font-family="Arial" transform="translate(19.0, 52.0)"><text x="0" y="423.0" transform="translate(-7, 3.5)">0</text><text x="0" y="380.7" transform="translate(-7, 3.5)">4</text><text x="0" y="338.40000000000003" transform="translate(-7, 3.5)">8</text><text x="0" y="296.09999999999997" transform="translate(-14, 3.5)">12</text><text x="0" y="253.79999999999998" transform="translate(-14, 3.5)">16</text><text x="0" y="211.5" transform="translate(-14, 3.5)">20</text></g></g><g><path stroke="#CCCCCC" stroke-dasharray="None" d="M0.0 0 v423.0 M56.25 0 v423.0 M112.5 0 v423.0 M168.75 0 v423.0 M225.0 0 v423.0 M281.25 0 v423.0 M337.5 0 v423.0 M393.75 0 v423.0 M450.0 0 v423.0" transform="translate(25.0, 52.0)"/><g font-size="12" font-family="Arial" transform="translate(25.0, 70.0)"><text x="0.0" y="423.0" transform="translate(-5.5, 0)">-4</text><text x="56.25" y="423.0" transform="translate(-5.5, 0)">-2</text><text x="112.5" y="423.0" transform="translate(-3.5, 0)">0</text><text x="168.75" y="423.0" transform="translate(-3.5, 0)">2</text><text x="225.0" y="423.0" transform="translate(-3.5, 0)">4</text></g></g><g opacity="0.8" transform="translate(-25.0, -25.0) rotate(180, 250.0, 250.0) scale(-1, 1) translate(-450.0, 0)"><g fill="white" stroke="#5fab9e" stroke-width="2"><path d="M0.0 338.40000000000003 L56.25 190.35 L112.5 84.60000000000001 L168.75 21.150000000000002 L225.0 0.0 L281.25 21.150000000000002 L337.5 84.60000000000001 L393.75 190.35 L450.0 338.40000000000003" fill="none"/><circle cx="0.0" cy="338.40000000000003" r="3"/><circle cx="56.25" cy="190.35" r="3"/><circle cx="112.5" cy="84.60000000000001" r="3"/><circle cx="168.75" cy="21.150000000000002" r="3"/><circle cx="225.0" cy="0.0" r="3"/><circle cx="281.25" cy="21.150000000000002" r="3"/><circle cx="337.5" cy="84.60000000000001" r="3"/><circle cx="393.75" cy="190.35" r="3"/><circle cx="450.0" cy="338.40000000000003" r="3"/></g></g></svg>