<svg xmlns="http://www.w3.org/2000/svg" width="500" height="500" viewBox="0 0 500 500"><path fill="white" d="M0 0 h500 v500 h-500 v-500Z"/><text transform="translate(-149.0, 18)" fill="#444444" font-family="Arial" font-weight="bold" font-size="16" x="250.0" y="12.5">Y-Axis with Negative Values (interval=2)</text><g><path stroke="#CCCCCC" stroke-dasharray="None" d="M0 423.0 h450.0 M0 380.7 h450.0 M0 338.40000000000003 h450.0 M0 296.09999999999997 h450.0 M0 253.79999999999998 h450.0 M0 211.5 h450.0 M0 169.20000000000002 h450.0 M0 126.89999999999999 h450.0 M0 84.60000000000001 h450.0 M0 42.300000000000004 h450.0 M0 0.0 h450.0" transform="translate(25.0, 52.0)"/><g font-size="12" font-family="Arial" transform="translate(19.0, 52.0)"><text x="0" y="423.0" transform="translate(-18, 3.5)">-50</text><text x="0" y="380.7" transform="translate(-18, 3.5)">-30</text><text x="0" y="338.40000000000003" transform="translate(-18, 3.5)">-10</text><text x="0" y="296.09999999999997" transform="translate(-7, 3.5)">0</text><text x="0" y="253.79999999999998" transform="translate(-14, 3.5)">10</text><text x="0" y="211.5" transform="translate(-14, 3.5)">30</text><text x="0" y="169.20000000000002" transform="translate(-14, 3.5)">50</text></g></g><g><path stroke="#CCCCCC" stroke-dasharray="None" d="M0.0 0 v423.0 M56.25 0 v423.0 M112.5 0 v423.0 M168.75 0 v423.0 M225.0 0 v423.0 M281.25 0 v423.0 M337.5 0 v423.0 M393.75 0 v423.0 M450.0 0 v423.0" transform="translate(25.0, 52.0)"/><g font-size="12" font-family="Arial" transform="translate(25.0, 70.0)"><text x="0.0" y="423.0" transform="translate(-2.0, 0)"> </text><text x="56.25" y="423.0" transform="translate(-4.5, 0)">A</text><text x="112.5" y="423.0" transform="translate(-4.5, 0)">B</text><text x="168.75" y="423.0" transform="translate(-4.5, 0)">C</text><text x="225.0" y="423.0" transform="translate(-4.5, 0)">D</text><text x="281.25" y="423.0" transform="translate(-4.5, 0)">E</text><text x="337.5" y="423.0" transform="translate(-4.0, 0)">F</text><text x="393.75" y="423.0" transform="translate(-5.0, 0)">G</text><text x="450.0" y="423.0" transform="translate(-2.0, 0)"> </text></g></g><path transform="translate(25.0, 0)" d="M0 373.0 h450.0z" stroke="black"/><g opacity="0.8" transform="translate(-25.0, -25.0) rotate(180, 250.0, 250.0) scale(-1, 1) translate(-450.0, 0) translate(-20.454545454545453, 211.5)"><path d="M56.25 0.0 h40.90909090909091 v-42.300000000000004 h-40.90909090909091 v42.300000000000004Z M112.5 0.0 h40.90909090909091 v-84.60000000000001 h-40.90909090909091 v84.60000000000001Z M168.75 0.0 h40.90909090909091 v-126.89999999999999 h-40.90909090909091 v126.89999999999999Z M225.0 0.0 h40.90909090909091 v-169.20000000000002 h-40.90909090909091 v169.20000000000002Z M281.25 0.0 h40.90909090909091 v-211.5 h-40.90909090909091 v211.5Z M337.5 0.0 h40.90909090909091 v-169.20000000000002 h-40.90909090909091 v169.20000000000002Z M393.75 0.0 h40.90909090909091 v-126.89999999999999 h-40.90909090909091 v126.89999999999999Z" fill="#5fab9e"/><path d="M56.25 0.0 h40.90909090909091 v42.300000000000004 h-40.90909090909091 v-42.300000000000004Z M112.5 0.0 h40.90909090909091 v84.60000000000001 h-40.90909090909091 v-84.60000000000001Z M168.75 0.0 h40.90909090909091 v126.89999999999999 h-40.90909090909091 v-126.89999999999999Z M225.0 0.0 h40.90909090909091 v169.20000000000002 h-40.90909090909091 v-169.20000000000002Z M281.25 0.0 h40.90909090909091 v211.5 h-40.90909090909091 v-211.5Z M337.5 0.0 h40.90909090909091 v169.20000000000002 h-40.90909090909091 v-169.20000000000002Z M393.75 0.0 h40.90909090909091 v126.89999999999999 h-40.90909090909091 v-126.89999999999999Z" fill="#f58b51"/></g></svg>