<svg xmlns="http://www.w3.org/2000/svg" width="500" height="500" viewBox="0 0 500 500"><path fill="#FFFFFF" d="M0 0 h500 v500 h-500 v-500Z"/><defs><clipPath id="plot-clip"><rect x="0" y="0" width="442.38" height="450.0"/></clipPath></defs><g><path stroke="#cccccc" stroke-dasharray="None" d="M0 90.0 h442.38 M0 225.0 h442.38 M0 360.0 h442.38" transform="translate(32.62, 25.0)"/><g font-size="12" font-family="DejaVu Sans, sans-serif" fill="#000000" transform="translate(26.619999999999997, 25.0)"><text x="0" y="90.0" dominant-baseline="central" transform="translate(-7.35, 0)">a</text><text x="0" y="225.0" dominant-baseline="central" transform="translate(-7.62, 0)">b</text><text x="0" y="360.0" dominant-baseline="central" transform="translate(-6.6, 0)">c</text></g></g><g><path stroke="#cccccc" stroke-dasharray="None" d="M442.38 0 v450.0 M294.91999999999996 0 v450.0 M147.45999999999998 0 v450.0 M0.0 0 v450.0" transform="translate(32.62, 25.0)"/><g font-size="12" font-family="DejaVu Sans, sans-serif" fill="#000000" transform="translate(32.62, 43.0)"><text x="442.38" y="450.0" transform="translate(-3.815, 0)">3</text><text x="294.91999999999996" y="450.0" transform="translate(-3.815, 0)">2</text><text x="147.45999999999998" y="450.0" transform="translate(-3.815, 0)">1</text><text x="0.0" y="450.0" transform="translate(-3.815, 0)">0</text></g></g><g><g opacity="0.8" transform="translate(32.62, 25.0)"><path d="M0.0 45.0 h147.5 v90.0 h-147.5 v-90.0Z" fill="#5fab9e"/><path d="M0.0 180.0 h294.9 v90.0 h-294.9 v-90.0Z" fill="#f58b51"/><path d="M0.0 315.0 h442.4 v90.0 h-442.4 v-90.0Z" fill="#f7dd72"/></g><path stroke="#cccccc" stroke-dasharray="None" d="M0 450.0 h442.38" transform="translate(32.62, 25.0)"/><path stroke="#cccccc" stroke-dasharray="None" d="M0 0 h442.38" transform="translate(32.62, 25.0)"/><path stroke="#cccccc" stroke-dasharray="None" d="M0 0 v450.0" transform="translate(32.62, 25.0)"/><path stroke="#cccccc" stroke-dasharray="None" d="M442.38 0 v450.0" transform="translate(32.62, 25.0)"/></g><path d="M32.62 25.0 v450.0 M32.62 475.0 h442.38" stroke="#999" stroke-width="1.5" fill="none"/></svg>