<svg xmlns="http://www.w3.org/2000/svg" width="500" height="500" viewBox="0 0 500 500"><path fill="#FFFFFF" d="M0 0 h500 v500 h-500 v-500Z"/><defs><clipPath id="plot-clip"><rect x="0" y="0" width="441.77" height="450.0"/></clipPath></defs><g><path stroke="#cccccc" stroke-dasharray="None" d="M0 128.57142857142858 h441.77 M0 321.42857142857144 h441.77" transform="translate(33.230000000000004, 25.0)"/><g font-size="12" font-family="DejaVu Sans, sans-serif" fill="#000000" transform="translate(27.230000000000004, 25.0)"><text x="0" y="128.57142857142858" dominant-baseline="central" transform="translate(-8.21, 0)">A</text><text x="0" y="321.42857142857144" dominant-baseline="central" transform="translate(-8.23, 0)">B</text></g></g><g><path stroke="#cccccc" stroke-dasharray="None" d="M441.77 0 v450.0 M392.6844444444444 0 v450.0 M343.5988888888889 0 v450.0 M294.5133333333333 0 v450.0 M245.42777777777775 0 v450.0 M196.3422222222222 0 v450.0 M147.25666666666666 0 v450.0 M98.1711111111111 0 v450.0 M49.08555555555555 0 v450.0 M0.0 0 v450.0 M441.77 0 v450.0" transform="translate(33.230000000000004, 25.0)"/><g font-size="12" font-family="DejaVu Sans, sans-serif" fill="#000000" transform="translate(33.230000000000004, 43.0)"><text x="441.77" y="450.0" transform="translate(-7.63, 0)">35</text><text x="392.6844444444444" y="450.0" transform="translate(-7.63, 0)">30</text><text x="343.5988888888889" y="450.0" transform="translate(-7.63, 0)">25</text><text x="294.5133333333333" y="450.0" transform="translate(-7.63, 0)">20</text><text x="245.42777777777775" y="450.0" transform="translate(-7.63, 0)">15</text><text x="196.3422222222222" y="450.0" transform="translate(-7.63, 0)">10</text><text x="147.25666666666666" y="450.0" transform="translate(-3.815, 0)">5</text><text x="98.1711111111111" y="450.0" transform="translate(-3.815, 0)">0</text><text x="49.08555555555555" y="450.0" transform="translate(-5.98, 0)">-5</text><text x="0.0" y="450.0" transform="translate(-9.795, 0)">-10</text></g></g><path transform="translate(33.2, 25.0)" d="M98.2 0 v450.0z" stroke="#666666"/><g><g opacity="0.8" transform="translate(131.4011111111111, 25.0)"><path d="M-98.2 64.3 h98.2 v128.6 h-98.2 v-128.6Z M0.0 257.1 h196.3 v128.6 h-196.3 v-128.6Z" fill="#5fab9e"/><path d="M0.0 64.3 h49.1 v128.6 h-49.1 v-128.6Z M196.3 257.1 h147.3 v128.6 h-147.3 v-128.6Z" fill="#f58b51"/></g><path stroke="#cccccc" stroke-dasharray="None" d="M0 450.0 h441.77" transform="translate(33.230000000000004, 25.0)"/><path stroke="#cccccc" stroke-dasharray="None" d="M0 0 h441.77" transform="translate(33.230000000000004, 25.0)"/><path stroke="#cccccc" stroke-dasharray="None" d="M0 0 v450.0" transform="translate(33.230000000000004, 25.0)"/><path stroke="#cccccc" stroke-dasharray="None" d="M441.77 0 v450.0" transform="translate(33.230000000000004, 25.0)"/></g><path d="M33.230000000000004 25.0 v450.0 M33.230000000000004 475.0 h441.77" stroke="#999" stroke-width="1.5" fill="none"/></svg>