<svg xmlns="http://www.w3.org/2000/svg" width="500" height="500" viewBox="0 0 500 500"><path fill="#FFFFFF" d="M0 0 h500 v500 h-500 v-500Z"/><defs><clipPath id="plot-clip"><rect x="0" y="0" width="441.0" height="450.0"/></clipPath></defs><g><path stroke="#CCCCCC" stroke-dasharray="None" d="M0 90.0 h441.0 M0 225.0 h441.0 M0 360.0 h441.0" transform="translate(34.0, 25.0)"/><g font-size="12" font-family="Arial" fill="#444444" transform="translate(28.0, 25.0)"><text x="0" y="90.0" dominant-baseline="central" transform="translate(-9, 0)">X</text><text x="0" y="225.0" dominant-baseline="central" transform="translate(-9, 0)">Y</text><text x="0" y="360.0" dominant-baseline="central" transform="translate(-8, 0)">Z</text></g></g><g><path stroke="#CCCCCC" stroke-dasharray="None" d="M441.0 0 v450.0 M352.8 0 v450.0 M264.59999999999997 0 v450.0 M176.4 0 v450.0 M88.2 0 v450.0 M0.0 0 v450.0" transform="translate(34.0, 25.0)"/><g font-size="12" font-family="Arial" fill="#444444" transform="translate(34.0, 43.0)"><text x="441.0" y="450.0" transform="translate(-10.5, 0)">300</text><text x="352.8" y="450.0" transform="translate(-10.5, 0)">240</text><text x="264.59999999999997" y="450.0" transform="translate(-10.5, 0)">180</text><text x="176.4" y="450.0" transform="translate(-10.5, 0)">120</text><text x="88.2" y="450.0" transform="translate(-7.0, 0)">60</text><text x="0.0" y="450.0" transform="translate(-3.5, 0)">0</text></g></g><g><g opacity="0.8" transform="translate(34.0, 25.0)"><path d="M0.0 45.0 h147.0 v90.0 h-147.0 v-90.0Z M0.0 180.0 h294.0 v90.0 h-294.0 v-90.0Z M0.0 315.0 h441.0 v90.0 h-441.0 v-90.0Z" fill="#5fab9e"/><text x="151.0" y="94.0" fill="#444444" font-size="12" font-family="Arial" text-anchor="start">100u</text><text x="298.0" y="229.0" fill="#444444" font-size="12" font-family="Arial" text-anchor="start">200u</text><text x="445.0" y="364.0" fill="#444444" font-size="12" font-family="Arial" text-anchor="start">300u</text></g><path stroke="#CCCCCC" stroke-dasharray="None" d="M0 450.0 h441.0" transform="translate(34.0, 25.0)"/><path stroke="#CCCCCC" stroke-dasharray="None" d="M0 0 h441.0" transform="translate(34.0, 25.0)"/><path stroke="#CCCCCC" stroke-dasharray="None" d="M0 0 v450.0" transform="translate(34.0, 25.0)"/><path stroke="#CCCCCC" stroke-dasharray="None" d="M441.0 0 v450.0" transform="translate(34.0, 25.0)"/></g></svg>