<svg xmlns="http://www.w3.org/2000/svg" width="700" height="500" viewBox="0 0 700 500"><path fill="white" d="M0 0 h700 v500 h-700 v-500Z"/><text transform="translate(-141.5, 18)" fill="#444444" font-family="Arial" font-weight="bold" font-size="16" x="350.0" y="12.5">Revenue vs Expenses by Quarter ($K)</text><g><path stroke="#CCCCCC" stroke-dasharray="None" d="M0 44.526315789473685 h582.0 M0 111.31578947368422 h582.0 M0 178.10526315789474 h582.0 M0 244.89473684210526 h582.0 M0 311.6842105263157 h582.0 M0 378.47368421052624 h582.0" transform="translate(83.0, 52.0)"/><g font-size="12" font-family="Arial" transform="translate(77.0, 52.0)"><text x="0" y="44.526315789473685" transform="translate(-48, -7.0)">Q1 Prod</text><text x="0" y="111.31578947368422" transform="translate(-44, -7.0)">Q1 Ops</text><text x="0" y="178.10526315789474" transform="translate(-48, -7.0)">Q2 Prod</text><text x="0" y="244.89473684210526" transform="translate(-44, -7.0)">Q2 Ops</text><text x="0" y="311.6842105263157" transform="translate(-48, -7.0)">Q3 Prod</text><text x="0" y="378.47368421052624" transform="translate(-44, -7.0)">Q3 Ops</text></g></g><g><path stroke="#CCCCCC" stroke-dasharray="None" d="M582.0 0 v423.0 M509.25 0 v423.0 M436.5 0 v423.0 M363.75 0 v423.0 M291.0 0 v423.0 M218.25 0 v423.0 M145.5 0 v423.0 M72.75 0 v423.0 M0.0 0 v423.0" transform="translate(83.0, 52.0)"/><g font-size="12" font-family="Arial" transform="translate(83.0, 70.0)"><text x="582.0" y="423.0" transform="translate(-10.5, 0)">250</text><text x="509.25" y="423.0" transform="translate(-10.5, 0)">200</text><text x="436.5" y="423.0" transform="translate(-10.5, 0)">150</text><text x="363.75" y="423.0" transform="translate(-10.5, 0)">100</text><text x="291.0" y="423.0" transform="translate(-7.0, 0)">50</text><text x="218.25" y="423.0" transform="translate(-3.5, 0)">0</text><text x="145.5" y="423.0" transform="translate(-9.0, 0)">-50</text><text x="72.75" y="423.0" transform="translate(-12.5, 0)">-100</text><text x="0.0" y="423.0" transform="translate(-12.5, 0)">-150</text></g></g><path transform="translate(83.0, 52.0)" d="M218.25 0 v423.0z" stroke="black"/><g><g opacity="0.8" transform="translate(83.0, 52.0)"><path d="M218.25 22.263157894736842 h174.60000000000002 v22.263157894736842 h-174.60000000000002 v-22.263157894736842Z M152.775 89.05263157894737 h65.475 v22.263157894736842 h-65.475 v-22.263157894736842Z M218.25 155.8421052631579 h261.9 v22.263157894736842 h-261.9 v-22.263157894736842Z M174.6 222.6315789473684 h43.650000000000006 v22.263157894736842 h-43.650000000000006 v-22.263157894736842Z M218.25 289.4210526315789 h305.55000000000007 v22.263157894736842 h-305.55000000000007 v-22.263157894736842Z M130.95000000000002 356.2105263157894 h87.29999999999998 v22.263157894736842 h-87.29999999999998 v-22.263157894736842Z" fill="#5fab9e"/><path d="M101.85 44.526315789473685 h116.4 v22.263157894736842 h-116.4 v-22.263157894736842Z M189.15 111.31578947368422 h29.099999999999994 v22.263157894736842 h-29.099999999999994 v-22.263157894736842Z M80.025 178.10526315789474 h138.225 v22.263157894736842 h-138.225 v-22.263157894736842Z M196.425 244.89473684210526 h21.82499999999999 v22.263157894736842 h-21.82499999999999 v-22.263157894736842Z M58.2 311.6842105263157 h160.05 v22.263157894736842 h-160.05 v-22.263157894736842Z M181.875 378.47368421052624 h36.375 v22.263157894736842 h-36.375 v-22.263157894736842Z" fill="#f58b51"/></g><path stroke="#CCCCCC" stroke-dasharray="None" d="M0 423.0 h582.0" transform="translate(83.0, 52.0)"/><path stroke="#CCCCCC" stroke-dasharray="None" d="M0 0 h582.0" transform="translate(83.0, 52.0)"/><path stroke="#CCCCCC" stroke-dasharray="None" d="M0 0 v423.0" transform="translate(83.0, 52.0)"/><path stroke="#CCCCCC" stroke-dasharray="None" d="M582.0 0 v423.0" transform="translate(83.0, 52.0)"/></g></svg>