<svg xmlns="http://www.w3.org/2000/svg" width="500" height="500" viewBox="0 0 500 500"><path fill="#FFFFFF" d="M0 0 h500 v500 h-500 v-500Z"/><defs><clipPath id="plot-clip"><rect x="0" y="0" width="369.22" height="450.0"/></clipPath></defs><g><path stroke="#cccccc" stroke-dasharray="None" d="M0 75.0 h369.22 M0 225.0 h369.22 M0 375.0 h369.22" transform="translate(105.77999999999999, 25.0)"/><g font-size="12" font-family="DejaVu Sans, sans-serif" fill="#000000" transform="translate(99.77999999999999, 25.0)"><text x="0" y="75.0" dominant-baseline="central" transform="translate(-41.43, 0)">Design</text><text x="0" y="225.0" dominant-baseline="central" transform="translate(-80.77999999999999, 0)">Development</text><text x="0" y="375.0" dominant-baseline="central" transform="translate(-44.23, 0)">Testing</text></g></g><g><path stroke="#cccccc" stroke-dasharray="None" d="M369.22 0 v450.0 M307.6833333333334 0 v450.0 M246.14666666666668 0 v450.0 M184.61 0 v450.0 M123.07333333333334 0 v450.0 M61.53666666666667 0 v450.0 M0.0 0 v450.0" transform="translate(105.77999999999999, 25.0)"/><g font-size="12" font-family="DejaVu Sans, sans-serif" fill="#000000" transform="translate(105.77999999999999, 43.0)"><text x="369.22" y="450.0" transform="translate(-3.815, 0)">7</text><text x="307.6833333333334" y="450.0" transform="translate(-3.815, 0)">6</text><text x="246.14666666666668" y="450.0" transform="translate(-3.815, 0)">5</text><text x="184.61" y="450.0" transform="translate(-3.815, 0)">4</text><text x="123.07333333333334" y="450.0" transform="translate(-3.815, 0)">3</text><text x="61.53666666666667" y="450.0" transform="translate(-3.815, 0)">2</text><text x="0.0" y="450.0" transform="translate(-3.815, 0)">1</text></g></g><g transform="translate(105.77999999999999, 25.0)"><g opacity="0.8"><path d="M0.0 30.0 h123.1 v90.0 h-123.1 v-90.0Z M123.1 180.0 h123.1 v90.0 h-123.1 v-90.0Z M246.1 330.0 h123.1 v90.0 h-123.1 v-90.0Z" fill="#5fab9e"/></g><path stroke="#CCCCCC" stroke-dasharray="None" d="M0 450.0 h369.22"/><path stroke="#CCCCCC" stroke-dasharray="None" d="M0 0 h369.22"/><path stroke="#CCCCCC" stroke-dasharray="None" d="M0 0 v450.0"/><path stroke="#CCCCCC" stroke-dasharray="None" d="M369.22 0 v450.0"/></g><path d="M105.77999999999999 25.0 v450.0 M105.77999999999999 475.0 h369.22" stroke="#999" stroke-width="1.5" fill="none"/></svg>