<svg xmlns="http://www.w3.org/2000/svg" width="500" height="500" viewBox="0 0 500 500"><path fill="#FFFFFF" d="M0 0 h500 v500 h-500 v-500Z"/><g transform="translate(44.0, 25.0)"><path fill="#1a6b8f" stroke="#CCCCCC" stroke-width="0.5" d="M2.8 3.0 h134.7 v144.0 h-134.7 v-144.0Z"/><text x="70.16666666666667" y="75.0" fill="#ffffff" font-family="Arial" font-size="11" text-anchor="middle" dominant-baseline="central">1.0</text><path fill="#357288" stroke="#CCCCCC" stroke-width="0.5" d="M143.1 3.0 h134.7 v144.0 h-134.7 v-144.0Z"/><text x="210.5" y="75.0" fill="#ffffff" font-family="Arial" font-size="11" text-anchor="middle" dominant-baseline="central">2.0</text><path fill="#517982" stroke="#CCCCCC" stroke-width="0.5" d="M283.5 3.0 h134.7 v144.0 h-134.7 v-144.0Z"/><text x="350.83333333333337" y="75.0" fill="#ffffff" font-family="Arial" font-size="11" text-anchor="middle" dominant-baseline="central">3.0</text><path fill="#6c807b" stroke="#CCCCCC" stroke-width="0.5" d="M2.8 153.0 h134.7 v144.0 h-134.7 v-144.0Z"/><text x="70.16666666666667" y="225.0" fill="#ffffff" font-family="Arial" font-size="11" text-anchor="middle" dominant-baseline="central">4.0</text><path fill="#888875" stroke="#CCCCCC" stroke-width="0.5" d="M143.1 153.0 h134.7 v144.0 h-134.7 v-144.0Z"/><text x="210.5" y="225.0" fill="#000000" font-family="Arial" font-size="11" text-anchor="middle" dominant-baseline="central">5.0</text><path fill="#a48f6f" stroke="#CCCCCC" stroke-width="0.5" d="M283.5 153.0 h134.7 v144.0 h-134.7 v-144.0Z"/><text x="350.83333333333337" y="225.0" fill="#000000" font-family="Arial" font-size="11" text-anchor="middle" dominant-baseline="central">6.0</text><path fill="#bf9668" stroke="#CCCCCC" stroke-width="0.5" d="M2.8 303.0 h134.7 v144.0 h-134.7 v-144.0Z"/><text x="70.16666666666667" y="375.0" fill="#000000" font-family="Arial" font-size="11" text-anchor="middle" dominant-baseline="central">7.0</text><path fill="#db9d62" stroke="#CCCCCC" stroke-width="0.5" d="M143.1 303.0 h134.7 v144.0 h-134.7 v-144.0Z"/><text x="210.5" y="375.0" fill="#000000" font-family="Arial" font-size="11" text-anchor="middle" dominant-baseline="central">8.0</text><path fill="#f7a55c" stroke="#CCCCCC" stroke-width="0.5" d="M283.5 303.0 h134.7 v144.0 h-134.7 v-144.0Z"/><text x="350.83333333333337" y="375.0" fill="#000000" font-family="Arial" font-size="11" text-anchor="middle" dominant-baseline="central">9.0</text><text x="70.16666666666667" y="-6.0" fill="#444444" font-family="Arial" font-size="11" text-anchor="middle" dominant-baseline="bottom">A</text><text x="210.5" y="-6.0" fill="#444444" font-family="Arial" font-size="11" text-anchor="middle" dominant-baseline="bottom">B</text><text x="350.83333333333337" y="-6.0" fill="#444444" font-family="Arial" font-size="11" text-anchor="middle" dominant-baseline="bottom">C</text><text x="-5.613333333333334" y="75.0" fill="#444444" font-family="Arial" font-size="11" text-anchor="end" dominant-baseline="central">X</text><text x="-5.613333333333334" y="225.0" fill="#444444" font-family="Arial" font-size="11" text-anchor="end" dominant-baseline="central">Y</text><text x="-5.613333333333334" y="375.0" fill="#444444" font-family="Arial" font-size="11" text-anchor="end" dominant-baseline="central">Z</text><path fill="#1a6b8f" d="M431.0 0.0 h20 v23.5 h-20 v-23.5Z"/><path fill="#256e8c" d="M431.0 22.5 h20 v23.5 h-20 v-23.5Z"/><path fill="#317189" d="M431.0 45.0 h20 v23.5 h-20 v-23.5Z"/><path fill="#3c7486" d="M431.0 67.5 h20 v23.5 h-20 v-23.5Z"/><path fill="#487784" d="M431.0 90.0 h20 v23.5 h-20 v-23.5Z"/><path fill="#547a81" d="M431.0 112.5 h20 v23.5 h-20 v-23.5Z"/><path fill="#5f7d7e" d="M431.0 135.0 h20 v23.5 h-20 v-23.5Z"/><path fill="#6b807c" d="M431.0 157.5 h20 v23.5 h-20 v-23.5Z"/><path fill="#778379" d="M431.0 180.0 h20 v23.5 h-20 v-23.5Z"/><path fill="#828676" d="M431.0 202.5 h20 v23.5 h-20 v-23.5Z"/><path fill="#8e8974" d="M431.0 225.0 h20 v23.5 h-20 v-23.5Z"/><path fill="#998c71" d="M431.0 247.5 h20 v23.5 h-20 v-23.5Z"/><path fill="#a58f6e" d="M431.0 270.0 h20 v23.5 h-20 v-23.5Z"/><path fill="#b1926c" d="M431.0 292.5 h20 v23.5 h-20 v-23.5Z"/><path fill="#bc9569" d="M431.0 315.0 h20 v23.5 h-20 v-23.5Z"/><path fill="#c89866" d="M431.0 337.5 h20 v23.5 h-20 v-23.5Z"/><path fill="#d49b64" d="M431.0 360.0 h20 v23.5 h-20 v-23.5Z"/><path fill="#df9e61" d="M431.0 382.5 h20 v23.5 h-20 v-23.5Z"/><path fill="#eba15e" d="M431.0 405.0 h20 v23.5 h-20 v-23.5Z"/><path fill="#f7a55c" d="M431.0 427.5 h20 v23.5 h-20 v-23.5Z"/><text x="441.0" y="450.0" fill="#444444" font-family="Arial" font-size="11" text-anchor="middle">1.0</text><text x="441.0" y="0" fill="#444444" font-family="Arial" font-size="11" text-anchor="middle" dominant-baseline="bottom">9.0</text><path stroke="#CCCCCC" stroke-dasharray="None" d="M0 450.0 h421.0"/><path stroke="#CCCCCC" stroke-dasharray="None" d="M0 0 h421.0"/><path stroke="#CCCCCC" stroke-dasharray="None" d="M0 0 v450.0"/><path stroke="#CCCCCC" stroke-dasharray="None" d="M421.0 0 v450.0"/></g></svg>