<svg xmlns="http://www.w3.org/2000/svg" width="500" height="500" viewBox="0 0 500 500"><path fill="#FFFFFF" d="M0 0 h500 v500 h-500 v-500Z"/><g transform="translate(43.22, 25.0)"><path fill="#440154" stroke="#CCCCCC" stroke-width="0.25" d="M2.4 3.0 h116.2 v141.8 h-116.2 v-141.8Z"/><text x="60.49666666666667" y="73.83333333333333" fill="#ffffff" font-family="DejaVu Sans, sans-serif" font-size="11" text-anchor="middle" dominant-baseline="central">1.0</text><path fill="#402a6b" stroke="#CCCCCC" stroke-width="0.25" d="M123.4 3.0 h116.2 v141.8 h-116.2 v-141.8Z"/><text x="181.49" y="73.83333333333333" fill="#ffffff" font-family="DejaVu Sans, sans-serif" font-size="11" text-anchor="middle" dominant-baseline="central">2.0</text><path fill="#3b5282" stroke="#CCCCCC" stroke-width="0.25" d="M244.4 3.0 h116.2 v141.8 h-116.2 v-141.8Z"/><text x="302.48333333333335" y="73.83333333333333" fill="#ffffff" font-family="DejaVu Sans, sans-serif" font-size="11" text-anchor="middle" dominant-baseline="central">3.0</text><path fill="#2e75a1" stroke="#CCCCCC" stroke-width="0.25" d="M2.4 150.6 h116.2 v141.8 h-116.2 v-141.8Z"/><text x="60.49666666666667" y="221.5" fill="#ffffff" font-family="DejaVu Sans, sans-serif" font-size="11" text-anchor="middle" dominant-baseline="central">4.0</text><path fill="#2198c0" stroke="#CCCCCC" stroke-width="0.25" d="M123.4 150.6 h116.2 v141.8 h-116.2 v-141.8Z"/><text x="181.49" y="221.5" fill="#000000" font-family="DejaVu Sans, sans-serif" font-size="11" text-anchor="middle" dominant-baseline="central">5.0</text><path fill="#58b6a2" stroke="#CCCCCC" stroke-width="0.25" d="M244.4 150.6 h116.2 v141.8 h-116.2 v-141.8Z"/><text x="302.48333333333335" y="221.5" fill="#000000" font-family="DejaVu Sans, sans-serif" font-size="11" text-anchor="middle" dominant-baseline="central">6.0</text><path fill="#90d584" stroke="#CCCCCC" stroke-width="0.25" d="M2.4 298.3 h116.2 v141.8 h-116.2 v-141.8Z"/><text x="60.49666666666667" y="369.16666666666663" fill="#000000" font-family="DejaVu Sans, sans-serif" font-size="11" text-anchor="middle" dominant-baseline="central">7.0</text><path fill="#c6de54" stroke="#CCCCCC" stroke-width="0.25" d="M123.4 298.3 h116.2 v141.8 h-116.2 v-141.8Z"/><text x="181.49" y="369.16666666666663" fill="#000000" font-family="DejaVu Sans, sans-serif" font-size="11" text-anchor="middle" dominant-baseline="central">8.0</text><path fill="#fde725" stroke="#CCCCCC" stroke-width="0.25" d="M244.4 298.3 h116.2 v141.8 h-116.2 v-141.8Z"/><text x="302.48333333333335" y="369.16666666666663" fill="#000000" font-family="DejaVu Sans, sans-serif" font-size="11" text-anchor="middle" dominant-baseline="central">9.0</text><text x="60.49666666666667" y="-5.906666666666666" fill="#444444" font-family="DejaVu Sans, sans-serif" font-size="11" text-anchor="middle" dominant-baseline="bottom">A</text><text x="181.49" y="-5.906666666666666" fill="#444444" font-family="DejaVu Sans, sans-serif" font-size="11" text-anchor="middle" dominant-baseline="bottom">B</text><text x="302.48333333333335" y="-5.906666666666666" fill="#444444" font-family="DejaVu Sans, sans-serif" font-size="11" text-anchor="middle" dominant-baseline="bottom">C</text><text x="-4.839733333333334" y="73.83333333333333" fill="#444444" font-family="DejaVu Sans, sans-serif" font-size="11" text-anchor="end" dominant-baseline="central">X</text><text x="-4.839733333333334" y="221.5" fill="#444444" font-family="DejaVu Sans, sans-serif" font-size="11" text-anchor="end" dominant-baseline="central">Y</text><text x="-4.839733333333334" y="369.16666666666663" fill="#444444" font-family="DejaVu Sans, sans-serif" font-size="11" text-anchor="end" dominant-baseline="central">Z</text><path fill="#fde725" d="M377.0 0.0 h16.0 v7.9 h-16.0 v-7.9Z"/><path fill="#f6e62b" d="M377.0 6.9 h16.0 v7.9 h-16.0 v-7.9Z"/><path fill="#efe531" d="M377.0 13.8 h16.0 v7.9 h-16.0 v-7.9Z"/><path fill="#e8e437" d="M377.0 20.8 h16.0 v7.9 h-16.0 v-7.9Z"/><path fill="#e1e23d" d="M377.0 27.7 h16.0 v7.9 h-16.0 v-7.9Z"/><path fill="#dae143" d="M377.0 34.6 h16.0 v7.9 h-16.0 v-7.9Z"/><path fill="#d3e049" d="M377.0 41.5 h16.0 v7.9 h-16.0 v-7.9Z"/><path fill="#cddf4f" d="M377.0 48.5 h16.0 v7.9 h-16.0 v-7.9Z"/><path fill="#c6de55" d="M377.0 55.4 h16.0 v7.9 h-16.0 v-7.9Z"/><path fill="#bfdd5b" d="M377.0 62.3 h16.0 v7.9 h-16.0 v-7.9Z"/><path fill="#b8dc61" d="M377.0 69.2 h16.0 v7.9 h-16.0 v-7.9Z"/><path fill="#b1da67" d="M377.0 76.1 h16.0 v7.9 h-16.0 v-7.9Z"/><path fill="#aad96d" d="M377.0 83.1 h16.0 v7.9 h-16.0 v-7.9Z"/><path fill="#a3d873" d="M377.0 90.0 h16.0 v7.9 h-16.0 v-7.9Z"/><path fill="#9cd779" d="M377.0 96.9 h16.0 v7.9 h-16.0 v-7.9Z"/><path fill="#95d67f" d="M377.0 103.8 h16.0 v7.9 h-16.0 v-7.9Z"/><path fill="#8ed485" d="M377.0 110.8 h16.0 v7.9 h-16.0 v-7.9Z"/><path fill="#87d089" d="M377.0 117.7 h16.0 v7.9 h-16.0 v-7.9Z"/><path fill="#80cc8d" d="M377.0 124.6 h16.0 v7.9 h-16.0 v-7.9Z"/><path fill="#79c890" d="M377.0 131.5 h16.0 v7.9 h-16.0 v-7.9Z"/><path fill="#72c594" d="M377.0 138.4 h16.0 v7.9 h-16.0 v-7.9Z"/><path fill="#6bc198" d="M377.0 145.4 h16.0 v7.9 h-16.0 v-7.9Z"/><path fill="#64bd9c" d="M377.0 152.3 h16.0 v7.9 h-16.0 v-7.9Z"/><path fill="#5db9a0" d="M377.0 159.2 h16.0 v7.9 h-16.0 v-7.9Z"/><path fill="#56b5a3" d="M377.0 166.1 h16.0 v7.9 h-16.0 v-7.9Z"/><path fill="#4fb1a7" d="M377.0 173.0 h16.0 v7.9 h-16.0 v-7.9Z"/><path fill="#48adab" d="M377.0 180.0 h16.0 v7.9 h-16.0 v-7.9Z"/><path fill="#41a9af" d="M377.0 186.9 h16.0 v7.9 h-16.0 v-7.9Z"/><path fill="#3aa6b3" d="M377.0 193.8 h16.0 v7.9 h-16.0 v-7.9Z"/><path fill="#33a2b6" d="M377.0 200.7 h16.0 v7.9 h-16.0 v-7.9Z"/><path fill="#2c9eba" d="M377.0 207.7 h16.0 v7.9 h-16.0 v-7.9Z"/><path fill="#259abe" d="M377.0 214.6 h16.0 v7.9 h-16.0 v-7.9Z"/><path fill="#2296be" d="M377.0 221.5 h16.0 v7.9 h-16.0 v-7.9Z"/><path fill="#2391ba" d="M377.0 228.4 h16.0 v7.9 h-16.0 v-7.9Z"/><path fill="#258db6" d="M377.0 235.3 h16.0 v7.9 h-16.0 v-7.9Z"/><path fill="#2788b2" d="M377.0 242.3 h16.0 v7.9 h-16.0 v-7.9Z"/><path fill="#2884ae" d="M377.0 249.2 h16.0 v7.9 h-16.0 v-7.9Z"/><path fill="#2a80aa" d="M377.0 256.1 h16.0 v7.9 h-16.0 v-7.9Z"/><path fill="#2c7ba6" d="M377.0 263.0 h16.0 v7.9 h-16.0 v-7.9Z"/><path fill="#2d77a2" d="M377.0 270.0 h16.0 v7.9 h-16.0 v-7.9Z"/><path fill="#2f729f" d="M377.0 276.9 h16.0 v7.9 h-16.0 v-7.9Z"/><path fill="#316e9b" d="M377.0 283.8 h16.0 v7.9 h-16.0 v-7.9Z"/><path fill="#326997" d="M377.0 290.7 h16.0 v7.9 h-16.0 v-7.9Z"/><path fill="#346593" d="M377.0 297.6 h16.0 v7.9 h-16.0 v-7.9Z"/><path fill="#36608f" d="M377.0 304.6 h16.0 v7.9 h-16.0 v-7.9Z"/><path fill="#375c8b" d="M377.0 311.5 h16.0 v7.9 h-16.0 v-7.9Z"/><path fill="#395887" d="M377.0 318.4 h16.0 v7.9 h-16.0 v-7.9Z"/><path fill="#3b5383" d="M377.0 325.3 h16.0 v7.9 h-16.0 v-7.9Z"/><path fill="#3b4e80" d="M377.0 332.2 h16.0 v7.9 h-16.0 v-7.9Z"/><path fill="#3c497d" d="M377.0 339.2 h16.0 v7.9 h-16.0 v-7.9Z"/><path fill="#3d447a" d="M377.0 346.1 h16.0 v7.9 h-16.0 v-7.9Z"/><path fill="#3d3f77" d="M377.0 353.0 h16.0 v7.9 h-16.0 v-7.9Z"/><path fill="#3e3a74" d="M377.0 359.9 h16.0 v7.9 h-16.0 v-7.9Z"/><path fill="#3e3471" d="M377.0 366.9 h16.0 v7.9 h-16.0 v-7.9Z"/><path fill="#3f2f6e" d="M377.0 373.8 h16.0 v7.9 h-16.0 v-7.9Z"/><path fill="#3f2a6b" d="M377.0 380.7 h16.0 v7.9 h-16.0 v-7.9Z"/><path fill="#402568" d="M377.0 387.6 h16.0 v7.9 h-16.0 v-7.9Z"/><path fill="#412066" d="M377.0 394.5 h16.0 v7.9 h-16.0 v-7.9Z"/><path fill="#411b63" d="M377.0 401.5 h16.0 v7.9 h-16.0 v-7.9Z"/><path fill="#421660" d="M377.0 408.4 h16.0 v7.9 h-16.0 v-7.9Z"/><path fill="#42105d" d="M377.0 415.3 h16.0 v7.9 h-16.0 v-7.9Z"/><path fill="#430b5a" d="M377.0 422.2 h16.0 v7.9 h-16.0 v-7.9Z"/><path fill="#430657" d="M377.0 429.2 h16.0 v7.9 h-16.0 v-7.9Z"/><path fill="#440154" d="M377.0 436.1 h16.0 v7.9 h-16.0 v-7.9Z"/><path fill="none" stroke="#444444" stroke-width="0.75" d="M377.0 0 h16.0 v443.0 h-16.0 v-443.0Z"/><path stroke="#444444" stroke-width="0.75" d="M392.98 443.0 h4"/><text x="401.98" y="443.0" fill="#444444" font-family="DejaVu Sans, sans-serif" font-size="11" text-anchor="start" dominant-baseline="central">1.0</text><path stroke="#444444" stroke-width="0.75" d="M392.98 332.25 h4"/><text x="401.98" y="332.25" fill="#444444" font-family="DejaVu Sans, sans-serif" font-size="11" text-anchor="start" dominant-baseline="central">3.0</text><path stroke="#444444" stroke-width="0.75" d="M392.98 221.5 h4"/><text x="401.98" y="221.5" fill="#444444" font-family="DejaVu Sans, sans-serif" font-size="11" text-anchor="start" dominant-baseline="central">5.0</text><path stroke="#444444" stroke-width="0.75" d="M392.98 110.75 h4"/><text x="401.98" y="110.75" fill="#444444" font-family="DejaVu Sans, sans-serif" font-size="11" text-anchor="start" dominant-baseline="central">7.0</text><path stroke="#444444" stroke-width="0.75" d="M392.98 0.0 h4"/><text x="401.98" y="0.0" fill="#444444" font-family="DejaVu Sans, sans-serif" font-size="11" text-anchor="start" dominant-baseline="central">9.0</text></g></svg>