<svg xmlns="http://www.w3.org/2000/svg" width="500" height="500" viewBox="0 0 500 500"><path fill="white" d="M0 0 h500 v500 h-500 v-500Z"/><g opacity="0.8" transform=""><circle cx="250.0" cy="250.0" r="19.259999999999998" fill="none" stroke="#e0e0e0" stroke-width="1"/><circle cx="250.0" cy="250.0" r="38.519999999999996" fill="none" stroke="#e0e0e0" stroke-width="1"/><circle cx="250.0" cy="250.0" r="57.779999999999994" fill="none" stroke="#e0e0e0" stroke-width="1"/><circle cx="250.0" cy="250.0" r="77.03999999999999" fill="none" stroke="#e0e0e0" stroke-width="1"/><circle cx="250.0" cy="250.0" r="96.29999999999998" fill="none" stroke="#e0e0e0" stroke-width="1"/><path d="M250.0 250.0 L250.0 346.3" stroke="#e0e0e0" stroke-width="1"/><text x="255.0" y="370.3" fill="#333" font-size="12" font-family="Arial" text-anchor="start">Speed</text><path d="M250.0 250.0 L341.58674251922326 279.7583365583074" stroke="#e0e0e0" stroke-width="1"/><text x="365.60787284512634" y="289.9386764458064" fill="#333" font-size="12" font-family="Arial" text-anchor="start">Power</text><path d="M250.0 250.0 L306.6037197957652 172.09166344169256" stroke="#e0e0e0" stroke-width="1"/><text x="323.3594248416146" y="159.91132355419361" fill="#333" font-size="12" font-family="Arial" text-anchor="start">Range</text><path d="M250.0 250.0 L193.39628020423484 172.09166344169256" stroke="#e0e0e0" stroke-width="1"/><text x="176.6405751583854" y="159.91132355419361" fill="#333" font-size="12" font-family="Arial" text-anchor="end">Armor</text><path d="M250.0 250.0 L158.4132574807767 279.7583365583074" stroke="#e0e0e0" stroke-width="1"/><text x="134.39212715487363" y="289.9386764458064" fill="#333" font-size="12" font-family="Arial" text-anchor="end">Stealth</text><path d="M250.0,335.6 321.234133070507,273.1453728786836 287.73581319717675,198.06110896112838 193.39628020423484,172.09166344169256 199.11847637820927,266.53240919905966 Z" fill="#5fab9e" fill-opacity="0.2" stroke="#5fab9e" stroke-width="2"/><circle cx="250.0" cy="335.6" r="4" fill="#5fab9e" stroke="white" stroke-width="1"/><circle cx="321.234133070507" cy="273.1453728786836" r="4" fill="#5fab9e" stroke="white" stroke-width="1"/><circle cx="287.73581319717675" cy="198.06110896112838" r="4" fill="#5fab9e" stroke="white" stroke-width="1"/><circle cx="193.39628020423484" cy="172.09166344169256" r="4" fill="#5fab9e" stroke="white" stroke-width="1"/><circle cx="199.11847637820927" cy="266.53240919905966" r="4" fill="#5fab9e" stroke="white" stroke-width="1"/><path d="M250.0,314.2 341.58674251922326,279.7583365583074 300.31441759623567,180.7481452815045 218.5534890023527,206.71759080094031 168.58956220513485,276.4518547184955 Z" fill="#f58b51" fill-opacity="0.2" stroke="#f58b51" stroke-width="2"/><circle cx="250.0" cy="314.2" r="4" fill="#f58b51" stroke="white" stroke-width="1"/><circle cx="341.58674251922326" cy="279.7583365583074" r="4" fill="#f58b51" stroke="white" stroke-width="1"/><circle cx="300.31441759623567" cy="180.7481452815045" r="4" fill="#f58b51" stroke="white" stroke-width="1"/><circle cx="218.5534890023527" cy="206.71759080094031" r="4" fill="#f58b51" stroke="white" stroke-width="1"/><circle cx="168.58956220513485" cy="276.4518547184955" r="4" fill="#f58b51" stroke="white" stroke-width="1"/></g><g><rect transform="translate(-6.0, -3.5)" x="417.0" y="32.5" width="60.0" height="35.0" fill="#ffffff" stroke="#CCCCCC"/><g><rect y="34.5" x="417.0" width="12" height="12" fill="#5fab9e"/><text y="43.5" x="431.0" font-size="12" font-family="Arial">Unit A</text></g><g><rect y="46.5" x="417.0" width="12" height="12" fill="#f58b51"/><text y="55.5" x="431.0" font-size="12" font-family="Arial">Unit B</text></g></g></svg>