<svg xmlns="http://www.w3.org/2000/svg" width="600" height="400" viewBox="0 0 600 400"><path fill="white" d="M0 0 h600 v400 h-600 v-400Z"/><text transform="translate(-107.5, 18)" fill="#444444" font-family="Arial" font-weight="bold" font-size="16" x="300.0" y="10.0">Bar Chart - X-Axis Interval=2</text><g><path stroke="#CCCCCC" stroke-dasharray="None" d="M0 41.6 h484.0 M0 104.0 h484.0 M0 166.4 h484.0" transform="translate(86.0, 47.0)"/><g font-size="12" font-family="Arial" transform="translate(80.0, 47.0)"><text x="0" y="41.6" transform="translate(-53, -7.0)">Very Low</text><text x="0" y="104.0" transform="translate(-44, -7.0)">Medium</text><text x="0" y="166.4" transform="translate(-56, -7.0)">Very High</text></g></g><g><path stroke="#CCCCCC" stroke-dasharray="None" d="M0.0 0 v333.0 M60.5 0 v333.0 M121.0 0 v333.0 M181.5 0 v333.0 M242.0 0 v333.0 M302.5 0 v333.0 M363.0 0 v333.0 M423.5 0 v333.0 M484.0 0 v333.0" transform="translate(86.0, 47.0)"/><g font-size="12" font-family="Arial" transform="translate(86.0, 65.0)"><text x="0.0" y="333.0" transform="translate(-9.0, 0)">-40</text><text x="121.0" y="333.0" transform="translate(-9.0, 0)">-20</text><text x="242.0" y="333.0" transform="translate(-3.5, 0)">0</text><text x="363.0" y="333.0" transform="translate(-7.0, 0)">20</text><text x="484.0" y="333.0" transform="translate(-7.0, 0)">40</text></g></g><path transform="translate(86.0, 0)" d="M40.0 0 v333.0z" stroke="black"/><g><g opacity="0.8" transform="translate(328.0, 47.0)"><path d="M-242.0 20.8 h242.0 v41.6 h-242.0 v-41.6Z M-121.0 83.2 h121.0 v41.6 h-121.0 v-41.6Z M0.0 145.6 h0.0 v41.6 h-0.0 v-41.6Z M0.0 208.0 h121.0 v41.6 h-121.0 v-41.6Z M0.0 270.4 h242.0 v41.6 h-242.0 v-41.6Z" fill="#5fab9e"/></g><path stroke="#CCCCCC" stroke-dasharray="None" d="M0 333.0 h484.0" transform="translate(86.0, 47.0)"/><path stroke="#CCCCCC" stroke-dasharray="None" d="M0 0 h484.0" transform="translate(86.0, 47.0)"/><path stroke="#CCCCCC" stroke-dasharray="None" d="M0 0 v333.0" transform="translate(86.0, 47.0)"/><path stroke="#CCCCCC" stroke-dasharray="None" d="M484.0 0 v333.0" transform="translate(86.0, 47.0)"/></g></svg>