<svg xmlns="http://www.w3.org/2000/svg" width="600" height="400" viewBox="0 0 600 400"><path fill="white" d="M0 0 h600 v400 h-600 v-400Z"/><text transform="translate(-130.0, 18)" fill="#444444" font-family="Arial" font-weight="bold" font-size="16" x="300.0" y="10.0">Column Chart - Default Tick Labels</text><g><path stroke="#CCCCCC" stroke-dasharray="None" d="M0 166.5 h540.0 M0 133.2 h540.0 M0 99.9 h540.0 M0 66.6 h540.0 M0 33.3 h540.0 M0 0.0 h540.0 M0 -33.3 h540.0 M0 -66.6 h540.0 M0 -99.9 h540.0 M0 -133.2 h540.0 M0 -166.5 h540.0" transform="translate(30.0, 47.0)"/><g font-size="12" font-family="Arial" transform="translate(24.0, 47.0)"><text x="0" y="166.5" transform="translate(-18, -7.0)">-40</text><text x="0" y="133.2" transform="translate(-18, -7.0)">-20</text><text x="0" y="99.9" transform="translate(-7, -7.0)">0</text><text x="0" y="66.6" transform="translate(-14, -7.0)">20</text><text x="0" y="33.3" transform="translate(-14, -7.0)">40</text></g></g><g><path stroke="#CCCCCC" stroke-dasharray="None" d="M0.0 0 v333.0 M67.5 0 v333.0 M135.0 0 v333.0 M202.5 0 v333.0 M270.0 0 v333.0 M337.5 0 v333.0 M405.0 0 v333.0 M472.5 0 v333.0 M540.0 0 v333.0" transform="translate(30.0, 47.0)"/><g font-size="12" font-family="Arial" transform="translate(30.0, 65.0)"><text x="0.0" y="333.0" transform="translate(-2.0, 0)"> </text><text x="67.5" y="333.0" transform="translate(-4.5, 0)">A</text><text x="135.0" y="333.0" transform="translate(-4.5, 0)">B</text><text x="202.5" y="333.0" transform="translate(-4.5, 0)">C</text><text x="270.0" y="333.0" transform="translate(-4.5, 0)">D</text><text x="337.5" y="333.0" transform="translate(-4.5, 0)">E</text><text x="405.0" y="333.0" transform="translate(-4.0, 0)">F</text><text x="472.5" y="333.0" transform="translate(-5.0, 0)">G</text><text x="540.0" y="333.0" transform="translate(-2.0, 0)"> </text></g></g><path transform="translate(30.0, 0)" d="M0 116.5 h540.0z" stroke="black"/><g opacity="0.8" transform="translate(-30.0, -20.0) rotate(180, 300.0, 200.0) scale(-1, 1) translate(-540.0, 0) translate(-24.6, 0.0)"><path d="M67.5 166.5 h49.1 v-133.2 h-49.1 v133.2Z M135.0 166.5 h49.1 v-99.9 h-49.1 v99.9Z M202.5 166.5 h49.1 v-66.6 h-49.1 v66.6Z M270.0 166.5 h49.1 v-33.3 h-49.1 v33.3Z M337.5 166.5 h49.1 v-0.0 h-49.1 v0.0Z M405.0 166.5 h49.1 v-33.3 h-49.1 v33.3Z M472.5 166.5 h49.1 v-66.6 h-49.1 v66.6Z" fill="#5fab9e"/><path d="M67.5 166.5 h49.1 v133.2 h-49.1 v-133.2Z M135.0 166.5 h49.1 v99.9 h-49.1 v-99.9Z M202.5 166.5 h49.1 v66.6 h-49.1 v-66.6Z M270.0 166.5 h49.1 v33.3 h-49.1 v-33.3Z M337.5 166.5 h49.1 v0.0 h-49.1 v-0.0Z M405.0 166.5 h49.1 v33.3 h-49.1 v-33.3Z M472.5 166.5 h49.1 v66.6 h-49.1 v-66.6Z" fill="#f58b51"/></g></svg>