<svg xmlns="http://www.w3.org/2000/svg" width="600" height="400" viewBox="0 0 600 400"><path fill="white" d="M0 0 h600 v400 h-600 v-400Z"/><text transform="translate(-123.0, 18)" fill="#444444" font-family="Arial" font-weight="bold" font-size="16" x="300.0" y="10.0">Column Chart - Y-Axis Interval=2</text><g><path stroke="#CCCCCC" stroke-dasharray="None" d="M0 333.0 h540.0 M0 299.7 h540.0 M0 266.40000000000003 h540.0 M0 233.1 h540.0 M0 199.79999999999998 h540.0 M0 166.5 h540.0 M0 133.20000000000002 h540.0 M0 99.89999999999999 h540.0 M0 66.60000000000001 h540.0 M0 33.300000000000004 h540.0 M0 0.0 h540.0" transform="translate(30.0, 47.0)"/><g font-size="12" font-family="Arial" transform="translate(24.0, 47.0)"><text x="0" y="333.0" transform="translate(-18, 3.5)">-40</text><text x="0" y="299.7" transform="translate(-18, 3.5)">-20</text><text x="0" y="266.40000000000003" transform="translate(-7, 3.5)">0</text><text x="0" y="233.1" transform="translate(-14, 3.5)">20</text><text x="0" y="199.79999999999998" transform="translate(-14, 3.5)">40</text></g></g><g><path stroke="#CCCCCC" stroke-dasharray="None" d="M0.0 0 v333.0 M67.5 0 v333.0 M135.0 0 v333.0 M202.5 0 v333.0 M270.0 0 v333.0 M337.5 0 v333.0 M405.0 0 v333.0 M472.5 0 v333.0 M540.0 0 v333.0" transform="translate(30.0, 47.0)"/><g font-size="12" font-family="Arial" transform="translate(30.0, 65.0)"><text x="0.0" y="333.0" transform="translate(-2.0, 0)"> </text><text x="135.0" y="333.0" transform="translate(-4.5, 0)">B</text><text x="270.0" y="333.0" transform="translate(-4.5, 0)">D</text><text x="405.0" y="333.0" transform="translate(-4.0, 0)">F</text><text x="540.0" y="333.0" transform="translate(-2.0, 0)"> </text></g></g><path transform="translate(30.0, 0)" d="M0 283.0 h540.0z" stroke="black"/><g opacity="0.8" transform="translate(-30.0, -20.0) rotate(180, 300.0, 200.0) scale(-1, 1) translate(-540.0, 0) translate(-24.545454545454547, 166.5)"><path d="M67.5 0.0 h49.09090909090909 v-33.300000000000004 h-49.09090909090909 v33.300000000000004Z M135.0 0.0 h49.09090909090909 v-66.60000000000001 h-49.09090909090909 v66.60000000000001Z M202.5 0.0 h49.09090909090909 v-99.89999999999999 h-49.09090909090909 v99.89999999999999Z M270.0 0.0 h49.09090909090909 v-133.20000000000002 h-49.09090909090909 v133.20000000000002Z M337.5 0.0 h49.09090909090909 v-166.5 h-49.09090909090909 v166.5Z M405.0 0.0 h49.09090909090909 v-133.20000000000002 h-49.09090909090909 v133.20000000000002Z M472.5 0.0 h49.09090909090909 v-99.89999999999999 h-49.09090909090909 v99.89999999999999Z" fill="#5fab9e"/><path d="M67.5 0.0 h49.09090909090909 v33.300000000000004 h-49.09090909090909 v-33.300000000000004Z M135.0 0.0 h49.09090909090909 v66.60000000000001 h-49.09090909090909 v-66.60000000000001Z M202.5 0.0 h49.09090909090909 v99.89999999999999 h-49.09090909090909 v-99.89999999999999Z M270.0 0.0 h49.09090909090909 v133.20000000000002 h-49.09090909090909 v-133.20000000000002Z M337.5 0.0 h49.09090909090909 v166.5 h-49.09090909090909 v-166.5Z M405.0 0.0 h49.09090909090909 v133.20000000000002 h-49.09090909090909 v-133.20000000000002Z M472.5 0.0 h49.09090909090909 v99.89999999999999 h-49.09090909090909 v-99.89999999999999Z" fill="#f58b51"/></g></svg>