<svg xmlns="http://www.w3.org/2000/svg" width="600" height="400" viewBox="0 0 600 400"><path fill="white" d="M0 0 h600 v400 h-600 v-400Z"/><text transform="translate(-110.0, 18)" fill="#444444" font-family="Arial" font-weight="bold" font-size="16" x="300.0" y="10.0">Line Chart - X-Axis Interval=2</text><g><path stroke="#CCCCCC" stroke-dasharray="None" d="M0 333.0 h540.0 M0 296.0 h540.0 M0 259.0 h540.0 M0 222.0 h540.0 M0 185.0 h540.0 M0 148.0 h540.0 M0 111.0 h540.0 M0 74.0 h540.0 M0 37.0 h540.0 M0 0.0 h540.0" transform="translate(30.0, 47.0)"/><g font-size="12" font-family="Arial" transform="translate(24.0, 47.0)"><text x="0" y="333.0" transform="translate(-7, -7.0)">0</text><text x="0" y="296.0" transform="translate(-14, -7.0)">10</text><text x="0" y="259.0" transform="translate(-14, -7.0)">20</text><text x="0" y="222.0" transform="translate(-14, -7.0)">30</text><text x="0" y="185.0" transform="translate(-14, -7.0)">40</text></g></g><g><path stroke="#CCCCCC" stroke-dasharray="None" d="M0.0 0 v333.0 M45.0 0 v333.0 M90.0 0 v333.0 M135.0 0 v333.0 M180.0 0 v333.0 M225.0 0 v333.0 M270.0 0 v333.0 M315.0 0 v333.0 M360.0 0 v333.0 M405.0 0 v333.0 M450.0 0 v333.0 M495.0 0 v333.0 M540.0 0 v333.0" transform="translate(30.0, 47.0)"/><g font-size="12" font-family="Arial" transform="translate(30.0, 65.0)"><text x="0.0" y="333.0" transform="translate(-9.5, 0)">T-4</text><text x="180.0" y="333.0" transform="translate(-7.5, 0)">T0</text><text x="360.0" y="333.0" transform="translate(-11.5, 0)">T+4</text><text x="540.0" y="333.0" transform="translate(-11.5, 0)">T+8</text></g></g><g opacity="0.8" transform="translate(-30.0, -20.0) rotate(180, 300.0, 200.0) scale(-1, 1) translate(-540.0, 0)"><g fill="white" stroke="#5fab9e" stroke-width="2"><path d="M0.0 296.0 L90.0 222.0 L180.0 148.0 L270.0 74.0 L360.0 0.0 L450.0 74.0 L540.0 148.0" fill="none"/><circle cx="0.0" cy="296.0" r="3"/><circle cx="90.0" cy="222.0" r="3"/><circle cx="180.0" cy="148.0" r="3"/><circle cx="270.0" cy="74.0" r="3"/><circle cx="360.0" cy="0.0" r="3"/><circle cx="450.0" cy="74.0" r="3"/><circle cx="540.0" cy="148.0" r="3"/></g></g></svg>