<svg xmlns="http://www.w3.org/2000/svg" width="700" height="500" viewBox="0 0 700 500"><path fill="#1a1a1a" d="M0 0 h700 v500 h-700 v-500Z"/><text transform="translate(-45.5, 18)" fill="#ffffff" font-family="Arial" font-weight="normal" font-size="16" x="350.0" y="12.5">Dark Theme</text><g><path stroke="#9ca3af" stroke-dasharray="None" d="M0 65.07692307692308 h613.0 M0 162.6923076923077 h613.0 M0 260.3076923076923 h613.0 M0 357.9230769230769 h613.0" transform="translate(52.0, 52.0)"/><g font-size="12" font-family="Arial" fill="#ffffff" transform="translate(46.0, 52.0)"><text x="0" y="65.07692307692308" transform="translate(-17, -7.0)">Q1</text><text x="0" y="162.6923076923077" transform="translate(-17, -7.0)">Q2</text><text x="0" y="260.3076923076923" transform="translate(-17, -7.0)">Q3</text><text x="0" y="357.9230769230769" transform="translate(-17, -7.0)">Q4</text></g></g><g><path stroke="#9ca3af" stroke-dasharray="None" d="M613.0 0 v423.0 M490.40000000000003 0 v423.0 M367.8 0 v423.0 M245.20000000000002 0 v423.0 M122.60000000000001 0 v423.0 M0.0 0 v423.0" transform="translate(52.0, 52.0)"/><g font-size="12" font-family="Arial" fill="#ffffff" transform="translate(52.0, 70.0)"><text x="613.0" y="423.0" transform="translate(-10.5, 0)">250</text><text x="490.40000000000003" y="423.0" transform="translate(-10.5, 0)">200</text><text x="367.8" y="423.0" transform="translate(-10.5, 0)">150</text><text x="245.20000000000002" y="423.0" transform="translate(-10.5, 0)">100</text><text x="122.60000000000001" y="423.0" transform="translate(-7.0, 0)">50</text><text x="0.0" y="423.0" transform="translate(-3.5, 0)">0</text></g></g><g><g opacity="0.8" transform="translate(52.0, 52.0)"><path d="M0.0 32.5 h294.2 v21.7 h-294.2 v-21.7Z M0.0 130.2 h441.4 v21.7 h-441.4 v-21.7Z M0.0 227.8 h514.9 v21.7 h-514.9 v-21.7Z M0.0 325.4 h367.8 v21.7 h-367.8 v-21.7Z" fill="#5fab9e"/><path d="M0.0 54.2 h220.7 v21.7 h-220.7 v-21.7Z M0.0 151.8 h343.3 v21.7 h-343.3 v-21.7Z M0.0 249.5 h416.8 v21.7 h-416.8 v-21.7Z M0.0 347.1 h294.2 v21.7 h-294.2 v-21.7Z" fill="#f58b51"/><path d="M0.0 75.9 h196.2 v21.7 h-196.2 v-21.7Z M0.0 173.5 h318.8 v21.7 h-318.8 v-21.7Z M0.0 271.2 h392.3 v21.7 h-392.3 v-21.7Z M0.0 368.8 h245.2 v21.7 h-245.2 v-21.7Z" fill="#f7dd72"/></g><path stroke="#9ca3af" stroke-dasharray="None" d="M0 423.0 h613.0" transform="translate(52.0, 52.0)"/><path stroke="#9ca3af" stroke-dasharray="None" d="M0 0 h613.0" transform="translate(52.0, 52.0)"/><path stroke="#9ca3af" stroke-dasharray="None" d="M0 0 v423.0" transform="translate(52.0, 52.0)"/><path stroke="#9ca3af" stroke-dasharray="None" d="M613.0 0 v423.0" transform="translate(52.0, 52.0)"/></g></svg>