<svg xmlns="http://www.w3.org/2000/svg" width="560" height="340" viewBox="0 0 560 340"><path fill="#ffffff" d="M0 0 h560 v340 h-560 v-340Z"/><text transform="translate(-81.225, 17)" fill="#2e4756" font-family="DejaVu Sans, sans-serif" font-weight="bold" font-size="15" x="280.0" y="8.5">Revenue by Region ()</text><defs><clipPath id="plot-clip"><rect x="0" y="0" width="446.72" height="279.5"/></clipPath></defs><g><path stroke="#e8edf0" stroke-dasharray="None" d="M0 29.42105263157895 h446.72 M0 73.55263157894737 h446.72 M0 117.68421052631581 h446.72 M0 161.81578947368422 h446.72 M0 205.94736842105266 h446.72 M0 250.0789473684211 h446.72" transform="translate(85.28, 42.5)"/><g font-size="11" font-family="DejaVu Sans, sans-serif" fill="#2e4756" transform="translate(79.28, 42.5)"><text x="0" y="29.42105263157895" dominant-baseline="central" transform="translate(-32.040000000000006, 0)">APAC</text><text x="0" y="73.55263157894737" dominant-baseline="central" transform="translate(-57.28, 0)">North Am</text><text x="0" y="117.68421052631581" dominant-baseline="central" transform="translate(-42.46, 0)">Europe</text><text x="0" y="161.81578947368422" dominant-baseline="central" transform="translate(-38.65, 0)">LatAm</text><text x="0" y="205.94736842105266" dominant-baseline="central" transform="translate(-26.14, 0)">MEA</text><text x="0" y="250.0789473684211" dominant-baseline="central" transform="translate(-25.410000000000004, 0)">ANZ</text></g></g><g><path stroke="#e8edf0" stroke-dasharray="None" d="M423.2084210526316 0 v279.5 M376.1852631578947 0 v279.5 M329.1621052631579 0 v279.5 M282.13894736842104 0 v279.5 M235.1157894736842 0 v279.5 M188.09263157894736 0 v279.5 M141.06947368421052 0 v279.5 M94.04631578947368 0 v279.5 M47.02315789473684 0 v279.5 M0.0 0 v279.5 M446.72 0 v279.5" transform="translate(85.28, 42.5)"/><g font-size="11" font-family="DejaVu Sans, sans-serif" fill="#2e4756" transform="translate(85.28, 60.5)"><text x="423.2084210526316" y="279.5" transform="translate(-3.815, 0)">9</text><text x="376.1852631578947" y="279.5" transform="translate(-3.815, 0)">8</text><text x="329.1621052631579" y="279.5" transform="translate(-3.815, 0)">7</text><text x="282.13894736842104" y="279.5" transform="translate(-3.815, 0)">6</text><text x="235.1157894736842" y="279.5" transform="translate(-3.815, 0)">5</text><text x="188.09263157894736" y="279.5" transform="translate(-3.815, 0)">4</text><text x="141.06947368421052" y="279.5" transform="translate(-3.815, 0)">3</text><text x="94.04631578947368" y="279.5" transform="translate(-3.815, 0)">2</text><text x="47.02315789473684" y="279.5" transform="translate(-3.815, 0)">1</text><text x="0.0" y="279.5" transform="translate(-3.815, 0)">0</text></g></g><g><g opacity="0.8" transform="translate(85.28, 42.5)"><path d="M0.0 14.7 h197.5 v29.4 h-197.5 v-29.4Z" fill="#5fab9e"/><path d="M0.0 58.8 h366.8 v29.4 h-366.8 v-29.4Z" fill="#db504a"/><path d="M0.0 103.0 h286.8 v29.4 h-286.8 v-29.4Z" fill="#f7dd72"/><path d="M0.0 147.1 h437.3 v29.4 h-437.3 v-29.4Z" fill="#f58b51"/><path d="M0.0 191.2 h258.6 v29.4 h-258.6 v-29.4Z" fill="#2e4756"/><path d="M0.0 235.4 h409.1 v29.4 h-409.1 v-29.4Z" fill="#7ec8bc"/></g><path stroke="#e8edf0" stroke-dasharray="None" d="M0 279.5 h446.72" transform="translate(85.28, 42.5)"/><path stroke="#e8edf0" stroke-dasharray="None" d="M0 0 h446.72" transform="translate(85.28, 42.5)"/><path stroke="#e8edf0" stroke-dasharray="None" d="M0 0 v279.5" transform="translate(85.28, 42.5)"/><path stroke="#e8edf0" stroke-dasharray="None" d="M446.72 0 v279.5" transform="translate(85.28, 42.5)"/></g><path d="M85.28 42.5 v279.5 M85.28 322.0 h446.72" stroke="#999" stroke-width="1.5" fill="none"/></svg>