<svg xmlns="http://www.w3.org/2000/svg" width="560" height="340" viewBox="0 0 560 340"><path fill="#ffffff" d="M0 0 h560 v340 h-560 v-340Z"/><text transform="translate(-107.07999999999997, 17)" fill="#2e4756" font-family="DejaVu Sans, sans-serif" font-weight="bold" font-size="15" x="280.0" y="8.5">API Latency Percentiles (ms)</text><defs><clipPath id="plot-clip"><rect x="0" y="0" width="481.11" height="265.5"/></clipPath></defs><g><path stroke="#e8edf0" stroke-dasharray="None" d="M0 0.0 h481.11 M0 53.1 h481.11 M0 106.2 h481.11 M0 159.29999999999998 h481.11 M0 212.4 h481.11 M0 265.5 h481.11" transform="translate(50.89, 42.5)"/><g font-size="11" font-family="DejaVu Sans, sans-serif" fill="#2e4756" transform="translate(44.89, 42.5)"><text x="0" y="0.0" transform="translate(-22.89, 3.5)">300</text><text x="0" y="53.1" transform="translate(-22.89, 3.5)">240</text><text x="0" y="106.2" transform="translate(-22.89, 3.5)">180</text><text x="0" y="159.29999999999998" transform="translate(-22.89, 3.5)">120</text><text x="0" y="212.4" transform="translate(-15.26, 3.5)">60</text><text x="0" y="265.5" transform="translate(-7.63, 3.5)">0</text></g></g><g><path stroke="#e8edf0" stroke-dasharray="None" d="M0.0 0 v265.5 M43.73727272727273 0 v265.5 M87.47454545454546 0 v265.5 M131.2118181818182 0 v265.5 M174.94909090909093 0 v265.5 M218.68636363636364 0 v265.5 M262.4236363636364 0 v265.5 M306.1609090909091 0 v265.5 M349.89818181818185 0 v265.5 M393.6354545454546 0 v265.5 M437.3727272727273 0 v265.5 M481.11 0 v265.5" transform="translate(50.89, 42.5)"/><g font-size="11" font-family="DejaVu Sans, sans-serif" fill="#2e4756" transform="translate(50.89, 60.5)"><text x="0.0" y="265.5" transform="translate(-9.25, 0)">Jan</text><text x="43.73727272727273" y="265.5" transform="translate(-10.950000000000001, 0)">Feb</text><text x="87.47454545454546" y="265.5" transform="translate(-11.315, 0)">Mar</text><text x="131.2118181818182" y="265.5" transform="translate(-10.38, 0)">Apr</text><text x="174.94909090909093" y="265.5" transform="translate(-12.399999999999999, 0)">May</text><text x="218.68636363636364" y="265.5" transform="translate(-9.38, 0)">Jun</text><text x="262.4236363636364" y="265.5" transform="translate(-7.24, 0)">Jul</text><text x="306.1609090909091" y="265.5" transform="translate(-11.72, 0)">Aug</text><text x="349.89818181818185" y="265.5" transform="translate(-11.31, 0)">Sep</text><text x="393.6354545454546" y="265.5" transform="translate(-10.379999999999999, 0)">Oct</text><text x="437.3727272727273" y="265.5" transform="translate(-11.71, 0)">Nov</text><text x="481.11" y="265.5" transform="translate(-11.61, 0)">Dec</text></g></g><g opacity="0.8" transform="translate(-28.0, -32) rotate(180, 280.0, 170.0) scale(-1, 1) translate(-481.11, 0)"><g fill="white" stroke="#5fab9e" stroke-width="2"><path d="M0.0 37.2 L43.7 39.8 L87.5 36.3 L131.2 42.5 L174.9 46.0 L218.7 43.4 L262.4 38.9 L306.2 41.6 L349.9 46.9 L393.6 44.2 L437.4 40.7 L481.1 38.1" fill="none"/></g><g fill="white" stroke="#db504a" stroke-width="2"><path d="M0.0 77.9 L43.7 83.2 L87.5 77.0 L131.2 90.3 L174.9 104.4 L218.7 94.7 L262.4 80.5 L306.2 86.7 L349.9 108.0 L393.6 101.8 L437.4 84.1 L481.1 78.8" fill="none"/></g><g fill="white" stroke="#f7dd72" stroke-width="2"><path d="M0.0 146.0 L43.7 161.1 L87.5 137.2 L131.2 175.2 L174.9 218.6 L218.7 197.4 L262.4 151.3 L306.2 166.4 L349.9 231.0 L393.6 207.1 L437.4 169.9 L481.1 148.7" fill="none"/></g></g><g><rect transform="translate(-2.6985, -3.8249999999999997)" x="489.3215" y="50.325" width="41.377" height="58.65" fill="#f5f5f5" fill-opacity="0.85" stroke="none"/><g><rect y="52.325" x="489.3215" width="13" height="13" fill="#5fab9e"/><text y="62.075" x="504.3215" font-size="13" font-family="DejaVu Sans, sans-serif" fill="#2e4756">p50</text></g><g><rect y="69.325" x="489.3215" width="13" height="13" fill="#db504a"/><text y="79.075" x="504.3215" font-size="13" font-family="DejaVu Sans, sans-serif" fill="#2e4756">p95</text></g><g><rect y="86.325" x="489.3215" width="13" height="13" fill="#f7dd72"/><text y="96.075" x="504.3215" font-size="13" font-family="DejaVu Sans, sans-serif" fill="#2e4756">p99</text></g></g><path d="M50.89 42.5 v265.5 M50.89 308.0 h481.11" stroke="#999" stroke-width="1.5" fill="none"/></svg>