<svg xmlns="http://www.w3.org/2000/svg" width="560" height="340" viewBox="0 0 560 340"><path fill="#ffffff" d="M0 0 h560 v340 h-560 v-340Z"/><text transform="translate(-87.41999999999999, 17)" fill="#2e4756" font-family="DejaVu Sans, sans-serif" font-weight="bold" font-size="15" x="280.0" y="8.5">Revenue vs Net Margin</text><defs><clipPath id="plot-clip"><rect x="0" y="0" width="496.37" height="265.5"/></clipPath></defs><g><path stroke="#e8edf0" stroke-dasharray="None" d="M0 0.0 h496.37 M0 53.1 h496.37 M0 106.2 h496.37 M0 159.29999999999998 h496.37 M0 212.4 h496.37 M0 265.5 h496.37" transform="translate(35.63, 42.5)"/><g font-size="11" font-family="DejaVu Sans, sans-serif" fill="#2e4756" transform="translate(29.630000000000003, 42.5)"><text x="0" y="0.0" transform="translate(-7.63, 3.5)">5</text><text x="0" y="53.1" transform="translate(-7.63, 3.5)">4</text><text x="0" y="106.2" transform="translate(-7.63, 3.5)">3</text><text x="0" y="159.29999999999998" transform="translate(-7.63, 3.5)">2</text><text x="0" y="212.4" transform="translate(-7.63, 3.5)">1</text><text x="0" y="265.5" transform="translate(-7.63, 3.5)">0</text></g></g><g><path stroke="#e8edf0" stroke-dasharray="None" d="M0.0 0 v265.5 M55.15222222222222 0 v265.5 M110.30444444444444 0 v265.5 M165.45666666666665 0 v265.5 M220.60888888888888 0 v265.5 M275.7611111111111 0 v265.5 M330.9133333333333 0 v265.5 M386.0655555555556 0 v265.5 M441.21777777777777 0 v265.5 M496.37 0 v265.5" transform="translate(35.63, 42.5)"/><g font-size="11" font-family="DejaVu Sans, sans-serif" fill="#2e4756" transform="translate(35.63, 60.5)"><text x="0.0" y="265.5" transform="translate(-1.905, 0)"> </text><text x="55.15222222222222" y="265.5" transform="translate(-8.54, 0)">Q1</text><text x="110.30444444444444" y="265.5" transform="translate(-8.54, 0)">Q2</text><text x="165.45666666666665" y="265.5" transform="translate(-8.54, 0)">Q3</text><text x="220.60888888888888" y="265.5" transform="translate(-8.54, 0)">Q4</text><text x="275.7611111111111" y="265.5" transform="translate(-8.54, 0)">Q5</text><text x="330.9133333333333" y="265.5" transform="translate(-8.54, 0)">Q6</text><text x="386.0655555555556" y="265.5" transform="translate(-8.54, 0)">Q7</text><text x="441.21777777777777" y="265.5" transform="translate(-8.54, 0)">Q8</text><text x="496.37" y="265.5" transform="translate(-1.905, 0)"> </text></g></g><g><g opacity="0.8" transform="translate(-28.0, -32) rotate(180, 280.0, 170.0) scale(-1, 1) translate(-496.37, 0)"><path d="M33.1 0 h44.1 v111.5 h-44.1 v-111.5Z M88.2 0 h44.1 v148.7 h-44.1 v-148.7Z M143.4 0 h44.1 v180.5 h-44.1 v-180.5Z M198.5 0 h44.1 v154.0 h-44.1 v-154.0Z M253.7 0 h44.1 v201.8 h-44.1 v-201.8Z M308.9 0 h44.1 v223.0 h-44.1 v-223.0Z M364.0 0 h44.1 v207.1 h-44.1 v-207.1Z M419.2 0 h44.1 v249.6 h-44.1 v-249.6Z" fill="#5fab9e"/></g><g opacity="0.8" transform="translate(-28.0, -32) rotate(180, 280.0, 170.0) scale(-1, 1) translate(-496.37, 0)"><g fill="white" stroke="#db504a" stroke-width="2"><path d="M55.2 108.9 L110.3 151.3 L165.5 183.2 L220.6 135.4 L275.8 200.5 L330.9 229.7 L386.1 197.8 L441.2 254.9" fill="none"/></g></g><g font-size="12" font-family="DejaVu Sans, sans-serif" fill="#2e4756" transform="translate(538.0, 42.5)"><text x="0" y="0.0" transform="translate(0, 3.5)">20</text><text x="0" y="53.1" transform="translate(0, 3.5)">16</text><text x="0" y="106.2" transform="translate(0, 3.5)">12</text><text x="0" y="159.29999999999998" transform="translate(0, 3.5)">8</text><text x="0" y="212.4" transform="translate(0, 3.5)">4</text><text x="0" y="265.5" transform="translate(0, 3.5)">0</text></g></g><g><rect transform="translate(-5.6610000000000005, -2.55)" x="446.859" y="49.05" width="86.80199999999999" height="39.099999999999994" fill="#f5f5f5" fill-opacity="0.85" stroke="none"/><g><rect y="51.05" x="446.859" width="13" height="13" fill="#5fab9e"/><text y="60.8" x="461.859" font-size="13" font-family="DejaVu Sans, sans-serif" fill="#2e4756">Revenue ()</text></g><g><rect y="68.05" x="446.859" width="13" height="13" fill="#db504a"/><text y="77.8" x="461.859" font-size="13" font-family="DejaVu Sans, sans-serif" fill="#2e4756">Margin %</text></g></g><path d="M35.63 42.5 v265.5 M35.63 308.0 h496.37" stroke="#999" stroke-width="1.5" fill="none"/></svg>