<svg xmlns="http://www.w3.org/2000/svg" width="560" height="360" viewBox="0 0 560 360"><path fill="#0f1a20" d="M0 0 h560 v360 h-560 v-360Z"/><text transform="translate(-113.805, 17)" fill="#c9d4d9" font-family="DejaVu Sans, sans-serif" font-weight="bold" font-size="15" x="280.0" y="9.0">Quarterly Sales by Segment ()</text><defs><clipPath id="plot-clip"><rect x="0" y="0" width="488.74" height="298.5"/></clipPath></defs><g><path stroke="#ffffff14" stroke-dasharray="None" d="M0 0.0 h488.74 M0 59.7 h488.74 M0 119.4 h488.74 M0 179.1 h488.74 M0 238.8 h488.74 M0 298.5 h488.74" transform="translate(43.26, 43.5)"/><g font-size="11" font-family="DejaVu Sans, sans-serif" fill="#c9d4d9" transform="translate(37.26, 43.5)"><text x="0" y="0.0" transform="translate(-15.26, 3.5)">45</text><text x="0" y="59.7" transform="translate(-15.26, 3.5)">36</text><text x="0" y="119.4" transform="translate(-15.26, 3.5)">27</text><text x="0" y="179.1" transform="translate(-15.26, 3.5)">18</text><text x="0" y="238.8" transform="translate(-7.63, 3.5)">9</text><text x="0" y="298.5" transform="translate(-7.63, 3.5)">0</text></g></g><g><path stroke="#ffffff14" stroke-dasharray="None" d="M0.0 0 v298.5 M97.748 0 v298.5 M195.496 0 v298.5 M293.24399999999997 0 v298.5 M390.992 0 v298.5 M488.74 0 v298.5" transform="translate(43.26, 43.5)"/><g font-size="11" font-family="DejaVu Sans, sans-serif" fill="#c9d4d9" transform="translate(43.26, 61.5)"><text x="0.0" y="298.5" transform="translate(-1.905, 0)"> </text><text x="97.748" y="298.5" transform="translate(-8.54, 0)">Q1</text><text x="195.496" y="298.5" transform="translate(-8.54, 0)">Q2</text><text x="293.24399999999997" y="298.5" transform="translate(-8.54, 0)">Q3</text><text x="390.992" y="298.5" transform="translate(-8.54, 0)">Q4</text><text x="488.74" y="298.5" transform="translate(-1.905, 0)"> </text></g></g><g opacity="0.8" transform="translate(-28.0, -18.0) rotate(180, 280.0, 180.0) scale(-1, 1) translate(-488.74, 0) translate(-37.59538461538462, 0)"><path d="M97.7 0.0 h75.2 v82.3 h-75.2 v-82.3Z M195.5 0.0 h75.2 v104.8 h-75.2 v-104.8Z M293.2 0.0 h75.2 v120.7 h-75.2 v-120.7Z M391.0 0.0 h75.2 v140.0 h-75.2 v-140.0Z" fill="#5fab9e"/><path d="M97.7 82.3 h75.2 v57.7 h-75.2 v-57.7Z M195.5 104.8 h75.2 v67.7 h-75.2 v-67.7Z M293.2 120.7 h75.2 v78.9 h-75.2 v-78.9Z M391.0 140.0 h75.2 v94.9 h-75.2 v-94.9Z" fill="#db504a"/><path d="M97.7 140.0 h75.2 v27.2 h-75.2 v-27.2Z M195.5 172.5 h75.2 v37.1 h-75.2 v-37.1Z M293.2 199.7 h75.2 v47.8 h-75.2 v-47.8Z M391.0 234.8 h75.2 v58.4 h-75.2 v-58.4Z" fill="#f7dd72"/></g><g><rect transform="translate(-5.7525, -3.8249999999999997)" x="445.5475" y="51.325" width="88.205" height="58.65" fill="#232e34" fill-opacity="0.85" stroke="none"/><g><rect y="53.325" x="445.5475" width="13" height="13" fill="#5fab9e"/><text y="63.075" x="460.5475" font-size="13" font-family="DejaVu Sans, sans-serif" fill="#c9d4d9">Enterprise</text></g><g><rect y="70.325" x="445.5475" width="13" height="13" fill="#db504a"/><text y="80.075" x="460.5475" font-size="13" font-family="DejaVu Sans, sans-serif" fill="#c9d4d9">Mid-Market</text></g><g><rect y="87.325" x="445.5475" width="13" height="13" fill="#f7dd72"/><text y="97.075" x="460.5475" font-size="13" font-family="DejaVu Sans, sans-serif" fill="#c9d4d9">SMB</text></g></g><path d="M43.26 43.5 v298.5 M43.26 342.0 h488.74" stroke="#999" stroke-width="1.5" fill="none"/></svg>