<svg xmlns="http://www.w3.org/2000/svg" width="560" height="360" viewBox="0 0 560 360"><path fill="#ffffff" d="M0 0 h560 v360 h-560 v-360Z"/><text transform="translate(-144.62500000000003, 17)" fill="#2e4756" font-family="DejaVu Sans, sans-serif" font-weight="bold" font-size="15" x="280.0" y="9.0">HTTP Response Time Distribution (ms)</text><defs><clipPath id="plot-clip"><rect x="0" y="0" width="481.11" height="279.0674086767531"/></clipPath></defs><g><path stroke="#e8edf0" stroke-dasharray="None" d="M0 0.0 h481.11 M0 55.81348173535062 h481.11 M0 111.62696347070124 h481.11 M0 167.44044520605183 h481.11 M0 223.25392694140248 h481.11 M0 279.0674086767531 h481.11" transform="translate(50.89, 43.5)"/><g font-size="11" font-family="DejaVu Sans, sans-serif" fill="#2e4756" transform="translate(44.89, 43.5)"><text x="0" y="0.0" transform="translate(-22.89, 3.5)">200</text><text x="0" y="55.81348173535062" transform="translate(-22.89, 3.5)">160</text><text x="0" y="111.62696347070124" transform="translate(-22.89, 3.5)">120</text><text x="0" y="167.44044520605183" transform="translate(-15.26, 3.5)">80</text><text x="0" y="223.25392694140248" transform="translate(-15.26, 3.5)">40</text><text x="0" y="279.0674086767531" transform="translate(-7.63, 3.5)">0</text></g></g><g><path stroke="#e8edf0" stroke-dasharray="None" d="M0.0 0 v279.0674086767531 M26.72833333333333 0 v279.0674086767531 M53.45666666666666 0 v279.0674086767531 M80.185 0 v279.0674086767531 M106.91333333333333 0 v279.0674086767531 M133.64166666666668 0 v279.0674086767531 M160.37 0 v279.0674086767531 M187.09833333333333 0 v279.0674086767531 M213.82666666666665 0 v279.0674086767531 M240.555 0 v279.0674086767531 M267.28333333333336 0 v279.0674086767531 M294.0116666666667 0 v279.0674086767531 M320.74 0 v279.0674086767531 M347.46833333333336 0 v279.0674086767531 M374.19666666666666 0 v279.0674086767531 M400.925 0 v279.0674086767531 M427.6533333333333 0 v279.0674086767531 M454.38166666666666 0 v279.0674086767531 M481.11 0 v279.0674086767531" transform="translate(50.89, 43.5)"/><g font-size="11" font-family="DejaVu Sans, sans-serif" fill="#2e4756" transform="translate(50.89, 61.5)"><text x="0.0" y="279.0674086767531" transform="translate(-3.81, 0) rotate(34.47542896734037, 0.0, 279.0674086767531)"> </text><text x="481.11" y="279.0674086767531" transform="translate(-3.81, 0) rotate(34.47542896734037, 481.11, 279.0674086767531)"> </text></g></g><g><rect x="77.61833333333334" y="270.93993807155374" width="26.72833333333333" height="51.62747060519932" fill="#5fab9e" fill-opacity="0.7" stroke="#5fab9e" stroke-width="0.5"/><rect x="104.34666666666666" y="68.61606678090777" width="26.72833333333333" height="253.9513418958453" fill="#5fab9e" fill-opacity="0.7" stroke="#5fab9e" stroke-width="0.5"/><rect x="131.075" y="111.8715151258045" width="26.72833333333333" height="210.69589355094857" fill="#5fab9e" fill-opacity="0.7" stroke="#5fab9e" stroke-width="0.5"/><rect x="157.8033333333333" y="284.8933085053914" width="26.72833333333333" height="37.674100171361665" fill="#5fab9e" fill-opacity="0.7" stroke="#5fab9e" stroke-width="0.5"/><rect x="184.53166666666667" y="314.1953864164505" width="26.72833333333333" height="8.372022260302591" fill="#5fab9e" fill-opacity="0.7" stroke="#5fab9e" stroke-width="0.5"/><rect x="211.26000000000002" y="300.2420159826128" width="26.72833333333333" height="22.325392694140245" fill="#5fab9e" fill-opacity="0.7" stroke="#5fab9e" stroke-width="0.5"/><rect x="237.98833333333332" y="275.12594920170505" width="26.72833333333333" height="47.44145947504803" fill="#5fab9e" fill-opacity="0.7" stroke="#5fab9e" stroke-width="0.5"/><rect x="264.7166666666667" y="294.6606678090778" width="26.72833333333333" height="27.90674086767531" fill="#5fab9e" fill-opacity="0.7" stroke="#5fab9e" stroke-width="0.5"/><rect x="291.445" y="315.59072345983424" width="26.72833333333333" height="6.976685216918828" fill="#5fab9e" fill-opacity="0.7" stroke="#5fab9e" stroke-width="0.5"/><rect x="318.17333333333335" y="318.38139754660176" width="26.72833333333333" height="4.186011130151296" fill="#5fab9e" fill-opacity="0.7" stroke="#5fab9e" stroke-width="0.5"/><rect x="344.9016666666667" y="319.77673458998555" width="26.72833333333333" height="2.7906740867675306" fill="#5fab9e" fill-opacity="0.7" stroke="#5fab9e" stroke-width="0.5"/><rect x="371.63000000000005" y="321.1720716333693" width="26.72833333333333" height="1.3953370433837653" fill="#5fab9e" fill-opacity="0.7" stroke="#5fab9e" stroke-width="0.5"/><rect x="398.35833333333335" y="314.1953864164505" width="26.72833333333333" height="8.372022260302591" fill="#5fab9e" fill-opacity="0.7" stroke="#5fab9e" stroke-width="0.5"/><rect x="425.0866666666667" y="314.1953864164505" width="26.72833333333333" height="8.372022260302591" fill="#5fab9e" fill-opacity="0.7" stroke="#5fab9e" stroke-width="0.5"/><rect x="451.815" y="321.1720716333693" width="26.72833333333333" height="1.3953370433837653" fill="#5fab9e" fill-opacity="0.7" stroke="#5fab9e" stroke-width="0.5"/><rect x="478.54333333333335" y="318.38139754660176" width="26.72833333333333" height="4.186011130151296" fill="#5fab9e" fill-opacity="0.7" stroke="#5fab9e" stroke-width="0.5"/></g><path d="M50.89 43.5 v279.0674086767531 M50.89 322.5674086767531 h481.11" stroke="#999" stroke-width="1.5" fill="none"/></svg>