<svg xmlns="http://www.w3.org/2000/svg" width="560" height="360" viewBox="0 0 560 360"><path fill="#ffffff" d="M0 0 h560 v360 h-560 v-360Z"/><text transform="translate(-126.365, 17)" fill="#2e4756" font-family="DejaVu Sans, sans-serif" font-weight="bold" font-size="15" x="280.0" y="9.0">Index Performance (rebased 100)</text><defs><clipPath id="plot-clip"><rect x="0" y="0" width="481.11" height="280.2192789820122"/></clipPath></defs><g><path stroke="#e8edf0" stroke-dasharray="None" d="M0 0.0 h481.11 M0 56.04385579640245 h481.11 M0 112.0877115928049 h481.11 M0 168.13156738920733 h481.11 M0 224.1754231856098 h481.11 M0 280.2192789820122 h481.11" transform="translate(50.89, 43.5)"/><g font-size="11" font-family="DejaVu Sans, sans-serif" fill="#2e4756" transform="translate(44.89, 43.5)"><text x="0" y="0.0" transform="translate(-22.89, 3.5)">150</text><text x="0" y="56.04385579640245" transform="translate(-22.89, 3.5)">120</text><text x="0" y="112.0877115928049" transform="translate(-15.26, 3.5)">90</text><text x="0" y="168.13156738920733" transform="translate(-15.26, 3.5)">60</text><text x="0" y="224.1754231856098" transform="translate(-15.26, 3.5)">30</text><text x="0" y="280.2192789820122" transform="translate(-7.63, 3.5)">0</text></g></g><g><path stroke="#e8edf0" stroke-dasharray="None" d="M0.0 0 v280.2192789820122 M20.91782608695652 0 v280.2192789820122 M41.83565217391304 0 v280.2192789820122 M62.753478260869564 0 v280.2192789820122 M83.67130434782608 0 v280.2192789820122 M104.5891304347826 0 v280.2192789820122 M125.50695652173913 0 v280.2192789820122 M146.42478260869566 0 v280.2192789820122 M167.34260869565216 0 v280.2192789820122 M188.2604347826087 0 v280.2192789820122 M209.1782608695652 0 v280.2192789820122 M230.09608695652176 0 v280.2192789820122 M251.01391304347825 0 v280.2192789820122 M271.9317391304348 0 v280.2192789820122 M292.84956521739133 0 v280.2192789820122 M313.7673913043478 0 v280.2192789820122 M334.6852173913043 0 v280.2192789820122 M355.6030434782609 0 v280.2192789820122 M376.5208695652174 0 v280.2192789820122 M397.4386956521739 0 v280.2192789820122 M418.3565217391304 0 v280.2192789820122 M439.27434782608697 0 v280.2192789820122 M460.1921739130435 0 v280.2192789820122 M481.11 0 v280.2192789820122" transform="translate(50.89, 43.5)"/><g font-size="11" font-family="DejaVu Sans, sans-serif" fill="#2e4756" transform="translate(50.89, 61.5)"><text x="0.0" y="280.2192789820122" transform="translate(-9.75, 0) rotate(42.36253879838383, 0.0, 280.2192789820122)">W1</text><text x="41.83565217391304" y="280.2192789820122" transform="translate(-9.75, 0) rotate(42.36253879838383, 41.83565217391304, 280.2192789820122)">W3</text><text x="83.67130434782608" y="280.2192789820122" transform="translate(-9.75, 0) rotate(42.36253879838383, 83.67130434782608, 280.2192789820122)">W5</text><text x="125.50695652173913" y="280.2192789820122" transform="translate(-9.75, 0) rotate(42.36253879838383, 125.50695652173913, 280.2192789820122)">W7</text><text x="167.34260869565216" y="280.2192789820122" transform="translate(-9.75, 0) rotate(42.36253879838383, 167.34260869565216, 280.2192789820122)">W9</text><text x="209.1782608695652" y="280.2192789820122" transform="translate(-9.043333333333333, 0) rotate(42.36253879838383, 209.1782608695652, 280.2192789820122)">W11</text><text x="251.01391304347825" y="280.2192789820122" transform="translate(-9.043333333333333, 0) rotate(42.36253879838383, 251.01391304347825, 280.2192789820122)">W13</text><text x="292.84956521739133" y="280.2192789820122" transform="translate(-9.043333333333333, 0) rotate(42.36253879838383, 292.84956521739133, 280.2192789820122)">W15</text><text x="334.6852173913043" y="280.2192789820122" transform="translate(-9.043333333333333, 0) rotate(42.36253879838383, 334.6852173913043, 280.2192789820122)">W17</text><text x="376.5208695652174" y="280.2192789820122" transform="translate(-9.043333333333333, 0) rotate(42.36253879838383, 376.5208695652174, 280.2192789820122)">W19</text><text x="418.3565217391304" y="280.2192789820122" transform="translate(-9.043333333333333, 0) rotate(42.36253879838383, 418.3565217391304, 280.2192789820122)">W21</text><text x="481.11" y="280.2192789820122" transform="translate(-9.043333333333333, 0) rotate(42.36253879838383, 481.11, 280.2192789820122)">W24</text></g></g><g opacity="0.8" transform="translate(-28.0, -36.28072101798777) rotate(180, 280.0, 180.0) scale(-1, 1) translate(-481.11, 0)"><g fill="white" stroke="#5fab9e" stroke-width="2"><path d="M0.0 186.8 L20.9 187.1 L41.8 187.1 L62.8 193.8 L83.7 196.6 L104.6 190.0 L125.5 193.9 L146.4 191.1 L167.3 192.4 L188.3 195.4 L209.2 205.4 L230.1 203.9 L251.0 204.9 L271.9 204.3 L292.8 212.1 L313.8 216.1 L334.7 224.9 L355.6 226.1 L376.5 227.5 L397.4 233.2 L418.4 237.1 L439.3 242.7 L460.2 237.0 L481.1 246.5" fill="none"/></g><g fill="white" stroke="#db504a" stroke-width="2"><path d="M0.0 186.8 L20.9 189.3 L41.8 186.9 L62.8 189.0 L83.7 191.1 L104.6 194.8 L125.5 189.7 L146.4 188.8 L167.3 191.4 L188.3 193.5 L209.2 196.2 L230.1 194.4 L251.0 197.3 L271.9 194.7 L292.8 192.7 L313.8 188.3 L334.7 182.2 L355.6 180.3 L376.5 176.2 L397.4 179.9 L418.4 181.0 L439.3 179.8 L460.2 177.4 L481.1 171.6" fill="none"/></g><g fill="white" stroke="#f7dd72" stroke-width="2"><path d="M0.0 186.8 L20.9 187.6 L41.8 188.4 L62.8 197.5 L83.7 201.2 L104.6 207.2 L125.5 197.0 L146.4 201.5 L167.3 199.3 L188.3 197.1 L209.2 207.8 L230.1 207.8 L251.0 212.1 L271.9 210.7 L292.8 215.1 L313.8 218.0 L334.7 218.2 L355.6 224.6 L376.5 233.8 L397.4 248.4 L418.4 240.1 L439.3 239.2 L460.2 237.6 L481.1 228.3" fill="none"/></g></g><g><rect transform="translate(-5.667750000000001, -3.8249999999999997)" x="446.76225" y="51.325" width="86.9055" height="58.65" fill="#f5f5f5" fill-opacity="0.85" stroke="none"/><g><rect y="53.325" x="446.76225" width="13" height="13" fill="#5fab9e"/><text y="63.075" x="461.76225" font-size="13" font-family="DejaVu Sans, sans-serif" fill="#2e4756">Growth</text></g><g><rect y="70.325" x="446.76225" width="13" height="13" fill="#db504a"/><text y="80.075" x="461.76225" font-size="13" font-family="DejaVu Sans, sans-serif" fill="#2e4756">Blend</text></g><g><rect y="87.325" x="446.76225" width="13" height="13" fill="#f7dd72"/><text y="97.075" x="461.76225" font-size="13" font-family="DejaVu Sans, sans-serif" fill="#2e4756">Aggressive</text></g></g><path d="M50.89 43.5 v280.2192789820122 M50.89 323.7192789820122 h481.11" stroke="#999" stroke-width="1.5" fill="none"/></svg>