<svg xmlns="http://www.w3.org/2000/svg" width="560" height="360" viewBox="0 0 560 360"><path fill="#ffffff" d="M0 0 h560 v360 h-560 v-360Z"/><text transform="translate(-107.23999999999997, 17)" fill="#2e4756" font-family="DejaVu Sans, sans-serif" font-weight="bold" font-size="15" x="280.0" y="9.0">P95 Latency by Service (ms)</text><defs><clipPath id="plot-clip"><rect x="0" y="0" width="431.76" height="284.5"/></clipPath></defs><g><path stroke="#e8edf0" stroke-dasharray="None" d="M0 18.35483870967742 h431.76 M0 45.88709677419355 h431.76 M0 73.41935483870967 h431.76 M0 100.9516129032258 h431.76 M0 128.48387096774192 h431.76 M0 156.01612903225808 h431.76 M0 183.5483870967742 h431.76 M0 211.08064516129033 h431.76 M0 238.61290322580646 h431.76 M0 266.14516129032256 h431.76" transform="translate(100.24000000000001, 43.5)"/><g font-size="11" font-family="DejaVu Sans, sans-serif" fill="#2e4756" transform="translate(94.24000000000001, 43.5)"><text x="0" y="18.35483870967742" dominant-baseline="central" transform="translate(-27.28, 0)">auth</text><text x="0" y="45.88709677419355" dominant-baseline="central" transform="translate(-40.12, 0)">search</text><text x="0" y="73.41935483870967" dominant-baseline="central" transform="translate(-72.24000000000001, 0)">recommend</text><text x="0" y="100.9516129032258" dominant-baseline="central" transform="translate(-37.370000000000005, 0)">media</text><text x="0" y="128.48387096774192" dominant-baseline="central" transform="translate(-34.31, 0)">notify</text><text x="0" y="156.01612903225808" dominant-baseline="central" transform="translate(-46.82, 0)">ml-infer</text><text x="0" y="183.5483870967742" dominant-baseline="central" transform="translate(-54.800000000000004, 0)">checkout</text><text x="0" y="211.08064516129033" dominant-baseline="central" transform="translate(-53.46, 0)">payment</text><text x="0" y="238.61290322580646" dominant-baseline="central" transform="translate(-21.83, 0)">cdn</text><text x="0" y="266.14516129032256" dominant-baseline="central" transform="translate(-53.63, 0)">analytics</text></g></g><g><path stroke="#e8edf0" stroke-dasharray="None" d="M431.76 0 v284.5 M345.408 0 v284.5 M259.056 0 v284.5 M172.704 0 v284.5 M86.352 0 v284.5 M0.0 0 v284.5 M431.76 0 v284.5" transform="translate(100.24000000000001, 43.5)"/><g font-size="11" font-family="DejaVu Sans, sans-serif" fill="#2e4756" transform="translate(100.24000000000001, 61.5)"><text x="431.76" y="284.5" transform="translate(-7.63, 0)">90</text><text x="345.408" y="284.5" transform="translate(-7.63, 0)">72</text><text x="259.056" y="284.5" transform="translate(-7.63, 0)">54</text><text x="172.704" y="284.5" transform="translate(-7.63, 0)">36</text><text x="86.352" y="284.5" transform="translate(-7.63, 0)">18</text><text x="0.0" y="284.5" transform="translate(-3.815, 0)">0</text></g></g><g><g opacity="0.8" transform="translate(100.24000000000001, 43.5)"><path d="M0.0 9.2 h57.6 v18.4 h-57.6 v-18.4Z" fill="#5fab9e"/><path d="M0.0 36.7 h182.3 v18.4 h-182.3 v-18.4Z" fill="#db504a"/><path d="M0.0 64.2 h115.1 v18.4 h-115.1 v-18.4Z" fill="#f7dd72"/><path d="M0.0 91.8 h321.4 v18.4 h-321.4 v-18.4Z" fill="#f58b51"/><path d="M0.0 119.3 h91.1 v18.4 h-91.1 v-18.4Z" fill="#2e4756"/><path d="M0.0 146.8 h422.2 v18.4 h-422.2 v-18.4Z" fill="#7ec8bc"/><path d="M0.0 174.4 h148.7 v18.4 h-148.7 v-18.4Z" fill="#e87a74"/><path d="M0.0 201.9 h215.9 v18.4 h-215.9 v-18.4Z" fill="#f9e99a"/><path d="M0.0 229.4 h72.0 v18.4 h-72.0 v-18.4Z" fill="#5fab9e"/><path d="M0.0 257.0 h345.4 v18.4 h-345.4 v-18.4Z" fill="#db504a"/></g><path stroke="#e8edf0" stroke-dasharray="None" d="M0 284.5 h431.76" transform="translate(100.24000000000001, 43.5)"/><path stroke="#e8edf0" stroke-dasharray="None" d="M0 0 h431.76" transform="translate(100.24000000000001, 43.5)"/><path stroke="#e8edf0" stroke-dasharray="None" d="M0 0 v284.5" transform="translate(100.24000000000001, 43.5)"/><path stroke="#e8edf0" stroke-dasharray="None" d="M431.76 0 v284.5" transform="translate(100.24000000000001, 43.5)"/></g><path d="M100.24000000000001 43.5 v284.5 M100.24000000000001 328.0 h431.76" stroke="#999" stroke-width="1.5" fill="none"/></svg>