<svg xmlns="http://www.w3.org/2000/svg" width="560" height="360" viewBox="0 0 560 360"><path fill="#0f1a20" d="M0 0 h560 v360 h-560 v-360Z"/><text transform="translate(-142.53499999999997, 17)" fill="#c9d4d9" font-family="DejaVu Sans, sans-serif" font-weight="bold" font-size="15" x="280.0" y="9.0">Engineering Effort vs Business Impact</text><defs><clipPath id="plot-clip"><rect x="0" y="0" width="481.11" height="284.5"/></clipPath></defs><g><path stroke="#ffffff14" stroke-dasharray="None" d="M0 0.0 h481.11 M0 59.7 h481.11 M0 119.4 h481.11 M0 179.1 h481.11 M0 238.8 h481.11 M0 298.5 h481.11" transform="translate(50.89, 43.5)"/><g font-size="11" font-family="DejaVu Sans, sans-serif" fill="#c9d4d9" transform="translate(44.89, 43.5)"><text x="0" y="0.0" transform="translate(-22.89, 3.5)">150</text><text x="0" y="59.7" transform="translate(-22.89, 3.5)">120</text><text x="0" y="119.4" transform="translate(-15.26, 3.5)">90</text><text x="0" y="179.1" transform="translate(-15.26, 3.5)">60</text><text x="0" y="238.8" transform="translate(-15.26, 3.5)">30</text><text x="0" y="298.5" transform="translate(-7.63, 3.5)">0</text></g></g><g><path stroke="#ffffff14" stroke-dasharray="None" d="M481.11 0 v298.5 M384.88800000000003 0 v298.5 M288.666 0 v298.5 M192.44400000000002 0 v298.5 M96.22200000000001 0 v298.5 M0.0 0 v298.5 M481.11 0 v298.5" transform="translate(50.89, 43.5)"/><g font-size="11" font-family="DejaVu Sans, sans-serif" fill="#c9d4d9" transform="translate(50.89, 61.5)"><text x="481.11" y="298.5" transform="translate(-7.63, 0)">90</text><text x="384.88800000000003" y="298.5" transform="translate(-7.63, 0)">72</text><text x="288.666" y="298.5" transform="translate(-7.63, 0)">54</text><text x="192.44400000000002" y="298.5" transform="translate(-7.63, 0)">36</text><text x="96.22200000000001" y="298.5" transform="translate(-7.63, 0)">18</text><text x="0.0" y="298.5" transform="translate(-3.815, 0)">0</text></g></g><g><g opacity="0.8" transform="translate(-28.0, -32) rotate(180, 280.0, 180.0) scale(-1, 1) translate(-481.11, 0)" clip-path="url(#plot-clip)"><g fill="#5fab9e"><circle cx="146.36402161347263" cy="94.42321837017354" r="4"/><circle cx="31.40780395090228" cy="17.638616975333424" r="4"/><circle cx="78.18586041799827" cy="62.036480028249834" r="4"/><circle cx="68.49069042308116" cy="10.658760118725327" r="4"/><circle cx="164.52087005139646" cy="97.96351364224766" r="4"/><circle cx="153.33767959768102" cy="109.08947299399227" r="4"/><circle cx="193.65364348496377" cy="143.55522035628817" r="4"/><circle cx="42.99444402024271" cy="21.98158976125805" r="4"/><circle cx="105.66920259341462" cy="76.0568510179298" r="4"/><circle cx="32.3033434281639" cy="26.27980785736974" r="4"/><circle cx="67.63513402246286" cy="61.000809775377455" r="4"/><circle cx="121.27946547865893" cy="52.11796577918235" r="4"/><circle cx="31.693169034568076" cy="33.17416866696824" r="4"/><circle cx="63.9305263807208" cy="6.358626764883453" r="4"/><circle cx="148.3206285011525" cy="35.09473366057415" r="4"/><circle cx="128.68597611839417" cy="68.37222454345768" r="4"/><circle cx="67.97240631611096" cy="22.566613272808013" r="4"/><circle cx="136.97896067704272" cy="107.41939521829615" r="4"/></g><g fill="#db504a"><circle cx="426.3932520125056" cy="112.848752887586" r="4"/><circle cx="358.75402537330825" cy="83.29581066992968" r="4"/><circle cx="436.7538712056787" cy="161.32909224494267" r="4"/><circle cx="345.5499270696539" cy="150.79403868641916" r="4"/><circle cx="386.3543707475746" cy="137.75920451950944" r="4"/><circle cx="175.06771281371712" cy="79.68233686679324" r="4"/><circle cx="233.46609293247712" cy="115.13085600046094" r="4"/><circle cx="253.18829544573984" cy="78.17403353946396" r="4"/><circle cx="185.9624786784843" cy="18.89911262871404" r="4"/><circle cx="235.03534889143683" cy="59.91486478142934" r="4"/><circle cx="192.76519846887652" cy="88.66445069580105" r="4"/><circle cx="249.52725346153096" cy="38.60740577760835" r="4"/><circle cx="364.2594286533637" cy="117.27076685795745" r="4"/><circle cx="277.3862730828648" cy="95.78071464339769" r="4"/><circle cx="279.101843393069" cy="80.14533756316219" r="4"/><circle cx="227.56728504964698" cy="93.25504010378813" r="4"/><circle cx="246.00046664403263" cy="95.07705218070102" r="4"/><circle cx="460.7925924629053" cy="213.18623517933943" r="4"/></g></g></g><g><rect transform="translate(-7.03425, -2.55)" x="427.17575" y="50.05" width="107.85849999999999" height="39.099999999999994" fill="#232e34" fill-opacity="0.85" stroke="none"/><g><rect y="52.05" x="427.17575" width="13" height="13" fill="#5fab9e"/><text y="61.8" x="442.17575" font-size="13" font-family="DejaVu Sans, sans-serif" fill="#c9d4d9">Quick wins</text></g><g><rect y="69.05" x="427.17575" width="13" height="13" fill="#db504a"/><text y="78.8" x="442.17575" font-size="13" font-family="DejaVu Sans, sans-serif" fill="#c9d4d9">Large projects</text></g></g><path d="M50.89 43.5 v284.5 M50.89 328.0 h481.11" stroke="#999" stroke-width="1.5" fill="none"/></svg>