<svg xmlns="http://www.w3.org/2000/svg" width="560" height="360" viewBox="0 0 560 360"><path fill="#ffffff" d="M0 0 h560 v360 h-560 v-360Z"/><text transform="translate(-126.365, 17)" fill="#2e4756" font-family="DejaVu Sans, sans-serif" font-weight="bold" font-size="15" x="280.0" y="9.0">Index Performance (rebased 100)</text><defs><clipPath id="plot-clip"><rect x="0" y="0" width="481.11" height="266.2192789820122"/></clipPath></defs><g><path stroke="#e8edf0" stroke-dasharray="None" d="M0 0.0 h481.11 M0 53.24385579640244 h481.11 M0 106.48771159280489 h481.11 M0 159.73156738920733 h481.11 M0 212.97542318560977 h481.11 M0 266.2192789820122 h481.11" transform="translate(50.89, 43.5)"/><g font-size="11" font-family="DejaVu Sans, sans-serif" fill="#2e4756" transform="translate(44.89, 43.5)"><text x="0" y="0.0" transform="translate(-22.89, 3.5)">150</text><text x="0" y="53.24385579640244" transform="translate(-22.89, 3.5)">120</text><text x="0" y="106.48771159280489" transform="translate(-15.26, 3.5)">90</text><text x="0" y="159.73156738920733" transform="translate(-15.26, 3.5)">60</text><text x="0" y="212.97542318560977" transform="translate(-15.26, 3.5)">30</text><text x="0" y="266.2192789820122" transform="translate(-7.63, 3.5)">0</text></g></g><g><path stroke="#e8edf0" stroke-dasharray="None" d="M0.0 0 v266.2192789820122 M20.91782608695652 0 v266.2192789820122 M41.83565217391304 0 v266.2192789820122 M62.753478260869564 0 v266.2192789820122 M83.67130434782608 0 v266.2192789820122 M104.5891304347826 0 v266.2192789820122 M125.50695652173913 0 v266.2192789820122 M146.42478260869566 0 v266.2192789820122 M167.34260869565216 0 v266.2192789820122 M188.2604347826087 0 v266.2192789820122 M209.1782608695652 0 v266.2192789820122 M230.09608695652176 0 v266.2192789820122 M251.01391304347825 0 v266.2192789820122 M271.9317391304348 0 v266.2192789820122 M292.84956521739133 0 v266.2192789820122 M313.7673913043478 0 v266.2192789820122 M334.6852173913043 0 v266.2192789820122 M355.6030434782609 0 v266.2192789820122 M376.5208695652174 0 v266.2192789820122 M397.4386956521739 0 v266.2192789820122 M418.3565217391304 0 v266.2192789820122 M439.27434782608697 0 v266.2192789820122 M460.1921739130435 0 v266.2192789820122 M481.11 0 v266.2192789820122" transform="translate(50.89, 43.5)"/><g font-size="11" font-family="DejaVu Sans, sans-serif" fill="#2e4756" transform="translate(50.89, 61.5)"><text x="0.0" y="266.2192789820122" transform="translate(-9.75, 0) rotate(42.36253879838383, 0.0, 266.2192789820122)">W1</text><text x="41.83565217391304" y="266.2192789820122" transform="translate(-9.75, 0) rotate(42.36253879838383, 41.83565217391304, 266.2192789820122)">W3</text><text x="83.67130434782608" y="266.2192789820122" transform="translate(-9.75, 0) rotate(42.36253879838383, 83.67130434782608, 266.2192789820122)">W5</text><text x="125.50695652173913" y="266.2192789820122" transform="translate(-9.75, 0) rotate(42.36253879838383, 125.50695652173913, 266.2192789820122)">W7</text><text x="167.34260869565216" y="266.2192789820122" transform="translate(-9.75, 0) rotate(42.36253879838383, 167.34260869565216, 266.2192789820122)">W9</text><text x="209.1782608695652" y="266.2192789820122" transform="translate(-9.043333333333333, 0) rotate(42.36253879838383, 209.1782608695652, 266.2192789820122)">W11</text><text x="251.01391304347825" y="266.2192789820122" transform="translate(-9.043333333333333, 0) rotate(42.36253879838383, 251.01391304347825, 266.2192789820122)">W13</text><text x="292.84956521739133" y="266.2192789820122" transform="translate(-9.043333333333333, 0) rotate(42.36253879838383, 292.84956521739133, 266.2192789820122)">W15</text><text x="334.6852173913043" y="266.2192789820122" transform="translate(-9.043333333333333, 0) rotate(42.36253879838383, 334.6852173913043, 266.2192789820122)">W17</text><text x="376.5208695652174" y="266.2192789820122" transform="translate(-9.043333333333333, 0) rotate(42.36253879838383, 376.5208695652174, 266.2192789820122)">W19</text><text x="418.3565217391304" y="266.2192789820122" transform="translate(-9.043333333333333, 0) rotate(42.36253879838383, 418.3565217391304, 266.2192789820122)">W21</text><text x="481.11" y="266.2192789820122" transform="translate(-9.043333333333333, 0) rotate(42.36253879838383, 481.11, 266.2192789820122)">W24</text></g></g><g opacity="0.8" transform="translate(-28.0, -50.28072101798777) rotate(180, 280.0, 180.0) scale(-1, 1) translate(-481.11, 0)"><g fill="white" stroke="#5fab9e" stroke-width="2"><path d="M0.0 177.5 L20.9 177.8 L41.8 177.8 L62.8 184.2 L83.7 186.8 L104.6 180.5 L125.5 184.2 L146.4 181.6 L167.3 182.8 L188.3 185.7 L209.2 195.1 L230.1 193.7 L251.0 194.7 L271.9 194.1 L292.8 201.5 L313.8 205.3 L334.7 213.6 L355.6 214.8 L376.5 216.2 L397.4 221.5 L418.4 225.3 L439.3 230.6 L460.2 225.1 L481.1 234.2" fill="none"/></g><g fill="white" stroke="#db504a" stroke-width="2"><path d="M0.0 177.5 L20.9 179.8 L41.8 177.5 L62.8 179.6 L83.7 181.6 L104.6 185.1 L125.5 180.2 L146.4 179.4 L167.3 181.8 L188.3 183.8 L209.2 186.4 L230.1 184.6 L251.0 187.5 L271.9 185.0 L292.8 183.1 L313.8 178.9 L334.7 173.1 L355.6 171.3 L376.5 167.4 L397.4 170.9 L418.4 172.0 L439.3 170.8 L460.2 168.5 L481.1 163.0" fill="none"/></g><g fill="white" stroke="#f7dd72" stroke-width="2"><path d="M0.0 177.5 L20.9 178.2 L41.8 179.0 L62.8 187.7 L83.7 191.1 L104.6 196.8 L125.5 187.2 L146.4 191.4 L167.3 189.4 L188.3 187.3 L209.2 197.4 L230.1 197.4 L251.0 201.5 L271.9 200.2 L292.8 204.3 L313.8 207.1 L334.7 207.3 L355.6 213.4 L376.5 222.1 L397.4 236.0 L418.4 228.1 L439.3 227.2 L460.2 225.7 L481.1 216.9" fill="none"/></g></g><g><rect transform="translate(-5.667750000000001, -3.8249999999999997)" x="446.76225" y="51.325" width="86.9055" height="58.65" fill="#f5f5f5" fill-opacity="0.85" stroke="none"/><g><rect y="53.325" x="446.76225" width="13" height="13" fill="#5fab9e"/><text y="63.075" x="461.76225" font-size="13" font-family="DejaVu Sans, sans-serif" fill="#2e4756">Growth</text></g><g><rect y="70.325" x="446.76225" width="13" height="13" fill="#db504a"/><text y="80.075" x="461.76225" font-size="13" font-family="DejaVu Sans, sans-serif" fill="#2e4756">Blend</text></g><g><rect y="87.325" x="446.76225" width="13" height="13" fill="#f7dd72"/><text y="97.075" x="461.76225" font-size="13" font-family="DejaVu Sans, sans-serif" fill="#2e4756">Aggressive</text></g></g><path d="M50.89 43.5 v266.2192789820122 M50.89 309.7192789820122 h481.11" stroke="#999" stroke-width="1.5" fill="none"/></svg>