<svg xmlns="http://www.w3.org/2000/svg" width="560" height="360" viewBox="0 0 560 360"><path fill="#ffffff" d="M0 0 h560 v360 h-560 v-360Z"/><text transform="translate(-165.26000000000002, 17)" fill="#2e4756" font-family="DejaVu Sans, sans-serif" font-weight="bold" font-size="15" x="280.0" y="9.0">Deployment Duration by Environment (min)</text><defs><clipPath id="plot-clip"><rect x="0" y="0" width="488.74" height="298.5"/></clipPath></defs><g><path stroke="#e8edf0" stroke-dasharray="None" d="M0 0.0 h488.74 M0 59.7 h488.74 M0 119.4 h488.74 M0 179.1 h488.74 M0 238.8 h488.74 M0 298.5 h488.74" transform="translate(43.26, 43.5)"/><g font-size="11" font-family="DejaVu Sans, sans-serif" fill="#2e4756" transform="translate(37.26, 43.5)"><text x="0" y="0.0" transform="translate(-15.26, 3.5)">15</text><text x="0" y="59.7" transform="translate(-15.26, 3.5)">12</text><text x="0" y="119.4" transform="translate(-7.63, 3.5)">9</text><text x="0" y="179.1" transform="translate(-7.63, 3.5)">6</text><text x="0" y="238.8" transform="translate(-7.63, 3.5)">3</text><text x="0" y="298.5" transform="translate(-7.63, 3.5)">0</text></g></g><g><path stroke="#e8edf0" stroke-dasharray="None" d="M0.0 0 v298.5 M122.185 0 v298.5 M244.37 0 v298.5 M366.555 0 v298.5 M488.74 0 v298.5" transform="translate(43.26, 43.5)"/><g font-size="11" font-family="DejaVu Sans, sans-serif" fill="#2e4756" transform="translate(43.26, 61.5)"><text x="0.0" y="298.5" transform="translate(-1.905, 0)"> </text><text x="122.185" y="298.5" transform="translate(-32.165, 0)">Production</text><text x="244.37" y="298.5" transform="translate(-22.93, 0)">Staging</text><text x="366.555" y="298.5" transform="translate(-40.38999999999999, 0)">Development</text><text x="488.74" y="298.5" transform="translate(-1.905, 0)"> </text></g></g><g><path d="M165.445 280.31 L165.445 87.27999999999997" stroke="#5fab9e" stroke-width="1.5"/><path d="M136.1206 280.31 L194.7694 280.31" stroke="#5fab9e" stroke-width="1.5"/><path d="M136.1206 87.27999999999997 L194.7694 87.27999999999997" stroke="#5fab9e" stroke-width="1.5"/><rect x="116.571" y="203.695" width="97.74799999999999" height="-58.70500000000001" fill="#5fab9e" fill-opacity="0.3" stroke="#5fab9e" stroke-width="1.5"/><path d="M116.571 174.83999999999997 L214.319 174.83999999999997" stroke="#5fab9e" stroke-width="2"/><path d="M287.63 300.21 L287.63 182.8" stroke="#db504a" stroke-width="1.5"/><path d="M258.3056 300.21 L316.95439999999996 300.21" stroke="#db504a" stroke-width="1.5"/><path d="M258.3056 182.8 L316.95439999999996 182.8" stroke="#db504a" stroke-width="1.5"/><rect x="238.756" y="275.33500000000004" width="97.74799999999999" height="-28.855000000000018" fill="#db504a" fill-opacity="0.3" stroke="#db504a" stroke-width="1.5"/><path d="M238.756 262.4 L336.504 262.4" stroke="#db504a" stroke-width="2"/><path d="M409.815 336.03 L409.815 260.41" stroke="#f7dd72" stroke-width="1.5"/><path d="M380.4906 336.03 L439.1394 336.03" stroke="#f7dd72" stroke-width="1.5"/><path d="M380.4906 260.41 L439.1394 260.41" stroke="#f7dd72" stroke-width="1.5"/><rect x="360.94100000000003" y="312.15" width="97.74799999999999" height="-26.864999999999952" fill="#f7dd72" fill-opacity="0.3" stroke="#f7dd72" stroke-width="1.5"/><path d="M360.94100000000003 300.21 L458.68899999999996 300.21" stroke="#f7dd72" stroke-width="2"/></g><path d="M43.26 43.5 v298.5 M43.26 342.0 h488.74" stroke="#999" stroke-width="1.5" fill="none"/></svg>