<svg xmlns="http://www.w3.org/2000/svg" width="580" height="360" viewBox="0 0 580 360"><path fill="#ffffff" d="M0 0 h580 v360 h-580 v-360Z"/><text transform="translate(-125.41, 17)" fill="#2e4756" font-family="DejaVu Sans, sans-serif" font-weight="bold" font-size="15" x="290.0" y="9.0">API Error Rate (%) by Day &amp; Hour</text><g transform="translate(67.47, 43.5)"><path fill="#c7e2dc" stroke="#e8edf0" stroke-width="0.25" d="M0.7 0.8 h32.5 v38.1 h-32.5 v-38.1Z"/><text x="16.93875" y="19.833259387860295" fill="#000000" font-family="DejaVu Sans, sans-serif" font-size="11" text-anchor="middle" dominant-baseline="central">0.31</text><path fill="#d3e9e3" stroke="#e8edf0" stroke-width="0.25" d="M34.6 0.8 h32.5 v38.1 h-32.5 v-38.1Z"/><text x="50.81625" y="19.833259387860295" fill="#000000" font-family="DejaVu Sans, sans-serif" font-size="11" text-anchor="middle" dominant-baseline="central">0.23</text><path fill="#d5e9e4" stroke="#e8edf0" stroke-width="0.25" d="M68.4 0.8 h32.5 v38.1 h-32.5 v-38.1Z"/><text x="84.69375" y="19.833259387860295" fill="#000000" font-family="DejaVu Sans, sans-serif" font-size="11" text-anchor="middle" dominant-baseline="central">0.22</text><path fill="#d0e7e2" stroke="#e8edf0" stroke-width="0.25" d="M102.3 0.8 h32.5 v38.1 h-32.5 v-38.1Z"/><text x="118.57124999999999" y="19.833259387860295" fill="#000000" font-family="DejaVu Sans, sans-serif" font-size="11" text-anchor="middle" dominant-baseline="central">0.25</text><path fill="#b3d8d0" stroke="#e8edf0" stroke-width="0.25" d="M136.2 0.8 h32.5 v38.1 h-32.5 v-38.1Z"/><text x="152.44875" y="19.833259387860295" fill="#000000" font-family="DejaVu Sans, sans-serif" font-size="11" text-anchor="middle" dominant-baseline="central">0.45</text><path fill="#d0e7e2" stroke="#e8edf0" stroke-width="0.25" d="M170.1 0.8 h32.5 v38.1 h-32.5 v-38.1Z"/><text x="186.32625" y="19.833259387860295" fill="#000000" font-family="DejaVu Sans, sans-serif" font-size="11" text-anchor="middle" dominant-baseline="central">0.25</text><path fill="#c9e3dd" stroke="#e8edf0" stroke-width="0.25" d="M203.9 0.8 h32.5 v38.1 h-32.5 v-38.1Z"/><text x="220.20374999999999" y="19.833259387860295" fill="#000000" font-family="DejaVu Sans, sans-serif" font-size="11" text-anchor="middle" dominant-baseline="central">0.30</text><path fill="#6fb3a7" stroke="#e8edf0" stroke-width="0.25" d="M237.8 0.8 h32.5 v38.1 h-32.5 v-38.1Z"/><text x="254.08124999999998" y="19.833259387860295" fill="#000000" font-family="DejaVu Sans, sans-serif" font-size="11" text-anchor="middle" dominant-baseline="central">0.92</text><path fill="#76b7ab" stroke="#e8edf0" stroke-width="0.25" d="M271.7 0.8 h32.5 v38.1 h-32.5 v-38.1Z"/><text x="287.95874999999995" y="19.833259387860295" fill="#000000" font-family="DejaVu Sans, sans-serif" font-size="11" text-anchor="middle" dominant-baseline="central">0.87</text><path fill="#5fab9e" stroke="#e8edf0" stroke-width="0.25" d="M305.6 0.8 h32.5 v38.1 h-32.5 v-38.1Z"/><text x="321.83624999999995" y="19.833259387860295" fill="#000000" font-family="DejaVu Sans, sans-serif" font-size="11" text-anchor="middle" dominant-baseline="central">1.03</text><path fill="#79b8ad" stroke="#e8edf0" stroke-width="0.25" d="M339.5 0.8 h32.5 v38.1 h-32.5 v-38.1Z"/><text x="355.71374999999995" y="19.833259387860295" fill="#000000" font-family="DejaVu Sans, sans-serif" font-size="11" text-anchor="middle" dominant-baseline="central">0.85</text><path fill="#c6e2db" stroke="#e8edf0" stroke-width="0.25" d="M373.3 0.8 h32.5 v38.1 h-32.5 v-38.1Z"/><text x="389.59124999999995" y="19.833259387860295" fill="#000000" font-family="DejaVu Sans, sans-serif" font-size="11" text-anchor="middle" dominant-baseline="central">0.32</text><path fill="#badbd4" stroke="#e8edf0" stroke-width="0.25" d="M0.7 40.5 h32.5 v38.1 h-32.5 v-38.1Z"/><text x="16.93875" y="59.499778163580885" fill="#000000" font-family="DejaVu Sans, sans-serif" font-size="11" text-anchor="middle" dominant-baseline="central">0.40</text><path fill="#d2e8e2" stroke="#e8edf0" stroke-width="0.25" d="M34.6 40.5 h32.5 v38.1 h-32.5 v-38.1Z"/><text x="50.81625" y="59.499778163580885" fill="#000000" font-family="DejaVu Sans, sans-serif" font-size="11" text-anchor="middle" dominant-baseline="central">0.24</text><path fill="#aad3cb" stroke="#e8edf0" stroke-width="0.25" d="M68.4 40.5 h32.5 v38.1 h-32.5 v-38.1Z"/><text x="84.69375" y="59.499778163580885" fill="#000000" font-family="DejaVu Sans, sans-serif" font-size="11" text-anchor="middle" dominant-baseline="central">0.51</text><path fill="#c9e3dd" stroke="#e8edf0" stroke-width="0.25" d="M102.3 40.5 h32.5 v38.1 h-32.5 v-38.1Z"/><text x="118.57124999999999" y="59.499778163580885" fill="#000000" font-family="DejaVu Sans, sans-serif" font-size="11" text-anchor="middle" dominant-baseline="central">0.30</text><path fill="#c7e2dc" stroke="#e8edf0" stroke-width="0.25" d="M136.2 40.5 h32.5 v38.1 h-32.5 v-38.1Z"/><text x="152.44875" y="59.499778163580885" fill="#000000" font-family="DejaVu Sans, sans-serif" font-size="11" text-anchor="middle" dominant-baseline="central">0.31</text><path fill="#b7dad3" stroke="#e8edf0" stroke-width="0.25" d="M170.1 40.5 h32.5 v38.1 h-32.5 v-38.1Z"/><text x="186.32625" y="59.499778163580885" fill="#000000" font-family="DejaVu Sans, sans-serif" font-size="11" text-anchor="middle" dominant-baseline="central">0.42</text><path fill="#d6eae5" stroke="#e8edf0" stroke-width="0.25" d="M203.9 40.5 h32.5 v38.1 h-32.5 v-38.1Z"/><text x="220.20374999999999" y="59.499778163580885" fill="#000000" font-family="DejaVu Sans, sans-serif" font-size="11" text-anchor="middle" dominant-baseline="central">0.21</text><path fill="#70b4a8" stroke="#e8edf0" stroke-width="0.25" d="M237.8 40.5 h32.5 v38.1 h-32.5 v-38.1Z"/><text x="254.08124999999998" y="59.499778163580885" fill="#000000" font-family="DejaVu Sans, sans-serif" font-size="11" text-anchor="middle" dominant-baseline="central">0.91</text><path fill="#64aea1" stroke="#e8edf0" stroke-width="0.25" d="M271.7 40.5 h32.5 v38.1 h-32.5 v-38.1Z"/><text x="287.95874999999995" y="59.499778163580885" fill="#000000" font-family="DejaVu Sans, sans-serif" font-size="11" text-anchor="middle" dominant-baseline="central">0.99</text><path fill="#81bdb2" stroke="#e8edf0" stroke-width="0.25" d="M305.6 40.5 h32.5 v38.1 h-32.5 v-38.1Z"/><text x="321.83624999999995" y="59.499778163580885" fill="#000000" font-family="DejaVu Sans, sans-serif" font-size="11" text-anchor="middle" dominant-baseline="central">0.79</text><path fill="#5fab9e" stroke="#e8edf0" stroke-width="0.25" d="M339.5 40.5 h32.5 v38.1 h-32.5 v-38.1Z"/><text x="355.71374999999995" y="59.499778163580885" fill="#000000" font-family="DejaVu Sans, sans-serif" font-size="11" text-anchor="middle" dominant-baseline="central">1.03</text><path fill="#c0dfd8" stroke="#e8edf0" stroke-width="0.25" d="M373.3 40.5 h32.5 v38.1 h-32.5 v-38.1Z"/><text x="389.59124999999995" y="59.499778163580885" fill="#000000" font-family="DejaVu Sans, sans-serif" font-size="11" text-anchor="middle" dominant-baseline="central">0.36</text><path fill="#b2d7cf" stroke="#e8edf0" stroke-width="0.25" d="M0.7 80.1 h32.5 v38.1 h-32.5 v-38.1Z"/><text x="16.93875" y="99.16629693930147" fill="#000000" font-family="DejaVu Sans, sans-serif" font-size="11" text-anchor="middle" dominant-baseline="central">0.46</text><path fill="#c3e0da" stroke="#e8edf0" stroke-width="0.25" d="M34.6 80.1 h32.5 v38.1 h-32.5 v-38.1Z"/><text x="50.81625" y="99.16629693930147" fill="#000000" font-family="DejaVu Sans, sans-serif" font-size="11" text-anchor="middle" dominant-baseline="central">0.34</text><path fill="#c7e2dc" stroke="#e8edf0" stroke-width="0.25" d="M68.4 80.1 h32.5 v38.1 h-32.5 v-38.1Z"/><text x="84.69375" y="99.16629693930147" fill="#000000" font-family="DejaVu Sans, sans-serif" font-size="11" text-anchor="middle" dominant-baseline="central">0.31</text><path fill="#cfe6e1" stroke="#e8edf0" stroke-width="0.25" d="M102.3 80.1 h32.5 v38.1 h-32.5 v-38.1Z"/><text x="118.57124999999999" y="99.16629693930147" fill="#000000" font-family="DejaVu Sans, sans-serif" font-size="11" text-anchor="middle" dominant-baseline="central">0.26</text><path fill="#dfefea" stroke="#e8edf0" stroke-width="0.25" d="M136.2 80.1 h32.5 v38.1 h-32.5 v-38.1Z"/><text x="152.44875" y="99.16629693930147" fill="#000000" font-family="DejaVu Sans, sans-serif" font-size="11" text-anchor="middle" dominant-baseline="central">0.15</text><path fill="#d3e9e3" stroke="#e8edf0" stroke-width="0.25" d="M170.1 80.1 h32.5 v38.1 h-32.5 v-38.1Z"/><text x="186.32625" y="99.16629693930147" fill="#000000" font-family="DejaVu Sans, sans-serif" font-size="11" text-anchor="middle" dominant-baseline="central">0.23</text><path fill="#a4d0c7" stroke="#e8edf0" stroke-width="0.25" d="M203.9 80.1 h32.5 v38.1 h-32.5 v-38.1Z"/><text x="220.20374999999999" y="99.16629693930147" fill="#000000" font-family="DejaVu Sans, sans-serif" font-size="11" text-anchor="middle" dominant-baseline="central">0.55</text><path fill="#77b8ac" stroke="#e8edf0" stroke-width="0.25" d="M237.8 80.1 h32.5 v38.1 h-32.5 v-38.1Z"/><text x="254.08124999999998" y="99.16629693930147" fill="#000000" font-family="DejaVu Sans, sans-serif" font-size="11" text-anchor="middle" dominant-baseline="central">0.86</text><path fill="#7cbaaf" stroke="#e8edf0" stroke-width="0.25" d="M271.7 80.1 h32.5 v38.1 h-32.5 v-38.1Z"/><text x="287.95874999999995" y="99.16629693930147" fill="#000000" font-family="DejaVu Sans, sans-serif" font-size="11" text-anchor="middle" dominant-baseline="central">0.83</text><path fill="#61ac9f" stroke="#e8edf0" stroke-width="0.25" d="M305.6 80.1 h32.5 v38.1 h-32.5 v-38.1Z"/><text x="321.83624999999995" y="99.16629693930147" fill="#000000" font-family="DejaVu Sans, sans-serif" font-size="11" text-anchor="middle" dominant-baseline="central">1.01</text><path fill="#73b5aa" stroke="#e8edf0" stroke-width="0.25" d="M339.5 80.1 h32.5 v38.1 h-32.5 v-38.1Z"/><text x="355.71374999999995" y="99.16629693930147" fill="#000000" font-family="DejaVu Sans, sans-serif" font-size="11" text-anchor="middle" dominant-baseline="central">0.89</text><path fill="#a6d1c8" stroke="#e8edf0" stroke-width="0.25" d="M373.3 80.1 h32.5 v38.1 h-32.5 v-38.1Z"/><text x="389.59124999999995" y="99.16629693930147" fill="#000000" font-family="DejaVu Sans, sans-serif" font-size="11" text-anchor="middle" dominant-baseline="central">0.54</text><path fill="#cae4de" stroke="#e8edf0" stroke-width="0.25" d="M0.7 119.8 h32.5 v38.1 h-32.5 v-38.1Z"/><text x="16.93875" y="138.83281571502206" fill="#000000" font-family="DejaVu Sans, sans-serif" font-size="11" text-anchor="middle" dominant-baseline="central">0.29</text><path fill="#d2e8e2" stroke="#e8edf0" stroke-width="0.25" d="M34.6 119.8 h32.5 v38.1 h-32.5 v-38.1Z"/><text x="50.81625" y="138.83281571502206" fill="#000000" font-family="DejaVu Sans, sans-serif" font-size="11" text-anchor="middle" dominant-baseline="central">0.24</text><path fill="#a9d2ca" stroke="#e8edf0" stroke-width="0.25" d="M68.4 119.8 h32.5 v38.1 h-32.5 v-38.1Z"/><text x="84.69375" y="138.83281571502206" fill="#000000" font-family="DejaVu Sans, sans-serif" font-size="11" text-anchor="middle" dominant-baseline="central">0.52</text><path fill="#d6eae5" stroke="#e8edf0" stroke-width="0.25" d="M102.3 119.8 h32.5 v38.1 h-32.5 v-38.1Z"/><text x="118.57124999999999" y="138.83281571502206" fill="#000000" font-family="DejaVu Sans, sans-serif" font-size="11" text-anchor="middle" dominant-baseline="central">0.21</text><path fill="#b0d6ce" stroke="#e8edf0" stroke-width="0.25" d="M136.2 119.8 h32.5 v38.1 h-32.5 v-38.1Z"/><text x="152.44875" y="138.83281571502206" fill="#000000" font-family="DejaVu Sans, sans-serif" font-size="11" text-anchor="middle" dominant-baseline="central">0.47</text><path fill="#bcdcd5" stroke="#e8edf0" stroke-width="0.25" d="M170.1 119.8 h32.5 v38.1 h-32.5 v-38.1Z"/><text x="186.32625" y="138.83281571502206" fill="#000000" font-family="DejaVu Sans, sans-serif" font-size="11" text-anchor="middle" dominant-baseline="central">0.39</text><path fill="#a6d1c8" stroke="#e8edf0" stroke-width="0.25" d="M203.9 119.8 h32.5 v38.1 h-32.5 v-38.1Z"/><text x="220.20374999999999" y="138.83281571502206" fill="#000000" font-family="DejaVu Sans, sans-serif" font-size="11" text-anchor="middle" dominant-baseline="central">0.54</text><path fill="#5fab9e" stroke="#e8edf0" stroke-width="0.25" d="M237.8 119.8 h32.5 v38.1 h-32.5 v-38.1Z"/><text x="254.08124999999998" y="138.83281571502206" fill="#000000" font-family="DejaVu Sans, sans-serif" font-size="11" text-anchor="middle" dominant-baseline="central">1.03</text><path fill="#70b4a8" stroke="#e8edf0" stroke-width="0.25" d="M271.7 119.8 h32.5 v38.1 h-32.5 v-38.1Z"/><text x="287.95874999999995" y="138.83281571502206" fill="#000000" font-family="DejaVu Sans, sans-serif" font-size="11" text-anchor="middle" dominant-baseline="central">0.91</text><path fill="#94c7be" stroke="#e8edf0" stroke-width="0.25" d="M305.6 119.8 h32.5 v38.1 h-32.5 v-38.1Z"/><text x="321.83624999999995" y="138.83281571502206" fill="#000000" font-family="DejaVu Sans, sans-serif" font-size="11" text-anchor="middle" dominant-baseline="central">0.66</text><path fill="#94c7be" stroke="#e8edf0" stroke-width="0.25" d="M339.5 119.8 h32.5 v38.1 h-32.5 v-38.1Z"/><text x="355.71374999999995" y="138.83281571502206" fill="#000000" font-family="DejaVu Sans, sans-serif" font-size="11" text-anchor="middle" dominant-baseline="central">0.66</text><path fill="#c3e0da" stroke="#e8edf0" stroke-width="0.25" d="M373.3 119.8 h32.5 v38.1 h-32.5 v-38.1Z"/><text x="389.59124999999995" y="138.83281571502206" fill="#000000" font-family="DejaVu Sans, sans-serif" font-size="11" text-anchor="middle" dominant-baseline="central">0.34</text><path fill="#afd5cd" stroke="#e8edf0" stroke-width="0.25" d="M0.7 159.5 h32.5 v38.1 h-32.5 v-38.1Z"/><text x="16.93875" y="178.49933449074265" fill="#000000" font-family="DejaVu Sans, sans-serif" font-size="11" text-anchor="middle" dominant-baseline="central">0.48</text><path fill="#daede8" stroke="#e8edf0" stroke-width="0.25" d="M34.6 159.5 h32.5 v38.1 h-32.5 v-38.1Z"/><text x="50.81625" y="178.49933449074265" fill="#000000" font-family="DejaVu Sans, sans-serif" font-size="11" text-anchor="middle" dominant-baseline="central">0.18</text><path fill="#c6e2db" stroke="#e8edf0" stroke-width="0.25" d="M68.4 159.5 h32.5 v38.1 h-32.5 v-38.1Z"/><text x="84.69375" y="178.49933449074265" fill="#000000" font-family="DejaVu Sans, sans-serif" font-size="11" text-anchor="middle" dominant-baseline="central">0.32</text><path fill="#daede8" stroke="#e8edf0" stroke-width="0.25" d="M102.3 159.5 h32.5 v38.1 h-32.5 v-38.1Z"/><text x="118.57124999999999" y="178.49933449074265" fill="#000000" font-family="DejaVu Sans, sans-serif" font-size="11" text-anchor="middle" dominant-baseline="central">0.18</text><path fill="#cde6e0" stroke="#e8edf0" stroke-width="0.25" d="M136.2 159.5 h32.5 v38.1 h-32.5 v-38.1Z"/><text x="152.44875" y="178.49933449074265" fill="#000000" font-family="DejaVu Sans, sans-serif" font-size="11" text-anchor="middle" dominant-baseline="central">0.27</text><path fill="#dfefea" stroke="#e8edf0" stroke-width="0.25" d="M170.1 159.5 h32.5 v38.1 h-32.5 v-38.1Z"/><text x="186.32625" y="178.49933449074265" fill="#000000" font-family="DejaVu Sans, sans-serif" font-size="11" text-anchor="middle" dominant-baseline="central">0.15</text><path fill="#cce5df" stroke="#e8edf0" stroke-width="0.25" d="M203.9 159.5 h32.5 v38.1 h-32.5 v-38.1Z"/><text x="220.20374999999999" y="178.49933449074265" fill="#000000" font-family="DejaVu Sans, sans-serif" font-size="11" text-anchor="middle" dominant-baseline="central">0.28</text><path fill="#77b8ac" stroke="#e8edf0" stroke-width="0.25" d="M237.8 159.5 h32.5 v38.1 h-32.5 v-38.1Z"/><text x="254.08124999999998" y="178.49933449074265" fill="#000000" font-family="DejaVu Sans, sans-serif" font-size="11" text-anchor="middle" dominant-baseline="central">0.86</text><path fill="#8ac2b8" stroke="#e8edf0" stroke-width="0.25" d="M271.7 159.5 h32.5 v38.1 h-32.5 v-38.1Z"/><text x="287.95874999999995" y="178.49933449074265" fill="#000000" font-family="DejaVu Sans, sans-serif" font-size="11" text-anchor="middle" dominant-baseline="central">0.73</text><path fill="#69b0a4" stroke="#e8edf0" stroke-width="0.25" d="M305.6 159.5 h32.5 v38.1 h-32.5 v-38.1Z"/><text x="321.83624999999995" y="178.49933449074265" fill="#000000" font-family="DejaVu Sans, sans-serif" font-size="11" text-anchor="middle" dominant-baseline="central">0.96</text><path fill="#93c6bd" stroke="#e8edf0" stroke-width="0.25" d="M339.5 159.5 h32.5 v38.1 h-32.5 v-38.1Z"/><text x="355.71374999999995" y="178.49933449074265" fill="#000000" font-family="DejaVu Sans, sans-serif" font-size="11" text-anchor="middle" dominant-baseline="central">0.67</text><path fill="#d3e9e3" stroke="#e8edf0" stroke-width="0.25" d="M373.3 159.5 h32.5 v38.1 h-32.5 v-38.1Z"/><text x="389.59124999999995" y="178.49933449074265" fill="#000000" font-family="DejaVu Sans, sans-serif" font-size="11" text-anchor="middle" dominant-baseline="central">0.23</text><path fill="#dfefea" stroke="#e8edf0" stroke-width="0.25" d="M0.7 199.1 h32.5 v38.1 h-32.5 v-38.1Z"/><text x="16.93875" y="218.16585326646324" fill="#000000" font-family="DejaVu Sans, sans-serif" font-size="11" text-anchor="middle" dominant-baseline="central">0.15</text><path fill="#d6eae5" stroke="#e8edf0" stroke-width="0.25" d="M34.6 199.1 h32.5 v38.1 h-32.5 v-38.1Z"/><text x="50.81625" y="218.16585326646324" fill="#000000" font-family="DejaVu Sans, sans-serif" font-size="11" text-anchor="middle" dominant-baseline="central">0.21</text><path fill="#c0dfd8" stroke="#e8edf0" stroke-width="0.25" d="M68.4 199.1 h32.5 v38.1 h-32.5 v-38.1Z"/><text x="84.69375" y="218.16585326646324" fill="#000000" font-family="DejaVu Sans, sans-serif" font-size="11" text-anchor="middle" dominant-baseline="central">0.36</text><path fill="#d9ece7" stroke="#e8edf0" stroke-width="0.25" d="M102.3 199.1 h32.5 v38.1 h-32.5 v-38.1Z"/><text x="118.57124999999999" y="218.16585326646324" fill="#000000" font-family="DejaVu Sans, sans-serif" font-size="11" text-anchor="middle" dominant-baseline="central">0.19</text><path fill="#c5e1db" stroke="#e8edf0" stroke-width="0.25" d="M136.2 199.1 h32.5 v38.1 h-32.5 v-38.1Z"/><text x="152.44875" y="218.16585326646324" fill="#000000" font-family="DejaVu Sans, sans-serif" font-size="11" text-anchor="middle" dominant-baseline="central">0.33</text><path fill="#b7dad3" stroke="#e8edf0" stroke-width="0.25" d="M170.1 199.1 h32.5 v38.1 h-32.5 v-38.1Z"/><text x="186.32625" y="218.16585326646324" fill="#000000" font-family="DejaVu Sans, sans-serif" font-size="11" text-anchor="middle" dominant-baseline="central">0.42</text><path fill="#e6f3ef" stroke="#e8edf0" stroke-width="0.25" d="M203.9 199.1 h32.5 v38.1 h-32.5 v-38.1Z"/><text x="220.20374999999999" y="218.16585326646324" fill="#000000" font-family="DejaVu Sans, sans-serif" font-size="11" text-anchor="middle" dominant-baseline="central">0.10</text><path fill="#badbd4" stroke="#e8edf0" stroke-width="0.25" d="M237.8 199.1 h32.5 v38.1 h-32.5 v-38.1Z"/><text x="254.08124999999998" y="218.16585326646324" fill="#000000" font-family="DejaVu Sans, sans-serif" font-size="11" text-anchor="middle" dominant-baseline="central">0.40</text><path fill="#cae4de" stroke="#e8edf0" stroke-width="0.25" d="M271.7 199.1 h32.5 v38.1 h-32.5 v-38.1Z"/><text x="287.95874999999995" y="218.16585326646324" fill="#000000" font-family="DejaVu Sans, sans-serif" font-size="11" text-anchor="middle" dominant-baseline="central">0.29</text><path fill="#c2dfd9" stroke="#e8edf0" stroke-width="0.25" d="M305.6 199.1 h32.5 v38.1 h-32.5 v-38.1Z"/><text x="321.83624999999995" y="218.16585326646324" fill="#000000" font-family="DejaVu Sans, sans-serif" font-size="11" text-anchor="middle" dominant-baseline="central">0.35</text><path fill="#cae4de" stroke="#e8edf0" stroke-width="0.25" d="M339.5 199.1 h32.5 v38.1 h-32.5 v-38.1Z"/><text x="355.71374999999995" y="218.16585326646324" fill="#000000" font-family="DejaVu Sans, sans-serif" font-size="11" text-anchor="middle" dominant-baseline="central">0.29</text><path fill="#d6eae5" stroke="#e8edf0" stroke-width="0.25" d="M373.3 199.1 h32.5 v38.1 h-32.5 v-38.1Z"/><text x="389.59124999999995" y="218.16585326646324" fill="#000000" font-family="DejaVu Sans, sans-serif" font-size="11" text-anchor="middle" dominant-baseline="central">0.21</text><path fill="#e8f4f0" stroke="#e8edf0" stroke-width="0.25" d="M0.7 238.8 h32.5 v38.1 h-32.5 v-38.1Z"/><text x="16.93875" y="257.83237204218386" fill="#000000" font-family="DejaVu Sans, sans-serif" font-size="11" text-anchor="middle" dominant-baseline="central">0.09</text><path fill="#e5f2ee" stroke="#e8edf0" stroke-width="0.25" d="M34.6 238.8 h32.5 v38.1 h-32.5 v-38.1Z"/><text x="50.81625" y="257.83237204218386" fill="#000000" font-family="DejaVu Sans, sans-serif" font-size="11" text-anchor="middle" dominant-baseline="central">0.11</text><path fill="#e3f1ed" stroke="#e8edf0" stroke-width="0.25" d="M68.4 238.8 h32.5 v38.1 h-32.5 v-38.1Z"/><text x="84.69375" y="257.83237204218386" fill="#000000" font-family="DejaVu Sans, sans-serif" font-size="11" text-anchor="middle" dominant-baseline="central">0.12</text><path fill="#e3f1ed" stroke="#e8edf0" stroke-width="0.25" d="M102.3 238.8 h32.5 v38.1 h-32.5 v-38.1Z"/><text x="118.57124999999999" y="257.83237204218386" fill="#000000" font-family="DejaVu Sans, sans-serif" font-size="11" text-anchor="middle" dominant-baseline="central">0.12</text><path fill="#e5f2ee" stroke="#e8edf0" stroke-width="0.25" d="M136.2 238.8 h32.5 v38.1 h-32.5 v-38.1Z"/><text x="152.44875" y="257.83237204218386" fill="#000000" font-family="DejaVu Sans, sans-serif" font-size="11" text-anchor="middle" dominant-baseline="central">0.11</text><path fill="#e2f0ec" stroke="#e8edf0" stroke-width="0.25" d="M170.1 238.8 h32.5 v38.1 h-32.5 v-38.1Z"/><text x="186.32625" y="257.83237204218386" fill="#000000" font-family="DejaVu Sans, sans-serif" font-size="11" text-anchor="middle" dominant-baseline="central">0.13</text><path fill="#cde6e0" stroke="#e8edf0" stroke-width="0.25" d="M203.9 238.8 h32.5 v38.1 h-32.5 v-38.1Z"/><text x="220.20374999999999" y="257.83237204218386" fill="#000000" font-family="DejaVu Sans, sans-serif" font-size="11" text-anchor="middle" dominant-baseline="central">0.27</text><path fill="#c0dfd8" stroke="#e8edf0" stroke-width="0.25" d="M237.8 238.8 h32.5 v38.1 h-32.5 v-38.1Z"/><text x="254.08124999999998" y="257.83237204218386" fill="#000000" font-family="DejaVu Sans, sans-serif" font-size="11" text-anchor="middle" dominant-baseline="central">0.36</text><path fill="#bfded7" stroke="#e8edf0" stroke-width="0.25" d="M271.7 238.8 h32.5 v38.1 h-32.5 v-38.1Z"/><text x="287.95874999999995" y="257.83237204218386" fill="#000000" font-family="DejaVu Sans, sans-serif" font-size="11" text-anchor="middle" dominant-baseline="central">0.37</text><path fill="#bcdcd5" stroke="#e8edf0" stroke-width="0.25" d="M305.6 238.8 h32.5 v38.1 h-32.5 v-38.1Z"/><text x="321.83624999999995" y="257.83237204218386" fill="#000000" font-family="DejaVu Sans, sans-serif" font-size="11" text-anchor="middle" dominant-baseline="central">0.39</text><path fill="#e6f3ef" stroke="#e8edf0" stroke-width="0.25" d="M339.5 238.8 h32.5 v38.1 h-32.5 v-38.1Z"/><text x="355.71374999999995" y="257.83237204218386" fill="#000000" font-family="DejaVu Sans, sans-serif" font-size="11" text-anchor="middle" dominant-baseline="central">0.10</text><path fill="#bdddd6" stroke="#e8edf0" stroke-width="0.25" d="M373.3 238.8 h32.5 v38.1 h-32.5 v-38.1Z"/><text x="389.59124999999995" y="257.83237204218386" fill="#000000" font-family="DejaVu Sans, sans-serif" font-size="11" text-anchor="middle" dominant-baseline="central">0.38</text><text x="16.93875" y="-1.5866607510288235" fill="#2e4756" font-family="DejaVu Sans, sans-serif" font-size="11" text-anchor="middle" dominant-baseline="bottom">00:00</text><text x="50.81625" y="-1.5866607510288235" fill="#2e4756" font-family="DejaVu Sans, sans-serif" font-size="11" text-anchor="middle" dominant-baseline="bottom">02:00</text><text x="84.69375" y="-1.5866607510288235" fill="#2e4756" font-family="DejaVu Sans, sans-serif" font-size="11" text-anchor="middle" dominant-baseline="bottom">04:00</text><text x="118.57124999999999" y="-1.5866607510288235" fill="#2e4756" font-family="DejaVu Sans, sans-serif" font-size="11" text-anchor="middle" dominant-baseline="bottom">06:00</text><text x="152.44875" y="-1.5866607510288235" fill="#2e4756" font-family="DejaVu Sans, sans-serif" font-size="11" text-anchor="middle" dominant-baseline="bottom">08:00</text><text x="186.32625" y="-1.5866607510288235" fill="#2e4756" font-family="DejaVu Sans, sans-serif" font-size="11" text-anchor="middle" dominant-baseline="bottom">10:00</text><text x="220.20374999999999" y="-1.5866607510288235" fill="#2e4756" font-family="DejaVu Sans, sans-serif" font-size="11" text-anchor="middle" dominant-baseline="bottom">12:00</text><text x="254.08124999999998" y="-1.5866607510288235" fill="#2e4756" font-family="DejaVu Sans, sans-serif" font-size="11" text-anchor="middle" dominant-baseline="bottom">14:00</text><text x="287.95875" y="-1.5866607510288235" fill="#2e4756" font-family="DejaVu Sans, sans-serif" font-size="11" text-anchor="middle" dominant-baseline="bottom">16:00</text><text x="321.83624999999995" y="-1.5866607510288235" fill="#2e4756" font-family="DejaVu Sans, sans-serif" font-size="11" text-anchor="middle" dominant-baseline="bottom">18:00</text><text x="355.71375" y="-1.5866607510288235" fill="#2e4756" font-family="DejaVu Sans, sans-serif" font-size="11" text-anchor="middle" dominant-baseline="bottom">20:00</text><text x="389.59124999999995" y="-1.5866607510288235" fill="#2e4756" font-family="DejaVu Sans, sans-serif" font-size="11" text-anchor="middle" dominant-baseline="bottom">22:00</text><text x="-1.3551" y="19.833259387860295" fill="#2e4756" font-family="DejaVu Sans, sans-serif" font-size="11" text-anchor="end" dominant-baseline="central">Mon</text><text x="-1.3551" y="59.499778163580885" fill="#2e4756" font-family="DejaVu Sans, sans-serif" font-size="11" text-anchor="end" dominant-baseline="central">Tue</text><text x="-1.3551" y="99.16629693930147" fill="#2e4756" font-family="DejaVu Sans, sans-serif" font-size="11" text-anchor="end" dominant-baseline="central">Wed</text><text x="-1.3551" y="138.83281571502206" fill="#2e4756" font-family="DejaVu Sans, sans-serif" font-size="11" text-anchor="end" dominant-baseline="central">Thu</text><text x="-1.3551" y="178.49933449074265" fill="#2e4756" font-family="DejaVu Sans, sans-serif" font-size="11" text-anchor="end" dominant-baseline="central">Fri</text><text x="-1.3551" y="218.16585326646324" fill="#2e4756" font-family="DejaVu Sans, sans-serif" font-size="11" text-anchor="end" dominant-baseline="central">Sat</text><text x="-1.3551" y="257.8323720421838" fill="#2e4756" font-family="DejaVu Sans, sans-serif" font-size="11" text-anchor="end" dominant-baseline="central">Sun</text><path fill="#5fab9e" d="M420.5 0.0 h16.0 v5.3 h-16.0 v-5.3Z"/><path fill="#61ac9f" d="M420.5 4.3 h16.0 v5.3 h-16.0 v-5.3Z"/><path fill="#63ada0" d="M420.5 8.7 h16.0 v5.3 h-16.0 v-5.3Z"/><path fill="#65aea1" d="M420.5 13.0 h16.0 v5.3 h-16.0 v-5.3Z"/><path fill="#67afa3" d="M420.5 17.4 h16.0 v5.3 h-16.0 v-5.3Z"/><path fill="#69b0a4" d="M420.5 21.7 h16.0 v5.3 h-16.0 v-5.3Z"/><path fill="#6cb1a5" d="M420.5 26.0 h16.0 v5.3 h-16.0 v-5.3Z"/><path fill="#6eb3a7" d="M420.5 30.4 h16.0 v5.3 h-16.0 v-5.3Z"/><path fill="#70b4a8" d="M420.5 34.7 h16.0 v5.3 h-16.0 v-5.3Z"/><path fill="#72b5a9" d="M420.5 39.0 h16.0 v5.3 h-16.0 v-5.3Z"/><path fill="#74b6ab" d="M420.5 43.4 h16.0 v5.3 h-16.0 v-5.3Z"/><path fill="#76b7ac" d="M420.5 47.7 h16.0 v5.3 h-16.0 v-5.3Z"/><path fill="#79b8ad" d="M420.5 52.1 h16.0 v5.3 h-16.0 v-5.3Z"/><path fill="#7bbaae" d="M420.5 56.4 h16.0 v5.3 h-16.0 v-5.3Z"/><path fill="#7dbbb0" d="M420.5 60.7 h16.0 v5.3 h-16.0 v-5.3Z"/><path fill="#7fbcb1" d="M420.5 65.1 h16.0 v5.3 h-16.0 v-5.3Z"/><path fill="#81bdb2" d="M420.5 69.4 h16.0 v5.3 h-16.0 v-5.3Z"/><path fill="#83beb4" d="M420.5 73.8 h16.0 v5.3 h-16.0 v-5.3Z"/><path fill="#86bfb5" d="M420.5 78.1 h16.0 v5.3 h-16.0 v-5.3Z"/><path fill="#88c1b6" d="M420.5 82.4 h16.0 v5.3 h-16.0 v-5.3Z"/><path fill="#8ac2b8" d="M420.5 86.8 h16.0 v5.3 h-16.0 v-5.3Z"/><path fill="#8cc3b9" d="M420.5 91.1 h16.0 v5.3 h-16.0 v-5.3Z"/><path fill="#8ec4ba" d="M420.5 95.4 h16.0 v5.3 h-16.0 v-5.3Z"/><path fill="#91c5bb" d="M420.5 99.8 h16.0 v5.3 h-16.0 v-5.3Z"/><path fill="#93c6bd" d="M420.5 104.1 h16.0 v5.3 h-16.0 v-5.3Z"/><path fill="#95c7be" d="M420.5 108.5 h16.0 v5.3 h-16.0 v-5.3Z"/><path fill="#97c9bf" d="M420.5 112.8 h16.0 v5.3 h-16.0 v-5.3Z"/><path fill="#99cac1" d="M420.5 117.1 h16.0 v5.3 h-16.0 v-5.3Z"/><path fill="#9bcbc2" d="M420.5 121.5 h16.0 v5.3 h-16.0 v-5.3Z"/><path fill="#9eccc3" d="M420.5 125.8 h16.0 v5.3 h-16.0 v-5.3Z"/><path fill="#a0cdc5" d="M420.5 130.2 h16.0 v5.3 h-16.0 v-5.3Z"/><path fill="#a2cec6" d="M420.5 134.5 h16.0 v5.3 h-16.0 v-5.3Z"/><path fill="#a4d0c7" d="M420.5 138.8 h16.0 v5.3 h-16.0 v-5.3Z"/><path fill="#a6d1c8" d="M420.5 143.2 h16.0 v5.3 h-16.0 v-5.3Z"/><path fill="#a8d2ca" d="M420.5 147.5 h16.0 v5.3 h-16.0 v-5.3Z"/><path fill="#abd3cb" d="M420.5 151.8 h16.0 v5.3 h-16.0 v-5.3Z"/><path fill="#add4cc" d="M420.5 156.2 h16.0 v5.3 h-16.0 v-5.3Z"/><path fill="#afd5ce" d="M420.5 160.5 h16.0 v5.3 h-16.0 v-5.3Z"/><path fill="#b1d7cf" d="M420.5 164.9 h16.0 v5.3 h-16.0 v-5.3Z"/><path fill="#b3d8d0" d="M420.5 169.2 h16.0 v5.3 h-16.0 v-5.3Z"/><path fill="#b5d9d2" d="M420.5 173.5 h16.0 v5.3 h-16.0 v-5.3Z"/><path fill="#b8dad3" d="M420.5 177.9 h16.0 v5.3 h-16.0 v-5.3Z"/><path fill="#badbd4" d="M420.5 182.2 h16.0 v5.3 h-16.0 v-5.3Z"/><path fill="#bcdcd5" d="M420.5 186.6 h16.0 v5.3 h-16.0 v-5.3Z"/><path fill="#beddd7" d="M420.5 190.9 h16.0 v5.3 h-16.0 v-5.3Z"/><path fill="#c0dfd8" d="M420.5 195.2 h16.0 v5.3 h-16.0 v-5.3Z"/><path fill="#c3e0d9" d="M420.5 199.6 h16.0 v5.3 h-16.0 v-5.3Z"/><path fill="#c5e1db" d="M420.5 203.9 h16.0 v5.3 h-16.0 v-5.3Z"/><path fill="#c7e2dc" d="M420.5 208.2 h16.0 v5.3 h-16.0 v-5.3Z"/><path fill="#c9e3dd" d="M420.5 212.6 h16.0 v5.3 h-16.0 v-5.3Z"/><path fill="#cbe4df" d="M420.5 216.9 h16.0 v5.3 h-16.0 v-5.3Z"/><path fill="#cde6e0" d="M420.5 221.3 h16.0 v5.3 h-16.0 v-5.3Z"/><path fill="#d0e7e1" d="M420.5 225.6 h16.0 v5.3 h-16.0 v-5.3Z"/><path fill="#d2e8e2" d="M420.5 229.9 h16.0 v5.3 h-16.0 v-5.3Z"/><path fill="#d4e9e4" d="M420.5 234.3 h16.0 v5.3 h-16.0 v-5.3Z"/><path fill="#d6eae5" d="M420.5 238.6 h16.0 v5.3 h-16.0 v-5.3Z"/><path fill="#d8ebe6" d="M420.5 243.0 h16.0 v5.3 h-16.0 v-5.3Z"/><path fill="#daede8" d="M420.5 247.3 h16.0 v5.3 h-16.0 v-5.3Z"/><path fill="#ddeee9" d="M420.5 251.6 h16.0 v5.3 h-16.0 v-5.3Z"/><path fill="#dfefea" d="M420.5 256.0 h16.0 v5.3 h-16.0 v-5.3Z"/><path fill="#e1f0ec" d="M420.5 260.3 h16.0 v5.3 h-16.0 v-5.3Z"/><path fill="#e3f1ed" d="M420.5 264.7 h16.0 v5.3 h-16.0 v-5.3Z"/><path fill="#e5f2ee" d="M420.5 269.0 h16.0 v5.3 h-16.0 v-5.3Z"/><path fill="#e8f4f0" d="M420.5 273.3 h16.0 v5.3 h-16.0 v-5.3Z"/><path fill="none" stroke="#2e4756" stroke-width="0.75" d="M420.5 0 h16.0 v277.7 h-16.0 v-277.7Z"/><path stroke="#2e4756" stroke-width="0.75" d="M436.53 277.66563143004413 h4"/><text x="445.53" y="277.66563143004413" fill="#2e4756" font-family="DejaVu Sans, sans-serif" font-size="11" text-anchor="start" dominant-baseline="central">0.09</text><path stroke="#2e4756" stroke-width="0.75" d="M436.53 208.24922357253308 h4"/><text x="445.53" y="208.24922357253308" fill="#2e4756" font-family="DejaVu Sans, sans-serif" font-size="11" text-anchor="start" dominant-baseline="central">0.33</text><path stroke="#2e4756" stroke-width="0.75" d="M436.53 138.83281571502206 h4"/><text x="445.53" y="138.83281571502206" fill="#2e4756" font-family="DejaVu Sans, sans-serif" font-size="11" text-anchor="start" dominant-baseline="central">0.56</text><path stroke="#2e4756" stroke-width="0.75" d="M436.53 69.41640785751103 h4"/><text x="445.53" y="69.41640785751103" fill="#2e4756" font-family="DejaVu Sans, sans-serif" font-size="11" text-anchor="start" dominant-baseline="central">0.80</text><path stroke="#2e4756" stroke-width="0.75" d="M436.53 0.0 h4"/><text x="445.53" y="0.0" fill="#2e4756" font-family="DejaVu Sans, sans-serif" font-size="11" text-anchor="start" dominant-baseline="central">1.03</text></g></svg>