<svg xmlns="http://www.w3.org/2000/svg" width="560" height="360" viewBox="0 0 560 360"><path fill="#0f1a20" d="M0 0 h560 v360 h-560 v-360Z"/><text transform="translate(-144.62500000000003, 17)" fill="#c9d4d9" font-family="DejaVu Sans, sans-serif" font-weight="bold" font-size="15" x="280.0" y="9.0">HTTP Response Time Distribution (ms)</text><defs><clipPath id="plot-clip"><rect x="0" y="0" width="481.11" height="281.93553239281823"/></clipPath></defs><g><path stroke="#ffffff14" stroke-dasharray="None" d="M0 0.0 h481.11 M0 56.38710647856365 h481.11 M0 112.7742129571273 h481.11 M0 169.16131943569093 h481.11 M0 225.5484259142546 h481.11 M0 281.93553239281823 h481.11" transform="translate(50.89, 43.5)"/><g font-size="11" font-family="DejaVu Sans, sans-serif" fill="#c9d4d9" transform="translate(44.89, 43.5)"><text x="0" y="0.0" transform="translate(-22.89, 3.5)">200</text><text x="0" y="56.38710647856365" transform="translate(-22.89, 3.5)">160</text><text x="0" y="112.7742129571273" transform="translate(-22.89, 3.5)">120</text><text x="0" y="169.16131943569093" transform="translate(-15.26, 3.5)">80</text><text x="0" y="225.5484259142546" transform="translate(-15.26, 3.5)">40</text><text x="0" y="281.93553239281823" transform="translate(-7.63, 3.5)">0</text></g></g><g><path stroke="#ffffff14" stroke-dasharray="None" d="M0.0 0 v281.93553239281823 M32.074 0 v281.93553239281823 M64.148 0 v281.93553239281823 M96.22200000000001 0 v281.93553239281823 M128.296 0 v281.93553239281823 M160.37 0 v281.93553239281823 M192.44400000000002 0 v281.93553239281823 M224.518 0 v281.93553239281823 M256.592 0 v281.93553239281823 M288.666 0 v281.93553239281823 M320.74 0 v281.93553239281823 M352.81399999999996 0 v281.93553239281823 M384.88800000000003 0 v281.93553239281823 M416.96200000000005 0 v281.93553239281823 M449.036 0 v281.93553239281823 M481.11 0 v281.93553239281823" transform="translate(50.89, 43.5)"/><g font-size="11" font-family="DejaVu Sans, sans-serif" fill="#c9d4d9" transform="translate(50.89, 61.5)"><text x="0.0" y="281.93553239281823" transform="translate(-6.675, 0) rotate(28.849270923938917, 0.0, 281.93553239281823)">54.4</text><text x="64.148" y="281.93553239281823" transform="translate(-6.866, 0) rotate(28.849270923938917, 64.148, 281.93553239281823)">122.7</text><text x="128.296" y="281.93553239281823" transform="translate(-6.866, 0) rotate(28.849270923938917, 128.296, 281.93553239281823)">191.0</text><text x="192.44400000000002" y="281.93553239281823" transform="translate(-6.866, 0) rotate(28.849270923938917, 192.44400000000002, 281.93553239281823)">259.4</text><text x="256.592" y="281.93553239281823" transform="translate(-6.866, 0) rotate(28.849270923938917, 256.592, 281.93553239281823)">327.7</text><text x="320.74" y="281.93553239281823" transform="translate(-6.866, 0) rotate(28.849270923938917, 320.74, 281.93553239281823)">396.0</text><text x="384.88800000000003" y="281.93553239281823" transform="translate(-6.866, 0) rotate(28.849270923938917, 384.88800000000003, 281.93553239281823)">464.4</text><text x="481.11" y="281.93553239281823" transform="translate(-6.866, 0) rotate(28.849270923938917, 481.11, 281.93553239281823)">566.9</text></g></g><g><rect x="50.89" y="273.2774589001469" width="30.069375" height="52.15807349267137" fill="#5fab9e" fill-opacity="0.7" stroke="#5fab9e" stroke-width="0.5"/><rect x="80.959375" y="68.87419791535365" width="30.069375" height="256.5613344774646" fill="#5fab9e" fill-opacity="0.7" stroke="#5fab9e" stroke-width="0.5"/><rect x="111.02875" y="112.57420543624048" width="30.069375" height="212.86132695657776" fill="#5fab9e" fill-opacity="0.7" stroke="#5fab9e" stroke-width="0.5"/><rect x="141.09812499999998" y="287.37423551978776" width="30.069375" height="38.061296873030464" fill="#5fab9e" fill-opacity="0.7" stroke="#5fab9e" stroke-width="0.5"/><rect x="171.16750000000002" y="316.9774664210337" width="30.069375" height="8.458065971784547" fill="#5fab9e" fill-opacity="0.7" stroke="#5fab9e" stroke-width="0.5"/><rect x="201.236875" y="302.88068980139275" width="30.069375" height="22.55484259142546" fill="#5fab9e" fill-opacity="0.7" stroke="#5fab9e" stroke-width="0.5"/><rect x="231.30624999999998" y="277.50649188603916" width="30.069375" height="47.9290405067791" fill="#5fab9e" fill-opacity="0.7" stroke="#5fab9e" stroke-width="0.5"/><rect x="261.375625" y="297.2419791535364" width="30.069375" height="28.193553239281826" fill="#5fab9e" fill-opacity="0.7" stroke="#5fab9e" stroke-width="0.5"/><rect x="291.445" y="318.3871440829978" width="30.069375" height="7.0483883098204565" fill="#5fab9e" fill-opacity="0.7" stroke="#5fab9e" stroke-width="0.5"/><rect x="321.514375" y="321.20649940692596" width="30.069375" height="4.229032985892274" fill="#5fab9e" fill-opacity="0.7" stroke="#5fab9e" stroke-width="0.5"/><rect x="351.58375" y="322.61617706889007" width="30.069375" height="2.8193553239281823" fill="#5fab9e" fill-opacity="0.7" stroke="#5fab9e" stroke-width="0.5"/><rect x="381.653125" y="324.0258547308541" width="30.069375" height="1.4096776619640912" fill="#5fab9e" fill-opacity="0.7" stroke="#5fab9e" stroke-width="0.5"/><rect x="411.72249999999997" y="316.9774664210337" width="30.069375" height="8.458065971784547" fill="#5fab9e" fill-opacity="0.7" stroke="#5fab9e" stroke-width="0.5"/><rect x="441.791875" y="316.9774664210337" width="30.069375" height="8.458065971784547" fill="#5fab9e" fill-opacity="0.7" stroke="#5fab9e" stroke-width="0.5"/><rect x="471.86125" y="324.0258547308541" width="30.069375" height="1.4096776619640912" fill="#5fab9e" fill-opacity="0.7" stroke="#5fab9e" stroke-width="0.5"/><rect x="501.930625" y="321.20649940692596" width="30.069375" height="4.229032985892274" fill="#5fab9e" fill-opacity="0.7" stroke="#5fab9e" stroke-width="0.5"/></g><path d="M50.89 43.5 v281.93553239281823 M50.89 325.43553239281823 h481.11" stroke="#999" stroke-width="1.5" fill="none"/></svg>