<svg xmlns="http://www.w3.org/2000/svg" width="580" height="360" viewBox="0 0 580 360"><path fill="#0f1a20" d="M0 0 h580 v360 h-580 v-360Z"/><text transform="translate(-102.43999999999998, 17)" fill="#c9d4d9" font-family="DejaVu Sans, sans-serif" font-weight="bold" font-size="15" x="290.0" y="9.0">Website Conversion Funnel</text><defs><clipPath id="plot-clip"><rect x="0" y="0" width="502.93" height="284.5"/></clipPath></defs><g><path d="M104.000,43.500C141.500,43.500 141.500,43.500 179.000,43.500L179.000,203.531C141.500,203.531 141.500,203.531 104.000,203.531Z" fill="#5fab9e" fill-opacity="0.450" stroke="none"/><path d="M104.000,203.531C141.500,203.531 141.500,211.531 179.000,211.531L179.000,289.769C141.500,289.769 141.500,281.769 104.000,281.769Z" fill="#5fab9e" fill-opacity="0.450" stroke="none"/><path d="M104.000,281.769C141.500,281.769 141.500,297.769 179.000,297.769L179.000,344.000C141.500,344.000 141.500,328.000 104.000,328.000Z" fill="#5fab9e" fill-opacity="0.450" stroke="none"/><path d="M203.000,139.519C240.500,139.519 240.500,165.817 278.000,165.817L278.000,229.829C240.500,229.829 240.500,203.531 203.000,203.531Z" fill="#db504a" fill-opacity="0.450" stroke="none"/><path d="M203.000,43.500C339.500,43.500 339.500,43.500 476.000,43.500L476.000,139.519C339.500,139.519 339.500,139.519 203.000,139.519Z" fill="#db504a" fill-opacity="0.450" stroke="none"/><path d="M203.000,250.650C240.500,250.650 240.500,229.829 278.000,229.829L278.000,268.948C240.500,268.948 240.500,289.769 203.000,289.769Z" fill="#f7dd72" fill-opacity="0.450" stroke="none"/><path d="M203.000,211.531C339.500,211.531 339.500,166.191 476.000,166.191L476.000,205.309C339.500,205.309 339.500,250.650 203.000,250.650Z" fill="#f7dd72" fill-opacity="0.450" stroke="none"/><path d="M203.000,320.884C240.500,320.884 240.500,268.948 278.000,268.948L278.000,292.064C240.500,292.064 240.500,344.000 203.000,344.000Z" fill="#f58b51" fill-opacity="0.450" stroke="none"/><path d="M203.000,297.769C339.500,297.769 339.500,205.309 476.000,205.309L476.000,228.425C339.500,228.425 339.500,320.884 203.000,320.884Z" fill="#f58b51" fill-opacity="0.450" stroke="none"/><path d="M302.000,192.489C339.500,192.489 339.500,198.596 377.000,198.596L377.000,298.171C339.500,298.171 339.500,292.064 302.000,292.064Z" fill="#7ec8bc" fill-opacity="0.450" stroke="none"/><path d="M302.000,165.817C389.000,165.817 389.000,139.519 476.000,139.519L476.000,166.191C389.000,166.191 389.000,192.489 302.000,192.489Z" fill="#7ec8bc" fill-opacity="0.450" stroke="none"/><path d="M401.000,198.596C438.500,198.596 438.500,236.425 476.000,236.425L476.000,271.276C438.500,271.276 438.500,233.447 401.000,233.447Z" fill="#e87a74" fill-opacity="0.450" stroke="none"/><path d="M401.000,233.447C438.500,233.447 438.500,279.276 476.000,279.276L476.000,344.000C438.500,344.000 438.500,298.171 401.000,298.171Z" fill="#e87a74" fill-opacity="0.450" stroke="none"/><rect x="80.000" y="43.500" width="24.000" height="284.500" fill="#5fab9e"/><rect x="179.000" y="43.500" width="24.000" height="160.031" fill="#db504a"/><rect x="179.000" y="211.531" width="24.000" height="78.237" fill="#f7dd72"/><rect x="179.000" y="297.769" width="24.000" height="46.231" fill="#f58b51"/><rect x="278.000" y="165.817" width="24.000" height="126.247" fill="#7ec8bc"/><rect x="377.000" y="198.596" width="24.000" height="99.575" fill="#e87a74"/><rect x="476.000" y="236.425" width="24.000" height="34.851" fill="#a8d5cd"/><rect x="476.000" y="279.276" width="24.000" height="64.724" fill="#f9e99a"/><rect x="476.000" y="43.500" width="24.000" height="184.925" fill="#5fab9e"/><text x="110.000" y="185.750" fill="#c9d4d9" font-size="12.0" font-family="DejaVu Sans, sans-serif" text-anchor="start" dominant-baseline="middle">Website</text><text x="209.000" y="123.516" fill="#c9d4d9" font-size="12.0" font-family="DejaVu Sans, sans-serif" text-anchor="start" dominant-baseline="middle">Organic Search</text><text x="209.000" y="250.650" fill="#c9d4d9" font-size="12.0" font-family="DejaVu Sans, sans-serif" text-anchor="start" dominant-baseline="middle">Paid Ads</text><text x="209.000" y="320.884" fill="#c9d4d9" font-size="12.0" font-family="DejaVu Sans, sans-serif" text-anchor="start" dominant-baseline="middle">Referral</text><text x="308.000" y="228.940" fill="#c9d4d9" font-size="12.0" font-family="DejaVu Sans, sans-serif" text-anchor="start" dominant-baseline="middle">Signup</text><text x="371.000" y="248.383" fill="#c9d4d9" font-size="12.0" font-family="DejaVu Sans, sans-serif" text-anchor="end" dominant-baseline="middle">Trial</text><text x="470.000" y="135.963" fill="#c9d4d9" font-size="12.0" font-family="DejaVu Sans, sans-serif" text-anchor="end" dominant-baseline="middle">Bounced</text><text x="470.000" y="253.851" fill="#c9d4d9" font-size="12.0" font-family="DejaVu Sans, sans-serif" text-anchor="end" dominant-baseline="middle">Paid Plan</text><text x="470.000" y="311.638" fill="#c9d4d9" font-size="12.0" font-family="DejaVu Sans, sans-serif" text-anchor="end" dominant-baseline="middle">Churned</text></g></svg>