<svg xmlns="http://www.w3.org/2000/svg" width="560" height="360" viewBox="0 0 560 360"><path fill="#ffffff" d="M0 0 h560 v360 h-560 v-360Z"/><text transform="translate(-156.26000000000002, 17)" fill="#2e4756" font-family="DejaVu Sans, sans-serif" font-weight="bold" font-size="15" x="280.0" y="9.0">Daily Web Traffic by Channel (K sessions)</text><defs><clipPath id="plot-clip"><rect x="0" y="0" width="488.74" height="298.5"/></clipPath></defs><g><path stroke="#e8edf0" stroke-dasharray="None" d="M0 0.0 h488.74 M0 59.7 h488.74 M0 119.4 h488.74 M0 179.1 h488.74 M0 238.8 h488.74 M0 298.5 h488.74" transform="translate(43.26, 43.5)"/><g font-size="11" font-family="DejaVu Sans, sans-serif" fill="#2e4756" transform="translate(37.26, 43.5)"><text x="0" y="0.0" transform="translate(-15.26, 3.5)">60</text><text x="0" y="59.7" transform="translate(-15.26, 3.5)">48</text><text x="0" y="119.4" transform="translate(-15.26, 3.5)">36</text><text x="0" y="179.1" transform="translate(-15.26, 3.5)">24</text><text x="0" y="238.8" transform="translate(-15.26, 3.5)">12</text><text x="0" y="298.5" transform="translate(-7.63, 3.5)">0</text></g></g><g><path stroke="#e8edf0" stroke-dasharray="None" d="M0.0 0 v298.5 M44.43090909090909 0 v298.5 M88.86181818181818 0 v298.5 M133.29272727272726 0 v298.5 M177.72363636363636 0 v298.5 M222.15454545454546 0 v298.5 M266.5854545454545 0 v298.5 M311.0163636363636 0 v298.5 M355.4472727272727 0 v298.5 M399.8781818181819 0 v298.5 M444.3090909090909 0 v298.5 M488.74 0 v298.5" transform="translate(43.26, 43.5)"/><g font-size="11" font-family="DejaVu Sans, sans-serif" fill="#2e4756" transform="translate(43.26, 61.5)"><text x="0.0" y="298.5" transform="translate(-9.25, 0)">Jan</text><text x="44.43090909090909" y="298.5" transform="translate(-10.950000000000001, 0)">Feb</text><text x="88.86181818181818" y="298.5" transform="translate(-11.315, 0)">Mar</text><text x="133.29272727272726" y="298.5" transform="translate(-10.38, 0)">Apr</text><text x="177.72363636363636" y="298.5" transform="translate(-12.399999999999999, 0)">May</text><text x="222.15454545454546" y="298.5" transform="translate(-9.38, 0)">Jun</text><text x="266.5854545454545" y="298.5" transform="translate(-7.24, 0)">Jul</text><text x="311.0163636363636" y="298.5" transform="translate(-11.72, 0)">Aug</text><text x="355.4472727272727" y="298.5" transform="translate(-11.31, 0)">Sep</text><text x="399.8781818181819" y="298.5" transform="translate(-10.379999999999999, 0)">Oct</text><text x="444.3090909090909" y="298.5" transform="translate(-11.71, 0)">Nov</text><text x="488.74" y="298.5" transform="translate(-11.61, 0)">Dec</text></g></g><g><path d="M43.26 252.45 L87.69090909090909 232.55 L132.12181818181818 247.47500000000002 L176.55272727272725 212.65 L220.98363636363635 187.77499999999998 L265.4145454545455 202.7 L309.8454545454545 222.6 L354.2763636363636 197.725 L398.7072727272727 167.875 L443.13818181818186 182.8 L487.5690909090909 207.67499999999998 L532.0 177.825 L532.0 342.0 L43.26 342.0z" fill="#5fab9e" fill-opacity="0.3" stroke="#5fab9e" stroke-width="1.5"/><path d="M43.26 212.65 L87.69090909090909 182.8 L132.12181818181818 202.70000000000002 L176.55272727272725 152.95 L220.98363636363635 118.12499999999997 L265.4145454545455 138.02499999999998 L309.8454545454545 167.875 L354.2763636363636 133.05 L398.7072727272727 88.275 L443.13818181818186 108.17500000000001 L487.5690909090909 147.97499999999997 L532.0 108.17499999999998 L532.0 342.0 L43.26 342.0z" fill="#db504a" fill-opacity="0.3" stroke="#db504a" stroke-width="1.5"/><path d="M43.26 192.75 L87.69090909090909 157.925 L132.12181818181818 182.79999999999998 L176.55272727272725 123.10000000000002 L220.98363636363635 83.30000000000001 L265.4145454545455 103.19999999999999 L309.8454545454545 138.025 L354.2763636363636 98.22500000000002 L398.7072727272727 48.47500000000002 L443.13818181818186 68.375 L487.5690909090909 118.125 L532.0 73.35000000000002 L532.0 342.0 L43.26 342.0z" fill="#f7dd72" fill-opacity="0.3" stroke="#f7dd72" stroke-width="1.5"/></g><g><rect transform="translate(-4.41675, -3.8249999999999997)" x="464.69325" y="51.325" width="67.7235" height="58.65" fill="#f5f5f5" fill-opacity="0.85" stroke="none"/><g><rect y="53.325" x="464.69325" width="13" height="13" fill="#5fab9e"/><text y="63.075" x="479.69325" font-size="13" font-family="DejaVu Sans, sans-serif" fill="#2e4756">Organic</text></g><g><rect y="70.325" x="464.69325" width="13" height="13" fill="#db504a"/><text y="80.075" x="479.69325" font-size="13" font-family="DejaVu Sans, sans-serif" fill="#2e4756">Paid</text></g><g><rect y="87.325" x="464.69325" width="13" height="13" fill="#f7dd72"/><text y="97.075" x="479.69325" font-size="13" font-family="DejaVu Sans, sans-serif" fill="#2e4756">Referral</text></g></g><path d="M43.26 43.5 v298.5 M43.26 342.0 h488.74" stroke="#999" stroke-width="1.5" fill="none"/></svg>