<svg xmlns="http://www.w3.org/2000/svg" width="580" height="360" viewBox="0 0 580 360"><path fill="#0f1a20" d="M0 0 h580 v360 h-580 v-360Z"/><text transform="translate(-143.06500000000003, 17)" fill="#c9d4d9" font-family="DejaVu Sans, sans-serif" font-weight="bold" font-size="15" x="290.0" y="9.0">Product Launch Timeline: Q3–Q4 2026</text><defs><clipPath id="plot-clip"><rect x="0" y="0" width="450.0" height="298.5"/></clipPath></defs><g><path stroke="#7a9aaa" stroke-dasharray="None" d="M0 21.321428571428573 h450.0 M0 63.96428571428572 h450.0 M0 106.60714285714286 h450.0 M0 149.25000000000003 h450.0 M0 191.89285714285717 h450.0 M0 234.5357142857143 h450.0 M0 277.17857142857144 h450.0" transform="translate(101.00000000000001, 43.5)"/><g font-size="11" font-family="DejaVu Sans, sans-serif" fill="#c9d4d9" transform="translate(95.00000000000001, 43.5)"><text x="0" y="21.321428571428573" dominant-baseline="central" transform="translate(-59.27000000000001, 0)">Discovery</text><text x="0" y="63.96428571428572" dominant-baseline="central" transform="translate(-41.43, 0)">Design</text><text x="0" y="106.60714285714286" dominant-baseline="central" transform="translate(-72.00000000000001, 0)">Engineering</text><text x="0" y="149.25000000000003" dominant-baseline="central" transform="translate(-34.12, 0)">Alpha</text><text x="0" y="191.89285714285717" dominant-baseline="central" transform="translate(-27.67, 0)">Beta</text><text x="0" y="234.5357142857143" dominant-baseline="central" transform="translate(-17.66, 0)">QA</text><text x="0" y="277.17857142857144" dominant-baseline="central" transform="translate(-43.47, 0)">Launch</text></g></g><g><path stroke="#7a9aaa" stroke-dasharray="None" d="M0.0 0 v298.5 M83.03571428571429 0 v298.5 M166.07142857142858 0 v298.5 M246.42857142857144 0 v298.5 M329.46428571428567 0 v298.5 M409.82142857142856 0 v298.5 M450.0 0 v298.5" transform="translate(101.00000000000001, 43.5)"/><g font-size="11" font-family="DejaVu Sans, sans-serif" fill="#c9d4d9" transform="translate(101.00000000000001, 61.5)"><text x="0.0" y="298.5" transform="translate(-25.055000000000003, 0)">2026-07</text><text x="83.03571428571429" y="298.5" transform="translate(-25.055000000000003, 0)">2026-08</text><text x="166.07142857142858" y="298.5" transform="translate(-25.055000000000003, 0)">2026-09</text><text x="246.42857142857144" y="298.5" transform="translate(-25.055000000000003, 0)">2026-10</text><text x="329.46428571428567" y="298.5" transform="translate(-25.055000000000003, 0)">2026-11</text><text x="409.82142857142856" y="298.5" transform="translate(-25.055000000000003, 0)">2026-12</text></g></g><g transform="translate(101.00000000000001, 43.5)"><g opacity="0.8"><path d="M0.0 8.5 h112.5 v25.6 h-112.5 v-25.6Z M37.5 51.2 h150.0 v25.6 h-150.0 v-25.6Z M75.0 93.8 h187.5 v25.6 h-187.5 v-25.6Z M150.0 136.5 h187.5 v25.6 h-187.5 v-25.6Z M225.0 179.1 h150.0 v25.6 h-150.0 v-25.6Z M300.0 221.7 h112.5 v25.6 h-112.5 v-25.6Z M337.5 264.4 h112.5 v25.6 h-112.5 v-25.6Z" fill="#5fab9e"/></g><g stroke="#7a9aaa" fill="none" stroke-width="1.4" stroke-dasharray="5,3" stroke-linejoin="round"><path d="M112.50,21.32 H120.50 V63.96 H31.50"/><path d="M187.50,63.96 H195.50 V106.61 H69.00"/><path d="M262.50,106.61 H270.50 V149.25 H144.00"/><path d="M337.50,149.25 H345.50 V191.89 H219.00"/><path d="M375.00,191.89 H383.00 V234.54 H294.00"/><path d="M412.50,234.54 H420.50 V277.18 H331.50"/></g><g stroke="none" fill="#7a9aaa"><path d="M36.50,63.96 L31.50,60.96 L31.50,66.96 Z"/><path d="M74.00,106.61 L69.00,103.61 L69.00,109.61 Z"/><path d="M149.00,149.25 L144.00,146.25 L144.00,152.25 Z"/><path d="M224.00,191.89 L219.00,188.89 L219.00,194.89 Z"/><path d="M299.00,234.54 L294.00,231.54 L294.00,237.54 Z"/><path d="M336.50,277.18 L331.50,274.18 L331.50,280.18 Z"/></g><g stroke="#7a9aaa" stroke-dasharray="4,4" stroke-width="1.5"><path d="M281.25,0 v298.5"/></g><path stroke="#7a9aaa" stroke-dasharray="None" d="M0 298.5 h450.0"/><path stroke="#7a9aaa" stroke-dasharray="None" d="M0 0 h450.0"/><path stroke="#7a9aaa" stroke-dasharray="None" d="M0 0 v298.5"/><path stroke="#7a9aaa" stroke-dasharray="None" d="M450.0 0 v298.5"/></g><path d="M101.00000000000001 43.5 v298.5 M101.00000000000001 342.0 h450.0" stroke="#999" stroke-width="1.5" fill="none"/></svg>