<svg xmlns="http://www.w3.org/2000/svg" width="580" height="360" viewBox="0 0 580 360"><path fill="#0f1a20" d="M0 0 h580 v360 h-580 v-360Z"/><text transform="translate(-125.41, 17)" fill="#c9d4d9" font-family="DejaVu Sans, sans-serif" font-weight="bold" font-size="15" x="290.0" y="9.0">API Error Rate (%) by Day &amp; Hour</text><g transform="translate(67.47, 43.5)"><path fill="#2a4c56" stroke="#ffffff14" stroke-width="0.25" d="M0.7 0.8 h32.5 v38.1 h-32.5 v-38.1Z"/><text x="16.93875" y="19.833259387860295" fill="#ffffff" font-family="DejaVu Sans, sans-serif" font-size="11" text-anchor="middle" dominant-baseline="central">0.31</text><path fill="#24424e" stroke="#ffffff14" stroke-width="0.25" d="M34.6 0.8 h32.5 v38.1 h-32.5 v-38.1Z"/><text x="50.81625" y="19.833259387860295" fill="#ffffff" font-family="DejaVu Sans, sans-serif" font-size="11" text-anchor="middle" dominant-baseline="central">0.23</text><path fill="#23414d" stroke="#ffffff14" stroke-width="0.25" d="M68.4 0.8 h32.5 v38.1 h-32.5 v-38.1Z"/><text x="84.69375" y="19.833259387860295" fill="#ffffff" font-family="DejaVu Sans, sans-serif" font-size="11" text-anchor="middle" dominant-baseline="central">0.22</text><path fill="#254450" stroke="#ffffff14" stroke-width="0.25" d="M102.3 0.8 h32.5 v38.1 h-32.5 v-38.1Z"/><text x="118.57124999999999" y="19.833259387860295" fill="#ffffff" font-family="DejaVu Sans, sans-serif" font-size="11" text-anchor="middle" dominant-baseline="central">0.25</text><path fill="#345f64" stroke="#ffffff14" stroke-width="0.25" d="M136.2 0.8 h32.5 v38.1 h-32.5 v-38.1Z"/><text x="152.44875" y="19.833259387860295" fill="#ffffff" font-family="DejaVu Sans, sans-serif" font-size="11" text-anchor="middle" dominant-baseline="central">0.45</text><path fill="#254450" stroke="#ffffff14" stroke-width="0.25" d="M170.1 0.8 h32.5 v38.1 h-32.5 v-38.1Z"/><text x="186.32625" y="19.833259387860295" fill="#ffffff" font-family="DejaVu Sans, sans-serif" font-size="11" text-anchor="middle" dominant-baseline="central">0.25</text><path fill="#294b55" stroke="#ffffff14" stroke-width="0.25" d="M203.9 0.8 h32.5 v38.1 h-32.5 v-38.1Z"/><text x="220.20374999999999" y="19.833259387860295" fill="#ffffff" font-family="DejaVu Sans, sans-serif" font-size="11" text-anchor="middle" dominant-baseline="central">0.30</text><path fill="#569c93" stroke="#ffffff14" stroke-width="0.25" d="M237.8 0.8 h32.5 v38.1 h-32.5 v-38.1Z"/><text x="254.08124999999998" y="19.833259387860295" fill="#000000" font-family="DejaVu Sans, sans-serif" font-size="11" text-anchor="middle" dominant-baseline="central">0.92</text><path fill="#53968e" stroke="#ffffff14" stroke-width="0.25" d="M271.7 0.8 h32.5 v38.1 h-32.5 v-38.1Z"/><text x="287.95874999999995" y="19.833259387860295" fill="#000000" font-family="DejaVu Sans, sans-serif" font-size="11" text-anchor="middle" dominant-baseline="central">0.87</text><path fill="#5fab9e" stroke="#ffffff14" stroke-width="0.25" d="M305.6 0.8 h32.5 v38.1 h-32.5 v-38.1Z"/><text x="321.83624999999995" y="19.833259387860295" fill="#000000" font-family="DejaVu Sans, sans-serif" font-size="11" text-anchor="middle" dominant-baseline="central">1.03</text><path fill="#51938c" stroke="#ffffff14" stroke-width="0.25" d="M339.5 0.8 h32.5 v38.1 h-32.5 v-38.1Z"/><text x="355.71374999999995" y="19.833259387860295" fill="#000000" font-family="DejaVu Sans, sans-serif" font-size="11" text-anchor="middle" dominant-baseline="central">0.85</text><path fill="#2a4e57" stroke="#ffffff14" stroke-width="0.25" d="M373.3 0.8 h32.5 v38.1 h-32.5 v-38.1Z"/><text x="389.59124999999995" y="19.833259387860295" fill="#ffffff" font-family="DejaVu Sans, sans-serif" font-size="11" text-anchor="middle" dominant-baseline="central">0.32</text><path fill="#30585f" stroke="#ffffff14" stroke-width="0.25" d="M0.7 40.5 h32.5 v38.1 h-32.5 v-38.1Z"/><text x="16.93875" y="59.499778163580885" fill="#ffffff" font-family="DejaVu Sans, sans-serif" font-size="11" text-anchor="middle" dominant-baseline="central">0.40</text><path fill="#25434f" stroke="#ffffff14" stroke-width="0.25" d="M34.6 40.5 h32.5 v38.1 h-32.5 v-38.1Z"/><text x="50.81625" y="59.499778163580885" fill="#ffffff" font-family="DejaVu Sans, sans-serif" font-size="11" text-anchor="middle" dominant-baseline="central">0.24</text><path fill="#38666a" stroke="#ffffff14" stroke-width="0.25" d="M68.4 40.5 h32.5 v38.1 h-32.5 v-38.1Z"/><text x="84.69375" y="59.499778163580885" fill="#ffffff" font-family="DejaVu Sans, sans-serif" font-size="11" text-anchor="middle" dominant-baseline="central">0.51</text><path fill="#294b55" stroke="#ffffff14" stroke-width="0.25" d="M102.3 40.5 h32.5 v38.1 h-32.5 v-38.1Z"/><text x="118.57124999999999" y="59.499778163580885" fill="#ffffff" font-family="DejaVu Sans, sans-serif" font-size="11" text-anchor="middle" dominant-baseline="central">0.30</text><path fill="#2a4c56" stroke="#ffffff14" stroke-width="0.25" d="M136.2 40.5 h32.5 v38.1 h-32.5 v-38.1Z"/><text x="152.44875" y="59.499778163580885" fill="#ffffff" font-family="DejaVu Sans, sans-serif" font-size="11" text-anchor="middle" dominant-baseline="central">0.31</text><path fill="#325b61" stroke="#ffffff14" stroke-width="0.25" d="M170.1 40.5 h32.5 v38.1 h-32.5 v-38.1Z"/><text x="186.32625" y="59.499778163580885" fill="#ffffff" font-family="DejaVu Sans, sans-serif" font-size="11" text-anchor="middle" dominant-baseline="central">0.42</text><path fill="#223f4c" stroke="#ffffff14" stroke-width="0.25" d="M203.9 40.5 h32.5 v38.1 h-32.5 v-38.1Z"/><text x="220.20374999999999" y="59.499778163580885" fill="#ffffff" font-family="DejaVu Sans, sans-serif" font-size="11" text-anchor="middle" dominant-baseline="central">0.21</text><path fill="#569b92" stroke="#ffffff14" stroke-width="0.25" d="M237.8 40.5 h32.5 v38.1 h-32.5 v-38.1Z"/><text x="254.08124999999998" y="59.499778163580885" fill="#000000" font-family="DejaVu Sans, sans-serif" font-size="11" text-anchor="middle" dominant-baseline="central">0.91</text><path fill="#5ca59a" stroke="#ffffff14" stroke-width="0.25" d="M271.7 40.5 h32.5 v38.1 h-32.5 v-38.1Z"/><text x="287.95874999999995" y="59.499778163580885" fill="#000000" font-family="DejaVu Sans, sans-serif" font-size="11" text-anchor="middle" dominant-baseline="central">0.99</text><path fill="#4d8b86" stroke="#ffffff14" stroke-width="0.25" d="M305.6 40.5 h32.5 v38.1 h-32.5 v-38.1Z"/><text x="321.83624999999995" y="59.499778163580885" fill="#ffffff" font-family="DejaVu Sans, sans-serif" font-size="11" text-anchor="middle" dominant-baseline="central">0.79</text><path fill="#5fab9e" stroke="#ffffff14" stroke-width="0.25" d="M339.5 40.5 h32.5 v38.1 h-32.5 v-38.1Z"/><text x="355.71374999999995" y="59.499778163580885" fill="#000000" font-family="DejaVu Sans, sans-serif" font-size="11" text-anchor="middle" dominant-baseline="central">1.03</text><path fill="#2d535b" stroke="#ffffff14" stroke-width="0.25" d="M373.3 40.5 h32.5 v38.1 h-32.5 v-38.1Z"/><text x="389.59124999999995" y="59.499778163580885" fill="#ffffff" font-family="DejaVu Sans, sans-serif" font-size="11" text-anchor="middle" dominant-baseline="central">0.36</text><path fill="#356065" stroke="#ffffff14" stroke-width="0.25" d="M0.7 80.1 h32.5 v38.1 h-32.5 v-38.1Z"/><text x="16.93875" y="99.16629693930147" fill="#ffffff" font-family="DejaVu Sans, sans-serif" font-size="11" text-anchor="middle" dominant-baseline="central">0.46</text><path fill="#2c5059" stroke="#ffffff14" stroke-width="0.25" d="M34.6 80.1 h32.5 v38.1 h-32.5 v-38.1Z"/><text x="50.81625" y="99.16629693930147" fill="#ffffff" font-family="DejaVu Sans, sans-serif" font-size="11" text-anchor="middle" dominant-baseline="central">0.34</text><path fill="#2a4c56" stroke="#ffffff14" stroke-width="0.25" d="M68.4 80.1 h32.5 v38.1 h-32.5 v-38.1Z"/><text x="84.69375" y="99.16629693930147" fill="#ffffff" font-family="DejaVu Sans, sans-serif" font-size="11" text-anchor="middle" dominant-baseline="central">0.31</text><path fill="#264651" stroke="#ffffff14" stroke-width="0.25" d="M102.3 80.1 h32.5 v38.1 h-32.5 v-38.1Z"/><text x="118.57124999999999" y="99.16629693930147" fill="#ffffff" font-family="DejaVu Sans, sans-serif" font-size="11" text-anchor="middle" dominant-baseline="central">0.26</text><path fill="#1e3746" stroke="#ffffff14" stroke-width="0.25" d="M136.2 80.1 h32.5 v38.1 h-32.5 v-38.1Z"/><text x="152.44875" y="99.16629693930147" fill="#ffffff" font-family="DejaVu Sans, sans-serif" font-size="11" text-anchor="middle" dominant-baseline="central">0.15</text><path fill="#24424e" stroke="#ffffff14" stroke-width="0.25" d="M170.1 80.1 h32.5 v38.1 h-32.5 v-38.1Z"/><text x="186.32625" y="99.16629693930147" fill="#ffffff" font-family="DejaVu Sans, sans-serif" font-size="11" text-anchor="middle" dominant-baseline="central">0.23</text><path fill="#3b6c6e" stroke="#ffffff14" stroke-width="0.25" d="M203.9 80.1 h32.5 v38.1 h-32.5 v-38.1Z"/><text x="220.20374999999999" y="99.16629693930147" fill="#ffffff" font-family="DejaVu Sans, sans-serif" font-size="11" text-anchor="middle" dominant-baseline="central">0.55</text><path fill="#52948d" stroke="#ffffff14" stroke-width="0.25" d="M237.8 80.1 h32.5 v38.1 h-32.5 v-38.1Z"/><text x="254.08124999999998" y="99.16629693930147" fill="#000000" font-family="DejaVu Sans, sans-serif" font-size="11" text-anchor="middle" dominant-baseline="central">0.86</text><path fill="#50908a" stroke="#ffffff14" stroke-width="0.25" d="M271.7 80.1 h32.5 v38.1 h-32.5 v-38.1Z"/><text x="287.95874999999995" y="99.16629693930147" fill="#000000" font-family="DejaVu Sans, sans-serif" font-size="11" text-anchor="middle" dominant-baseline="central">0.83</text><path fill="#5da89c" stroke="#ffffff14" stroke-width="0.25" d="M305.6 80.1 h32.5 v38.1 h-32.5 v-38.1Z"/><text x="321.83624999999995" y="99.16629693930147" fill="#000000" font-family="DejaVu Sans, sans-serif" font-size="11" text-anchor="middle" dominant-baseline="central">1.01</text><path fill="#549890" stroke="#ffffff14" stroke-width="0.25" d="M339.5 80.1 h32.5 v38.1 h-32.5 v-38.1Z"/><text x="355.71374999999995" y="99.16629693930147" fill="#000000" font-family="DejaVu Sans, sans-serif" font-size="11" text-anchor="middle" dominant-baseline="central">0.89</text><path fill="#3b6a6d" stroke="#ffffff14" stroke-width="0.25" d="M373.3 80.1 h32.5 v38.1 h-32.5 v-38.1Z"/><text x="389.59124999999995" y="99.16629693930147" fill="#ffffff" font-family="DejaVu Sans, sans-serif" font-size="11" text-anchor="middle" dominant-baseline="central">0.54</text><path fill="#284a54" stroke="#ffffff14" stroke-width="0.25" d="M0.7 119.8 h32.5 v38.1 h-32.5 v-38.1Z"/><text x="16.93875" y="138.83281571502206" fill="#ffffff" font-family="DejaVu Sans, sans-serif" font-size="11" text-anchor="middle" dominant-baseline="central">0.29</text><path fill="#25434f" stroke="#ffffff14" stroke-width="0.25" d="M34.6 119.8 h32.5 v38.1 h-32.5 v-38.1Z"/><text x="50.81625" y="138.83281571502206" fill="#ffffff" font-family="DejaVu Sans, sans-serif" font-size="11" text-anchor="middle" dominant-baseline="central">0.24</text><path fill="#39686b" stroke="#ffffff14" stroke-width="0.25" d="M68.4 119.8 h32.5 v38.1 h-32.5 v-38.1Z"/><text x="84.69375" y="138.83281571502206" fill="#ffffff" font-family="DejaVu Sans, sans-serif" font-size="11" text-anchor="middle" dominant-baseline="central">0.52</text><path fill="#223f4c" stroke="#ffffff14" stroke-width="0.25" d="M102.3 119.8 h32.5 v38.1 h-32.5 v-38.1Z"/><text x="118.57124999999999" y="138.83281571502206" fill="#ffffff" font-family="DejaVu Sans, sans-serif" font-size="11" text-anchor="middle" dominant-baseline="central">0.21</text><path fill="#356166" stroke="#ffffff14" stroke-width="0.25" d="M136.2 119.8 h32.5 v38.1 h-32.5 v-38.1Z"/><text x="152.44875" y="138.83281571502206" fill="#ffffff" font-family="DejaVu Sans, sans-serif" font-size="11" text-anchor="middle" dominant-baseline="central">0.47</text><path fill="#30575e" stroke="#ffffff14" stroke-width="0.25" d="M170.1 119.8 h32.5 v38.1 h-32.5 v-38.1Z"/><text x="186.32625" y="138.83281571502206" fill="#ffffff" font-family="DejaVu Sans, sans-serif" font-size="11" text-anchor="middle" dominant-baseline="central">0.39</text><path fill="#3b6a6d" stroke="#ffffff14" stroke-width="0.25" d="M203.9 119.8 h32.5 v38.1 h-32.5 v-38.1Z"/><text x="220.20374999999999" y="138.83281571502206" fill="#ffffff" font-family="DejaVu Sans, sans-serif" font-size="11" text-anchor="middle" dominant-baseline="central">0.54</text><path fill="#5fab9e" stroke="#ffffff14" stroke-width="0.25" d="M237.8 119.8 h32.5 v38.1 h-32.5 v-38.1Z"/><text x="254.08124999999998" y="138.83281571502206" fill="#000000" font-family="DejaVu Sans, sans-serif" font-size="11" text-anchor="middle" dominant-baseline="central">1.03</text><path fill="#569b92" stroke="#ffffff14" stroke-width="0.25" d="M271.7 119.8 h32.5 v38.1 h-32.5 v-38.1Z"/><text x="287.95874999999995" y="138.83281571502206" fill="#000000" font-family="DejaVu Sans, sans-serif" font-size="11" text-anchor="middle" dominant-baseline="central">0.91</text><path fill="#437a79" stroke="#ffffff14" stroke-width="0.25" d="M305.6 119.8 h32.5 v38.1 h-32.5 v-38.1Z"/><text x="321.83624999999995" y="138.83281571502206" fill="#ffffff" font-family="DejaVu Sans, sans-serif" font-size="11" text-anchor="middle" dominant-baseline="central">0.66</text><path fill="#437a79" stroke="#ffffff14" stroke-width="0.25" d="M339.5 119.8 h32.5 v38.1 h-32.5 v-38.1Z"/><text x="355.71374999999995" y="138.83281571502206" fill="#ffffff" font-family="DejaVu Sans, sans-serif" font-size="11" text-anchor="middle" dominant-baseline="central">0.66</text><path fill="#2c5059" stroke="#ffffff14" stroke-width="0.25" d="M373.3 119.8 h32.5 v38.1 h-32.5 v-38.1Z"/><text x="389.59124999999995" y="138.83281571502206" fill="#ffffff" font-family="DejaVu Sans, sans-serif" font-size="11" text-anchor="middle" dominant-baseline="central">0.34</text><path fill="#366367" stroke="#ffffff14" stroke-width="0.25" d="M0.7 159.5 h32.5 v38.1 h-32.5 v-38.1Z"/><text x="16.93875" y="178.49933449074265" fill="#ffffff" font-family="DejaVu Sans, sans-serif" font-size="11" text-anchor="middle" dominant-baseline="central">0.48</text><path fill="#203b49" stroke="#ffffff14" stroke-width="0.25" d="M34.6 159.5 h32.5 v38.1 h-32.5 v-38.1Z"/><text x="50.81625" y="178.49933449074265" fill="#ffffff" font-family="DejaVu Sans, sans-serif" font-size="11" text-anchor="middle" dominant-baseline="central">0.18</text><path fill="#2a4e57" stroke="#ffffff14" stroke-width="0.25" d="M68.4 159.5 h32.5 v38.1 h-32.5 v-38.1Z"/><text x="84.69375" y="178.49933449074265" fill="#ffffff" font-family="DejaVu Sans, sans-serif" font-size="11" text-anchor="middle" dominant-baseline="central">0.32</text><path fill="#203b49" stroke="#ffffff14" stroke-width="0.25" d="M102.3 159.5 h32.5 v38.1 h-32.5 v-38.1Z"/><text x="118.57124999999999" y="178.49933449074265" fill="#ffffff" font-family="DejaVu Sans, sans-serif" font-size="11" text-anchor="middle" dominant-baseline="central">0.18</text><path fill="#274752" stroke="#ffffff14" stroke-width="0.25" d="M136.2 159.5 h32.5 v38.1 h-32.5 v-38.1Z"/><text x="152.44875" y="178.49933449074265" fill="#ffffff" font-family="DejaVu Sans, sans-serif" font-size="11" text-anchor="middle" dominant-baseline="central">0.27</text><path fill="#1e3746" stroke="#ffffff14" stroke-width="0.25" d="M170.1 159.5 h32.5 v38.1 h-32.5 v-38.1Z"/><text x="186.32625" y="178.49933449074265" fill="#ffffff" font-family="DejaVu Sans, sans-serif" font-size="11" text-anchor="middle" dominant-baseline="central">0.15</text><path fill="#274853" stroke="#ffffff14" stroke-width="0.25" d="M203.9 159.5 h32.5 v38.1 h-32.5 v-38.1Z"/><text x="220.20374999999999" y="178.49933449074265" fill="#ffffff" font-family="DejaVu Sans, sans-serif" font-size="11" text-anchor="middle" dominant-baseline="central">0.28</text><path fill="#52948d" stroke="#ffffff14" stroke-width="0.25" d="M237.8 159.5 h32.5 v38.1 h-32.5 v-38.1Z"/><text x="254.08124999999998" y="178.49933449074265" fill="#000000" font-family="DejaVu Sans, sans-serif" font-size="11" text-anchor="middle" dominant-baseline="central">0.86</text><path fill="#488380" stroke="#ffffff14" stroke-width="0.25" d="M271.7 159.5 h32.5 v38.1 h-32.5 v-38.1Z"/><text x="287.95874999999995" y="178.49933449074265" fill="#ffffff" font-family="DejaVu Sans, sans-serif" font-size="11" text-anchor="middle" dominant-baseline="central">0.73</text><path fill="#59a197" stroke="#ffffff14" stroke-width="0.25" d="M305.6 159.5 h32.5 v38.1 h-32.5 v-38.1Z"/><text x="321.83624999999995" y="178.49933449074265" fill="#000000" font-family="DejaVu Sans, sans-serif" font-size="11" text-anchor="middle" dominant-baseline="central">0.96</text><path fill="#447b7a" stroke="#ffffff14" stroke-width="0.25" d="M339.5 159.5 h32.5 v38.1 h-32.5 v-38.1Z"/><text x="355.71374999999995" y="178.49933449074265" fill="#ffffff" font-family="DejaVu Sans, sans-serif" font-size="11" text-anchor="middle" dominant-baseline="central">0.67</text><path fill="#24424e" stroke="#ffffff14" stroke-width="0.25" d="M373.3 159.5 h32.5 v38.1 h-32.5 v-38.1Z"/><text x="389.59124999999995" y="178.49933449074265" fill="#ffffff" font-family="DejaVu Sans, sans-serif" font-size="11" text-anchor="middle" dominant-baseline="central">0.23</text><path fill="#1e3746" stroke="#ffffff14" stroke-width="0.25" d="M0.7 199.1 h32.5 v38.1 h-32.5 v-38.1Z"/><text x="16.93875" y="218.16585326646324" fill="#ffffff" font-family="DejaVu Sans, sans-serif" font-size="11" text-anchor="middle" dominant-baseline="central">0.15</text><path fill="#223f4c" stroke="#ffffff14" stroke-width="0.25" d="M34.6 199.1 h32.5 v38.1 h-32.5 v-38.1Z"/><text x="50.81625" y="218.16585326646324" fill="#ffffff" font-family="DejaVu Sans, sans-serif" font-size="11" text-anchor="middle" dominant-baseline="central">0.21</text><path fill="#2d535b" stroke="#ffffff14" stroke-width="0.25" d="M68.4 199.1 h32.5 v38.1 h-32.5 v-38.1Z"/><text x="84.69375" y="218.16585326646324" fill="#ffffff" font-family="DejaVu Sans, sans-serif" font-size="11" text-anchor="middle" dominant-baseline="central">0.36</text><path fill="#213d4a" stroke="#ffffff14" stroke-width="0.25" d="M102.3 199.1 h32.5 v38.1 h-32.5 v-38.1Z"/><text x="118.57124999999999" y="218.16585326646324" fill="#ffffff" font-family="DejaVu Sans, sans-serif" font-size="11" text-anchor="middle" dominant-baseline="central">0.19</text><path fill="#2b4f58" stroke="#ffffff14" stroke-width="0.25" d="M136.2 199.1 h32.5 v38.1 h-32.5 v-38.1Z"/><text x="152.44875" y="218.16585326646324" fill="#ffffff" font-family="DejaVu Sans, sans-serif" font-size="11" text-anchor="middle" dominant-baseline="central">0.33</text><path fill="#325b61" stroke="#ffffff14" stroke-width="0.25" d="M170.1 199.1 h32.5 v38.1 h-32.5 v-38.1Z"/><text x="186.32625" y="218.16585326646324" fill="#ffffff" font-family="DejaVu Sans, sans-serif" font-size="11" text-anchor="middle" dominant-baseline="central">0.42</text><path fill="#1a3141" stroke="#ffffff14" stroke-width="0.25" d="M203.9 199.1 h32.5 v38.1 h-32.5 v-38.1Z"/><text x="220.20374999999999" y="218.16585326646324" fill="#ffffff" font-family="DejaVu Sans, sans-serif" font-size="11" text-anchor="middle" dominant-baseline="central">0.10</text><path fill="#30585f" stroke="#ffffff14" stroke-width="0.25" d="M237.8 199.1 h32.5 v38.1 h-32.5 v-38.1Z"/><text x="254.08124999999998" y="218.16585326646324" fill="#ffffff" font-family="DejaVu Sans, sans-serif" font-size="11" text-anchor="middle" dominant-baseline="central">0.40</text><path fill="#284a54" stroke="#ffffff14" stroke-width="0.25" d="M271.7 199.1 h32.5 v38.1 h-32.5 v-38.1Z"/><text x="287.95874999999995" y="218.16585326646324" fill="#ffffff" font-family="DejaVu Sans, sans-serif" font-size="11" text-anchor="middle" dominant-baseline="central">0.29</text><path fill="#2d525a" stroke="#ffffff14" stroke-width="0.25" d="M305.6 199.1 h32.5 v38.1 h-32.5 v-38.1Z"/><text x="321.83624999999995" y="218.16585326646324" fill="#ffffff" font-family="DejaVu Sans, sans-serif" font-size="11" text-anchor="middle" dominant-baseline="central">0.35</text><path fill="#284a54" stroke="#ffffff14" stroke-width="0.25" d="M339.5 199.1 h32.5 v38.1 h-32.5 v-38.1Z"/><text x="355.71374999999995" y="218.16585326646324" fill="#ffffff" font-family="DejaVu Sans, sans-serif" font-size="11" text-anchor="middle" dominant-baseline="central">0.29</text><path fill="#223f4c" stroke="#ffffff14" stroke-width="0.25" d="M373.3 199.1 h32.5 v38.1 h-32.5 v-38.1Z"/><text x="389.59124999999995" y="218.16585326646324" fill="#ffffff" font-family="DejaVu Sans, sans-serif" font-size="11" text-anchor="middle" dominant-baseline="central">0.21</text><path fill="#1a3040" stroke="#ffffff14" stroke-width="0.25" d="M0.7 238.8 h32.5 v38.1 h-32.5 v-38.1Z"/><text x="16.93875" y="257.83237204218386" fill="#ffffff" font-family="DejaVu Sans, sans-serif" font-size="11" text-anchor="middle" dominant-baseline="central">0.09</text><path fill="#1b3242" stroke="#ffffff14" stroke-width="0.25" d="M34.6 238.8 h32.5 v38.1 h-32.5 v-38.1Z"/><text x="50.81625" y="257.83237204218386" fill="#ffffff" font-family="DejaVu Sans, sans-serif" font-size="11" text-anchor="middle" dominant-baseline="central">0.11</text><path fill="#1c3343" stroke="#ffffff14" stroke-width="0.25" d="M68.4 238.8 h32.5 v38.1 h-32.5 v-38.1Z"/><text x="84.69375" y="257.83237204218386" fill="#ffffff" font-family="DejaVu Sans, sans-serif" font-size="11" text-anchor="middle" dominant-baseline="central">0.12</text><path fill="#1c3343" stroke="#ffffff14" stroke-width="0.25" d="M102.3 238.8 h32.5 v38.1 h-32.5 v-38.1Z"/><text x="118.57124999999999" y="257.83237204218386" fill="#ffffff" font-family="DejaVu Sans, sans-serif" font-size="11" text-anchor="middle" dominant-baseline="central">0.12</text><path fill="#1b3242" stroke="#ffffff14" stroke-width="0.25" d="M136.2 238.8 h32.5 v38.1 h-32.5 v-38.1Z"/><text x="152.44875" y="257.83237204218386" fill="#ffffff" font-family="DejaVu Sans, sans-serif" font-size="11" text-anchor="middle" dominant-baseline="central">0.11</text><path fill="#1c3544" stroke="#ffffff14" stroke-width="0.25" d="M170.1 238.8 h32.5 v38.1 h-32.5 v-38.1Z"/><text x="186.32625" y="257.83237204218386" fill="#ffffff" font-family="DejaVu Sans, sans-serif" font-size="11" text-anchor="middle" dominant-baseline="central">0.13</text><path fill="#274752" stroke="#ffffff14" stroke-width="0.25" d="M203.9 238.8 h32.5 v38.1 h-32.5 v-38.1Z"/><text x="220.20374999999999" y="257.83237204218386" fill="#ffffff" font-family="DejaVu Sans, sans-serif" font-size="11" text-anchor="middle" dominant-baseline="central">0.27</text><path fill="#2d535b" stroke="#ffffff14" stroke-width="0.25" d="M237.8 238.8 h32.5 v38.1 h-32.5 v-38.1Z"/><text x="254.08124999999998" y="257.83237204218386" fill="#ffffff" font-family="DejaVu Sans, sans-serif" font-size="11" text-anchor="middle" dominant-baseline="central">0.36</text><path fill="#2e545c" stroke="#ffffff14" stroke-width="0.25" d="M271.7 238.8 h32.5 v38.1 h-32.5 v-38.1Z"/><text x="287.95874999999995" y="257.83237204218386" fill="#ffffff" font-family="DejaVu Sans, sans-serif" font-size="11" text-anchor="middle" dominant-baseline="central">0.37</text><path fill="#30575e" stroke="#ffffff14" stroke-width="0.25" d="M305.6 238.8 h32.5 v38.1 h-32.5 v-38.1Z"/><text x="321.83624999999995" y="257.83237204218386" fill="#ffffff" font-family="DejaVu Sans, sans-serif" font-size="11" text-anchor="middle" dominant-baseline="central">0.39</text><path fill="#1a3141" stroke="#ffffff14" stroke-width="0.25" d="M339.5 238.8 h32.5 v38.1 h-32.5 v-38.1Z"/><text x="355.71374999999995" y="257.83237204218386" fill="#ffffff" font-family="DejaVu Sans, sans-serif" font-size="11" text-anchor="middle" dominant-baseline="central">0.10</text><path fill="#2f555d" stroke="#ffffff14" stroke-width="0.25" d="M373.3 238.8 h32.5 v38.1 h-32.5 v-38.1Z"/><text x="389.59124999999995" y="257.83237204218386" fill="#ffffff" font-family="DejaVu Sans, sans-serif" font-size="11" text-anchor="middle" dominant-baseline="central">0.38</text><text x="16.93875" y="-1.5866607510288235" fill="#c9d4d9" font-family="DejaVu Sans, sans-serif" font-size="11" text-anchor="middle" dominant-baseline="bottom">00:00</text><text x="50.81625" y="-1.5866607510288235" fill="#c9d4d9" font-family="DejaVu Sans, sans-serif" font-size="11" text-anchor="middle" dominant-baseline="bottom">02:00</text><text x="84.69375" y="-1.5866607510288235" fill="#c9d4d9" font-family="DejaVu Sans, sans-serif" font-size="11" text-anchor="middle" dominant-baseline="bottom">04:00</text><text x="118.57124999999999" y="-1.5866607510288235" fill="#c9d4d9" font-family="DejaVu Sans, sans-serif" font-size="11" text-anchor="middle" dominant-baseline="bottom">06:00</text><text x="152.44875" y="-1.5866607510288235" fill="#c9d4d9" font-family="DejaVu Sans, sans-serif" font-size="11" text-anchor="middle" dominant-baseline="bottom">08:00</text><text x="186.32625" y="-1.5866607510288235" fill="#c9d4d9" font-family="DejaVu Sans, sans-serif" font-size="11" text-anchor="middle" dominant-baseline="bottom">10:00</text><text x="220.20374999999999" y="-1.5866607510288235" fill="#c9d4d9" font-family="DejaVu Sans, sans-serif" font-size="11" text-anchor="middle" dominant-baseline="bottom">12:00</text><text x="254.08124999999998" y="-1.5866607510288235" fill="#c9d4d9" font-family="DejaVu Sans, sans-serif" font-size="11" text-anchor="middle" dominant-baseline="bottom">14:00</text><text x="287.95875" y="-1.5866607510288235" fill="#c9d4d9" font-family="DejaVu Sans, sans-serif" font-size="11" text-anchor="middle" dominant-baseline="bottom">16:00</text><text x="321.83624999999995" y="-1.5866607510288235" fill="#c9d4d9" font-family="DejaVu Sans, sans-serif" font-size="11" text-anchor="middle" dominant-baseline="bottom">18:00</text><text x="355.71375" y="-1.5866607510288235" fill="#c9d4d9" font-family="DejaVu Sans, sans-serif" font-size="11" text-anchor="middle" dominant-baseline="bottom">20:00</text><text x="389.59124999999995" y="-1.5866607510288235" fill="#c9d4d9" font-family="DejaVu Sans, sans-serif" font-size="11" text-anchor="middle" dominant-baseline="bottom">22:00</text><text x="-1.3551" y="19.833259387860295" fill="#c9d4d9" font-family="DejaVu Sans, sans-serif" font-size="11" text-anchor="end" dominant-baseline="central">Mon</text><text x="-1.3551" y="59.499778163580885" fill="#c9d4d9" font-family="DejaVu Sans, sans-serif" font-size="11" text-anchor="end" dominant-baseline="central">Tue</text><text x="-1.3551" y="99.16629693930147" fill="#c9d4d9" font-family="DejaVu Sans, sans-serif" font-size="11" text-anchor="end" dominant-baseline="central">Wed</text><text x="-1.3551" y="138.83281571502206" fill="#c9d4d9" font-family="DejaVu Sans, sans-serif" font-size="11" text-anchor="end" dominant-baseline="central">Thu</text><text x="-1.3551" y="178.49933449074265" fill="#c9d4d9" font-family="DejaVu Sans, sans-serif" font-size="11" text-anchor="end" dominant-baseline="central">Fri</text><text x="-1.3551" y="218.16585326646324" fill="#c9d4d9" font-family="DejaVu Sans, sans-serif" font-size="11" text-anchor="end" dominant-baseline="central">Sat</text><text x="-1.3551" y="257.8323720421838" fill="#c9d4d9" font-family="DejaVu Sans, sans-serif" font-size="11" text-anchor="end" dominant-baseline="central">Sun</text><path fill="#5fab9e" d="M420.5 0.0 h16.0 v5.3 h-16.0 v-5.3Z"/><path fill="#5da99c" d="M420.5 4.3 h16.0 v5.3 h-16.0 v-5.3Z"/><path fill="#5ca79b" d="M420.5 8.7 h16.0 v5.3 h-16.0 v-5.3Z"/><path fill="#5ba599" d="M420.5 13.0 h16.0 v5.3 h-16.0 v-5.3Z"/><path fill="#5aa398" d="M420.5 17.4 h16.0 v5.3 h-16.0 v-5.3Z"/><path fill="#59a196" d="M420.5 21.7 h16.0 v5.3 h-16.0 v-5.3Z"/><path fill="#589f95" d="M420.5 26.0 h16.0 v5.3 h-16.0 v-5.3Z"/><path fill="#579d93" d="M420.5 30.4 h16.0 v5.3 h-16.0 v-5.3Z"/><path fill="#569b92" d="M420.5 34.7 h16.0 v5.3 h-16.0 v-5.3Z"/><path fill="#559990" d="M420.5 39.0 h16.0 v5.3 h-16.0 v-5.3Z"/><path fill="#54978f" d="M420.5 43.4 h16.0 v5.3 h-16.0 v-5.3Z"/><path fill="#52958d" d="M420.5 47.7 h16.0 v5.3 h-16.0 v-5.3Z"/><path fill="#51938c" d="M420.5 52.1 h16.0 v5.3 h-16.0 v-5.3Z"/><path fill="#50918a" d="M420.5 56.4 h16.0 v5.3 h-16.0 v-5.3Z"/><path fill="#4f8f89" d="M420.5 60.7 h16.0 v5.3 h-16.0 v-5.3Z"/><path fill="#4e8d87" d="M420.5 65.1 h16.0 v5.3 h-16.0 v-5.3Z"/><path fill="#4d8b86" d="M420.5 69.4 h16.0 v5.3 h-16.0 v-5.3Z"/><path fill="#4c8984" d="M420.5 73.8 h16.0 v5.3 h-16.0 v-5.3Z"/><path fill="#4b8783" d="M420.5 78.1 h16.0 v5.3 h-16.0 v-5.3Z"/><path fill="#4a8581" d="M420.5 82.4 h16.0 v5.3 h-16.0 v-5.3Z"/><path fill="#498380" d="M420.5 86.8 h16.0 v5.3 h-16.0 v-5.3Z"/><path fill="#48827e" d="M420.5 91.1 h16.0 v5.3 h-16.0 v-5.3Z"/><path fill="#46807d" d="M420.5 95.4 h16.0 v5.3 h-16.0 v-5.3Z"/><path fill="#457e7b" d="M420.5 99.8 h16.0 v5.3 h-16.0 v-5.3Z"/><path fill="#447c7a" d="M420.5 104.1 h16.0 v5.3 h-16.0 v-5.3Z"/><path fill="#437a78" d="M420.5 108.5 h16.0 v5.3 h-16.0 v-5.3Z"/><path fill="#427877" d="M420.5 112.8 h16.0 v5.3 h-16.0 v-5.3Z"/><path fill="#417675" d="M420.5 117.1 h16.0 v5.3 h-16.0 v-5.3Z"/><path fill="#407474" d="M420.5 121.5 h16.0 v5.3 h-16.0 v-5.3Z"/><path fill="#3f7272" d="M420.5 125.8 h16.0 v5.3 h-16.0 v-5.3Z"/><path fill="#3e7071" d="M420.5 130.2 h16.0 v5.3 h-16.0 v-5.3Z"/><path fill="#3d6e6f" d="M420.5 134.5 h16.0 v5.3 h-16.0 v-5.3Z"/><path fill="#3b6c6e" d="M420.5 138.8 h16.0 v5.3 h-16.0 v-5.3Z"/><path fill="#3a6a6c" d="M420.5 143.2 h16.0 v5.3 h-16.0 v-5.3Z"/><path fill="#39686b" d="M420.5 147.5 h16.0 v5.3 h-16.0 v-5.3Z"/><path fill="#386669" d="M420.5 151.8 h16.0 v5.3 h-16.0 v-5.3Z"/><path fill="#376468" d="M420.5 156.2 h16.0 v5.3 h-16.0 v-5.3Z"/><path fill="#366266" d="M420.5 160.5 h16.0 v5.3 h-16.0 v-5.3Z"/><path fill="#356065" d="M420.5 164.9 h16.0 v5.3 h-16.0 v-5.3Z"/><path fill="#345e63" d="M420.5 169.2 h16.0 v5.3 h-16.0 v-5.3Z"/><path fill="#335c62" d="M420.5 173.5 h16.0 v5.3 h-16.0 v-5.3Z"/><path fill="#325a60" d="M420.5 177.9 h16.0 v5.3 h-16.0 v-5.3Z"/><path fill="#31595f" d="M420.5 182.2 h16.0 v5.3 h-16.0 v-5.3Z"/><path fill="#2f575d" d="M420.5 186.6 h16.0 v5.3 h-16.0 v-5.3Z"/><path fill="#2e555c" d="M420.5 190.9 h16.0 v5.3 h-16.0 v-5.3Z"/><path fill="#2d535a" d="M420.5 195.2 h16.0 v5.3 h-16.0 v-5.3Z"/><path fill="#2c5159" d="M420.5 199.6 h16.0 v5.3 h-16.0 v-5.3Z"/><path fill="#2b4f57" d="M420.5 203.9 h16.0 v5.3 h-16.0 v-5.3Z"/><path fill="#2a4d56" d="M420.5 208.2 h16.0 v5.3 h-16.0 v-5.3Z"/><path fill="#294b54" d="M420.5 212.6 h16.0 v5.3 h-16.0 v-5.3Z"/><path fill="#284953" d="M420.5 216.9 h16.0 v5.3 h-16.0 v-5.3Z"/><path fill="#274751" d="M420.5 221.3 h16.0 v5.3 h-16.0 v-5.3Z"/><path fill="#264550" d="M420.5 225.6 h16.0 v5.3 h-16.0 v-5.3Z"/><path fill="#24434e" d="M420.5 229.9 h16.0 v5.3 h-16.0 v-5.3Z"/><path fill="#23414d" d="M420.5 234.3 h16.0 v5.3 h-16.0 v-5.3Z"/><path fill="#223f4b" d="M420.5 238.6 h16.0 v5.3 h-16.0 v-5.3Z"/><path fill="#213d4a" d="M420.5 243.0 h16.0 v5.3 h-16.0 v-5.3Z"/><path fill="#203b48" d="M420.5 247.3 h16.0 v5.3 h-16.0 v-5.3Z"/><path fill="#1f3947" d="M420.5 251.6 h16.0 v5.3 h-16.0 v-5.3Z"/><path fill="#1e3745" d="M420.5 256.0 h16.0 v5.3 h-16.0 v-5.3Z"/><path fill="#1d3544" d="M420.5 260.3 h16.0 v5.3 h-16.0 v-5.3Z"/><path fill="#1c3342" d="M420.5 264.7 h16.0 v5.3 h-16.0 v-5.3Z"/><path fill="#1b3141" d="M420.5 269.0 h16.0 v5.3 h-16.0 v-5.3Z"/><path fill="#1a3040" d="M420.5 273.3 h16.0 v5.3 h-16.0 v-5.3Z"/><path fill="none" stroke="#c9d4d9" stroke-width="0.75" d="M420.5 0 h16.0 v277.7 h-16.0 v-277.7Z"/><path stroke="#c9d4d9" stroke-width="0.75" d="M436.53 277.66563143004413 h4"/><text x="445.53" y="277.66563143004413" fill="#c9d4d9" font-family="DejaVu Sans, sans-serif" font-size="11" text-anchor="start" dominant-baseline="central">0.09</text><path stroke="#c9d4d9" stroke-width="0.75" d="M436.53 208.24922357253308 h4"/><text x="445.53" y="208.24922357253308" fill="#c9d4d9" font-family="DejaVu Sans, sans-serif" font-size="11" text-anchor="start" dominant-baseline="central">0.33</text><path stroke="#c9d4d9" stroke-width="0.75" d="M436.53 138.83281571502206 h4"/><text x="445.53" y="138.83281571502206" fill="#c9d4d9" font-family="DejaVu Sans, sans-serif" font-size="11" text-anchor="start" dominant-baseline="central">0.56</text><path stroke="#c9d4d9" stroke-width="0.75" d="M436.53 69.41640785751103 h4"/><text x="445.53" y="69.41640785751103" fill="#c9d4d9" font-family="DejaVu Sans, sans-serif" font-size="11" text-anchor="start" dominant-baseline="central">0.80</text><path stroke="#c9d4d9" stroke-width="0.75" d="M436.53 0.0 h4"/><text x="445.53" y="0.0" fill="#c9d4d9" font-family="DejaVu Sans, sans-serif" font-size="11" text-anchor="start" dominant-baseline="central">1.03</text></g></svg>