<svg xmlns="http://www.w3.org/2000/svg" width="520" height="380" viewBox="0 0 520 380"><path fill="#ffffff" d="M0 0 h520 v380 h-520 v-380Z"/><text transform="translate(-84.59999999999998, 17)" fill="#2e4756" font-family="DejaVu Sans, sans-serif" font-weight="bold" font-size="15" x="260.0" y="9.5">NPS Score Distribution</text><defs><clipPath id="plot-clip"><rect x="0" y="0" width="452.74" height="316.5"/></clipPath></defs><g><circle cx="260.0" cy="202.75" r="25.320000000000004" fill="none" stroke="#e8edf0" stroke-width="1"/><circle cx="260.0" cy="202.75" r="50.64000000000001" fill="none" stroke="#e8edf0" stroke-width="1"/><circle cx="260.0" cy="202.75" r="75.96000000000001" fill="none" stroke="#e8edf0" stroke-width="1"/><circle cx="260.0" cy="202.75" r="101.28000000000002" fill="none" stroke="#e8edf0" stroke-width="1"/><circle cx="260.0" cy="202.75" r="126.60000000000001" fill="none" stroke="#e8edf0" stroke-width="1"/><path d="M 260.0 202.75 L 260.0 149.578 A 53.172000000000004 53.172000000000004 0 0 1 288.746953545749 158.01886715230043 Z" fill="#bf4242" opacity="0.8"/><text x="274.9802835123725" y="151.73183960696994" fill="#2e4756" font-size="14" font-family="DejaVu Sans, sans-serif" text-anchor="middle" dominant-baseline="middle">0</text><path d="M 260.0 202.75 L 279.16463569716603 172.92924476820028 A 35.44800000000001 35.44800000000001 0 0 1 292.24463497132695 188.0243686191091 Z" fill="#3665d8" opacity="0.8"/><text x="300.18471636756465" y="167.9297450546613" fill="#2e4756" font-size="14" font-family="DejaVu Sans, sans-serif" text-anchor="middle" dominant-baseline="middle">1</text><path d="M 260.0 202.75 L 280.72869391013876 193.28352268371302 A 22.788 22.788 0 0 1 282.5560510175827 205.99307053457161 Z" fill="#7bbf1c" opacity="0.8"/><text x="312.63078570769295" y="195.1828354193329" fill="#2e4756" font-size="14" font-family="DejaVu Sans, sans-serif" text-anchor="middle" dominant-baseline="middle">2</text><path d="M 260.0 202.75 L 300.09964625348033 208.51545872812733 A 40.512 40.512 0 0 1 290.6169267562397 229.27971805359138 Z" fill="#d84bc7" opacity="0.8"/><text x="308.3669524569905" y="224.8384470713363" fill="#2e4756" font-size="14" font-family="DejaVu Sans, sans-serif" text-anchor="middle" dominant-baseline="middle">3</text><path d="M 260.0 202.75 L 312.62284286228703 248.3479529046102 A 69.63000000000001 69.63000000000001 0 0 1 279.61703793286875 269.5594957527775 Z" fill="#2fbfa7" opacity="0.8"/><text x="288.7469535457491" y="247.48113284769954" fill="#2e4756" font-size="14" font-family="DejaVu Sans, sans-serif" text-anchor="middle" dominant-baseline="middle">4</text><path d="M 260.0 202.75 L 281.75707843463624 276.8478043803532 A 77.226 77.226 0 0 1 238.24292156536373 276.8478043803532 Z" fill="#d88420" opacity="0.8"/><text x="260.0" y="255.922" fill="#2e4756" font-size="14" font-family="DejaVu Sans, sans-serif" text-anchor="middle" dominant-baseline="middle">5</text><path d="M 260.0 202.75 L 242.52300256889873 262.2711871252017 A 62.034000000000006 62.034000000000006 0 0 1 213.11783090450794 243.37363076956183 Z" fill="#6142bf" opacity="0.8"/><text x="231.25304645425095" y="247.48113284769954" fill="#2e4756" font-size="14" font-family="DejaVu Sans, sans-serif" text-anchor="middle" dominant-baseline="middle">6</text><path d="M 260.0 202.75 L 223.64239947696535 234.25404018863978 A 48.108000000000004 48.108000000000004 0 0 1 212.3816700739921 209.5964822396512 Z" fill="#3dd836" opacity="0.8"/><text x="211.63304754300955" y="224.83844707133633" fill="#2e4756" font-size="14" font-family="DejaVu Sans, sans-serif" text-anchor="middle" dominant-baseline="middle">7</text><path d="M 260.0 202.75 L 169.77579592966924 215.7222821382865 A 91.152 91.152 0 0 1 177.08522435944496 164.88409073485204 Z" fill="#bf1c53" opacity="0.8"/><text x="205.86547755780154" y="194.9666307170281" fill="#ffffff" font-size="14" font-family="DejaVu Sans, sans-serif" text-anchor="middle" dominant-baseline="middle">8</text><path d="M 260.0 202.75 L 163.2660950860191 158.5731058573274 A 106.34400000000001 106.34400000000001 0 0 1 202.50609290850184 113.2877343046009 Z" fill="#4ba4d8" opacity="0.8"/><text x="211.77834035892243" y="160.9656940655936" fill="#000000" font-size="14" font-family="DejaVu Sans, sans-serif" text-anchor="middle" dominant-baseline="middle">9</text><path d="M 260.0 202.75 L 197.71493398421035 105.83254549665098 A 115.20600000000002 115.20600000000002 0 0 1 260.0 87.54399999999998 Z" fill="#b3bf2f" opacity="0.8"/><text x="240.52563143391575" y="136.4263914890609" fill="#000000" font-size="14" font-family="DejaVu Sans, sans-serif" text-anchor="middle" dominant-baseline="middle">10</text><rect x="260.0" y="162.43" width="23.36" height="18" rx="2" fill="#2e4756" fill-opacity="1"/><text x="271.68" y="171.43" fill="#ffffff" font-size="14" font-family="DejaVu Sans, sans-serif" font-weight="bold" text-anchor="middle" dominant-baseline="central">20</text><rect x="260.0" y="137.10999999999999" width="23.36" height="18" rx="2" fill="#2e4756" fill-opacity="1"/><text x="271.68" y="146.10999999999999" fill="#ffffff" font-size="14" font-family="DejaVu Sans, sans-serif" font-weight="bold" text-anchor="middle" dominant-baseline="central">40</text><rect x="260.0" y="111.78999999999999" width="23.36" height="18" rx="2" fill="#2e4756" fill-opacity="1"/><text x="271.68" y="120.78999999999999" fill="#ffffff" font-size="14" font-family="DejaVu Sans, sans-serif" font-weight="bold" text-anchor="middle" dominant-baseline="central">60</text><rect x="260.0" y="86.46999999999998" width="23.36" height="18" rx="2" fill="#2e4756" fill-opacity="1"/><text x="271.68" y="95.46999999999998" fill="#ffffff" font-size="14" font-family="DejaVu Sans, sans-serif" font-weight="bold" text-anchor="middle" dominant-baseline="central">80</text><rect x="260.0" y="61.14999999999999" width="32.04" height="18" rx="2" fill="#2e4756" fill-opacity="1"/><text x="276.02" y="70.14999999999999" fill="#ffffff" font-size="14" font-family="DejaVu Sans, sans-serif" font-weight="bold" text-anchor="middle" dominant-baseline="central">100</text></g></svg>