<svg xmlns="http://www.w3.org/2000/svg" width="520" height="380" viewBox="0 0 520 380"><path fill="#ffffff" d="M0 0 h520 v380 h-520 v-380Z"/><text transform="translate(-96.86999999999998, 17)" fill="#2e4756" font-family="DejaVu Sans, sans-serif" font-weight="bold" font-size="15" x="260.0" y="9.5">Team Competency Profile</text><defs><clipPath id="plot-clip"><rect x="0" y="0" width="452.74" height="316.5"/></clipPath></defs><g transform=""><g opacity="0.8"><circle cx="260.0" cy="190.0" r="23.1" fill="none" stroke="#e8edf0" stroke-width="1"/><circle cx="260.0" cy="190.0" r="46.2" fill="none" stroke="#e8edf0" stroke-width="1"/><circle cx="260.0" cy="190.0" r="69.30000000000001" fill="none" stroke="#e8edf0" stroke-width="1"/><circle cx="260.0" cy="190.0" r="92.4" fill="none" stroke="#e8edf0" stroke-width="1"/><circle cx="260.0" cy="190.0" r="115.5" fill="none" stroke="#e8edf0" stroke-width="1"/><path d="M260.0 190.0 L260.0 305.5" stroke="#e8edf0" stroke-width="1"/><text x="260.0" y="337.5" fill="#2e4756" font-size="12" font-family="DejaVu Sans, sans-serif" text-anchor="middle">Delivery</text><path d="M260.0 190.0 L360.0259341371027 247.75" stroke="#e8edf0" stroke-width="1"/><text x="382.34644221279143" y="269.75" fill="#2e4756" font-size="12" font-family="DejaVu Sans, sans-serif" text-anchor="start">Quality</text><path d="M260.0 190.0 L360.0259341371027 132.25" stroke="#e8edf0" stroke-width="1"/><text x="382.34644221279143" y="120.25000000000001" fill="#2e4756" font-size="12" font-family="DejaVu Sans, sans-serif" text-anchor="start">Security</text><path d="M260.0 190.0 L260.0 74.5" stroke="#e8edf0" stroke-width="1"/><text x="260.0" y="52.5" fill="#2e4756" font-size="12" font-family="DejaVu Sans, sans-serif" text-anchor="middle">Perf</text><path d="M260.0 190.0 L159.97406586289733 132.25" stroke="#e8edf0" stroke-width="1"/><text x="137.65355778720857" y="120.25000000000001" fill="#2e4756" font-size="12" font-family="DejaVu Sans, sans-serif" text-anchor="end">UX</text><path d="M260.0 190.0 L159.97406586289736 247.75" stroke="#e8edf0" stroke-width="1"/><text x="137.65355778720857" y="269.75" fill="#2e4756" font-size="12" font-family="DejaVu Sans, sans-serif" text-anchor="end">Collab</text><path d="M260.0,289.69473684210527 355.81431585764574,245.31842105263158 337.91493816995364,145.0157894736842 260.0,83.01052631578948 176.82053898072513,141.9763157894737 159.97406586289736,247.75 Z" fill="#5fab9e" fill-opacity="0.2" stroke="#5fab9e" stroke-width="2"/><circle cx="260.0" cy="289.69473684210527" r="4" fill="#5fab9e" stroke="white" stroke-width="1"/><circle cx="355.81431585764574" cy="245.31842105263158" r="4" fill="#5fab9e" stroke="white" stroke-width="1"/><circle cx="337.91493816995364" cy="145.0157894736842" r="4" fill="#5fab9e" stroke="white" stroke-width="1"/><circle cx="260.0" cy="83.01052631578948" r="4" fill="#5fab9e" stroke="white" stroke-width="1"/><circle cx="176.82053898072513" cy="141.9763157894737" r="4" fill="#5fab9e" stroke="white" stroke-width="1"/><circle cx="159.97406586289736" cy="247.75" r="4" fill="#5fab9e" stroke="white" stroke-width="1"/><path d="M260.0,272.6736842105263 338.9678427398179,235.5921052631579 356.86722042750995,134.07368421052632 260.0,104.89473684210527 167.344397851947,136.50526315789475 184.19087096977483,233.7684210526316 Z" fill="#db504a" fill-opacity="0.2" stroke="#db504a" stroke-width="2"/><circle cx="260.0" cy="272.6736842105263" r="4" fill="#db504a" stroke="white" stroke-width="1"/><circle cx="338.9678427398179" cy="235.5921052631579" r="4" fill="#db504a" stroke="white" stroke-width="1"/><circle cx="356.86722042750995" cy="134.07368421052632" r="4" fill="#db504a" stroke="white" stroke-width="1"/><circle cx="260.0" cy="104.89473684210527" r="4" fill="#db504a" stroke="white" stroke-width="1"/><circle cx="167.344397851947" cy="136.50526315789475" r="4" fill="#db504a" stroke="white" stroke-width="1"/><circle cx="184.19087096977483" cy="233.7684210526316" r="4" fill="#db504a" stroke="white" stroke-width="1"/></g><g opacity="1"><rect x="260.0" y="162.9" width="20.88" height="16" rx="2" fill="#2e4756" fill-opacity="1"/><text x="270.44" y="170.9" fill="#ffffff" font-size="12" font-family="DejaVu Sans, sans-serif" font-weight="bold" text-anchor="middle" dominant-baseline="central">19</text><rect x="260.0" y="139.8" width="20.88" height="16" rx="2" fill="#2e4756" fill-opacity="1"/><text x="270.44" y="147.8" fill="#ffffff" font-size="12" font-family="DejaVu Sans, sans-serif" font-weight="bold" text-anchor="middle" dominant-baseline="central">38</text><rect x="260.0" y="116.69999999999999" width="20.88" height="16" rx="2" fill="#2e4756" fill-opacity="1"/><text x="270.44" y="124.69999999999999" fill="#ffffff" font-size="12" font-family="DejaVu Sans, sans-serif" font-weight="bold" text-anchor="middle" dominant-baseline="central">57</text><rect x="260.0" y="93.6" width="20.88" height="16" rx="2" fill="#2e4756" fill-opacity="1"/><text x="270.44" y="101.6" fill="#ffffff" font-size="12" font-family="DejaVu Sans, sans-serif" font-weight="bold" text-anchor="middle" dominant-baseline="central">76</text><rect x="260.0" y="70.5" width="20.88" height="16" rx="2" fill="#2e4756" fill-opacity="1"/><text x="270.44" y="78.5" fill="#ffffff" font-size="12" font-family="DejaVu Sans, sans-serif" font-weight="bold" text-anchor="middle" dominant-baseline="central">95</text></g></g><g><g><rect y="53.05" x="420.5765" width="13" height="13" fill="#5fab9e"/><text y="62.8" x="435.5765" font-size="13" font-family="DejaVu Sans, sans-serif" fill="#2e4756">Frontend</text></g><g><rect y="70.05" x="420.5765" width="13" height="13" fill="#db504a"/><text y="79.8" x="435.5765" font-size="13" font-family="DejaVu Sans, sans-serif" fill="#2e4756">Backend</text></g></g></svg>