<svg xmlns="http://www.w3.org/2000/svg" width="560" height="360" viewBox="0 0 560 360"><path fill="#0f1a20" d="M0 0 h560 v360 h-560 v-360Z"/><text transform="translate(-144.62500000000003, 17)" fill="#c9d4d9" font-family="DejaVu Sans, sans-serif" font-weight="bold" font-size="15" x="280.0" y="9.0">HTTP Response Time Distribution (ms)</text><defs><clipPath id="plot-clip"><rect x="0" y="0" width="481.11" height="265.0674086767531"/></clipPath></defs><g><path stroke="#ffffff14" stroke-dasharray="None" d="M0 0.0 h481.11 M0 53.01348173535062 h481.11 M0 106.02696347070123 h481.11 M0 159.04044520605183 h481.11 M0 212.05392694140247 h481.11 M0 265.0674086767531 h481.11" transform="translate(50.89, 43.5)"/><g font-size="11" font-family="DejaVu Sans, sans-serif" fill="#c9d4d9" transform="translate(44.89, 43.5)"><text x="0" y="0.0" transform="translate(-22.89, 3.5)">200</text><text x="0" y="53.01348173535062" transform="translate(-22.89, 3.5)">160</text><text x="0" y="106.02696347070123" transform="translate(-22.89, 3.5)">120</text><text x="0" y="159.04044520605183" transform="translate(-15.26, 3.5)">80</text><text x="0" y="212.05392694140247" transform="translate(-15.26, 3.5)">40</text><text x="0" y="265.0674086767531" transform="translate(-7.63, 3.5)">0</text></g></g><g><path stroke="#ffffff14" stroke-dasharray="None" d="M0.0 0 v265.0674086767531 M30.069375 0 v265.0674086767531 M60.13875 0 v265.0674086767531 M90.208125 0 v265.0674086767531 M120.2775 0 v265.0674086767531 M150.346875 0 v265.0674086767531 M180.41625 0 v265.0674086767531 M210.485625 0 v265.0674086767531 M240.555 0 v265.0674086767531 M270.624375 0 v265.0674086767531 M300.69375 0 v265.0674086767531 M330.763125 0 v265.0674086767531 M360.8325 0 v265.0674086767531 M390.901875 0 v265.0674086767531 M420.97125 0 v265.0674086767531 M451.04062500000003 0 v265.0674086767531 M481.11 0 v265.0674086767531" transform="translate(50.89, 43.5)"/><g font-size="11" font-family="DejaVu Sans, sans-serif" fill="#c9d4d9" transform="translate(50.89, 61.5)"><text x="0.0" y="265.0674086767531" transform="translate(-6.675, 0) rotate(34.47542896734037, 0.0, 265.0674086767531)">54.4</text><text x="60.13875" y="265.0674086767531" transform="translate(-6.866, 0) rotate(34.47542896734037, 60.13875, 265.0674086767531)">122.7</text><text x="120.2775" y="265.0674086767531" transform="translate(-6.866, 0) rotate(34.47542896734037, 120.2775, 265.0674086767531)">191.0</text><text x="180.41625" y="265.0674086767531" transform="translate(-6.866, 0) rotate(34.47542896734037, 180.41625, 265.0674086767531)">259.4</text><text x="240.555" y="265.0674086767531" transform="translate(-6.866, 0) rotate(34.47542896734037, 240.555, 265.0674086767531)">327.7</text><text x="300.69375" y="265.0674086767531" transform="translate(-6.866, 0) rotate(34.47542896734037, 300.69375, 265.0674086767531)">396.0</text><text x="360.8325" y="265.0674086767531" transform="translate(-6.866, 0) rotate(34.47542896734037, 360.8325, 265.0674086767531)">464.4</text><text x="420.97125" y="265.0674086767531" transform="translate(-6.866, 0) rotate(34.47542896734037, 420.97125, 265.0674086767531)">532.7</text><text x="481.11" y="265.0674086767531" transform="translate(-6.866, 0) rotate(34.47542896734037, 481.11, 265.0674086767531)">601.1</text></g></g><g><rect x="50.89" y="259.5299380715538" width="30.069375" height="49.03747060519932" fill="#5fab9e" fill-opacity="0.7" stroke="#5fab9e" stroke-width="0.5"/><rect x="80.959375" y="67.35606678090778" width="30.069375" height="241.2113418958453" fill="#5fab9e" fill-opacity="0.7" stroke="#5fab9e" stroke-width="0.5"/><rect x="111.02875" y="108.4415151258045" width="30.069374999999994" height="200.12589355094858" fill="#5fab9e" fill-opacity="0.7" stroke="#5fab9e" stroke-width="0.5"/><rect x="141.09812499999998" y="272.7833085053914" width="30.069375000000008" height="35.784100171361665" fill="#5fab9e" fill-opacity="0.7" stroke="#5fab9e" stroke-width="0.5"/><rect x="171.16750000000002" y="300.61538641645046" width="30.069375000000008" height="7.952022260302592" fill="#5fab9e" fill-opacity="0.7" stroke="#5fab9e" stroke-width="0.5"/><rect x="201.236875" y="287.36201598261283" width="30.06937499999998" height="21.205392694140247" fill="#5fab9e" fill-opacity="0.7" stroke="#5fab9e" stroke-width="0.5"/><rect x="231.30624999999998" y="263.50594920170505" width="30.069375000000008" height="45.061459475048025" fill="#5fab9e" fill-opacity="0.7" stroke="#5fab9e" stroke-width="0.5"/><rect x="261.375625" y="282.06066780907776" width="30.069375000000008" height="26.50674086767531" fill="#5fab9e" fill-opacity="0.7" stroke="#5fab9e" stroke-width="0.5"/><rect x="291.445" y="301.94072345983426" width="30.06937499999998" height="6.626685216918827" fill="#5fab9e" fill-opacity="0.7" stroke="#5fab9e" stroke-width="0.5"/><rect x="321.514375" y="304.5913975466018" width="30.069375000000036" height="3.976011130151296" fill="#5fab9e" fill-opacity="0.7" stroke="#5fab9e" stroke-width="0.5"/><rect x="351.58375" y="305.91673458998554" width="30.06937499999998" height="2.650674086767531" fill="#5fab9e" fill-opacity="0.7" stroke="#5fab9e" stroke-width="0.5"/><rect x="381.653125" y="307.24207163336933" width="30.06937499999998" height="1.3253370433837655" fill="#5fab9e" fill-opacity="0.7" stroke="#5fab9e" stroke-width="0.5"/><rect x="411.72249999999997" y="300.61538641645046" width="30.069375000000036" height="7.952022260302592" fill="#5fab9e" fill-opacity="0.7" stroke="#5fab9e" stroke-width="0.5"/><rect x="441.791875" y="300.61538641645046" width="30.06937499999998" height="7.952022260302592" fill="#5fab9e" fill-opacity="0.7" stroke="#5fab9e" stroke-width="0.5"/><rect x="471.86125" y="307.24207163336933" width="30.069375000000036" height="1.3253370433837655" fill="#5fab9e" fill-opacity="0.7" stroke="#5fab9e" stroke-width="0.5"/><rect x="501.930625" y="304.5913975466018" width="30.06937499999998" height="3.976011130151296" fill="#5fab9e" fill-opacity="0.7" stroke="#5fab9e" stroke-width="0.5"/></g><path d="M50.89 43.5 v265.0674086767531 M50.89 308.5674086767531 h481.11" stroke="#999" stroke-width="1.5" fill="none"/></svg>