<svg xmlns="http://www.w3.org/2000/svg" width="580" height="360" viewBox="0 0 580 360"><path fill="#0f1a20" d="M0 0 h580 v360 h-580 v-360Z"/><text transform="translate(-143.06500000000003, 17)" fill="#c9d4d9" font-family="DejaVu Sans, sans-serif" font-weight="bold" font-size="15" x="290.0" y="9.0">Product Launch Timeline: Q3–Q4 2026</text><defs><clipPath id="plot-clip"><rect x="0" y="0" width="450.0" height="298.5"/></clipPath></defs><g><path stroke="#7a9aaa" stroke-dasharray="None" d="M0 21.321428571428573 h450.0 M0 63.96428571428572 h450.0 M0 106.60714285714286 h450.0 M0 149.25000000000003 h450.0 M0 191.89285714285717 h450.0 M0 234.5357142857143 h450.0 M0 277.17857142857144 h450.0" transform="translate(101.00000000000001, 43.5)"/><g font-size="11" font-family="DejaVu Sans, sans-serif" fill="#c9d4d9" transform="translate(95.00000000000001, 43.5)"><text x="0" y="21.321428571428573" dominant-baseline="central" transform="translate(-59.27000000000001, 0)">Discovery</text><text x="0" y="63.96428571428572" dominant-baseline="central" transform="translate(-41.43, 0)">Design</text><text x="0" y="106.60714285714286" dominant-baseline="central" transform="translate(-72.00000000000001, 0)">Engineering</text><text x="0" y="149.25000000000003" dominant-baseline="central" transform="translate(-34.12, 0)">Alpha</text><text x="0" y="191.89285714285717" dominant-baseline="central" transform="translate(-27.67, 0)">Beta</text><text x="0" y="234.5357142857143" dominant-baseline="central" transform="translate(-17.66, 0)">QA</text><text x="0" y="277.17857142857144" dominant-baseline="central" transform="translate(-43.47, 0)">Launch</text></g></g><g><path stroke="#7a9aaa" stroke-dasharray="None" d="M450.0 0 v298.5 M360.0 0 v298.5 M270.0 0 v298.5 M180.0 0 v298.5 M90.0 0 v298.5 M0.0 0 v298.5 M450.0 0 v298.5" transform="translate(101.00000000000001, 43.5)"/><g font-size="11" font-family="DejaVu Sans, sans-serif" fill="#c9d4d9" transform="translate(101.00000000000001, 61.5)"><text x="450.0" y="298.5" transform="translate(-7.63, 0)">15</text><text x="360.0" y="298.5" transform="translate(-7.63, 0)">12</text><text x="270.0" y="298.5" transform="translate(-3.815, 0)">9</text><text x="180.0" y="298.5" transform="translate(-3.815, 0)">6</text><text x="90.0" y="298.5" transform="translate(-3.815, 0)">3</text><text x="0.0" y="298.5" transform="translate(-3.815, 0)">0</text></g></g><g transform="translate(101.00000000000001, 43.5)"><g opacity="0.8"><path d="M0.0 8.5 h90.0 v25.6 h-90.0 v-25.6Z M30.0 51.2 h120.0 v25.6 h-120.0 v-25.6Z M60.0 93.8 h150.0 v25.6 h-150.0 v-25.6Z M120.0 136.5 h150.0 v25.6 h-150.0 v-25.6Z M180.0 179.1 h120.0 v25.6 h-120.0 v-25.6Z M240.0 221.7 h90.0 v25.6 h-90.0 v-25.6Z M270.0 264.4 h90.0 v25.6 h-90.0 v-25.6Z" fill="#5fab9e"/></g><g stroke="#7a9aaa" fill="none" stroke-width="1.4" stroke-dasharray="5,3" stroke-linejoin="round"><path d="M90.00,21.32 H98.00 V63.96 H24.00"/><path d="M150.00,63.96 H158.00 V106.61 H54.00"/><path d="M210.00,106.61 H218.00 V149.25 H114.00"/><path d="M270.00,149.25 H278.00 V191.89 H174.00"/><path d="M300.00,191.89 H308.00 V234.54 H234.00"/><path d="M330.00,234.54 H338.00 V277.18 H264.00"/></g><g stroke="none" fill="#7a9aaa"><path d="M29.00,63.96 L24.00,60.96 L24.00,66.96 Z"/><path d="M59.00,106.61 L54.00,103.61 L54.00,109.61 Z"/><path d="M119.00,149.25 L114.00,146.25 L114.00,152.25 Z"/><path d="M179.00,191.89 L174.00,188.89 L174.00,194.89 Z"/><path d="M239.00,234.54 L234.00,231.54 L234.00,237.54 Z"/><path d="M269.00,277.18 L264.00,274.18 L264.00,280.18 Z"/></g><g stroke="#7a9aaa" stroke-dasharray="4,4" stroke-width="1.5"><path d="M225.0,0 v298.5"/></g><path stroke="#7a9aaa" stroke-dasharray="None" d="M0 298.5 h450.0"/><path stroke="#7a9aaa" stroke-dasharray="None" d="M0 0 h450.0"/><path stroke="#7a9aaa" stroke-dasharray="None" d="M0 0 v298.5"/><path stroke="#7a9aaa" stroke-dasharray="None" d="M450.0 0 v298.5"/></g><path d="M101.00000000000001 43.5 v298.5 M101.00000000000001 342.0 h450.0" stroke="#999" stroke-width="1.5" fill="none"/></svg>