<svg xmlns="http://www.w3.org/2000/svg" width="560" height="360" viewBox="0 0 560 360"><path fill="#ffffff" d="M0 0 h560 v360 h-560 v-360Z"/><text transform="translate(-130.945, 17)" fill="#2e4756" font-family="DejaVu Sans, sans-serif" font-weight="bold" font-size="15" x="280.0" y="9.0">Quarterly Revenue &amp; Gross Margin</text><defs><clipPath id="plot-clip"><rect x="0" y="0" width="488.74" height="284.5"/></clipPath></defs><g><path stroke="#e8edf0" stroke-dasharray="None" d="M0 0.0 h488.74 M0 56.900000000000006 h488.74 M0 113.80000000000001 h488.74 M0 170.7 h488.74 M0 227.60000000000002 h488.74 M0 284.5 h488.74" transform="translate(43.26, 43.5)"/><g font-size="11" font-family="DejaVu Sans, sans-serif" fill="#2e4756" transform="translate(37.26, 43.5)"><text x="0" y="0.0" transform="translate(-15.26, 3.5)">20</text><text x="0" y="56.900000000000006" transform="translate(-15.26, 3.5)">16</text><text x="0" y="113.80000000000001" transform="translate(-15.26, 3.5)">12</text><text x="0" y="170.7" transform="translate(-7.63, 3.5)">8</text><text x="0" y="227.60000000000002" transform="translate(-7.63, 3.5)">4</text><text x="0" y="284.5" transform="translate(-7.63, 3.5)">0</text></g></g><g><path stroke="#e8edf0" stroke-dasharray="None" d="M0.0 0 v284.5 M54.30444444444444 0 v284.5 M108.60888888888888 0 v284.5 M162.91333333333333 0 v284.5 M217.21777777777777 0 v284.5 M271.52222222222224 0 v284.5 M325.82666666666665 0 v284.5 M380.1311111111111 0 v284.5 M434.43555555555554 0 v284.5 M488.74 0 v284.5" transform="translate(43.26, 43.5)"/><g font-size="11" font-family="DejaVu Sans, sans-serif" fill="#2e4756" transform="translate(43.26, 61.5)"><text x="0.0" y="284.5" transform="translate(-1.905, 0)"> </text><text x="54.30444444444444" y="284.5" transform="translate(-19.724999999999998, 0)">Q1 '23</text><text x="108.60888888888888" y="284.5" transform="translate(-19.724999999999998, 0)">Q2 '23</text><text x="162.91333333333333" y="284.5" transform="translate(-19.724999999999998, 0)">Q3 '23</text><text x="217.21777777777777" y="284.5" transform="translate(-19.724999999999998, 0)">Q4 '23</text><text x="271.52222222222224" y="284.5" transform="translate(-19.724999999999998, 0)">Q1 '24</text><text x="325.82666666666665" y="284.5" transform="translate(-19.724999999999998, 0)">Q2 '24</text><text x="380.1311111111111" y="284.5" transform="translate(-19.724999999999998, 0)">Q3 '24</text><text x="434.43555555555554" y="284.5" transform="translate(-19.724999999999998, 0)">Q4 '24</text><text x="488.74" y="284.5" transform="translate(-1.905, 0)"> </text></g></g><g><g opacity="0.8" transform="translate(-28.0, -32) rotate(180, 280.0, 180.0) scale(-1, 1) translate(-488.74, 0)"><path d="M32.6 0 h43.4 v116.6 h-43.4 v-116.6Z M86.9 0 h43.4 v138.0 h-43.4 v-138.0Z M141.2 0 h43.4 v162.2 h-43.4 v-162.2Z M195.5 0 h43.4 v153.6 h-43.4 v-153.6Z M249.8 0 h43.4 v183.5 h-43.4 v-183.5Z M304.1 0 h43.4 v202.0 h-43.4 v-202.0Z M358.4 0 h43.4 v186.3 h-43.4 v-186.3Z M412.7 0 h43.4 v224.8 h-43.4 v-224.8Z" fill="#5fab9e"/></g><g opacity="0.8" transform="translate(-28.0, -32) rotate(180, 280.0, 180.0) scale(-1, 1) translate(-488.74, 0)"><g fill="white" stroke="#db504a" stroke-width="2"><path d="M54.3 197.6 L108.6 214.7 L162.9 228.1 L217.2 221.4 L271.5 239.5 L325.8 252.9 L380.1 236.4 L434.4 264.8" fill="none"/></g></g><g font-size="12" font-family="DejaVu Sans, sans-serif" fill="#2e4756" transform="translate(538.0, 43.5)"><text x="0" y="0.0" transform="translate(0, 3.5)">55</text><text x="0" y="56.900000000000006" transform="translate(0, 3.5)">44</text><text x="0" y="113.80000000000001" transform="translate(0, 3.5)">33</text><text x="0" y="170.7" transform="translate(0, 3.5)">22</text><text x="0" y="227.60000000000002" transform="translate(0, 3.5)">11</text><text x="0" y="284.5" transform="translate(0, 3.5)">0</text></g></g><g><rect transform="translate(-7.6080000000000005, -2.55)" x="418.952" y="50.05" width="116.656" height="39.099999999999994" fill="#f5f5f5" fill-opacity="0.85" stroke="none"/><g><rect y="52.05" x="418.952" width="13" height="13" fill="#5fab9e"/><text y="61.8" x="433.952" font-size="13" font-family="DejaVu Sans, sans-serif" fill="#2e4756">Revenue ()</text></g><g><rect y="69.05" x="418.952" width="13" height="13" fill="#db504a"/><text y="78.8" x="433.952" font-size="13" font-family="DejaVu Sans, sans-serif" fill="#2e4756">Gross Margin %</text></g></g><path d="M43.26 43.5 v284.5 M43.26 328.0 h488.74" stroke="#999" stroke-width="1.5" fill="none"/></svg>