<svg xmlns="http://www.w3.org/2000/svg" width="560" height="360" viewBox="0 0 560 360"><path fill="#ffffff" d="M0 0 h560 v360 h-560 v-360Z"/><text transform="translate(-113.805, 17)" fill="#2e4756" font-family="DejaVu Sans, sans-serif" font-weight="bold" font-size="15" x="280.0" y="9.0">Quarterly Sales by Segment ()</text><defs><clipPath id="plot-clip"><rect x="0" y="0" width="488.74" height="284.5"/></clipPath></defs><g><path stroke="#e8edf0" stroke-dasharray="None" d="M0 0.0 h488.74 M0 56.900000000000006 h488.74 M0 113.80000000000001 h488.74 M0 170.7 h488.74 M0 227.60000000000002 h488.74 M0 284.5 h488.74" transform="translate(43.26, 43.5)"/><g font-size="11" font-family="DejaVu Sans, sans-serif" fill="#2e4756" transform="translate(37.26, 43.5)"><text x="0" y="0.0" transform="translate(-15.26, 3.5)">45</text><text x="0" y="56.900000000000006" transform="translate(-15.26, 3.5)">36</text><text x="0" y="113.80000000000001" transform="translate(-15.26, 3.5)">27</text><text x="0" y="170.7" transform="translate(-15.26, 3.5)">18</text><text x="0" y="227.60000000000002" transform="translate(-7.63, 3.5)">9</text><text x="0" y="284.5" transform="translate(-7.63, 3.5)">0</text></g></g><g><path stroke="#e8edf0" stroke-dasharray="None" d="M0.0 0 v284.5 M97.748 0 v284.5 M195.496 0 v284.5 M293.24399999999997 0 v284.5 M390.992 0 v284.5 M488.74 0 v284.5" transform="translate(43.26, 43.5)"/><g font-size="11" font-family="DejaVu Sans, sans-serif" fill="#2e4756" transform="translate(43.26, 61.5)"><text x="0.0" y="284.5" transform="translate(-1.905, 0)"> </text><text x="97.748" y="284.5" transform="translate(-8.54, 0)">Q1</text><text x="195.496" y="284.5" transform="translate(-8.54, 0)">Q2</text><text x="293.24399999999997" y="284.5" transform="translate(-8.54, 0)">Q3</text><text x="390.992" y="284.5" transform="translate(-8.54, 0)">Q4</text><text x="488.74" y="284.5" transform="translate(-1.905, 0)"> </text></g></g><g opacity="0.8" transform="translate(-28.0, -32) rotate(180, 280.0, 180.0) scale(-1, 1) translate(-488.74, 0) translate(-37.59538461538462, 0)"><path d="M97.7 0.0 h75.2 v78.4 h-75.2 v-78.4Z M195.5 0.0 h75.2 v99.9 h-75.2 v-99.9Z M293.2 0.0 h75.2 v115.1 h-75.2 v-115.1Z M391.0 0.0 h75.2 v133.4 h-75.2 v-133.4Z" fill="#5fab9e"/><path d="M97.7 78.4 h75.2 v55.0 h-75.2 v-55.0Z M195.5 99.9 h75.2 v64.5 h-75.2 v-64.5Z M293.2 115.1 h75.2 v75.2 h-75.2 v-75.2Z M391.0 133.4 h75.2 v90.4 h-75.2 v-90.4Z" fill="#db504a"/><path d="M97.7 133.4 h75.2 v25.9 h-75.2 v-25.9Z M195.5 164.4 h75.2 v35.4 h-75.2 v-35.4Z M293.2 190.3 h75.2 v45.5 h-75.2 v-45.5Z M391.0 223.8 h75.2 v55.6 h-75.2 v-55.6Z" fill="#f7dd72"/></g><g><rect transform="translate(-5.7525, -3.8249999999999997)" x="445.5475" y="51.325" width="88.205" height="58.65" fill="#f5f5f5" fill-opacity="0.85" stroke="none"/><g><rect y="53.325" x="445.5475" width="13" height="13" fill="#5fab9e"/><text y="63.075" x="460.5475" font-size="13" font-family="DejaVu Sans, sans-serif" fill="#2e4756">Enterprise</text></g><g><rect y="70.325" x="445.5475" width="13" height="13" fill="#db504a"/><text y="80.075" x="460.5475" font-size="13" font-family="DejaVu Sans, sans-serif" fill="#2e4756">Mid-Market</text></g><g><rect y="87.325" x="445.5475" width="13" height="13" fill="#f7dd72"/><text y="97.075" x="460.5475" font-size="13" font-family="DejaVu Sans, sans-serif" fill="#2e4756">SMB</text></g></g><path d="M43.26 43.5 v284.5 M43.26 328.0 h488.74" stroke="#999" stroke-width="1.5" fill="none"/></svg>