<svg xmlns="http://www.w3.org/2000/svg" width="560" height="360" viewBox="0 0 560 360"><path fill="#0f1a20" d="M0 0 h560 v360 h-560 v-360Z"/><text transform="translate(-183.44000000000003, 17)" fill="#c9d4d9" font-family="DejaVu Sans, sans-serif" font-weight="bold" font-size="15" x="280.0" y="9.0">Market Segments: Size vs Growth vs Penetration</text><defs><clipPath id="plot-clip"><rect x="0" y="0" width="488.74" height="284.5"/></clipPath></defs><g><path stroke="#ffffff14" stroke-dasharray="None" d="M0 0.0 h488.74 M0 59.7 h488.74 M0 119.4 h488.74 M0 179.1 h488.74 M0 238.8 h488.74 M0 298.5 h488.74" transform="translate(43.26, 43.5)"/><g font-size="11" font-family="DejaVu Sans, sans-serif" fill="#c9d4d9" transform="translate(37.26, 43.5)"><text x="0" y="0.0" transform="translate(-15.26, 3.5)">55</text><text x="0" y="59.7" transform="translate(-15.26, 3.5)">44</text><text x="0" y="119.4" transform="translate(-15.26, 3.5)">33</text><text x="0" y="179.1" transform="translate(-15.26, 3.5)">22</text><text x="0" y="238.8" transform="translate(-15.26, 3.5)">11</text><text x="0" y="298.5" transform="translate(-7.63, 3.5)">0</text></g></g><g><path stroke="#ffffff14" stroke-dasharray="None" d="M488.74 0 v298.5 M390.992 0 v298.5 M293.24399999999997 0 v298.5 M195.496 0 v298.5 M97.748 0 v298.5 M0.0 0 v298.5 M488.74 0 v298.5" transform="translate(43.26, 43.5)"/><g font-size="11" font-family="DejaVu Sans, sans-serif" fill="#c9d4d9" transform="translate(43.26, 61.5)"><text x="488.74" y="298.5" transform="translate(-7.63, 0)">80</text><text x="390.992" y="298.5" transform="translate(-7.63, 0)">64</text><text x="293.24399999999997" y="298.5" transform="translate(-7.63, 0)">48</text><text x="195.496" y="298.5" transform="translate(-7.63, 0)">32</text><text x="97.748" y="298.5" transform="translate(-7.63, 0)">16</text><text x="0.0" y="298.5" transform="translate(-3.815, 0)">0</text></g></g><g><g opacity="0.8" transform="translate(-28.0, -32) rotate(180, 280.0, 180.0) scale(-1, 1) translate(-488.74, 0)" clip-path="url(#plot-clip)"><g fill="#5fab9e"><circle cx="73.31099999999999" cy="93.10909090909091" r="5.016949152542373"/><circle cx="171.059" cy="165.52727272727273" r="10.440677966101696"/><circle cx="274.91625" cy="41.38181818181818" r="16.203389830508478"/><circle cx="109.96650000000001" cy="232.77272727272728" r="4.0"/><circle cx="439.86600000000004" cy="62.07272727272727" r="24.0"/><circle cx="213.82375000000002" cy="144.83636363636361" r="8.067796610169491"/><circle cx="354.3365" cy="113.80000000000001" r="13.830508474576272"/><circle cx="134.4035" cy="196.56363636363636" r="6.033898305084746"/></g></g></g><g><rect transform="translate(-5.26725, -1.275)" x="452.50275" y="48.775" width="80.7645" height="19.549999999999997" fill="#232e34" fill-opacity="0.85" stroke="none"/><g><rect y="50.775" x="452.50275" width="13" height="13" fill="#5fab9e"/><text y="60.525" x="467.50275" font-size="13" font-family="DejaVu Sans, sans-serif" fill="#c9d4d9">Segments</text></g></g><path d="M43.26 43.5 v284.5 M43.26 328.0 h488.74" stroke="#999" stroke-width="1.5" fill="none"/></svg>