<svg xmlns="http://www.w3.org/2000/svg" width="560" height="360" viewBox="0 0 560 360"><path fill="#ffffff" d="M0 0 h560 v360 h-560 v-360Z"/><text transform="translate(-156.26000000000002, 17)" fill="#2e4756" font-family="DejaVu Sans, sans-serif" font-weight="bold" font-size="15" x="280.0" y="9.0">Daily Web Traffic by Channel (K sessions)</text><defs><clipPath id="plot-clip"><rect x="0" y="0" width="488.74" height="284.5"/></clipPath></defs><g><path stroke="#e8edf0" stroke-dasharray="None" d="M0 0.0 h488.74 M0 56.900000000000006 h488.74 M0 113.80000000000001 h488.74 M0 170.7 h488.74 M0 227.60000000000002 h488.74 M0 284.5 h488.74" transform="translate(43.26, 43.5)"/><g font-size="11" font-family="DejaVu Sans, sans-serif" fill="#2e4756" transform="translate(37.26, 43.5)"><text x="0" y="0.0" transform="translate(-15.26, 3.5)">60</text><text x="0" y="56.900000000000006" transform="translate(-15.26, 3.5)">48</text><text x="0" y="113.80000000000001" transform="translate(-15.26, 3.5)">36</text><text x="0" y="170.7" transform="translate(-15.26, 3.5)">24</text><text x="0" y="227.60000000000002" transform="translate(-15.26, 3.5)">12</text><text x="0" y="284.5" transform="translate(-7.63, 3.5)">0</text></g></g><g><path stroke="#e8edf0" stroke-dasharray="None" d="M0.0 0 v284.5 M44.43090909090909 0 v284.5 M88.86181818181818 0 v284.5 M133.29272727272726 0 v284.5 M177.72363636363636 0 v284.5 M222.15454545454546 0 v284.5 M266.5854545454545 0 v284.5 M311.0163636363636 0 v284.5 M355.4472727272727 0 v284.5 M399.8781818181819 0 v284.5 M444.3090909090909 0 v284.5 M488.74 0 v284.5" transform="translate(43.26, 43.5)"/><g font-size="11" font-family="DejaVu Sans, sans-serif" fill="#2e4756" transform="translate(43.26, 61.5)"><text x="0.0" y="284.5" transform="translate(-9.25, 0)">Jan</text><text x="44.43090909090909" y="284.5" transform="translate(-10.950000000000001, 0)">Feb</text><text x="88.86181818181818" y="284.5" transform="translate(-11.315, 0)">Mar</text><text x="133.29272727272726" y="284.5" transform="translate(-10.38, 0)">Apr</text><text x="177.72363636363636" y="284.5" transform="translate(-12.399999999999999, 0)">May</text><text x="222.15454545454546" y="284.5" transform="translate(-9.38, 0)">Jun</text><text x="266.5854545454545" y="284.5" transform="translate(-7.24, 0)">Jul</text><text x="311.0163636363636" y="284.5" transform="translate(-11.72, 0)">Aug</text><text x="355.4472727272727" y="284.5" transform="translate(-11.31, 0)">Sep</text><text x="399.8781818181819" y="284.5" transform="translate(-10.379999999999999, 0)">Oct</text><text x="444.3090909090909" y="284.5" transform="translate(-11.71, 0)">Nov</text><text x="488.74" y="284.5" transform="translate(-11.61, 0)">Dec</text></g></g><g><path d="M43.26 242.65 L87.69090909090909 223.68333333333334 L132.12181818181818 237.90833333333333 L176.55272727272725 204.71666666666667 L220.98363636363635 181.00833333333333 L265.4145454545455 195.23333333333332 L309.8454545454545 214.2 L354.2763636363636 190.49166666666667 L398.7072727272727 162.04166666666666 L443.13818181818186 176.26666666666668 L487.5690909090909 199.975 L532.0 171.52499999999998 L532.0 328.0 L487.5690909090909 328.0 L443.13818181818186 328.0 L398.7072727272727 328.0 L354.2763636363636 328.0 L309.8454545454545 328.0 L265.4145454545455 328.0 L220.98363636363635 328.0 L176.55272727272725 328.0 L132.12181818181818 328.0 L87.69090909090909 328.0 L43.26 328.0 z" fill="#5fab9e" fill-opacity="0.82" stroke="#5fab9e" stroke-width="1.5"/><path d="M43.26 204.71666666666667 L87.69090909090909 176.26666666666668 L132.12181818181818 195.23333333333335 L176.55272727272725 147.81666666666666 L220.98363636363635 114.625 L265.4145454545455 133.59166666666664 L309.8454545454545 162.04166666666666 L354.2763636363636 128.85000000000002 L398.7072727272727 86.17500000000001 L443.13818181818186 105.14166666666668 L487.5690909090909 143.075 L532.0 105.14166666666665 L532.0 171.52499999999998 L487.5690909090909 199.975 L443.13818181818186 176.26666666666668 L398.7072727272727 162.04166666666666 L354.2763636363636 190.49166666666667 L309.8454545454545 214.2 L265.4145454545455 195.23333333333332 L220.98363636363635 181.00833333333333 L176.55272727272725 204.71666666666667 L132.12181818181818 237.90833333333333 L87.69090909090909 223.68333333333334 L43.26 242.65 z" fill="#db504a" fill-opacity="0.82" stroke="#db504a" stroke-width="1.5"/><path d="M43.26 185.75 L87.69090909090909 152.55833333333334 L132.12181818181818 176.26666666666665 L176.55272727272725 119.36666666666667 L220.98363636363635 81.43333333333334 L265.4145454545455 100.4 L309.8454545454545 133.59166666666664 L354.2763636363636 95.65833333333336 L398.7072727272727 48.241666666666674 L443.13818181818186 67.20833333333337 L487.5690909090909 114.625 L532.0 71.94999999999999 L532.0 105.14166666666668 L487.5690909090909 143.075 L443.13818181818186 105.14166666666668 L398.7072727272727 86.17500000000001 L354.2763636363636 128.85000000000002 L309.8454545454545 162.04166666666666 L265.4145454545455 133.59166666666667 L220.98363636363635 114.625 L176.55272727272725 147.81666666666666 L132.12181818181818 195.23333333333332 L87.69090909090909 176.26666666666668 L43.26 204.71666666666667 z" fill="#f7dd72" fill-opacity="0.82" stroke="#f7dd72" stroke-width="1.5"/></g><g><rect transform="translate(-4.41675, -3.8249999999999997)" x="464.69325" y="51.325" width="67.7235" height="58.65" fill="#f5f5f5" fill-opacity="0.85" stroke="none"/><g><rect y="53.325" x="464.69325" width="13" height="13" fill="#5fab9e"/><text y="63.075" x="479.69325" font-size="13" font-family="DejaVu Sans, sans-serif" fill="#2e4756">Organic</text></g><g><rect y="70.325" x="464.69325" width="13" height="13" fill="#db504a"/><text y="80.075" x="479.69325" font-size="13" font-family="DejaVu Sans, sans-serif" fill="#2e4756">Paid</text></g><g><rect y="87.325" x="464.69325" width="13" height="13" fill="#f7dd72"/><text y="97.075" x="479.69325" font-size="13" font-family="DejaVu Sans, sans-serif" fill="#2e4756">Referral</text></g></g><path d="M43.26 43.5 v284.5 M43.26 328.0 h488.74" stroke="#999" stroke-width="1.5" fill="none"/></svg>