<svg xmlns="http://www.w3.org/2000/svg" width="560" height="360" viewBox="0 0 560 360"><path fill="#0f1a20" d="M0 0 h560 v360 h-560 v-360Z"/><text transform="translate(-165.26000000000002, 17)" fill="#c9d4d9" font-family="DejaVu Sans, sans-serif" font-weight="bold" font-size="15" x="280.0" y="9.0">Deployment Duration by Environment (min)</text><defs><clipPath id="plot-clip"><rect x="0" y="0" width="488.74" height="284.5"/></clipPath></defs><g><path stroke="#ffffff14" stroke-dasharray="None" d="M0 0.0 h488.74 M0 56.900000000000006 h488.74 M0 113.80000000000001 h488.74 M0 170.7 h488.74 M0 227.60000000000002 h488.74 M0 284.5 h488.74" transform="translate(43.26, 43.5)"/><g font-size="11" font-family="DejaVu Sans, sans-serif" fill="#c9d4d9" transform="translate(37.26, 43.5)"><text x="0" y="0.0" transform="translate(-15.26, 3.5)">15</text><text x="0" y="56.900000000000006" transform="translate(-15.26, 3.5)">12</text><text x="0" y="113.80000000000001" transform="translate(-7.63, 3.5)">9</text><text x="0" y="170.7" transform="translate(-7.63, 3.5)">6</text><text x="0" y="227.60000000000002" transform="translate(-7.63, 3.5)">3</text><text x="0" y="284.5" transform="translate(-7.63, 3.5)">0</text></g></g><g><path stroke="#ffffff14" stroke-dasharray="None" d="M0.0 0 v284.5 M122.185 0 v284.5 M244.37 0 v284.5 M366.555 0 v284.5 M488.74 0 v284.5" transform="translate(43.26, 43.5)"/><g font-size="11" font-family="DejaVu Sans, sans-serif" fill="#c9d4d9" transform="translate(43.26, 61.5)"><text x="0.0" y="284.5" transform="translate(-1.905, 0)"> </text><text x="122.185" y="284.5" transform="translate(-32.165, 0)">Production</text><text x="244.37" y="284.5" transform="translate(-22.93, 0)">Staging</text><text x="366.555" y="284.5" transform="translate(-40.38999999999999, 0)">Development</text><text x="488.74" y="284.5" transform="translate(-1.905, 0)"> </text></g></g><g><path d="M165.445 269.2033333333333 L165.445 85.22666666666666" stroke="#5fab9e" stroke-width="1.5"/><path d="M136.1206 269.2033333333333 L194.7694 269.2033333333333" stroke="#5fab9e" stroke-width="1.5"/><path d="M136.1206 85.22666666666666 L194.7694 85.22666666666666" stroke="#5fab9e" stroke-width="1.5"/><rect x="116.571" y="196.18166666666667" width="97.74799999999999" height="-55.95166666666668" fill="#5fab9e" fill-opacity="0.3" stroke="#5fab9e" stroke-width="1.5"/><path d="M116.571 168.67999999999998 L214.319 168.67999999999998" stroke="#5fab9e" stroke-width="2"/><path d="M287.63 288.17 L287.63 176.26666666666668" stroke="#db504a" stroke-width="1.5"/><path d="M258.3056 288.17 L316.95439999999996 288.17" stroke="#db504a" stroke-width="1.5"/><path d="M258.3056 176.26666666666668 L316.95439999999996 176.26666666666668" stroke="#db504a" stroke-width="1.5"/><rect x="238.756" y="264.4616666666667" width="97.74799999999999" height="-27.501666666666722" fill="#db504a" fill-opacity="0.3" stroke="#db504a" stroke-width="1.5"/><path d="M238.756 252.13333333333333 L336.504 252.13333333333333" stroke="#db504a" stroke-width="2"/><path d="M409.815 322.31 L409.815 250.23666666666668" stroke="#f7dd72" stroke-width="1.5"/><path d="M380.4906 322.31 L439.1394 322.31" stroke="#f7dd72" stroke-width="1.5"/><path d="M380.4906 250.23666666666668 L439.1394 250.23666666666668" stroke="#f7dd72" stroke-width="1.5"/><rect x="360.94100000000003" y="299.55" width="97.74799999999999" height="-25.605000000000018" fill="#f7dd72" fill-opacity="0.3" stroke="#f7dd72" stroke-width="1.5"/><path d="M360.94100000000003 288.17 L458.68899999999996 288.17" stroke="#f7dd72" stroke-width="2"/></g><path d="M43.26 43.5 v284.5 M43.26 328.0 h488.74" stroke="#999" stroke-width="1.5" fill="none"/></svg>