<svg xmlns="http://www.w3.org/2000/svg" width="520" height="380" viewBox="0 0 520 380"><path fill="#ffffff" d="M0 0 h520 v380 h-520 v-380Z"/><text transform="translate(-92.61499999999997, 17)" fill="#2e4756" font-family="DejaVu Sans, sans-serif" font-weight="bold" font-size="15" x="260.0" y="9.5">Cloud Spend by Provider</text><defs><clipPath id="plot-clip"><rect x="0" y="0" width="400.21" height="316.5"/></clipPath></defs><g><g><rect x="118.0" y="356.0" width="11.0" height="11.0" fill="#5fab9e"/><text x="135.0" y="365.35" fill="#2e4756" font-size="11.0" font-family="DejaVu Sans, sans-serif" text-anchor="start">AWS</text><rect x="166.0" y="356.0" width="11.0" height="11.0" fill="#db504a"/><text x="183.0" y="365.35" fill="#2e4756" font-size="11.0" font-family="DejaVu Sans, sans-serif" text-anchor="start">GCP</text><rect x="214.0" y="356.0" width="11.0" height="11.0" fill="#f7dd72"/><text x="231.0" y="365.35" fill="#2e4756" font-size="11.0" font-family="DejaVu Sans, sans-serif" text-anchor="start">Azure</text><rect x="272.0" y="356.0" width="11.0" height="11.0" fill="#f58b51"/><text x="289.0" y="365.35" fill="#2e4756" font-size="11.0" font-family="DejaVu Sans, sans-serif" text-anchor="start">Self-hosted</text><rect x="360.0" y="356.0" width="11.0" height="11.0" fill="#2e4756"/><text x="377.0" y="365.35" fill="#2e4756" font-size="11.0" font-family="DejaVu Sans, sans-serif" text-anchor="start">Other</text></g><path d="M 260.0 171.5 L 260.0 34.29999999999998 A 137.20000000000002 137.20000000000002 0 0 1 310.5066886283378 299.0653338638681 Z" fill="#5fab9e" opacity="0.8"/><path d="M 260.0 171.5 L 310.5066886283378 299.0653338638681 A 137.20000000000002 137.20000000000002 0 0 1 122.79999999999998 171.50000000000003 Z" fill="#db504a" opacity="0.8"/><path d="M 260.0 171.5 L 122.79999999999998 171.50000000000003 A 137.20000000000002 137.20000000000002 0 0 1 172.54542860647967 65.78558309116177 Z" fill="#f7dd72" opacity="0.8"/><path d="M 260.0 171.5 L 172.54542860647967 65.78558309116177 A 137.20000000000002 137.20000000000002 0 0 1 234.2912836388386 36.73018920002389 Z" fill="#f58b51" opacity="0.8"/><path d="M 260.0 171.5 L 234.2912836388386 36.73018920002389 A 137.20000000000002 137.20000000000002 0 0 1 260.0 34.29999999999998 Z" fill="#2e4756" opacity="0.8"/></g></svg>