<svg xmlns="http://www.w3.org/2000/svg" width="520" height="380" viewBox="0 0 520 380"><path fill="#0f1a20" d="M0 0 h520 v380 h-520 v-380Z"/><text transform="translate(-84.59999999999998, 17)" fill="#c9d4d9" font-family="DejaVu Sans, sans-serif" font-weight="bold" font-size="15" x="260.0" y="9.5">NPS Score Distribution</text><defs><clipPath id="plot-clip"><rect x="0" y="0" width="452.74" height="303.5"/></clipPath></defs><g><circle cx="260.0" cy="196.25" r="24.28" fill="none" stroke="#ffffff14" stroke-width="1"/><circle cx="260.0" cy="196.25" r="48.56" fill="none" stroke="#ffffff14" stroke-width="1"/><circle cx="260.0" cy="196.25" r="72.84" fill="none" stroke="#ffffff14" stroke-width="1"/><circle cx="260.0" cy="196.25" r="97.12" fill="none" stroke="#ffffff14" stroke-width="1"/><circle cx="260.0" cy="196.25" r="121.4" fill="none" stroke="#ffffff14" stroke-width="1"/><path d="M 260.0 196.25 L 260.0 145.262 A 50.988 50.988 0 0 1 287.56619400042604 153.35616486800373 Z" fill="#bf4242" opacity="0.8"/><text x="274.36497960823084" y="147.327372261344" fill="#c9d4d9" font-size="14" font-family="DejaVu Sans, sans-serif" text-anchor="middle" dominant-baseline="middle">0</text><path d="M 260.0 196.25 L 278.3774626669507 167.6541099120025 A 33.992000000000004 33.992000000000004 0 0 1 290.9202107860908 182.12921287803988 Z" fill="#3665d8" opacity="0.8"/><text x="298.53415929717494" y="162.8599608975978" fill="#c9d4d9" font-size="14" font-family="DejaVu Sans, sans-serif" text-anchor="middle" dominant-baseline="middle">1</text><path d="M 260.0 196.25 L 279.87727836248695 187.17235113588276 A 21.852 21.852 0 0 1 281.62957814798216 199.35986384594784 Z" fill="#7bbf1c" opacity="0.8"/><text x="310.469015678625" y="188.99365102612174" fill="#c9d4d9" font-size="14" font-family="DejaVu Sans, sans-serif" text-anchor="middle" dominant-baseline="middle">2</text><path d="M 260.0 196.25 L 298.45258337419045 201.7786468372406 A 38.848000000000006 38.848000000000006 0 0 1 289.3593594645142 221.69002979230643 Z" fill="#d84bc7" opacity="0.8"/><text x="306.3803161791362" y="217.43118068294018" fill="#c9d4d9" font-size="14" font-family="DejaVu Sans, sans-serif" text-anchor="middle" dominant-baseline="middle">3</text><path d="M 260.0 196.25 L 310.46139907963385 239.97505120552668 A 66.77000000000001 66.77000000000001 0 0 1 278.81128282030227 260.31534584824 Z" fill="#2fbfa7" opacity="0.8"/><text x="287.56619400042604" y="239.14383513199624" fill="#c9d4d9" font-size="14" font-family="DejaVu Sans, sans-serif" text-anchor="middle" dominant-baseline="middle">4</text><path d="M 260.0 196.25 L 280.86342276433527 267.304292668048 A 74.054 74.054 0 0 1 239.13657723566476 267.304292668048 Z" fill="#d88420" opacity="0.8"/><text x="260.0" y="247.238" fill="#c9d4d9" font-size="14" font-family="DejaVu Sans, sans-serif" text-anchor="middle" dominant-baseline="middle">5</text><path d="M 260.0 196.25 L 243.2408571237307 253.32639902843198 A 59.486000000000004 59.486000000000004 0 0 1 215.0434808199626 235.20504561946925 Z" fill="#6142bf" opacity="0.8"/><text x="232.43380599957396" y="239.14383513199624" fill="#c9d4d9" font-size="14" font-family="DejaVu Sans, sans-serif" text-anchor="middle" dominant-baseline="middle">6</text><path d="M 260.0 196.25 L 225.13576063588937 226.4600353783639 A 46.132000000000005 46.132000000000005 0 0 1 214.3375572431488 202.8152681192232 Z" fill="#3dd836" opacity="0.8"/><text x="213.61968382086383" y="217.4311806829402" fill="#c9d4d9" font-size="14" font-family="DejaVu Sans, sans-serif" text-anchor="middle" dominant-baseline="middle">7</text><path d="M 260.0 196.25 L 173.48168740807142 208.6894553837913 A 87.408 87.408 0 0 1 180.49088655005227 159.9394045435311 Z" fill="#bf1c53" opacity="0.8"/><text x="208.08901244484287" y="188.7863267697252" fill="#ffffff" font-size="14" font-family="DejaVu Sans, sans-serif" text-anchor="middle" dominant-baseline="middle">8</text><path d="M 260.0 196.25 L 167.23936764172765 153.88763863411964 A 101.976 101.976 0 0 1 204.86761199914793 110.46232973600752 Z" fill="#4ba4d8" opacity="0.8"/><text x="213.75900884339006" y="156.18195307711738" fill="#000000" font-size="14" font-family="DejaVu Sans, sans-serif" text-anchor="middle" dominant-baseline="middle">9</text><path d="M 260.0 196.25 L 200.27324633241022 103.31335721400814 A 110.474 110.474 0 0 1 260.0 85.776 Z" fill="#b3bf2f" opacity="0.8"/><text x="241.32552650929995" y="132.6505839397472" fill="#000000" font-size="14" font-family="DejaVu Sans, sans-serif" text-anchor="middle" dominant-baseline="middle">10</text><rect x="260.0" y="156.97" width="23.36" height="18" rx="2" fill="#c9d4d9" fill-opacity="1"/><text x="271.68" y="165.97" fill="#0f1a20" font-size="14" font-family="DejaVu Sans, sans-serif" font-weight="bold" text-anchor="middle" dominant-baseline="central">20</text><rect x="260.0" y="132.69" width="23.36" height="18" rx="2" fill="#c9d4d9" fill-opacity="1"/><text x="271.68" y="141.69" fill="#0f1a20" font-size="14" font-family="DejaVu Sans, sans-serif" font-weight="bold" text-anchor="middle" dominant-baseline="central">40</text><rect x="260.0" y="108.41" width="23.36" height="18" rx="2" fill="#c9d4d9" fill-opacity="1"/><text x="271.68" y="117.41" fill="#0f1a20" font-size="14" font-family="DejaVu Sans, sans-serif" font-weight="bold" text-anchor="middle" dominant-baseline="central">60</text><rect x="260.0" y="84.13" width="23.36" height="18" rx="2" fill="#c9d4d9" fill-opacity="1"/><text x="271.68" y="93.13" fill="#0f1a20" font-size="14" font-family="DejaVu Sans, sans-serif" font-weight="bold" text-anchor="middle" dominant-baseline="central">80</text><rect x="260.0" y="59.849999999999994" width="32.04" height="18" rx="2" fill="#c9d4d9" fill-opacity="1"/><text x="276.02" y="68.85" fill="#0f1a20" font-size="14" font-family="DejaVu Sans, sans-serif" font-weight="bold" text-anchor="middle" dominant-baseline="central">100</text></g></svg>