<svg xmlns="http://www.w3.org/2000/svg" width="580" height="360" viewBox="0 0 580 360"><path fill="#0f1a20" d="M0 0 h580 v360 h-580 v-360Z"/><text transform="translate(-125.41, 17)" fill="#c9d4d9" font-family="DejaVu Sans, sans-serif" font-weight="bold" font-size="15" x="290.0" y="9.0">API Error Rate (%) by Day &amp; Hour</text><g transform="translate(67.47, 43.5)"><path fill="#2a4c56" stroke="#ffffff14" stroke-width="0.25" d="M0.7 0.8 h32.5 v40.0 h-32.5 v-40.0Z"/><text x="16.93875" y="20.833259387860295" fill="#ffffff" font-family="DejaVu Sans, sans-serif" font-size="11" text-anchor="middle" dominant-baseline="central">0.31</text><path fill="#24424e" stroke="#ffffff14" stroke-width="0.25" d="M34.6 0.8 h32.5 v40.0 h-32.5 v-40.0Z"/><text x="50.81625" y="20.833259387860295" fill="#ffffff" font-family="DejaVu Sans, sans-serif" font-size="11" text-anchor="middle" dominant-baseline="central">0.23</text><path fill="#23414d" stroke="#ffffff14" stroke-width="0.25" d="M68.4 0.8 h32.5 v40.0 h-32.5 v-40.0Z"/><text x="84.69375" y="20.833259387860295" fill="#ffffff" font-family="DejaVu Sans, sans-serif" font-size="11" text-anchor="middle" dominant-baseline="central">0.22</text><path fill="#254450" stroke="#ffffff14" stroke-width="0.25" d="M102.3 0.8 h32.5 v40.0 h-32.5 v-40.0Z"/><text x="118.57124999999999" y="20.833259387860295" fill="#ffffff" font-family="DejaVu Sans, sans-serif" font-size="11" text-anchor="middle" dominant-baseline="central">0.25</text><path fill="#345f64" stroke="#ffffff14" stroke-width="0.25" d="M136.2 0.8 h32.5 v40.0 h-32.5 v-40.0Z"/><text x="152.44875" y="20.833259387860295" fill="#ffffff" font-family="DejaVu Sans, sans-serif" font-size="11" text-anchor="middle" dominant-baseline="central">0.45</text><path fill="#254450" stroke="#ffffff14" stroke-width="0.25" d="M170.1 0.8 h32.5 v40.0 h-32.5 v-40.0Z"/><text x="186.32625" y="20.833259387860295" fill="#ffffff" font-family="DejaVu Sans, sans-serif" font-size="11" text-anchor="middle" dominant-baseline="central">0.25</text><path fill="#294b55" stroke="#ffffff14" stroke-width="0.25" d="M203.9 0.8 h32.5 v40.0 h-32.5 v-40.0Z"/><text x="220.20374999999999" y="20.833259387860295" fill="#ffffff" font-family="DejaVu Sans, sans-serif" font-size="11" text-anchor="middle" dominant-baseline="central">0.30</text><path fill="#569c93" stroke="#ffffff14" stroke-width="0.25" d="M237.8 0.8 h32.5 v40.0 h-32.5 v-40.0Z"/><text x="254.08124999999998" y="20.833259387860295" fill="#000000" font-family="DejaVu Sans, sans-serif" font-size="11" text-anchor="middle" dominant-baseline="central">0.92</text><path fill="#53968e" stroke="#ffffff14" stroke-width="0.25" d="M271.7 0.8 h32.5 v40.0 h-32.5 v-40.0Z"/><text x="287.95874999999995" y="20.833259387860295" fill="#000000" font-family="DejaVu Sans, sans-serif" font-size="11" text-anchor="middle" dominant-baseline="central">0.87</text><path fill="#5fab9e" stroke="#ffffff14" stroke-width="0.25" d="M305.6 0.8 h32.5 v40.0 h-32.5 v-40.0Z"/><text x="321.83624999999995" y="20.833259387860295" fill="#000000" font-family="DejaVu Sans, sans-serif" font-size="11" text-anchor="middle" dominant-baseline="central">1.03</text><path fill="#51938c" stroke="#ffffff14" stroke-width="0.25" d="M339.5 0.8 h32.5 v40.0 h-32.5 v-40.0Z"/><text x="355.71374999999995" y="20.833259387860295" fill="#000000" font-family="DejaVu Sans, sans-serif" font-size="11" text-anchor="middle" dominant-baseline="central">0.85</text><path fill="#2a4e57" stroke="#ffffff14" stroke-width="0.25" d="M373.3 0.8 h32.5 v40.0 h-32.5 v-40.0Z"/><text x="389.59124999999995" y="20.833259387860295" fill="#ffffff" font-family="DejaVu Sans, sans-serif" font-size="11" text-anchor="middle" dominant-baseline="central">0.32</text><path fill="#30585f" stroke="#ffffff14" stroke-width="0.25" d="M0.7 42.5 h32.5 v40.0 h-32.5 v-40.0Z"/><text x="16.93875" y="62.499778163580885" fill="#ffffff" font-family="DejaVu Sans, sans-serif" font-size="11" text-anchor="middle" dominant-baseline="central">0.40</text><path fill="#25434f" stroke="#ffffff14" stroke-width="0.25" d="M34.6 42.5 h32.5 v40.0 h-32.5 v-40.0Z"/><text x="50.81625" y="62.499778163580885" fill="#ffffff" font-family="DejaVu Sans, sans-serif" font-size="11" text-anchor="middle" dominant-baseline="central">0.24</text><path fill="#38666a" stroke="#ffffff14" stroke-width="0.25" d="M68.4 42.5 h32.5 v40.0 h-32.5 v-40.0Z"/><text x="84.69375" y="62.499778163580885" fill="#ffffff" font-family="DejaVu Sans, sans-serif" font-size="11" text-anchor="middle" dominant-baseline="central">0.51</text><path fill="#294b55" stroke="#ffffff14" stroke-width="0.25" d="M102.3 42.5 h32.5 v40.0 h-32.5 v-40.0Z"/><text x="118.57124999999999" y="62.499778163580885" fill="#ffffff" font-family="DejaVu Sans, sans-serif" font-size="11" text-anchor="middle" dominant-baseline="central">0.30</text><path fill="#2a4c56" stroke="#ffffff14" stroke-width="0.25" d="M136.2 42.5 h32.5 v40.0 h-32.5 v-40.0Z"/><text x="152.44875" y="62.499778163580885" fill="#ffffff" font-family="DejaVu Sans, sans-serif" font-size="11" text-anchor="middle" dominant-baseline="central">0.31</text><path fill="#325b61" stroke="#ffffff14" stroke-width="0.25" d="M170.1 42.5 h32.5 v40.0 h-32.5 v-40.0Z"/><text x="186.32625" y="62.499778163580885" fill="#ffffff" font-family="DejaVu Sans, sans-serif" font-size="11" text-anchor="middle" dominant-baseline="central">0.42</text><path fill="#223f4c" stroke="#ffffff14" stroke-width="0.25" d="M203.9 42.5 h32.5 v40.0 h-32.5 v-40.0Z"/><text x="220.20374999999999" y="62.499778163580885" fill="#ffffff" font-family="DejaVu Sans, sans-serif" font-size="11" text-anchor="middle" dominant-baseline="central">0.21</text><path fill="#569b92" stroke="#ffffff14" stroke-width="0.25" d="M237.8 42.5 h32.5 v40.0 h-32.5 v-40.0Z"/><text x="254.08124999999998" y="62.499778163580885" fill="#000000" font-family="DejaVu Sans, sans-serif" font-size="11" text-anchor="middle" dominant-baseline="central">0.91</text><path fill="#5ca59a" stroke="#ffffff14" stroke-width="0.25" d="M271.7 42.5 h32.5 v40.0 h-32.5 v-40.0Z"/><text x="287.95874999999995" y="62.499778163580885" fill="#000000" font-family="DejaVu Sans, sans-serif" font-size="11" text-anchor="middle" dominant-baseline="central">0.99</text><path fill="#4d8b86" stroke="#ffffff14" stroke-width="0.25" d="M305.6 42.5 h32.5 v40.0 h-32.5 v-40.0Z"/><text x="321.83624999999995" y="62.499778163580885" fill="#ffffff" font-family="DejaVu Sans, sans-serif" font-size="11" text-anchor="middle" dominant-baseline="central">0.79</text><path fill="#5fab9e" stroke="#ffffff14" stroke-width="0.25" d="M339.5 42.5 h32.5 v40.0 h-32.5 v-40.0Z"/><text x="355.71374999999995" y="62.499778163580885" fill="#000000" font-family="DejaVu Sans, sans-serif" font-size="11" text-anchor="middle" dominant-baseline="central">1.03</text><path fill="#2d535b" stroke="#ffffff14" stroke-width="0.25" d="M373.3 42.5 h32.5 v40.0 h-32.5 v-40.0Z"/><text x="389.59124999999995" y="62.499778163580885" fill="#ffffff" font-family="DejaVu Sans, sans-serif" font-size="11" text-anchor="middle" dominant-baseline="central">0.36</text><path fill="#356065" stroke="#ffffff14" stroke-width="0.25" d="M0.7 84.2 h32.5 v40.0 h-32.5 v-40.0Z"/><text x="16.93875" y="104.16629693930147" fill="#ffffff" font-family="DejaVu Sans, sans-serif" font-size="11" text-anchor="middle" dominant-baseline="central">0.46</text><path fill="#2c5059" stroke="#ffffff14" stroke-width="0.25" d="M34.6 84.2 h32.5 v40.0 h-32.5 v-40.0Z"/><text x="50.81625" y="104.16629693930147" fill="#ffffff" font-family="DejaVu Sans, sans-serif" font-size="11" text-anchor="middle" dominant-baseline="central">0.34</text><path fill="#2a4c56" stroke="#ffffff14" stroke-width="0.25" d="M68.4 84.2 h32.5 v40.0 h-32.5 v-40.0Z"/><text x="84.69375" y="104.16629693930147" fill="#ffffff" font-family="DejaVu Sans, sans-serif" font-size="11" text-anchor="middle" dominant-baseline="central">0.31</text><path fill="#264651" stroke="#ffffff14" stroke-width="0.25" d="M102.3 84.2 h32.5 v40.0 h-32.5 v-40.0Z"/><text x="118.57124999999999" y="104.16629693930147" fill="#ffffff" font-family="DejaVu Sans, sans-serif" font-size="11" text-anchor="middle" dominant-baseline="central">0.26</text><path fill="#1e3746" stroke="#ffffff14" stroke-width="0.25" d="M136.2 84.2 h32.5 v40.0 h-32.5 v-40.0Z"/><text x="152.44875" y="104.16629693930147" fill="#ffffff" font-family="DejaVu Sans, sans-serif" font-size="11" text-anchor="middle" dominant-baseline="central">0.15</text><path fill="#24424e" stroke="#ffffff14" stroke-width="0.25" d="M170.1 84.2 h32.5 v40.0 h-32.5 v-40.0Z"/><text x="186.32625" y="104.16629693930147" fill="#ffffff" font-family="DejaVu Sans, sans-serif" font-size="11" text-anchor="middle" dominant-baseline="central">0.23</text><path fill="#3b6c6e" stroke="#ffffff14" stroke-width="0.25" d="M203.9 84.2 h32.5 v40.0 h-32.5 v-40.0Z"/><text x="220.20374999999999" y="104.16629693930147" fill="#ffffff" font-family="DejaVu Sans, sans-serif" font-size="11" text-anchor="middle" dominant-baseline="central">0.55</text><path fill="#52948d" stroke="#ffffff14" stroke-width="0.25" d="M237.8 84.2 h32.5 v40.0 h-32.5 v-40.0Z"/><text x="254.08124999999998" y="104.16629693930147" fill="#000000" font-family="DejaVu Sans, sans-serif" font-size="11" text-anchor="middle" dominant-baseline="central">0.86</text><path fill="#50908a" stroke="#ffffff14" stroke-width="0.25" d="M271.7 84.2 h32.5 v40.0 h-32.5 v-40.0Z"/><text x="287.95874999999995" y="104.16629693930147" fill="#000000" font-family="DejaVu Sans, sans-serif" font-size="11" text-anchor="middle" dominant-baseline="central">0.83</text><path fill="#5da89c" stroke="#ffffff14" stroke-width="0.25" d="M305.6 84.2 h32.5 v40.0 h-32.5 v-40.0Z"/><text x="321.83624999999995" y="104.16629693930147" fill="#000000" font-family="DejaVu Sans, sans-serif" font-size="11" text-anchor="middle" dominant-baseline="central">1.01</text><path fill="#549890" stroke="#ffffff14" stroke-width="0.25" d="M339.5 84.2 h32.5 v40.0 h-32.5 v-40.0Z"/><text x="355.71374999999995" y="104.16629693930147" fill="#000000" font-family="DejaVu Sans, sans-serif" font-size="11" text-anchor="middle" dominant-baseline="central">0.89</text><path fill="#3b6a6d" stroke="#ffffff14" stroke-width="0.25" d="M373.3 84.2 h32.5 v40.0 h-32.5 v-40.0Z"/><text x="389.59124999999995" y="104.16629693930147" fill="#ffffff" font-family="DejaVu Sans, sans-serif" font-size="11" text-anchor="middle" dominant-baseline="central">0.54</text><path fill="#284a54" stroke="#ffffff14" stroke-width="0.25" d="M0.7 125.8 h32.5 v40.0 h-32.5 v-40.0Z"/><text x="16.93875" y="145.83281571502206" fill="#ffffff" font-family="DejaVu Sans, sans-serif" font-size="11" text-anchor="middle" dominant-baseline="central">0.29</text><path fill="#25434f" stroke="#ffffff14" stroke-width="0.25" d="M34.6 125.8 h32.5 v40.0 h-32.5 v-40.0Z"/><text x="50.81625" y="145.83281571502206" fill="#ffffff" font-family="DejaVu Sans, sans-serif" font-size="11" text-anchor="middle" dominant-baseline="central">0.24</text><path fill="#39686b" stroke="#ffffff14" stroke-width="0.25" d="M68.4 125.8 h32.5 v40.0 h-32.5 v-40.0Z"/><text x="84.69375" y="145.83281571502206" fill="#ffffff" font-family="DejaVu Sans, sans-serif" font-size="11" text-anchor="middle" dominant-baseline="central">0.52</text><path fill="#223f4c" stroke="#ffffff14" stroke-width="0.25" d="M102.3 125.8 h32.5 v40.0 h-32.5 v-40.0Z"/><text x="118.57124999999999" y="145.83281571502206" fill="#ffffff" font-family="DejaVu Sans, sans-serif" font-size="11" text-anchor="middle" dominant-baseline="central">0.21</text><path fill="#356166" stroke="#ffffff14" stroke-width="0.25" d="M136.2 125.8 h32.5 v40.0 h-32.5 v-40.0Z"/><text x="152.44875" y="145.83281571502206" fill="#ffffff" font-family="DejaVu Sans, sans-serif" font-size="11" text-anchor="middle" dominant-baseline="central">0.47</text><path fill="#30575e" stroke="#ffffff14" stroke-width="0.25" d="M170.1 125.8 h32.5 v40.0 h-32.5 v-40.0Z"/><text x="186.32625" y="145.83281571502206" fill="#ffffff" font-family="DejaVu Sans, sans-serif" font-size="11" text-anchor="middle" dominant-baseline="central">0.39</text><path fill="#3b6a6d" stroke="#ffffff14" stroke-width="0.25" d="M203.9 125.8 h32.5 v40.0 h-32.5 v-40.0Z"/><text x="220.20374999999999" y="145.83281571502206" fill="#ffffff" font-family="DejaVu Sans, sans-serif" font-size="11" text-anchor="middle" dominant-baseline="central">0.54</text><path fill="#5fab9e" stroke="#ffffff14" stroke-width="0.25" d="M237.8 125.8 h32.5 v40.0 h-32.5 v-40.0Z"/><text x="254.08124999999998" y="145.83281571502206" fill="#000000" font-family="DejaVu Sans, sans-serif" font-size="11" text-anchor="middle" dominant-baseline="central">1.03</text><path fill="#569b92" stroke="#ffffff14" stroke-width="0.25" d="M271.7 125.8 h32.5 v40.0 h-32.5 v-40.0Z"/><text x="287.95874999999995" y="145.83281571502206" fill="#000000" font-family="DejaVu Sans, sans-serif" font-size="11" text-anchor="middle" dominant-baseline="central">0.91</text><path fill="#437a79" stroke="#ffffff14" stroke-width="0.25" d="M305.6 125.8 h32.5 v40.0 h-32.5 v-40.0Z"/><text x="321.83624999999995" y="145.83281571502206" fill="#ffffff" font-family="DejaVu Sans, sans-serif" font-size="11" text-anchor="middle" dominant-baseline="central">0.66</text><path fill="#437a79" stroke="#ffffff14" stroke-width="0.25" d="M339.5 125.8 h32.5 v40.0 h-32.5 v-40.0Z"/><text x="355.71374999999995" y="145.83281571502206" fill="#ffffff" font-family="DejaVu Sans, sans-serif" font-size="11" text-anchor="middle" dominant-baseline="central">0.66</text><path fill="#2c5059" stroke="#ffffff14" stroke-width="0.25" d="M373.3 125.8 h32.5 v40.0 h-32.5 v-40.0Z"/><text x="389.59124999999995" y="145.83281571502206" fill="#ffffff" font-family="DejaVu Sans, sans-serif" font-size="11" text-anchor="middle" dominant-baseline="central">0.34</text><path fill="#366367" stroke="#ffffff14" stroke-width="0.25" d="M0.7 167.5 h32.5 v40.0 h-32.5 v-40.0Z"/><text x="16.93875" y="187.49933449074265" fill="#ffffff" font-family="DejaVu Sans, sans-serif" font-size="11" text-anchor="middle" dominant-baseline="central">0.48</text><path fill="#203b49" stroke="#ffffff14" stroke-width="0.25" d="M34.6 167.5 h32.5 v40.0 h-32.5 v-40.0Z"/><text x="50.81625" y="187.49933449074265" fill="#ffffff" font-family="DejaVu Sans, sans-serif" font-size="11" text-anchor="middle" dominant-baseline="central">0.18</text><path fill="#2a4e57" stroke="#ffffff14" stroke-width="0.25" d="M68.4 167.5 h32.5 v40.0 h-32.5 v-40.0Z"/><text x="84.69375" y="187.49933449074265" fill="#ffffff" font-family="DejaVu Sans, sans-serif" font-size="11" text-anchor="middle" dominant-baseline="central">0.32</text><path fill="#203b49" stroke="#ffffff14" stroke-width="0.25" d="M102.3 167.5 h32.5 v40.0 h-32.5 v-40.0Z"/><text x="118.57124999999999" y="187.49933449074265" fill="#ffffff" font-family="DejaVu Sans, sans-serif" font-size="11" text-anchor="middle" dominant-baseline="central">0.18</text><path fill="#274752" stroke="#ffffff14" stroke-width="0.25" d="M136.2 167.5 h32.5 v40.0 h-32.5 v-40.0Z"/><text x="152.44875" y="187.49933449074265" fill="#ffffff" font-family="DejaVu Sans, sans-serif" font-size="11" text-anchor="middle" dominant-baseline="central">0.27</text><path fill="#1e3746" stroke="#ffffff14" stroke-width="0.25" d="M170.1 167.5 h32.5 v40.0 h-32.5 v-40.0Z"/><text x="186.32625" y="187.49933449074265" fill="#ffffff" font-family="DejaVu Sans, sans-serif" font-size="11" text-anchor="middle" dominant-baseline="central">0.15</text><path fill="#274853" stroke="#ffffff14" stroke-width="0.25" d="M203.9 167.5 h32.5 v40.0 h-32.5 v-40.0Z"/><text x="220.20374999999999" y="187.49933449074265" fill="#ffffff" font-family="DejaVu Sans, sans-serif" font-size="11" text-anchor="middle" dominant-baseline="central">0.28</text><path fill="#52948d" stroke="#ffffff14" stroke-width="0.25" d="M237.8 167.5 h32.5 v40.0 h-32.5 v-40.0Z"/><text x="254.08124999999998" y="187.49933449074265" fill="#000000" font-family="DejaVu Sans, sans-serif" font-size="11" text-anchor="middle" dominant-baseline="central">0.86</text><path fill="#488380" stroke="#ffffff14" stroke-width="0.25" d="M271.7 167.5 h32.5 v40.0 h-32.5 v-40.0Z"/><text x="287.95874999999995" y="187.49933449074265" fill="#ffffff" font-family="DejaVu Sans, sans-serif" font-size="11" text-anchor="middle" dominant-baseline="central">0.73</text><path fill="#59a197" stroke="#ffffff14" stroke-width="0.25" d="M305.6 167.5 h32.5 v40.0 h-32.5 v-40.0Z"/><text x="321.83624999999995" y="187.49933449074265" fill="#000000" font-family="DejaVu Sans, sans-serif" font-size="11" text-anchor="middle" dominant-baseline="central">0.96</text><path fill="#447b7a" stroke="#ffffff14" stroke-width="0.25" d="M339.5 167.5 h32.5 v40.0 h-32.5 v-40.0Z"/><text x="355.71374999999995" y="187.49933449074265" fill="#ffffff" font-family="DejaVu Sans, sans-serif" font-size="11" text-anchor="middle" dominant-baseline="central">0.67</text><path fill="#24424e" stroke="#ffffff14" stroke-width="0.25" d="M373.3 167.5 h32.5 v40.0 h-32.5 v-40.0Z"/><text x="389.59124999999995" y="187.49933449074265" fill="#ffffff" font-family="DejaVu Sans, sans-serif" font-size="11" text-anchor="middle" dominant-baseline="central">0.23</text><path fill="#1e3746" stroke="#ffffff14" stroke-width="0.25" d="M0.7 209.2 h32.5 v40.0 h-32.5 v-40.0Z"/><text x="16.93875" y="229.16585326646324" fill="#ffffff" font-family="DejaVu Sans, sans-serif" font-size="11" text-anchor="middle" dominant-baseline="central">0.15</text><path fill="#223f4c" stroke="#ffffff14" stroke-width="0.25" d="M34.6 209.2 h32.5 v40.0 h-32.5 v-40.0Z"/><text x="50.81625" y="229.16585326646324" fill="#ffffff" font-family="DejaVu Sans, sans-serif" font-size="11" text-anchor="middle" dominant-baseline="central">0.21</text><path fill="#2d535b" stroke="#ffffff14" stroke-width="0.25" d="M68.4 209.2 h32.5 v40.0 h-32.5 v-40.0Z"/><text x="84.69375" y="229.16585326646324" fill="#ffffff" font-family="DejaVu Sans, sans-serif" font-size="11" text-anchor="middle" dominant-baseline="central">0.36</text><path fill="#213d4a" stroke="#ffffff14" stroke-width="0.25" d="M102.3 209.2 h32.5 v40.0 h-32.5 v-40.0Z"/><text x="118.57124999999999" y="229.16585326646324" fill="#ffffff" font-family="DejaVu Sans, sans-serif" font-size="11" text-anchor="middle" dominant-baseline="central">0.19</text><path fill="#2b4f58" stroke="#ffffff14" stroke-width="0.25" d="M136.2 209.2 h32.5 v40.0 h-32.5 v-40.0Z"/><text x="152.44875" y="229.16585326646324" fill="#ffffff" font-family="DejaVu Sans, sans-serif" font-size="11" text-anchor="middle" dominant-baseline="central">0.33</text><path fill="#325b61" stroke="#ffffff14" stroke-width="0.25" d="M170.1 209.2 h32.5 v40.0 h-32.5 v-40.0Z"/><text x="186.32625" y="229.16585326646324" fill="#ffffff" font-family="DejaVu Sans, sans-serif" font-size="11" text-anchor="middle" dominant-baseline="central">0.42</text><path fill="#1a3141" stroke="#ffffff14" stroke-width="0.25" d="M203.9 209.2 h32.5 v40.0 h-32.5 v-40.0Z"/><text x="220.20374999999999" y="229.16585326646324" fill="#ffffff" font-family="DejaVu Sans, sans-serif" font-size="11" text-anchor="middle" dominant-baseline="central">0.10</text><path fill="#30585f" stroke="#ffffff14" stroke-width="0.25" d="M237.8 209.2 h32.5 v40.0 h-32.5 v-40.0Z"/><text x="254.08124999999998" y="229.16585326646324" fill="#ffffff" font-family="DejaVu Sans, sans-serif" font-size="11" text-anchor="middle" dominant-baseline="central">0.40</text><path fill="#284a54" stroke="#ffffff14" stroke-width="0.25" d="M271.7 209.2 h32.5 v40.0 h-32.5 v-40.0Z"/><text x="287.95874999999995" y="229.16585326646324" fill="#ffffff" font-family="DejaVu Sans, sans-serif" font-size="11" text-anchor="middle" dominant-baseline="central">0.29</text><path fill="#2d525a" stroke="#ffffff14" stroke-width="0.25" d="M305.6 209.2 h32.5 v40.0 h-32.5 v-40.0Z"/><text x="321.83624999999995" y="229.16585326646324" fill="#ffffff" font-family="DejaVu Sans, sans-serif" font-size="11" text-anchor="middle" dominant-baseline="central">0.35</text><path fill="#284a54" stroke="#ffffff14" stroke-width="0.25" d="M339.5 209.2 h32.5 v40.0 h-32.5 v-40.0Z"/><text x="355.71374999999995" y="229.16585326646324" fill="#ffffff" font-family="DejaVu Sans, sans-serif" font-size="11" text-anchor="middle" dominant-baseline="central">0.29</text><path fill="#223f4c" stroke="#ffffff14" stroke-width="0.25" d="M373.3 209.2 h32.5 v40.0 h-32.5 v-40.0Z"/><text x="389.59124999999995" y="229.16585326646324" fill="#ffffff" font-family="DejaVu Sans, sans-serif" font-size="11" text-anchor="middle" dominant-baseline="central">0.21</text><path fill="#1a3040" stroke="#ffffff14" stroke-width="0.25" d="M0.7 250.8 h32.5 v40.0 h-32.5 v-40.0Z"/><text x="16.93875" y="270.8323720421838" fill="#ffffff" font-family="DejaVu Sans, sans-serif" font-size="11" text-anchor="middle" dominant-baseline="central">0.09</text><path fill="#1b3242" stroke="#ffffff14" stroke-width="0.25" d="M34.6 250.8 h32.5 v40.0 h-32.5 v-40.0Z"/><text x="50.81625" y="270.8323720421838" fill="#ffffff" font-family="DejaVu Sans, sans-serif" font-size="11" text-anchor="middle" dominant-baseline="central">0.11</text><path fill="#1c3343" stroke="#ffffff14" stroke-width="0.25" d="M68.4 250.8 h32.5 v40.0 h-32.5 v-40.0Z"/><text x="84.69375" y="270.8323720421838" fill="#ffffff" font-family="DejaVu Sans, sans-serif" font-size="11" text-anchor="middle" dominant-baseline="central">0.12</text><path fill="#1c3343" stroke="#ffffff14" stroke-width="0.25" d="M102.3 250.8 h32.5 v40.0 h-32.5 v-40.0Z"/><text x="118.57124999999999" y="270.8323720421838" fill="#ffffff" font-family="DejaVu Sans, sans-serif" font-size="11" text-anchor="middle" dominant-baseline="central">0.12</text><path fill="#1b3242" stroke="#ffffff14" stroke-width="0.25" d="M136.2 250.8 h32.5 v40.0 h-32.5 v-40.0Z"/><text x="152.44875" y="270.8323720421838" fill="#ffffff" font-family="DejaVu Sans, sans-serif" font-size="11" text-anchor="middle" dominant-baseline="central">0.11</text><path fill="#1c3544" stroke="#ffffff14" stroke-width="0.25" d="M170.1 250.8 h32.5 v40.0 h-32.5 v-40.0Z"/><text x="186.32625" y="270.8323720421838" fill="#ffffff" font-family="DejaVu Sans, sans-serif" font-size="11" text-anchor="middle" dominant-baseline="central">0.13</text><path fill="#274752" stroke="#ffffff14" stroke-width="0.25" d="M203.9 250.8 h32.5 v40.0 h-32.5 v-40.0Z"/><text x="220.20374999999999" y="270.8323720421838" fill="#ffffff" font-family="DejaVu Sans, sans-serif" font-size="11" text-anchor="middle" dominant-baseline="central">0.27</text><path fill="#2d535b" stroke="#ffffff14" stroke-width="0.25" d="M237.8 250.8 h32.5 v40.0 h-32.5 v-40.0Z"/><text x="254.08124999999998" y="270.8323720421838" fill="#ffffff" font-family="DejaVu Sans, sans-serif" font-size="11" text-anchor="middle" dominant-baseline="central">0.36</text><path fill="#2e545c" stroke="#ffffff14" stroke-width="0.25" d="M271.7 250.8 h32.5 v40.0 h-32.5 v-40.0Z"/><text x="287.95874999999995" y="270.8323720421838" fill="#ffffff" font-family="DejaVu Sans, sans-serif" font-size="11" text-anchor="middle" dominant-baseline="central">0.37</text><path fill="#30575e" stroke="#ffffff14" stroke-width="0.25" d="M305.6 250.8 h32.5 v40.0 h-32.5 v-40.0Z"/><text x="321.83624999999995" y="270.8323720421838" fill="#ffffff" font-family="DejaVu Sans, sans-serif" font-size="11" text-anchor="middle" dominant-baseline="central">0.39</text><path fill="#1a3141" stroke="#ffffff14" stroke-width="0.25" d="M339.5 250.8 h32.5 v40.0 h-32.5 v-40.0Z"/><text x="355.71374999999995" y="270.8323720421838" fill="#ffffff" font-family="DejaVu Sans, sans-serif" font-size="11" text-anchor="middle" dominant-baseline="central">0.10</text><path fill="#2f555d" stroke="#ffffff14" stroke-width="0.25" d="M373.3 250.8 h32.5 v40.0 h-32.5 v-40.0Z"/><text x="389.59124999999995" y="270.8323720421838" fill="#ffffff" font-family="DejaVu Sans, sans-serif" font-size="11" text-anchor="middle" dominant-baseline="central">0.38</text><text x="16.93875" y="-1.6666607510288236" fill="#c9d4d9" font-family="DejaVu Sans, sans-serif" font-size="11" text-anchor="middle" dominant-baseline="bottom">00:00</text><text x="50.81625" y="-1.6666607510288236" fill="#c9d4d9" font-family="DejaVu Sans, sans-serif" font-size="11" text-anchor="middle" dominant-baseline="bottom">02:00</text><text x="84.69375" y="-1.6666607510288236" fill="#c9d4d9" font-family="DejaVu Sans, sans-serif" font-size="11" text-anchor="middle" dominant-baseline="bottom">04:00</text><text x="118.57124999999999" y="-1.6666607510288236" fill="#c9d4d9" font-family="DejaVu Sans, sans-serif" font-size="11" text-anchor="middle" dominant-baseline="bottom">06:00</text><text x="152.44875" y="-1.6666607510288236" fill="#c9d4d9" font-family="DejaVu Sans, sans-serif" font-size="11" text-anchor="middle" dominant-baseline="bottom">08:00</text><text x="186.32625" y="-1.6666607510288236" fill="#c9d4d9" font-family="DejaVu Sans, sans-serif" font-size="11" text-anchor="middle" dominant-baseline="bottom">10:00</text><text x="220.20374999999999" y="-1.6666607510288236" fill="#c9d4d9" font-family="DejaVu Sans, sans-serif" font-size="11" text-anchor="middle" dominant-baseline="bottom">12:00</text><text x="254.08124999999998" y="-1.6666607510288236" fill="#c9d4d9" font-family="DejaVu Sans, sans-serif" font-size="11" text-anchor="middle" dominant-baseline="bottom">14:00</text><text x="287.95875" y="-1.6666607510288236" fill="#c9d4d9" font-family="DejaVu Sans, sans-serif" font-size="11" text-anchor="middle" dominant-baseline="bottom">16:00</text><text x="321.83624999999995" y="-1.6666607510288236" fill="#c9d4d9" font-family="DejaVu Sans, sans-serif" font-size="11" text-anchor="middle" dominant-baseline="bottom">18:00</text><text x="355.71375" y="-1.6666607510288236" fill="#c9d4d9" font-family="DejaVu Sans, sans-serif" font-size="11" text-anchor="middle" dominant-baseline="bottom">20:00</text><text x="389.59124999999995" y="-1.6666607510288236" fill="#c9d4d9" font-family="DejaVu Sans, sans-serif" font-size="11" text-anchor="middle" dominant-baseline="bottom">22:00</text><text x="-1.3551" y="20.833259387860295" fill="#c9d4d9" font-family="DejaVu Sans, sans-serif" font-size="11" text-anchor="end" dominant-baseline="central">Mon</text><text x="-1.3551" y="62.499778163580885" fill="#c9d4d9" font-family="DejaVu Sans, sans-serif" font-size="11" text-anchor="end" dominant-baseline="central">Tue</text><text x="-1.3551" y="104.16629693930147" fill="#c9d4d9" font-family="DejaVu Sans, sans-serif" font-size="11" text-anchor="end" dominant-baseline="central">Wed</text><text x="-1.3551" y="145.83281571502206" fill="#c9d4d9" font-family="DejaVu Sans, sans-serif" font-size="11" text-anchor="end" dominant-baseline="central">Thu</text><text x="-1.3551" y="187.49933449074265" fill="#c9d4d9" font-family="DejaVu Sans, sans-serif" font-size="11" text-anchor="end" dominant-baseline="central">Fri</text><text x="-1.3551" y="229.16585326646324" fill="#c9d4d9" font-family="DejaVu Sans, sans-serif" font-size="11" text-anchor="end" dominant-baseline="central">Sat</text><text x="-1.3551" y="270.8323720421838" fill="#c9d4d9" font-family="DejaVu Sans, sans-serif" font-size="11" text-anchor="end" dominant-baseline="central">Sun</text><path fill="#5fab9e" d="M420.5 0.0 h16.0 v5.6 h-16.0 v-5.6Z"/><path fill="#5da99c" d="M420.5 4.6 h16.0 v5.6 h-16.0 v-5.6Z"/><path fill="#5ca79b" d="M420.5 9.1 h16.0 v5.6 h-16.0 v-5.6Z"/><path fill="#5ba599" d="M420.5 13.7 h16.0 v5.6 h-16.0 v-5.6Z"/><path fill="#5aa398" d="M420.5 18.2 h16.0 v5.6 h-16.0 v-5.6Z"/><path fill="#59a196" d="M420.5 22.8 h16.0 v5.6 h-16.0 v-5.6Z"/><path fill="#589f95" d="M420.5 27.3 h16.0 v5.6 h-16.0 v-5.6Z"/><path fill="#579d93" d="M420.5 31.9 h16.0 v5.6 h-16.0 v-5.6Z"/><path fill="#569b92" d="M420.5 36.5 h16.0 v5.6 h-16.0 v-5.6Z"/><path fill="#559990" d="M420.5 41.0 h16.0 v5.6 h-16.0 v-5.6Z"/><path fill="#54978f" d="M420.5 45.6 h16.0 v5.6 h-16.0 v-5.6Z"/><path fill="#52958d" d="M420.5 50.1 h16.0 v5.6 h-16.0 v-5.6Z"/><path fill="#51938c" d="M420.5 54.7 h16.0 v5.6 h-16.0 v-5.6Z"/><path fill="#50918a" d="M420.5 59.2 h16.0 v5.6 h-16.0 v-5.6Z"/><path fill="#4f8f89" d="M420.5 63.8 h16.0 v5.6 h-16.0 v-5.6Z"/><path fill="#4e8d87" d="M420.5 68.4 h16.0 v5.6 h-16.0 v-5.6Z"/><path fill="#4d8b86" d="M420.5 72.9 h16.0 v5.6 h-16.0 v-5.6Z"/><path fill="#4c8984" d="M420.5 77.5 h16.0 v5.6 h-16.0 v-5.6Z"/><path fill="#4b8783" d="M420.5 82.0 h16.0 v5.6 h-16.0 v-5.6Z"/><path fill="#4a8581" d="M420.5 86.6 h16.0 v5.6 h-16.0 v-5.6Z"/><path fill="#498380" d="M420.5 91.1 h16.0 v5.6 h-16.0 v-5.6Z"/><path fill="#48827e" d="M420.5 95.7 h16.0 v5.6 h-16.0 v-5.6Z"/><path fill="#46807d" d="M420.5 100.3 h16.0 v5.6 h-16.0 v-5.6Z"/><path fill="#457e7b" d="M420.5 104.8 h16.0 v5.6 h-16.0 v-5.6Z"/><path fill="#447c7a" d="M420.5 109.4 h16.0 v5.6 h-16.0 v-5.6Z"/><path fill="#437a78" d="M420.5 113.9 h16.0 v5.6 h-16.0 v-5.6Z"/><path fill="#427877" d="M420.5 118.5 h16.0 v5.6 h-16.0 v-5.6Z"/><path fill="#417675" d="M420.5 123.0 h16.0 v5.6 h-16.0 v-5.6Z"/><path fill="#407474" d="M420.5 127.6 h16.0 v5.6 h-16.0 v-5.6Z"/><path fill="#3f7272" d="M420.5 132.2 h16.0 v5.6 h-16.0 v-5.6Z"/><path fill="#3e7071" d="M420.5 136.7 h16.0 v5.6 h-16.0 v-5.6Z"/><path fill="#3d6e6f" d="M420.5 141.3 h16.0 v5.6 h-16.0 v-5.6Z"/><path fill="#3b6c6e" d="M420.5 145.8 h16.0 v5.6 h-16.0 v-5.6Z"/><path fill="#3a6a6c" d="M420.5 150.4 h16.0 v5.6 h-16.0 v-5.6Z"/><path fill="#39686b" d="M420.5 154.9 h16.0 v5.6 h-16.0 v-5.6Z"/><path fill="#386669" d="M420.5 159.5 h16.0 v5.6 h-16.0 v-5.6Z"/><path fill="#376468" d="M420.5 164.1 h16.0 v5.6 h-16.0 v-5.6Z"/><path fill="#366266" d="M420.5 168.6 h16.0 v5.6 h-16.0 v-5.6Z"/><path fill="#356065" d="M420.5 173.2 h16.0 v5.6 h-16.0 v-5.6Z"/><path fill="#345e63" d="M420.5 177.7 h16.0 v5.6 h-16.0 v-5.6Z"/><path fill="#335c62" d="M420.5 182.3 h16.0 v5.6 h-16.0 v-5.6Z"/><path fill="#325a60" d="M420.5 186.8 h16.0 v5.6 h-16.0 v-5.6Z"/><path fill="#31595f" d="M420.5 191.4 h16.0 v5.6 h-16.0 v-5.6Z"/><path fill="#2f575d" d="M420.5 196.0 h16.0 v5.6 h-16.0 v-5.6Z"/><path fill="#2e555c" d="M420.5 200.5 h16.0 v5.6 h-16.0 v-5.6Z"/><path fill="#2d535a" d="M420.5 205.1 h16.0 v5.6 h-16.0 v-5.6Z"/><path fill="#2c5159" d="M420.5 209.6 h16.0 v5.6 h-16.0 v-5.6Z"/><path fill="#2b4f57" d="M420.5 214.2 h16.0 v5.6 h-16.0 v-5.6Z"/><path fill="#2a4d56" d="M420.5 218.7 h16.0 v5.6 h-16.0 v-5.6Z"/><path fill="#294b54" d="M420.5 223.3 h16.0 v5.6 h-16.0 v-5.6Z"/><path fill="#284953" d="M420.5 227.9 h16.0 v5.6 h-16.0 v-5.6Z"/><path fill="#274751" d="M420.5 232.4 h16.0 v5.6 h-16.0 v-5.6Z"/><path fill="#264550" d="M420.5 237.0 h16.0 v5.6 h-16.0 v-5.6Z"/><path fill="#24434e" d="M420.5 241.5 h16.0 v5.6 h-16.0 v-5.6Z"/><path fill="#23414d" d="M420.5 246.1 h16.0 v5.6 h-16.0 v-5.6Z"/><path fill="#223f4b" d="M420.5 250.7 h16.0 v5.6 h-16.0 v-5.6Z"/><path fill="#213d4a" d="M420.5 255.2 h16.0 v5.6 h-16.0 v-5.6Z"/><path fill="#203b48" d="M420.5 259.8 h16.0 v5.6 h-16.0 v-5.6Z"/><path fill="#1f3947" d="M420.5 264.3 h16.0 v5.6 h-16.0 v-5.6Z"/><path fill="#1e3745" d="M420.5 268.9 h16.0 v5.6 h-16.0 v-5.6Z"/><path fill="#1d3544" d="M420.5 273.4 h16.0 v5.6 h-16.0 v-5.6Z"/><path fill="#1c3342" d="M420.5 278.0 h16.0 v5.6 h-16.0 v-5.6Z"/><path fill="#1b3141" d="M420.5 282.6 h16.0 v5.6 h-16.0 v-5.6Z"/><path fill="#1a3040" d="M420.5 287.1 h16.0 v5.6 h-16.0 v-5.6Z"/><path fill="none" stroke="#c9d4d9" stroke-width="0.75" d="M420.5 0 h16.0 v291.7 h-16.0 v-291.7Z"/><path stroke="#c9d4d9" stroke-width="0.75" d="M436.53 291.66563143004413 h4"/><text x="445.53" y="291.66563143004413" fill="#c9d4d9" font-family="DejaVu Sans, sans-serif" font-size="11" text-anchor="start" dominant-baseline="central">0.09</text><path stroke="#c9d4d9" stroke-width="0.75" d="M436.53 218.74922357253308 h4"/><text x="445.53" y="218.74922357253308" fill="#c9d4d9" font-family="DejaVu Sans, sans-serif" font-size="11" text-anchor="start" dominant-baseline="central">0.33</text><path stroke="#c9d4d9" stroke-width="0.75" d="M436.53 145.83281571502206 h4"/><text x="445.53" y="145.83281571502206" fill="#c9d4d9" font-family="DejaVu Sans, sans-serif" font-size="11" text-anchor="start" dominant-baseline="central">0.56</text><path stroke="#c9d4d9" stroke-width="0.75" d="M436.53 72.91640785751103 h4"/><text x="445.53" y="72.91640785751103" fill="#c9d4d9" font-family="DejaVu Sans, sans-serif" font-size="11" text-anchor="start" dominant-baseline="central">0.80</text><path stroke="#c9d4d9" stroke-width="0.75" d="M436.53 0.0 h4"/><text x="445.53" y="0.0" fill="#c9d4d9" font-family="DejaVu Sans, sans-serif" font-size="11" text-anchor="start" dominant-baseline="central">1.03</text></g></svg>