<svg xmlns="http://www.w3.org/2000/svg" width="580" height="360" viewBox="0 0 580 360"><path fill="#ffffff" d="M0 0 h580 v360 h-580 v-360Z"/><text transform="translate(-125.41, 17)" fill="#2e4756" font-family="DejaVu Sans, sans-serif" font-weight="bold" font-size="15" x="290.0" y="9.0">API Error Rate (%) by Day &amp; Hour</text><g transform="translate(67.47, 43.5)"><path fill="#e4ceca" stroke="#e8edf0" stroke-width="0.25" d="M0.7 0.8 h32.5 v40.0 h-32.5 v-40.0Z"/><text x="16.93875" y="20.833259387860295" fill="#000000" font-family="DejaVu Sans, sans-serif" font-size="11" text-anchor="middle" dominant-baseline="central">0.31</text><path fill="#e6dcd8" stroke="#e8edf0" stroke-width="0.25" d="M34.6 0.8 h32.5 v40.0 h-32.5 v-40.0Z"/><text x="50.81625" y="20.833259387860295" fill="#000000" font-family="DejaVu Sans, sans-serif" font-size="11" text-anchor="middle" dominant-baseline="central">0.23</text><path fill="#e6deda" stroke="#e8edf0" stroke-width="0.25" d="M68.4 0.8 h32.5 v40.0 h-32.5 v-40.0Z"/><text x="84.69375" y="20.833259387860295" fill="#000000" font-family="DejaVu Sans, sans-serif" font-size="11" text-anchor="middle" dominant-baseline="central">0.22</text><path fill="#e5d8d5" stroke="#e8edf0" stroke-width="0.25" d="M102.3 0.8 h32.5 v40.0 h-32.5 v-40.0Z"/><text x="118.57124999999999" y="20.833259387860295" fill="#000000" font-family="DejaVu Sans, sans-serif" font-size="11" text-anchor="middle" dominant-baseline="central">0.25</text><path fill="#e3b5b1" stroke="#e8edf0" stroke-width="0.25" d="M136.2 0.8 h32.5 v40.0 h-32.5 v-40.0Z"/><text x="152.44875" y="20.833259387860295" fill="#000000" font-family="DejaVu Sans, sans-serif" font-size="11" text-anchor="middle" dominant-baseline="central">0.45</text><path fill="#e5d8d5" stroke="#e8edf0" stroke-width="0.25" d="M170.1 0.8 h32.5 v40.0 h-32.5 v-40.0Z"/><text x="186.32625" y="20.833259387860295" fill="#000000" font-family="DejaVu Sans, sans-serif" font-size="11" text-anchor="middle" dominant-baseline="central">0.25</text><path fill="#e5d0cc" stroke="#e8edf0" stroke-width="0.25" d="M203.9 0.8 h32.5 v40.0 h-32.5 v-40.0Z"/><text x="220.20374999999999" y="20.833259387860295" fill="#000000" font-family="DejaVu Sans, sans-serif" font-size="11" text-anchor="middle" dominant-baseline="central">0.30</text><path fill="#dc635d" stroke="#e8edf0" stroke-width="0.25" d="M237.8 0.8 h32.5 v40.0 h-32.5 v-40.0Z"/><text x="254.08124999999998" y="20.833259387860295" fill="#ffffff" font-family="DejaVu Sans, sans-serif" font-size="11" text-anchor="middle" dominant-baseline="central">0.92</text><path fill="#dd6c66" stroke="#e8edf0" stroke-width="0.25" d="M271.7 0.8 h32.5 v40.0 h-32.5 v-40.0Z"/><text x="287.95874999999995" y="20.833259387860295" fill="#000000" font-family="DejaVu Sans, sans-serif" font-size="11" text-anchor="middle" dominant-baseline="central">0.87</text><path fill="#db504a" stroke="#e8edf0" stroke-width="0.25" d="M305.6 0.8 h32.5 v40.0 h-32.5 v-40.0Z"/><text x="321.83624999999995" y="20.833259387860295" fill="#ffffff" font-family="DejaVu Sans, sans-serif" font-size="11" text-anchor="middle" dominant-baseline="central">1.03</text><path fill="#dd6f6a" stroke="#e8edf0" stroke-width="0.25" d="M339.5 0.8 h32.5 v40.0 h-32.5 v-40.0Z"/><text x="355.71374999999995" y="20.833259387860295" fill="#000000" font-family="DejaVu Sans, sans-serif" font-size="11" text-anchor="middle" dominant-baseline="central">0.85</text><path fill="#e4ccc8" stroke="#e8edf0" stroke-width="0.25" d="M373.3 0.8 h32.5 v40.0 h-32.5 v-40.0Z"/><text x="389.59124999999995" y="20.833259387860295" fill="#000000" font-family="DejaVu Sans, sans-serif" font-size="11" text-anchor="middle" dominant-baseline="central">0.32</text><path fill="#e3beba" stroke="#e8edf0" stroke-width="0.25" d="M0.7 42.5 h32.5 v40.0 h-32.5 v-40.0Z"/><text x="16.93875" y="62.499778163580885" fill="#000000" font-family="DejaVu Sans, sans-serif" font-size="11" text-anchor="middle" dominant-baseline="central">0.40</text><path fill="#e5dad7" stroke="#e8edf0" stroke-width="0.25" d="M34.6 42.5 h32.5 v40.0 h-32.5 v-40.0Z"/><text x="50.81625" y="62.499778163580885" fill="#000000" font-family="DejaVu Sans, sans-serif" font-size="11" text-anchor="middle" dominant-baseline="central">0.24</text><path fill="#e2aba6" stroke="#e8edf0" stroke-width="0.25" d="M68.4 42.5 h32.5 v40.0 h-32.5 v-40.0Z"/><text x="84.69375" y="62.499778163580885" fill="#000000" font-family="DejaVu Sans, sans-serif" font-size="11" text-anchor="middle" dominant-baseline="central">0.51</text><path fill="#e5d0cc" stroke="#e8edf0" stroke-width="0.25" d="M102.3 42.5 h32.5 v40.0 h-32.5 v-40.0Z"/><text x="118.57124999999999" y="62.499778163580885" fill="#000000" font-family="DejaVu Sans, sans-serif" font-size="11" text-anchor="middle" dominant-baseline="central">0.30</text><path fill="#e4ceca" stroke="#e8edf0" stroke-width="0.25" d="M136.2 42.5 h32.5 v40.0 h-32.5 v-40.0Z"/><text x="152.44875" y="62.499778163580885" fill="#000000" font-family="DejaVu Sans, sans-serif" font-size="11" text-anchor="middle" dominant-baseline="central">0.31</text><path fill="#e3bbb7" stroke="#e8edf0" stroke-width="0.25" d="M170.1 42.5 h32.5 v40.0 h-32.5 v-40.0Z"/><text x="186.32625" y="62.499778163580885" fill="#000000" font-family="DejaVu Sans, sans-serif" font-size="11" text-anchor="middle" dominant-baseline="central">0.42</text><path fill="#e6dfdc" stroke="#e8edf0" stroke-width="0.25" d="M203.9 42.5 h32.5 v40.0 h-32.5 v-40.0Z"/><text x="220.20374999999999" y="62.499778163580885" fill="#000000" font-family="DejaVu Sans, sans-serif" font-size="11" text-anchor="middle" dominant-baseline="central">0.21</text><path fill="#dc655f" stroke="#e8edf0" stroke-width="0.25" d="M237.8 42.5 h32.5 v40.0 h-32.5 v-40.0Z"/><text x="254.08124999999998" y="62.499778163580885" fill="#ffffff" font-family="DejaVu Sans, sans-serif" font-size="11" text-anchor="middle" dominant-baseline="central">0.91</text><path fill="#db5751" stroke="#e8edf0" stroke-width="0.25" d="M271.7 42.5 h32.5 v40.0 h-32.5 v-40.0Z"/><text x="287.95874999999995" y="62.499778163580885" fill="#ffffff" font-family="DejaVu Sans, sans-serif" font-size="11" text-anchor="middle" dominant-baseline="central">0.99</text><path fill="#de7a74" stroke="#e8edf0" stroke-width="0.25" d="M305.6 42.5 h32.5 v40.0 h-32.5 v-40.0Z"/><text x="321.83624999999995" y="62.499778163580885" fill="#000000" font-family="DejaVu Sans, sans-serif" font-size="11" text-anchor="middle" dominant-baseline="central">0.79</text><path fill="#db504a" stroke="#e8edf0" stroke-width="0.25" d="M339.5 42.5 h32.5 v40.0 h-32.5 v-40.0Z"/><text x="355.71374999999995" y="62.499778163580885" fill="#ffffff" font-family="DejaVu Sans, sans-serif" font-size="11" text-anchor="middle" dominant-baseline="central">1.03</text><path fill="#e4c5c1" stroke="#e8edf0" stroke-width="0.25" d="M373.3 42.5 h32.5 v40.0 h-32.5 v-40.0Z"/><text x="389.59124999999995" y="62.499778163580885" fill="#000000" font-family="DejaVu Sans, sans-serif" font-size="11" text-anchor="middle" dominant-baseline="central">0.36</text><path fill="#e2b4af" stroke="#e8edf0" stroke-width="0.25" d="M0.7 84.2 h32.5 v40.0 h-32.5 v-40.0Z"/><text x="16.93875" y="104.16629693930147" fill="#000000" font-family="DejaVu Sans, sans-serif" font-size="11" text-anchor="middle" dominant-baseline="central">0.46</text><path fill="#e4c9c5" stroke="#e8edf0" stroke-width="0.25" d="M34.6 84.2 h32.5 v40.0 h-32.5 v-40.0Z"/><text x="50.81625" y="104.16629693930147" fill="#000000" font-family="DejaVu Sans, sans-serif" font-size="11" text-anchor="middle" dominant-baseline="central">0.34</text><path fill="#e4ceca" stroke="#e8edf0" stroke-width="0.25" d="M68.4 84.2 h32.5 v40.0 h-32.5 v-40.0Z"/><text x="84.69375" y="104.16629693930147" fill="#000000" font-family="DejaVu Sans, sans-serif" font-size="11" text-anchor="middle" dominant-baseline="central">0.31</text><path fill="#e5d7d3" stroke="#e8edf0" stroke-width="0.25" d="M102.3 84.2 h32.5 v40.0 h-32.5 v-40.0Z"/><text x="118.57124999999999" y="104.16629693930147" fill="#000000" font-family="DejaVu Sans, sans-serif" font-size="11" text-anchor="middle" dominant-baseline="central">0.26</text><path fill="#e7eae7" stroke="#e8edf0" stroke-width="0.25" d="M136.2 84.2 h32.5 v40.0 h-32.5 v-40.0Z"/><text x="152.44875" y="104.16629693930147" fill="#000000" font-family="DejaVu Sans, sans-serif" font-size="11" text-anchor="middle" dominant-baseline="central">0.15</text><path fill="#e6dcd8" stroke="#e8edf0" stroke-width="0.25" d="M170.1 84.2 h32.5 v40.0 h-32.5 v-40.0Z"/><text x="186.32625" y="104.16629693930147" fill="#000000" font-family="DejaVu Sans, sans-serif" font-size="11" text-anchor="middle" dominant-baseline="central">0.23</text><path fill="#e1a49f" stroke="#e8edf0" stroke-width="0.25" d="M203.9 84.2 h32.5 v40.0 h-32.5 v-40.0Z"/><text x="220.20374999999999" y="104.16629693930147" fill="#000000" font-family="DejaVu Sans, sans-serif" font-size="11" text-anchor="middle" dominant-baseline="central">0.55</text><path fill="#dd6d68" stroke="#e8edf0" stroke-width="0.25" d="M237.8 84.2 h32.5 v40.0 h-32.5 v-40.0Z"/><text x="254.08124999999998" y="104.16629693930147" fill="#000000" font-family="DejaVu Sans, sans-serif" font-size="11" text-anchor="middle" dominant-baseline="central">0.86</text><path fill="#dd736d" stroke="#e8edf0" stroke-width="0.25" d="M271.7 84.2 h32.5 v40.0 h-32.5 v-40.0Z"/><text x="287.95874999999995" y="104.16629693930147" fill="#000000" font-family="DejaVu Sans, sans-serif" font-size="11" text-anchor="middle" dominant-baseline="central">0.83</text><path fill="#db534d" stroke="#e8edf0" stroke-width="0.25" d="M305.6 84.2 h32.5 v40.0 h-32.5 v-40.0Z"/><text x="321.83624999999995" y="104.16629693930147" fill="#ffffff" font-family="DejaVu Sans, sans-serif" font-size="11" text-anchor="middle" dominant-baseline="central">1.01</text><path fill="#dc6863" stroke="#e8edf0" stroke-width="0.25" d="M339.5 84.2 h32.5 v40.0 h-32.5 v-40.0Z"/><text x="355.71374999999995" y="104.16629693930147" fill="#000000" font-family="DejaVu Sans, sans-serif" font-size="11" text-anchor="middle" dominant-baseline="central">0.89</text><path fill="#e1a6a1" stroke="#e8edf0" stroke-width="0.25" d="M373.3 84.2 h32.5 v40.0 h-32.5 v-40.0Z"/><text x="389.59124999999995" y="104.16629693930147" fill="#000000" font-family="DejaVu Sans, sans-serif" font-size="11" text-anchor="middle" dominant-baseline="central">0.54</text><path fill="#e5d1ce" stroke="#e8edf0" stroke-width="0.25" d="M0.7 125.8 h32.5 v40.0 h-32.5 v-40.0Z"/><text x="16.93875" y="145.83281571502206" fill="#000000" font-family="DejaVu Sans, sans-serif" font-size="11" text-anchor="middle" dominant-baseline="central">0.29</text><path fill="#e5dad7" stroke="#e8edf0" stroke-width="0.25" d="M34.6 125.8 h32.5 v40.0 h-32.5 v-40.0Z"/><text x="50.81625" y="145.83281571502206" fill="#000000" font-family="DejaVu Sans, sans-serif" font-size="11" text-anchor="middle" dominant-baseline="central">0.24</text><path fill="#e2a9a5" stroke="#e8edf0" stroke-width="0.25" d="M68.4 125.8 h32.5 v40.0 h-32.5 v-40.0Z"/><text x="84.69375" y="145.83281571502206" fill="#000000" font-family="DejaVu Sans, sans-serif" font-size="11" text-anchor="middle" dominant-baseline="central">0.52</text><path fill="#e6dfdc" stroke="#e8edf0" stroke-width="0.25" d="M102.3 125.8 h32.5 v40.0 h-32.5 v-40.0Z"/><text x="118.57124999999999" y="145.83281571502206" fill="#000000" font-family="DejaVu Sans, sans-serif" font-size="11" text-anchor="middle" dominant-baseline="central">0.21</text><path fill="#e2b2ae" stroke="#e8edf0" stroke-width="0.25" d="M136.2 125.8 h32.5 v40.0 h-32.5 v-40.0Z"/><text x="152.44875" y="145.83281571502206" fill="#000000" font-family="DejaVu Sans, sans-serif" font-size="11" text-anchor="middle" dominant-baseline="central">0.47</text><path fill="#e3c0bc" stroke="#e8edf0" stroke-width="0.25" d="M170.1 125.8 h32.5 v40.0 h-32.5 v-40.0Z"/><text x="186.32625" y="145.83281571502206" fill="#000000" font-family="DejaVu Sans, sans-serif" font-size="11" text-anchor="middle" dominant-baseline="central">0.39</text><path fill="#e1a6a1" stroke="#e8edf0" stroke-width="0.25" d="M203.9 125.8 h32.5 v40.0 h-32.5 v-40.0Z"/><text x="220.20374999999999" y="145.83281571502206" fill="#000000" font-family="DejaVu Sans, sans-serif" font-size="11" text-anchor="middle" dominant-baseline="central">0.54</text><path fill="#db504a" stroke="#e8edf0" stroke-width="0.25" d="M237.8 125.8 h32.5 v40.0 h-32.5 v-40.0Z"/><text x="254.08124999999998" y="145.83281571502206" fill="#ffffff" font-family="DejaVu Sans, sans-serif" font-size="11" text-anchor="middle" dominant-baseline="central">1.03</text><path fill="#dc655f" stroke="#e8edf0" stroke-width="0.25" d="M271.7 125.8 h32.5 v40.0 h-32.5 v-40.0Z"/><text x="287.95874999999995" y="145.83281571502206" fill="#ffffff" font-family="DejaVu Sans, sans-serif" font-size="11" text-anchor="middle" dominant-baseline="central">0.91</text><path fill="#e0908c" stroke="#e8edf0" stroke-width="0.25" d="M305.6 125.8 h32.5 v40.0 h-32.5 v-40.0Z"/><text x="321.83624999999995" y="145.83281571502206" fill="#000000" font-family="DejaVu Sans, sans-serif" font-size="11" text-anchor="middle" dominant-baseline="central">0.66</text><path fill="#e0908c" stroke="#e8edf0" stroke-width="0.25" d="M339.5 125.8 h32.5 v40.0 h-32.5 v-40.0Z"/><text x="355.71374999999995" y="145.83281571502206" fill="#000000" font-family="DejaVu Sans, sans-serif" font-size="11" text-anchor="middle" dominant-baseline="central">0.66</text><path fill="#e4c9c5" stroke="#e8edf0" stroke-width="0.25" d="M373.3 125.8 h32.5 v40.0 h-32.5 v-40.0Z"/><text x="389.59124999999995" y="145.83281571502206" fill="#000000" font-family="DejaVu Sans, sans-serif" font-size="11" text-anchor="middle" dominant-baseline="central">0.34</text><path fill="#e2b0ac" stroke="#e8edf0" stroke-width="0.25" d="M0.7 167.5 h32.5 v40.0 h-32.5 v-40.0Z"/><text x="16.93875" y="187.49933449074265" fill="#000000" font-family="DejaVu Sans, sans-serif" font-size="11" text-anchor="middle" dominant-baseline="central">0.48</text><path fill="#e6e5e1" stroke="#e8edf0" stroke-width="0.25" d="M34.6 167.5 h32.5 v40.0 h-32.5 v-40.0Z"/><text x="50.81625" y="187.49933449074265" fill="#000000" font-family="DejaVu Sans, sans-serif" font-size="11" text-anchor="middle" dominant-baseline="central">0.18</text><path fill="#e4ccc8" stroke="#e8edf0" stroke-width="0.25" d="M68.4 167.5 h32.5 v40.0 h-32.5 v-40.0Z"/><text x="84.69375" y="187.49933449074265" fill="#000000" font-family="DejaVu Sans, sans-serif" font-size="11" text-anchor="middle" dominant-baseline="central">0.32</text><path fill="#e6e5e1" stroke="#e8edf0" stroke-width="0.25" d="M102.3 167.5 h32.5 v40.0 h-32.5 v-40.0Z"/><text x="118.57124999999999" y="187.49933449074265" fill="#000000" font-family="DejaVu Sans, sans-serif" font-size="11" text-anchor="middle" dominant-baseline="central">0.18</text><path fill="#e5d5d1" stroke="#e8edf0" stroke-width="0.25" d="M136.2 167.5 h32.5 v40.0 h-32.5 v-40.0Z"/><text x="152.44875" y="187.49933449074265" fill="#000000" font-family="DejaVu Sans, sans-serif" font-size="11" text-anchor="middle" dominant-baseline="central">0.27</text><path fill="#e7eae7" stroke="#e8edf0" stroke-width="0.25" d="M170.1 167.5 h32.5 v40.0 h-32.5 v-40.0Z"/><text x="186.32625" y="187.49933449074265" fill="#000000" font-family="DejaVu Sans, sans-serif" font-size="11" text-anchor="middle" dominant-baseline="central">0.15</text><path fill="#e5d3d0" stroke="#e8edf0" stroke-width="0.25" d="M203.9 167.5 h32.5 v40.0 h-32.5 v-40.0Z"/><text x="220.20374999999999" y="187.49933449074265" fill="#000000" font-family="DejaVu Sans, sans-serif" font-size="11" text-anchor="middle" dominant-baseline="central">0.28</text><path fill="#dd6d68" stroke="#e8edf0" stroke-width="0.25" d="M237.8 167.5 h32.5 v40.0 h-32.5 v-40.0Z"/><text x="254.08124999999998" y="187.49933449074265" fill="#000000" font-family="DejaVu Sans, sans-serif" font-size="11" text-anchor="middle" dominant-baseline="central">0.86</text><path fill="#df847f" stroke="#e8edf0" stroke-width="0.25" d="M271.7 167.5 h32.5 v40.0 h-32.5 v-40.0Z"/><text x="287.95874999999995" y="187.49933449074265" fill="#000000" font-family="DejaVu Sans, sans-serif" font-size="11" text-anchor="middle" dominant-baseline="central">0.73</text><path fill="#db5c56" stroke="#e8edf0" stroke-width="0.25" d="M305.6 167.5 h32.5 v40.0 h-32.5 v-40.0Z"/><text x="321.83624999999995" y="187.49933449074265" fill="#ffffff" font-family="DejaVu Sans, sans-serif" font-size="11" text-anchor="middle" dominant-baseline="central">0.96</text><path fill="#df8f8a" stroke="#e8edf0" stroke-width="0.25" d="M339.5 167.5 h32.5 v40.0 h-32.5 v-40.0Z"/><text x="355.71374999999995" y="187.49933449074265" fill="#000000" font-family="DejaVu Sans, sans-serif" font-size="11" text-anchor="middle" dominant-baseline="central">0.67</text><path fill="#e6dcd8" stroke="#e8edf0" stroke-width="0.25" d="M373.3 167.5 h32.5 v40.0 h-32.5 v-40.0Z"/><text x="389.59124999999995" y="187.49933449074265" fill="#000000" font-family="DejaVu Sans, sans-serif" font-size="11" text-anchor="middle" dominant-baseline="central">0.23</text><path fill="#e7eae7" stroke="#e8edf0" stroke-width="0.25" d="M0.7 209.2 h32.5 v40.0 h-32.5 v-40.0Z"/><text x="16.93875" y="229.16585326646324" fill="#000000" font-family="DejaVu Sans, sans-serif" font-size="11" text-anchor="middle" dominant-baseline="central">0.15</text><path fill="#e6dfdc" stroke="#e8edf0" stroke-width="0.25" d="M34.6 209.2 h32.5 v40.0 h-32.5 v-40.0Z"/><text x="50.81625" y="229.16585326646324" fill="#000000" font-family="DejaVu Sans, sans-serif" font-size="11" text-anchor="middle" dominant-baseline="central">0.21</text><path fill="#e4c5c1" stroke="#e8edf0" stroke-width="0.25" d="M68.4 209.2 h32.5 v40.0 h-32.5 v-40.0Z"/><text x="84.69375" y="229.16585326646324" fill="#000000" font-family="DejaVu Sans, sans-serif" font-size="11" text-anchor="middle" dominant-baseline="central">0.36</text><path fill="#e6e3e0" stroke="#e8edf0" stroke-width="0.25" d="M102.3 209.2 h32.5 v40.0 h-32.5 v-40.0Z"/><text x="118.57124999999999" y="229.16585326646324" fill="#000000" font-family="DejaVu Sans, sans-serif" font-size="11" text-anchor="middle" dominant-baseline="central">0.19</text><path fill="#e4cac7" stroke="#e8edf0" stroke-width="0.25" d="M136.2 209.2 h32.5 v40.0 h-32.5 v-40.0Z"/><text x="152.44875" y="229.16585326646324" fill="#000000" font-family="DejaVu Sans, sans-serif" font-size="11" text-anchor="middle" dominant-baseline="central">0.33</text><path fill="#e3bbb7" stroke="#e8edf0" stroke-width="0.25" d="M170.1 209.2 h32.5 v40.0 h-32.5 v-40.0Z"/><text x="186.32625" y="229.16585326646324" fill="#000000" font-family="DejaVu Sans, sans-serif" font-size="11" text-anchor="middle" dominant-baseline="central">0.42</text><path fill="#e7f3f0" stroke="#e8edf0" stroke-width="0.25" d="M203.9 209.2 h32.5 v40.0 h-32.5 v-40.0Z"/><text x="220.20374999999999" y="229.16585326646324" fill="#000000" font-family="DejaVu Sans, sans-serif" font-size="11" text-anchor="middle" dominant-baseline="central">0.10</text><path fill="#e3beba" stroke="#e8edf0" stroke-width="0.25" d="M237.8 209.2 h32.5 v40.0 h-32.5 v-40.0Z"/><text x="254.08124999999998" y="229.16585326646324" fill="#000000" font-family="DejaVu Sans, sans-serif" font-size="11" text-anchor="middle" dominant-baseline="central">0.40</text><path fill="#e5d1ce" stroke="#e8edf0" stroke-width="0.25" d="M271.7 209.2 h32.5 v40.0 h-32.5 v-40.0Z"/><text x="287.95874999999995" y="229.16585326646324" fill="#000000" font-family="DejaVu Sans, sans-serif" font-size="11" text-anchor="middle" dominant-baseline="central">0.29</text><path fill="#e4c7c3" stroke="#e8edf0" stroke-width="0.25" d="M305.6 209.2 h32.5 v40.0 h-32.5 v-40.0Z"/><text x="321.83624999999995" y="229.16585326646324" fill="#000000" font-family="DejaVu Sans, sans-serif" font-size="11" text-anchor="middle" dominant-baseline="central">0.35</text><path fill="#e5d1ce" stroke="#e8edf0" stroke-width="0.25" d="M339.5 209.2 h32.5 v40.0 h-32.5 v-40.0Z"/><text x="355.71374999999995" y="229.16585326646324" fill="#000000" font-family="DejaVu Sans, sans-serif" font-size="11" text-anchor="middle" dominant-baseline="central">0.29</text><path fill="#e6dfdc" stroke="#e8edf0" stroke-width="0.25" d="M373.3 209.2 h32.5 v40.0 h-32.5 v-40.0Z"/><text x="389.59124999999995" y="229.16585326646324" fill="#000000" font-family="DejaVu Sans, sans-serif" font-size="11" text-anchor="middle" dominant-baseline="central">0.21</text><path fill="#e8f5f2" stroke="#e8edf0" stroke-width="0.25" d="M0.7 250.8 h32.5 v40.0 h-32.5 v-40.0Z"/><text x="16.93875" y="270.8323720421838" fill="#000000" font-family="DejaVu Sans, sans-serif" font-size="11" text-anchor="middle" dominant-baseline="central">0.09</text><path fill="#e7f1ee" stroke="#e8edf0" stroke-width="0.25" d="M34.6 250.8 h32.5 v40.0 h-32.5 v-40.0Z"/><text x="50.81625" y="270.8323720421838" fill="#000000" font-family="DejaVu Sans, sans-serif" font-size="11" text-anchor="middle" dominant-baseline="central">0.11</text><path fill="#e7efec" stroke="#e8edf0" stroke-width="0.25" d="M68.4 250.8 h32.5 v40.0 h-32.5 v-40.0Z"/><text x="84.69375" y="270.8323720421838" fill="#000000" font-family="DejaVu Sans, sans-serif" font-size="11" text-anchor="middle" dominant-baseline="central">0.12</text><path fill="#e7efec" stroke="#e8edf0" stroke-width="0.25" d="M102.3 250.8 h32.5 v40.0 h-32.5 v-40.0Z"/><text x="118.57124999999999" y="270.8323720421838" fill="#000000" font-family="DejaVu Sans, sans-serif" font-size="11" text-anchor="middle" dominant-baseline="central">0.12</text><path fill="#e7f1ee" stroke="#e8edf0" stroke-width="0.25" d="M136.2 250.8 h32.5 v40.0 h-32.5 v-40.0Z"/><text x="152.44875" y="270.8323720421838" fill="#000000" font-family="DejaVu Sans, sans-serif" font-size="11" text-anchor="middle" dominant-baseline="central">0.11</text><path fill="#e7edea" stroke="#e8edf0" stroke-width="0.25" d="M170.1 250.8 h32.5 v40.0 h-32.5 v-40.0Z"/><text x="186.32625" y="270.8323720421838" fill="#000000" font-family="DejaVu Sans, sans-serif" font-size="11" text-anchor="middle" dominant-baseline="central">0.13</text><path fill="#e5d5d1" stroke="#e8edf0" stroke-width="0.25" d="M203.9 250.8 h32.5 v40.0 h-32.5 v-40.0Z"/><text x="220.20374999999999" y="270.8323720421838" fill="#000000" font-family="DejaVu Sans, sans-serif" font-size="11" text-anchor="middle" dominant-baseline="central">0.27</text><path fill="#e4c5c1" stroke="#e8edf0" stroke-width="0.25" d="M237.8 250.8 h32.5 v40.0 h-32.5 v-40.0Z"/><text x="254.08124999999998" y="270.8323720421838" fill="#000000" font-family="DejaVu Sans, sans-serif" font-size="11" text-anchor="middle" dominant-baseline="central">0.36</text><path fill="#e4c3bf" stroke="#e8edf0" stroke-width="0.25" d="M271.7 250.8 h32.5 v40.0 h-32.5 v-40.0Z"/><text x="287.95874999999995" y="270.8323720421838" fill="#000000" font-family="DejaVu Sans, sans-serif" font-size="11" text-anchor="middle" dominant-baseline="central">0.37</text><path fill="#e3c0bc" stroke="#e8edf0" stroke-width="0.25" d="M305.6 250.8 h32.5 v40.0 h-32.5 v-40.0Z"/><text x="321.83624999999995" y="270.8323720421838" fill="#000000" font-family="DejaVu Sans, sans-serif" font-size="11" text-anchor="middle" dominant-baseline="central">0.39</text><path fill="#e7f3f0" stroke="#e8edf0" stroke-width="0.25" d="M339.5 250.8 h32.5 v40.0 h-32.5 v-40.0Z"/><text x="355.71374999999995" y="270.8323720421838" fill="#000000" font-family="DejaVu Sans, sans-serif" font-size="11" text-anchor="middle" dominant-baseline="central">0.10</text><path fill="#e3c2be" stroke="#e8edf0" stroke-width="0.25" d="M373.3 250.8 h32.5 v40.0 h-32.5 v-40.0Z"/><text x="389.59124999999995" y="270.8323720421838" fill="#000000" font-family="DejaVu Sans, sans-serif" font-size="11" text-anchor="middle" dominant-baseline="central">0.38</text><text x="16.93875" y="-1.6666607510288236" fill="#2e4756" font-family="DejaVu Sans, sans-serif" font-size="11" text-anchor="middle" dominant-baseline="bottom">00:00</text><text x="50.81625" y="-1.6666607510288236" fill="#2e4756" font-family="DejaVu Sans, sans-serif" font-size="11" text-anchor="middle" dominant-baseline="bottom">02:00</text><text x="84.69375" y="-1.6666607510288236" fill="#2e4756" font-family="DejaVu Sans, sans-serif" font-size="11" text-anchor="middle" dominant-baseline="bottom">04:00</text><text x="118.57124999999999" y="-1.6666607510288236" fill="#2e4756" font-family="DejaVu Sans, sans-serif" font-size="11" text-anchor="middle" dominant-baseline="bottom">06:00</text><text x="152.44875" y="-1.6666607510288236" fill="#2e4756" font-family="DejaVu Sans, sans-serif" font-size="11" text-anchor="middle" dominant-baseline="bottom">08:00</text><text x="186.32625" y="-1.6666607510288236" fill="#2e4756" font-family="DejaVu Sans, sans-serif" font-size="11" text-anchor="middle" dominant-baseline="bottom">10:00</text><text x="220.20374999999999" y="-1.6666607510288236" fill="#2e4756" font-family="DejaVu Sans, sans-serif" font-size="11" text-anchor="middle" dominant-baseline="bottom">12:00</text><text x="254.08124999999998" y="-1.6666607510288236" fill="#2e4756" font-family="DejaVu Sans, sans-serif" font-size="11" text-anchor="middle" dominant-baseline="bottom">14:00</text><text x="287.95875" y="-1.6666607510288236" fill="#2e4756" font-family="DejaVu Sans, sans-serif" font-size="11" text-anchor="middle" dominant-baseline="bottom">16:00</text><text x="321.83624999999995" y="-1.6666607510288236" fill="#2e4756" font-family="DejaVu Sans, sans-serif" font-size="11" text-anchor="middle" dominant-baseline="bottom">18:00</text><text x="355.71375" y="-1.6666607510288236" fill="#2e4756" font-family="DejaVu Sans, sans-serif" font-size="11" text-anchor="middle" dominant-baseline="bottom">20:00</text><text x="389.59124999999995" y="-1.6666607510288236" fill="#2e4756" font-family="DejaVu Sans, sans-serif" font-size="11" text-anchor="middle" dominant-baseline="bottom">22:00</text><text x="-1.3551" y="20.833259387860295" fill="#2e4756" font-family="DejaVu Sans, sans-serif" font-size="11" text-anchor="end" dominant-baseline="central">Mon</text><text x="-1.3551" y="62.499778163580885" fill="#2e4756" font-family="DejaVu Sans, sans-serif" font-size="11" text-anchor="end" dominant-baseline="central">Tue</text><text x="-1.3551" y="104.16629693930147" fill="#2e4756" font-family="DejaVu Sans, sans-serif" font-size="11" text-anchor="end" dominant-baseline="central">Wed</text><text x="-1.3551" y="145.83281571502206" fill="#2e4756" font-family="DejaVu Sans, sans-serif" font-size="11" text-anchor="end" dominant-baseline="central">Thu</text><text x="-1.3551" y="187.49933449074265" fill="#2e4756" font-family="DejaVu Sans, sans-serif" font-size="11" text-anchor="end" dominant-baseline="central">Fri</text><text x="-1.3551" y="229.16585326646324" fill="#2e4756" font-family="DejaVu Sans, sans-serif" font-size="11" text-anchor="end" dominant-baseline="central">Sat</text><text x="-1.3551" y="270.8323720421838" fill="#2e4756" font-family="DejaVu Sans, sans-serif" font-size="11" text-anchor="end" dominant-baseline="central">Sun</text><path fill="#db504a" d="M420.5 0.0 h16.0 v5.6 h-16.0 v-5.6Z"/><path fill="#db524c" d="M420.5 4.6 h16.0 v5.6 h-16.0 v-5.6Z"/><path fill="#db554f" d="M420.5 9.1 h16.0 v5.6 h-16.0 v-5.6Z"/><path fill="#db5752" d="M420.5 13.7 h16.0 v5.6 h-16.0 v-5.6Z"/><path fill="#db5a54" d="M420.5 18.2 h16.0 v5.6 h-16.0 v-5.6Z"/><path fill="#dc5d57" d="M420.5 22.8 h16.0 v5.6 h-16.0 v-5.6Z"/><path fill="#dc5f5a" d="M420.5 27.3 h16.0 v5.6 h-16.0 v-5.6Z"/><path fill="#dc625c" d="M420.5 31.9 h16.0 v5.6 h-16.0 v-5.6Z"/><path fill="#dc645f" d="M420.5 36.5 h16.0 v5.6 h-16.0 v-5.6Z"/><path fill="#dc6762" d="M420.5 41.0 h16.0 v5.6 h-16.0 v-5.6Z"/><path fill="#dd6a64" d="M420.5 45.6 h16.0 v5.6 h-16.0 v-5.6Z"/><path fill="#dd6c67" d="M420.5 50.1 h16.0 v5.6 h-16.0 v-5.6Z"/><path fill="#dd6f6a" d="M420.5 54.7 h16.0 v5.6 h-16.0 v-5.6Z"/><path fill="#dd726c" d="M420.5 59.2 h16.0 v5.6 h-16.0 v-5.6Z"/><path fill="#dd746f" d="M420.5 63.8 h16.0 v5.6 h-16.0 v-5.6Z"/><path fill="#de7772" d="M420.5 68.4 h16.0 v5.6 h-16.0 v-5.6Z"/><path fill="#de7974" d="M420.5 72.9 h16.0 v5.6 h-16.0 v-5.6Z"/><path fill="#de7c77" d="M420.5 77.5 h16.0 v5.6 h-16.0 v-5.6Z"/><path fill="#de7f7a" d="M420.5 82.0 h16.0 v5.6 h-16.0 v-5.6Z"/><path fill="#de817c" d="M420.5 86.6 h16.0 v5.6 h-16.0 v-5.6Z"/><path fill="#df847f" d="M420.5 91.1 h16.0 v5.6 h-16.0 v-5.6Z"/><path fill="#df8782" d="M420.5 95.7 h16.0 v5.6 h-16.0 v-5.6Z"/><path fill="#df8984" d="M420.5 100.3 h16.0 v5.6 h-16.0 v-5.6Z"/><path fill="#df8c87" d="M420.5 104.8 h16.0 v5.6 h-16.0 v-5.6Z"/><path fill="#df8e8a" d="M420.5 109.4 h16.0 v5.6 h-16.0 v-5.6Z"/><path fill="#e0918c" d="M420.5 113.9 h16.0 v5.6 h-16.0 v-5.6Z"/><path fill="#e0948f" d="M420.5 118.5 h16.0 v5.6 h-16.0 v-5.6Z"/><path fill="#e09692" d="M420.5 123.0 h16.0 v5.6 h-16.0 v-5.6Z"/><path fill="#e09994" d="M420.5 127.6 h16.0 v5.6 h-16.0 v-5.6Z"/><path fill="#e09b97" d="M420.5 132.2 h16.0 v5.6 h-16.0 v-5.6Z"/><path fill="#e19e9a" d="M420.5 136.7 h16.0 v5.6 h-16.0 v-5.6Z"/><path fill="#e1a19c" d="M420.5 141.3 h16.0 v5.6 h-16.0 v-5.6Z"/><path fill="#e1a39f" d="M420.5 145.8 h16.0 v5.6 h-16.0 v-5.6Z"/><path fill="#e1a6a2" d="M420.5 150.4 h16.0 v5.6 h-16.0 v-5.6Z"/><path fill="#e2a9a4" d="M420.5 154.9 h16.0 v5.6 h-16.0 v-5.6Z"/><path fill="#e2aba7" d="M420.5 159.5 h16.0 v5.6 h-16.0 v-5.6Z"/><path fill="#e2aeaa" d="M420.5 164.1 h16.0 v5.6 h-16.0 v-5.6Z"/><path fill="#e2b0ac" d="M420.5 168.6 h16.0 v5.6 h-16.0 v-5.6Z"/><path fill="#e2b3af" d="M420.5 173.2 h16.0 v5.6 h-16.0 v-5.6Z"/><path fill="#e3b6b2" d="M420.5 177.7 h16.0 v5.6 h-16.0 v-5.6Z"/><path fill="#e3b8b4" d="M420.5 182.3 h16.0 v5.6 h-16.0 v-5.6Z"/><path fill="#e3bbb7" d="M420.5 186.8 h16.0 v5.6 h-16.0 v-5.6Z"/><path fill="#e3beba" d="M420.5 191.4 h16.0 v5.6 h-16.0 v-5.6Z"/><path fill="#e3c0bc" d="M420.5 196.0 h16.0 v5.6 h-16.0 v-5.6Z"/><path fill="#e4c3bf" d="M420.5 200.5 h16.0 v5.6 h-16.0 v-5.6Z"/><path fill="#e4c5c2" d="M420.5 205.1 h16.0 v5.6 h-16.0 v-5.6Z"/><path fill="#e4c8c4" d="M420.5 209.6 h16.0 v5.6 h-16.0 v-5.6Z"/><path fill="#e4cbc7" d="M420.5 214.2 h16.0 v5.6 h-16.0 v-5.6Z"/><path fill="#e4cdca" d="M420.5 218.7 h16.0 v5.6 h-16.0 v-5.6Z"/><path fill="#e5d0cc" d="M420.5 223.3 h16.0 v5.6 h-16.0 v-5.6Z"/><path fill="#e5d2cf" d="M420.5 227.9 h16.0 v5.6 h-16.0 v-5.6Z"/><path fill="#e5d5d2" d="M420.5 232.4 h16.0 v5.6 h-16.0 v-5.6Z"/><path fill="#e5d8d4" d="M420.5 237.0 h16.0 v5.6 h-16.0 v-5.6Z"/><path fill="#e5dad7" d="M420.5 241.5 h16.0 v5.6 h-16.0 v-5.6Z"/><path fill="#e6ddda" d="M420.5 246.1 h16.0 v5.6 h-16.0 v-5.6Z"/><path fill="#e6e0dc" d="M420.5 250.7 h16.0 v5.6 h-16.0 v-5.6Z"/><path fill="#e6e2df" d="M420.5 255.2 h16.0 v5.6 h-16.0 v-5.6Z"/><path fill="#e6e5e2" d="M420.5 259.8 h16.0 v5.6 h-16.0 v-5.6Z"/><path fill="#e6e7e4" d="M420.5 264.3 h16.0 v5.6 h-16.0 v-5.6Z"/><path fill="#e7eae7" d="M420.5 268.9 h16.0 v5.6 h-16.0 v-5.6Z"/><path fill="#e7edea" d="M420.5 273.4 h16.0 v5.6 h-16.0 v-5.6Z"/><path fill="#e7efec" d="M420.5 278.0 h16.0 v5.6 h-16.0 v-5.6Z"/><path fill="#e7f2ef" d="M420.5 282.6 h16.0 v5.6 h-16.0 v-5.6Z"/><path fill="#e8f5f2" d="M420.5 287.1 h16.0 v5.6 h-16.0 v-5.6Z"/><path fill="none" stroke="#2e4756" stroke-width="0.75" d="M420.5 0 h16.0 v291.7 h-16.0 v-291.7Z"/><path stroke="#2e4756" stroke-width="0.75" d="M436.53 291.66563143004413 h4"/><text x="445.53" y="291.66563143004413" fill="#2e4756" font-family="DejaVu Sans, sans-serif" font-size="11" text-anchor="start" dominant-baseline="central">0.09</text><path stroke="#2e4756" stroke-width="0.75" d="M436.53 218.74922357253308 h4"/><text x="445.53" y="218.74922357253308" fill="#2e4756" font-family="DejaVu Sans, sans-serif" font-size="11" text-anchor="start" dominant-baseline="central">0.33</text><path stroke="#2e4756" stroke-width="0.75" d="M436.53 145.83281571502206 h4"/><text x="445.53" y="145.83281571502206" fill="#2e4756" font-family="DejaVu Sans, sans-serif" font-size="11" text-anchor="start" dominant-baseline="central">0.56</text><path stroke="#2e4756" stroke-width="0.75" d="M436.53 72.91640785751103 h4"/><text x="445.53" y="72.91640785751103" fill="#2e4756" font-family="DejaVu Sans, sans-serif" font-size="11" text-anchor="start" dominant-baseline="central">0.80</text><path stroke="#2e4756" stroke-width="0.75" d="M436.53 0.0 h4"/><text x="445.53" y="0.0" fill="#2e4756" font-family="DejaVu Sans, sans-serif" font-size="11" text-anchor="start" dominant-baseline="central">1.03</text></g></svg>