<svg xmlns="http://www.w3.org/2000/svg" width="560" height="360" viewBox="0 0 560 360"><path fill="#0f1a20" d="M0 0 h560 v360 h-560 v-360Z"/><text transform="translate(-107.23999999999997, 17)" fill="#c9d4d9" font-family="DejaVu Sans, sans-serif" font-weight="bold" font-size="15" x="280.0" y="9.0">P95 Latency by Service (ms)</text><defs><clipPath id="plot-clip"><rect x="0" y="0" width="431.76" height="298.5"/></clipPath></defs><g><path stroke="#ffffff14" stroke-dasharray="None" d="M0 19.258064516129032 h431.76 M0 48.14516129032258 h431.76 M0 77.03225806451613 h431.76 M0 105.91935483870967 h431.76 M0 134.80645161290323 h431.76 M0 163.69354838709677 h431.76 M0 192.5806451612903 h431.76 M0 221.46774193548387 h431.76 M0 250.3548387096774 h431.76 M0 279.241935483871 h431.76" transform="translate(100.24000000000001, 43.5)"/><g font-size="11" font-family="DejaVu Sans, sans-serif" fill="#c9d4d9" transform="translate(94.24000000000001, 43.5)"><text x="0" y="19.258064516129032" dominant-baseline="central" transform="translate(-27.28, 0)">auth</text><text x="0" y="48.14516129032258" dominant-baseline="central" transform="translate(-40.12, 0)">search</text><text x="0" y="77.03225806451613" dominant-baseline="central" transform="translate(-72.24000000000001, 0)">recommend</text><text x="0" y="105.91935483870967" dominant-baseline="central" transform="translate(-37.370000000000005, 0)">media</text><text x="0" y="134.80645161290323" dominant-baseline="central" transform="translate(-34.31, 0)">notify</text><text x="0" y="163.69354838709677" dominant-baseline="central" transform="translate(-46.82, 0)">ml-infer</text><text x="0" y="192.5806451612903" dominant-baseline="central" transform="translate(-54.800000000000004, 0)">checkout</text><text x="0" y="221.46774193548387" dominant-baseline="central" transform="translate(-53.46, 0)">payment</text><text x="0" y="250.3548387096774" dominant-baseline="central" transform="translate(-21.83, 0)">cdn</text><text x="0" y="279.241935483871" dominant-baseline="central" transform="translate(-53.63, 0)">analytics</text></g></g><g><path stroke="#ffffff14" stroke-dasharray="None" d="M431.76 0 v298.5 M345.408 0 v298.5 M259.056 0 v298.5 M172.704 0 v298.5 M86.352 0 v298.5 M0.0 0 v298.5 M431.76 0 v298.5" transform="translate(100.24000000000001, 43.5)"/><g font-size="11" font-family="DejaVu Sans, sans-serif" fill="#c9d4d9" transform="translate(100.24000000000001, 61.5)"><text x="431.76" y="298.5" transform="translate(-7.63, 0)">90</text><text x="345.408" y="298.5" transform="translate(-7.63, 0)">72</text><text x="259.056" y="298.5" transform="translate(-7.63, 0)">54</text><text x="172.704" y="298.5" transform="translate(-7.63, 0)">36</text><text x="86.352" y="298.5" transform="translate(-7.63, 0)">18</text><text x="0.0" y="298.5" transform="translate(-3.815, 0)">0</text></g></g><g><g opacity="0.8" transform="translate(100.24000000000001, 43.5)"><path d="M0.0 9.6 h57.6 v19.3 h-57.6 v-19.3Z" fill="#5fab9e"/><path d="M0.0 38.5 h182.3 v19.3 h-182.3 v-19.3Z" fill="#db504a"/><path d="M0.0 67.4 h115.1 v19.3 h-115.1 v-19.3Z" fill="#f7dd72"/><path d="M0.0 96.3 h321.4 v19.3 h-321.4 v-19.3Z" fill="#f58b51"/><path d="M0.0 125.2 h91.1 v19.3 h-91.1 v-19.3Z" fill="#7ec8bc"/><path d="M0.0 154.1 h422.2 v19.3 h-422.2 v-19.3Z" fill="#e87a74"/><path d="M0.0 183.0 h148.7 v19.3 h-148.7 v-19.3Z" fill="#a8d5cd"/><path d="M0.0 211.8 h215.9 v19.3 h-215.9 v-19.3Z" fill="#f9e99a"/><path d="M0.0 240.7 h72.0 v19.3 h-72.0 v-19.3Z" fill="#5fab9e"/><path d="M0.0 269.6 h345.4 v19.3 h-345.4 v-19.3Z" fill="#db504a"/></g><path stroke="#ffffff14" stroke-dasharray="None" d="M0 298.5 h431.76" transform="translate(100.24000000000001, 43.5)"/><path stroke="#ffffff14" stroke-dasharray="None" d="M0 0 h431.76" transform="translate(100.24000000000001, 43.5)"/><path stroke="#ffffff14" stroke-dasharray="None" d="M0 0 v298.5" transform="translate(100.24000000000001, 43.5)"/><path stroke="#ffffff14" stroke-dasharray="None" d="M431.76 0 v298.5" transform="translate(100.24000000000001, 43.5)"/></g><path d="M100.24000000000001 43.5 v298.5 M100.24000000000001 342.0 h431.76" stroke="#999" stroke-width="1.5" fill="none"/></svg>