<svg xmlns="http://www.w3.org/2000/svg" width="820" height="420" viewBox="0 0 820 420"><path fill="#ffffff" d="M0 0 h820 v420 h-820 v-420Z"/><text transform="translate(-109.07, 17)" fill="#2e4756" font-family="DejaVu Sans, sans-serif" font-weight="bold" font-size="15" x="410.0" y="10.5">Monthly Active Users by Plan</text><defs><clipPath id="plot-clip"><rect x="0" y="0" width="588.87" height="352.5"/></clipPath></defs><g><path stroke="#e8edf0" stroke-dasharray="None" d="M0 0.0 h588.87 M0 70.5 h588.87 M0 141.0 h588.87 M0 211.5 h588.87 M0 282.0 h588.87 M0 352.5 h588.87" transform="translate(132.73, 46.5)"/><g font-size="11" font-family="DejaVu Sans, sans-serif" fill="#2e4756" transform="translate(126.72999999999999, 46.5)"><text x="0" y="0.0" transform="translate(-34.33, 3.5)">5,500</text><text x="0" y="70.5" transform="translate(-34.33, 3.5)">4,400</text><text x="0" y="141.0" transform="translate(-34.33, 3.5)">3,300</text><text x="0" y="211.5" transform="translate(-34.33, 3.5)">2,200</text><text x="0" y="282.0" transform="translate(-34.33, 3.5)">1,100</text><text x="0" y="352.5" transform="translate(-7.63, 3.5)">0</text></g></g><g><path stroke="#e8edf0" stroke-dasharray="None" d="M0.0 0 v352.5 M53.53363636363637 0 v352.5 M107.06727272727274 0 v352.5 M160.60090909090908 0 v352.5 M214.13454545454547 0 v352.5 M267.66818181818184 0 v352.5 M321.20181818181817 0 v352.5 M374.73545454545456 0 v352.5 M428.26909090909095 0 v352.5 M481.8027272727273 0 v352.5 M535.3363636363637 0 v352.5 M588.87 0 v352.5" transform="translate(132.73, 46.5)"/><g font-size="11" font-family="DejaVu Sans, sans-serif" fill="#2e4756" transform="translate(132.73, 64.5)"><text x="0.0" y="352.5" transform="translate(-9.25, 0)">Jan</text><text x="53.53363636363637" y="352.5" transform="translate(-10.950000000000001, 0)">Feb</text><text x="107.06727272727274" y="352.5" transform="translate(-11.315, 0)">Mar</text><text x="160.60090909090908" y="352.5" transform="translate(-10.38, 0)">Apr</text><text x="214.13454545454547" y="352.5" transform="translate(-12.399999999999999, 0)">May</text><text x="267.66818181818184" y="352.5" transform="translate(-9.38, 0)">Jun</text><text x="321.20181818181817" y="352.5" transform="translate(-7.24, 0)">Jul</text><text x="374.73545454545456" y="352.5" transform="translate(-11.72, 0)">Aug</text><text x="428.26909090909095" y="352.5" transform="translate(-11.31, 0)">Sep</text><text x="481.8027272727273" y="352.5" transform="translate(-10.379999999999999, 0)">Oct</text><text x="535.3363636363637" y="352.5" transform="translate(-11.71, 0)">Nov</text><text x="588.87" y="352.5" transform="translate(-11.61, 0)">Dec</text></g></g><g><path d="M132.73 297.41590909090905 L186.26363636363635 279.6627272727273 L239.79727272727274 264.5372727272727 L293.3309090909091 242.2977272727273 L346.86454545454546 223.71136363636364 L400.3981818181818 200.44636363636363 L453.93181818181813 179.6809090909091 L507.4654545454546 160.005 L560.9990909090909 138.91909090909093 L614.5327272727272 113.15454545454543 L668.0663636363637 87.8386363636364 L721.6 50.66590909090911 L721.6 399.0 L132.73 399.0z" fill="#f7dd72" fill-opacity="1.0" stroke="#f7dd72" stroke-width="1.5"/><path d="M132.73 300.3 L186.26363636363635 283.6363636363636 L239.79727272727274 269.5363636363636 L293.3309090909091 248.38636363636365 L346.86454545454546 231.08181818181816 L400.3981818181818 209.29090909090908 L453.93181818181813 190.06363636363636 L507.4654545454546 172.1181818181818 L560.9990909090909 152.89090909090908 L614.5327272727272 129.17727272727274 L668.0663636363637 106.10454545454547 L721.6 71.49545454545455 L721.6 399.0 L132.73 399.0z" fill="#db504a" fill-opacity="1.0" stroke="#db504a" stroke-width="1.5"/><path d="M132.73 322.0909090909091 L186.26363636363635 310.55454545454546 L239.79727272727274 301.58181818181816 L293.3309090909091 287.4818181818182 L346.86454545454546 277.22727272727275 L400.3981818181818 264.4090909090909 L453.93181818181813 252.87272727272727 L507.4654545454546 241.97727272727272 L560.9990909090909 232.36363636363637 L614.5327272727272 217.62272727272727 L668.0663636363637 203.52272727272728 L721.6 181.0909090909091 L721.6 399.0 L132.73 399.0z" fill="#5fab9e" fill-opacity="1.0" stroke="#5fab9e" stroke-width="1.5"/></g><g><rect transform="translate(-5.3685, -3.8249999999999997)" x="640.6515" y="54.325" width="82.317" height="58.65" fill="#f5f5f5" fill-opacity="0.85" stroke="none"/><g><rect y="56.325" x="640.6515" width="13" height="13" fill="#f7dd72"/><text y="66.075" x="655.6515" font-size="13" font-family="DejaVu Sans, sans-serif" fill="#2e4756">Enterprise</text></g><g><rect y="73.325" x="640.6515" width="13" height="13" fill="#db504a"/><text y="83.075" x="655.6515" font-size="13" font-family="DejaVu Sans, sans-serif" fill="#2e4756">Pro</text></g><g><rect y="90.325" x="640.6515" width="13" height="13" fill="#5fab9e"/><text y="100.075" x="655.6515" font-size="13" font-family="DejaVu Sans, sans-serif" fill="#2e4756">Free</text></g></g><path d="M132.73 46.5 v352.5 M132.73 399.0 h588.87" stroke="#999" stroke-width="1.5" fill="none"/></svg>