<svg xmlns="http://www.w3.org/2000/svg" width="820" height="420" viewBox="0 0 820 420"><path fill="#ffffff" d="M0 0 h820 v420 h-820 v-420Z"/><text transform="translate(-109.07, 17)" fill="#2e4756" font-family="DejaVu Sans, sans-serif" font-weight="bold" font-size="15" x="410.0" y="10.5">Monthly Active Users by Plan</text><defs><clipPath id="plot-clip"><rect x="0" y="0" width="703.67" height="352.5"/></clipPath></defs><g><path stroke="#e8edf0" stroke-dasharray="None" d="M0 0.0 h703.67 M0 70.5 h703.67 M0 141.0 h703.67 M0 211.5 h703.67 M0 282.0 h703.67 M0 352.5 h703.67" transform="translate(75.33, 46.5)"/><g font-size="11" font-family="DejaVu Sans, sans-serif" fill="#2e4756" transform="translate(69.33, 46.5)"><text x="0" y="0.0" transform="translate(-34.33, 3.5)">5,500</text><text x="0" y="70.5" transform="translate(-34.33, 3.5)">4,400</text><text x="0" y="141.0" transform="translate(-34.33, 3.5)">3,300</text><text x="0" y="211.5" transform="translate(-34.33, 3.5)">2,200</text><text x="0" y="282.0" transform="translate(-34.33, 3.5)">1,100</text><text x="0" y="352.5" transform="translate(-7.63, 3.5)">0</text></g></g><g><path stroke="#e8edf0" stroke-dasharray="None" d="M0.0 0 v352.5 M63.97 0 v352.5 M127.94 0 v352.5 M191.90999999999997 0 v352.5 M255.88 0 v352.5 M319.84999999999997 0 v352.5 M383.81999999999994 0 v352.5 M447.78999999999996 0 v352.5 M511.76 0 v352.5 M575.73 0 v352.5 M639.6999999999999 0 v352.5 M703.67 0 v352.5" transform="translate(75.33, 46.5)"/><g font-size="11" font-family="DejaVu Sans, sans-serif" fill="#2e4756" transform="translate(75.33, 64.5)"><text x="0.0" y="352.5" transform="translate(-9.25, 0)">Jan</text><text x="63.97" y="352.5" transform="translate(-10.950000000000001, 0)">Feb</text><text x="127.94" y="352.5" transform="translate(-11.315, 0)">Mar</text><text x="191.90999999999997" y="352.5" transform="translate(-10.38, 0)">Apr</text><text x="255.88" y="352.5" transform="translate(-12.399999999999999, 0)">May</text><text x="319.84999999999997" y="352.5" transform="translate(-9.38, 0)">Jun</text><text x="383.81999999999994" y="352.5" transform="translate(-7.24, 0)">Jul</text><text x="447.78999999999996" y="352.5" transform="translate(-11.72, 0)">Aug</text><text x="511.76" y="352.5" transform="translate(-11.31, 0)">Sep</text><text x="575.73" y="352.5" transform="translate(-10.379999999999999, 0)">Oct</text><text x="639.6999999999999" y="352.5" transform="translate(-11.71, 0)">Nov</text><text x="703.67" y="352.5" transform="translate(-11.61, 0)">Dec</text></g></g><g><path d="M75.33 322.0909090909091 L139.3 310.55454545454546 L203.26999999999998 301.58181818181816 L267.23999999999995 287.4818181818182 L331.21 277.22727272727275 L395.17999999999995 264.4090909090909 L459.1499999999999 252.87272727272727 L523.12 241.97727272727272 L587.09 232.36363636363637 L651.0600000000001 217.62272727272727 L715.03 203.52272727272728 L779.0 181.0909090909091 L779.0 399.0 L75.33 399.0z" fill="#5fab9e" fill-opacity="0.3" stroke="#5fab9e" stroke-width="1.5"/><path d="M75.33 300.3 L139.3 283.6363636363636 L203.26999999999998 269.5363636363636 L267.23999999999995 248.38636363636363 L331.21 231.08181818181816 L395.17999999999995 209.29090909090908 L459.1499999999999 190.06363636363636 L523.12 172.11818181818182 L587.09 152.8909090909091 L651.0600000000001 129.17727272727274 L715.03 106.10454545454547 L779.0 71.49545454545455 L779.0 399.0 L75.33 399.0z" fill="#db504a" fill-opacity="0.3" stroke="#db504a" stroke-width="1.5"/><path d="M75.33 297.41590909090905 L139.3 279.6627272727273 L203.26999999999998 264.5372727272727 L267.23999999999995 242.2977272727273 L331.21 223.71136363636361 L395.17999999999995 200.44636363636363 L459.1499999999999 179.6809090909091 L523.12 160.00499999999997 L587.09 138.91909090909087 L651.0600000000001 113.15454545454548 L715.03 87.8386363636364 L779.0 50.66590909090911 L779.0 399.0 L75.33 399.0z" fill="#f7dd72" fill-opacity="0.3" stroke="#f7dd72" stroke-width="1.5"/></g><g><rect transform="translate(-5.3685, -3.8249999999999997)" x="698.0515" y="54.325" width="82.317" height="58.65" fill="#f5f5f5" fill-opacity="0.85" stroke="none"/><g><rect y="56.325" x="698.0515" width="13" height="13" fill="#5fab9e"/><text y="66.075" x="713.0515" font-size="13" font-family="DejaVu Sans, sans-serif" fill="#2e4756">Free</text></g><g><rect y="73.325" x="698.0515" width="13" height="13" fill="#db504a"/><text y="83.075" x="713.0515" font-size="13" font-family="DejaVu Sans, sans-serif" fill="#2e4756">Pro</text></g><g><rect y="90.325" x="698.0515" width="13" height="13" fill="#f7dd72"/><text y="100.075" x="713.0515" font-size="13" font-family="DejaVu Sans, sans-serif" fill="#2e4756">Enterprise</text></g></g><path d="M75.33 46.5 v352.5 M75.33 399.0 h703.67" stroke="#999" stroke-width="1.5" fill="none"/></svg>