<svg xmlns="http://www.w3.org/2000/svg" width="820" height="420" viewBox="0 0 820 420"><path fill="#ffffff" d="M0 0 h820 v420 h-820 v-420Z"/><text transform="translate(-109.07, 17)" fill="#2e4756" font-family="DejaVu Sans, sans-serif" font-weight="bold" font-size="15" x="410.0" y="10.5">Monthly Active Users by Plan</text><defs><clipPath id="plot-clip"><rect x="0" y="0" width="588.87" height="341.5"/></clipPath></defs><g><path stroke="#e8edf0" stroke-dasharray="None" d="M0 0.0 h588.87 M0 68.3 h588.87 M0 136.6 h588.87 M0 204.9 h588.87 M0 273.2 h588.87 M0 341.5 h588.87" transform="translate(132.73, 46.5)"/><g font-size="11" font-family="DejaVu Sans, sans-serif" fill="#2e4756" transform="translate(126.72999999999999, 46.5)"><text x="0" y="0.0" transform="translate(-34.33, 3.5)">5,500</text><text x="0" y="68.3" transform="translate(-34.33, 3.5)">4,400</text><text x="0" y="136.6" transform="translate(-34.33, 3.5)">3,300</text><text x="0" y="204.9" transform="translate(-34.33, 3.5)">2,200</text><text x="0" y="273.2" transform="translate(-34.33, 3.5)">1,100</text><text x="0" y="341.5" transform="translate(-7.63, 3.5)">0</text></g></g><g><path stroke="#e8edf0" stroke-dasharray="None" d="M0.0 0 v341.5 M53.53363636363637 0 v341.5 M107.06727272727274 0 v341.5 M160.60090909090908 0 v341.5 M214.13454545454547 0 v341.5 M267.66818181818184 0 v341.5 M321.20181818181817 0 v341.5 M374.73545454545456 0 v341.5 M428.26909090909095 0 v341.5 M481.8027272727273 0 v341.5 M535.3363636363637 0 v341.5 M588.87 0 v341.5" transform="translate(132.73, 46.5)"/><g font-size="11" font-family="DejaVu Sans, sans-serif" fill="#2e4756" transform="translate(132.73, 64.5)"><text x="0.0" y="341.5" transform="translate(-9.25, 0)">Jan</text><text x="53.53363636363637" y="341.5" transform="translate(-10.950000000000001, 0)">Feb</text><text x="107.06727272727274" y="341.5" transform="translate(-11.315, 0)">Mar</text><text x="160.60090909090908" y="341.5" transform="translate(-10.38, 0)">Apr</text><text x="214.13454545454547" y="341.5" transform="translate(-12.399999999999999, 0)">May</text><text x="267.66818181818184" y="341.5" transform="translate(-9.38, 0)">Jun</text><text x="321.20181818181817" y="341.5" transform="translate(-7.24, 0)">Jul</text><text x="374.73545454545456" y="341.5" transform="translate(-11.72, 0)">Aug</text><text x="428.26909090909095" y="341.5" transform="translate(-11.31, 0)">Sep</text><text x="481.8027272727273" y="341.5" transform="translate(-10.379999999999999, 0)">Oct</text><text x="535.3363636363637" y="341.5" transform="translate(-11.71, 0)">Nov</text><text x="588.87" y="341.5" transform="translate(-11.61, 0)">Dec</text></g></g><g><path d="M132.73 289.58590909090907 L186.26363636363635 272.3867272727273 L239.79727272727274 257.7332727272727 L293.3309090909091 236.18772727272727 L346.86454545454546 218.18136363636364 L400.3981818181818 195.64236363636365 L453.93181818181813 175.5249090909091 L507.4654545454546 156.463 L560.9990909090909 136.0350909090909 L614.5327272727272 111.07454545454544 L668.0663636363637 86.54863636363638 L721.6 50.535909090909115 L721.6 388.0 L132.73 388.0z" fill="#f7dd72" fill-opacity="1.0" stroke="#f7dd72" stroke-width="1.5"/><path d="M132.73 292.38 L186.26363636363635 276.23636363636365 L239.79727272727274 262.5763636363636 L293.3309090909091 242.08636363636364 L346.86454545454546 225.32181818181817 L400.3981818181818 204.21090909090907 L453.93181818181813 185.58363636363634 L507.4654545454546 168.1981818181818 L560.9990909090909 149.57090909090908 L614.5327272727272 126.5972727272727 L668.0663636363637 104.24454545454546 L721.6 70.71545454545458 L721.6 388.0 L132.73 388.0z" fill="#db504a" fill-opacity="1.0" stroke="#db504a" stroke-width="1.5"/><path d="M132.73 313.4909090909091 L186.26363636363635 302.31454545454545 L239.79727272727274 293.6218181818182 L293.3309090909091 279.9618181818182 L346.86454545454546 270.0272727272727 L400.3981818181818 257.6090909090909 L453.93181818181813 246.43272727272728 L507.4654545454546 235.87727272727273 L560.9990909090909 226.56363636363636 L614.5327272727272 212.28272727272727 L668.0663636363637 198.62272727272727 L721.6 176.8909090909091 L721.6 388.0 L132.73 388.0z" fill="#5fab9e" fill-opacity="1.0" stroke="#5fab9e" stroke-width="1.5"/></g><g><rect transform="translate(-5.3685, -3.8249999999999997)" x="640.6515" y="54.325" width="82.317" height="58.65" fill="#f5f5f5" fill-opacity="0.85" stroke="none"/><g><rect y="56.325" x="640.6515" width="13" height="13" fill="#f7dd72"/><text y="66.075" x="655.6515" font-size="13" font-family="DejaVu Sans, sans-serif" fill="#2e4756">Enterprise</text></g><g><rect y="73.325" x="640.6515" width="13" height="13" fill="#db504a"/><text y="83.075" x="655.6515" font-size="13" font-family="DejaVu Sans, sans-serif" fill="#2e4756">Pro</text></g><g><rect y="90.325" x="640.6515" width="13" height="13" fill="#5fab9e"/><text y="100.075" x="655.6515" font-size="13" font-family="DejaVu Sans, sans-serif" fill="#2e4756">Free</text></g></g><path d="M132.73 46.5 v341.5 M132.73 388.0 h588.87" stroke="#999" stroke-width="1.5" fill="none"/></svg>